<svg version="1.1" xmlns="http://www.w3.org/2000/svg" viewBox="0 0 1375.0659403602576 573.934500337853" width="4125.197821080773" height="1721.803501013559">
  <!-- svg-source:excalidraw -->
  
  <defs>
    <style class="style-fonts">
      @font-face {
        font-family: "Virgil";
        src: url("https://excalidraw.com/Virgil.woff2");
      }
      @font-face {
        font-family: "Cascadia";
        src: url("https://excalidraw.com/Cascadia.woff2");
      }
    </style>
  </defs>
  <rect x="0" y="0" width="1375.0659403602576" height="573.934500337853" fill="#ffffff"></rect><g stroke-linecap="round" transform="translate(10 10) rotate(0 196 23)"><path d="M0 0 C0 0, 0 0, 0 0 M0 0 C0 0, 0 0, 0 0 M0.39 6.68 C0.97 5.02, 3.47 1.19, 4.68 -0.05 M-0.69 6.58 C1.15 3.87, 3.4 2.52, 4.77 1.07 M0.16 10.38 C5.56 10.7, 7.5 4.39, 12.66 -2.82 M1.02 11.59 C4.2 7.9, 5.84 2.22, 11.62 1.04 M-1.27 18.93 C7.71 9.67, 7.55 4.56, 11.96 1.58 M0.17 16.5 C4.88 13.07, 11.77 7.41, 14.89 -1.35 M0.26 27.51 C9.85 12.34, 11.03 4.68, 24.51 -0.64 M1.61 22.11 C8.05 14.94, 17.42 4.47, 19.35 0.73 M-3.96 29.47 C9.07 20.17, 18.86 13.39, 22.88 -1.17 M-0.23 30.86 C10.17 22, 15.35 11.4, 27.07 0.47 M2.12 37.56 C14.11 25.49, 24.75 9.35, 28.49 3.26 M1.42 38.43 C10.8 22.44, 26.17 8.56, 33.09 -0.82 M1.25 45.79 C10.96 32.42, 24.55 16.38, 34.9 0.15 M-0.01 43.88 C11.69 30.81, 24.28 16.96, 36.5 0.56 M-1.69 46.16 C11.89 34.33, 25.44 19.97, 45.05 3.25 M2.85 46.39 C13.18 33.09, 26.73 19.11, 41.61 0.65 M8.85 47.4 C21.23 32.79, 40.96 15.68, 49.98 2.58 M7.93 47.99 C23.64 28.81, 37.43 8.47, 48.74 1.9 M13.98 50.06 C25.88 32.51, 43.05 12.9, 50.13 -1.61 M10.62 48.65 C25.08 30.26, 39.44 15.91, 51.44 -0.9 M16.15 44.38 C34.69 34.09, 44.38 11.28, 58.05 -0.8 M15.49 48.17 C31.66 31.22, 48.24 14.45, 59.3 1.45 M21.9 44.89 C41.88 26.91, 49.77 9.82, 63.67 -0.25 M23.1 48.74 C34.59 33.58, 44.52 19.49, 63.11 -1.51 M31.16 44.33 C41.01 34.2, 50.77 22.72, 69.04 3.07 M27.27 48.92 C42 31.57, 55.25 19.36, 69.71 -1.83 M31.98 43.72 C45.15 32.22, 65.92 14.16, 77.59 -1.61 M33.82 45.65 C47.31 28.73, 64.86 12.7, 75.16 0.8 M37.81 46.31 C50.11 34.67, 59.3 20.61, 80.89 -0.76 M37.8 48.22 C48.37 37.25, 55.08 27.65, 79.52 1.05 M42.18 47.61 C51.45 34.35, 66.26 21.32, 87.86 -2.63 M42.29 48.32 C57.03 28.96, 74.83 13.77, 84.11 -2.01 M48.04 45.38 C62.13 37.98, 71.02 23.89, 87.54 0.79 M47.61 46.02 C57.32 34.69, 69.31 26.15, 90.25 1.05 M54.43 45.63 C66.11 35.45, 75.45 20.67, 94.38 -4.25 M54.06 47.75 C65.06 31.81, 76.76 18.94, 96.5 0.04 M61.79 48.6 C70.86 35.77, 84.85 18.61, 102.93 0.77 M59.23 48.3 C70.79 30.51, 86.8 18.56, 101.43 -0.86 M66.67 46.82 C75.19 31.08, 94.53 17.29, 109.12 -3.4 M64.66 48.88 C77.93 31.53, 90.31 20.36, 104.85 -1.1 M66.34 43.8 C80.37 34.58, 98.09 18.18, 113 -3.75 M68.53 47.78 C86.82 27.32, 100.71 12.96, 110.59 -1.72 M72.83 48.27 C87.09 37.65, 94.56 26, 115.34 -0.27 M75.62 46.69 C86.24 34.64, 94.64 25, 115.05 1.32 M78.95 44.51 C92.68 40.8, 101.27 25.3, 123.67 -3.71 M79.37 48.93 C87.89 36.34, 95.71 27.68, 121.26 -0.56 M86.86 51.02 C96.55 40.79, 101.89 23.99, 126.3 -1.3 M86.46 46.16 C96.78 34.11, 110.01 19.39, 124.93 1.73 M94.88 46.57 C108.56 30.71, 120.93 12.14, 128.9 -2.04 M91.61 48.46 C106.65 31.76, 120.27 17.98, 130.98 1.6 M94.68 44.15 C110.4 27.02, 126.37 9.42, 141.28 1.32 M98.73 46.24 C106.57 34.03, 118.04 19.95, 136.37 -1.12 M98.08 49.03 C110.73 35.69, 120.14 24.97, 142.61 2.3 M103.78 48.34 C114.55 31.24, 128.25 17.61, 143.28 1.73 M110.24 44.71 C116.4 31.3, 130.47 21.41, 148.21 2.66 M107.95 47.91 C121.78 31.08, 133.97 13.4, 149.91 0.72 M108.49 46.96 C118.31 37.87, 127.58 26, 150.75 -1.6 M112.42 48.54 C122.28 35.5, 133.39 23.62, 155.69 -1.22 M119.48 49.77 C127.72 38.29, 138.6 24, 155.04 1.78 M119.65 46.14 C133.48 31.52, 145.68 18.1, 160.07 1.23 M126.04 47.41 C140.71 32.09, 157.83 12.44, 167.25 3.3 M124.07 47.03 C139.78 29.67, 152.84 12.7, 163.73 1.73 M128.33 44.39 C142.39 34.12, 147.93 19.42, 165.7 1.73 M129.36 45.89 C138.11 38.1, 146.52 28.23, 171.38 0.37 M130.67 45.46 C146.09 28.86, 163.56 20.93, 178.06 -1.93 M135.24 47.79 C149.39 27.84, 163.49 10.26, 176.95 1.55 M138.73 49.63 C147.43 38.18, 156.44 25.16, 180.13 1.59 M138.62 46.14 C146.73 36.01, 156.66 26.33, 178.38 0.11 M146.32 48.16 C158.21 29.52, 165.95 21.66, 189.09 -0.22 M144.47 48.77 C152.81 35.94, 165.95 27.34, 186.86 -0.79 M148.61 50.55 C156.89 34.98, 169.31 25.8, 194.26 -3.58 M150.96 47.85 C163.52 35.26, 173.2 21.84, 189.6 0.43 M152.92 50.57 C163.69 38.5, 176.64 26.18, 194.31 -2.51 M156.29 45.95 C165.17 33.89, 174.7 22.63, 195.01 1.68 M159.92 44.22 C175.8 26.52, 186.65 12.13, 200.04 1.27 M159.91 45.99 C171.81 32.49, 184.26 19.47, 199.56 -0.72 M166.42 43.77 C178.01 28.05, 192.3 17.09, 207.63 0.26 M165.24 45.29 C175.89 35.48, 185.83 24.54, 208.93 -2.08 M170.6 47.7 C184.04 33.67, 195.23 23.78, 209.4 3.21 M172.99 45.53 C185.77 28.35, 201.1 9.95, 212.81 0.65 M174.75 46.8 C189.42 31.42, 201.92 20.28, 215.01 -2.86 M175.84 46.77 C187.85 33.43, 197.28 22.09, 218.14 -1.1 M182.57 50.06 C188.67 37.83, 197.31 21.57, 222.27 1.31 M183.74 45.43 C196.47 29.12, 215.59 11.63, 223.86 -1.51 M185.85 50.74 C201.87 29, 214.9 16.97, 230.37 -2.78 M186.63 48.35 C200.64 30.38, 219.58 11, 230.17 1.6 M193.12 45.1 C209.43 28.88, 220.04 11.17, 234.6 -1.37 M191.04 47.43 C201.73 35.72, 214.63 20.66, 233.26 0.79 M195.66 50.64 C215.17 33.36, 223.57 12.63, 239 -1.71 M198.14 46 C208.44 34.25, 217.29 22.7, 237.91 1.73 M205.51 44.38 C211.86 29.73, 231.23 15.58, 246.33 2.22 M201.73 48.98 C211.72 36.24, 225.16 22.9, 243.53 1.49 M212.11 45.57 C221.71 30.79, 233.97 11.37, 248.15 -0.08 M208.89 45.69 C217.77 34.67, 228.69 20.55, 250.19 -1.24 M217.01 49.73 C223.97 28.81, 242.53 13.51, 253.39 -0.85 M214.69 47.81 C226.2 31.58, 240.05 14.41, 255.21 0.58 M215.14 46.6 C231.43 30.68, 240.82 21.96, 259.1 -0.08 M219.43 47.39 C233.18 33.34, 244.97 16.26, 259.9 0.41 M221.55 50.19 C236.43 34.31, 255.46 11.43, 263.71 -3.51 M223.43 46.88 C238.22 30.44, 249.1 16.1, 266.82 0.03 M228.69 44.77 C246.1 32.69, 259.05 14.45, 269.79 -0.64 M228.27 45.07 C239.97 35.01, 250.22 21.03, 270.55 -0.36 M233.09 46.85 C245.22 33.81, 256.95 22.38, 273.25 -2.71 M235.51 47.16 C248.21 31.05, 265.86 12.13, 274.9 -0.21 M240.69 43.16 C256.14 26.8, 272.09 9.94, 282.15 3.29 M239.96 46.7 C253.36 28.73, 266.8 14.93, 279.69 -0.57 M245.55 44.74 C255.64 37.45, 263.69 27.73, 289.92 0.62 M244.44 47.63 C259.13 30.13, 274.03 15.44, 285.98 -2.15 M251.09 48.83 C265.07 28.4, 272.45 19.58, 294.12 -3.22 M249.02 46.24 C268.51 30.49, 284.68 12.4, 290.84 0.74 M256.87 44.95 C263.68 37.5, 270.59 29.25, 293.68 1.54 M253.76 49.24 C271.4 29.9, 287.16 14.18, 296.59 -1.84 M263.82 48.84 C271.44 32.51, 291.85 12.14, 299.64 0.9 M259.99 47.67 C270.49 32.83, 283.78 19.72, 301.54 -1.45 M268.99 44.53 C274.37 35.94, 285.82 17.67, 308.45 -0.89 M265.01 46.97 C279.97 33.41, 288.96 19.62, 309.26 -1.29 M270.81 50.26 C288.63 33.76, 300.68 18.01, 312.66 0.7 M271.39 44.95 C289.01 30.92, 305.03 10.41, 311.32 1.82 M279.85 44.55 C287.48 36.36, 300.1 14.05, 322.18 -3.6 M277.7 45.79 C287.36 33.25, 299.06 22.27, 316.52 -0.55 M284.02 48.14 C295.3 33.26, 302.63 29.42, 327.09 1.25 M283.76 46.05 C294.47 34.36, 305.42 22.56, 321.7 1.52 M291.38 50.06 C304.27 31.09, 317.78 15.47, 326.81 0.47 M289.38 48.67 C304.61 27.91, 321.51 11.35, 328.91 -1.65 M295.37 49.55 C307.01 30.93, 318.5 15.33, 332.89 3.6 M291.63 44.94 C304.83 32.71, 318.13 20.08, 332.22 -1.37 M301.53 46.13 C308.5 31.7, 329.59 10.99, 342.26 -1.62 M299.57 48.57 C309.89 29.7, 327.08 16.1, 338.95 -0.61 M300.14 50.3 C317.65 34.44, 327.12 25.04, 347.99 -3.17 M302.87 46.35 C318.35 32.63, 332.51 15.11, 344.41 0.1 M312.22 45.82 C319.14 32.43, 333.41 15.8, 351.83 -2.05 M309.81 48.46 C318.12 38.9, 323.55 27.68, 348.52 1.29 M315.58 47.95 C319.71 39.3, 333.91 23.54, 354.32 -2.01 M313.33 46.73 C323.47 35.54, 331.28 24.1, 353.8 -1.1 M321.4 50.2 C334.67 34.88, 343.31 15.06, 360.76 0.73 M319.62 45.32 C334.12 33.45, 345.36 16.22, 359.46 -1.5 M320.99 46.32 C331.4 36.1, 342.29 24.24, 361.83 -3.85 M322.88 46.8 C336.57 34.83, 350.34 19.05, 365.93 -1.98 M331.01 48.32 C343.77 31.43, 350.67 23.56, 368.34 -1.47 M330.54 46.11 C344.86 32.47, 355.94 14.55, 369.65 1.76 M332.28 44.47 C352.2 30.72, 364.95 11.4, 376.45 0.37 M334.05 48.54 C345.36 34.66, 356.08 22.68, 376.32 -1.59 M338.98 49.26 C352.46 33.86, 360.7 21.12, 378.49 2.43 M342.1 47.79 C350.26 36.36, 356.11 26.49, 379.63 -0.98 M345.41 45.46 C362.36 29.11, 374.88 15.6, 384.13 -0.29 M347.38 47.92 C356.52 35.75, 370.24 20.05, 386.51 -0.96 M355.25 50.06 C362.04 34.55, 377.74 20.9, 391.16 3.48 M351.83 45.35 C366.05 29.69, 378.84 12.61, 391.91 0.27 M360.31 48.35 C371.87 34.45, 377.5 20.34, 393.54 9.28 M357.4 46.9 C369.99 33.15, 381.96 21.26, 390.77 6.92 M361.76 43.8 C370.36 33.31, 386.96 20.42, 391.8 8.82 M363.26 47.74 C375.69 35.47, 384.24 18.67, 392.54 13.53 M364.91 48.2 C372 38.69, 382.19 31.51, 389.97 18.88 M368.63 45.45 C374.95 38.73, 383.31 27.95, 389.99 17.78 M376.44 43.54 C377.53 41.59, 381.91 37.77, 390.82 21.44 M373.93 45.94 C379.73 38.25, 383.79 33.06, 390.54 24.71 M375.16 44.09 C379.71 38.63, 391.89 34.68, 393.92 30.04 M375.61 45.54 C379.65 42.18, 385.51 38.2, 390.25 29.03 M381.83 49.31 C385.83 46.58, 384.87 41.33, 392.25 36.39 M383.32 48.32 C384.99 43.87, 387.74 41.29, 391.03 37.35 M387.84 47.22 C390.54 45.39, 390.49 43.04, 391.7 42.1 M387.8 47.24 C389.28 45.35, 391.08 43.55, 392.23 43.25" stroke="#228be6" stroke-width="0.5" fill="none"></path><path d="M-0.39 -1.59 C120.41 -3.36, 242.28 -2.46, 392.53 -0.38 M-0.14 0.9 C121.38 -0.76, 239.94 0.14, 392.48 -0.27 M395.31 -2.95 C388.1 14.61, 390.46 38.93, 394.78 49.12 M390.32 1.43 C393.7 16.52, 394.32 33.92, 392.92 44.74 M394.11 47.11 C282.75 47.86, 169.46 47.61, -0.4 46.89 M392.49 45.52 C238.39 46.42, 84.33 47.76, -1.08 46.98 M0.43 42.59 C0.77 39.72, -2.56 27.01, 3.36 2.61 M-0.9 45.56 C1.44 26.95, -1.8 10.33, -0.14 -0.43" stroke="#000000" stroke-width="1" fill="none"></path></g><g transform="translate(40.5 15) rotate(0 165.5 18)"><text x="165.5" y="25" font-family="Virgil, Segoe UI Emoji" font-size="28px" fill="#000000" text-anchor="middle" style="white-space: pre;" direction="ltr">Semi-supervised Learning</text></g><g stroke-linecap="round" transform="translate(12.414414087043042 56.400372532752954) rotate(0 676.3257631366073 253.76706390255003)"><path d="M-0.01 0.35 C521.55 8.36, 1041.5 7.13, 1352.76 -0.64 M1354.22 -0.74 C1351.38 155.25, 1352.82 309.13, 1354.12 506.35 M1351.37 506.17 C868 500.7, 385.15 500.81, 1.15 508.26 M1.03 507.06 C4.94 388.58, 4.15 269.11, -0.26 -1.3" stroke="#000000" stroke-width="1.5" fill="none" stroke-dasharray="8 9"></path></g><g transform="translate(58.952826425385865 90.71460002684398) rotate(0 402 12.5)"><text x="0" y="18" font-family="Virgil, Segoe UI Emoji" font-size="20px" fill="#000000" text-anchor="start" style="white-space: pre;" direction="ltr">The data analyst works with a collection of both labeled and unlabeled samples:</text></g><g stroke-linecap="round"><g transform="translate(513.4523881242694 117.40061257204798) rotate(0 170.70946331334562 0.35002496446486475)"><path d="M0.26 0.73 C57.48 0.97, 285.6 1.31, 342.48 1.39 M-1.06 0.08 C56.13 -0.07, 284.95 -1, 341.91 -0.59" stroke="#364fc7" stroke-width="1" fill="none"></path></g></g><mask></mask><g stroke-linecap="round"><g transform="translate(988.2579169306064 182.52232113079663) rotate(0 -42.95928696961846 -28.512961764995453)"><path d="M0.73 0.72 C-12.37 -0.19, -64.72 4.7, -78.62 -5.18 C-92.52 -15.06, -81.99 -49.73, -82.66 -58.57 M-0.34 0.05 C-13.57 -0.69, -65.58 5.85, -79.42 -3.75 C-93.26 -13.34, -82.89 -48.6, -83.39 -57.51" stroke="#364fc7" stroke-width="1" fill="none"></path></g><g transform="translate(988.2579169306064 182.52232113079663) rotate(0 -42.95928696961846 -28.512961764995453)"><path d="M-75.92 -31.18 C-79.39 -39.2, -81.74 -46.99, -83.63 -55.96 M-76.81 -31.21 C-79.73 -41.04, -82.73 -51.67, -82.56 -58.24" stroke="#364fc7" stroke-width="1" fill="none"></path></g><g transform="translate(988.2579169306064 182.52232113079663) rotate(0 -42.95928696961846 -28.512961764995453)"><path d="M-94.02 -33.21 C-92.06 -40.74, -88.99 -47.92, -83.63 -55.96 M-94.91 -33.24 C-90.63 -42.17, -86.43 -52, -82.56 -58.24" stroke="#364fc7" stroke-width="1" fill="none"></path></g></g><mask></mask><g stroke-linecap="round"><g transform="translate(995.2418526936071 184.51130994522464) rotate(0 -13.533051541386612 -30.16265041553106)"><path d="M0.72 0.27 C-3.61 -5.09, -22.05 -21.29, -25.71 -31.44 C-29.37 -41.58, -22.03 -55.88, -21.23 -60.6 M-0.36 -0.63 C-4.88 -5.84, -23.11 -20.09, -26.76 -29.86 C-30.41 -39.63, -23.25 -53.93, -22.25 -59.25" stroke="#364fc7" stroke-width="1" fill="none"></path></g><g transform="translate(995.2418526936071 184.51130994522464) rotate(0 -13.533051541386612 -30.16265041553106)"><path d="M-21.17 -44.75 C-21.73 -49.84, -22 -54.17, -21.1 -57.8 M-21.19 -44.68 C-20.94 -48.79, -21.38 -51.38, -22.79 -59.84" stroke="#364fc7" stroke-width="1" fill="none"></path></g><g transform="translate(995.2418526936071 184.51130994522464) rotate(0 -13.533051541386612 -30.16265041553106)"><path d="M-30.82 -47.72 C-28.26 -51.91, -25.42 -55.28, -21.1 -57.8 M-30.85 -47.65 C-28.16 -51.04, -26.15 -52.87, -22.79 -59.84" stroke="#364fc7" stroke-width="1" fill="none"></path></g></g><mask></mask><g stroke-linecap="round"><g transform="translate(996.7270428772717 181.79289236718614) rotate(0 15.092213530932895 -30.71829574664389)"><path d="M0.27 -0.2 C5.01 -4.2, 24.36 -13.14, 29.16 -23.31 C33.95 -33.48, 28.9 -55.14, 29.03 -61.24 M-1.04 -1.35 C3.48 -5.25, 23.36 -12.25, 28.25 -22.03 C33.14 -31.8, 27.9 -53.36, 28.29 -60" stroke="#364fc7" stroke-width="1" fill="none"></path></g><g transform="translate(996.7270428772717 181.79289236718614) rotate(0 15.092213530932895 -30.71829574664389)"><path d="M35.93 -42.47 C32.5 -48.77, 30.16 -53.67, 30.17 -60.88 M36.03 -41.72 C33.48 -46.39, 32.98 -52.02, 27.52 -60.82" stroke="#364fc7" stroke-width="1" fill="none"></path></g><g transform="translate(996.7270428772717 181.79289236718614) rotate(0 15.092213530932895 -30.71829574664389)"><path d="M22.88 -41.43 C24.16 -48.14, 26.54 -53.41, 30.17 -60.88 M22.98 -40.68 C23.72 -45.66, 26.49 -51.56, 27.52 -60.82" stroke="#364fc7" stroke-width="1" fill="none"></path></g></g><mask></mask><g transform="translate(935.2753817258454 194.19345538255948) rotate(0 75.5 12.5)"><text x="0" y="18" font-family="Virgil, Segoe UI Emoji" font-size="20px" fill="#364fc7" text-anchor="start" style="white-space: pre;" direction="ltr">Feature Vector</text></g><g transform="translate(1137.9629767532533 178.29527852980755) rotate(0 90 25)"><text x="0" y="18" font-family="Virgil, Segoe UI Emoji" font-size="20px" fill="#364fc7" text-anchor="start" style="white-space: pre;" direction="ltr">1-dimensional array</text><text x="0" y="43" font-family="Virgil, Segoe UI Emoji" font-size="20px" fill="#364fc7" text-anchor="start" style="white-space: pre;" direction="ltr">with D values</text></g><g stroke-linecap="round" transform="translate(1179.922352953563 204.78242081279313) rotate(0 14.225853865125373 12.051518397648579)"><path d="M12.9 -0.46 C15.7 -0.86, 20.52 1.01, 23 2.78 C25.49 4.55, 27.29 7.62, 27.83 10.16 C28.37 12.7, 27.4 15.98, 26.22 18.01 C25.03 20.05, 23.53 21.58, 20.72 22.37 C17.92 23.16, 12.47 23.24, 9.38 22.75 C6.28 22.26, 3.58 21.3, 2.15 19.42 C0.71 17.54, 0.29 14.07, 0.79 11.46 C1.29 8.86, 2.88 5.81, 5.16 3.76 C7.43 1.71, 12.39 -0.37, 14.44 -0.82 C16.5 -1.26, 17.45 0.58, 17.5 1.08 M12.88 -1.18 C15.65 -1.14, 19.97 1.7, 22.61 3.61 C25.25 5.52, 27.81 8.03, 28.72 10.28 C29.62 12.53, 29.35 15.03, 28.05 17.11 C26.75 19.19, 23.78 21.44, 20.94 22.76 C18.09 24.09, 13.88 25.65, 10.99 25.07 C8.1 24.49, 5.29 21.76, 3.58 19.29 C1.86 16.82, 0.42 13.08, 0.7 10.26 C0.99 7.43, 2.96 3.94, 5.27 2.34 C7.58 0.74, 13.47 0.79, 14.55 0.66 C15.63 0.53, 12.18 1.69, 11.74 1.54" stroke="#d9480f" stroke-width="1" fill="none"></path></g><g stroke-linecap="round"><g transform="translate(1205.4419968449474 265.7650912358149) rotate(0 -11.419434524340886 -16.834405609198257)"><path d="M0.06 -0.15 C-3.64 0.05, -19.92 6.82, -22.11 0.69 C-24.3 -5.44, -14.74 -30.83, -13.08 -36.92 M-1.37 -1.27 C-5.15 -1.33, -20.44 4.96, -22.57 -0.82 C-24.69 -6.59, -15.95 -29.69, -14.14 -35.91" stroke="#d9480f" stroke-width="1" fill="none"></path></g><g transform="translate(1205.4419968449474 265.7650912358149) rotate(0 -11.419434524340886 -16.834405609198257)"><path d="M-13.75 -15.79 C-11.81 -23.83, -14.73 -28.1, -13.36 -36.33 M-12.75 -17.93 C-14.38 -25.35, -14.07 -31.2, -13.49 -35.18" stroke="#d9480f" stroke-width="1" fill="none"></path></g><g transform="translate(1205.4419968449474 265.7650912358149) rotate(0 -11.419434524340886 -16.834405609198257)"><path d="M-25.9 -19.76 C-20.24 -26.59, -19.44 -29.65, -13.36 -36.33 M-24.9 -21.9 C-21.79 -27.84, -16.72 -32.13, -13.49 -35.18" stroke="#d9480f" stroke-width="1" fill="none"></path></g></g><mask></mask><g transform="translate(1186.1256916017337 245.1604105040933) rotate(0 66.5 25)"><text x="66.5" y="18" font-family="Virgil, Segoe UI Emoji" font-size="20px" fill="#e67700" text-anchor="middle" style="white-space: pre;" direction="ltr">Vector</text><text x="66.5" y="43" font-family="Virgil, Segoe UI Emoji" font-size="20px" fill="#e67700" text-anchor="middle" style="white-space: pre;" direction="ltr">Dimensionality</text></g><g transform="translate(877.2342416670326 92.55884134501684) rotate(0 145 12.5)"><text x="0" y="18" font-family="Virgil, Segoe UI Emoji" font-size="20px" fill="#000000" text-anchor="start" style="white-space: pre;" direction="ltr">{(x1, y1), x2, (x3, y3) ..., xN)}</text></g><g stroke-linecap="round"><g transform="translate(997.7208092411438 181.71339474797423) rotate(0 73.03025534450853 -30.10107867012448)"><path d="M1.17 -0.56 C22.46 -5.37, 103.54 -17.7, 127.58 -27.93 C151.62 -38.17, 142.36 -56.2, 145.43 -61.97 M0.33 1.77 C22.03 -3.5, 105.89 -19.43, 129.99 -29.86 C154.09 -40.29, 142.73 -55.45, 144.93 -60.8" stroke="#364fc7" stroke-width="1" fill="none"></path></g><g transform="translate(997.7208092411438 181.71339474797423) rotate(0 73.03025534450853 -30.10107867012448)"><path d="M151.33 -44.49 C150.55 -47.69, 147.45 -51.7, 143.55 -59.71 M151.39 -43.79 C150.21 -49.58, 147.49 -56.14, 145.35 -61.41" stroke="#364fc7" stroke-width="1" fill="none"></path></g><g transform="translate(997.7208092411438 181.71339474797423) rotate(0 73.03025534450853 -30.10107867012448)"><path d="M138.57 -43.85 C141.46 -47.36, 142.03 -51.56, 143.55 -59.71 M138.63 -43.15 C142.34 -49.08, 144.5 -55.89, 145.35 -61.41" stroke="#364fc7" stroke-width="1" fill="none"></path></g></g><mask></mask><g stroke-linecap="round"><g transform="translate(1125.112490737678 230.71698523317173) rotate(0 -20.229304754605437 -4.137329620806668)"><path d="M-0.56 -0.58 C-5.45 -0.55, -21.7 2.64, -28.43 1.35 C-35.15 0.07, -38.72 -6.6, -40.9 -8.27 M1.35 1.73 C-3.74 1.9, -21.98 1.45, -29.18 -0.51 C-36.37 -2.47, -39.72 -8.31, -41.81 -10.04" stroke="#364fc7" stroke-width="1" fill="none"></path></g><g transform="translate(1125.112490737678 230.71698523317173) rotate(0 -20.229304754605437 -4.137329620806668)"><path d="M-35.22 -6.25 C-37.18 -8.05, -39.42 -9.78, -41.36 -9.39 M-34.92 -6.22 C-36.12 -7.06, -37.69 -7.98, -42.07 -10.37" stroke="#364fc7" stroke-width="1" fill="none"></path></g><g transform="translate(1125.112490737678 230.71698523317173) rotate(0 -20.229304754605437 -4.137329620806668)"><path d="M-39.12 -2.6 C-39.65 -5.75, -40.41 -8.87, -41.36 -9.39 M-38.83 -2.57 C-39.11 -4.19, -39.79 -5.95, -42.07 -10.37" stroke="#364fc7" stroke-width="1" fill="none"></path></g></g><mask></mask><g transform="translate(61.768837735886336 185.44873947160522) rotate(0 313 25)"><text x="0" y="18" font-family="Virgil, Segoe UI Emoji" font-size="20px" fill="#000000" text-anchor="start" style="white-space: pre;" direction="ltr">The quantity of unlabeled examples is usually much higher than</text><text x="0" y="43" font-family="Virgil, Segoe UI Emoji" font-size="20px" fill="#000000" text-anchor="start" style="white-space: pre;" direction="ltr">the number of labeled examples</text></g><g stroke-linecap="round"><g transform="translate(105.37069665235504 213.8593110069196) rotate(0 263.45825682090117 -3.502666377220521)"><path d="M0.38 0.5 C88.44 -0.4, 440 -4.82, 527.8 -5.96 M-0.88 -0.28 C87.04 -1.44, 438.29 -6.16, 526.71 -7.5" stroke="#364fc7" stroke-width="1" fill="none"></path></g></g><mask></mask><g transform="translate(551.9857508756832 429.73561413504285) rotate(0 389 12.5)"><text x="0" y="18" font-family="Virgil, Segoe UI Emoji" font-size="20px" fill="#000000" text-anchor="start" style="white-space: pre;" direction="ltr">and outputs information that allows deducing a label for this feature vector.</text></g><g transform="translate(62.11895954942884 278.33699428760883) rotate(0 154 12.5)"><text x="0" y="18" font-family="Virgil, Segoe UI Emoji" font-size="20px" fill="#364fc7" text-anchor="start" style="white-space: pre;" direction="ltr">Goal, as in Supervised Learning</text></g><g transform="translate(63.34516064855234 311.6087398402451) rotate(0 176.5 12.5)"><text x="0" y="18" font-family="Virgil, Segoe UI Emoji" font-size="20px" fill="#000000" text-anchor="start" style="white-space: pre;" direction="ltr">Use a dataset to produce a model</text></g><g transform="translate(391.48417974440235 372.0424236198487) rotate(0 203.5 12.5)"><text x="0" y="18" font-family="Virgil, Segoe UI Emoji" font-size="20px" fill="#000000" text-anchor="start" style="white-space: pre;" direction="ltr">that takes a feature vector x as input</text></g><g stroke-linecap="round"><g transform="translate(288.8106209229463 345.5053298408893) rotate(0 42.50987820553655 21.89994357643627)"><path d="M0.7 0.99 C-0.3 7.48, -20.31 31.31, -4.87 38.03 C10.58 44.75, 76.68 40.59, 93.36 41.32 M-0.4 0.47 C-1.11 7.15, -18.64 32.06, -2.62 39.06 C13.4 46.07, 79.29 42.29, 95.72 42.5" stroke="#364fc7" stroke-width="1" fill="none"></path></g><g transform="translate(288.8106209229463 345.5053298408893) rotate(0 42.50987820553655 21.89994357643627)"><path d="M69.39 51.83 C77.17 47.19, 89.32 46.1, 97.11 44.06 M66.89 54.02 C78.74 49.17, 89.47 45.29, 96.18 41.87" stroke="#364fc7" stroke-width="1" fill="none"></path></g><g transform="translate(288.8106209229463 345.5053298408893) rotate(0 42.50987820553655 21.89994357643627)"><path d="M68.99 31.31 C76.78 34.72, 89.08 41.67, 97.11 44.06 M66.5 33.5 C78.58 36.29, 89.46 40.05, 96.18 41.87" stroke="#364fc7" stroke-width="1" fill="none"></path></g></g><mask></mask><g stroke-linecap="round"><g transform="translate(442.8815186819411 405.51248362348997) rotate(0 41.71941626829721 20.87776952188142)"><path d="M0.99 -0.88 C0.32 5.33, -20.47 30.75, -4.95 37.97 C10.57 45.19, 77.44 41.68, 94.13 42.44 M0.05 1.27 C-0.18 7.53, -18.27 32.42, -2.74 38.97 C12.79 45.51, 76.79 40.3, 93.23 40.54" stroke="#364fc7" stroke-width="1" fill="none"></path></g><g transform="translate(442.8815186819411 405.51248362348997) rotate(0 41.71941626829721 20.87776952188142)"><path d="M63.9 50.08 C69.9 48.51, 79.34 47.81, 94.79 41.99 M66.09 52.33 C74.77 49.03, 84.53 44.69, 92.6 40.38" stroke="#364fc7" stroke-width="1" fill="none"></path></g><g transform="translate(442.8815186819411 405.51248362348997) rotate(0 41.71941626829721 20.87776952188142)"><path d="M63.26 29.57 C69.52 32.63, 79.11 36.57, 94.79 41.99 M65.45 31.82 C74.21 35.6, 84.19 38.34, 92.6 40.38" stroke="#364fc7" stroke-width="1" fill="none"></path></g></g><mask></mask><g transform="translate(64.71510073131321 502.77213865189697) rotate(0 480.5 12.5)"><text x="0" y="18" font-family="Virgil, Segoe UI Emoji" font-size="20px" fill="#000000" text-anchor="start" style="white-space: pre;" direction="ltr">The hope is that, by using many unlabeled examples, a learning algorithm can find a better model</text></g><g stroke-linecap="round"><g transform="translate(1133.6825000945428 467.16883041706024) rotate(0 -40.92074747763354 25.913556558891287)"><path d="M-0.96 -1.03 C-2.41 7.1, 5.89 39.1, -7.66 47.87 C-21.2 56.64, -69.82 51.04, -82.24 51.6 M0.73 1.05 C-0.98 8.92, 5.14 38.08, -8.74 46.2 C-22.62 54.32, -70.44 49.29, -82.57 49.75" stroke="#364fc7" stroke-width="1" fill="none"></path></g><g transform="translate(1133.6825000945428 467.16883041706024) rotate(0 -40.92074747763354 25.913556558891287)"><path d="M-55.79 39.92 C-63.62 45.11, -74.4 48.76, -81.67 48.43 M-54.38 41.3 C-60.32 43.02, -66.95 44.43, -83.38 49.82" stroke="#364fc7" stroke-width="1" fill="none"></path></g><g transform="translate(1133.6825000945428 467.16883041706024) rotate(0 -40.92074747763354 25.913556558891287)"><path d="M-56.42 60.43 C-63.85 57.78, -74.39 53.57, -81.67 48.43 M-55 61.81 C-60.96 59.1, -67.45 56.08, -83.38 49.82" stroke="#364fc7" stroke-width="1" fill="none"></path></g></g><mask></mask></svg>