<svg version="1.1" xmlns="http://www.w3.org/2000/svg" viewBox="0 0 1377.4078053014427 712.0615182235324" width="100%" height="100%">
  <!-- svg-source:excalidraw -->
  
  <defs>
    <style class="style-fonts">
      @font-face {
        font-family: "Virgil";
        src: url("https://excalidraw.com/Virgil.woff2");
      }
      @font-face {
        font-family: "Cascadia";
        src: url("https://excalidraw.com/Cascadia.woff2");
      }
    </style>
  </defs>
  <rect x="0" y="0" width="1377.4078053014427" height="712.0615182235324" fill="#ffffff"></rect><g stroke-linecap="round" transform="translate(10 10) rotate(0 378.5 51)"><path d="M0 0 C0 0, 0 0, 0 0 M0 0 C0 0, 0 0, 0 0 M-1.6 5.97 C0.25 3.55, 5.17 0.29, 6.56 1.71 M-0.31 5.75 C0.53 4.42, 1.98 2.9, 4.8 0.56 M-1.4 14.41 C1.04 4.59, 9.23 0.26, 10.22 2.19 M1.12 11.27 C4.97 8.72, 7.2 5.09, 11.85 1.01 M-0.2 20.04 C3.37 12.95, 6.48 8.04, 17.05 -2.59 M-0.36 20.19 C4.39 11.97, 8.09 8.19, 16.87 -0.39 M1.44 26.73 C7.9 16.98, 12.22 7.54, 22.06 1.83 M-1.05 23.52 C8.58 16.23, 14.15 8.81, 21.44 -1.95 M-3.32 29.38 C6.64 23.12, 15.16 15.95, 23.53 1.38 M1.07 30.19 C8.12 18.49, 18.22 9.45, 25.57 -1.12 M-0.33 34.3 C4.64 29.25, 14.66 23.99, 29.79 -0.07 M0.25 37.14 C10.01 27.28, 17.96 13.98, 33.68 1.78 M1.91 43.3 C8.05 31.67, 14.59 20.33, 36.69 -0.85 M-0.15 42.69 C10.49 27.7, 24.01 11.81, 36.34 1.26 M1.06 45.23 C9.63 32.23, 22.74 18.3, 39.55 -2.34 M1.05 48.27 C15.45 28.7, 30.96 13.49, 42.12 0.02 M4.25 55.9 C12.27 36.49, 33.61 22.93, 50.71 2.38 M1.99 56.48 C8.9 43.62, 22.22 29.91, 46.97 -1.71 M-2.37 57.42 C20.78 38.32, 37.09 13.31, 55.49 3.71 M-0.76 60.47 C14.94 43.06, 33.46 22.89, 54.1 -0.73 M-2.33 70.13 C20.22 48.52, 36.57 29.83, 61.68 2.84 M-1.08 66.08 C18.94 44.36, 38.06 23.19, 59.33 -1.55 M-0.03 72.15 C16.36 49.86, 32.99 28.96, 63.59 2.94 M1.43 73.45 C12.82 60.69, 25.61 45.56, 63 0.98 M0 78.84 C18.77 53.7, 34.06 39.35, 67.52 -3.56 M-1.93 78.66 C30.04 48.27, 53.95 16.55, 67.32 -0.87 M-3.5 86.82 C24.17 52.59, 53.11 22.28, 71.75 -3.71 M-1.72 83.86 C18.23 58.78, 39.93 34.7, 76.27 1.53 M0.94 93.23 C16.5 66.38, 37.7 44.23, 76.06 -0.8 M-1 90.62 C18.67 70.55, 36.52 50.69, 80.93 -1.32 M0.89 95.71 C19.89 76.51, 38.81 50.49, 85.72 0.87 M-0.12 98.07 C34.39 58.59, 67.5 22.42, 83.42 0.23 M-2.57 99.14 C31.21 65.72, 56.15 35.82, 89 -0.72 M0.62 103.76 C22.36 76.76, 41.62 50.2, 90.21 0.4 M4.56 104.17 C28.22 77.57, 42.04 59.79, 93.14 1.88 M4.23 102.3 C40.56 59.82, 76.02 19.44, 96.04 -0.67 M8.77 104.72 C43.5 67.81, 68.9 39.73, 101.89 -3.07 M12.45 101.01 C39.92 65.74, 71.92 32.25, 101.26 0.5 M15.6 100.24 C53.52 64.35, 88.55 25.51, 103.5 0.66 M16.22 102.28 C35.69 78.7, 57.15 51.81, 107.75 0.03 M25.12 100.13 C58.72 67, 83.77 26.36, 112.19 -3.42 M23.02 102.15 C41.61 79.69, 62.18 55.96, 112.25 0.13 M25.37 103.1 C46.09 77.69, 67.89 52.39, 115.53 -0.57 M26.18 103.72 C55.21 74.1, 79.66 41.19, 117.61 -0.8 M36.38 104.32 C47.57 79.7, 72.3 59.43, 119.21 -1.27 M32.8 102.54 C63.88 68.36, 91.67 32.05, 121.42 1.41 M39.67 106.77 C52.76 80.03, 74.62 54.06, 127.8 -1.73 M37.09 103.96 C71.92 62.93, 108.68 19.95, 128.68 -1.6 M46.28 104.39 C71.61 74.26, 90.66 48.74, 132.14 0.05 M44.28 104.5 C62.86 79.04, 81.19 58.32, 131.04 -0.64 M50.22 101.41 C77.75 70.69, 103.6 45.03, 134.79 -0.36 M47.99 101.27 C64.84 81.3, 83.55 57.79, 136.14 0.4 M56.48 103.55 C79.73 74.58, 97.13 48.88, 146.06 1.31 M54.06 101.29 C73.74 80.18, 95.25 59.06, 143.49 -2.05 M58.56 105.3 C87.99 70.31, 115.95 42.79, 145.5 -2.62 M57.99 102.9 C80.56 74.55, 104.88 48.53, 149.87 2.12 M66.46 105.14 C98.12 57.46, 135.23 21.98, 149.91 -0.6 M64.76 101.1 C100.59 65.43, 134.67 23.77, 153.18 -1.91 M68.16 100.82 C104.33 64.04, 141.78 18.2, 158.81 1.46 M70.26 100.98 C98.62 69.59, 129.06 34.88, 157.83 -0.54 M73.62 104.61 C96.31 78.4, 118.6 58.11, 166.5 3.36 M77.09 103.04 C103.35 67.07, 133.7 33.07, 162.59 1.63 M76.32 106.52 C98.32 76.54, 121.55 60.65, 171.48 -2.04 M80.02 104.62 C116.22 63.49, 150.14 22.34, 170.02 -0.79 M89.21 105.56 C118.46 69.08, 144.97 32.58, 172.52 2.33 M85.81 101.2 C106.88 76.91, 130.32 48.98, 174.27 -0.65 M90.24 105.03 C120.88 71.82, 151.69 38.19, 178.14 -2.9 M90.58 103.86 C121.37 65.76, 153.34 30.6, 178.52 -0.85 M98.35 103.71 C124.8 68.48, 159.22 26.33, 186.56 -2.41 M95.74 100.57 C119.09 77.18, 142.78 51.39, 186.82 -1.02 M102.98 99.14 C137.95 58.05, 175.63 23.06, 187.29 1.21 M101.29 101.66 C127.85 72.03, 153.66 42.1, 189.48 -0.05 M108.06 102.88 C128.23 84.51, 142.88 59.81, 197.05 2.55 M105.77 101.09 C135.03 65.94, 169.77 31.49, 194.92 1.18 M109.5 103.75 C145.41 63.89, 173.73 24.9, 205.31 -3.25 M111.57 101.93 C145.56 64.57, 180.41 27.15, 203.08 1.25 M115.21 99.05 C146.75 66.4, 178.52 33.44, 210.3 2.71 M116.86 101.64 C151.58 64.63, 187.21 27.8, 205.28 -0.47 M122.6 105.87 C155.48 68.38, 187.98 29.13, 212.47 2.33 M120.9 101.53 C139.21 80.05, 158.34 61.17, 213.59 1.61 M129.91 105.04 C147.57 71.14, 175.01 49.01, 218.52 -4.26 M127.35 104.8 C153.85 72.23, 178.54 43.12, 216.71 0.58 M132.99 104.66 C158.2 75.68, 177.47 52.24, 218.89 -3.36 M132.83 102.23 C153.11 82.35, 173.41 57.94, 221.35 -1.47 M138.1 99.58 C162.32 74.07, 186.91 53.33, 231.77 -0.58 M139.64 101.79 C171.56 65.27, 204.25 28.79, 228.07 -0.2 M141.23 103.4 C182.13 66.93, 210.91 20.6, 232.58 -1.48 M142.96 102.76 C169.96 69.75, 202.56 36.35, 232.72 0.45 M145.63 103.75 C172.1 71.22, 197.08 45.69, 237.33 -3.62 M148.21 101.08 C170.23 78.35, 192.54 51, 237.61 2.34 M157.76 101.48 C184.23 68.14, 211.19 36.95, 243.42 2.95 M154.95 102.77 C175.08 75.27, 201.72 47.79, 244.18 -1.24 M156.87 106.01 C188.32 71.06, 215.27 33.15, 250.35 3.17 M158.25 101.28 C187.6 67.54, 221.13 30.04, 249.64 0.06 M162.91 102.44 C199.32 67.08, 229.83 33.64, 255.16 -3 M164.55 102.87 C185.56 77.95, 208.48 57.78, 254.22 -0.24 M174.09 102.95 C189.44 76.71, 212.21 58.18, 261.85 2.66 M169.04 103.97 C202.14 64.49, 239.43 23.67, 258.53 -0.02 M178.86 105.92 C192.69 76.73, 216.46 55.23, 261.43 -0.12 M175.54 100.58 C196.61 77.29, 218.83 54.01, 263.42 0.72 M181.41 99.28 C216.61 63.47, 247.3 29.36, 273.4 -2.85 M181.89 101.64 C205.77 74.46, 225.65 49.9, 271.39 1.33 M189.69 99.69 C205.47 80.8, 229.45 53.36, 277.75 -1.05 M187.78 102.38 C224.08 63.42, 259.62 24.02, 274.43 1.81 M192.85 99.85 C224.79 58.7, 258.66 17.09, 280.45 1.04 M192.19 101.74 C227.08 65.41, 261.48 23.31, 279.4 0.26 M197.33 99.66 C227.46 62.38, 269.37 21.51, 285.49 -2.34 M197.2 103.68 C217.97 79.58, 236.51 59.21, 287.93 -1.82 M204.28 101.61 C226.12 77.4, 249.57 42.06, 288.32 0.84 M201.4 102.64 C234.67 66.23, 266.48 29.01, 289.78 1.89 M205.61 101.86 C240.64 67.09, 274.45 34.21, 295.91 -0.41 M207.76 100.82 C234.09 77.01, 256.35 49.52, 298.7 -0.12 M209.46 101.65 C235.59 73.28, 264.25 46.82, 304.19 3.21 M213.02 101.66 C237.93 72.08, 263.78 44.19, 301.83 0.22 M220.22 98.43 C246.84 65.02, 283.69 34.76, 310.13 0.47 M219.52 103.1 C234.91 81.52, 253.62 63.32, 307.56 -0.09 M224.02 105.19 C259.53 65.26, 292.7 23.3, 313.15 2.92 M224.63 103.05 C249.48 76.53, 269.05 51.94, 310.91 -1.75 M232.72 101.65 C252.59 72.75, 278.27 47.46, 319.17 -3.88 M228.59 100.72 C252.9 72.4, 280.52 46.04, 317.4 -1.77 M237.46 101.56 C253.97 79.7, 275.25 55.66, 326.12 -1.12 M235.88 102 C257.02 74.68, 282.25 48.35, 324.43 -0.12 M235.91 104.67 C261.62 79.12, 291.83 49.52, 327.91 -1.49 M238.47 101.6 C258.4 81.37, 275.88 62.16, 329.16 -2.31 M245.16 104.23 C263.32 73.53, 284.21 48.15, 331.93 2.11 M244.45 104.65 C271.92 70.78, 300.3 38.07, 333.88 1.96 M250.42 102.51 C283.82 64.35, 309.16 36.63, 339.1 -4.26 M250.71 104.34 C281.23 68.98, 313.47 32.95, 337.86 0.13 M256.39 102.78 C275.94 76.1, 302.64 50.73, 345.28 3.76 M254.12 104.05 C280.49 71.07, 308.3 43.2, 342.79 -1.74 M256.78 104.57 C273.33 82.19, 294.86 59.64, 352.71 0.76 M260.94 102.72 C289.95 70.97, 316.42 38.31, 347.92 -0.95 M262.28 102.93 C294.93 74.15, 318.42 37.9, 358.73 -0.9 M266.7 104.21 C290.24 77.06, 311.67 52.08, 354.78 -0.48 M270.06 99.64 C293.82 79.05, 308.55 61.8, 360.57 0.4 M269.53 102.71 C308.44 63.24, 343.8 20.94, 359.79 0.63 M275.82 102.51 C295.04 83.25, 317.54 61.18, 366.72 3.54 M278.08 104.07 C295.85 81.99, 316.26 60.18, 365.52 1.38 M283.21 104.61 C316.1 67.4, 349.81 31.67, 374.39 -0.11 M280.89 103.22 C306.1 74.86, 328.03 48.35, 370.02 0.25 M283.89 99.49 C303.71 77.13, 330.63 52.9, 373.57 -3.4 M286.23 101.51 C317.2 66.84, 348.2 33.65, 374.73 0.46 M291.03 100.5 C332.3 59.72, 361.26 16.05, 380.45 3.82 M291.5 104.1 C314.63 76.52, 339.77 49.07, 381.85 -0.53 M295.27 99.96 C318.17 79.68, 334.71 64.26, 385.48 1.93 M299.14 101.34 C325.83 70.76, 354.9 41.32, 386.21 -1.72 M306.24 104.47 C327.95 71.31, 357.99 37.42, 394.85 0.88 M301.91 102.13 C324.33 80.03, 344.96 55.46, 392.63 -1.19 M308.57 102.12 C344.24 59.72, 371.36 22.02, 394.51 -0.69 M306.89 103.31 C337.79 65.29, 371.02 26.3, 395.82 1.31 M311.39 105.79 C337.16 76.66, 352.83 54.89, 399.62 3.93 M312.73 103.04 C345.09 62.76, 378.99 25.62, 401.74 1.7 M320.3 104.32 C355.7 64.73, 384.87 20.88, 410.61 -3.36 M317.62 102.12 C349.09 68.58, 376.78 34.81, 407.47 0.96 M322.92 105.86 C357.88 62.89, 391.68 25.62, 414.63 1.92 M324.62 101.47 C357.73 62.76, 392.82 21.08, 414.62 -1.49 M332.85 105.02 C359.11 75.55, 384.24 43.5, 421.6 -2.06 M329.53 103.4 C358.38 70.88, 387.99 35.52, 417.16 1.58 M335.17 102.21 C365.07 72.71, 391.29 37.86, 425.64 -0.06 M334.31 101.04 C353.04 77.91, 375.39 51.87, 422.8 -1.42 M338.46 102.81 C372.06 62.45, 403.69 29.13, 433.16 3.37 M338.89 103.7 C361.74 80.48, 381.29 55.18, 428.91 0.46 M344.31 104.49 C367.08 81.17, 384.47 60.06, 432.28 3.21 M346.6 102.27 C373.73 74.81, 401.47 40.87, 435.84 -1.87 M351.27 104.4 C375.81 77.94, 391.8 56.54, 436.87 1.19 M352.02 102.54 C378.38 70.62, 405.41 35.87, 438.84 -0.19 M356.42 102.47 C374.88 73.32, 402.09 44.59, 448.06 1.06 M354.35 102.64 C388.89 65.59, 424.83 23.25, 445.39 0.38 M358.64 101.38 C395.87 63.74, 433.34 22.94, 450.18 -0.19 M360.64 103.1 C390.55 68.37, 417.91 37.75, 451.11 -1.21 M363.44 106.06 C391.62 71.92, 412.64 48.01, 452.34 -1.04 M366.47 104.55 C386.31 81.98, 406.3 59.51, 457.14 -0.56 M371.74 99.21 C399.01 76.39, 420.53 47.69, 460.39 -4.24 M372.53 101.26 C404.71 60.56, 440.9 19.83, 461.97 1.51 M375.19 105.27 C410.54 61.5, 445.8 21.55, 470.41 2.49 M375.94 103.35 C401.09 76.67, 427.56 46.2, 466.86 0.38 M381.69 105.73 C416.95 64.3, 452.87 26.13, 472.05 -1.57 M383.54 102.09 C397.4 82.21, 416.4 61.53, 471.04 1.74 M387.37 102.27 C407.45 77.7, 433.44 46.53, 477.37 1.37 M387.81 103.32 C417.18 63.97, 449.95 24.75, 476.36 -0.79 M394.11 104.14 C420.25 63.48, 453.66 26.88, 485.54 3.1 M392.24 104.84 C426.84 65.67, 459.28 27.62, 483.99 -0.04 M397.53 103.32 C415.93 79.61, 439.97 51.56, 486.24 1.43 M399.19 101.7 C422.87 72.4, 449.34 44.04, 489.55 -1.14 M404.51 101.8 C423.82 75.02, 454.07 46.82, 493.14 3.43 M403.28 103.69 C426.55 73.38, 453.09 40.53, 492.59 -0.17 M405.13 102.82 C445.93 64.86, 475.68 30.25, 499.9 0.64 M407.25 100.63 C438.14 69.79, 467.15 36.35, 496.37 1.21 M414.26 106.16 C435.96 81.3, 459.09 51.6, 505.68 -3.58 M415.35 103.78 C435.01 76.71, 457.06 52.11, 501.32 1.19 M419.49 99.31 C455.7 66.06, 484.65 21.69, 511.11 -2.91 M421.21 103.21 C455.55 64.1, 487.89 24.36, 508.84 -0.92 M422.64 100.81 C446.07 74.66, 475.09 44.51, 511.84 -0.75 M425.21 101.18 C451.97 70.81, 483.15 37.99, 514.72 0.82 M427.79 103.43 C461.9 64.34, 500.42 18.36, 518.49 -3.01 M430.36 101.48 C449.82 78.03, 470.54 55.2, 521.02 0.22 M434.76 101.46 C463.2 69.96, 498.54 35.56, 526.19 1.18 M435.69 102.88 C462.52 71.61, 488.04 42.57, 525.4 0.45 M443.1 105.95 C466.97 70.41, 497.7 40.24, 526.56 -1.33 M440.08 104.41 C461.74 73.08, 487.9 46.39, 529.05 -0.67 M445.63 99.96 C473.38 71.58, 499.16 43.94, 533.19 3.6 M447.68 102.83 C474.91 64.43, 508.52 26.01, 534.03 -1.26 M448.38 101.78 C469.87 78.2, 484.87 59.98, 537.68 0.6 M451.77 101.91 C482.51 66.51, 515.8 30.02, 539.14 -1.98 M456.13 104.25 C491.53 64.36, 523.52 23.97, 543.14 4.06 M456.13 101.9 C476.94 79.87, 494.51 62.28, 545.34 -0.71 M460.43 105.94 C489.59 72.95, 511.58 50.95, 552.13 1.37 M462.92 100.82 C495.34 63.12, 528.27 26.86, 551.55 0.86 M465.03 106.44 C496.42 64.71, 524.82 34.76, 560.24 -3.81 M466.05 103.91 C490.73 72.87, 514.9 47.01, 556.12 -1.38 M473.29 106.34 C500.96 68.24, 529.04 33.06, 560.02 -0.31 M470.41 101.69 C495.61 72.16, 525.92 43.14, 560.61 -0.63 M476.94 98.74 C503.73 77.52, 525.09 54.54, 566.55 1.78 M476.51 103.61 C512.47 65.06, 544.35 27.57, 567.23 -1.78 M484.85 100.75 C520.56 61.18, 550.78 19.89, 573.38 2.4 M481.16 103.72 C509.82 70.96, 539.86 38.46, 574.69 -0.03 M486.38 105.48 C506.08 77.61, 527.63 59.16, 578.03 -1.28 M488.66 102.7 C509.57 79.6, 530.02 56.35, 579.59 0.48 M492.89 101.31 C525.45 68.8, 554.46 34.57, 585.41 1.21 M492.2 101.33 C519.42 78.87, 543.08 48.29, 583.6 0.8 M501.72 103.12 C525.64 65.81, 561.51 30.13, 588.49 1.04 M497.7 101.79 C531.89 66.71, 566.15 30.05, 590.18 0.76 M505.73 99.55 C531.97 68.42, 564.75 32.61, 597.18 1.7 M505.23 101.11 C528.87 78.19, 547.98 51.21, 593.16 0.66 M513.23 100.26 C537.96 69.07, 569.81 27.85, 601.62 2.89 M508.88 104.47 C545.27 64.67, 576.84 23.09, 600.04 -0.66 M517.56 99.13 C536.1 75.14, 554.64 50.7, 605.69 3.85 M514.07 102.61 C550.35 64.9, 584.29 25.35, 605.29 -0.42 M517.03 105.6 C547.46 75.27, 572.45 44.25, 607 2.55 M521.53 101.22 C550.71 71.84, 574.31 40.3, 610.29 1.44 M524.46 99.82 C548.21 77.97, 574.81 48.09, 614.42 -1.01 M524.57 102.29 C546.83 77.09, 573.35 49.54, 612.63 -0.28 M531.13 103.98 C559.77 70.67, 594.81 33.33, 620.05 2.41 M529.04 101.49 C549.89 79.17, 570.55 58.06, 622.08 1.23 M532.36 105.52 C563.02 76.07, 589.83 44.58, 624.76 2.58 M534.65 101.56 C564.89 69.41, 589.69 38.21, 625.88 -1.77 M539.41 104.38 C562.22 83.71, 580.58 59.99, 634.11 1 M542.86 101.66 C560.06 76.03, 582.39 54.61, 632.65 1.79 M549.08 100.26 C575.24 70.5, 601.42 39.31, 635.96 -1.79 M546.28 102.77 C563.86 81.7, 583.4 58.27, 637.79 -0.83 M555.63 99.87 C586.39 62.66, 617.38 22.54, 644.37 0.97 M552.5 101.05 C585.74 64.05, 619.18 27.91, 643.3 -0.84 M560.32 104.18 C578.08 79.47, 597.19 54.54, 645.16 1.59 M557.51 101.21 C584.84 71.69, 610.03 42.17, 647.2 1.53 M559.41 99.66 C596.38 59.55, 632.35 29.37, 655.89 1.1 M561.54 101.89 C596.74 60.24, 635 19.26, 651.38 -1.68 M569.65 101.56 C586.67 83, 609.71 55.19, 655.37 -3.43 M566.46 101.08 C595.43 69.79, 624.3 37.77, 659 -0.73 M576.26 105.11 C598.46 71.2, 628.65 35.76, 659.62 -3.71 M571.62 101.4 C595.99 76.89, 616.13 52.2, 662.31 1.17 M582.5 104.81 C596.61 79.23, 621.53 58.79, 667.45 -0.9 M579.28 103.56 C605.39 69.4, 631.11 40.6, 668.12 1.26 M581.57 101.66 C616.53 64.4, 647.35 26.64, 672.38 1.56 M582.43 103.69 C615.1 67.15, 644.32 32.97, 673.58 -1.44 M590.2 106.44 C607.58 83.36, 624.46 61.34, 680.18 1.27 M590.21 102.74 C616.72 73.66, 645.78 41.12, 679.59 -0.69 M595.93 99.66 C619.39 77.11, 643.16 46.62, 680.86 -3.94 M595.09 104.58 C625.56 64.73, 655.33 29.7, 682.71 -1.72 M601.94 103.11 C623.51 76.92, 651.79 42.59, 690.17 3.29 M601.54 101.65 C617.51 79.51, 642.07 53.3, 688.49 0.18 M607.79 99.32 C627.95 77.09, 648.22 44.8, 697.62 3.07 M606.72 104.57 C640.41 64.13, 676.61 25.88, 695.34 1.04 M612.79 103.59 C636.62 75.56, 662.6 50.88, 699.95 -2.49 M611.64 104.27 C638.34 73.55, 660.23 45.44, 699.94 1.56 M617.49 103.22 C647.25 65.49, 679.72 24.08, 704.46 2.74 M614.56 101.36 C648.84 65.44, 683.49 26.23, 704.45 1.25 M619.69 104.78 C641.1 71.89, 665 44.38, 709.87 0.38 M622.91 103.5 C641.68 78.09, 658.93 55.77, 709.15 0.07 M623.92 105.34 C654.42 64.73, 681.72 32.35, 719.01 1.09 M626.57 102.81 C658.28 63.09, 693.31 24, 717.1 0.02 M629.47 99.71 C661.73 68.51, 685 37.23, 718.21 -3.5 M629.84 101.2 C658.28 73.88, 686.94 41.13, 721.38 -0.72 M639.84 99.75 C659.23 77.47, 678.38 53.01, 726.8 2.53 M636.75 103.76 C670.86 61.93, 706.52 23.23, 726.43 1.62 M642.8 101.54 C669.24 70.07, 697.99 35.52, 729.1 2.57 M642.97 104.14 C661.44 79.63, 684.31 55.06, 731.96 1.7 M643.86 104.68 C668.73 73.43, 695.58 47.99, 739.9 -1.18 M649.18 101.94 C679.89 64.53, 712.31 28.82, 738.3 -1.47 M654.27 103.52 C682.78 74.23, 700.91 47.81, 744.53 3.44 M652.92 104.05 C686.27 65.81, 720.52 30.49, 742.28 0.77 M660.51 106.45 C689.32 67.09, 720.98 32.18, 748.26 1.88 M657.99 102.05 C691.9 65.6, 724.18 28.75, 746.61 0.15 M660.31 103.07 C693.33 65.46, 731.77 22.86, 756.39 0.06 M662.34 101.58 C688.38 73.81, 716.43 42.55, 751.77 0.85 M672.15 99.53 C690.84 76.74, 716.13 48.47, 759.69 3.72 M667.4 103.72 C690.93 78.81, 716.56 49.95, 757.36 0.84 M675.25 101.71 C706.3 67.55, 738.24 33.82, 756.53 8.33 M673.97 102.34 C692.18 82.64, 712.03 61.16, 756.07 8.07 M683.06 102.52 C705.79 71.88, 735.23 37.53, 756.74 13.32 M679.65 101.51 C697.16 81.09, 718.3 60.07, 757.43 12.71 M683.27 105.09 C700.15 82.58, 723.01 56.11, 757.9 19.93 M686.61 100.85 C704.75 79.57, 727.06 57.36, 756.04 19.16 M687.35 102.11 C710.83 72.82, 734.86 47.36, 754.77 25.39 M691.07 100.93 C702.52 83.72, 719.21 66.4, 756.74 26.39 M694.45 98.99 C707.34 82.13, 722.95 66.79, 758.59 30.93 M695.11 100.6 C720.01 75.17, 744.6 47.02, 757.92 30.03 M701.03 101.16 C714.81 82.21, 733.49 68.09, 758.59 37.06 M700.06 102.41 C716.41 81.85, 735.42 62.26, 756.81 35.8 M704.08 106.06 C717.48 84.18, 733.12 68.34, 757.33 43.54 M705.74 102.73 C720.9 83.46, 736.36 66.84, 756.76 41.57 M713.98 102.62 C719.34 87.59, 733.53 73.76, 759.5 48.87 M711.07 101.34 C723.8 86.42, 737.61 71.99, 755.86 51.03 M719.27 102.81 C732.2 85.76, 747.46 70.4, 760.68 57.84 M714.78 103.1 C726.71 91.06, 740.09 76.22, 755.62 55.32 M721.97 101.59 C726.62 95.92, 736.01 85.97, 758.7 57.47 M722.6 104.03 C737.23 85.55, 749.73 68.49, 756.18 63.12 M723.08 104.16 C733.85 96.1, 741.75 87.33, 755.12 68.31 M728.62 104.74 C739.17 90.94, 751.75 75.34, 757.69 66.05 M734.61 101.26 C741.84 95.18, 742.19 85.87, 758.6 72.39 M731.22 103.73 C740.83 92.78, 746.19 86.04, 755.49 72.8 M741.06 104.38 C740.89 99.02, 744.85 87.98, 757.66 76.77 M738.38 102.87 C743.51 92.98, 750.53 87.03, 756.84 78.7 M743.42 104.99 C747.12 92.97, 754.93 88.91, 757.46 89.01 M743.59 100.64 C747.62 95.76, 752.83 91.48, 757.5 87.46 M745.49 102.13 C751.83 97.33, 755.93 95.13, 758.82 92.79 M747.4 101.97 C750.04 99.24, 754.39 97.29, 757.21 92.77 M753.63 101.85 C755.45 100.75, 755.8 98.97, 758.69 98.95 M753.22 102.34 C755.04 101.84, 754.68 101.03, 757.07 97.92" stroke="#228be6" stroke-width="0.5" fill="none"></path><path d="M1.14 0.82 C289.64 5.28, 577.84 3.87, 758.52 1.45 M-0.33 0 C199.88 1.58, 400.07 1.48, 757.62 0.39 M753.36 2.22 C759.91 37.23, 753.55 74.16, 753.11 99.32 M755.77 -1.35 C755.98 20.75, 753.84 43.78, 755.46 100.77 M757.42 100.95 C534.83 97.83, 311.45 95.93, -1.38 101.97 M757.72 102.33 C538.72 107.5, 320.27 106.78, -0.67 102.38 M1.84 99.04 C-4.17 62.96, -1.97 20.27, -1.65 0.54 M-0.52 102.69 C1.12 68.2, -1.36 31.97, 0.46 0.57" stroke="#000000" stroke-width="1" fill="none"></path></g><g transform="translate(39 38) rotate(0 349.5 23)"><text x="349.5" y="32" font-family="Virgil, Segoe UI Emoji" font-size="36px" fill="#000000" text-anchor="middle" style="white-space: pre;" direction="ltr">Data and Machine Learning Terminology</text></g><g stroke-linecap="round" transform="translate(12.341864941186941 192.58351470192974) rotate(0 246.5 24)"><path d="M0 0 C0 0, 0 0, 0 0 M0 0 C0 0, 0 0, 0 0 M0.7 6.5 C2.5 5.13, 1.54 3.54, 3.99 0.51 M-1.01 7.01 C1.01 3.86, 4.26 2.07, 5.43 -0.15 M3.05 13.04 C0.95 5.91, 7.49 1.58, 8.55 1.53 M-0.19 11.88 C1.75 9.52, 5.51 6.76, 9.57 1.56 M0.08 17.81 C6.46 10.4, 9.92 5.25, 15.42 -2.68 M0.16 19.47 C2.84 11.67, 10.19 6.99, 13.91 0.77 M-3.55 24.66 C9.61 17, 13.17 4.19, 22.63 -1.29 M1 25.28 C6.62 14.48, 15.07 7.9, 19.78 0.99 M-3.98 29.83 C3.99 18.98, 13.74 12.79, 30.07 0.63 M-0.87 31.69 C9.64 18.86, 19.68 7.91, 25.44 -1.55 M2.99 36.8 C10.89 23.19, 23.88 7.83, 28.67 3.64 M1.62 35.14 C8.35 26.73, 14.58 16.47, 31.91 0.62 M3.46 40.05 C10.8 35.5, 14.48 22.01, 33.36 1.55 M-1.58 43.78 C11.75 27.23, 25.67 12.41, 36.1 0.05 M2.81 47.85 C10.97 31.87, 32.1 15.65, 39.03 -3.31 M-0.3 46.32 C11.67 36.65, 19.78 24.88, 42.66 -0.29 M7.05 47.91 C21.51 35.52, 30.5 13.44, 46.11 3.12 M4.98 47.84 C19.86 33.23, 35.17 18.77, 49.37 -1.59 M7.76 44.53 C24.56 31.35, 37.23 12.11, 56.47 -2.06 M12.02 49.09 C21.44 36.29, 29.66 24.84, 55.03 0.09 M16.03 50.99 C33.41 29.06, 45.97 16.25, 59.02 -3.51 M14.57 48.93 C30.15 31.73, 43.25 15.84, 56.8 -0.69 M21.18 46.81 C33.02 38.55, 44.15 28.26, 65.62 3.61 M21.02 47.81 C31.29 35.63, 42.43 22.74, 62.1 -1.49 M24.29 45.05 C43.44 34.16, 58.3 12.62, 72.65 0.92 M27.76 49.09 C37.12 35.55, 49.04 21.9, 69.99 1.47 M34.15 51.47 C39.53 37.71, 52.88 22.54, 72.98 2.04 M31.06 48.46 C40.74 36.89, 51.25 25.57, 75.02 -1.35 M36.83 51.91 C52.22 35.72, 63.46 12.88, 81.46 -0.17 M36.44 47.27 C49.34 33.74, 60.35 18.95, 80.62 0.56 M39.61 51.41 C54.59 30.84, 69.88 15.18, 82.93 -2.32 M42.56 49.94 C61.27 31.06, 77.99 9.52, 86.97 -0.86 M48.54 45.54 C65.79 34.38, 74.95 14.93, 89.75 -3.27 M46.57 49.33 C62.7 31.09, 79.7 10.96, 88.41 1.16 M56.38 51.64 C61.62 37.39, 74.88 26.87, 97.74 3.13 M52 48.1 C69.66 34.57, 80.22 18.56, 97.23 1.56 M60.16 48.04 C67.33 33.9, 87.19 17.31, 103.72 -0.72 M58.15 48.1 C70.49 37.18, 82.39 24.86, 101.15 0.82 M64.49 46.08 C80.65 32.5, 93.12 23.09, 109.52 -0.9 M63.27 48.48 C74.42 40.6, 80.5 28.03, 107.12 -1.61 M70.34 49.61 C86.52 28.5, 97.99 17.55, 107.44 3.26 M69.26 47.32 C85.4 33.39, 100.49 17.38, 110.71 2.01 M71.83 46.49 C90.9 32.96, 107.79 6.26, 115.64 -0.82 M74.29 47.29 C86.42 32.11, 99.18 19.42, 115.37 1.85 M83.58 48.59 C95.58 33.2, 107.04 9.14, 118.86 0.55 M80.04 49.7 C90.41 37.18, 98.49 24.49, 121.01 0.13 M86.18 47.03 C102.98 36.05, 118.57 14.58, 129.27 -1.18 M85.06 47.95 C97.25 34.85, 108.96 20.78, 128.73 0.79 M94.25 51.45 C98.37 34.08, 109.81 24.51, 133.78 3.19 M88.68 48.85 C103.73 36.17, 113.52 22.26, 132.02 -0.46 M93.86 45.23 C108.64 32.21, 122.25 13.7, 135.54 3.88 M96.33 50.05 C110.29 33.54, 122.51 20.15, 138.08 1.29 M102.61 48.76 C115.56 33.06, 131.9 14.75, 141.91 3.33 M99.46 49.34 C116.73 32.39, 130.83 13.05, 143.78 1.51 M107.07 50.72 C118.17 31.16, 134.28 20.97, 150.05 3.55 M104.89 50.12 C123.83 30.85, 139.13 12.79, 148.98 -0.4 M114.8 47.26 C127.09 35.45, 136.32 18.53, 150.82 -2.75 M110.7 46.68 C126.44 35.01, 137.09 18.92, 152.41 0.27 M115.87 45.3 C128.19 37.71, 140.33 25.54, 162.33 3.18 M115.59 49.64 C130.67 34.59, 140.2 20.48, 157.07 -1.09 M118.82 45.76 C138.82 27.06, 150.13 10.54, 161.94 1.34 M122.77 47.3 C136.64 34.63, 146.29 20.63, 166.08 -1.03 M128.21 46.85 C133.87 42.13, 149.01 25.01, 167.74 0.23 M129.35 47.02 C139.43 33.69, 155.68 18.56, 168.06 1.35 M132.56 51.24 C150.19 30.81, 164.5 13.09, 178.59 -3.88 M134.15 48.59 C146.42 35.3, 155.1 22.58, 177.01 1.72 M137.9 45.41 C149.4 29.79, 164.26 19.12, 183.56 0.29 M139.15 49.61 C148.43 36.49, 156.01 26.44, 181.7 -0.02 M139.75 46.79 C159.16 32.35, 166.05 19.74, 181.97 -1.74 M145.33 46.85 C159.01 31.52, 172.51 14.57, 185.5 1.55 M148.64 51.12 C154.36 35.84, 162.5 29.39, 192.9 1.08 M150.04 49.68 C166.3 30.81, 179.11 13.83, 191.81 -1.19 M154.05 47.61 C165.23 41.49, 171.08 28.06, 195.15 -3.47 M154.89 49.35 C163.19 38.6, 176.4 25.4, 195.91 0.42 M157.99 46.26 C172.21 37.56, 181.64 29.5, 200.77 0.42 M159.12 48.46 C175.11 32.24, 190.7 12.56, 202.3 0.77 M162.95 45.05 C177.45 40.82, 185.55 28.27, 203.06 -0.18 M163.47 46.27 C172.25 38.56, 181.77 27.85, 208.65 1.26 M173.41 49.23 C182.17 34.67, 190.42 27.58, 210.06 -3.71 M171.56 48.11 C180.61 34.81, 192.95 17.29, 211.1 -0.25 M175.84 46.56 C194.3 28.7, 208.99 6.15, 216.54 -2.85 M173.77 46.74 C191.25 32.97, 203.11 14.78, 216.2 -0.1 M180.2 50.56 C196.35 31.7, 215.22 9.9, 221.52 2.76 M180.6 47.73 C191.6 37.02, 203.05 22.93, 222.24 0.56 M183.3 52.49 C198.09 41.17, 203.86 25.9, 224.26 -2.3 M185.89 47.57 C197.88 35.62, 210.75 18.99, 227.12 1.13 M189.57 44.89 C202.49 28.22, 217.18 17.81, 233.78 2.06 M191.52 47.34 C201.45 35.12, 210.33 27.51, 233.77 -1.05 M199.8 45.05 C210.66 33.86, 226.08 9.8, 240.15 -0.53 M195.99 50.28 C207.99 36.38, 217.35 21.78, 237.35 -0.58 M198.57 47.01 C211.93 36.65, 222.18 29.18, 243.34 0.53 M201.69 47.93 C221.02 29.86, 233.98 7.64, 241.86 1.61 M203.68 48.82 C221.62 31.02, 237.93 17.59, 249.96 2.36 M208.27 49.54 C215.94 38.25, 226.61 22.51, 248.86 -0.07 M214.16 51.8 C226.62 29.18, 247.04 12.68, 252.6 -3.39 M212.52 47.39 C220.56 36.7, 230.94 25.02, 252.68 -1.82 M219.81 47.78 C232.03 34.34, 250.31 12.33, 263.35 -3.34 M217.7 50.23 C232.24 32.74, 245.78 16.81, 257.75 -0.99 M221.15 50.31 C235.85 37.42, 246.62 26.06, 261.8 -3.09 M221.49 48.59 C231.18 37.61, 241 27.3, 266.51 1.22 M230.95 50 C241.26 40.37, 251.51 24.6, 268.51 0.01 M229.29 48.18 C243.09 31.26, 257.34 14.25, 268.79 1.19 M230.23 45.67 C246.59 35.13, 251.05 23.25, 277.07 0.13 M234.15 47.29 C249.86 32.65, 260.56 16.91, 277.67 -1.78 M241.74 47.69 C251.83 26.55, 270.68 15.06, 279.52 2.19 M238.12 50.14 C252.71 34.68, 266 16.76, 278.86 -0.06 M245.98 45.17 C253.97 40.82, 262.09 29.27, 286.42 -2.88 M244.11 48.23 C260.34 33.31, 272.36 13.15, 286.55 -0.37 M246.68 49.21 C261.96 31, 278.83 17.21, 288.31 -2.9 M249.31 49.79 C265.62 31, 280.92 12.26, 292.86 1.67 M258.83 44.19 C265.73 29.79, 278.49 16.97, 299.73 2.83 M253.03 49.06 C267.46 32.21, 280.63 18.48, 295.6 -1.16 M262.16 47.01 C272.75 31.02, 287.54 16.96, 304.71 -1.24 M258.08 47.76 C275.73 29.61, 292.01 12.37, 303.77 1.73 M269.11 50.28 C275.58 31.8, 292.45 15.98, 308.76 0.36 M266.65 48.38 C279.35 32.78, 292.82 17.94, 309.34 0.14 M270.42 49.67 C286.31 32.67, 304.78 12.11, 316.41 1.33 M269.68 47.62 C278.77 36.09, 290.77 25.38, 312.65 0.41 M279.01 51.08 C286.36 38.05, 298.11 22.73, 319.14 -3.09 M274.75 49.72 C288.59 32.17, 300.43 19.68, 318.33 -1.2 M283.59 49.92 C296.12 30.79, 309.99 17.12, 320.97 3.08 M279.44 47.88 C291.37 34.75, 302.58 21.95, 324.6 -1.08 M284.6 46.36 C297.62 34.87, 318.55 19.79, 326.38 -0.18 M287.2 49.56 C296.71 36.04, 307.88 24.07, 327.21 1.01 M295.7 48.59 C305.61 35.99, 313.08 24.39, 333.84 -1.59 M292.75 49.96 C302.93 35.69, 312.14 24.06, 332.78 -0.58 M299.15 48.78 C304.1 39.55, 315.43 24.51, 339.84 0.57 M297.26 50.06 C312.42 28.27, 327.35 11.52, 338.69 -0.1 M298.6 46.64 C317.8 27.03, 335.73 14.34, 348.34 1.84 M301.05 50.26 C311.21 38.48, 321.11 28.4, 346.43 1.02 M307.82 48.86 C319.17 39.08, 325.45 28.43, 350.14 -0.52 M308.22 48.05 C322.97 32.06, 339.38 11.62, 348.87 0.28 M314.07 45.15 C324.37 33.73, 335.57 17.6, 351.66 0.03 M313.87 48.08 C324.08 36.11, 333 25.66, 354.85 -0.26 M319.62 51.5 C327.77 38.93, 341.82 17.06, 363.72 2.77 M317.47 47.58 C333.14 30.63, 348.28 16.64, 361.89 -0.35 M321.73 45.35 C331.48 34.75, 345.63 30.18, 364.88 -0.25 M322.77 49.68 C334.93 36.05, 344.61 25.56, 367.38 0.55 M330.14 48.97 C344.59 35.06, 354.39 17.51, 366.93 3.02 M327.12 48.86 C339.85 35, 353.05 21.25, 369.97 0.7 M331.09 48.58 C342.68 34.16, 352.52 29.34, 378.92 3.9 M333.39 48.25 C349.53 27.85, 365.32 10.81, 377.45 1.37 M336.81 45.68 C351.75 29.71, 369.31 20.36, 384.64 0.21 M339.33 49.06 C347.26 38.71, 360.2 26.05, 380.08 0.31 M341.52 48.28 C354.7 32.82, 363.7 26.65, 386.62 3.51 M345.43 47.91 C358.55 34.86, 372.33 17.81, 386.54 1.04 M346.95 50.15 C367.64 32.89, 380.93 16.61, 391.62 2.41 M348.33 50.27 C365.06 28.46, 382.09 10.87, 393.23 -1.7 M358.29 46.06 C365.82 38.04, 376.35 27.97, 398.66 1.73 M356.66 47.74 C367.64 36.86, 374.84 27, 396.19 -0.65 M361.75 51.04 C379 27.36, 391.91 10.72, 400.49 1.84 M360.43 47.53 C372.23 33.63, 382.77 20.63, 404.48 1.42 M368.52 51.62 C374.34 34.59, 392.17 18.8, 411.61 -2.17 M366.9 49.73 C378.45 32.77, 393.78 14.47, 408.01 1.02 M368.29 49.11 C383.33 36.04, 391.97 22.3, 413.76 -1.17 M369.98 48.8 C386.32 33.48, 398.42 19.18, 414.98 -0.64 M373.23 50.81 C393.5 26.32, 407.57 9.26, 415.92 3.21 M378.04 46.83 C391.32 32.95, 403.74 19.68, 419.68 -0.3 M379.51 49.27 C394.9 38.25, 403.93 26.42, 423.82 1.86 M383.39 47 C392.78 36.29, 403.88 24.17, 423.92 0.75 M387.29 45.57 C399.91 34.9, 402.02 24.75, 427.91 1.41 M386.03 46.91 C405.83 27.2, 419.56 9.1, 428.91 -2 M394.22 44.55 C408.21 31.15, 414.82 24.61, 436.91 3.51 M391.15 47.98 C406.82 29.22, 420.54 12.48, 432.57 1.15 M399.45 46.02 C413.05 30.43, 427.62 12.39, 441.77 -3.94 M396.88 48.79 C416.52 28.12, 429.95 7.89, 441.5 -0.55 M405.12 48.09 C418.18 29.29, 427.97 20.51, 441.17 -3.52 M403.79 46.52 C417.37 34.13, 430.24 16.46, 444.26 -0.93 M412.35 46.35 C428.24 31.12, 442.44 11.46, 453.56 2.95 M410.67 46.23 C422.03 35.05, 431.95 22.87, 451.32 0.51 M414.78 45.16 C430.43 29.7, 449.76 7.27, 454.6 -2.37 M411.94 46.33 C425.31 33.04, 439.58 16.98, 456.37 -0.05 M417.85 49.65 C432.93 28.41, 450.25 9.12, 461.23 1.97 M416.88 48.66 C435.21 35.01, 445.53 17.51, 460.27 -1.39 M427.63 49.18 C442.99 34.2, 454.9 15.47, 469.09 -0.09 M426.25 48.09 C438.03 34.08, 449.22 18.47, 468.35 0.16 M431.62 48.89 C440.69 31.85, 459.66 17.29, 471.94 1.91 M429.01 50.2 C447.08 32.12, 463.01 13.24, 469.69 0.83 M434.01 45.66 C450.51 33.01, 463.07 15.12, 474.39 -3.59 M433.47 49.37 C445.95 35.15, 462.83 18.83, 477.72 -0.98 M441.27 47.41 C450.2 36.8, 462.04 27.79, 480.7 -2.6 M440.69 50.18 C449.74 37.8, 458.77 29.97, 482.93 0.96 M442.1 48.26 C462.51 29.53, 477.14 12.46, 490.13 -3.66 M444.37 48.73 C458 36.93, 470.12 24.15, 488.05 -1.21 M448.94 47.91 C468.18 27.93, 484.74 15.47, 490.43 -2.52 M452.22 50.1 C464.48 31.14, 480.95 14.05, 493.44 -0.03 M453.97 50.75 C469.38 27.98, 487.41 17.99, 499.2 4.06 M457.82 49.64 C465.92 34.75, 479.32 22.08, 494.35 3.67 M462.62 45.23 C471.19 32.28, 485.35 26.45, 499.34 6.85 M462.01 50.4 C474 36.51, 486.6 20.69, 496.17 7.33 M465.56 51.03 C470.65 43.09, 478.46 34.77, 495.72 11.07 M468.74 48.49 C474.83 37.02, 486.13 28.36, 495.07 15.82 M472.2 50.35 C482.4 39.86, 485.79 31.63, 494.69 21.5 M470.49 50.45 C482.3 40.22, 487.11 28.68, 497.3 20.59 M474.7 51.13 C481.97 45.57, 485.19 41.56, 492.82 25.91 M476.11 46.64 C481.93 43.25, 488.96 39.19, 495.86 25.27 M481.44 50.34 C484.8 45.95, 487.74 44.49, 496.3 35.07 M484.19 48.58 C485.87 44.38, 493.06 35.58, 493.74 31.78 M488.72 48.75 C490.95 44.67, 494.17 44.22, 494.62 40.98 M487.46 47.06 C490.39 46.18, 494.06 43.71, 496.35 38.41" stroke="#228be6" stroke-width="0.5" fill="none"></path><path d="M-0.48 -1.11 C195.12 -3.45, 387.3 -2.2, 491.94 -0.54 M-0.27 0.02 C128.62 2.36, 259.12 1.07, 492.42 -0.16 M493.17 -0.07 C492.81 7.29, 493.96 22.88, 496.59 44.31 M492.59 -1.47 C492.53 13.73, 491.44 26.78, 493.51 48.34 M493.71 47.06 C307.86 44.86, 124.25 44.03, -0.98 48.65 M493.37 48.02 C308.22 49.34, 124.58 50.23, -0.61 48.33 M2.98 44.81 C-3.17 38.58, -2.24 26.65, 3.82 -0.3 M-0.94 46.48 C-0.28 30.34, 1.12 14.32, 0.28 -1.97" stroke="#000000" stroke-width="1" fill="none"></path></g><g transform="translate(28.34186494118694 198.58351470192974) rotate(0 230.5 18)"><text x="230.5" y="25" font-family="Virgil, Segoe UI Emoji" font-size="28px" fill="#000000" text-anchor="middle" style="white-space: pre;" direction="ltr">Data used directly and indirectly</text></g><g stroke-linecap="round" transform="translate(14.756279028228164 239.32134773025427) rotate(0 676.3257631366073 231.37008524663906)"><path d="M0.76 -1.58 C465.09 6.91, 931.83 6.76, 1352.05 -0.81 M1351.25 1.58 C1352.66 118.58, 1349.94 239.44, 1351.29 463.27 M1352.46 461.31 C1019.02 463.02, 686.28 461.09, -0.42 462.84 M-0.49 463.29 C-0.62 319.03, 1.35 174.7, 1.36 -1.56" stroke="#000000" stroke-width="1.5" fill="none" stroke-dasharray="8 9"></path></g><g transform="translate(62.53282731780928 275.8777136765948) rotate(0 343.5 12.5)"><text x="0" y="18" font-family="Virgil, Segoe UI Emoji" font-size="20px" fill="#000000" text-anchor="start" style="white-space: pre;" direction="ltr">Data can be used to form the example x either directly or indirectly</text></g><g stroke-linecap="round"><g transform="translate(546.4433482779768 304.43633983633663) rotate(0 40.25374974055376 0.31249355743329943)"><path d="M-0.52 -0.91 C12.77 -0.85, 65.49 1.17, 78.67 1.53 M1.4 1.23 C15.18 1.44, 67.76 0.09, 81.03 -0.26" stroke="#364fc7" stroke-width="1" fill="none"></path></g></g><mask></mask><g stroke-linecap="round"><g transform="translate(660.0014923796398 303.7532954490198) rotate(0 39.336831508988325 -0.036156707413283584)"><path d="M0.4 -1.11 C13.51 -1, 66.24 -0.71, 79.52 -0.24 M-0.84 0.92 C12.05 1.21, 65.24 0.88, 78.66 0.7" stroke="#364fc7" stroke-width="1" fill="none"></path></g></g><mask></mask><g transform="translate(65.94399500183135 341.8055724645801) rotate(0 41.5 12.5)"><text x="41.5" y="18" font-family="Virgil, Segoe UI Emoji" font-size="20px" fill="#a61e4d" text-anchor="middle" style="white-space: pre;" direction="ltr">Example:</text></g><g transform="translate(159.0717295271861 342.42576471152097) rotate(0 123.5 12.5)"><text x="0" y="18" font-family="Virgil, Segoe UI Emoji" font-size="20px" fill="#000000" text-anchor="start" style="white-space: pre;" direction="ltr">Entity recognition system</text></g><g transform="translate(638.309615187537 364.97712280174346) rotate(0 92.5 12.5)"><text x="0" y="18" font-family="Virgil, Segoe UI Emoji" font-size="20px" fill="#000000" text-anchor="start" style="white-space: pre;" direction="ltr">Sequence of Words</text></g><g transform="translate(1067.116861085362 363.11357690417935) rotate(0 95.5 12.5)"><text x="0" y="18" font-family="Virgil, Segoe UI Emoji" font-size="20px" fill="#000000" text-anchor="start" style="white-space: pre;" direction="ltr">Sequence of Labels</text></g><g stroke-linecap="round" transform="translate(922.329208401572 355.42323387733086) rotate(0 20.367823588522697 20.458493005899072)"><path d="M10.18 0 M10.18 0 C14.06 1.59, 18.22 2.04, 30.55 0 M10.18 0 C17.64 -0.38, 24.3 0.01, 30.55 0 M30.55 0 C38.99 -0.31, 40.23 3.74, 40.74 10.18 M30.55 0 C39.24 0.88, 40.35 4.13, 40.74 10.18 M40.74 10.18 C39.37 17.76, 42.26 25.65, 40.74 30.73 M40.74 10.18 C41.35 17.99, 41.03 25.2, 40.74 30.73 M40.74 30.73 C38.75 37.48, 38.66 39.02, 30.55 40.92 M40.74 30.73 C40.99 37.42, 36.86 39.64, 30.55 40.92 M30.55 40.92 C21.33 39.17, 13.62 41.12, 10.18 40.92 M30.55 40.92 C26.59 41.33, 21.87 41.55, 10.18 40.92 M10.18 40.92 C3.27 39.5, -1.78 38.15, 0 30.73 M10.18 40.92 C4.2 38.62, 0.48 38.87, 0 30.73 M0 30.73 C1.59 24.86, -0.95 18.61, 0 10.18 M0 30.73 C-0.07 25.63, 0.06 20.22, 0 10.18 M0 10.18 C1.49 4.78, 4.08 -0.83, 10.18 0 M0 10.18 C1.69 1.2, 3.47 0.82, 10.18 0" stroke="#364fc7" stroke-width="1" fill="none"></path></g><g stroke-linecap="round"><g transform="translate(837.9719257837542 377.6198789056998) rotate(0 37.555682865447125 -0.1843966074175114)"><path d="M0.92 0.75 C13.29 0.85, 62.6 0.71, 75.17 0.52 M-0.06 0.09 C12.02 -0.13, 61.26 -1.28, 73.92 -1.14" stroke="#e67700" stroke-width="1" fill="none"></path></g><g transform="translate(837.9719257837542 377.6198789056998) rotate(0 37.555682865447125 -0.1843966074175114)"><path d="M47.06 8.41 C57.93 6.2, 67.04 -0.13, 75.28 0.26 M46.8 8.9 C53.16 6.62, 62.52 2.81, 73.12 -0.65" stroke="#e67700" stroke-width="1" fill="none"></path></g><g transform="translate(837.9719257837542 377.6198789056998) rotate(0 37.555682865447125 -0.1843966074175114)"><path d="M46.89 -12.11 C57.8 -6.56, 66.98 -5.13, 75.28 0.26 M46.63 -11.62 C52.9 -8.03, 62.32 -5.97, 73.12 -0.65" stroke="#e67700" stroke-width="1" fill="none"></path></g></g><mask></mask><g stroke-linecap="round"><g transform="translate(972.6109704719656 377.3423372319885) rotate(0 37.74740258166457 -0.45910333835490746)"><path d="M0.64 -0.51 C13.16 -0.55, 63.47 0.92, 75.98 0.91 M-0.49 -1.83 C11.8 -1.66, 62.46 -1.02, 75 -0.62" stroke="#e67700" stroke-width="1" fill="none"></path></g><g transform="translate(972.6109704719656 377.3423372319885) rotate(0 37.74740258166457 -0.45910333835490746)"><path d="M45.75 8.96 C58.87 4.82, 66.9 -0.14, 74.79 -1.68 M47.15 9.98 C53.74 6.71, 63.31 4.16, 75.21 -1.47" stroke="#e67700" stroke-width="1" fill="none"></path></g><g transform="translate(972.6109704719656 377.3423372319885) rotate(0 37.74740258166457 -0.45910333835490746)"><path d="M46.18 -11.56 C59.34 -8.12, 67.2 -5.5, 74.79 -1.68 M47.58 -10.54 C53.86 -8.08, 63.31 -4.91, 75.21 -1.47" stroke="#e67700" stroke-width="1" fill="none"></path></g></g><mask></mask><g transform="translate(705.9996950875211 332.8768370939797) rotate(0 27 12.5)"><text x="0" y="18" font-family="Virgil, Segoe UI Emoji" font-size="20px" fill="#e67700" text-anchor="start" style="white-space: pre;" direction="ltr">Input</text></g><g transform="translate(1136.2822205112188 328.902269505159) rotate(0 35.5 12.5)"><text x="0" y="18" font-family="Virgil, Segoe UI Emoji" font-size="20px" fill="#e67700" text-anchor="start" style="white-space: pre;" direction="ltr">Output</text></g><g transform="translate(69.09160317115857 430.2282371281399) rotate(0 29.5 12.5)"><text x="0" y="18" font-family="Virgil, Segoe UI Emoji" font-size="20px" fill="#e67700" text-anchor="start" style="white-space: pre;" direction="ltr">Input:</text></g><g transform="translate(146.37471503712732 430.07390620494334) rotate(0 92.5 12.5)"><text x="0" y="18" font-family="Virgil, Segoe UI Emoji" font-size="20px" fill="#000000" text-anchor="start" style="white-space: pre;" direction="ltr">Sequence of Words</text></g><g transform="translate(403.72924600921124 432.01461756410936) rotate(0 305 12.5)"><text x="0" y="18" font-family="Virgil, Segoe UI Emoji" font-size="20px" fill="#000000" text-anchor="start" style="white-space: pre;" direction="ltr">Must be transformed into a machine-readable feature vector</text></g><g stroke-linecap="round"><g transform="translate(343.63529299498896 443.22901212810393) rotate(0 19.900436463725327 0.009134029670349264)"><path d="M-1.08 -1.02 C5.74 -1.32, 34 -1.01, 40.88 -0.7 M0.56 1.06 C7.19 1.4, 32.77 0.78, 39.77 0.4" stroke="#e67700" stroke-width="1" fill="none"></path></g><g transform="translate(343.63529299498896 443.22901212810393) rotate(0 19.900436463725327 0.009134029670349264)"><path d="M18.99 7.63 C24.94 4.33, 33.14 3.9, 40.3 2.15 M19.97 8.77 C28.12 6.19, 36.12 2.82, 39.63 0.39" stroke="#e67700" stroke-width="1" fill="none"></path></g><g transform="translate(343.63529299498896 443.22901212810393) rotate(0 19.900436463725327 0.009134029670349264)"><path d="M18.48 -6.45 C24.72 -5.54, 33.07 -1.76, 40.3 2.15 M19.46 -5.31 C27.72 -2.36, 35.93 -0.2, 39.63 0.39" stroke="#e67700" stroke-width="1" fill="none"></path></g></g><mask></mask><g transform="translate(127.45550503725008 493.92115544686385) rotate(0 144.5 12.5)"><text x="0" y="18" font-family="Virgil, Segoe UI Emoji" font-size="20px" fill="#000000" text-anchor="start" style="white-space: pre;" direction="ltr">Example of possible features</text></g><g transform="translate(196.2446557778776 531.9508020996491) rotate(0 414 12.5)"><text x="0" y="18" font-family="Virgil, Segoe UI Emoji" font-size="20px" fill="#000000" text-anchor="start" style="white-space: pre;" direction="ltr">information that distinguishes that specific word from other words in the dictionary</text></g><g transform="translate(197.40641398886328 566.483150943006) rotate(0 257 12.5)"><text x="0" y="18" font-family="Virgil, Segoe UI Emoji" font-size="20px" fill="#000000" text-anchor="start" style="white-space: pre;" direction="ltr">word "shape" (i.e., lowercase, uppercase, capitalized)</text></g><g transform="translate(197.03560175924576 599.3702658969287) rotate(0 418 12.5)"><text x="0" y="18" font-family="Virgil, Segoe UI Emoji" font-size="20px" fill="#000000" text-anchor="start" style="white-space: pre;" direction="ltr">binary attributes indicating whether this word is the first word of some human name</text></g><g stroke-linecap="round"><g transform="translate(144.28655071929097 524.1034809580124) rotate(0 21.730808739601798 9.634473462234382)"><path d="M1.17 -0.44 C1.41 2.35, -4.78 13.44, 2.58 16.85 C9.94 20.27, 38.28 19.28, 45.33 20.06 M0.32 -1.72 C0.33 0.74, -5.51 11.45, 1.84 15.23 C9.18 19.01, 37.25 20.31, 44.4 20.99" stroke="#364fc7" stroke-width="1" fill="none"></path></g><g transform="translate(144.28655071929097 524.1034809580124) rotate(0 21.730808739601798 9.634473462234382)"><path d="M22.61 27.53 C33.3 23.8, 38.85 20.68, 45.56 20.27 M22.9 26.52 C27.87 26.31, 31.67 23.59, 44.87 20.77" stroke="#364fc7" stroke-width="1" fill="none"></path></g><g transform="translate(144.28655071929097 524.1034809580124) rotate(0 21.730808739601798 9.634473462234382)"><path d="M23.74 12.62 C33.99 14.83, 39.09 17.64, 45.56 20.27 M24.03 11.6 C28.83 14.41, 32.4 14.7, 44.87 20.77" stroke="#364fc7" stroke-width="1" fill="none"></path></g></g><mask></mask><g stroke-linecap="round"><g transform="translate(140.49646804714666 524.1185077475548) rotate(0 23.145187428403005 29.795543643968813)"><path d="M1.09 0.8 C1.4 9.86, -6.27 44.52, 1.73 53.55 C9.73 62.58, 41.27 54.77, 49.1 54.98 M0.2 0.18 C0.39 9.47, -7.11 45.57, 0.88 54.91 C8.87 64.26, 40.21 56.11, 48.16 56.26" stroke="#364fc7" stroke-width="1" fill="none"></path></g><g transform="translate(140.49646804714666 524.1185077475548) rotate(0 23.145187428403005 29.795543643968813)"><path d="M28.08 67.3 C32.34 63.18, 38.88 59.47, 47.76 57.71 M26.42 67.93 C32.36 63.67, 38.79 61.44, 48.88 55.61" stroke="#364fc7" stroke-width="1" fill="none"></path></g><g transform="translate(140.49646804714666 524.1185077475548) rotate(0 23.145187428403005 29.795543643968813)"><path d="M26.2 51.02 C30.89 51.51, 37.97 52.44, 47.76 57.71 M24.53 51.65 C30.84 51.83, 37.78 54.03, 48.88 55.61" stroke="#364fc7" stroke-width="1" fill="none"></path></g></g><mask></mask><g stroke-linecap="round"><g transform="translate(135.35724830478648 522.1893712076308) rotate(0 23.982918465633702 45.158385262086995)"><path d="M0.7 0.22 C0.53 13.38, -9.28 65.25, -0.56 80.07 C8.15 94.89, 44.29 87.72, 53 89.13 M-0.39 -0.71 C-0.72 13.13, -10.09 66.2, -1.25 81.37 C7.59 96.53, 43.83 88.96, 52.65 90.26" stroke="#364fc7" stroke-width="1" fill="none"></path></g><g transform="translate(135.35724830478648 522.1893712076308) rotate(0 23.982918465633702 45.158385262086995)"><path d="M27.9 101.01 C35.19 98, 43.86 92.5, 51.05 90 M28.3 100.24 C32.53 97.51, 39.55 94.85, 52 91.1" stroke="#364fc7" stroke-width="1" fill="none"></path></g><g transform="translate(135.35724830478648 522.1893712076308) rotate(0 23.982918465633702 45.158385262086995)"><path d="M27.41 82.54 C35.03 85.79, 43.87 86.55, 51.05 90 M27.81 81.77 C32.06 83.27, 39.18 84.83, 52 91.1" stroke="#364fc7" stroke-width="1" fill="none"></path></g></g><mask></mask><g stroke-linecap="round"><g transform="translate(1044.2632097393844 613.7567060949714) rotate(0 31.60597499670439 -28.16797072751251)"><path d="M1.1 -0.76 C5.48 -5.76, 15.88 -19.99, 25.81 -29.14 C35.75 -38.29, 54.58 -51.29, 60.72 -55.67 M0.23 1.45 C5.02 -4, 17.65 -21.21, 28.11 -31.08 C38.57 -40.95, 57.13 -53.35, 62.99 -57.79" stroke="#e67700" stroke-width="1" fill="none"></path></g><g transform="translate(1044.2632097393844 613.7567060949714) rotate(0 31.60597499670439 -28.16797072751251)"><path d="M49.26 -40.81 C54.3 -46.47, 57.74 -48.13, 64.07 -56.89 M50.33 -38.86 C54.7 -45.33, 57.19 -50.76, 63.43 -58" stroke="#e67700" stroke-width="1" fill="none"></path></g><g transform="translate(1044.2632097393844 613.7567060949714) rotate(0 31.60597499670439 -28.16797072751251)"><path d="M40.43 -53.09 C47.9 -55.57, 53.68 -53.98, 64.07 -56.89 M41.49 -51.13 C48.44 -53.94, 53.57 -55.7, 63.43 -58" stroke="#e67700" stroke-width="1" fill="none"></path></g></g><mask></mask><g transform="translate(1127.2555034131256 521.4984402828977) rotate(0 93 37.5)"><text x="0" y="18" font-family="Virgil, Segoe UI Emoji" font-size="20px" fill="#364fc7" text-anchor="start" style="white-space: pre;" direction="ltr">Dictionaries,</text><text x="0" y="43" font-family="Virgil, Segoe UI Emoji" font-size="20px" fill="#364fc7" text-anchor="start" style="white-space: pre;" direction="ltr">lookup tables, or</text><text x="0" y="68" font-family="Virgil, Segoe UI Emoji" font-size="20px" fill="#364fc7" text-anchor="start" style="white-space: pre;" direction="ltr">gazetteers needed</text></g><g stroke-linecap="round"><g transform="translate(1028.0681446639746 448.45292101091763) rotate(0 25.08915094776694 0.2759699904872832)"><path d="M1.14 -0.82 C9.28 -0.89, 41.93 -0.54, 49.89 -0.21 M0.29 1.37 C8.23 1.42, 41.36 1.34, 49.31 0.99" stroke="#364fc7" stroke-width="1" fill="none"></path></g><g transform="translate(1028.0681446639746 448.45292101091763) rotate(0 25.08915094776694 0.2759699904872832)"><path d="M25 11.02 C34.22 5.7, 45.51 2.71, 49.46 -0.48 M27.13 10.49 C33.74 7.87, 40.81 4.56, 48.57 0.69" stroke="#364fc7" stroke-width="1" fill="none"></path></g><g transform="translate(1028.0681446639746 448.45292101091763) rotate(0 25.08915094776694 0.2759699904872832)"><path d="M24.67 -5.8 C34.06 -4.56, 45.47 -0.98, 49.46 -0.48 M26.8 -6.34 C33.68 -3.3, 40.86 -0.96, 48.57 0.69" stroke="#364fc7" stroke-width="1" fill="none"></path></g></g><mask></mask><g transform="translate(1099.1244687657418 422.53843632878124) rotate(0 54 25)"><text x="54" y="18" font-family="Virgil, Segoe UI Emoji" font-size="20px" fill="#e67700" text-anchor="middle" style="white-space: pre;" direction="ltr">Data used</text><text x="54" y="43" font-family="Virgil, Segoe UI Emoji" font-size="20px" fill="#e67700" text-anchor="middle" style="white-space: pre;" direction="ltr">Directly</text></g><g stroke-linecap="round"><g transform="translate(1106.2188931158398 477.166522907728) rotate(0 47.0872503834762 0.6378182652515534)"><path d="M-0.72 0.15 C14.64 0.38, 77.13 1.97, 92.73 2.1 M1.1 -0.81 C16.77 -0.97, 79.19 0, 94.89 0.51" stroke="#364fc7" stroke-width="1" fill="none"></path></g></g><mask></mask><g transform="translate(1092.880312736368 629.5107346599307) rotate(0 54 25)"><text x="54" y="18" font-family="Virgil, Segoe UI Emoji" font-size="20px" fill="#e67700" text-anchor="middle" style="white-space: pre;" direction="ltr">Data used</text><text x="54" y="43" font-family="Virgil, Segoe UI Emoji" font-size="20px" fill="#e67700" text-anchor="middle" style="white-space: pre;" direction="ltr">Indirectly</text></g><g stroke-linecap="round"><g transform="translate(1247.6324168441497 609.3709507919211) rotate(0 -14.190352138385151 18.631673887553006)"><path d="M-0.7 -0.9 C-0.76 3.79, 3.72 21.57, -1.09 27.95 C-5.91 34.32, -24.97 35.8, -29.59 37.37 M1.14 1.24 C0.94 5.59, 2.4 19.95, -2.3 26.1 C-7 32.25, -22.71 36.19, -27.08 38.16" stroke="#364fc7" stroke-width="1" fill="none"></path></g><g transform="translate(1247.6324168441497 609.3709507919211) rotate(0 -14.190352138385151 18.631673887553006)"><path d="M-16.59 27.83 C-17.57 29.76, -22.26 33.06, -28.36 39.07 M-16.19 28.02 C-17.39 30.51, -20.53 31.82, -27.7 38.09" stroke="#364fc7" stroke-width="1" fill="none"></path></g><g transform="translate(1247.6324168441497 609.3709507919211) rotate(0 -14.190352138385151 18.631673887553006)"><path d="M-13.07 37.58 C-14.86 37.17, -20.39 38.15, -28.36 39.07 M-12.66 37.76 C-14.6 38.21, -18.47 37.5, -27.7 38.09" stroke="#364fc7" stroke-width="1" fill="none"></path></g></g><mask></mask><g stroke-linecap="round"><g transform="translate(1093.892577247986 683.0663710628032) rotate(0 47.19105973630985 0.6804178310294446)"><path d="M1.02 -0.75 C16.62 -0.26, 78.98 1.69, 94.29 2.11 M0.09 1.48 C15.52 1.71, 77.74 0.79, 93.61 0.51" stroke="#364fc7" stroke-width="1" fill="none"></path></g></g><mask></mask><g transform="translate(208.82504753494322 123.74219605076178) rotate(0 173.5 12.5)"><text x="0" y="18" font-family="Virgil, Segoe UI Emoji" font-size="20px" fill="#000000" text-anchor="start" style="white-space: pre;" direction="ltr">illustrated-machine-learning.github.io</text></g></svg>