<svg version="1.1" xmlns="http://www.w3.org/2000/svg" viewBox="0 0 1356.8571440710402 407.1341269479017" width="100%" height="100%">
  <!-- svg-source:excalidraw -->
  
  <defs>
    <style class="style-fonts">
      @font-face {
        font-family: "Virgil";
        src: url("https://excalidraw.com/Virgil.woff2");
      }
      @font-face {
        font-family: "Cascadia";
        src: url("https://excalidraw.com/Cascadia.woff2");
      }
    </style>
  </defs>
  <rect x="0" y="0" width="1356.8571440710402" height="407.1341269479017" fill="#ffffff"></rect><g stroke-linecap="round" transform="translate(10 10) rotate(0 264.5 23)"><path d="M0 0 C0 0, 0 0, 0 0 M0 0 C0 0, 0 0, 0 0 M1.1 6.32 C0.01 4.57, 3.75 1.88, 4.7 1.17 M-0.36 7 C1.13 3.87, 3.16 2.44, 5.78 -0.19 M0.59 14.88 C3.23 7.32, 8.31 0.93, 8.27 -3.07 M1.26 11.09 C4.29 8.65, 7.46 2.64, 11.83 0.35 M2.27 16.99 C4.09 10.62, 9.72 3.34, 19.46 2.33 M-1.98 17.65 C2.14 13.62, 8.93 7.92, 14.83 1.06 M-1.72 25.03 C1.39 17.41, 8.29 15.76, 23.12 2.35 M2.11 23.77 C8.71 13.26, 15.86 6.26, 22.01 -0.42 M-2.56 33.38 C10.3 17.95, 20.9 8.5, 25.19 3.93 M-0.24 30.91 C6.54 21.59, 17.67 13.13, 25.03 -0.62 M-1.94 38.68 C9.08 27.09, 21.6 11.99, 35.16 0.3 M0.89 37.08 C8.61 26.93, 19.47 17.67, 31.51 1.7 M0.78 40.1 C8.88 28.28, 17.66 20.36, 35.04 -2.55 M0.04 42.2 C9.04 33.4, 20.55 22.75, 38.68 -0.85 M-1.26 45.31 C15.2 31.67, 33.2 10.32, 39.3 -2.63 M2.35 48.25 C8.47 39.11, 20.69 24.97, 41.28 0.99 M4.86 46.45 C15.9 34.72, 27.19 25.66, 48.44 1.31 M6.8 45.39 C14.26 35.97, 25.8 25.39, 48.94 -1.45 M13.49 48.5 C20.68 29.59, 39.09 20.41, 52.93 1.02 M11.64 46.39 C21.9 38.31, 31.99 27.1, 54.02 -1.42 M14.92 48.4 C31.65 31.62, 45.83 10.8, 58.73 -1.98 M16.86 47.89 C28.6 35.76, 37.12 23.03, 57.04 0.66 M24.94 50.86 C35.75 38.42, 44.2 20.5, 67.3 2.83 M21.55 48.39 C38.09 28.72, 51.96 11.5, 62.5 -1.47 M24.8 43.57 C45.18 27.72, 62.03 15.68, 69.09 -1.76 M27.82 45.54 C38.66 38.61, 45.62 27.4, 68.28 1.52 M34.78 48.52 C51.16 29.92, 63.02 11.03, 71.54 2.52 M34.13 45.56 C40.51 35.94, 49.99 26.29, 73.53 -0.14 M38.12 49.18 C56.43 32.15, 70.45 10.97, 76.58 0.73 M39.23 48.6 C48.28 35.27, 58.73 22.13, 80.01 2.1 M46.58 49.77 C62.09 28.67, 74.15 7.42, 84.65 -0.08 M43.48 46.11 C53.39 32.54, 65.49 22.83, 84.01 0.49 M48.39 50.55 C58.78 37.82, 71.19 20.31, 88.16 0.41 M48.74 46.25 C60.9 32.15, 75.17 20.3, 89.66 0.32 M57.78 51.01 C66.35 33.51, 75.11 22.39, 99.53 3.01 M55.76 47.21 C68.64 28.87, 84.39 12.07, 96.88 1.31 M62.98 49.16 C75.17 25.16, 90.31 8.02, 104.64 -3.7 M60.05 46.62 C69.57 37.05, 79.16 24.93, 98.7 -0.99 M67.71 44.76 C84.73 29.07, 95.19 10.59, 106.91 -4.14 M65.22 46.93 C76.69 35.35, 82.85 26.29, 105.16 -1.87 M70.51 47.34 C83.48 36.58, 96.6 17.43, 112.72 -0.45 M70.26 49.53 C79.4 34.7, 91.17 25.52, 112.68 1.96 M77.55 43.67 C85.44 34.96, 93.87 24.45, 118.79 3.45 M74.15 48.33 C88.28 33.03, 98.13 18.39, 115.27 -1.54 M83.4 45.31 C96.59 30.62, 105.95 15.13, 124.96 1.42 M80.52 47.48 C92.59 35.72, 104.08 19.79, 121.2 1.89 M82.37 48.52 C98.82 35.35, 110.56 17.46, 122.97 0.6 M84.89 47.38 C104.01 30.23, 116.76 13.69, 125.66 -1.52 M94.02 45.64 C107.57 29.25, 126.84 12.98, 131.81 -2.66 M92.05 46.16 C103.44 32.32, 115.07 19.16, 133.94 0.47 M95.12 48.21 C108.38 40.11, 112.67 30.38, 135.19 -3.47 M95.88 48.97 C105.73 36.1, 114.12 26.55, 138.87 -0.43 M101.23 50.31 C111.13 34.59, 125.05 24.67, 141.58 2.81 M100.8 49.44 C113.24 33.01, 124.22 18.5, 144.62 0.29 M106.62 43.76 C114.84 33.73, 125.51 26.8, 145.69 -0.17 M105.59 46.97 C120.21 29.48, 134.93 12.57, 148.16 1.31 M109.81 45.41 C122.26 36.31, 131.57 26.76, 156.47 -2.51 M112.79 48.15 C124.73 34.07, 136.89 16.98, 155.04 0.87 M117.56 48.33 C123.09 33.96, 138.52 29.41, 158.61 3.21 M116.56 48.14 C124.83 37.15, 133.76 25.91, 156.86 2.18 M122.37 49.14 C132.99 34.94, 141.99 21.54, 164.55 -2.85 M124.09 48.04 C134.7 33.45, 144.25 23.99, 163.06 -1.29 M130.5 47.19 C136.85 36.19, 148.14 21.74, 167.95 -0.5 M127.41 48.23 C144.35 28.29, 157.18 12.14, 170.36 -0.36 M131.43 47.84 C146.78 37.42, 159.48 21.56, 171.75 -2.3 M132.84 45.8 C143.91 36.06, 153.55 22.88, 174.59 -0.81 M141.89 45.73 C146.26 32.45, 161.31 24.48, 181.6 -2.31 M140.8 47.87 C156.03 28.07, 171.43 11.39, 180.1 2.05 M143.36 43.99 C158.77 36.19, 167.01 20.7, 185.91 -0.84 M143.24 49.05 C159.19 30.86, 173.88 13.58, 187.62 0.68 M150.05 45.49 C155.79 34.03, 167.46 28.77, 189.31 -1.16 M151.46 48.68 C162.25 32.07, 176.1 15.34, 191.61 0.75 M154.43 48.15 C167.55 38.08, 179.14 23.13, 192.71 -2.32 M153.55 48.36 C168.72 31.39, 179.26 18.62, 196.18 -1.54 M163.18 44.12 C174.84 31.51, 185.19 12.2, 202.71 -3.83 M162.19 45.18 C172.15 32.21, 185.42 15.76, 200.45 1.97 M166.75 47.06 C181.54 33.9, 192.66 19.3, 203.71 1.54 M164.1 49.23 C175.06 35.93, 186.39 22.79, 206.4 0.73 M167.33 43.38 C184.99 29.45, 205.16 8.25, 215.31 -0.97 M171.85 48.85 C181.98 37.43, 188.5 26.65, 212.26 -1.09 M172.35 43.53 C186.17 33.58, 192.96 25.66, 216.37 -0.87 M177.27 48.11 C188.7 30.8, 203.73 15.47, 216.42 0.68 M182.46 49.19 C192.51 27.69, 210.96 12.82, 226.49 0.86 M183.34 48.1 C192.77 35.62, 203.29 23.38, 222.75 -0.31 M185.09 48.55 C195.15 35.97, 214.62 22.92, 230.01 -1.01 M185.52 48.37 C199.61 33.26, 210.72 18.96, 228.5 0.39 M189.72 48.32 C199.61 37.94, 206.4 24.74, 233.5 3.27 M191.01 49.02 C200 35.12, 209.94 24.15, 233.67 -0.61 M200.73 49.2 C214.7 28.57, 231.83 13.08, 237.15 -1.49 M199.36 48.33 C212.09 30.54, 225.27 11.38, 236.25 -0.36 M206.13 45.41 C217.05 33.55, 227.92 10.62, 247.48 -0.03 M203.19 48.39 C209.46 36.01, 218.56 25.83, 244.85 0.01 M204.92 48.68 C219.53 34.88, 224.27 29.02, 250.18 -3.04 M207.36 45.24 C218.21 35.78, 229.13 23.31, 247.37 0.92 M216.59 43.49 C219.4 36.89, 235.26 24.04, 253.43 0.79 M214.36 46.2 C228.52 29.89, 245.24 12.03, 254.19 -1.52 M221.14 50.34 C237.62 30.32, 244.88 14.72, 257.39 0.01 M220.16 47.28 C227.99 38.64, 237.63 26.99, 259.59 1.86 M224.55 48.97 C237.79 27.11, 254.13 11.16, 266.22 -0.31 M223.66 46.59 C231.46 37.47, 239.98 23.91, 265.62 -1.32 M230.79 49.64 C239.99 36.63, 245.15 28.24, 273.59 0.66 M230.47 45.6 C239.26 35.32, 253.84 22.78, 271.42 0.34 M235.32 48.37 C248.43 30.93, 253.97 21.86, 274.63 -1.24 M234.34 46.66 C252.52 28.36, 265.99 7.8, 277.16 -0.57 M237.11 50.17 C257.91 32.15, 265.77 15.96, 283.48 4.09 M241.03 46.25 C249.69 38.44, 256.37 29.31, 281.38 -0.88 M248.1 48.33 C255.21 33.61, 265.25 25.61, 289.28 0.22 M245.69 48.45 C257.66 29.42, 272.54 12.09, 284.89 -1.52 M249.24 47.64 C265.66 29.17, 277.9 16.85, 289.63 3.55 M248.69 46.24 C263.25 31.56, 274.38 20.57, 292.1 1.93 M255.96 43.64 C270.26 33.23, 286.36 14.83, 294.67 -1.59 M257.06 46.93 C266.14 37.78, 274.98 26.67, 298.94 0.53 M258.19 45.88 C268.98 40.4, 280.54 23.42, 304.48 -3.55 M260.32 45.51 C271.25 36.64, 279.79 25.49, 302.23 1.43 M269.84 49.19 C279.59 29.15, 297.37 9.33, 305.18 -4.22 M267.88 46.02 C280.93 30.89, 292.51 16.05, 307.52 1.2 M268.83 48.87 C285.84 34.23, 297.32 17.03, 310.35 0.31 M272.88 46.93 C287.39 29.96, 303.32 10.4, 314.5 -0.78 M278.56 44.01 C290.43 32.04, 308.04 5.81, 317.08 2.93 M277.62 46.54 C290.56 32.03, 300.78 20.34, 316.88 -0.95 M283.92 44.69 C289.07 33.98, 302.32 27.24, 323.43 -3.21 M281.38 48.32 C294.74 31.57, 308.3 19.3, 323.72 1.82 M288.81 43.25 C304.39 28.59, 314.53 17.62, 332.49 -1.44 M285.83 46.3 C301.64 32.81, 314.31 15.23, 327.36 -0.41 M296.1 45.55 C307.24 31.95, 322.04 11, 337.79 3.66 M294.89 46.44 C307.01 31.83, 317.12 17.56, 332.74 0.72 M301.16 50.19 C305.52 35.74, 319.7 23.43, 343.41 1.52 M300.12 48.01 C314.9 29.97, 329.09 12.34, 341.34 -0.74 M303.21 48.54 C322.06 26.21, 331.93 12.04, 341.38 2.83 M303.91 45.72 C314.52 33.98, 324.54 22.43, 344.48 0.32 M310.06 48.22 C318.18 36.95, 326.54 25.22, 347.08 -0.48 M308.15 47.33 C323.97 28.71, 337.69 11.8, 350.61 2.19 M310.94 48.63 C325.66 36.52, 329.41 25.93, 356.01 -3.69 M314.92 47.29 C325.84 33.29, 339.16 17.54, 353.91 1.96 M319.82 48.88 C332.14 34.4, 344.23 18.28, 356.56 2.15 M317.66 48.86 C330.22 33.8, 341.2 20.18, 359 1.19 M320.9 51.14 C337.51 39.09, 344.78 20.49, 365.37 -1.75 M322.56 49.47 C334.96 37.61, 342.93 29.84, 364.09 -0.06 M328.63 43.81 C344.77 30.73, 356.99 15.49, 372.82 -2.64 M328.44 46.13 C345.18 33.07, 358.08 14.45, 370.43 2.26 M333.21 44.8 C351.95 30.26, 362.26 16.35, 379.04 2.94 M336.13 48.76 C343.36 35.16, 353.68 26.93, 378.12 1.47 M344.57 44.78 C352.27 28.13, 372.17 13.62, 379.38 -3.5 M340.35 45.61 C351.49 33.69, 361.67 22.53, 379.53 1.6 M345.89 50.44 C361.05 33.51, 375.95 17.14, 384.45 0.78 M347.04 48.6 C353.62 37.89, 365.63 27.72, 387.16 -1.28 M353.58 43.7 C363.27 35.32, 377.73 15.13, 389.6 3.03 M353.3 46.72 C364.78 29.56, 382.62 14.78, 391.01 -1.67 M354.81 49.02 C370.79 32.4, 382.52 11.41, 394.93 2.28 M356.72 47.37 C372.6 28.2, 389.59 10.99, 398.46 0.77 M359.47 44.6 C369.26 38.66, 384.68 23.3, 398.76 -3.46 M363.27 45.79 C377.44 30.19, 395.82 9.08, 403.63 -1.47 M369.72 45.64 C380.17 32.65, 391.26 16.72, 409.67 -1.9 M368.69 46.39 C382.76 31.49, 399.26 10.16, 407.3 1.66 M375.94 47.61 C383.88 37.17, 394.25 22.58, 415.97 -3.26 M374.32 48.12 C380.58 38.29, 390.8 28.29, 414.22 -0.82 M374.27 45.5 C386.49 29.05, 406.4 16.54, 421.74 -0.99 M376.53 45.9 C390.63 30.65, 404.73 13.58, 417.03 0.37 M386.56 49.03 C393.73 34.72, 412.8 17.49, 424.25 -0.53 M382.55 47.93 C394.87 36.02, 402.96 22.47, 425.65 0.24 M389.95 45.95 C401.77 33.57, 410.5 18.4, 426.07 -4.08 M387.87 49.1 C400.77 35.89, 409.95 25.46, 431.09 0.81 M392.77 49.25 C409.3 31.59, 422.55 18.82, 436.48 0.69 M392.12 48.36 C407.17 33.81, 417.27 19.17, 434.89 0.58 M396.14 44.44 C407.85 40.74, 416.35 30.71, 443.5 -0.16 M400.42 46.11 C409.76 30.72, 422.94 18.35, 440.95 -0.18 M405.89 44.79 C420.33 31.59, 433.27 14.7, 447.4 -3.52 M403.27 45.53 C413.62 34.62, 423.99 24.94, 444.94 2.01 M410.11 46.57 C424.6 29.06, 439.14 16.23, 448.71 1.94 M409.94 46.01 C423.73 29.16, 440.81 13.33, 450.15 -0.82 M415.12 44.3 C432.59 33.52, 446.8 12.8, 457.66 -0.92 M416.29 48.47 C429.5 32.49, 440.58 15.86, 456.88 1.29 M422.98 50.04 C430.35 29.66, 439.87 22.68, 458.27 -2.52 M418.24 48.79 C434.67 32.05, 450.33 14.81, 462.3 1.61 M426.85 45.32 C434.08 33.35, 447.51 18.28, 465.76 -3.2 M426.89 47.89 C435.64 36.05, 441.7 26.29, 465.85 -1.89 M431.76 44.7 C439.91 37.14, 452.76 20.83, 473.96 2.63 M429.23 45.39 C438.61 36.55, 450.25 26.75, 472.42 -0.46 M435.36 47.24 C440.67 38.45, 455.15 23.58, 476.07 2.11 M436.79 49.21 C444.24 38.94, 453.24 27.86, 477.05 -0.9 M439.33 44.5 C453.44 27.84, 469.71 7.98, 485.43 3.39 M440.84 45.7 C458.08 32.19, 470.51 14.52, 481.54 0.05 M442.8 47.83 C461.87 27.35, 476.33 13.15, 490.86 3.6 M445.81 49.02 C456.44 35.42, 466.18 22.78, 485.73 1.82 M454.44 47.54 C460.11 34.21, 475 20.66, 490.2 0.17 M453.1 46.52 C464.54 33.76, 476.58 19.48, 492.81 1.42 M453.87 48.25 C468.92 33.52, 478.13 25.25, 502.26 -2.01 M458.51 48.11 C470.98 31.02, 484.77 16.54, 497.24 -1.22 M459.73 44.03 C475.37 31.78, 484.03 20.75, 504.35 -3.25 M464.08 47.62 C476.2 28.9, 493.47 9.27, 502.08 2.13 M467.13 45.77 C475.16 35.06, 487.27 26.3, 508.27 -1.89 M467.49 48.2 C480.94 35.31, 495.3 19.99, 506.94 1.41 M475.7 48.31 C485.71 33.68, 502.96 15.62, 513.81 1.03 M473.91 47.67 C486.24 34.49, 496.42 18.67, 513.28 1.59 M475.03 49.79 C495.47 31.95, 507.25 17.78, 520.77 0.93 M477.41 47.94 C488.98 35.15, 501.85 19.49, 520.3 0.1 M480.73 50.83 C495.16 25.82, 511.63 13.28, 522.41 1.03 M484.8 48.31 C496.62 33.02, 509.86 15.13, 526.37 0.15 M487.89 49.84 C505.28 27.7, 518.13 12.04, 532.86 4.28 M489.02 46.94 C502.45 28.51, 520.86 12.58, 528.17 0.9 M491.08 50.2 C501.61 34.6, 518.33 26.63, 529.93 3.69 M493.01 46.11 C508.6 30.65, 522.72 15.65, 527.5 5.87 M501.89 47.57 C507.34 36.02, 524.27 18.52, 526.99 15.95 M499.1 45.72 C507.24 41.2, 513.22 34.39, 530.94 10.66 M504.89 45.11 C512.56 39.87, 516.28 38.24, 529.26 19.79 M504.86 48.57 C513.04 36.8, 521.34 28.47, 530.1 19.48 M507.12 48.75 C518.98 36.71, 521.16 35.49, 526.5 21.95 M508.5 45.77 C516.39 38.39, 523.83 32.06, 530.09 25.22 M518.14 50.41 C517.07 41.54, 522.65 40.52, 526.43 28.44 M516.74 46.12 C519.9 41.11, 522.62 36.53, 530.91 30.85 M519.94 47.26 C523.62 44.83, 523.67 43.65, 527.23 36.82 M521.67 46.1 C522.33 44.39, 526.27 40.41, 530.18 36.16 M525.98 47.39 C527.82 45.3, 529.2 45.16, 530.45 42.83 M526.57 47.16 C527.63 45.5, 528.35 44.54, 529.8 43.31" stroke="#228be6" stroke-width="0.5" fill="none"></path><path d="M-1.23 0.09 C116.95 -3.26, 234.15 -2.18, 528.71 0.29 M-0.14 -0.23 C132.85 2.68, 266.72 2.85, 528.25 -0.39 M527.35 0.97 C529.34 15.54, 525.84 33.29, 525.93 48.57 M530.58 1.29 C529.65 12.02, 527.17 22.2, 527.39 44.9 M528.77 46.26 C393.53 46.09, 259.17 47.52, 0.23 46.95 M528.2 45.53 C343.66 45.42, 159.23 44.5, 0.67 46.4 M2.17 44.11 C-1.22 37.91, -3.46 23.55, -2.41 1.56 M-0.71 45.73 C0.93 29.38, 0.65 11.71, -1.97 0.46" stroke="#000000" stroke-width="1" fill="none"></path></g><g transform="translate(53 15) rotate(0 221.5 18)"><text x="221.5" y="25" font-family="Virgil, Segoe UI Emoji" font-size="28px" fill="#000000" text-anchor="middle" style="white-space: pre;" direction="ltr">Parameters vs Hyperparameters</text></g><g stroke-linecap="round" transform="translate(12.18595949550945 56.719983540519024) rotate(0 667.3355922877654 170.20707170369133)"><path d="M0.34 -0.92 C475.3 -0.44, 948.46 -0.32, 1333.91 -1.05 M1332.84 1.56 C1333.65 86.43, 1331.4 167.29, 1336.04 341.4 M1334.67 340.16 C1039.27 343.4, 745.44 344.04, -0.97 340.69 M0.66 341.74 C-6.24 253.08, -5.73 163.88, -1.23 -0.33" stroke="#000000" stroke-width="1.5" fill="none" stroke-dasharray="8 9"></path></g><g transform="translate(210.16578257378114 110.84397903010904) rotate(0 57.5 12.5)"><text x="0" y="18" font-family="Virgil, Segoe UI Emoji" font-size="20px" fill="#e67700" text-anchor="start" style="white-space: pre;" direction="ltr">Parameters</text></g><g transform="translate(898.3108208212489 110.12131588299235) rotate(0 80.5 12.5)"><text x="0" y="18" font-family="Virgil, Segoe UI Emoji" font-size="20px" fill="#e67700" text-anchor="start" style="white-space: pre;" direction="ltr">Hyperparameters</text></g><g transform="translate(71.56931905126021 157.4815966592323) rotate(0 201 25)"><text x="201" y="18" font-family="Virgil, Segoe UI Emoji" font-size="20px" fill="#000000" text-anchor="middle" style="white-space: pre;" direction="ltr">Variables that define the model trained </text><text x="201" y="43" font-family="Virgil, Segoe UI Emoji" font-size="20px" fill="#000000" text-anchor="middle" style="white-space: pre;" direction="ltr">by the learning algorithm</text></g><g transform="translate(66.96196883117864 239.424100176293) rotate(0 210.5 25)"><text x="210.5" y="18" font-family="Virgil, Segoe UI Emoji" font-size="20px" fill="#000000" text-anchor="middle" style="white-space: pre;" direction="ltr">Directly modified by the learning algorithm </text><text x="210.5" y="43" font-family="Virgil, Segoe UI Emoji" font-size="20px" fill="#000000" text-anchor="middle" style="white-space: pre;" direction="ltr">based on the training data</text></g><g transform="translate(682.6086279592837 155.02358029800962) rotate(0 265 25)"><text x="265" y="18" font-family="Virgil, Segoe UI Emoji" font-size="20px" fill="#000000" text-anchor="middle" style="white-space: pre;" direction="ltr">Inputs of Machine Learning Models that influence the</text><text x="265" y="43" font-family="Virgil, Segoe UI Emoji" font-size="20px" fill="#000000" text-anchor="middle" style="white-space: pre;" direction="ltr">performance of the model</text></g><g transform="translate(742.2637197572512 310.3436303191975) rotate(0 51.5 12.5)"><text x="51.5" y="18" font-family="Virgil, Segoe UI Emoji" font-size="20px" fill="#c92a2a" text-anchor="middle" style="white-space: pre;" direction="ltr">Examples: </text></g><g stroke-linecap="round"><g transform="translate(593.2849053714754 102.0455736904787) rotate(0 1.0624377422491307 123.29180940864626)"><path d="M1.02 0.92 C1.33 41.98, 1.27 204.83, 0.9 245.66" stroke="#364fc7" stroke-width="1.5" fill="none" stroke-dasharray="8 9"></path></g></g><mask></mask><g transform="translate(639.5775445446025 234.05980672114492) rotate(0 321 12.5)"><text x="321" y="18" font-family="Virgil, Segoe UI Emoji" font-size="20px" fill="#000000" text-anchor="middle" style="white-space: pre;" direction="ltr">Don't belong to the training data and cannot be learned from it</text></g><g transform="translate(860.1309183549811 286.8405418740931) rotate(0 41 12.5)"><text x="41" y="18" font-family="Virgil, Segoe UI Emoji" font-size="20px" fill="#000000" text-anchor="middle" style="white-space: pre;" direction="ltr">k in KNN</text></g><g transform="translate(906.4491850382547 311.9637950213655) rotate(0 155.5 12.5)"><text x="155.5" y="18" font-family="Virgil, Segoe UI Emoji" font-size="20px" fill="#000000" text-anchor="middle" style="white-space: pre;" direction="ltr">Misclassification penalty in SVM</text></g><g transform="translate(855.6588002199542 336.3419614565846) rotate(0 177 12.5)"><text x="177" y="18" font-family="Virgil, Segoe UI Emoji" font-size="20px" fill="#000000" text-anchor="middle" style="white-space: pre;" direction="ltr">Max depth of tree in Decision Tree</text></g><g transform="translate(121.22072113086506 329.8373817711781) rotate(0 46.5 12.5)"><text x="46.5" y="18" font-family="Virgil, Segoe UI Emoji" font-size="20px" fill="#c92a2a" text-anchor="middle" style="white-space: pre;" direction="ltr">Example: </text></g><g transform="translate(218.6855873090717 317.10822257607106) rotate(0 137.5 25)"><text x="137.5" y="18" font-family="Virgil, Segoe UI Emoji" font-size="20px" fill="#000000" text-anchor="middle" style="white-space: pre;" direction="ltr">slope and intercept values </text><text x="137.5" y="43" font-family="Virgil, Segoe UI Emoji" font-size="20px" fill="#000000" text-anchor="middle" style="white-space: pre;" direction="ltr">in linear regression equation</text></g></svg>