<svg version="1.1" xmlns="http://www.w3.org/2000/svg" viewBox="0 0 1356.1410107260817 937.4700617150138" width="100%" height="100%">
  <!-- svg-source:excalidraw -->
  
  <defs>
    <style class="style-fonts">
      @font-face {
        font-family: "Virgil";
        src: url("https://excalidraw.com/Virgil.woff2");
      }
      @font-face {
        font-family: "Cascadia";
        src: url("https://excalidraw.com/Cascadia.woff2");
      }
    </style>
  </defs>
  <rect x="0" y="0" width="1356.1410107260817" height="937.4700617150138" fill="#ffffff"></rect><g stroke-linecap="round" transform="translate(10 10) rotate(0 367 26)"><path d="M0 0 C0 0, 0 0, 0 0 M0 0 C0 0, 0 0, 0 0 M-0.83 7.35 C-0.12 6.64, 3.45 3.2, 4.4 1.64 M0.05 5.64 C1.84 5.02, 2.16 3, 4.94 0.34 M2.01 10.95 C5.46 10.03, 4.44 4.06, 8.11 -2.55 M0.61 11.94 C4.03 8.73, 8.41 3.56, 9.7 0.52 M-4.12 16.18 C4.05 13.7, 16 5.12, 12.43 1.49 M-0.9 18.93 C2.5 14.04, 7.66 7.81, 15.32 0.5 M-0.72 22.85 C3.19 17.91, 9.6 12.03, 18.17 -1.79 M2.26 25.48 C6.92 18.4, 12.35 11.08, 20.17 -1.47 M1.04 34.15 C9.68 18.06, 17.64 6.82, 23.4 2.24 M-1.77 30.86 C8.55 17.52, 18.46 9.47, 25.59 0.45 M-0.98 36.91 C7.91 25.06, 23.41 14.31, 28.19 0.21 M0.47 35.1 C9.96 26.35, 19.65 15.05, 33.6 -0.41 M3.83 42.31 C8.9 34.36, 16.05 18.97, 34 2.88 M1.25 43.87 C12.58 29.23, 26.55 15.4, 36.75 1.52 M2.11 46.93 C13.63 37.03, 25.21 25.84, 46.18 -2.15 M1.02 49.36 C13.54 34.02, 26.31 20.21, 42.79 0.72 M-0.29 56.67 C21.69 29.72, 35.96 13.23, 49.95 2.36 M1.75 54.1 C14.92 39.46, 27.7 22.99, 48.78 1.13 M5.67 51.56 C24.91 32.18, 43.66 18.52, 52.93 -0.01 M5.04 51.64 C21.08 38.19, 33.97 20.06, 53.72 0.86 M10.83 51.53 C27.58 29.99, 45.75 8.04, 61.09 1.48 M12.83 52.18 C28.16 35.27, 42.27 17.18, 56.65 0.76 M14.39 53.13 C35.07 35.85, 48.74 13.6, 65.32 -2.6 M16.1 55.18 C28.35 39.25, 41.98 25.79, 65.3 1.05 M22.41 50.73 C35.5 34.85, 49.43 26.72, 65.37 2.95 M23.48 54.45 C32.57 41.26, 42.74 26.6, 70.21 1.95 M31.82 49.36 C36.19 40.79, 48.27 31.03, 72.39 2.7 M27.41 54.82 C36.68 41.69, 50.07 29.76, 73.36 0.34 M32.97 49.39 C53.24 30.95, 67.5 11.87, 76.89 3.34 M32.77 52.73 C48.12 34.26, 64.52 20.5, 78.29 -1.69 M41.54 51.33 C44.22 41.28, 56.38 28.24, 83.28 2.4 M39.01 52.9 C56.2 34.65, 72.99 17.56, 86.71 -0.13 M45.15 56.53 C62.93 39.03, 76.81 18.72, 93.86 1.08 M44.75 52.91 C56.16 35.63, 70.4 23.49, 88.65 -0.49 M51.27 55.97 C64.57 34.42, 81.53 9.71, 95.28 -3.11 M49.93 51.85 C63.82 36.92, 74.46 22.37, 95.06 -1.15 M57.75 55.01 C66.52 38.96, 77.89 31.29, 98.61 -3.51 M56.39 50.94 C70.75 34.36, 85 15.2, 99.96 -0.72 M60.83 54.12 C70.33 37.34, 86.11 17.58, 109.78 0.41 M58.08 54.15 C68.68 39.25, 80.53 27.03, 105.06 -1.45 M64.99 50.36 C72.25 40.56, 88.55 27.63, 113.61 -0.22 M64.95 53.58 C81.07 35.32, 96.62 16.58, 109.86 -0.58 M70.2 54.45 C84.83 32.13, 101.94 17.81, 115.65 1.85 M68.37 54.34 C81.47 38.89, 91.47 29.62, 115.66 -0.97 M75.23 51.69 C82.61 39, 96.73 29, 121.45 -1 M74.57 55.41 C90.23 37.15, 101.55 19.71, 122.92 1.77 M79.46 51.53 C97.11 36.66, 105.52 20.99, 123.86 1.71 M80.59 55.02 C95.49 38.87, 104.74 23.29, 128.7 0.18 M82.94 52.27 C103.36 30.43, 120.87 13.32, 128.84 0.1 M84.39 55.31 C99.91 37.83, 114.13 19.69, 130.63 0.26 M88.83 49.82 C102.51 42.48, 110.41 27, 139.51 0.63 M93.5 54.87 C110.54 33.76, 125.99 11.14, 137.01 2.2 M95.42 50.47 C107.43 44.66, 113.35 28.65, 142.62 2.9 M95.13 53.48 C113.61 32.39, 131.82 12.1, 143.44 0.88 M98.64 55.62 C117.77 34.95, 133.9 14.82, 148.53 -3.64 M100.8 52.63 C114.7 42.23, 121.08 31.13, 146.98 -1.4 M108.05 50.56 C126.39 33.4, 141.27 14.19, 153.75 1.09 M108.46 52.19 C117.8 43.77, 127.17 30.35, 154.73 1.65 M109.35 53.14 C126.18 34.27, 139.68 20.91, 156.92 0.53 M111.11 51.07 C130.51 32.58, 146.43 11.84, 157.98 0.97 M120.37 54.65 C132.68 43.04, 143.57 24.25, 161.31 -1.76 M118.96 51.77 C137.39 32.43, 155.28 10.99, 164.81 0.7 M121.56 52.44 C140.98 31.74, 153.83 17.25, 166.84 -1.35 M123.99 53.06 C136.16 39.59, 149.09 21.59, 170.27 -1.07 M128.02 54.76 C139.51 42.71, 146.73 23.87, 172.53 -0.21 M130.16 54.59 C139.51 38.48, 151.05 25.68, 176.93 0.19 M135.97 49.46 C154.18 31.35, 169.05 19.12, 176.57 -1.91 M133.96 53.52 C143.12 40.77, 156.31 26.97, 181.08 0.19 M138.78 56.77 C150.52 38.68, 159.87 24.8, 186.74 -2.93 M138.56 53.12 C146.49 40.85, 157.95 31.8, 185.29 -1.64 M145.43 50.03 C152.89 41.62, 163.26 31.9, 188.5 4.13 M146.44 51.42 C156.4 40.78, 165.83 30.15, 192.58 -1.49 M148.55 56.44 C161.1 37.77, 177.41 22.16, 195.4 -0.74 M149.54 53.86 C166.61 36.5, 181.58 14.68, 195.01 1.48 M158.89 53.83 C172.23 35.34, 186.92 21.6, 201.16 3.87 M153.82 53.82 C169.36 37.26, 181.87 24.09, 199.85 1.72 M157.35 55.39 C173.84 40.68, 186.45 27.82, 206.1 1.44 M161.46 53.38 C175.94 33.07, 190.19 14.97, 206.16 -0.07 M169.45 54.43 C182.38 35.05, 196.15 13.21, 209.2 -1.66 M167.42 51.82 C178.98 39.35, 193.26 21.67, 210.94 -0.3 M169.35 53.13 C190.01 29.1, 208.97 12.05, 218.56 0.54 M169.6 54.33 C181.78 39.02, 192.71 25.13, 217.74 0.12 M178.32 55.28 C189.51 41.33, 205.21 19.3, 219.4 2.41 M177.48 52.59 C189.9 38.25, 199.8 25.09, 222.8 0.41 M184.8 55.05 C194.4 39.02, 208.03 22.4, 224.6 3.39 M182.19 53.41 C197.61 31.69, 215.01 15.02, 227.69 0.53 M186.18 54.45 C204.37 30, 217.69 15.77, 234.66 -3.17 M188.54 52.11 C201.25 37.13, 214.1 22.14, 233.37 1.85 M192.11 56.39 C204.37 40.3, 217.88 28.5, 239.55 3.43 M192.38 53.38 C206.88 32.97, 223.6 15.9, 236.23 0.46 M195.8 49.63 C216.99 36.91, 226.34 16.65, 246 0.25 M198.04 52.17 C206.51 44.2, 215.47 30.77, 245.47 0.1 M199.82 50.29 C213.07 43.38, 223.98 28.18, 248.79 1.72 M202.27 55.06 C215.69 38.08, 228.46 21.32, 248.49 1.01 M208.12 50.63 C229.72 36.42, 245.56 9.93, 256.57 -2.85 M208.39 52.88 C221.19 39.58, 234.55 24.64, 254.89 1.31 M212.55 51.76 C232.94 28.76, 250.57 7.59, 259.88 3.47 M214.89 53.34 C227.21 39.26, 238.67 23.24, 258.57 1.61 M216.85 52.41 C231.93 33.24, 248.11 21.08, 265.65 1.94 M217.59 53.66 C233.11 36.65, 249.59 18.14, 266.37 1.66 M223.11 49.67 C242.96 32.38, 254.55 14.59, 273.17 -1.02 M222.22 53.18 C240.17 33.98, 260.57 13.71, 268.16 0.97 M231.82 51.77 C239.81 45.49, 249.09 31.74, 276.64 2.85 M230.59 53.99 C242.92 39.85, 253.88 22.56, 277.54 -0.58 M236.37 54.78 C251.05 36.9, 258.96 26.88, 281.12 -3.55 M233.17 53.57 C248.79 35.39, 264.44 18.13, 281.89 1.9 M239.01 55.41 C252.87 37.28, 261.11 27.06, 289.06 2.03 M239.26 53.41 C256.37 30.99, 274.53 10.94, 287.02 -1.08 M245.37 51.73 C266.12 28.5, 282.51 13.92, 292.3 -2.04 M245.58 51.61 C262.37 31.95, 276.69 12.65, 291.31 -0.74 M248.49 55.91 C268.1 37.16, 283.11 12.8, 298.57 -0.53 M250.41 51.54 C263.83 40.69, 277.49 23.14, 298.33 -1.45 M255.27 55.01 C267.15 39.15, 280.01 21.45, 299.45 -0.56 M254.23 54.43 C264.31 40.24, 277.04 29.79, 302.94 -0.04 M262.49 55.7 C281.08 30.4, 293.49 11.68, 304.93 1.07 M261.8 52.03 C274.34 38.77, 285.48 23.88, 307.95 -1.25 M267.32 53.01 C276.44 37.68, 286.72 31.2, 311.39 -1.29 M266.85 51.22 C277.07 42.93, 285.37 31.57, 314.22 -1.02 M275.33 51.1 C287.48 35.4, 302.25 14.3, 320.06 2.57 M270.13 54.63 C285.03 39, 296.82 29.11, 317.29 -1.96 M278.95 55.99 C285.75 40.87, 300.88 23.65, 321.08 3.47 M276.09 53.26 C288.53 43.61, 295.32 30.62, 321.51 -0.63 M281.49 56.31 C293.31 39.01, 302.59 31.91, 327.97 -2.4 M283.01 55.12 C292.52 39.24, 304.76 25.96, 328.69 1 M291.66 56.07 C303.49 38.46, 313.8 25.59, 337.62 -0.72 M287.56 53.86 C303.02 33.1, 315.77 19.34, 332.15 0.24 M291.54 55.4 C308.09 36.9, 324.04 16.66, 340.82 1.67 M291.01 53.37 C310.55 32.4, 329.85 10.5, 341.43 -1.75 M294.45 52.02 C308.23 35.95, 321.85 19.64, 346.22 -2.41 M299.13 53.16 C312.15 37.85, 323.39 23.23, 344.38 0.74 M300.21 50.3 C315.53 35.44, 331.02 15.96, 350.22 -3.08 M303.64 53.28 C318.32 35.9, 333.37 18.75, 351.09 -0.74 M306.42 54.21 C319.66 43.99, 323.49 33.02, 356.21 3.71 M307.59 55.12 C323.63 34.83, 343.55 14.33, 355.38 0.12 M310.33 52.83 C333.04 34.19, 348.37 15.13, 361.89 1.1 M313.34 54.84 C330.34 31.23, 350.63 11.84, 360.14 1.28 M316.81 57.14 C336.62 35.5, 357.07 8.01, 369.07 0.84 M320.68 51.99 C336.22 32.54, 352.26 16.02, 365.3 1.68 M324.86 52.7 C334.67 37.16, 351.39 22, 367.7 0.08 M323.48 54.11 C337.27 39.01, 346.84 28.49, 370.01 1.89 M327.63 52.46 C340.06 41.77, 351.12 27.17, 378.37 -1.95 M331.76 53.36 C344.64 36.91, 357.37 23.09, 377.19 0.75 M338.89 49.46 C354.01 32.61, 368.88 14.23, 380.29 0.88 M336.38 51.17 C353.49 30.92, 370.06 9.76, 379.73 -0.02 M337.05 53.65 C361.31 30.33, 373.94 11.86, 385.82 -1.72 M339.11 54.85 C358.06 34.51, 375.99 11.47, 385.06 0.77 M347.64 52.57 C361.83 33.91, 377.4 11.81, 392.45 0.37 M345.29 54.2 C364.02 33.59, 379.21 14.36, 393.29 0.49 M347.34 56.12 C366.13 30.31, 391.26 13.45, 401.28 -1.65 M349.95 54.17 C363.59 42.28, 374.01 28.09, 397.85 1.22 M354.44 49.33 C373.62 36.07, 389.57 15.32, 401.07 1.32 M358.41 51.44 C374.98 34.51, 393.21 13.39, 403.59 -1.56 M364.89 53.11 C377.88 41.12, 391.85 20.3, 410.7 -3.04 M360.44 55.09 C376.85 33.96, 388.64 20.96, 407.43 1.63 M370.75 52.95 C378.99 36.86, 389.1 24.2, 415.18 -3.65 M366.86 51.18 C379.88 42.14, 388.93 28.49, 412.47 -1.09 M376.24 51.74 C385.28 31.73, 404.67 10.46, 416.16 2.66 M371.67 51.42 C382.69 40.09, 395.78 26.27, 420.63 1.62 M376.17 54.49 C394.87 38.35, 411.53 14.57, 423.93 -0.04 M376.7 53.76 C395.42 32.81, 413.33 12.7, 422.73 1.03 M380.03 57.04 C399.72 32.54, 416.29 11.7, 427.89 1.91 M381.69 55.06 C392.32 40.85, 403.18 28.88, 431.19 0.86 M390.4 54.89 C399.1 35.22, 414.75 22.97, 436.59 0.54 M388.94 51.62 C405.2 35.11, 420.48 18.03, 434.08 2 M395.04 55.88 C405.41 39.82, 420.88 21.77, 440.21 -0.98 M393.46 51.95 C410.35 35.21, 425.46 15.64, 439.8 -0.93 M401.29 48.97 C409.79 38.02, 422.61 31.61, 442.57 0.35 M399.53 53.24 C408.51 38.59, 421.85 27.54, 443.18 1.08 M404.16 57.01 C423.08 36.41, 437.35 18.41, 447.6 0.18 M402.89 54.11 C413.48 43.23, 424.2 31.1, 450.1 0.05 M412.14 50.19 C421.31 34.79, 440.39 20.07, 459.38 -0.48 M410.67 51.9 C417.38 42.29, 427.92 31.5, 455.62 -0.39 M418.44 51.07 C434.31 32.72, 444.3 19.21, 460.63 -2.53 M414.83 51.61 C430.15 37.92, 440.75 22.37, 460.64 -0.34 M420.34 55.59 C438.86 31.85, 456.63 14.89, 468.69 -3.96 M421.51 54.72 C435.49 36.06, 450.65 17.18, 465.95 0.97 M429.01 50.56 C445.52 33.53, 455.82 16.52, 473.37 1.59 M427.06 52.59 C443.27 34.77, 460.25 10.68, 472.28 -1.43 M429.47 50.39 C448.64 38.34, 462.19 17.13, 480.26 1.81 M432.13 55.1 C447.44 32.3, 466.84 13.16, 477.64 -1.4 M439.15 49.86 C450.43 29.8, 468.77 8.27, 481.97 -1.17 M434.3 51.25 C445.79 40.96, 456.24 31.13, 482.77 -0.75 M443.85 52.89 C454.78 40.96, 458.5 25.68, 484 2.58 M442.23 53.8 C451.93 42.36, 462.74 30.29, 487.09 0.03 M448.26 49.23 C466.78 32.38, 479.66 14.49, 488.74 3.65 M448.22 51.86 C464.89 34.82, 479.34 12.95, 490.82 -1.5 M451.94 51.29 C465.86 43.38, 472.34 28.58, 497.93 -2.02 M450.43 51.59 C462.91 37.62, 476.55 23.85, 499.64 -1.18 M459.86 54.8 C469.23 37.56, 484.95 20.6, 504.75 -0.38 M457.41 52.74 C475.18 32.42, 491.42 14.87, 502.77 0.43 M466.35 51.66 C474.07 35.59, 486.92 20.39, 512.21 1.51 M462.3 53.33 C478.67 33.2, 498.4 16.1, 509.6 -1.39 M465.62 54.58 C489.42 30.97, 500.77 13.62, 517.23 4.18 M467.41 54.27 C479.74 43.33, 487.93 32.52, 515.85 1.2 M475.77 53.93 C484.81 43.43, 496.88 25.02, 521.1 0.55 M474.35 51.95 C486.35 40.08, 500.05 21.75, 520.16 1.11 M477.29 50.44 C486.03 42.13, 501.5 28.41, 521.51 -3.35 M476.68 54.91 C496.06 34.53, 515.83 10.37, 526.25 1.05 M485.05 51.94 C502.54 32.29, 519.41 12.7, 531.01 -3.63 M482.01 52.42 C501.91 32.21, 520.2 12.13, 531.51 -1.92 M486.79 50.14 C506.47 29.89, 524.57 17.66, 537.05 -1.77 M488.63 51.16 C507.18 33.18, 523.27 13.01, 537.12 0.28 M491.15 49.38 C508.45 39.31, 526.66 19.03, 544.46 -3.91 M495.66 51.8 C513.93 33.92, 532.34 10.95, 540.72 -0.66 M498.14 51.32 C520.72 35.94, 534.78 10.02, 543.45 -0.03 M499.62 53.62 C509.4 40.99, 521.91 28.42, 546.5 -0.77 M507.15 51.8 C523.27 33.32, 540.47 12.66, 552.11 -3.28 M504.61 55.18 C516.91 40.31, 527.37 27.79, 549.84 0.78 M511.48 49.48 C528.22 34.52, 547.5 13.77, 560.41 2.83 M510.92 54.9 C519.43 40.4, 530.61 29.9, 555.41 -1.67 M514.28 50.66 C533.29 41.29, 542.44 22.02, 564.72 1.14 M517.13 51.73 C530.68 35.55, 546.29 17.73, 561.84 0.35 M523.1 53.99 C538.72 34.38, 548.81 17.06, 567.78 1.62 M520.76 53.72 C530 39.76, 540.59 26.32, 567.79 -1.94 M525.87 55.27 C542.2 36.92, 548.42 26.3, 573.21 2.11 M524.4 54.69 C541.57 35.07, 558.78 17.06, 572.62 -1.94 M532.74 56.88 C538.44 44.69, 552.1 28.59, 577.51 1.04 M531.64 55.58 C547.27 36.01, 559.44 19.44, 578.51 -1.04 M539.37 52.82 C547.82 38.29, 565.03 21.57, 579.93 -1 M536.54 53.35 C549.63 38.29, 563.54 25.38, 582.38 0.74 M538.23 53.75 C551.88 42.51, 563.45 29.59, 585.7 -0.34 M540.98 53.81 C552.79 41.01, 561.8 28.44, 589.38 1.64 M544.39 56.4 C560.43 33.61, 576.82 17.45, 593.35 2.82 M546.63 53.06 C557.63 40.33, 570 24.53, 594.22 -0.97 M555.57 56.38 C568.6 37.46, 578.76 18.78, 596.55 -2.09 M553.13 54.05 C570.58 32.21, 584.03 13.91, 597.17 -1.23 M554.62 56.93 C570.99 39.59, 586.71 22.23, 600.1 0.71 M558.67 51.25 C571.02 37, 586.51 18.17, 602.19 -0.13 M565.54 49.64 C579.93 32.54, 597.01 19.3, 606.41 -1.89 M562.09 55.25 C574.88 38.61, 584.76 26.16, 609.56 -0.92 M567.92 55.24 C587.17 40.21, 597.79 18.19, 615.56 0.91 M567.59 53.4 C583.84 35.79, 600.4 19.28, 613.97 -0.47 M577.03 56.29 C590.57 32.84, 609.41 12.56, 619.74 -3.53 M574.76 54.42 C589.83 31.24, 608.58 11.19, 621.18 -0.64 M582.24 54.01 C587.41 36.46, 603.76 27.3, 627.28 1.56 M579.27 53.05 C594.93 37.8, 609.93 20.24, 626.13 0.33 M587.07 56.97 C598.54 37.35, 618.03 12.69, 633.13 -0.95 M582.98 54.64 C598.84 40.7, 611.6 24.6, 629.59 0.47 M587.67 49.83 C607.85 29.94, 624.48 12.51, 634.88 -1.33 M590.54 51.8 C601.84 40.78, 614.24 27.91, 636.23 -1.33 M596.82 54.16 C607.5 41.35, 616.04 28.95, 643.28 -2.22 M595.54 53.04 C610.9 35.61, 627.54 13.63, 643.3 -0.67 M598.42 49.13 C607.18 42.55, 619.81 24.87, 650.17 2.11 M601.14 51.33 C611.66 36.82, 625.32 22.82, 646.73 0.98 M603.54 56.26 C617.61 37.07, 629.36 28.99, 655.04 2.5 M606.17 52.82 C617.03 40.44, 628.41 31.4, 653.75 0.92 M612.84 52.22 C625.08 37.42, 642.7 13.35, 657.02 3.65 M609.76 53.37 C621.93 39.81, 629.37 30.18, 657.04 -0.21 M616.64 53.53 C623.48 38.23, 637.18 30.2, 665.37 0.89 M617.51 55.25 C631.38 39.54, 645.39 20.57, 663.32 -1.72 M621.38 53.31 C640.75 34.38, 653.78 13.97, 667.47 0.91 M622.04 51.71 C638.33 32.86, 658.44 10.63, 667.5 1.67 M625.64 50.09 C646.65 31.52, 657.81 16.37, 671.35 -1.48 M625.17 51.65 C641.29 34.39, 656.42 16.22, 673.32 0.52 M630.63 56.47 C646.8 36.03, 659.69 17.93, 681.67 -2.6 M630.53 52.21 C645.2 39.04, 655.47 27.4, 679.41 -0.74 M640.19 55.94 C647.09 37.33, 662.88 25.28, 686.21 2.83 M637.68 51.41 C655.74 34.25, 673.17 11, 684 0.82 M638.65 52.38 C654.94 35.21, 668.47 15.91, 687.89 2.49 M642.08 53.53 C655.99 37.31, 669.95 17.81, 690.98 -0.74 M650.08 54.98 C662.63 35.93, 675.35 21.27, 691.28 -0.85 M648.51 53.98 C661.36 38.72, 673.15 25.79, 694.56 0.39 M653.59 55.36 C670.03 33.97, 685.7 20.65, 702.54 -0.54 M652.46 52.17 C660.34 40.49, 671.14 32.51, 701.37 -1.58 M657.19 52.95 C669.91 35.94, 679.7 25.5, 707.36 -0.58 M660.08 52.87 C674.42 35.37, 693.99 14.05, 706.46 1.29 M665.76 51.86 C678.81 29.95, 697.6 9.26, 714.14 1.41 M662.37 54.9 C678.31 35.74, 694.42 19.01, 710.68 -0.42 M667.55 53.49 C678.3 35.62, 689.85 25.59, 717.35 -0.8 M667.73 51.66 C684.31 37.67, 699.47 20.32, 714.09 -0.63 M674.23 53.44 C684.67 38.56, 703.68 21.08, 723.34 3.37 M676.13 51.84 C685.18 40.9, 699.17 24.41, 719.94 -0.38 M683.33 50.11 C697.96 34.56, 713.39 10.06, 726.32 -1.81 M679.73 51.99 C699.07 32.01, 713.89 15.38, 724.79 0.8 M686.24 49.55 C704.71 31.78, 717.98 16.08, 734.91 -1.78 M685 53.16 C693.63 43.15, 704.26 30.81, 731.13 1.5 M686.78 50.17 C700.68 35.52, 718.75 22.53, 739.44 -2.05 M689.33 53.55 C701.76 37.27, 715.69 18.78, 736.85 -0.18 M693.11 55.51 C709.18 34.32, 723.75 19.13, 735.2 8.25 M695.17 53.09 C711.77 34.66, 723.67 17.95, 736.59 5.77 M704.31 50.95 C716.65 36.04, 727.43 22.09, 736.84 12.52 M702.66 54.11 C714.32 36.11, 727.52 21.66, 734.3 13.29 M702.31 56.51 C720.1 43, 726.84 28.87, 731.85 19.08 M707.76 53.93 C716.55 40.93, 726.12 28.64, 734.79 20.49 M710.44 55.56 C724.48 44.62, 731.37 32.1, 735.75 25.62 M710.84 53.49 C718.12 47.54, 721.97 39.95, 737.11 25.98 M713.42 55.61 C724.23 44.99, 728.67 37.55, 737.95 28.68 M714.84 54.02 C725.07 43.81, 730.01 36.35, 734.46 30.26 M723.84 49.02 C729 43.5, 732.16 40.5, 733.74 36.45 M721.89 53.58 C725 50.21, 729.18 46.29, 736.38 36.33 M726.68 51.2 C730.34 47.71, 732.51 44.82, 734.6 45.43 M727.43 52.41 C728.76 51.73, 732.02 50, 736.12 43.54 M733.53 53.19 C733.5 53.01, 734.83 51.87, 736 50.6 M733.03 53.22 C734.03 52.12, 734.79 50.94, 735.53 49.95" stroke="#228be6" stroke-width="0.5" fill="none"></path><path d="M-1.22 -0.98 C255.34 -4.64, 512.04 -6.69, 733.99 -0.65 M0.58 -0.45 C258.95 -2.54, 517.74 -2.54, 733.5 0.05 M733.08 2.16 C734.07 22.23, 735.28 40.64, 736.35 48.84 M734.83 1.9 C733.33 18.19, 735.41 35.36, 732.09 53.67 M734.04 50.76 C558.81 54.56, 388 53.43, -1.31 50.89 M733.72 51.42 C567.33 47.83, 400.44 48.07, -0.22 52.47 M-1.13 55.8 C-1.54 41.14, -3.33 31.2, -3.19 -3.14 M0.47 51.74 C2 33.23, -1.35 12.42, 1.74 -1.81" stroke="#000000" stroke-width="1" fill="none"></path></g><g transform="translate(22.5 18) rotate(0 354.5 18)"><text x="354.5" y="25" font-family="Virgil, Segoe UI Emoji" font-size="28px" fill="#000000" text-anchor="middle" style="white-space: pre;" direction="ltr">When to use and when not to use Machine Learning</text></g><g stroke-linecap="round" transform="translate(11.469826150550944 68.13161489460435) rotate(0 667.3355922877654 429.6692234102047)"><path d="M-0.74 1.12 C531.32 5.61, 1062.89 5.89, 1335.51 1.45 M1334.9 -0.66 C1339.76 289.46, 1338.61 580.34, 1335.81 860 M1334.53 860.51 C822.56 865.92, 310.7 863.85, 0.67 860.14 M-0.95 859.67 C-2.13 644.81, -4.36 431.93, -1.01 1.44" stroke="#000000" stroke-width="1.5" fill="none" stroke-dasharray="8 9"></path></g><g transform="translate(42.431670236263926 82.78297965143429) rotate(0 325 12.5)"><text x="0" y="18" font-family="Virgil, Segoe UI Emoji" font-size="20px" fill="#000000" text-anchor="start" style="white-space: pre;" direction="ltr">Machine Learning is a powerful tool for solving practical problems.</text></g><g transform="translate(618.0841899032885 129.07894211796156) rotate(0 304.5 12.5)"><text x="304.5" y="18" font-family="Virgil, Segoe UI Emoji" font-size="20px" fill="#000000" text-anchor="middle" style="white-space: pre;" direction="ltr">However, like any tool, it should be used in the right context.</text></g><g stroke-linecap="round"><g transform="translate(528.6411572828883 119.0504472076318) rotate(0 38.02070910135717 13.899291128891491)"><path d="M-1.07 0.21 C0.15 3.83, 0.81 17.78, 7.09 22.26 C13.38 26.75, 25.03 26.8, 36.63 27.11 C48.23 27.42, 69.92 24.47, 76.7 24.15 M0.56 -0.73 C1.6 2.52, -0.1 15.74, 5.85 20.6 C11.8 25.46, 24.38 27.74, 36.26 28.44 C48.13 29.15, 70.43 25.29, 77.12 24.83" stroke="#364fc7" stroke-width="1" fill="none"></path></g><g transform="translate(528.6411572828883 119.0504472076318) rotate(0 38.02070910135717 13.899291128891491)"><path d="M59.34 33.01 C65.48 32.79, 69.15 29.53, 75.77 26.44 M59.49 33.66 C63.89 30.53, 70.08 28.58, 76.36 24.41" stroke="#364fc7" stroke-width="1" fill="none"></path></g><g transform="translate(528.6411572828883 119.0504472076318) rotate(0 38.02070910135717 13.899291128891491)"><path d="M57.72 19.23 C64.38 22.88, 68.5 23.47, 75.77 26.44 M57.87 19.88 C62.66 21.14, 69.36 23.57, 76.36 24.41" stroke="#364fc7" stroke-width="1" fill="none"></path></g></g><mask></mask><g transform="translate(246.92749478190035 199.00285140648703) rotate(0 73.5 12.5)"><text x="0" y="18" font-family="Virgil, Segoe UI Emoji" font-size="20px" fill="#e67700" text-anchor="start" style="white-space: pre;" direction="ltr">When to use it</text></g><g transform="translate(934.5763435272083 198.38576049386938) rotate(0 94.5 12.5)"><text x="0" y="18" font-family="Virgil, Segoe UI Emoji" font-size="20px" fill="#e67700" text-anchor="start" style="white-space: pre;" direction="ltr">When not to use it</text></g><g transform="translate(113.55608020398631 247.40704535118311) rotate(0 217.5 25)"><text x="217.5" y="18" font-family="Virgil, Segoe UI Emoji" font-size="20px" fill="#000000" text-anchor="middle" style="white-space: pre;" direction="ltr">The problem is too complex or big for coding</text><text x="217.5" y="43" font-family="Virgil, Segoe UI Emoji" font-size="20px" fill="#000000" text-anchor="middle" style="white-space: pre;" direction="ltr">and only a partial solution is viable</text></g><g stroke-linecap="round"><g transform="translate(683.7061980653652 207.7977614778738) rotate(0 0.29771816301081344 344.9664980985085)"><path d="M0.62 1.13 C0.72 115.75, 0.19 574.35, -0.04 688.8" stroke="#364fc7" stroke-width="1.5" fill="none" stroke-dasharray="8 9"></path></g></g><mask></mask><g transform="translate(205.44671012000072 304.1789724809896) rotate(0 123.5 10)"><text x="123.5" y="14" font-family="Virgil, Segoe UI Emoji" font-size="16px" fill="#a61e4d" text-anchor="middle" style="white-space: pre;" direction="ltr">Spam Detection, so many rules!</text></g><g transform="translate(166.22269663126826 362.6038809934744) rotate(0 169.5 12.5)"><text x="169.5" y="18" font-family="Virgil, Segoe UI Emoji" font-size="20px" fill="#000000" text-anchor="middle" style="white-space: pre;" direction="ltr">The problem is constantly changing</text></g><g transform="translate(137.8247131004482 396.38011685251695) rotate(0 193 10)"><text x="193" y="14" font-family="Virgil, Segoe UI Emoji" font-size="16px" fill="#a61e4d" text-anchor="middle" style="white-space: pre;" direction="ltr">Scraping specific elements from dynamic webpages</text></g><g transform="translate(205.54063144890915 458.1518818600762) rotate(0 124.5 12.5)"><text x="124.5" y="18" font-family="Virgil, Segoe UI Emoji" font-size="20px" fill="#000000" text-anchor="middle" style="white-space: pre;" direction="ltr">The problem is perceptive</text></g><g transform="translate(194.49872734009568 488.8371023484233) rotate(0 142.5 10)"><text x="142.5" y="14" font-family="Virgil, Segoe UI Emoji" font-size="16px" fill="#a61e4d" text-anchor="middle" style="white-space: pre;" direction="ltr">Speech, Image, and Video recognition</text></g><g transform="translate(191.18240341834553 556.8090482669304) rotate(0 140 12.5)"><text x="140" y="18" font-family="Virgil, Segoe UI Emoji" font-size="20px" fill="#000000" text-anchor="middle" style="white-space: pre;" direction="ltr">The phenomenon is unstudied</text></g><g transform="translate(136.1262950319051 587.3728625019994) rotate(0 195.5 20)"><text x="195.5" y="14" font-family="Virgil, Segoe UI Emoji" font-size="16px" fill="#a61e4d" text-anchor="middle" style="white-space: pre;" direction="ltr">Personalized mental health medication options</text><text x="195.5" y="34" font-family="Virgil, Segoe UI Emoji" font-size="16px" fill="#a61e4d" text-anchor="middle" style="white-space: pre;" direction="ltr">based on the patient's genetic and sensory data</text></g><g transform="translate(158.43045596543925 677.8096898673157) rotate(0 172 12.5)"><text x="172" y="18" font-family="Virgil, Segoe UI Emoji" font-size="20px" fill="#000000" text-anchor="middle" style="white-space: pre;" direction="ltr">The problem has a simple objective</text></g><g transform="translate(209.13195780867318 704.570022036266) rotate(0 125.5 10)"><text x="125.5" y="14" font-family="Virgil, Segoe UI Emoji" font-size="16px" fill="#a61e4d" text-anchor="middle" style="white-space: pre;" direction="ltr">Yes/No decision or single number</text></g><g transform="translate(182.40967010181612 776.8341657557949) rotate(0 150.5 12.5)"><text x="150.5" y="18" font-family="Virgil, Segoe UI Emoji" font-size="20px" fill="#000000" text-anchor="middle" style="white-space: pre;" direction="ltr">It is cost effective to use it</text></g><g transform="translate(862.1874921489443 251.33221286176922) rotate(0 157.5 25)"><text x="157.5" y="18" font-family="Virgil, Segoe UI Emoji" font-size="20px" fill="#000000" text-anchor="middle" style="white-space: pre;" direction="ltr">Every action of the system has</text><text x="157.5" y="43" font-family="Virgil, Segoe UI Emoji" font-size="20px" fill="#000000" text-anchor="middle" style="white-space: pre;" direction="ltr">to be explainable</text></g><g transform="translate(730.0393486585981 332.86455219452546) rotate(0 287.5 25)"><text x="287.5" y="18" font-family="Virgil, Segoe UI Emoji" font-size="20px" fill="#000000" text-anchor="middle" style="white-space: pre;" direction="ltr">Every change in the system when compared to its previous</text><text x="287.5" y="43" font-family="Virgil, Segoe UI Emoji" font-size="20px" fill="#000000" text-anchor="middle" style="white-space: pre;" direction="ltr">version has to be explainable</text></g><g transform="translate(772.791029967555 424.15011109440275) rotate(0 249.5 12.5)"><text x="249.5" y="18" font-family="Virgil, Segoe UI Emoji" font-size="20px" fill="#000000" text-anchor="middle" style="white-space: pre;" direction="ltr">The cost of error made by the system is too high</text></g><g transform="translate(842.0976566976742 481.15905109150117) rotate(0 183 12.5)"><text x="183" y="18" font-family="Virgil, Segoe UI Emoji" font-size="20px" fill="#000000" text-anchor="middle" style="white-space: pre;" direction="ltr">We want to get to the market asap</text></g><g transform="translate(812.634796182314 652.1070396414689) rotate(0 219.5 12.5)"><text x="219.5" y="18" font-family="Virgil, Segoe UI Emoji" font-size="20px" fill="#000000" text-anchor="middle" style="white-space: pre;" direction="ltr">A simple heuristic would work reasonably well</text></g><g stroke-linecap="round"><g transform="translate(1081.9825792268039 344.4418947120703) rotate(0 0 0)"><path d="M0 0 C0 0, 0 0, 0 0 M0 0 C0 0, 0 0, 0 0" stroke="#000000" stroke-width="1" fill="none"></path></g><g transform="translate(1081.9825792268039 344.4418947120703) rotate(0 0 0)"><path d="MNaN NaN CNaN NaN, NaN NaN, NaN NaN MNaN NaN CNaN NaN, NaN NaN, NaN NaN" stroke="#000000" stroke-width="1" fill="none"></path></g><g transform="translate(1081.9825792268039 344.4418947120703) rotate(0 0 0)"><path d="MNaN NaN CNaN NaN, NaN NaN, NaN NaN MNaN NaN CNaN NaN, NaN NaN, NaN NaN" stroke="#000000" stroke-width="1" fill="none"></path></g></g><mask></mask><g transform="translate(784.9723184849854 536.6821988130432) rotate(0 241 12.5)"><text x="241" y="18" font-family="Virgil, Segoe UI Emoji" font-size="20px" fill="#000000" text-anchor="middle" style="white-space: pre;" direction="ltr">Getting the right data is too hard or impossible</text></g><g transform="translate(769.2047454944523 595.1980227169397) rotate(0 257 12.5)"><text x="257" y="18" font-family="Virgil, Segoe UI Emoji" font-size="20px" fill="#000000" text-anchor="middle" style="white-space: pre;" direction="ltr">Problem can be solved by using traditional software</text></g><g transform="translate(740.8172595311898 706.1210101536535) rotate(0 289.5 25)"><text x="289.5" y="18" font-family="Virgil, Segoe UI Emoji" font-size="20px" fill="#000000" text-anchor="middle" style="white-space: pre;" direction="ltr">The phenomenon has too many outcomes and no sufficient </text><text x="289.5" y="43" font-family="Virgil, Segoe UI Emoji" font-size="20px" fill="#000000" text-anchor="middle" style="white-space: pre;" direction="ltr">amount of examples to represent them are available</text></g><g transform="translate(770.7264785854522 795.0468827958484) rotate(0 260 12.5)"><text x="260" y="18" font-family="Virgil, Segoe UI Emoji" font-size="20px" fill="#000000" text-anchor="middle" style="white-space: pre;" direction="ltr">The system is static (not to be improved over time)</text></g><g transform="translate(817.3793253898821 849.3104774132262) rotate(0 216.5 25)"><text x="216.5" y="18" font-family="Virgil, Segoe UI Emoji" font-size="20px" fill="#000000" text-anchor="middle" style="white-space: pre;" direction="ltr">A lookup table with outputs for every input</text><text x="216.5" y="43" font-family="Virgil, Segoe UI Emoji" font-size="20px" fill="#000000" text-anchor="middle" style="white-space: pre;" direction="ltr">could be easily built</text></g><g stroke-linecap="round"><g transform="translate(251.78942664773695 344.6070488801088) rotate(0 73.57641680727147 0.27676883130789065)"><path d="M0.51 -0.57 C25.22 -0.78, 123.06 -1.38, 147.83 -1.14 M-0.68 1.75 C23.88 1.62, 121.75 0.27, 146.67 -0.21" stroke="#087f5b" stroke-width="1" fill="none"></path></g></g><mask></mask><g stroke-linecap="round"><g transform="translate(253.87507215976984 439.64669508253246) rotate(0 74.655980034805 0.28742594753202866)"><path d="M0.82 -1.06 C25.56 -1.21, 122.9 -0.32, 147.3 0.04 M-0.21 1 C25 0.98, 124.55 1.87, 149.52 1.6" stroke="#087f5b" stroke-width="1" fill="none"></path></g></g><mask></mask><g stroke-linecap="round"><g transform="translate(252.14790212208572 536.9158323768424) rotate(0 74.18641171746322 0.047946415096703277)"><path d="M0.32 0.81 C25.14 0.58, 124.61 -0.55, 149.35 -0.71 M-0.98 0.19 C23.75 0.04, 124.12 0.31, 148.99 0.45" stroke="#087f5b" stroke-width="1" fill="none"></path></g></g><mask></mask><g stroke-linecap="round"><g transform="translate(259.83366060968274 654.0586206147082) rotate(0 74.69040654156288 -0.36836460692893525)"><path d="M0.86 -0.41 C25.22 -0.54, 122.62 -0.39, 147.31 -0.4 M-0.16 -1.66 C24.48 -1.67, 124.74 0.56, 149.54 0.93" stroke="#087f5b" stroke-width="1" fill="none"></path></g></g><mask></mask><g stroke-linecap="round"><g transform="translate(251.65603905895205 754.5764414343575) rotate(0 74.2102258763457 -0.39013284204474985)"><path d="M0.31 0.08 C24.98 -0.09, 122.45 -0.71, 147.22 -0.91 M-0.98 -0.92 C24.11 -0.97, 124.48 0.06, 149.4 0.14" stroke="#087f5b" stroke-width="1" fill="none"></path></g></g><mask></mask><g stroke-linecap="round"><g transform="translate(932.2004664315264 317.29914124673087) rotate(0 73.89880214892719 0.17207202189638338)"><path d="M0.8 -0.58 C25.5 -0.5, 123.31 0.57, 148.04 0.49 M-0.25 1.73 C24.31 1.44, 122.14 -1.04, 147 -1.38" stroke="#087f5b" stroke-width="1" fill="none"></path></g></g><mask></mask><g stroke-linecap="round"><g transform="translate(933.6888898377119 407.22199902332795) rotate(0 74.8153885374254 -0.06226749817778909)"><path d="M-0.36 0.49 C24.36 0.72, 122.99 1, 147.61 0.75 M1.65 -0.3 C26.84 -0.35, 125.31 -0.99, 149.99 -0.97" stroke="#087f5b" stroke-width="1" fill="none"></path></g></g><mask></mask><g stroke-linecap="round"><g transform="translate(938.7909349943475 465.19613937860595) rotate(0 74.20585086206393 0.3897347243646436)"><path d="M0.79 -0.73 C25.65 -1.01, 124.3 -0.5, 148.67 -0.57 M-0.26 1.5 C24.53 1.89, 123.03 0.99, 147.96 0.67" stroke="#087f5b" stroke-width="1" fill="none"></path></g></g><mask></mask><g stroke-linecap="round"><g transform="translate(942.535711988693 526.5854477888934) rotate(0 73.7863262389078 0.26778475556238845)"><path d="M0.42 -0.85 C25.15 -1, 123.77 -0.21, 148.39 -0.09 M-0.82 1.31 C23.77 1.29, 122.83 1.44, 147.52 1.4" stroke="#087f5b" stroke-width="1" fill="none"></path></g></g><mask></mask><g stroke-linecap="round"><g transform="translate(942.5903153140662 584.8737967297511) rotate(0 73.73644899139526 -0.40320035369177276)"><path d="M0.1 -0.36 C24.91 -0.37, 124.06 -0.62, 148.78 -0.49 M-1.31 -1.6 C23.39 -1.4, 123.27 0.8, 148.12 0.79" stroke="#087f5b" stroke-width="1" fill="none"></path></g></g><mask></mask><g stroke-linecap="round"><g transform="translate(946.8136586714381 638.9415052569293) rotate(0 74.48340576509372 1.017444083022383)"><path d="M1.12 1.14 C25.79 1.31, 124.18 0.21, 148.72 0.18 M0.24 0.7 C24.74 1.16, 123.47 2.07, 148.04 1.81" stroke="#087f5b" stroke-width="1" fill="none"></path></g></g><mask></mask><g stroke-linecap="round"><g transform="translate(947.2950989423916 691.5446321019372) rotate(0 74.43529999666316 0.38343090808893976)"><path d="M0.75 0.94 C25.77 1.24, 124.67 1.32, 149.19 1.09 M-0.32 0.39 C24.71 0.44, 124.21 -0.51, 148.75 -0.45" stroke="#087f5b" stroke-width="1" fill="none"></path></g></g><mask></mask><g stroke-linecap="round"><g transform="translate(951.2699634644378 779.8162938473833) rotate(0 74.57027677230917 -0.05160646623926368)"><path d="M1.12 -0.82 C25.83 -0.57, 124.4 0.23, 148.89 0.43 M0.25 1.37 C24.8 1.33, 123.8 -0.95, 148.29 -1.47" stroke="#087f5b" stroke-width="1" fill="none"></path></g></g><mask></mask><g stroke-linecap="round"><g transform="translate(961.9284335246412 836.4851892364886) rotate(0 73.32611549297735 -0.5962296979855637)"><path d="M-0.03 -0.27 C24.59 -0.53, 123.36 -0.7, 148.15 -0.82 M-1.5 -1.46 C22.91 -1.65, 122.22 0.07, 147.16 0.28" stroke="#087f5b" stroke-width="1" fill="none"></path></g></g><mask></mask></svg>