<svg version="1.1" xmlns="http://www.w3.org/2000/svg" viewBox="0 0 1375.5269536657343 1056.3399140643705" width="4126.580860997203" height="3169.0197421931116">
  <!-- svg-source:excalidraw -->
  
  <defs>
    <style class="style-fonts">
      @font-face {
        font-family: "Virgil";
        src: url("https://excalidraw.com/Virgil.woff2");
      }
      @font-face {
        font-family: "Cascadia";
        src: url("https://excalidraw.com/Cascadia.woff2");
      }
    </style>
  </defs>
  <rect x="0" y="0" width="1375.5269536657343" height="1056.3399140643705" fill="#ffffff"></rect><g stroke-linecap="round" transform="translate(10 10) rotate(0 283 23)"><path d="M0 0 C0 0, 0 0, 0 0 M0 0 C0 0, 0 0, 0 0 M0.19 6.05 C1.13 5.74, 2.44 3.24, 6.47 1.74 M0.09 6.33 C0.9 3.8, 2.95 2.37, 5.58 -0.09 M3.24 11.18 C4.89 9.51, 5.46 -0.03, 8.65 0.28 M1.45 12.11 C1.19 7.21, 6.34 6.31, 9.2 -0.31 M0.51 16.48 C5.5 8.62, 11.06 7.63, 12.92 0.91 M-1.41 20.26 C4.65 11.67, 10.49 7.45, 15 0.83 M3.89 25.82 C10.6 19.62, 15.78 11.05, 17.85 -2.63 M-1.69 24.08 C5.19 18.53, 12.2 10.03, 21.78 -2.04 M0.67 27.66 C6.43 17.93, 18.2 11.95, 29.8 -0.44 M0 30.86 C12.04 17.79, 19.34 5.93, 26.32 -0.55 M1.92 39.32 C11.04 20, 20.01 11.05, 31.84 -1.8 M-0.35 35.88 C11.54 25.19, 22.09 11.55, 31.83 0.5 M0.29 46.01 C5.6 34.44, 20.2 16.7, 33.01 3.94 M0.69 44.24 C9.81 32.15, 19.35 21.55, 34.89 0.66 M0.4 50.63 C18.27 30.56, 30.22 13.99, 40.56 2.31 M1.88 47.09 C11.23 35.03, 24.61 21.5, 43.1 1.22 M6.36 45.44 C23.32 35.2, 32.37 15.84, 45.73 0.76 M6.33 47.83 C16.95 33.05, 29.34 21.12, 46.44 -1.19 M15.73 44.16 C22.11 36.28, 33.02 20.87, 51.95 -0.37 M12.95 48.75 C20.51 36.73, 31.52 22.01, 54.93 -1.17 M18.19 48.9 C27.09 32.97, 33.87 23.45, 60.64 -0.8 M16.64 48.36 C32.59 28.6, 47.07 12.47, 57.94 0.99 M25.4 45.66 C39.35 29.91, 54.74 8.61, 67.43 2.62 M23.65 47.51 C32.13 37.57, 39.35 26.78, 61.92 0.79 M27.26 47.36 C44.47 28.82, 54.78 15.63, 71.92 -1.02 M29.28 46.82 C34.56 37.55, 44.42 27.94, 69.63 -0.96 M33.6 44.83 C45.7 28.13, 67.06 12.07, 73.93 -1.77 M33.19 48.22 C48.32 30.18, 60.55 15.38, 73.91 -0.68 M38.51 49.78 C49.01 29.66, 68.02 14.76, 83.24 -1.73 M37.1 48.43 C48.39 39.56, 53.95 28.01, 80.96 1.54 M46.01 45.87 C52.79 33.9, 68.59 19.13, 83.88 -4.12 M44.06 48.47 C56.13 33.81, 69.44 19.27, 84.01 -0.61 M50.36 47.6 C66.68 29.58, 73.97 10.7, 91.8 1.78 M48.19 47.15 C63.09 32.41, 72.96 20.25, 90.66 1.85 M53.8 43.46 C68.33 38.23, 76.71 21.99, 95.2 3.54 M53.97 46.59 C70.02 27.35, 85.78 12.75, 96.56 -1.3 M62.75 46.77 C72.43 30.8, 84.18 13.91, 104.26 -3.31 M61.91 45.7 C70.53 33.18, 83.02 19.15, 100.7 2.04 M65.65 46.81 C75.33 37.26, 82.29 29.28, 107.34 3.64 M63.89 45.68 C81.46 29.72, 95.39 11.38, 107.16 -0.27 M68.46 44.48 C78.61 33.51, 90.38 25.05, 112.81 0.72 M68.19 48.29 C83.11 32.85, 92.08 17.72, 112.32 0.95 M75.74 47.6 C86.15 36.12, 104.1 19.13, 112.57 1.89 M74.05 45.58 C88.79 29.26, 104.56 13.1, 118 -1.56 M79.71 50.17 C96.96 29.19, 105.85 12.94, 119.12 -1.95 M82.2 45.64 C96.12 29.75, 111.95 11.23, 121.97 -1.81 M87.76 44.05 C103.62 31.71, 118.09 12.08, 130.61 0.22 M87.93 46.87 C98.13 32.89, 109.33 21.3, 128.49 1.28 M92.29 50.04 C108.7 31.91, 119.88 13.12, 134.39 3.37 M92.37 47.46 C104.02 35.13, 115.24 20.39, 133.38 -1.92 M98.89 48.83 C110.92 31.65, 118.61 25.63, 140.76 1.34 M96.24 46.89 C108.36 34.39, 119.55 19.96, 139.32 1.74 M104.12 44.03 C119.64 28.81, 129.12 17.2, 139.27 -2.12 M103.06 47.46 C109.56 37.02, 116.73 30.1, 141.53 1.72 M107.79 49.15 C118.28 30.24, 134.11 13.46, 148.44 -2.32 M108.95 47.74 C121.25 30.59, 137.5 15.39, 147.09 1.27 M114.64 46.6 C123.09 36.43, 131.92 25.46, 155.97 1.28 M113.86 48.12 C128.41 30.76, 137.7 14.82, 152.64 -1.06 M114.66 46.7 C124.12 35.74, 131.17 30.43, 160.57 4.19 M119.3 48.25 C133.92 32.75, 146.26 15.94, 159.65 2.09 M124.78 46.68 C134.21 31.92, 147.44 21.59, 168.15 -0.23 M123.62 48.64 C134.93 31.87, 146.82 19.92, 164.17 0.34 M129.17 49.67 C141.82 34.22, 154.44 16.14, 169.59 2.32 M127.74 48.02 C138.63 33.42, 149.69 20.17, 168.09 -0.84 M136.96 47.73 C141.31 39.36, 149.91 24.99, 177 2.03 M134.43 48.99 C149.22 30.68, 164.88 11.26, 176.86 1.26 M138.5 48.77 C147.43 41.46, 153.07 28.44, 177.43 4.01 M138.01 47.38 C152.77 31.14, 162.29 18.85, 178.77 0.19 M147.11 43.68 C156.84 37.07, 160.71 24.07, 185.19 -0.73 M143.65 45.88 C159.74 28.71, 173.79 12.64, 186.68 -2.22 M147.33 49.19 C159.18 34.99, 173.54 17.93, 187.52 3.72 M149.08 47.43 C162.71 30.86, 176.98 16.76, 189.28 1.66 M152.67 50.98 C168.55 34.48, 174.67 25.63, 196.9 -2.83 M155.87 48.79 C170.93 28.06, 185.5 11.66, 196.84 -1.25 M161.84 46.62 C176.63 32.25, 193.72 12.93, 204.78 2.37 M159.17 46 C176.23 32.2, 189.54 15.62, 200.46 0.78 M168.56 44.58 C183.9 33.44, 197.05 13.2, 209.82 -0.06 M166.94 47.92 C183.74 30.05, 197.76 10.85, 205.82 -2.24 M173.72 43.25 C178.74 38.36, 193.36 23.17, 211.65 -0.57 M169.75 45.69 C185.94 27.85, 202.17 12.45, 212.42 -0.49 M179.21 45.92 C187.64 33.1, 192.36 20.36, 215.13 2.27 M175.96 46.25 C188.39 35.49, 198.87 23.93, 219.35 1.14 M184.13 47.79 C194.98 31.17, 217.74 11.5, 224.06 0.83 M181.54 45.83 C191.6 31.46, 205.58 20.81, 224.51 0.57 M186.55 50.96 C194.95 38.46, 210.99 26.33, 229.49 -2.65 M185.28 47.47 C200.6 35.14, 208.73 21.82, 226.39 -0.01 M195.11 44.18 C202.98 26.77, 218.31 11.21, 235.44 3.01 M193.87 47.26 C205.92 31.48, 221.46 16.39, 231.31 -0.59 M194.02 46.12 C217.86 29.47, 233.88 6.34, 238.45 1.64 M196.48 48.07 C208.7 31.34, 224.65 16.46, 238.51 -1.11 M204.14 44.61 C213.85 30.16, 234.34 17.66, 240.7 0.94 M203.26 49.33 C213.74 36.09, 224.02 21.67, 242.68 0.27 M206.54 48.36 C220.41 38.3, 224.8 31.64, 246.99 3.81 M206.43 45.25 C224.47 28.44, 237.52 11.33, 248.5 0.94 M216.26 46.03 C224.85 38.28, 234.06 29.93, 252.3 -3.96 M211.54 46.37 C225.95 32.38, 236.14 20.74, 255.72 0.09 M222.54 49.13 C232.41 32.48, 252.07 15.02, 259.62 1.33 M219.22 48.99 C232.72 27.67, 248.29 9.65, 258.43 0.22 M222.63 51.13 C237.85 29.31, 253.29 17.89, 268.15 -3.73 M224.42 48.72 C236.95 32.77, 253.27 14.92, 266.78 0.6 M225.96 46.37 C240.81 31.34, 258.94 10.74, 267.04 -2.62 M230.19 45.98 C237.07 34.86, 246.26 26.67, 270.26 -1.17 M231.94 45.11 C245.22 39.38, 251.74 25.16, 279.69 0.07 M234.88 47.48 C248.1 32.17, 259.1 19.77, 275.44 0.27 M242.21 44.52 C252.43 30.05, 271.61 13.29, 277.43 1.67 M241.94 47.71 C250.94 31.35, 264.44 19.27, 281.22 -0.4 M246.37 43.67 C256.03 34.9, 261.31 21.42, 287.84 -3.61 M243.14 46.48 C254 36.29, 264.41 22.33, 284.57 -1.71 M250.24 46.53 C261.74 33.45, 270.08 23.25, 292.45 -1.62 M252.33 46.38 C264.32 32.97, 277.45 18.53, 291.79 2.13 M253.6 45 C272.55 31, 289.33 12.35, 295.03 -3.33 M256.68 46.31 C268.5 33.52, 280.75 22.55, 296.25 -1.35 M262.46 45.85 C274.94 30.11, 285 14.62, 299.3 2.21 M262.45 46.95 C272.45 33.62, 282.79 22.49, 301.67 -1.25 M266.81 45.79 C284.3 27.12, 296.27 16.72, 305.2 2.85 M266.21 48.31 C282.52 32.38, 298.05 12.26, 307.84 -1.94 M268.82 50.42 C279.62 35.6, 294.44 26.26, 310.65 2.36 M272.64 47.16 C281.99 35.06, 291.02 21.92, 313.86 -1.45 M276.67 49.24 C285.03 36.4, 302.06 24.29, 315.77 -0.61 M277.71 46.58 C289.62 31.94, 302.12 17.52, 319.93 -2.03 M284.74 50.68 C297.23 28.37, 309.25 17.54, 324.67 2.52 M282.5 45.45 C298.18 30.19, 308.72 14.36, 322.56 -0.62 M291.37 49.05 C300.05 29.3, 316.68 15.89, 325.68 1.23 M288.41 47.95 C301.39 33.49, 310.93 17.86, 328.37 0.61 M295.14 43.59 C306.61 31.48, 311.69 22.32, 333.06 -3.11 M294.89 45.04 C307.79 31.24, 321.34 16.25, 333.26 -0.18 M296.59 45.42 C311.84 37.5, 321.19 22.4, 343.34 -2.2 M298.76 48.01 C309.69 35.75, 319.71 23.43, 340.25 0.94 M301.81 49.33 C314.02 33.25, 334.74 11.74, 344.99 2.17 M303.24 46.66 C320.28 28.23, 334.95 14.45, 342.67 -0.78 M311.5 45.02 C324.78 33.02, 333.53 20.54, 346.05 1.82 M308.51 47.1 C316.04 37.37, 327.03 25.21, 349.28 -0.57 M309.99 44.35 C324.2 41, 326.99 24.04, 355.14 1.54 M314.22 49.5 C329.21 33.84, 340.36 18.94, 354.77 1.66 M316.79 45.07 C337.19 29.14, 348.21 16.34, 362.53 -1.78 M320.61 46.31 C324.97 38.98, 336.21 27.34, 358.35 -0.96 M324.44 45.85 C343.11 31.21, 358.44 12.36, 367.69 0.7 M323.76 47.8 C340.51 31.38, 355.24 14.26, 364.78 -0.01 M326.64 49.26 C348.63 30.88, 359.03 8.56, 373.07 -3.3 M329.3 47.49 C342.11 31.01, 356.9 13.19, 371.67 1.73 M336.1 44.78 C347.68 29.59, 355.04 20.61, 380.32 3.85 M335.71 47.75 C347.04 33.33, 360.99 19.59, 375.18 -0.22 M340.72 43.78 C354.16 29.24, 370 15.48, 384.09 -3.3 M340.04 45.22 C352.06 36.15, 363 24.47, 381.32 1.47 M345.4 46.57 C353.2 34.06, 360.6 28.61, 384.21 -2.31 M345.17 48.34 C361.28 29.45, 376.69 10.64, 387.68 -0.61 M352.22 45.33 C360.75 36.55, 371.46 30.44, 395.52 4.18 M349.56 46.84 C360.72 38.05, 367.62 26.05, 390.66 0.97 M354.27 47.17 C370.74 28.51, 389.19 11.99, 396.04 -0.59 M354.49 49.26 C368.43 33.42, 378.94 21.71, 399.25 -2.09 M363.82 45.1 C369.12 32.57, 378.28 21.3, 400.79 -0.44 M361.83 48.43 C373.1 32.4, 388.41 18.46, 402.28 -0.29 M366.13 49.03 C383.9 30.92, 401 10.73, 409.98 0.7 M365.26 46.99 C379.27 35.61, 388.22 21.54, 410.13 -0.84 M371.68 48.79 C381.2 32.38, 396.76 19.65, 410.83 1.81 M372.07 46.86 C385.2 35.59, 395.22 23.84, 414.03 1.88 M377.92 45.1 C393.03 29.68, 404.28 16.51, 421.73 -0.24 M378.34 46.75 C391.5 31.14, 400.97 16.84, 419.79 -0.25 M381.51 44.59 C396.85 32.6, 413.69 15.08, 422.07 -3.64 M382.75 47.69 C390.4 38.31, 401.11 26.22, 423.02 0.47 M388.07 50.81 C397.7 37.77, 404.92 23.37, 428.45 1.29 M389.82 46.49 C399.51 36.93, 407.59 27.85, 430.93 1.01 M392.46 43.2 C407.38 30.17, 413.68 16.54, 432.44 -0.84 M395.61 45.27 C400.97 35.34, 411.4 25.27, 433.58 1.18 M396.51 48.12 C409.26 35.11, 419.06 18.07, 436.83 0.48 M399.04 48.94 C413.92 29.71, 433.08 8.28, 441.55 1.04 M405.23 45.82 C415.88 31.37, 432.02 8.07, 441.37 0.66 M403.61 46.69 C416.41 32.11, 428.19 17.6, 445.31 -1.52 M412.66 49.47 C418.21 37.39, 432.14 18.43, 447.05 -0.98 M408.62 45.55 C421.02 34.74, 434.31 18.16, 448.86 -1.34 M414 44.14 C428.93 32.63, 441.51 17.64, 457.79 -2.2 M414.97 47.79 C429.22 33.39, 443.94 14.74, 457.06 -0.42 M423.45 49.81 C435.36 30.53, 448.92 11.29, 460.78 -2.88 M420.38 48.54 C429.28 35.54, 440.97 23.96, 461.34 1.48 M421.78 45.11 C432.24 32.02, 441.01 25.76, 468.13 2.02 M424.51 45.92 C432.78 35.96, 445.69 26.29, 466.94 0.45 M433.33 50.57 C440.26 31.64, 456.62 19.67, 472.55 2.21 M431.44 46.88 C445.96 32.09, 458.55 16.59, 470.04 -1.41 M435.07 43.91 C449.04 33.09, 457.1 19.26, 476.32 -0.72 M436.26 48.91 C450.98 32.33, 464.37 13.57, 476.28 1.8 M440.2 43.71 C447.21 35.34, 460.82 26.14, 480.36 2 M442.14 46.28 C455.8 29.27, 471.74 8.35, 483.26 1.56 M443.89 44.5 C458.01 34.84, 470.33 16.52, 487.79 -1.98 M447.55 47.59 C457.04 33.22, 469.47 19.58, 485.69 1.1 M451.52 43.67 C471.28 29.96, 481.76 8.25, 489.72 0.92 M452.07 45.21 C467.93 27.44, 482.8 12.41, 494.57 0.99 M456.43 48.57 C468.19 33.23, 482.14 25.38, 501.47 -2.83 M455.59 48.81 C470.2 32.64, 478.57 20.52, 499 0.57 M460.19 47.4 C471.41 33.56, 481.68 28.19, 500.32 1.17 M464.09 46.87 C479.09 27.83, 495.33 12.85, 501.42 -0.52 M466.35 48.31 C476.71 34.59, 488.75 24.36, 509.78 2.2 M468.86 48.16 C482.95 28.74, 495.8 12.51, 507.33 -0.84 M476.67 50.34 C488.35 29.34, 503.92 10.91, 513.34 3.45 M472.29 47.24 C485.17 35.72, 493.44 21.43, 512.56 0.35 M476.85 50.43 C495.86 34.55, 508.03 15.02, 522.67 1.04 M479.08 45.99 C490.13 35.72, 500.67 20.9, 521.02 0.59 M480.86 46.43 C494.01 35.13, 504.81 20.51, 523.44 -1.04 M482.02 47.04 C499.18 31.62, 512.17 12.67, 523.95 -0.29 M492.6 44.11 C507.6 30.84, 517.64 12.34, 527.55 -3.87 M489.22 47.37 C502.63 31.54, 515.08 16.52, 529.66 1.33 M494.21 44.13 C500.38 37.98, 511.6 24.01, 534.83 1.38 M493.87 47.72 C509.01 29.17, 526.53 8.52, 534.81 -1.61 M495.78 49.06 C513.52 29.92, 529.63 8.31, 537.35 -3.57 M497.5 46.15 C511.88 31.02, 526.22 13.8, 542.11 -1.4 M507.64 50.38 C521.03 27.39, 535.76 7.27, 545.17 -1.08 M503.7 47.5 C515.65 36.71, 522.2 27.89, 547.61 1.98 M510.08 43.47 C522.81 29.2, 538.1 19.62, 550.52 1.38 M509.41 48.92 C522.56 34.79, 536.34 17.69, 550.45 -1.65 M513.59 46.61 C526.79 33.98, 535.94 20.46, 553.64 2.27 M514.61 45.34 C523.75 37.2, 534.43 26.47, 556.08 0.82 M520.66 44.02 C534.62 33.16, 541.82 14.34, 558.97 0.93 M521.65 47.01 C532.68 35.12, 542.59 23, 562.04 -0.7 M529.98 44.79 C532.34 37.55, 545.63 26.08, 568.27 -2.62 M524.93 44.96 C540.33 30.24, 553.72 15.18, 564.54 2.75 M530.21 49.93 C541.9 34, 546.08 25.22, 566.23 6.3 M530.2 48.53 C543.17 33.88, 556.6 18.61, 565.58 7.71 M535.58 48.1 C546.49 37.81, 556.17 29.88, 566.05 10.5 M535.62 47.59 C543.56 38.03, 549.71 32.78, 568.02 14.19 M542.91 50.88 C551.07 35.17, 560 23.72, 568.55 18.95 M542.29 46.31 C546.64 39.58, 554.76 32.61, 568.22 18.28 M544.65 47.99 C558.22 40.64, 565.22 33.29, 568.51 28.52 M548.83 48.92 C549.88 43.53, 555.11 37.62, 567.84 24.4 M556.44 51.07 C559.38 40.53, 564.26 35.91, 566.28 27.77 M552.39 45.93 C557.3 41.5, 563.77 38.05, 566.99 31.46 M555.75 45.5 C560.47 40.68, 565.79 40.6, 565.42 39.17 M556.49 47.61 C562.61 43.57, 566.03 40.16, 566.74 38.17 M562.95 46.61 C564.71 46.13, 565.8 44.59, 566.58 44.29 M563.01 46.75 C564.01 46.53, 565.1 45.08, 566.8 43.35" stroke="#228be6" stroke-width="0.5" fill="none"></path><path d="M-0.32 -1.06 C206.57 -5.11, 413.5 -4.42, 566.14 -0.28 M-0.32 0.08 C158.7 0.57, 317.49 -0.23, 566.7 0.57 M565.5 -1.3 C568.81 16.06, 565.11 29.16, 565.22 43.53 M566.4 0.48 C567.73 14.76, 568.52 31.35, 566.41 46 M566.64 47.07 C429.59 49.17, 293.97 49.32, 0.84 44.61 M565.83 45.56 C352.13 49.59, 136.89 48.63, 0.32 45.78 M-3.27 45.99 C-2.23 31.13, 4.41 23.07, 2.57 2.16 M1.89 46.96 C-1.21 34.84, 0.67 25.8, -0.85 1.39" stroke="#000000" stroke-width="1" fill="none"></path></g><g transform="translate(54 15) rotate(0 239 18)"><text x="239" y="25" font-family="Virgil, Segoe UI Emoji" font-size="28px" fill="#000000" text-anchor="middle" style="white-space: pre;" direction="ltr">Why Machine Learning Projects fail</text></g><g stroke-linecap="round" transform="translate(12.875427392520578 55.93811414008087) rotate(0 676.3257631366068 495.20089996214483)"><path d="M0.48 -1.55 C513.43 6.32, 1024.34 6.9, 1352.33 -0.55 M1352.91 0.83 C1350.21 292.98, 1350.9 588.63, 1352.69 990.72 M1353.7 991.26 C1042.73 987.42, 733.36 985.89, 0.58 991.33 M0.95 989.82 C0.02 602.81, -1.24 214.6, -0.96 -0.9" stroke="#000000" stroke-width="1.5" fill="none" stroke-dasharray="8 9"></path></g><g transform="translate(47.05356728204606 91.03854362134734) rotate(0 596.5 12.5)"><text x="0" y="18" font-family="Virgil, Segoe UI Emoji" font-size="20px" fill="#000000" text-anchor="start" style="white-space: pre;" direction="ltr">From 74% to 87% of ML and advanced analytics projects failed (or did not reach production) between 2017 and 2020</text></g><g transform="translate(46.33012862072155 152.544461571566) rotate(0 112.5 18)"><text x="0" y="25" font-family="Virgil, Segoe UI Emoji" font-size="28px" fill="#c92a2a" text-anchor="start" style="white-space: pre;" direction="ltr">Common Reasons</text></g><g transform="translate(113.56246189575995 215.07857801829414) rotate(0 137 12.5)"><text x="0" y="18" font-family="Virgil, Segoe UI Emoji" font-size="20px" fill="#1864ab" text-anchor="start" style="white-space: pre;" direction="ltr">Lack of Experienced Talent</text></g><g transform="translate(102.92879014570553 249.40372574065987) rotate(0 163.5 12.5)"><text x="0" y="18" font-family="Virgil, Segoe UI Emoji" font-size="20px" fill="#000000" text-anchor="start" style="white-space: pre;" direction="ltr">Not standard ways to teach ML</text></g><g transform="translate(103.36743479791767 283.59168311563553) rotate(0 172 25)"><text x="0" y="18" font-family="Virgil, Segoe UI Emoji" font-size="20px" fill="#000000" text-anchor="start" style="white-space: pre;" direction="ltr">Organizations do not know how to </text><text x="0" y="43" font-family="Virgil, Segoe UI Emoji" font-size="20px" fill="#000000" text-anchor="start" style="white-space: pre;" direction="ltr">hire and to compare ML experts </text></g><g transform="translate(101.26288231378385 337.1258411413237) rotate(0 162.5 25)"><text x="0" y="18" font-family="Virgil, Segoe UI Emoji" font-size="20px" fill="#000000" text-anchor="start" style="white-space: pre;" direction="ltr">Many have no experience with ML</text><text x="0" y="43" font-family="Virgil, Segoe UI Emoji" font-size="20px" fill="#000000" text-anchor="start" style="white-space: pre;" direction="ltr">projects life cycle</text></g><g transform="translate(101.16965349113707 393.72111330916596) rotate(0 179.5 25)"><text x="0" y="18" font-family="Virgil, Segoe UI Emoji" font-size="20px" fill="#000000" text-anchor="start" style="white-space: pre;" direction="ltr">Experienced software engineers have</text><text x="0" y="43" font-family="Virgil, Segoe UI Emoji" font-size="20px" fill="#000000" text-anchor="start" style="white-space: pre;" direction="ltr">no skills in Machine Learning</text></g><g transform="translate(83.33910599248247 243.9874978852331) rotate(0 6.5 18)"><text x="0" y="25" font-family="Virgil, Segoe UI Emoji" font-size="28px" fill="#000000" text-anchor="start" style="white-space: pre;" direction="ltr">-</text></g><g transform="translate(82.17411987466221 280.17559298035303) rotate(0 6.5 18)"><text x="0" y="25" font-family="Virgil, Segoe UI Emoji" font-size="28px" fill="#000000" text-anchor="start" style="white-space: pre;" direction="ltr">-</text></g><g transform="translate(81.79369008191588 335.2618269702907) rotate(0 6.5 18)"><text x="0" y="25" font-family="Virgil, Segoe UI Emoji" font-size="28px" fill="#000000" text-anchor="start" style="white-space: pre;" direction="ltr">-</text></g><g transform="translate(81.41090844165046 389.26147572728223) rotate(0 6.5 18)"><text x="0" y="25" font-family="Virgil, Segoe UI Emoji" font-size="28px" fill="#000000" text-anchor="start" style="white-space: pre;" direction="ltr">-</text></g><g transform="translate(524.9515741910454 208.20200148712502) rotate(0 172.5 12.5)"><text x="0" y="18" font-family="Virgil, Segoe UI Emoji" font-size="20px" fill="#1864ab" text-anchor="start" style="white-space: pre;" direction="ltr">Lack of Support by the Leadership</text></g><g transform="translate(538.015192638396 245.76238168635427) rotate(0 168.5 37.5)"><text x="0" y="18" font-family="Virgil, Segoe UI Emoji" font-size="20px" fill="#000000" text-anchor="start" style="white-space: pre;" direction="ltr">Scientists and Software Engineers</text><text x="0" y="43" font-family="Virgil, Segoe UI Emoji" font-size="20px" fill="#000000" text-anchor="start" style="white-space: pre;" direction="ltr">often have different goals</text><text x="0" y="68" font-family="Virgil, Segoe UI Emoji" font-size="20px" fill="#000000" text-anchor="start" style="white-space: pre;" direction="ltr">(deliverables vs experiments)</text></g><g transform="translate(539.2696683452632 332.45349772305053) rotate(0 157 25)"><text x="0" y="18" font-family="Virgil, Segoe UI Emoji" font-size="20px" fill="#000000" text-anchor="start" style="white-space: pre;" direction="ltr">Business metrics not clear from</text><text x="0" y="43" font-family="Virgil, Segoe UI Emoji" font-size="20px" fill="#000000" text-anchor="start" style="white-space: pre;" direction="ltr">the beginning of the project</text></g><g transform="translate(538.831552224302 393.5647712339887) rotate(0 144.5 25)"><text x="0" y="18" font-family="Virgil, Segoe UI Emoji" font-size="20px" fill="#000000" text-anchor="start" style="white-space: pre;" direction="ltr">Leaders with non-scientific or</text><text x="0" y="43" font-family="Virgil, Segoe UI Emoji" font-size="20px" fill="#000000" text-anchor="start" style="white-space: pre;" direction="ltr">non-engineering backgrounds</text></g><g transform="translate(516.835279044778 240.77974908193028) rotate(0 6.5 18)"><text x="0" y="25" font-family="Virgil, Segoe UI Emoji" font-size="28px" fill="#000000" text-anchor="start" style="white-space: pre;" direction="ltr">-</text></g><g transform="translate(518.6035415817332 327.42815700506253) rotate(0 6.5 18)"><text x="0" y="25" font-family="Virgil, Segoe UI Emoji" font-size="28px" fill="#000000" text-anchor="start" style="white-space: pre;" direction="ltr">-</text></g><g transform="translate(519.1492578757034 389.4165669428803) rotate(0 6.5 18)"><text x="0" y="25" font-family="Virgil, Segoe UI Emoji" font-size="28px" fill="#000000" text-anchor="start" style="white-space: pre;" direction="ltr">-</text></g><g transform="translate(980.7162446593256 206.70546322362316) rotate(0 143 12.5)"><text x="0" y="18" font-family="Virgil, Segoe UI Emoji" font-size="20px" fill="#1864ab" text-anchor="start" style="white-space: pre;" direction="ltr">Missing Data Infrastructure</text></g><g transform="translate(971.3855347331419 250.82116259085342) rotate(0 172.5 25)"><text x="0" y="18" font-family="Virgil, Segoe UI Emoji" font-size="20px" fill="#000000" text-anchor="start" style="white-space: pre;" direction="ltr">Scientists obtain data for training</text><text x="0" y="43" font-family="Virgil, Segoe UI Emoji" font-size="20px" fill="#000000" text-anchor="start" style="white-space: pre;" direction="ltr">by using various ad-hoc scripts</text></g><g transform="translate(973.2015211448834 315.8412205538625) rotate(0 186.5 62.5)"><text x="0" y="18" font-family="Virgil, Segoe UI Emoji" font-size="20px" fill="#000000" text-anchor="start" style="white-space: pre;" direction="ltr">Once the model is ready, it turns out</text><text x="0" y="43" font-family="Virgil, Segoe UI Emoji" font-size="20px" fill="#000000" text-anchor="start" style="white-space: pre;" direction="ltr">that it is impossible, by using the </text><text x="0" y="68" font-family="Virgil, Segoe UI Emoji" font-size="20px" fill="#000000" text-anchor="start" style="white-space: pre;" direction="ltr">available production infrastructure, </text><text x="0" y="93" font-family="Virgil, Segoe UI Emoji" font-size="20px" fill="#000000" text-anchor="start" style="white-space: pre;" direction="ltr">to generate input examples for the</text><text x="0" y="118" font-family="Virgil, Segoe UI Emoji" font-size="20px" fill="#000000" text-anchor="start" style="white-space: pre;" direction="ltr">model fast enough (or at all!)</text></g><g transform="translate(938.2056211395238 245.83852998642578) rotate(0 6.5 18)"><text x="0" y="25" font-family="Virgil, Segoe UI Emoji" font-size="28px" fill="#000000" text-anchor="start" style="white-space: pre;" direction="ltr">-</text></g><g transform="translate(940.5353943813552 310.8158798358745) rotate(0 6.5 18)"><text x="0" y="25" font-family="Virgil, Segoe UI Emoji" font-size="28px" fill="#000000" text-anchor="start" style="white-space: pre;" direction="ltr">-</text></g><g transform="translate(137.52772490975804 486.33906683534224) rotate(0 119 12.5)"><text x="0" y="18" font-family="Virgil, Segoe UI Emoji" font-size="20px" fill="#1864ab" text-anchor="start" style="white-space: pre;" direction="ltr">Data Labeling Challenge</text></g><g transform="translate(100.34579589944042 523.2032031389099) rotate(0 189.5 37.5)"><text x="0" y="18" font-family="Virgil, Segoe UI Emoji" font-size="20px" fill="#000000" text-anchor="start" style="white-space: pre;" direction="ltr">As of 2019, 73% of companies labeled</text><text x="0" y="43" font-family="Virgil, Segoe UI Emoji" font-size="20px" fill="#000000" text-anchor="start" style="white-space: pre;" direction="ltr">the data on their own (time lost by</text><text x="0" y="68" font-family="Virgil, Segoe UI Emoji" font-size="20px" fill="#000000" text-anchor="start" style="white-space: pre;" direction="ltr">skilled data scientists)</text></g><g transform="translate(80.75611174621736 517.7869752834849) rotate(0 6.5 18)"><text x="0" y="25" font-family="Virgil, Segoe UI Emoji" font-size="28px" fill="#000000" text-anchor="start" style="white-space: pre;" direction="ltr">-</text></g><g transform="translate(98.35765786995762 611.4388976226528) rotate(0 196.5 25)"><text x="0" y="18" font-family="Virgil, Segoe UI Emoji" font-size="20px" fill="#000000" text-anchor="start" style="white-space: pre;" direction="ltr">When data labeling is outsourced, there</text><text x="0" y="43" font-family="Virgil, Segoe UI Emoji" font-size="20px" fill="#000000" text-anchor="start" style="white-space: pre;" direction="ltr">is poor quality validation</text></g><g transform="translate(78.76797371673456 606.0226697672242) rotate(0 6.5 18)"><text x="0" y="25" font-family="Virgil, Segoe UI Emoji" font-size="28px" fill="#000000" text-anchor="start" style="white-space: pre;" direction="ltr">-</text></g><g transform="translate(582.573610658239 475.1033470137263) rotate(0 125.5 25)"><text x="125.5" y="18" font-family="Virgil, Segoe UI Emoji" font-size="20px" fill="#1864ab" text-anchor="middle" style="white-space: pre;" direction="ltr">Siloed Organizations and </text><text x="125.5" y="43" font-family="Virgil, Segoe UI Emoji" font-size="20px" fill="#1864ab" text-anchor="middle" style="white-space: pre;" direction="ltr">Lack of Collaboration</text></g><g transform="translate(549.2581206570467 530.5694374433388) rotate(0 182.5 37.5)"><text x="0" y="18" font-family="Virgil, Segoe UI Emoji" font-size="20px" fill="#000000" text-anchor="start" style="white-space: pre;" direction="ltr">Data are often needed in multiple</text><text x="0" y="43" font-family="Virgil, Segoe UI Emoji" font-size="20px" fill="#000000" text-anchor="start" style="white-space: pre;" direction="ltr">departments of an organization, with</text><text x="0" y="68" font-family="Virgil, Segoe UI Emoji" font-size="20px" fill="#000000" text-anchor="start" style="white-space: pre;" direction="ltr">multiple ownerships and constraints</text></g><g transform="translate(550.5125963639148 617.2605534800332) rotate(0 188 37.5)"><text x="0" y="18" font-family="Virgil, Segoe UI Emoji" font-size="20px" fill="#000000" text-anchor="start" style="white-space: pre;" direction="ltr">In siloed organizations, people </text><text x="0" y="43" font-family="Virgil, Segoe UI Emoji" font-size="20px" fill="#000000" text-anchor="start" style="white-space: pre;" direction="ltr">responsible for different data assets</text><text x="0" y="68" font-family="Virgil, Segoe UI Emoji" font-size="20px" fill="#000000" text-anchor="start" style="white-space: pre;" direction="ltr">may not know each other</text></g><g transform="translate(528.0782070634305 525.5868048389111) rotate(0 6.5 18)"><text x="0" y="25" font-family="Virgil, Segoe UI Emoji" font-size="28px" fill="#000000" text-anchor="start" style="white-space: pre;" direction="ltr">-</text></g><g transform="translate(529.8464696003848 612.2352127620452) rotate(0 6.5 18)"><text x="0" y="25" font-family="Virgil, Segoe UI Emoji" font-size="28px" fill="#000000" text-anchor="start" style="white-space: pre;" direction="ltr">-</text></g><g transform="translate(529.7231556609722 693.5465455894555) rotate(0 6.5 18)"><text x="0" y="25" font-family="Virgil, Segoe UI Emoji" font-size="28px" fill="#000000" text-anchor="start" style="white-space: pre;" direction="ltr">-</text></g><g transform="translate(550.7756995190311 698.7145005509556) rotate(0 209.5 62.5)"><text x="0" y="18" font-family="Virgil, Segoe UI Emoji" font-size="20px" fill="#000000" text-anchor="start" style="white-space: pre;" direction="ltr">Different branches of one organizations</text><text x="0" y="43" font-family="Virgil, Segoe UI Emoji" font-size="20px" fill="#000000" text-anchor="start" style="white-space: pre;" direction="ltr">often have their own budgets, so</text><text x="0" y="68" font-family="Virgil, Segoe UI Emoji" font-size="20px" fill="#000000" text-anchor="start" style="white-space: pre;" direction="ltr">collaboration becomes complicated because</text><text x="0" y="93" font-family="Virgil, Segoe UI Emoji" font-size="20px" fill="#000000" text-anchor="start" style="white-space: pre;" direction="ltr">no side has an interest in spending their</text><text x="0" y="118" font-family="Virgil, Segoe UI Emoji" font-size="20px" fill="#000000" text-anchor="start" style="white-space: pre;" direction="ltr">budget to help the other branch</text></g><g transform="translate(989.8465101273796 490.78294631998506) rotate(0 151.5 12.5)"><text x="0" y="18" font-family="Virgil, Segoe UI Emoji" font-size="20px" fill="#1864ab" text-anchor="start" style="white-space: pre;" direction="ltr">Technically Infeasible Projects</text></g><g transform="translate(993.8902370931391 527.7333311260427) rotate(0 151.5 25)"><text x="0" y="18" font-family="Virgil, Segoe UI Emoji" font-size="20px" fill="#000000" text-anchor="start" style="white-space: pre;" direction="ltr">Goals too ambitious to try to</text><text x="0" y="43" font-family="Virgil, Segoe UI Emoji" font-size="20px" fill="#000000" text-anchor="start" style="white-space: pre;" direction="ltr">"recoup the investment" </text></g><g transform="translate(995.7062235048816 592.7533890890536) rotate(0 155 62.5)"><text x="0" y="18" font-family="Virgil, Segoe UI Emoji" font-size="20px" fill="#000000" text-anchor="start" style="white-space: pre;" direction="ltr">This results in very large-scale</text><text x="0" y="43" font-family="Virgil, Segoe UI Emoji" font-size="20px" fill="#000000" text-anchor="start" style="white-space: pre;" direction="ltr">projects, involving collaboration</text><text x="0" y="68" font-family="Virgil, Segoe UI Emoji" font-size="20px" fill="#000000" text-anchor="start" style="white-space: pre;" direction="ltr">between multiple teams, </text><text x="0" y="93" font-family="Virgil, Segoe UI Emoji" font-size="20px" fill="#000000" text-anchor="start" style="white-space: pre;" direction="ltr">departments, and third-parties,</text><text x="0" y="118" font-family="Virgil, Segoe UI Emoji" font-size="20px" fill="#000000" text-anchor="start" style="white-space: pre;" direction="ltr">and push them to their limits!</text></g><g transform="translate(970.7103234995229 522.750698521615) rotate(0 6.5 18)"><text x="0" y="25" font-family="Virgil, Segoe UI Emoji" font-size="28px" fill="#000000" text-anchor="start" style="white-space: pre;" direction="ltr">-</text></g><g transform="translate(973.0400967413534 587.7280483710656) rotate(0 6.5 18)"><text x="0" y="25" font-family="Virgil, Segoe UI Emoji" font-size="28px" fill="#000000" text-anchor="start" style="white-space: pre;" direction="ltr">-</text></g><g transform="translate(134.1800170626566 713.068413354993) rotate(0 150.5 25)"><text x="150.5" y="18" font-family="Virgil, Segoe UI Emoji" font-size="20px" fill="#1864ab" text-anchor="middle" style="white-space: pre;" direction="ltr">Lack of Alignment between </text><text x="150.5" y="43" font-family="Virgil, Segoe UI Emoji" font-size="20px" fill="#1864ab" text-anchor="middle" style="white-space: pre;" direction="ltr">Technical and Business Teams</text></g><g transform="translate(100.88082950195349 774.3989033099806) rotate(0 198 25)"><text x="0" y="18" font-family="Virgil, Segoe UI Emoji" font-size="20px" fill="#000000" text-anchor="start" style="white-space: pre;" direction="ltr">In many ML projects the technical team</text><text x="0" y="43" font-family="Virgil, Segoe UI Emoji" font-size="20px" fill="#000000" text-anchor="start" style="white-space: pre;" direction="ltr">does not understand the business goals</text></g><g transform="translate(81.29114534873042 768.9826754545556) rotate(0 6.5 18)"><text x="0" y="25" font-family="Virgil, Segoe UI Emoji" font-size="28px" fill="#000000" text-anchor="start" style="white-space: pre;" direction="ltr">-</text></g><g transform="translate(99.41693632498027 836.047160322818) rotate(0 221 87.5)"><text x="0" y="18" font-family="Virgil, Segoe UI Emoji" font-size="20px" fill="#000000" text-anchor="start" style="white-space: pre;" direction="ltr">Without continuous feedback from the </text><text x="0" y="43" font-family="Virgil, Segoe UI Emoji" font-size="20px" fill="#000000" text-anchor="start" style="white-space: pre;" direction="ltr">business on the achievement of a business</text><text x="0" y="68" font-family="Virgil, Segoe UI Emoji" font-size="20px" fill="#000000" text-anchor="start" style="white-space: pre;" direction="ltr">objective, the scientists often reach an</text><text x="0" y="93" font-family="Virgil, Segoe UI Emoji" font-size="20px" fill="#000000" text-anchor="start" style="white-space: pre;" direction="ltr">initial level of model performance (following</text><text x="0" y="118" font-family="Virgil, Segoe UI Emoji" font-size="20px" fill="#000000" text-anchor="start" style="white-space: pre;" direction="ltr">technical objectives), and then they are not</text><text x="0" y="143" font-family="Virgil, Segoe UI Emoji" font-size="20px" fill="#000000" text-anchor="start" style="white-space: pre;" direction="ltr">sure if they are making any useful progress</text><text x="0" y="168" font-family="Virgil, Segoe UI Emoji" font-size="20px" fill="#000000" text-anchor="start" style="white-space: pre;" direction="ltr">and whether an additional effort is worth it</text></g><g transform="translate(79.82725217175721 830.6309324673894) rotate(0 6.5 18)"><text x="0" y="25" font-family="Virgil, Segoe UI Emoji" font-size="28px" fill="#000000" text-anchor="start" style="white-space: pre;" direction="ltr">-</text></g></svg>