<svg version="1.1" xmlns="http://www.w3.org/2000/svg" viewBox="0 0 1374.8385409262773 569.4407543758753" width="4124.515622778832" height="1708.3222631276258">
  <!-- svg-source:excalidraw -->
  
  <defs>
    <style class="style-fonts">
      @font-face {
        font-family: "Virgil";
        src: url("https://excalidraw.com/Virgil.woff2");
      }
      @font-face {
        font-family: "Cascadia";
        src: url("https://excalidraw.com/Cascadia.woff2");
      }
    </style>
  </defs>
  <rect x="0" y="0" width="1374.8385409262773" height="569.4407543758753" fill="#ffffff"></rect><g stroke-linecap="round" transform="translate(10 10) rotate(0 232 23)"><path d="M0 0 C0 0, 0 0, 0 0 M0 0 C0 0, 0 0, 0 0 M1.23 4.94 C0.36 3.11, 4.01 3.05, 5.68 -1.18 M-0.02 6.75 C1.03 3.36, 4.32 1.98, 4.23 0.3 M-1.05 9.76 C6.72 7.96, 6.14 0.49, 12.23 -1.45 M-0.77 12.07 C2.69 10.07, 5.52 7.19, 11.64 1.46 M-1.3 21.99 C6.92 13.5, 12.12 5.01, 15.73 -1.22 M-2.06 19.71 C4.22 13.12, 10.36 5.18, 15.78 0.84 M2.2 26.75 C7.12 18.12, 17.7 10.84, 18.93 -0.54 M0.47 24.99 C6.4 17.61, 16.24 7.82, 20.21 0.93 M3.26 30.88 C7.35 21.35, 9.33 16.63, 25.37 -1.54 M0.03 29.57 C7.46 17.81, 18.83 9.41, 24.43 -0.97 M2.79 39.52 C10.89 22.14, 20.12 12.71, 34.44 -1.77 M-0.59 36 C8.68 27.38, 20.08 15, 33.29 -1.41 M-2.66 39.08 C11.08 26.18, 27.95 8.11, 35.26 0.76 M-0.6 41.41 C12.82 26.27, 28.13 7.92, 38.65 -0.98 M1.17 51.21 C10.46 35.17, 30.44 16.39, 42.72 -1.23 M0.77 45.6 C16.01 33.26, 28.22 14.94, 43.24 1.03 M9.58 44.8 C21.84 31.18, 30.88 22.98, 50.91 3.01 M7.47 45.15 C20.39 32.05, 28.95 22.48, 46.05 0.02 M8.57 44.34 C24.1 32.18, 36.54 24.26, 53.21 1.48 M12.16 47.91 C20.02 36.53, 28.45 27.8, 54.21 -0.58 M21.29 44.98 C28.75 39.21, 35.45 23.61, 59.7 2.69 M18.54 46.22 C28.12 32.92, 40.71 17.11, 56.35 0.14 M25.67 44.44 C37.73 31.67, 51.9 15.42, 61.24 2.89 M22.84 46.88 C35.9 33, 48.86 19.53, 62.46 -2.14 M30.36 50.16 C37.34 30.72, 46.22 19.33, 70.89 -2.62 M29.66 48.49 C36.24 37.31, 45.65 29.18, 69.3 0.46 M36.25 50.61 C48.98 35.28, 54.5 16.97, 71.99 3.66 M33.33 46.83 C44.36 36.23, 51.33 26.06, 76.26 1.37 M40.47 46.5 C53.64 32.58, 66.7 13.49, 75.61 0.78 M37.86 48.25 C51.02 31.22, 62.84 15.11, 78.73 0.98 M45.92 46.06 C55.42 32.17, 66.65 21.86, 84.54 0.54 M42.21 47.02 C52.77 37.38, 61 28.88, 83.98 -0.06 M49.2 48.27 C64.61 30.04, 73.52 14.99, 86.86 2.75 M48.25 46.72 C62.84 30.37, 74.8 18.29, 88.53 0.63 M58.19 46.12 C71.79 27.29, 83.97 10.74, 91.84 2.46 M54.1 45.62 C66.04 33.14, 76.09 21.09, 94.03 0.46 M55.99 49.86 C69.65 32.52, 87.97 16.05, 99.52 1.24 M58.01 46.05 C69.33 36.2, 79.5 24.9, 100.64 1.29 M66.45 50.26 C74.22 38.12, 83.06 23.61, 104.69 -1.58 M63.71 47.78 C76.85 32.94, 86.38 21.01, 106.9 -1.21 M69.5 50.57 C76.18 35.4, 83.53 27.26, 114.35 2.34 M71.7 46.11 C87.11 31.19, 102.19 12.36, 111.09 -0.21 M77.95 50.06 C87.02 36.39, 101.7 20.78, 119.13 -1.66 M75.81 45.55 C89.84 35.04, 101.5 19.08, 114.47 0.46 M78.24 43.53 C91.76 35.75, 105.81 19.08, 121.99 -3.73 M79.94 49.41 C94.07 32.67, 107.95 19.03, 121.94 -0.13 M89.82 45.25 C101.64 34.31, 108.45 20.25, 127.05 -2.01 M85.21 45.94 C100.31 27.47, 118.1 11.35, 126.67 1.69 M94.62 44.27 C104.58 30.31, 125.11 12.64, 134.93 -2.64 M91.42 45.69 C102.34 34.78, 113.28 22.91, 133.33 0.22 M97.07 43.64 C114.8 35.25, 121.23 16.7, 136.23 -0.49 M96.81 46.89 C106.15 34.52, 118.57 24.64, 139.5 1.88 M101.59 47.69 C112.07 36.16, 128.99 24.69, 139.56 -3.93 M103.56 48.84 C115.16 35.37, 125.25 19.15, 143.47 -1.52 M108.58 45.22 C119.21 34.19, 126.06 25.44, 149 0.43 M105.56 45.27 C118.32 38.35, 126.8 27.81, 149.7 0.65 M115.95 44.82 C124.68 30.54, 142.87 12.26, 152.13 -1.01 M113.85 45.72 C124.79 34.01, 135.67 21.89, 152.62 -0.8 M115.1 50.07 C130.97 28.15, 152.78 8.98, 161.54 2.41 M116.46 48.91 C129.28 32.78, 143.88 19.24, 158.05 -1.49 M124.41 46.81 C136.59 31.93, 143.06 18.74, 162.78 -3.16 M123.82 48.12 C136.47 30.85, 153.51 12.13, 163.09 -2.11 M129.26 50.39 C143.38 26.09, 164.14 13.71, 171.92 3.21 M128.6 48.55 C143.08 32.02, 158.21 11.55, 169.43 0.95 M131.53 44.93 C145.13 34.98, 149.85 27.75, 175.51 -3.55 M135.09 48.74 C149.95 30.9, 161.66 14.52, 175.28 0.99 M137.58 46.53 C147.68 35.67, 157.07 31.19, 180.09 -3.26 M139.1 45.89 C153.79 31.98, 164.16 18.19, 180.74 -1.63 M143.76 50.58 C159.9 35.75, 171.76 16.96, 184.19 -3.21 M145.32 49.26 C158.16 31.52, 168.39 16.29, 187.65 -2.12 M148.43 46.95 C160.58 31.58, 174.52 19.8, 187.86 -2.97 M151.18 45.55 C159.87 37.49, 164.48 28.65, 188.97 2.12 M153.42 47.3 C164.81 35.12, 175.4 26.94, 196.6 -3.06 M156.25 48.27 C165.04 35.47, 180.93 17.88, 196.69 0.88 M160.06 44.24 C176.3 29.11, 192.55 11.8, 198.93 -1.78 M162.1 47.1 C173.28 32.59, 187.39 14.72, 203.16 0.49 M162.69 46.72 C177.06 27.54, 193.4 15.94, 210.35 -3.89 M165.67 45.3 C177.29 32.6, 188.92 20.08, 204.99 1.23 M168.62 47.12 C188.4 29.31, 206.8 11.73, 210.87 -1.4 M171.17 45.04 C181.81 36.53, 192.37 24.04, 212.42 -1.32 M175.65 48.62 C181.12 37.64, 192.9 25.5, 220.96 1.65 M175.43 48.82 C192.71 30.3, 209.31 11.49, 217.19 1.12 M184.09 48.41 C190.11 41.28, 200.72 27.99, 223.11 0.55 M183.79 48.81 C193.56 33.3, 203.6 19.99, 221.92 -1.12 M190.24 48.92 C199.47 29.58, 212.37 21.75, 229.8 -2.98 M187.46 48.25 C199.49 33.4, 212.61 18.45, 227.98 -2.31 M189.72 49.84 C205.87 27.11, 225.72 13.52, 236.99 2.61 M190.75 47.55 C205.54 28.41, 221.97 14.39, 232.88 0.16 M198.28 47.62 C207.72 40.74, 218.2 26.88, 235.48 -1.44 M195.73 45.93 C209.07 34.86, 221.09 18.89, 237.47 -0.24 M200.56 50.98 C220.8 29.57, 232.68 13.37, 247.69 -0.58 M202.88 47.06 C212.23 37.03, 224.89 22.14, 242.61 -1.44 M209.46 48.88 C217.42 36.4, 230.17 25.04, 252.43 -3.52 M206.29 45.14 C218.29 35.11, 230.41 20.3, 249.8 0.82 M211.6 45.81 C230.21 34.3, 243.81 14.47, 252.27 -2.23 M215.09 46.35 C227.23 31.12, 242.13 14.19, 256.45 -0.93 M219.35 44.98 C229.29 37.9, 240.39 28.47, 259.01 -0.65 M217.25 46.11 C236.21 29.4, 251.97 12.12, 261.2 -0.44 M224.33 43.65 C235.38 39.01, 243.12 29.32, 265.69 0.54 M225.02 46.6 C237.66 28.34, 255.79 12.47, 263.83 -0.43 M233.39 48.31 C237.63 36.28, 243.05 24.69, 272.1 -0.84 M230.77 46 C240.82 32.4, 253.79 18.81, 270.63 0.86 M238.14 45.98 C249.62 33.48, 263.21 23.34, 272.76 -1.22 M236.38 47.95 C248.81 31.09, 266.47 9.15, 274.24 -1.07 M242.91 43.41 C248.51 35.21, 260.2 22.38, 282.45 3.99 M241.09 46.9 C249.28 37.46, 259.36 23.28, 279.08 0.53 M242.28 46.39 C262.98 32.82, 276.82 11.64, 284.18 3.62 M246.92 45.47 C253.83 36.7, 262.17 25.39, 285.2 0.93 M249.09 50.92 C269.22 25.64, 283.29 8.67, 294.7 -1.96 M250.5 47.84 C263.72 32.5, 276.93 16.15, 289.65 1.34 M255.89 46.57 C265.44 34.71, 276.99 18.25, 296.51 -1.65 M256.48 49.15 C270.69 30.15, 288.58 8.46, 298.34 -1.72 M263 47.62 C274.82 37.87, 279.33 21.29, 303.35 -2.34 M261.36 48.81 C276.77 28.45, 288.87 13.57, 303.46 0.97 M263.97 48.38 C278.5 39.82, 284.67 24.54, 308.2 2.36 M266.93 47.94 C275.47 33.96, 287.71 24.77, 307.31 0.66 M273.59 46.41 C281.48 35.75, 289.03 26.64, 308.78 3.32 M272.08 46.7 C282.3 34.55, 294.86 20.49, 311.71 0.05 M273.4 45.78 C287.53 26.56, 304.82 17.47, 319.56 -0.83 M278.23 45.7 C285.83 35.26, 296.53 24.81, 317.85 -1.36 M279.68 48.31 C287.92 32.41, 303.59 26.27, 325.25 -0.41 M281.15 47.36 C295.23 30.99, 311.63 15.2, 323.68 -1.86 M288.94 48.84 C300.62 27.5, 320.71 13.02, 332.79 0.45 M288.39 45.27 C300.69 30.32, 312.58 15.74, 327.76 -0.23 M289.95 50.47 C300.9 35.96, 314.3 25.25, 332.88 3.19 M295.12 45.58 C302.91 33.58, 315.87 19.53, 334.68 1.74 M297.22 43.8 C309.77 33.51, 319.94 27.8, 335.96 -2.04 M297.49 48.39 C308.37 32.96, 322.31 20.32, 338.89 0.53 M306.33 46.93 C313.77 34.37, 323.39 23.51, 341.69 -1.04 M303.92 45.84 C313.39 36.4, 325.31 22.47, 346.1 0.31 M306.74 48.97 C318.79 34.38, 338.31 14.47, 350.35 4.37 M307.67 47.76 C325.83 28.54, 341.17 9.14, 348.5 -0.94 M310.56 49.57 C329.65 31.39, 350.71 12.35, 351.55 3.87 M315.55 47.28 C325.11 35.16, 331.33 24.4, 353.4 -1.79 M315.89 50.84 C337.06 31.62, 349.2 17.02, 361.09 2.17 M319.12 46.99 C333.87 30.73, 348.25 17.2, 359.89 0.22 M324.31 44.68 C338.35 35.56, 354.67 14.97, 368.23 2.99 M324.07 48.26 C336.03 33.97, 345.26 25.27, 366.07 -1.24 M328.92 43.98 C339.03 32.21, 350.9 23.89, 369.23 4.29 M330.1 48.66 C340.88 36.01, 350.01 23.32, 370.44 0.04 M331.78 45.9 C353.39 27.83, 366.31 13.74, 379.34 -2.45 M336.29 47.31 C349.45 29.59, 363.58 13.62, 375.71 0.21 M339.96 47.1 C352.78 35.11, 367.72 17.83, 378.32 3 M340.95 46.26 C353.3 34.81, 362.96 20.54, 382.26 -1.26 M343.02 47.01 C354.34 28.9, 366.23 18.38, 386.41 -3.13 M347.05 47.9 C361.11 29.95, 374.57 12.01, 387.95 -0.24 M349.02 47.05 C368.29 32.64, 373.91 20.13, 393.83 2.69 M350.05 48.25 C365.47 29.22, 379.18 15.4, 393.53 1.48 M353.99 45.92 C367.51 29.13, 382.21 13.88, 396.8 2.43 M355.28 46.44 C365.99 37.94, 373.99 28.2, 398.49 1.53 M361.98 46.79 C374.75 33.03, 387.03 15.88, 399.05 3.89 M361.85 45.99 C371.45 33.99, 382.36 23.59, 402.46 -1.64 M370.5 44.64 C375.56 33.11, 390.21 17.56, 407.78 -0.18 M367.96 48.27 C380.75 32.26, 391.72 18.48, 409.08 0.58 M374.59 49.41 C388.76 34.89, 400.2 16.37, 411.19 3.26 M370.86 45.81 C387.82 29.22, 402.93 14.57, 411.36 0.4 M376.25 49.33 C390.02 32.77, 403.5 23.68, 422.47 -1.27 M376.14 47.69 C391.8 28.13, 406.26 13.52, 419.56 -1.07 M380.48 50.12 C390.9 38.36, 398.6 22.28, 425.31 1.56 M381.66 44.95 C400.39 30.11, 416 9.45, 422.58 -0.4 M388.8 46.26 C400.75 29.44, 421.75 12.49, 425.88 1.02 M386.91 47.91 C400.63 35.07, 411.42 20.52, 427.82 1.51 M395.17 44.25 C402.9 32.59, 412.87 25.82, 438.35 3.7 M392.88 47.6 C402.86 35.2, 412.5 23.81, 434.55 0.84 M395.59 49.84 C415.74 32.3, 430.44 14.23, 440.89 0.65 M399.45 49.1 C406.31 37.94, 414.8 28.28, 441.8 0.19 M408.03 43.27 C420.19 28.87, 435.33 14.52, 449.15 2.71 M405.24 44.9 C417.57 31.59, 428.3 18.2, 445.73 1.98 M409.96 46.58 C418.09 37.9, 430.7 28.05, 448.27 -0.3 M408.99 48.34 C426.57 31.03, 442.53 10.83, 451.51 -2.2 M414.32 50.77 C431.64 31.74, 439.72 14.4, 458.38 3.72 M413.48 46.91 C428.07 31.89, 439.88 19.26, 454.69 1.81 M423.08 51.14 C437.6 26.79, 446.91 10.75, 458.63 0.38 M418.83 47.68 C433.24 35.55, 441.79 22.89, 461.04 0.09 M422.51 47.22 C438.8 36.04, 456.64 19.14, 467.31 1.54 M425.78 47.39 C433.25 35.33, 442.89 27.51, 466.7 1.55 M428.03 50.3 C435.98 39.92, 448.77 27.83, 465.92 4.59 M432.31 46.08 C442.16 32.38, 454.59 17.9, 465.96 7.29 M432.92 50.94 C447.41 33.3, 457.43 20.32, 464.5 10.62 M434.33 48.76 C443.34 38.6, 453.56 26.05, 464.57 14.92 M443.75 50.95 C450.91 34.88, 458.97 29.7, 463.15 19.76 M440.86 47.46 C449.34 40.83, 451.43 32.43, 465.09 20.01 M449.78 50.65 C452.83 44.77, 457.47 32.44, 465.46 21.9 M447.44 46.66 C454.58 40.05, 459.48 32.15, 464.21 24.95 M451.05 48.11 C459.28 44.3, 462.93 39.76, 465.86 28.7 M451.97 48.66 C455 41.29, 457.88 40.94, 463.97 33.05 M458.84 49.39 C461.32 41.78, 465.21 41.9, 463.48 39.86 M456.41 47.1 C458.27 45.86, 462.57 42.2, 464.8 37.98 M463.02 47.42 C464.05 46.22, 464.08 44.68, 464.49 43.34 M462.32 47.12 C463.46 46.01, 463.9 45.23, 465.04 43.7" stroke="#228be6" stroke-width="0.5" fill="none"></path><path d="M0.57 0.98 C182.02 0.23, 366.02 2.59, 463.38 -0.72 M-0.3 -0.69 C145.64 0.65, 292.46 1.46, 464.28 -0.12 M466.13 -3.07 C467.39 10.6, 466.35 29.89, 461.69 49.54 M464.3 -0.99 C461.76 11.68, 462.14 21.39, 465.95 46.87 M462.9 45.67 C288.93 47.79, 112.81 47.83, 0.63 45.84 M463.82 45.54 C338.95 43.94, 216.28 44.49, 0.02 45.59 M-0.35 43.28 C-3.55 28.8, -3.77 21.21, 2.22 2.16 M-1.09 44.36 C1.54 32.34, 0.04 18.93, 0.52 -0.57" stroke="#000000" stroke-width="1" fill="none"></path></g><g transform="translate(33.5 15) rotate(0 208.5 18)"><text x="208.5" y="25" font-family="Virgil, Segoe UI Emoji" font-size="28px" fill="#000000" text-anchor="middle" style="white-space: pre;" direction="ltr">Documentation and Metadata</text></g><g stroke-linecap="round" transform="translate(12.18701465306367 56.08894938818412) rotate(0 676.3257631366068 251.67590249384557)"><path d="M-0.08 -0.64 C352.46 -2.5, 703.26 -3.19, 1352.77 -0.72 M1352.05 -0.52 C1351.83 136.41, 1352.25 272.37, 1352.51 503.42 M1353.31 502.88 C918.64 499.99, 483.25 499.91, -0.66 503.03 M-0.75 504.02 C-0.9 363.3, 0.48 222.47, 0.62 -0.11" stroke="#000000" stroke-width="1.5" fill="none" stroke-dasharray="8 9"></path></g><g transform="translate(52.246038582168694 98.14512470751652) rotate(0 417 12.5)"><text x="0" y="18" font-family="Virgil, Segoe UI Emoji" font-size="20px" fill="#000000" text-anchor="start" style="white-space: pre;" direction="ltr">Documentation has to accompany any data asset that was used to train a model.</text></g><g stroke-linecap="round"><g transform="translate(200.56569491580194 122.65820520155921) rotate(0 174.4089375087051 0.3273734792846881)"><path d="M1.13 0.63 C122.77 1.29, 246.62 0.6, 348.44 -0.49 M-0.14 0.14 C78.78 1.39, 157.03 1.51, 348.96 0.28" stroke="#e67700" stroke-width="2" fill="none"></path></g></g><mask></mask><g transform="translate(54.038714845526556 155.66486405319665) rotate(0 279.5 12.5)"><text x="0" y="18" font-family="Virgil, Segoe UI Emoji" font-size="20px" fill="#000000" text-anchor="start" style="white-space: pre;" direction="ltr">This documentation has to contain the following details:</text></g><g transform="translate(126.77647547162087 216.01784380017853) rotate(0 125.5 25)"><text x="0" y="18" font-family="Virgil, Segoe UI Emoji" font-size="20px" fill="#000000" text-anchor="start" style="white-space: pre;" direction="ltr">- What that data means</text><text x="0" y="43" font-family="Virgil, Segoe UI Emoji" font-size="20px" fill="#000000" text-anchor="start" style="white-space: pre;" direction="ltr"></text></g><g transform="translate(514.8447672930761 217.42083761023696) rotate(0 111.5 12.5)"><text x="0" y="18" font-family="Virgil, Segoe UI Emoji" font-size="20px" fill="#000000" text-anchor="start" style="white-space: pre;" direction="ltr">- How it was collected</text></g><g transform="translate(901.124952551394 214.9278386514161) rotate(0 136 25)"><text x="0" y="18" font-family="Virgil, Segoe UI Emoji" font-size="20px" fill="#000000" text-anchor="start" style="white-space: pre;" direction="ltr">- Which methods have been </text><text x="0" y="43" font-family="Virgil, Segoe UI Emoji" font-size="20px" fill="#000000" text-anchor="start" style="white-space: pre;" direction="ltr">  used to create it</text></g><g transform="translate(205.67489803898206 284.5033003040344) rotate(0 138.5 25)"><text x="0" y="18" font-family="Virgil, Segoe UI Emoji" font-size="20px" fill="#000000" text-anchor="start" style="white-space: pre;" direction="ltr">- The details of train, </text><text x="0" y="43" font-family="Virgil, Segoe UI Emoji" font-size="20px" fill="#000000" text-anchor="start" style="white-space: pre;" direction="ltr">  validation and test splits</text></g><g transform="translate(586.2779048425436 284.1368625824125) rotate(0 105.5 25)"><text x="0" y="18" font-family="Virgil, Segoe UI Emoji" font-size="20px" fill="#000000" text-anchor="start" style="white-space: pre;" direction="ltr">- Details of all the</text><text x="0" y="43" font-family="Virgil, Segoe UI Emoji" font-size="20px" fill="#000000" text-anchor="start" style="white-space: pre;" direction="ltr">  preprocessing steps</text></g><g transform="translate(969.6601423307948 288.4254060807616) rotate(0 131.5 25)"><text x="0" y="18" font-family="Virgil, Segoe UI Emoji" font-size="20px" fill="#000000" text-anchor="start" style="white-space: pre;" direction="ltr">- Explanation of any data</text><text x="0" y="43" font-family="Virgil, Segoe UI Emoji" font-size="20px" fill="#000000" text-anchor="start" style="white-space: pre;" direction="ltr">  that were ecluded</text></g><g transform="translate(98.90314644284263 379.13218309034346) rotate(0 129 25)"><text x="0" y="18" font-family="Virgil, Segoe UI Emoji" font-size="20px" fill="#000000" text-anchor="start" style="white-space: pre;" direction="ltr">- What format is used to</text><text x="0" y="43" font-family="Virgil, Segoe UI Emoji" font-size="20px" fill="#000000" text-anchor="start" style="white-space: pre;" direction="ltr">  store the data</text></g><g transform="translate(467.9491172582566 383.1463933056184) rotate(0 110.5 25)"><text x="0" y="18" font-family="Virgil, Segoe UI Emoji" font-size="20px" fill="#000000" text-anchor="start" style="white-space: pre;" direction="ltr">- Types of attributes</text><text x="0" y="43" font-family="Virgil, Segoe UI Emoji" font-size="20px" fill="#000000" text-anchor="start" style="white-space: pre;" direction="ltr">  or features</text></g><g transform="translate(811.9462473463936 378.1668347196619) rotate(0 127 25)"><text x="0" y="18" font-family="Virgil, Segoe UI Emoji" font-size="20px" fill="#000000" text-anchor="start" style="white-space: pre;" direction="ltr">- Values allowed for each</text><text x="0" y="43" font-family="Virgil, Segoe UI Emoji" font-size="20px" fill="#000000" text-anchor="start" style="white-space: pre;" direction="ltr">  attribute or feature</text></g><g transform="translate(217.1827544387852 474.52196907425514) rotate(0 106.5 12.5)"><text x="0" y="18" font-family="Virgil, Segoe UI Emoji" font-size="20px" fill="#000000" text-anchor="start" style="white-space: pre;" direction="ltr">- Number of examples</text></g><g transform="translate(591.4344710725127 477.99305166765043) rotate(0 137 12.5)"><text x="0" y="18" font-family="Virgil, Segoe UI Emoji" font-size="20px" fill="#000000" text-anchor="start" style="white-space: pre;" direction="ltr">- Possible values for labels</text></g><g transform="translate(953.4742560270497 464.82328067930484) rotate(0 103.5 25)"><text x="0" y="18" font-family="Virgil, Segoe UI Emoji" font-size="20px" fill="#000000" text-anchor="start" style="white-space: pre;" direction="ltr">- Allowable range for</text><text x="0" y="43" font-family="Virgil, Segoe UI Emoji" font-size="20px" fill="#000000" text-anchor="start" style="white-space: pre;" direction="ltr">  numerical targets</text></g></svg>