<svg version="1.1" xmlns="http://www.w3.org/2000/svg" viewBox="0 0 1376.5579667411657 2714.4385088370436" width="4129.673900223497" height="8143.315526511131">
  <!-- svg-source:excalidraw -->
  
  <defs>
    <style class="style-fonts">
      @font-face {
        font-family: "Virgil";
        src: url("https://excalidraw.com/Virgil.woff2");
      }
      @font-face {
        font-family: "Cascadia";
        src: url("https://excalidraw.com/Cascadia.woff2");
      }
    </style>
  </defs>
  <rect x="0" y="0" width="1376.5579667411657" height="2714.4385088370436" fill="#ffffff"></rect><g stroke-linecap="round" transform="translate(10 10) rotate(0 283 23)"><path d="M0 0 C0 0, 0 0, 0 0 M0 0 C0 0, 0 0, 0 0 M-1.34 6.07 C1.7 5.6, 3.31 2.33, 3.57 -1.15 M-0.96 5.64 C1.19 4.5, 3.34 1.42, 5.23 -0.4 M-2.82 9.97 C6.38 6.34, 8.39 7.62, 10.2 -0.7 M0.28 10.64 C1.96 7.38, 6.31 4.94, 11.93 -1 M-2.04 19.88 C4.48 14.62, 6.47 6.7, 17.77 -2.96 M0.1 19.47 C3.83 11.34, 10.11 5.73, 15.43 1.32 M-1.33 25.6 C1.3 20.28, 12.62 13.29, 23.37 -3.99 M-1.5 23.97 C7.77 15.81, 15.71 7.69, 20.51 -1.49 M-1.01 33.21 C8.2 26.33, 14.8 20.52, 28.59 4.1 M-0.77 29.21 C8.84 21.53, 14.69 14.69, 27.67 -0.14 M2.7 34.38 C11.83 27.65, 16.68 12.38, 30.68 -1.82 M-0.66 38.55 C12.83 21.63, 24.93 9.48, 31.37 -0.11 M2.51 44.62 C7.86 30.57, 21.29 18.63, 36.67 -1.55 M1.59 41.31 C13.59 27.41, 28.91 11.15, 37.35 1.82 M-1.09 44.49 C5.51 38.05, 15.81 22.97, 40.15 2.95 M-0.02 47.27 C14.9 34.69, 27.2 17.13, 42.17 1.33 M8.21 50.88 C15.92 36.67, 28.64 23.56, 51.5 -1.97 M6.61 47.15 C18.09 31.11, 30.52 20.46, 46.13 -1.68 M13 48.56 C23.07 31.54, 28.93 23.98, 50.66 -3.12 M12.81 45.45 C26.87 29.72, 44.08 10.57, 52.87 0.64 M21.33 48.58 C35.76 25.37, 49.89 6.99, 57.33 2.03 M19.13 48.06 C28.19 33.99, 36.42 22.7, 58.29 -0.13 M21.05 47.34 C40.3 35.33, 52.96 15.35, 59.81 -4.2 M24.41 46.64 C35.86 34.53, 44.54 24.39, 62.09 -0.98 M28.55 49.06 C38.76 32.88, 48.52 25.44, 69.16 -1.12 M29.3 46.26 C44.04 27.19, 58.43 11.07, 68.74 0.33 M31.04 44.28 C43.95 26.69, 66.32 9.35, 71.99 -3.23 M33.2 49.23 C47.75 31.83, 60.46 15.76, 75.03 1.01 M35.25 48.38 C49.58 38.57, 61.98 20.38, 76.72 -1.71 M37.84 46.8 C50.17 33.03, 61.57 17.14, 79.01 0.96 M41.73 48.07 C61.04 28.84, 77.14 9.95, 82.31 2.1 M44.22 46.96 C54.87 37.8, 63.78 26.85, 83.54 -1.44 M45.55 47.88 C60.99 31.64, 76.62 14.39, 92.51 -0.8 M48.11 46.13 C59.24 32.7, 70.28 19.41, 89.26 -1.62 M50.6 48.66 C67.19 31.04, 79.3 14.45, 92.64 3.37 M53.11 48.95 C65.18 37.4, 73.86 24.02, 94.1 -1.03 M62.31 46.1 C71.87 35.94, 82.12 19.96, 103.79 -2.21 M58.07 48.04 C68.04 37.61, 75.57 26.75, 102.28 0.58 M61.91 49.22 C74.11 33.16, 84.17 24.48, 103.61 -2.61 M66.16 47.71 C75.69 33.34, 89.3 19.94, 107.8 0.93 M70.51 47.62 C83.49 31.13, 100.35 12.24, 112.55 3.5 M71.66 48.49 C83.19 28.35, 97.53 11.73, 111.46 -1.06 M78.65 50.21 C83.83 38, 98.48 24.08, 113.94 2.98 M76.28 47.1 C89.41 32.75, 101.17 17.39, 115.7 -0.74 M79.82 44 C92.43 32.81, 112.8 9.03, 119.53 -0.96 M81.42 48.52 C96.05 32.58, 106.58 16.31, 120.85 0.21 M86.56 49.31 C103.27 26.58, 115.61 8.86, 123.04 1.95 M87.01 46.38 C102.28 31.35, 113.08 15, 125.46 1.88 M88.71 50.31 C102.15 28.83, 121.74 17.55, 132.23 -3.67 M92.53 46.82 C105.48 31.39, 116.54 16.44, 133.11 -1.49 M94.15 49.47 C106.43 38.49, 116.37 24.8, 135.15 -0.38 M96.49 48.16 C103.54 37.63, 111.88 27.76, 137.4 -1.65 M103.06 46.11 C119.11 33.4, 129.72 17.34, 140.9 -3.42 M101.46 48.7 C116.18 31.24, 125.36 20.56, 141.51 -0.67 M108.66 50.88 C114.95 32.35, 127.37 23.83, 145.87 -2.2 M105.53 46.44 C118.85 31.26, 128.18 18.97, 147.12 0.87 M111.48 48.23 C126.2 28.17, 136.84 14.66, 150.52 -1.79 M111.32 46.86 C129.59 30.18, 142.72 12.7, 153.96 -0.44 M120.08 50.97 C135.76 24.38, 149.18 8.08, 157.59 3.57 M117.51 46.61 C131.73 29.07, 144.8 14.66, 156.82 0.99 M125.34 46.73 C140.2 26.2, 158.27 10.45, 164.86 -3.06 M123.82 49.34 C132.43 33.45, 145.73 24.58, 165.01 -0.56 M125.17 44.45 C140.7 27.35, 160.64 10.1, 171.42 -2.77 M130.48 45.4 C141.73 30.01, 155.38 15.04, 171.37 1.65 M130.77 44.92 C144.39 35.32, 156.85 19.67, 178.4 1.68 M135.3 47.59 C142.17 35.82, 149.78 26.43, 175.8 -1.42 M135.41 47.25 C153.49 36.03, 157.75 22.36, 179.23 -3.64 M141.1 46.93 C152.88 34.38, 164.99 17.81, 178.22 1.16 M144.64 43.38 C162.62 34.1, 173.64 12.31, 184.39 2.64 M144.75 48.42 C154.23 33.07, 166.64 20.42, 186.11 0 M153.06 48.56 C160.98 30.67, 177.19 15.22, 187.65 -0.23 M148.64 46.72 C166.72 29.93, 182.88 9.57, 191.48 1.21 M158.56 47.91 C164.49 38.89, 176.11 18.39, 198.83 3.27 M153.74 46 C165.54 37.93, 176.04 24.74, 194.37 -1.94 M163.1 50.83 C173.1 31.85, 187.47 14.71, 202.05 3.52 M159.02 47.62 C179.14 26.88, 191.28 10.21, 199.87 -1.15 M162.92 45.58 C178.69 28.92, 196.77 13.56, 204.46 -3.76 M166.51 45.91 C177.85 34.88, 185.76 19.75, 205.6 -1.48 M173.29 45.74 C185.09 34.46, 187.89 21.68, 210.54 0.94 M172.77 47.89 C184.2 32.82, 197.42 17.09, 210.72 -1.48 M178.82 44.72 C191.5 25.9, 206.36 14.24, 214.78 3.5 M177.9 49.08 C190.42 31.74, 203.55 16.17, 219.45 -1.52 M182.12 46.24 C194.29 30.07, 209.34 18.13, 223.99 -1.41 M181.05 45.16 C195.67 31.78, 211.14 12.13, 222.02 0.03 M186.14 50.88 C199.78 30.4, 215.58 17.47, 226.03 -3.76 M185.39 47.81 C202.61 32.75, 215.96 14.61, 230.22 -1.54 M194.19 47.28 C207.59 28.59, 217.26 11.46, 236.04 0.29 M192.98 49.16 C203.21 37.84, 212.74 27.28, 234.36 -1.43 M195.51 50.89 C208.48 37.8, 216.52 25.07, 240.56 -0.34 M197.05 45.8 C210.13 32.35, 224.63 18.12, 238.15 -0.92 M198.79 46.78 C213.59 33.77, 219.54 28.25, 247.05 -0.9 M202.28 46.78 C214.03 36.32, 226.8 23.63, 242.96 0.69 M208.29 44.81 C219.85 28.28, 236.4 8.9, 245.42 1.95 M207.63 46.1 C224.72 29.37, 238.58 10.9, 248.09 2.08 M214.03 50.19 C220.45 37.53, 234.05 18.66, 256.14 1.34 M211.34 46.5 C227.76 32.49, 241.23 13.9, 253.66 0.34 M216.6 45.95 C229.08 35.75, 235.58 26.56, 256.46 -1.22 M218.46 47.15 C232.06 34.62, 242.71 20.7, 257.54 -1.17 M225.39 43.46 C240.41 30.44, 255.17 10.04, 261.18 2.58 M221.81 47.45 C234.47 32.21, 248.8 17.15, 266.93 -1.17 M227.32 48.89 C242.59 30.48, 255.72 20.19, 272.91 -1.63 M229.51 46.76 C239.82 33.87, 251.12 20.74, 271.29 -0.66 M233.12 49.77 C248.02 28.43, 260.72 10.38, 274.79 3.63 M233.97 48.14 C248.61 27.48, 265.97 9.04, 273.88 0.83 M238.07 45.43 C254.64 24.63, 275.16 13.1, 276.78 -1.85 M239.38 46.12 C251.91 36.12, 260.73 22.29, 280.74 0.98 M244.22 49.57 C256.47 37.24, 264.85 17.69, 284.35 2.55 M246.73 46.43 C260.41 32.07, 275.1 11.52, 288.22 -1.59 M253.21 48.66 C259.99 37.86, 269.92 31.32, 288.81 0.8 M249.29 45.78 C266.37 30.09, 281.5 12.42, 291.93 0.49 M256.44 44.54 C273.5 25.47, 289.73 10.66, 299.98 2.67 M257.63 47.58 C270.41 30.56, 288.13 11.79, 298.29 -0.99 M259.87 44.87 C271.83 37.31, 280.18 22.15, 304.5 -1.72 M263.09 45.68 C274.72 34.69, 283.28 20.58, 301.51 2 M266.27 49.64 C276.39 31.36, 291.38 21.36, 306.54 -3.44 M266.82 48.2 C282.98 27.78, 299.24 12.34, 307.07 1.43 M275.92 49.64 C279.4 32.07, 295 22.13, 310.09 3.77 M271.24 45.14 C285.25 33.09, 295.86 17.87, 312.77 1 M276.95 45.04 C289.58 35.21, 303.21 13.2, 319.66 -1.98 M277.08 48.29 C286.56 36.07, 297.45 24.6, 320.16 -0.14 M285.99 43.79 C298.64 26.32, 311.58 7.38, 322.58 3.72 M282.85 46.84 C292 38.65, 297.2 29.76, 323.61 0.38 M290.49 48.19 C296.97 34.43, 306.74 20.94, 329.71 2.12 M285.83 47.23 C296.12 33.83, 309.48 20.58, 329.77 -0.13 M289.43 45.38 C305.15 27.97, 315.75 19.7, 333.71 -2.19 M293.62 48.83 C301.13 35.83, 312.41 27.59, 334.58 -1.62 M299.62 49.79 C309.7 29.15, 324.41 18.34, 341.81 1.19 M297.1 47.76 C309.98 34.93, 319.63 24.23, 338.75 -1.62 M299.72 46.48 C314.97 34.48, 323.5 25.4, 341.99 -1 M301.26 49.31 C316.46 32.98, 327.06 17.13, 344.82 0.61 M311.85 45.78 C326.2 28.76, 338.57 9.5, 351.17 1.54 M309.54 48.01 C321.15 29, 337.86 14.01, 347.92 0.47 M315.05 50.15 C319.78 39.27, 331.23 22.48, 352.66 1.46 M312.05 47.58 C329.02 29, 348.09 12.81, 356.12 0.08 M317.42 45.34 C336.24 34.81, 344.91 16.98, 361.73 -3.52 M320.44 45.47 C330.09 35.33, 340.31 23.14, 358.68 0.3 M322.36 50.96 C338.07 25.76, 351.94 9.54, 369.71 -3.36 M324.92 48.59 C338.72 27.26, 354.48 10.52, 364.89 1.17 M329.33 46.91 C345.22 35.17, 351.54 18.95, 374.21 2.82 M329.71 49.03 C344.2 30.37, 361.02 13.15, 369.09 1.7 M332.05 47.97 C348.68 35.3, 355.31 25.64, 379.89 -2.77 M334.09 47.88 C347.83 31.84, 362.4 14.99, 378.16 -0.38 M343.32 46.2 C353.09 27.99, 366.56 14.81, 380.72 1.9 M339.88 46.92 C351.87 35.02, 365.23 22.12, 380.51 -0.9 M345.22 45.51 C363.76 29.12, 374.89 17.44, 384.69 -2.82 M344.42 48.4 C360.99 32.63, 373.12 18.23, 385.59 -1.46 M353.89 44.14 C362.07 33.04, 381.38 14.18, 388.13 -3.74 M352.11 46.77 C360.27 33.09, 372.24 23.05, 392.9 -1.69 M353.75 45.14 C370.82 31.6, 383.65 12.04, 400.37 3.67 M355.37 48.45 C372.64 32.62, 384.39 14.88, 399.47 0.45 M362.28 46.91 C372.62 36.16, 382.99 18.6, 402.07 1.74 M362.18 47.57 C372.56 30.85, 387.91 18.24, 400.86 0.51 M364.26 45.68 C375.79 39.52, 386.69 25.21, 409.92 -2.86 M365.04 45.73 C383.41 29.6, 394.87 11.8, 406.69 -0.78 M376.5 49.97 C381.57 37.21, 392.12 29.48, 410.91 -0.61 M372.5 47.71 C383.65 35.38, 396.46 21.61, 413.61 -1.72 M374.12 51.19 C387.86 33.37, 398.03 24.69, 419.08 3.3 M378.14 49.29 C389.81 32.81, 405.81 16.84, 420.8 0.09 M379.28 46.01 C396.28 30.97, 413.34 13.03, 425.77 -0.47 M384.1 44.93 C396.82 30.53, 409.48 14.59, 423 -0.47 M387.45 46.98 C403.46 36.11, 415.6 18.95, 432.35 -2.93 M390.03 47.57 C404.71 28.74, 417.78 11.07, 429.96 -0.32 M392.13 48.96 C405.8 34.84, 421.72 21.33, 432.52 1.73 M392.64 48.35 C405.1 35.19, 414.77 25.83, 435.49 -0.42 M399.13 47.64 C411.72 28.62, 427.44 16.15, 436.98 -1.35 M398.68 48.38 C414.68 31.22, 427.53 13.88, 440.94 -2.01 M403.29 46.02 C414.39 36.28, 429.26 18.36, 447.77 2.81 M404.41 46.47 C416.17 32.38, 425.9 21.52, 444.19 1.13 M410.77 48.96 C421.96 32.87, 430.91 20.81, 450.96 1.49 M408.67 46.9 C424.76 31.35, 437.21 13.9, 451.15 -1.6 M415.75 45.62 C427.98 33.04, 446.74 14.91, 454.91 -3.17 M416.31 47.16 C431.19 29.84, 444.37 12.71, 456.8 -1.78 M422.74 44.02 C434.16 30.53, 443.74 21.41, 459.04 -3.73 M419.24 45.7 C435.68 29.33, 451.4 14.37, 460.64 -0.34 M422.61 46.23 C440.21 30.64, 453.87 17.94, 468.06 -0.9 M423.22 46.42 C443.01 27.96, 458.41 12.31, 467.69 0.29 M434.17 47.14 C440.01 36.25, 447.87 29.84, 468.06 3.69 M432.22 46.71 C440.07 36.85, 444.85 29.16, 471.39 0.63 M433.68 49.25 C451.21 36.33, 465.94 19.89, 476.07 -1.8 M436.61 49.38 C448.06 32.78, 461.81 19.89, 477.81 0.16 M442.93 45.88 C452.59 36.85, 460.92 20.5, 485.58 -0.57 M440.09 47.23 C451.56 36.32, 461.27 27.33, 482 1.32 M447.54 47.65 C455.2 37.14, 465.72 22.38, 490.59 -4.06 M444.61 46.78 C459.62 29.66, 473.07 13.36, 486.77 -1.99 M453.64 49.05 C469.95 31.56, 481.85 10.83, 491.93 -1.32 M453.94 47.97 C463.21 28.98, 477.47 13.86, 491.74 -0.65 M454.18 46.87 C471.72 32.07, 482.75 15.51, 497.97 -0.61 M458.63 47.99 C466.95 35.61, 480.54 23.11, 496.79 1.4 M461.66 46.73 C475.39 34.8, 484.2 20.45, 506.87 -2.85 M463.5 48.97 C473.67 36.02, 482.71 24.19, 503.12 -1.04 M466.37 49.59 C476.27 34.01, 491.44 24.06, 507.33 -3.14 M468.69 45.77 C478 36.09, 482.56 30.42, 508.71 1.27 M477.13 50.23 C484.2 27.83, 503.29 17.62, 516.88 3.76 M473.11 45.68 C484.48 35.52, 492.26 24.01, 513.31 -0.22 M479.58 47.76 C497.08 34.61, 508.61 11.82, 518.56 -2.08 M479.46 48.23 C490.54 35.35, 497.95 24.85, 518 -0.08 M484.91 44.11 C499.87 30.24, 511.31 17.55, 523.22 0.72 M485.73 48.9 C498.81 29.63, 509.63 13.96, 526.1 0.81 M488.08 46.57 C500.17 29.63, 517.48 16.97, 530.26 1.38 M490.22 46.88 C498.35 32.94, 511.99 18.26, 530.75 -0.95 M492.62 50.2 C510.32 34.7, 518.46 15.7, 533.88 -0.54 M494.98 48.81 C508.06 31.83, 521.13 16.78, 535.88 0.43 M500.85 48.45 C508.07 33.58, 523.51 24.71, 539.82 3.32 M498.88 48.58 C513.06 30.65, 526.81 16.71, 539.7 -0.3 M506.64 47.56 C517.94 39.4, 522.51 25.6, 547.61 0.68 M505.06 46.99 C519.51 31.46, 536 9.86, 547.7 0.36 M509.64 45.11 C526.11 33.54, 536.34 18.53, 551.35 -2.95 M509.97 47.59 C516.62 38.97, 525.28 25.99, 552.18 -1.67 M516.08 44.5 C525.4 37.56, 534.96 24.34, 553.91 2.31 M514.82 48.36 C524.58 33.7, 538 22.55, 557.21 1.76 M520.95 49.48 C528.98 33.34, 539.61 21.02, 559.72 -2.87 M522.64 45.53 C531.27 33.24, 546.06 21.67, 562.16 -1.26 M524.81 46.6 C541.13 29.91, 553.92 17.31, 564.35 0.3 M525.74 45.24 C536.61 35.41, 547.83 21.52, 566.04 1.85 M532.02 47.76 C542.76 32.45, 556.26 19.46, 568.65 6.18 M530.7 47.39 C541.25 35.5, 550 22.05, 568.34 6.9 M534.81 49.42 C544.75 33.32, 559.17 24.44, 564.77 13.66 M537.25 46.06 C544.49 38.91, 553.89 29.71, 565.9 11.09 M538.85 47.38 C550.86 35.24, 557.5 25.69, 563.82 15.74 M542.53 45.55 C553.36 37.16, 560.65 24.22, 567.25 19.87 M548.75 51.52 C554.96 41.56, 557.37 36.95, 566.73 28.76 M545.38 48.38 C551.76 38.57, 561.72 30.02, 566.19 25.4 M552.18 45.03 C556.66 45.93, 561.05 39.25, 564.3 27.62 M553.18 47.76 C556.63 42.51, 561.53 33.32, 564.67 31.05 M557.96 49.92 C562.79 45, 566.6 37.2, 569.56 39.46 M558.47 47.42 C559.77 43.69, 563.85 42.59, 565.58 35.86 M563.83 47.98 C565.5 45.38, 566.86 44.72, 567.23 43.45 M563.53 46.6 C564.1 45.82, 565.34 43.95, 566.51 43.55" stroke="#228be6" stroke-width="0.5" fill="none"></path><path d="M-1.36 0.92 C116.76 0.78, 232.61 -1.3, 565.92 0.69 M-0.05 -0.64 C120.83 -4.11, 241.1 -4.02, 565.29 -0.22 M562.37 -2.34 C564.58 9.23, 567.03 20.05, 565.38 44.49 M567.62 -0.7 C564.41 12.44, 567.97 21.79, 564.41 47.22 M566.91 46.15 C405.12 49.06, 246.58 48.47, 0.62 46.87 M566.39 45.72 C392.34 45.73, 219.41 45.44, 0.75 45.69 M1.02 48.1 C3.02 37.56, 1.12 27.14, -2.71 2.87 M1.71 47.81 C0.1 28.98, 0.1 12.15, -0.6 -1.49" stroke="#000000" stroke-width="1" fill="none"></path></g><g transform="translate(25.5 15) rotate(0 267.5 18)"><text x="267.5" y="25" font-family="Virgil, Segoe UI Emoji" font-size="28px" fill="#000000" text-anchor="middle" style="white-space: pre;" direction="ltr">Common problems with data and biases</text></g><g stroke-linecap="round" transform="translate(13.906440467952052 56.39837152081964) rotate(0 676.3257631366068 1324.020068658112)"><path d="M0.21 -0.76 C278.55 -2.3, 557.19 -2.31, 1352.45 -0.2 M1352.76 -0.11 C1352.97 743.86, 1353.36 1486.69, 1352.54 2647.9 M1352.82 2648.52 C990.29 2645.98, 628.52 2647.13, 0.16 2648.07 M0.16 2647.34 C-4.31 1970.19, -4.21 1291.56, 0.75 0.79" stroke="#000000" stroke-width="1.5" fill="none" stroke-dasharray="8 9"></path></g><g transform="translate(67.68407688590196 131.76279834359957) rotate(0 65 18)"><text x="65" y="25" font-family="Virgil, Segoe UI Emoji" font-size="28px" fill="#a61e4d" text-anchor="middle" style="white-space: pre;" direction="ltr">High Cost</text></g><g transform="translate(73.97346534618919 184.88134006724067) rotate(0 341.5 12.5)"><text x="341.5" y="18" font-family="Virgil, Segoe UI Emoji" font-size="20px" fill="#000000" text-anchor="middle" style="white-space: pre;" direction="ltr">Labeling data is the most expensive work, especially if done manually</text></g><g transform="translate(84.39471807787595 271.89730679934655) rotate(0 402 12.5)"><text x="402" y="18" font-family="Virgil, Segoe UI Emoji" font-size="20px" fill="#000000" text-anchor="middle" style="white-space: pre;" direction="ltr">Getting unlabeled data becomes expensive when they are specific for our problem</text></g><g transform="translate(98.47900540653427 215.5306197866703) rotate(0 150.5 12.5)"><text x="150.5" y="18" font-family="Virgil, Segoe UI Emoji" font-size="20px" fill="#000000" text-anchor="middle" style="white-space: pre;" direction="ltr">E.g., Manual labeling of images</text></g><g transform="translate(122.39848108540355 303.6287146626855) rotate(0 330.5 12.5)"><text x="0" y="18" font-family="Virgil, Segoe UI Emoji" font-size="20px" fill="#000000" text-anchor="start" style="white-space: pre;" direction="ltr">E.g., know where different types of commerce are located in a city</text></g><g transform="translate(878.5196116849584 322.83907093657035) rotate(0 71 25)"><text x="71" y="18" font-family="Virgil, Segoe UI Emoji" font-size="20px" fill="#e67700" text-anchor="middle" style="white-space: pre;" direction="ltr">Google uses</text><text x="71" y="43" font-family="Virgil, Segoe UI Emoji" font-size="20px" fill="#e67700" text-anchor="middle" style="white-space: pre;" direction="ltr">reCAPTCHA :P</text></g><g stroke-linecap="round"><g transform="translate(861.9915404164822 346.74170407289785) rotate(0 -32.39754865007944 -8.548212821579)"><path d="M0.51 -0.99 C-5.68 -0.34, -25.31 6.41, -36.22 3.38 C-47.14 0.36, -59.95 -15.34, -64.99 -19.13 M-0.69 1.1 C-7.14 1.49, -26.6 5.56, -37.37 1.83 C-48.14 -1.89, -60.44 -17.91, -65.3 -21.25" stroke="#e67700" stroke-width="2" fill="none"></path></g><g transform="translate(861.9915404164822 346.74170407289785) rotate(0 -32.39754865007944 -8.548212821579)"><path d="M-49.77 -14.55 C-52.88 -15.28, -60.27 -20.26, -65.06 -22.86 M-48.76 -13.5 C-53.82 -15.94, -60.53 -19.35, -64.66 -21.42" stroke="#e67700" stroke-width="2" fill="none"></path></g><g transform="translate(861.9915404164822 346.74170407289785) rotate(0 -32.39754865007944 -8.548212821579)"><path d="M-58.45 -5.28 C-58.28 -9.51, -62.44 -17.95, -65.06 -22.86 M-57.45 -4.24 C-59.37 -9.96, -63.01 -16.64, -64.66 -21.42" stroke="#e67700" stroke-width="2" fill="none"></path></g></g><mask></mask><g transform="translate(899.7489480831573 122.63928573760859) rotate(0 75.5 25)"><text x="75.5" y="18" font-family="Virgil, Segoe UI Emoji" font-size="20px" fill="#1864ab" text-anchor="middle" style="white-space: pre;" direction="ltr">Design labeling </text><text x="75.5" y="43" font-family="Virgil, Segoe UI Emoji" font-size="20px" fill="#1864ab" text-anchor="middle" style="white-space: pre;" direction="ltr">tools</text></g><g transform="translate(1090.7791325812286 158.13774254909367) rotate(0 114.5 25)"><text x="114.5" y="18" font-family="Virgil, Segoe UI Emoji" font-size="20px" fill="#1864ab" text-anchor="middle" style="white-space: pre;" direction="ltr">Reduce decision-making </text><text x="114.5" y="43" font-family="Virgil, Segoe UI Emoji" font-size="20px" fill="#1864ab" text-anchor="middle" style="white-space: pre;" direction="ltr">to yes/no answers</text></g><g stroke-linecap="round" transform="translate(880.4742444458607 101.61808651793763) rotate(0 90.39616118456979 40.59139303280972)"><path d="M132.74 5.45 C144.48 7.61, 155.78 12.17, 163.35 16.75 C170.93 21.34, 175.76 27.31, 178.18 32.93 C180.61 38.56, 181.15 44.92, 177.89 50.5 C174.63 56.09, 167.04 61.94, 158.62 66.45 C150.2 70.97, 139.37 75.04, 127.36 77.6 C115.35 80.17, 99.75 81.92, 86.56 81.85 C73.38 81.79, 59.7 80.09, 48.25 77.21 C36.8 74.33, 25.55 69.42, 17.86 64.58 C10.17 59.74, 4.56 53.99, 2.1 48.19 C-0.37 42.39, -0.09 35.39, 3.07 29.78 C6.23 24.17, 12.59 18.99, 21.07 14.54 C29.56 10.08, 41.93 5.59, 53.98 3.05 C66.02 0.51, 78.85 -1.34, 93.35 -0.7 C107.85 -0.05, 132.23 5.36, 140.98 6.93 C149.73 8.51, 146.94 8.17, 145.85 8.77 M75.12 1.35 C87.2 -0.55, 103.57 -0.78, 116.34 0.85 C129.1 2.47, 142.14 6.84, 151.72 11.12 C161.3 15.4, 169 21.14, 173.81 26.52 C178.63 31.89, 181.51 37.84, 180.6 43.39 C179.69 48.93, 174.82 54.48, 168.35 59.77 C161.88 65.06, 152.24 71.58, 141.79 75.14 C131.33 78.7, 118.52 80.46, 105.64 81.14 C92.75 81.81, 76.88 80.9, 64.48 79.17 C52.08 77.44, 41.06 74.53, 31.24 70.76 C21.41 66.98, 10.7 62, 5.54 56.53 C0.37 51.06, -0.75 43.74, 0.26 37.96 C1.26 32.17, 5.35 27.05, 11.57 21.84 C17.8 16.62, 26.74 9.97, 37.62 6.66 C48.5 3.34, 70.59 2.63, 76.86 1.97 C83.14 1.31, 75.05 2.3, 75.25 2.69" stroke="#1864ab" stroke-width="2" fill="none"></path></g><g stroke-linecap="round" transform="translate(1065.8432959261154 138.0475597246368) rotate(0 131.4069724944302 42.80831821150605)"><path d="M91.27 1.63 C105.96 -0.48, 125.91 -0.61, 142.41 -0.01 C158.9 0.59, 175.37 2.61, 190.24 5.25 C205.1 7.89, 220.49 11.83, 231.6 15.85 C242.71 19.87, 251.9 24.32, 256.9 29.37 C261.91 34.42, 263.19 40.54, 261.64 46.14 C260.1 51.73, 254.95 58.17, 247.64 62.94 C240.33 67.72, 230.33 71.51, 217.78 74.8 C205.24 78.1, 188.5 80.96, 172.36 82.7 C156.22 84.44, 137.67 85.65, 120.92 85.26 C104.17 84.86, 86.71 82.8, 71.88 80.32 C57.05 77.84, 42.99 74.46, 31.96 70.37 C20.92 66.28, 10.82 60.85, 5.66 55.78 C0.49 50.72, -0.32 45.53, 0.97 39.98 C2.26 34.42, 5.82 27.49, 13.4 22.46 C20.99 17.42, 32.25 13.22, 46.47 9.78 C60.69 6.34, 88.7 3.1, 98.72 1.82 C108.73 0.54, 105.94 1.59, 106.56 2.11 M128.69 -0.75 C144.47 -1.27, 163.08 2.04, 178.52 4.34 C193.97 6.64, 209.16 9.49, 221.38 13.05 C233.6 16.61, 244.92 21.06, 251.85 25.7 C258.78 30.33, 262.46 35.21, 262.95 40.85 C263.44 46.48, 261.13 54.41, 254.8 59.53 C248.48 64.66, 237.06 68.02, 225 71.6 C212.93 75.18, 197.64 78.59, 182.42 81 C167.2 83.41, 150.05 85.62, 133.67 86.07 C117.3 86.51, 99.94 85.81, 84.16 83.68 C68.38 81.54, 51.37 77.09, 38.98 73.25 C26.59 69.42, 16.16 65.55, 9.84 60.65 C3.53 55.76, 1.38 49.71, 1.11 43.88 C0.83 38.06, 2.14 30.65, 8.18 25.72 C14.22 20.78, 25.7 18.13, 37.33 14.26 C48.97 10.4, 62.64 5.07, 77.97 2.52 C93.3 -0.03, 120.8 -0.98, 129.33 -1.03 C137.86 -1.08, 128.95 1.25, 129.15 2.19" stroke="#1864ab" stroke-width="2" fill="none"></path></g><g transform="translate(937.7260946815823 215.15558326771134) rotate(0 54 25)"><text x="54" y="18" font-family="Virgil, Segoe UI Emoji" font-size="20px" fill="#1864ab" text-anchor="middle" style="white-space: pre;" direction="ltr">Use noisy</text><text x="54" y="43" font-family="Virgil, Segoe UI Emoji" font-size="20px" fill="#1864ab" text-anchor="middle" style="white-space: pre;" direction="ltr">pre-labeling</text></g><g stroke-linecap="round" transform="translate(912.48369427133 202.5964934619442) rotate(0 76.15437573306735 39.04277170215937)"><path d="M89.06 1.23 C100.47 1.79, 113.47 5.39, 122.77 8.76 C132.08 12.13, 139.86 16.29, 144.9 21.45 C149.94 26.61, 153.46 33.39, 153.02 39.72 C152.57 46.05, 148.37 54.02, 142.23 59.41 C136.09 64.8, 126.02 69.09, 116.17 72.06 C106.32 75.04, 94.6 76.82, 83.12 77.27 C71.64 77.72, 58.2 76.96, 47.28 74.75 C36.35 72.54, 25.06 68.54, 17.6 64.02 C10.14 59.5, 4.94 53.65, 2.52 47.64 C0.1 41.64, 0.05 33.97, 3.06 27.99 C6.08 22.01, 12.52 16.03, 20.62 11.75 C28.71 7.47, 39.86 4.15, 51.65 2.3 C63.44 0.45, 84.01 0.59, 91.35 0.66 C98.69 0.72, 95.94 1.96, 95.67 2.69 M49.5 2.59 C60.01 0.48, 76.53 0.86, 88.44 1.44 C100.34 2.03, 111.63 2.6, 120.93 6.11 C130.23 9.62, 139.15 17.08, 144.24 22.5 C149.32 27.92, 151.52 32.49, 151.44 38.62 C151.36 44.74, 149.33 53.71, 143.74 59.25 C138.15 64.79, 128.05 68.66, 117.91 71.87 C107.77 75.08, 94.45 77.75, 82.88 78.5 C71.31 79.25, 59.52 78.59, 48.49 76.38 C37.46 74.17, 24.32 69.95, 16.73 65.23 C9.14 60.51, 5.18 54.18, 2.94 48.05 C0.69 41.93, 0.44 34.18, 3.28 28.48 C6.13 22.77, 11.97 18.06, 20.02 13.82 C28.07 9.59, 46.45 5.13, 51.56 3.07 C56.68 1.01, 50.19 0.86, 50.72 1.46" stroke="#1864ab" stroke-width="2" fill="none"></path></g><g stroke-linecap="round"><g transform="translate(1104.9505935170528 280.19348370837906) rotate(0 -19.99902618094802 -12.469360406363194)"><path d="M-1.02 -0.37 C-7.58 -4.31, -33.62 -20.84, -40.12 -24.57 M0.65 -1.61 C-5.93 -5.33, -33.81 -19.58, -40.65 -23.39" stroke="#a61e4d" stroke-width="2" fill="none"></path></g><g transform="translate(1104.9505935170528 280.19348370837906) rotate(0 -19.99902618094802 -12.469360406363194)"><path d="M-17.8 -18.74 C-23.87 -19.61, -26.42 -20.08, -39.17 -21.69 M-17.15 -21 C-24.57 -21.05, -32.4 -21.47, -41.56 -22.61" stroke="#a61e4d" stroke-width="2" fill="none"></path></g><g transform="translate(1104.9505935170528 280.19348370837906) rotate(0 -19.99902618094802 -12.469360406363194)"><path d="M-25.41 -4.44 C-29.57 -8.63, -30.32 -12.49, -39.17 -21.69 M-24.76 -6.69 C-29.84 -11.06, -35.35 -15.84, -41.56 -22.61" stroke="#a61e4d" stroke-width="2" fill="none"></path></g></g><mask></mask><g transform="translate(1091.548834254496 258.02340483045555) rotate(0 114.5 25)"><text x="114.5" y="18" font-family="Virgil, Segoe UI Emoji" font-size="20px" fill="#e67700" text-anchor="middle" style="white-space: pre;" direction="ltr">Pre-labeling using</text><text x="114.5" y="43" font-family="Virgil, Segoe UI Emoji" font-size="20px" fill="#e67700" text-anchor="middle" style="white-space: pre;" direction="ltr">the current best model</text></g><g transform="translate(69.40465730170581 391.50955886337397) rotate(0 84 18)"><text x="0" y="25" font-family="Virgil, Segoe UI Emoji" font-size="28px" fill="#a61e4d" text-anchor="start" style="white-space: pre;" direction="ltr">Bad Quality</text></g><g transform="translate(98.26925387953634 447.3050741822917) rotate(0 110.5 12.5)"><text x="0" y="18" font-family="Virgil, Segoe UI Emoji" font-size="20px" fill="#000000" text-anchor="start" style="white-space: pre;" direction="ltr">Raw data bad quality</text></g><g transform="translate(326.08588509048604 395.0425639300447) rotate(0 99 12.5)"><text x="99" y="18" font-family="Virgil, Segoe UI Emoji" font-size="20px" fill="#000000" text-anchor="middle" style="white-space: pre;" direction="ltr">Labeling bad quality</text></g><g transform="translate(130.11649401273826 475.18982893986686) rotate(0 125.5 12.5)"><text x="0" y="18" font-family="Virgil, Segoe UI Emoji" font-size="20px" fill="#000000" text-anchor="start" style="white-space: pre;" direction="ltr">E.g., inaccurate features</text></g><g transform="translate(347.43617391481894 424.00170160542984) rotate(0 124.5 12.5)"><text x="0" y="18" font-family="Virgil, Segoe UI Emoji" font-size="20px" fill="#000000" text-anchor="start" style="white-space: pre;" direction="ltr">E.g., non-experts labelers</text></g><g transform="translate(732.5164002058009 401.6518300060925) rotate(0 36 18)"><text x="0" y="25" font-family="Virgil, Segoe UI Emoji" font-size="28px" fill="#a61e4d" text-anchor="start" style="white-space: pre;" direction="ltr">Noise</text></g><g transform="translate(773.6210590807223 449.44677238071745) rotate(0 113 12.5)"><text x="0" y="18" font-family="Virgil, Segoe UI Emoji" font-size="20px" fill="#000000" text-anchor="start" style="white-space: pre;" direction="ltr">Corruption of examples</text></g><g transform="translate(805.4682992139224 477.3315271382962) rotate(0 151.5 12.5)"><text x="0" y="18" font-family="Virgil, Segoe UI Emoji" font-size="20px" fill="#000000" text-anchor="start" style="white-space: pre;" direction="ltr">E.g., blurry picture, noisy audio</text></g><g transform="translate(81.41431030235071 1201.430668547051) rotate(0 31 18)"><text x="0" y="25" font-family="Virgil, Segoe UI Emoji" font-size="28px" fill="#a61e4d" text-anchor="start" style="white-space: pre;" direction="ltr">Bias</text></g><g transform="translate(85.992541198053 1331.7966094983058) rotate(0 43 25)"><text x="43" y="18" font-family="Virgil, Segoe UI Emoji" font-size="20px" fill="#000000" text-anchor="middle" style="white-space: pre;" direction="ltr">Selection</text><text x="43" y="43" font-family="Virgil, Segoe UI Emoji" font-size="20px" fill="#000000" text-anchor="middle" style="white-space: pre;" direction="ltr">Bias</text></g><g transform="translate(63.393255607863466 1510.5413558911278) rotate(0 66.5 25)"><text x="66.5" y="18" font-family="Virgil, Segoe UI Emoji" font-size="20px" fill="#000000" text-anchor="middle" style="white-space: pre;" direction="ltr">Self-Selection</text><text x="66.5" y="43" font-family="Virgil, Segoe UI Emoji" font-size="20px" fill="#000000" text-anchor="middle" style="white-space: pre;" direction="ltr">Bias</text></g><g transform="translate(49.05266252145702 1698.2837896227174) rotate(0 82 25)"><text x="82" y="18" font-family="Virgil, Segoe UI Emoji" font-size="20px" fill="#000000" text-anchor="middle" style="white-space: pre;" direction="ltr">Omitted Variable</text><text x="82" y="43" font-family="Virgil, Segoe UI Emoji" font-size="20px" fill="#000000" text-anchor="middle" style="white-space: pre;" direction="ltr">Bias</text></g><g transform="translate(74.55967581146797 1850.1140892225922) rotate(0 59.5 37.5)"><text x="59.5" y="18" font-family="Virgil, Segoe UI Emoji" font-size="20px" fill="#000000" text-anchor="middle" style="white-space: pre;" direction="ltr">Sponsorship/</text><text x="59.5" y="43" font-family="Virgil, Segoe UI Emoji" font-size="20px" fill="#000000" text-anchor="middle" style="white-space: pre;" direction="ltr">Funding</text><text x="59.5" y="68" font-family="Virgil, Segoe UI Emoji" font-size="20px" fill="#000000" text-anchor="middle" style="white-space: pre;" direction="ltr">Bias</text></g><g transform="translate(92.22775493577865 2029.7860696938114) rotate(0 39 25)"><text x="39" y="18" font-family="Virgil, Segoe UI Emoji" font-size="20px" fill="#000000" text-anchor="middle" style="white-space: pre;" direction="ltr">Sampling</text><text x="39" y="43" font-family="Virgil, Segoe UI Emoji" font-size="20px" fill="#000000" text-anchor="middle" style="white-space: pre;" direction="ltr">Bias</text></g><g transform="translate(84.70486188632094 2188.24876095985) rotate(0 54 37.5)"><text x="54" y="18" font-family="Virgil, Segoe UI Emoji" font-size="20px" fill="#000000" text-anchor="middle" style="white-space: pre;" direction="ltr">Prejudice/</text><text x="54" y="43" font-family="Virgil, Segoe UI Emoji" font-size="20px" fill="#000000" text-anchor="middle" style="white-space: pre;" direction="ltr">Stereotype</text><text x="54" y="68" font-family="Virgil, Segoe UI Emoji" font-size="20px" fill="#000000" text-anchor="middle" style="white-space: pre;" direction="ltr">Bias</text></g><g transform="translate(75.28502035633574 2592.4237703836407) rotate(0 61.5 25)"><text x="61.5" y="18" font-family="Virgil, Segoe UI Emoji" font-size="20px" fill="#000000" text-anchor="middle" style="white-space: pre;" direction="ltr">Experimenter</text><text x="61.5" y="43" font-family="Virgil, Segoe UI Emoji" font-size="20px" fill="#000000" text-anchor="middle" style="white-space: pre;" direction="ltr">Bias</text></g><g transform="translate(94.8119607405115 2399.6702400865433) rotate(0 38 25)"><text x="38" y="18" font-family="Virgil, Segoe UI Emoji" font-size="20px" fill="#000000" text-anchor="middle" style="white-space: pre;" direction="ltr">Labeling</text><text x="38" y="43" font-family="Virgil, Segoe UI Emoji" font-size="20px" fill="#000000" text-anchor="middle" style="white-space: pre;" direction="ltr">Bias</text></g><g transform="translate(86.07614741629186 1258.7381302380163) rotate(0 36 18)"><text x="0" y="25" font-family="Virgil, Segoe UI Emoji" font-size="28px" fill="#087f5b" text-anchor="start" style="white-space: pre;" direction="ltr">Name</text></g><g transform="translate(348.48173005336866 1256.7836308709411) rotate(0 75.5 18)"><text x="0" y="25" font-family="Virgil, Segoe UI Emoji" font-size="28px" fill="#087f5b" text-anchor="start" style="white-space: pre;" direction="ltr">Description</text></g><g transform="translate(1070.0255728397024 1257.8241465693245) rotate(0 67.5 18)"><text x="0" y="25" font-family="Virgil, Segoe UI Emoji" font-size="28px" fill="#087f5b" text-anchor="start" style="white-space: pre;" direction="ltr">Mitigation</text></g><g transform="translate(254.47337188100573 1305.4892722537334) rotate(0 161 50)"><text x="161" y="18" font-family="Virgil, Segoe UI Emoji" font-size="20px" fill="#000000" text-anchor="middle" style="white-space: pre;" direction="ltr">Tendency to skew the choice of</text><text x="161" y="43" font-family="Virgil, Segoe UI Emoji" font-size="20px" fill="#000000" text-anchor="middle" style="white-space: pre;" direction="ltr">data sources to those that</text><text x="161" y="68" font-family="Virgil, Segoe UI Emoji" font-size="20px" fill="#000000" text-anchor="middle" style="white-space: pre;" direction="ltr">are easily available, convenient, </text><text x="161" y="93" font-family="Virgil, Segoe UI Emoji" font-size="20px" fill="#000000" text-anchor="middle" style="white-space: pre;" direction="ltr">and/or cost effective</text></g><g transform="translate(719.3930289286254 1254.7953131051217) rotate(0 54.5 18)"><text x="0" y="25" font-family="Virgil, Segoe UI Emoji" font-size="28px" fill="#087f5b" text-anchor="start" style="white-space: pre;" direction="ltr">Example</text></g><g transform="translate(625.7156262149638 1320.2216286128642) rotate(0 145.5 37.5)"><text x="145.5" y="18" font-family="Virgil, Segoe UI Emoji" font-size="20px" fill="#000000" text-anchor="middle" style="white-space: pre;" direction="ltr">Ask opinions of your new book</text><text x="145.5" y="43" font-family="Virgil, Segoe UI Emoji" font-size="20px" fill="#000000" text-anchor="middle" style="white-space: pre;" direction="ltr">to the mailing list of your</text><text x="145.5" y="68" font-family="Virgil, Segoe UI Emoji" font-size="20px" fill="#000000" text-anchor="middle" style="white-space: pre;" direction="ltr">previous book's readers</text></g><g transform="translate(966.5882848102865 1325.4263148931059) rotate(0 173.5 37.5)"><text x="173.5" y="18" font-family="Virgil, Segoe UI Emoji" font-size="20px" fill="#000000" text-anchor="middle" style="white-space: pre;" direction="ltr">Systematically question the reason</text><text x="173.5" y="43" font-family="Virgil, Segoe UI Emoji" font-size="20px" fill="#000000" text-anchor="middle" style="white-space: pre;" direction="ltr">why a specific data source was</text><text x="173.5" y="68" font-family="Virgil, Segoe UI Emoji" font-size="20px" fill="#000000" text-anchor="middle" style="white-space: pre;" direction="ltr">chosen</text></g><g transform="translate(254.74015911292372 1499.6345070694188) rotate(0 163 37.5)"><text x="163" y="18" font-family="Virgil, Segoe UI Emoji" font-size="20px" fill="#000000" text-anchor="middle" style="white-space: pre;" direction="ltr">Type of selection bias where we</text><text x="163" y="43" font-family="Virgil, Segoe UI Emoji" font-size="20px" fill="#000000" text-anchor="middle" style="white-space: pre;" direction="ltr">get the data from sources that</text><text x="163" y="68" font-family="Virgil, Segoe UI Emoji" font-size="20px" fill="#000000" text-anchor="middle" style="white-space: pre;" direction="ltr">"volunteered" to provide it</text></g><g transform="translate(591.0386207253505 1477.216584289763) rotate(0 183.5 62.5)"><text x="183.5" y="18" font-family="Virgil, Segoe UI Emoji" font-size="20px" fill="#000000" text-anchor="middle" style="white-space: pre;" direction="ltr">We want to train a model that</text><text x="183.5" y="43" font-family="Virgil, Segoe UI Emoji" font-size="20px" fill="#000000" text-anchor="middle" style="white-space: pre;" direction="ltr">predicts the behavior of </text><text x="183.5" y="68" font-family="Virgil, Segoe UI Emoji" font-size="20px" fill="#000000" text-anchor="middle" style="white-space: pre;" direction="ltr">successful entrepreneurs and we</text><text x="183.5" y="93" font-family="Virgil, Segoe UI Emoji" font-size="20px" fill="#000000" text-anchor="middle" style="white-space: pre;" direction="ltr">first ask entrepreneurs whether they</text><text x="183.5" y="118" font-family="Virgil, Segoe UI Emoji" font-size="20px" fill="#000000" text-anchor="middle" style="white-space: pre;" direction="ltr">are successful or not</text></g><g transform="translate(978.64959083139 1511.2965903203913) rotate(0 167 25)"><text x="167" y="18" font-family="Virgil, Segoe UI Emoji" font-size="20px" fill="#000000" text-anchor="middle" style="white-space: pre;" direction="ltr">Keep surveys short and provide</text><text x="167" y="43" font-family="Virgil, Segoe UI Emoji" font-size="20px" fill="#000000" text-anchor="middle" style="white-space: pre;" direction="ltr">incentives to give quality answers</text></g><g transform="translate(267.7191382591027 1682.7713751977753) rotate(0 139.5 37.5)"><text x="139.5" y="18" font-family="Virgil, Segoe UI Emoji" font-size="20px" fill="#000000" text-anchor="middle" style="white-space: pre;" direction="ltr">Our dataset does not have</text><text x="139.5" y="43" font-family="Virgil, Segoe UI Emoji" font-size="20px" fill="#000000" text-anchor="middle" style="white-space: pre;" direction="ltr">a feature that is crucial</text><text x="139.5" y="68" font-family="Virgil, Segoe UI Emoji" font-size="20px" fill="#000000" text-anchor="middle" style="white-space: pre;" direction="ltr">for accurate prediction</text></g><g transform="translate(595.3354771275554 1668.0957475573014) rotate(0 168.5 50)"><text x="168.5" y="18" font-family="Virgil, Segoe UI Emoji" font-size="20px" fill="#000000" text-anchor="middle" style="white-space: pre;" direction="ltr">Accurate churn predictor that</text><text x="168.5" y="43" font-family="Virgil, Segoe UI Emoji" font-size="20px" fill="#000000" text-anchor="middle" style="white-space: pre;" direction="ltr">becomes unaccurate after a while</text><text x="168.5" y="68" font-family="Virgil, Segoe UI Emoji" font-size="20px" fill="#000000" text-anchor="middle" style="white-space: pre;" direction="ltr">because a competitor is offering</text><text x="168.5" y="93" font-family="Virgil, Segoe UI Emoji" font-size="20px" fill="#000000" text-anchor="middle" style="white-space: pre;" direction="ltr">a lower price</text></g><g transform="translate(970.3457565081408 1668.8819518639248) rotate(0 163.5 50)"><text x="163.5" y="18" font-family="Virgil, Segoe UI Emoji" font-size="20px" fill="#000000" text-anchor="middle" style="white-space: pre;" direction="ltr">Use all available information and</text><text x="163.5" y="43" font-family="Virgil, Segoe UI Emoji" font-size="20px" fill="#000000" text-anchor="middle" style="white-space: pre;" direction="ltr">include as many features</text><text x="163.5" y="68" font-family="Virgil, Segoe UI Emoji" font-size="20px" fill="#000000" text-anchor="middle" style="white-space: pre;" direction="ltr">as possible, then regularize </text><text x="163.5" y="93" font-family="Virgil, Segoe UI Emoji" font-size="20px" fill="#000000" text-anchor="middle" style="white-space: pre;" direction="ltr">to decrease the dimensionality</text></g><g transform="translate(243.1604122619865 1844.0445915297605) rotate(0 167 37.5)"><text x="167" y="18" font-family="Virgil, Segoe UI Emoji" font-size="20px" fill="#000000" text-anchor="middle" style="white-space: pre;" direction="ltr">Tendency to distort the</text><text x="167" y="43" font-family="Virgil, Segoe UI Emoji" font-size="20px" fill="#000000" text-anchor="middle" style="white-space: pre;" direction="ltr">results because of the</text><text x="167" y="68" font-family="Virgil, Segoe UI Emoji" font-size="20px" fill="#000000" text-anchor="middle" style="white-space: pre;" direction="ltr">pressure of funders of the study</text></g><g transform="translate(595.8207332982747 1820.4244608337176) rotate(0 178.5 62.5)"><text x="178.5" y="18" font-family="Virgil, Segoe UI Emoji" font-size="20px" fill="#000000" text-anchor="middle" style="white-space: pre;" direction="ltr">A video game company sponsors a</text><text x="178.5" y="43" font-family="Virgil, Segoe UI Emoji" font-size="20px" fill="#000000" text-anchor="middle" style="white-space: pre;" direction="ltr">news agency to provide news about </text><text x="178.5" y="68" font-family="Virgil, Segoe UI Emoji" font-size="20px" fill="#000000" text-anchor="middle" style="white-space: pre;" direction="ltr">the video game industry, bad news</text><text x="178.5" y="93" font-family="Virgil, Segoe UI Emoji" font-size="20px" fill="#000000" text-anchor="middle" style="white-space: pre;" direction="ltr">about the sponsors will be</text><text x="178.5" y="118" font-family="Virgil, Segoe UI Emoji" font-size="20px" fill="#000000" text-anchor="middle" style="white-space: pre;" direction="ltr">probably kept hidden</text></g><g transform="translate(1009.6720472887191 1833.9899331718698) rotate(0 128.5 50)"><text x="128.5" y="18" font-family="Virgil, Segoe UI Emoji" font-size="20px" fill="#000000" text-anchor="middle" style="white-space: pre;" direction="ltr">Carefully investigate the </text><text x="128.5" y="43" font-family="Virgil, Segoe UI Emoji" font-size="20px" fill="#000000" text-anchor="middle" style="white-space: pre;" direction="ltr">data source, specifically</text><text x="128.5" y="68" font-family="Virgil, Segoe UI Emoji" font-size="20px" fill="#000000" text-anchor="middle" style="white-space: pre;" direction="ltr">the owner's incentive to </text><text x="128.5" y="93" font-family="Virgil, Segoe UI Emoji" font-size="20px" fill="#000000" text-anchor="middle" style="white-space: pre;" direction="ltr">provide the data</text></g><g transform="translate(240.87638406891347 2009.0340115230902) rotate(0 169 50)"><text x="169" y="18" font-family="Virgil, Segoe UI Emoji" font-size="20px" fill="#000000" text-anchor="middle" style="white-space: pre;" direction="ltr">The distribution of examples</text><text x="169" y="43" font-family="Virgil, Segoe UI Emoji" font-size="20px" fill="#000000" text-anchor="middle" style="white-space: pre;" direction="ltr">used for training does not reflect</text><text x="169" y="68" font-family="Virgil, Segoe UI Emoji" font-size="20px" fill="#000000" text-anchor="middle" style="white-space: pre;" direction="ltr">the distribution of the inputs the</text><text x="169" y="93" font-family="Virgil, Segoe UI Emoji" font-size="20px" fill="#000000" text-anchor="middle" style="white-space: pre;" direction="ltr">model will receive in production</text></g><g transform="translate(641.4422924843566 1993.6562800904903) rotate(0 127 62.5)"><text x="127" y="18" font-family="Virgil, Segoe UI Emoji" font-size="20px" fill="#000000" text-anchor="middle" style="white-space: pre;" direction="ltr">A system that classifies</text><text x="127" y="43" font-family="Virgil, Segoe UI Emoji" font-size="20px" fill="#000000" text-anchor="middle" style="white-space: pre;" direction="ltr">documents according to a</text><text x="127" y="68" font-family="Virgil, Segoe UI Emoji" font-size="20px" fill="#000000" text-anchor="middle" style="white-space: pre;" direction="ltr">taxonomy of topics and</text><text x="127" y="93" font-family="Virgil, Segoe UI Emoji" font-size="20px" fill="#000000" text-anchor="middle" style="white-space: pre;" direction="ltr">1 or 2 topics account for</text><text x="127" y="118" font-family="Virgil, Segoe UI Emoji" font-size="20px" fill="#000000" text-anchor="middle" style="white-space: pre;" direction="ltr">80% of the input</text></g><g transform="translate(967.2625194652592 1988.9805029837771) rotate(0 165 62.5)"><text x="165" y="18" font-family="Virgil, Segoe UI Emoji" font-size="20px" fill="#000000" text-anchor="middle" style="white-space: pre;" direction="ltr">Researching the real proportion</text><text x="165" y="43" font-family="Virgil, Segoe UI Emoji" font-size="20px" fill="#000000" text-anchor="middle" style="white-space: pre;" direction="ltr">of properties in the data that </text><text x="165" y="68" font-family="Virgil, Segoe UI Emoji" font-size="20px" fill="#000000" text-anchor="middle" style="white-space: pre;" direction="ltr">will be observed in production and</text><text x="165" y="93" font-family="Virgil, Segoe UI Emoji" font-size="20px" fill="#000000" text-anchor="middle" style="white-space: pre;" direction="ltr">sampling the training data by</text><text x="165" y="118" font-family="Virgil, Segoe UI Emoji" font-size="20px" fill="#000000" text-anchor="middle" style="white-space: pre;" direction="ltr">keeping similar proportions</text></g><g transform="translate(285.63218105522174 2155.721417035249) rotate(0 291 62.5)"><text x="291" y="18" font-family="Virgil, Segoe UI Emoji" font-size="20px" fill="#000000" text-anchor="middle" style="white-space: pre;" direction="ltr">Using a photo archive to train a model to distinguish men </text><text x="291" y="43" font-family="Virgil, Segoe UI Emoji" font-size="20px" fill="#000000" text-anchor="middle" style="white-space: pre;" direction="ltr">from women might show men more frequently in outdoor</text><text x="291" y="68" font-family="Virgil, Segoe UI Emoji" font-size="20px" fill="#000000" text-anchor="middle" style="white-space: pre;" direction="ltr">contexts and women more often at home indoors. </text><text x="291" y="93" font-family="Virgil, Segoe UI Emoji" font-size="20px" fill="#000000" text-anchor="middle" style="white-space: pre;" direction="ltr">If we use such biased data, our model will have more</text><text x="291" y="118" font-family="Virgil, Segoe UI Emoji" font-size="20px" fill="#000000" text-anchor="middle" style="white-space: pre;" direction="ltr">difficulty recognizing a woman outdoors or a man at home</text></g><g transform="translate(965.230032378211 2159.4510159290658) rotate(0 165.5 50)"><text x="165.5" y="18" font-family="Virgil, Segoe UI Emoji" font-size="20px" fill="#000000" text-anchor="middle" style="white-space: pre;" direction="ltr">Undersample the number of women</text><text x="165.5" y="43" font-family="Virgil, Segoe UI Emoji" font-size="20px" fill="#000000" text-anchor="middle" style="white-space: pre;" direction="ltr">indoors or oversample the</text><text x="165.5" y="68" font-family="Virgil, Segoe UI Emoji" font-size="20px" fill="#000000" text-anchor="middle" style="white-space: pre;" direction="ltr">number of men at home.</text><text x="165.5" y="93" font-family="Virgil, Segoe UI Emoji" font-size="20px" fill="#000000" text-anchor="middle" style="white-space: pre;" direction="ltr">Even-hand distribute samples.</text></g><g transform="translate(262.68155428439786 2385.11888899899) rotate(0 113.5 37.5)"><text x="113.5" y="18" font-family="Virgil, Segoe UI Emoji" font-size="20px" fill="#000000" text-anchor="middle" style="white-space: pre;" direction="ltr">Labels are assigned by</text><text x="113.5" y="43" font-family="Virgil, Segoe UI Emoji" font-size="20px" fill="#000000" text-anchor="middle" style="white-space: pre;" direction="ltr">a biased process or</text><text x="113.5" y="68" font-family="Virgil, Segoe UI Emoji" font-size="20px" fill="#000000" text-anchor="middle" style="white-space: pre;" direction="ltr">a biased person</text></g><g transform="translate(548.7405140811679 2328.4045953781097) rotate(0 191.5 87.5)"><text x="191.5" y="18" font-family="Virgil, Segoe UI Emoji" font-size="20px" fill="#000000" text-anchor="middle" style="white-space: pre;" direction="ltr">If we ask several labelers to</text><text x="191.5" y="43" font-family="Virgil, Segoe UI Emoji" font-size="20px" fill="#000000" text-anchor="middle" style="white-space: pre;" direction="ltr">assign a topic to a document by</text><text x="191.5" y="68" font-family="Virgil, Segoe UI Emoji" font-size="20px" fill="#000000" text-anchor="middle" style="white-space: pre;" direction="ltr">reading the document, some can read</text><text x="191.5" y="93" font-family="Virgil, Segoe UI Emoji" font-size="20px" fill="#000000" text-anchor="middle" style="white-space: pre;" direction="ltr">the document entirely and assign</text><text x="191.5" y="118" font-family="Virgil, Segoe UI Emoji" font-size="20px" fill="#000000" text-anchor="middle" style="white-space: pre;" direction="ltr">well-thought labels, other can quickly</text><text x="191.5" y="143" font-family="Virgil, Segoe UI Emoji" font-size="20px" fill="#000000" text-anchor="middle" style="white-space: pre;" direction="ltr">"scan" the text, spot some keyphrases</text><text x="191.5" y="168" font-family="Virgil, Segoe UI Emoji" font-size="20px" fill="#000000" text-anchor="middle" style="white-space: pre;" direction="ltr">and choose a topic based on those</text></g><g transform="translate(991.3451584935319 2400.2817669477226) rotate(0 157 25)"><text x="157" y="18" font-family="Virgil, Segoe UI Emoji" font-size="20px" fill="#000000" text-anchor="middle" style="white-space: pre;" direction="ltr">Ask several labelers to identify</text><text x="157" y="43" font-family="Virgil, Segoe UI Emoji" font-size="20px" fill="#000000" text-anchor="middle" style="white-space: pre;" direction="ltr">the same example</text></g><g transform="translate(252.58467226492212 2557.3993736812954) rotate(0 127 62.5)"><text x="127" y="18" font-family="Virgil, Segoe UI Emoji" font-size="20px" fill="#000000" text-anchor="middle" style="white-space: pre;" direction="ltr">Tendency to search for,</text><text x="127" y="43" font-family="Virgil, Segoe UI Emoji" font-size="20px" fill="#000000" text-anchor="middle" style="white-space: pre;" direction="ltr">interpret, favor, or recall</text><text x="127" y="68" font-family="Virgil, Segoe UI Emoji" font-size="20px" fill="#000000" text-anchor="middle" style="white-space: pre;" direction="ltr">information in a way that</text><text x="127" y="93" font-family="Virgil, Segoe UI Emoji" font-size="20px" fill="#000000" text-anchor="middle" style="white-space: pre;" direction="ltr">affirms one's prior beliefs</text><text x="127" y="118" font-family="Virgil, Segoe UI Emoji" font-size="20px" fill="#000000" text-anchor="middle" style="white-space: pre;" direction="ltr">or hypotheses</text></g><g transform="translate(563.4472100411222 2568.719495031033) rotate(0 176.5 50)"><text x="176.5" y="18" font-family="Virgil, Segoe UI Emoji" font-size="20px" fill="#000000" text-anchor="middle" style="white-space: pre;" direction="ltr">Create a survey and ask questions</text><text x="176.5" y="43" font-family="Virgil, Segoe UI Emoji" font-size="20px" fill="#000000" text-anchor="middle" style="white-space: pre;" direction="ltr">in such a way as to favor</text><text x="176.5" y="68" font-family="Virgil, Segoe UI Emoji" font-size="20px" fill="#000000" text-anchor="middle" style="white-space: pre;" direction="ltr">the hypothesis you want</text><text x="176.5" y="93" font-family="Virgil, Segoe UI Emoji" font-size="20px" fill="#000000" text-anchor="middle" style="white-space: pre;" direction="ltr">to prove</text></g><g transform="translate(981.0265523449852 2596.75609801893) rotate(0 169.5 25)"><text x="169.5" y="18" font-family="Virgil, Segoe UI Emoji" font-size="20px" fill="#000000" text-anchor="middle" style="white-space: pre;" direction="ltr">Letting multiple people validate</text><text x="169.5" y="43" font-family="Virgil, Segoe UI Emoji" font-size="20px" fill="#000000" text-anchor="middle" style="white-space: pre;" direction="ltr">the questions asked in the survey</text></g><g stroke-linecap="round"><g transform="translate(55.603437079509604 1432.8413537821434) rotate(0 631.1734871857325 -0.43319239687843947)"><path d="M0.61 -2.63 C211.11 -2.76, 1050.9 1.06, 1261.74 1.77" stroke="#2b8a3e" stroke-width="2.5" fill="none" stroke-dasharray="8 10"></path></g></g><mask></mask><g stroke-linecap="round"><g transform="translate(51.076845619187225 1628.407849838546) rotate(0 630.2470721863665 -0.6101288989175373)"><path d="M-1.55 -0.3 C208.85 -0.83, 1051.04 -0.52, 1262.05 -0.92" stroke="#2b8a3e" stroke-width="2.5" fill="none" stroke-dasharray="8 10"></path></g></g><mask></mask><g stroke-linecap="round"><g transform="translate(55.61192516700612 1799.7028612865688) rotate(0 632.334369897143 0.13662959944667818)"><path d="M-0.22 0.53 C210.73 0.6, 1053.87 -0.34, 1264.89 -0.25" stroke="#2b8a3e" stroke-width="2.5" fill="none" stroke-dasharray="8 10"></path></g></g><mask></mask><g stroke-linecap="round"><g transform="translate(48.527622374285784 1960.9070468586433) rotate(0 632.468948077455 0.3610098794106307)"><path d="M2.42 2.26 C213.14 1.67, 1052.17 -0.78, 1262.52 -1.53" stroke="#2b8a3e" stroke-width="2.5" fill="none" stroke-dasharray="8 10"></path></g></g><mask></mask><g stroke-linecap="round"><g transform="translate(57.76802490417322 2137.497614272168) rotate(0 631.0350203983935 -0.8058816537013627)"><path d="M-2.1 -0.61 C208.21 -0.45, 1053.39 -1.31, 1264.17 -0.91" stroke="#2b8a3e" stroke-width="2.5" fill="none" stroke-dasharray="8 10"></path></g></g><mask></mask><g stroke-linecap="round"><g transform="translate(68.87071647030461 2305.693528842192) rotate(0 631.0118697308453 -1.0678593352440657)"><path d="M-2.12 -2.09 C208.43 -1.64, 1053.49 -0.3, 1264.14 -0.05" stroke="#2b8a3e" stroke-width="2.5" fill="none" stroke-dasharray="8 10"></path></g></g><mask></mask><g stroke-linecap="round"><g transform="translate(50.72804376029126 2529.813295090571) rotate(0 631.5240470074568 1.04145997017622)"><path d="M-2.25 -0.37 C208.98 0.46, 1053.97 2.09, 1265.3 2.45" stroke="#2b8a3e" stroke-width="2.5" fill="none" stroke-dasharray="8 10"></path></g></g><mask></mask><g transform="translate(69.29481096587733 585.2619479946479) rotate(0 146 18)"><text x="0" y="25" font-family="Virgil, Segoe UI Emoji" font-size="28px" fill="#a61e4d" text-anchor="start" style="white-space: pre;" direction="ltr">Low Predictive Power</text></g><g transform="translate(92.86224786304592 632.1920619906268) rotate(0 174.5 12.5)"><text x="0" y="18" font-family="Virgil, Segoe UI Emoji" font-size="20px" fill="#000000" text-anchor="start" style="white-space: pre;" direction="ltr">The model is not expressive enough</text></g><g transform="translate(120.20662808576526 663.3900223620803) rotate(0 247 12.5)"><text x="0" y="18" font-family="Virgil, Segoe UI Emoji" font-size="20px" fill="#000000" text-anchor="start" style="white-space: pre;" direction="ltr">E.g., linear regression to solve quadratic problems</text></g><g transform="translate(95.95796503577185 718.9141660241985) rotate(0 311 12.5)"><text x="0" y="18" font-family="Virgil, Segoe UI Emoji" font-size="20px" fill="#000000" text-anchor="start" style="white-space: pre;" direction="ltr">The dataset does not contain enough info from which to learn</text></g><g transform="translate(123.95597187888961 753.9939641548008) rotate(0 229 12.5)"><text x="0" y="18" font-family="Virgil, Segoe UI Emoji" font-size="20px" fill="#000000" text-anchor="start" style="white-space: pre;" direction="ltr">E.g., no available features explain the target</text></g><g transform="translate(725.5975119234736 583.6452539829188) rotate(0 136 18)"><text x="0" y="25" font-family="Virgil, Segoe UI Emoji" font-size="28px" fill="#a61e4d" text-anchor="start" style="white-space: pre;" direction="ltr">Outdated Examples</text></g><g transform="translate(754.4100736960536 631.2169813154142) rotate(0 259 25)"><text x="0" y="18" font-family="Virgil, Segoe UI Emoji" font-size="20px" fill="#000000" text-anchor="start" style="white-space: pre;" direction="ltr">Concept drift: change in the statistical relationship</text><text x="0" y="43" font-family="Virgil, Segoe UI Emoji" font-size="20px" fill="#000000" text-anchor="start" style="white-space: pre;" direction="ltr">                between the features and the label</text></g><g transform="translate(793.1894227916655 696.2701124291598) rotate(0 187 12.5)"><text x="0" y="18" font-family="Virgil, Segoe UI Emoji" font-size="20px" fill="#000000" text-anchor="start" style="white-space: pre;" direction="ltr">E.g., user preferences changing in time</text></g><g transform="translate(75.64385521446638 841.9307232646061) rotate(0 55 18)"><text x="0" y="25" font-family="Virgil, Segoe UI Emoji" font-size="28px" fill="#a61e4d" text-anchor="start" style="white-space: pre;" direction="ltr">Outliers</text></g><g transform="translate(102.85746952911359 900.1312920804812) rotate(0 245 25)"><text x="0" y="18" font-family="Virgil, Segoe UI Emoji" font-size="20px" fill="#000000" text-anchor="start" style="white-space: pre;" direction="ltr">Examples that look dissimilar to the majority of </text><text x="0" y="43" font-family="Virgil, Segoe UI Emoji" font-size="20px" fill="#000000" text-anchor="start" style="white-space: pre;" direction="ltr">examples from the dataset</text></g><g transform="translate(707.4227608785059 834.6482680513727) rotate(0 101.5 18)"><text x="0" y="25" font-family="Virgil, Segoe UI Emoji" font-size="28px" fill="#a61e4d" text-anchor="start" style="white-space: pre;" direction="ltr">Data Leakage</text></g><g stroke-linecap="round" transform="translate(764.2453063674584 941.3661339690443) rotate(0 105.96030711849471 53.98989350016927)"><path d="M26.99 0 M26.99 0 C69.63 1.14, 107.67 -0.61, 184.93 0 M184.93 0 C201.95 -1.59, 211.05 7.71, 211.92 26.99 M211.92 26.99 C212.65 44.26, 213 60.06, 211.92 80.98 M211.92 80.98 C210.47 99.81, 203.81 109.15, 184.93 107.98 M184.93 107.98 C152.86 109.33, 121.67 109.65, 26.99 107.98 M26.99 107.98 C9.7 109.34, -1.99 99.83, 0 80.98 M0 80.98 C0.08 66.68, 0.48 51.91, 0 26.99 M0 26.99 C0.09 7.46, 10.01 -1.12, 26.99 0" stroke="#000000" stroke-width="2.5" fill="none" stroke-dasharray="8 10"></path></g><g transform="translate(783.205613485954 957.8560274692136) rotate(0 87 37.5)"><text x="87" y="18" font-family="Virgil, Segoe UI Emoji" font-size="20px" fill="#000000" text-anchor="middle" style="white-space: pre;" direction="ltr">Information </text><text x="87" y="43" font-family="Virgil, Segoe UI Emoji" font-size="20px" fill="#000000" text-anchor="middle" style="white-space: pre;" direction="ltr">available at the </text><text x="87" y="68" font-family="Virgil, Segoe UI Emoji" font-size="20px" fill="#000000" text-anchor="middle" style="white-space: pre;" direction="ltr">prediction time</text></g><g stroke-linecap="round"><g transform="translate(735.6213741291594 1102.1573994355276) rotate(0 276.51965263403963 0.3260255214281642)"><path d="M0.22 0.71 C92.74 1.03, 461.88 1.31, 554.16 1.06 M-1.12 0.04 C91.35 0.12, 461 -0.52, 553.38 -0.5" stroke="#000000" stroke-width="2" fill="none"></path></g><g transform="translate(735.6213741291594 1102.1573994355276) rotate(0 276.51965263403963 0.3260255214281642)"><path d="M526.39 10.32 C533.25 7.56, 536.42 4.31, 554.25 -1.52 M525.03 8.93 C531.74 6.9, 539.97 5.02, 552.56 0.33" stroke="#000000" stroke-width="2" fill="none"></path></g><g transform="translate(735.6213741291594 1102.1573994355276) rotate(0 276.51965263403963 0.3260255214281642)"><path d="M526.37 -10.2 C533.09 -8.45, 536.26 -7.18, 554.25 -1.52 M525.01 -11.59 C531.81 -8.5, 540.04 -5.26, 552.56 0.33" stroke="#000000" stroke-width="2" fill="none"></path></g></g><mask></mask><g stroke-linecap="round"><g transform="translate(1010.2521531181228 1083.469123366478) rotate(0 -0.316773803752767 -69.86969665864672)"><path d="M0.35 0.02 C0.26 -22.97, 0.53 -114.92, 0.33 -137.78 M-0.93 -1.02 C-1.23 -24.4, -0.86 -116.76, -0.44 -139.76" stroke="#000000" stroke-width="2" fill="none"></path></g></g><mask></mask><g stroke-linecap="round" transform="translate(1041.1867030702033 941.8652273952212) rotate(0 106 52.5)"><path d="M26.25 0 M26.25 0 C82.78 -0.32, 141.46 0.85, 185.75 0 M185.75 0 C203.98 -1.9, 212.67 10.62, 212 26.25 M212 26.25 C212.05 45.84, 214.1 61.36, 212 78.75 M212 78.75 C211.76 98.16, 203.34 106.33, 185.75 105 M185.75 105 C124.56 105.67, 66.49 107.12, 26.25 105 M26.25 105 C6.81 103.29, 1.66 96.65, 0 78.75 M0 78.75 C0.83 59.44, -1.31 38.18, 0 26.25 M0 26.25 C1.42 8.22, 8.33 1.91, 26.25 0" stroke="#000000" stroke-width="2.5" fill="none" stroke-dasharray="8 10"></path></g><g transform="translate(1049.6867030702033 956.8652273952212) rotate(0 97.5 37.5)"><text x="97.5" y="18" font-family="Virgil, Segoe UI Emoji" font-size="20px" fill="#000000" text-anchor="middle" style="white-space: pre;" direction="ltr">Information </text><text x="97.5" y="43" font-family="Virgil, Segoe UI Emoji" font-size="20px" fill="#000000" text-anchor="middle" style="white-space: pre;" direction="ltr">unavailable at the </text><text x="97.5" y="68" font-family="Virgil, Segoe UI Emoji" font-size="20px" fill="#000000" text-anchor="middle" style="white-space: pre;" direction="ltr">prediction time</text></g><g stroke-linecap="round"><g transform="translate(1006.439633890388 1131.511486871379) rotate(0 2.696007973356245 -16.434026836583143)"><path d="M-0.25 -0.9 C0.58 -6.72, 4.88 -28.77, 5.64 -34.11 M1.82 1.24 C2.47 -4.49, 4.06 -26.76, 4.88 -32.79" stroke="#000000" stroke-width="2" fill="none"></path></g><g transform="translate(1006.439633890388 1131.511486871379) rotate(0 2.696007973356245 -16.434026836583143)"><path d="M7.79 -15.76 C6.9 -23.47, 7.07 -27.16, 4.45 -32.85 M9.34 -16.81 C7.5 -19.96, 6.86 -24.13, 4.06 -33.51" stroke="#000000" stroke-width="2" fill="none"></path></g><g transform="translate(1006.439633890388 1131.511486871379) rotate(0 2.696007973356245 -16.434026836583143)"><path d="M-3.81 -16.93 C-0.61 -24.2, 3.66 -27.48, 4.45 -32.85 M-2.27 -17.98 C-1.39 -20.87, 0.67 -24.78, 4.06 -33.51" stroke="#000000" stroke-width="2" fill="none"></path></g></g><mask></mask><g transform="translate(957.7081237342372 1145.3391069337267) rotate(0 48 25)"><text x="48" y="18" font-family="Virgil, Segoe UI Emoji" font-size="20px" fill="#000000" text-anchor="middle" style="white-space: pre;" direction="ltr">Prediction</text><text x="48" y="43" font-family="Virgil, Segoe UI Emoji" font-size="20px" fill="#000000" text-anchor="middle" style="white-space: pre;" direction="ltr">time</text></g><g stroke-linecap="round"><g transform="translate(1147.4150418434965 936.8927780751692) rotate(0 -143.9895471552818 -18.583840321916796)"><path d="M-1.8 0.92 C0.69 -10.67, 0.53 -23.84, 0.76 -40.51 M0.03 0.89 C-0.78 -11.89, -0.26 -24.99, -0.12 -39 M-0.41 -39.5 C-80.16 -39.04, -161.76 -40.84, -287.37 -39.77 M-0.48 -39.14 C-63.09 -41.58, -125.55 -40.52, -287.25 -38.49 M-288.74 -37.8 C-288.57 -21.47, -288.91 -3.45, -288.36 3.13 M-287.55 -38.21 C-287.03 -27.85, -286.97 -15.78, -286.06 3.38" stroke="#000000" stroke-width="2" fill="none"></path></g><g transform="translate(1147.4150418434965 936.8927780751692) rotate(0 -143.9895471552818 -18.583840321916796)"><path d="M-295.95 -15.43 C-291.56 -9.37, -289.29 -4.93, -285.3 2.06 M-294.13 -15.46 C-292.13 -9.94, -289.1 -4.75, -286.17 3.57" stroke="#000000" stroke-width="2" fill="none"></path></g><g transform="translate(1147.4150418434965 936.8927780751692) rotate(0 -143.9895471552818 -18.583840321916796)"><path d="M-281.37 -16.02 C-281.34 -9.84, -283.44 -5.21, -285.3 2.06 M-279.55 -16.05 C-282.07 -10.38, -283.57 -5.01, -286.17 3.57" stroke="#000000" stroke-width="2" fill="none"></path></g></g><mask></mask><g transform="translate(945.1958800854791 866.1564110486142) rotate(0 68 12.5)"><text x="68" y="18" font-family="Virgil, Segoe UI Emoji" font-size="20px" fill="#000000" text-anchor="middle" style="white-space: pre;" direction="ltr">Contamination</text></g><g transform="translate(1255.2976716228131 1116.507219101186) rotate(0 23 12.5)"><text x="23" y="18" font-family="Virgil, Segoe UI Emoji" font-size="20px" fill="#000000" text-anchor="middle" style="white-space: pre;" direction="ltr">Time</text></g></svg>