<svg version="1.1" xmlns="http://www.w3.org/2000/svg" viewBox="0 0 1374.9723275974175 885.7979458686696" width="4124.916982792252" height="2657.3938376060087">
  <!-- svg-source:excalidraw -->
  
  <defs>
    <style class="style-fonts">
      @font-face {
        font-family: "Virgil";
        src: url("https://excalidraw.com/Virgil.woff2");
      }
      @font-face {
        font-family: "Cascadia";
        src: url("https://excalidraw.com/Cascadia.woff2");
      }
    </style>
  </defs>
  <rect x="0" y="0" width="1374.9723275974175" height="885.7979458686696" fill="#ffffff"></rect><g stroke-linecap="round" transform="translate(10 10) rotate(0 251.5 23)"><path d="M0 0 C0 0, 0 0, 0 0 M0 0 C0 0, 0 0, 0 0 M-0.99 5.53 C0.99 3.89, 1.36 3.01, 3.71 0.49 M-0.73 6.89 C2.35 4.72, 3.98 2.51, 5.71 0.15 M2.41 13 C1.64 11.06, 3.94 5.67, 13.23 1.17 M-1.28 12.55 C3.09 9.5, 4.8 6.01, 11.87 -0.36 M-2.63 15.25 C2.76 9.56, 8.74 7.08, 11.73 -1.91 M0.14 19 C6.75 13.2, 9.22 5.99, 15.41 1.42 M-2.78 26.56 C9.62 21.23, 8.75 15.42, 23.4 -2.58 M-1.58 24.91 C6.01 16.42, 15.4 9, 22.8 -1.3 M-0.26 33.3 C7.83 21.92, 20.23 9.59, 27 -0.8 M1.04 28.56 C10.32 20.56, 17.68 9.28, 25.49 1.02 M-3.28 33.22 C9.36 24.87, 20.64 17.49, 28.88 -3.01 M1.24 35.2 C12.28 22.02, 24.02 9.92, 32.17 0.8 M-2.35 44.88 C13.11 32.08, 21.55 24, 35.47 -0.77 M-0.84 43.87 C10.82 34, 17.27 23.8, 35.3 -0.19 M-2.01 43.46 C15.92 35, 23.04 20.36, 43.45 -1.83 M0.7 48.72 C11.23 37.26, 17.43 25.49, 43.9 -0.35 M8.81 50.43 C18.1 32.33, 23.18 27.77, 43.53 -1.07 M5.65 46.19 C15.53 36.8, 25.4 27.8, 45.81 0.25 M12.63 43.7 C18.83 33.24, 32.71 22.5, 50.73 -3.55 M10.01 46.62 C21.8 32.78, 30.66 21.87, 52.38 -1.66 M20.21 50.46 C34.02 24.46, 46.5 7.54, 60.07 -3.46 M17.28 48.62 C30.11 32.56, 38.7 24.09, 56.78 2.02 M22.33 44.76 C30.98 32.64, 44.71 26.42, 60.86 0.83 M20.73 46.15 C36.17 35.31, 45.18 19.52, 62.73 1.18 M28.06 44.49 C39.02 32, 52.68 17.71, 72.46 3.81 M28.22 46.98 C40.06 35.19, 50.81 20.42, 70.71 2.07 M36.48 44.39 C45.59 28.8, 61.44 13.73, 70.48 1.8 M32.36 47.25 C46.83 31.7, 58.01 18.71, 74.8 1.74 M34.98 49.02 C51.61 30.28, 64.12 16.52, 78.59 -2.02 M39.35 45.86 C51.68 32.13, 69.85 12.17, 80.84 -1.42 M42.97 45.82 C58.44 37.04, 68.73 23.76, 86.72 3.35 M43.14 47.11 C51.78 37.05, 61.97 26.5, 83.23 -1.18 M46.12 46.03 C58.06 33.68, 68.29 21.55, 86.84 1.78 M50.28 47.07 C66.89 29.98, 81.91 8.37, 91.16 -0.99 M56.16 49.79 C69.94 26.25, 87.51 14.34, 95.2 -1.03 M54.08 48.18 C67.44 31.52, 79.45 17.02, 97.39 0.5 M61.1 47.03 C67.62 38.68, 81.23 26.01, 100.09 3.47 M59.4 45.67 C71.87 32.43, 87.91 16.16, 100.43 0.03 M68.96 46.55 C74.53 39.38, 81.12 26.39, 108.07 3.65 M64.9 46.14 C79.58 29.58, 95.95 8.27, 105.39 0.1 M73.4 45.74 C82.82 35.09, 93.89 27.2, 107.73 -3.22 M71.15 46.74 C77.92 37.57, 88.58 26.02, 110.14 -0.41 M76.74 47.84 C85.02 34.7, 101.81 19.75, 115.29 -1.35 M74.12 45.94 C89.57 31.01, 102.94 16.81, 117.45 0.93 M80.97 47.17 C90.54 32.87, 102.52 22.05, 125.64 -3.05 M78.74 46.33 C95.98 28.45, 110.6 13.51, 120.53 0.88 M85.37 46.9 C93.32 37.5, 105.9 29.62, 127.32 0.44 M86.98 45.78 C95.8 34.1, 108.47 20.47, 128.51 1.3 M90.27 48.05 C103.97 30.25, 119.85 12.72, 132.2 0.73 M92.12 48.01 C100.92 32.77, 110.71 21.19, 130.6 0.35 M95.26 50.48 C110.7 30.59, 122.74 14.54, 139.13 1.28 M95.47 49.08 C111.57 32.08, 125.22 13.99, 138.28 -0.96 M102.95 49.88 C119.87 32.37, 131.12 12.91, 140.29 2.36 M100.66 47.86 C116.53 29.44, 134.02 10.08, 142.1 -0.31 M109.27 46.81 C125.39 33.61, 139.88 16.76, 148.86 -1.86 M106.34 48.54 C120.16 35.63, 130.23 22.45, 149.88 0.45 M115.14 43.65 C120.46 38.85, 128.75 24.31, 157.31 1.59 M112.48 47.18 C125.95 29.87, 142.52 8.76, 155.52 1.82 M116.79 45.64 C127.67 32.42, 144.58 20.94, 157.13 1.54 M117.09 46.11 C131.14 33.3, 141.81 21.78, 157.18 1.12 M125.47 49.85 C131.65 32.97, 138.8 24.17, 161.12 3.65 M122.47 48.54 C132.25 36.34, 136.92 28.19, 166.11 -1.04 M125.71 46.21 C140.68 31.58, 154.6 15.99, 167.08 3.45 M127.96 48.97 C143.71 26.94, 162.12 9.02, 168.81 1.84 M135.08 46.48 C146.49 38.69, 151.34 20.45, 172.11 3.28 M132.22 47.76 C145.12 34.57, 151.72 24.79, 175.86 0.54 M138.41 45.26 C155.3 26.81, 168.76 10.28, 176.34 1.37 M137.95 45.57 C150.63 34.91, 157.21 25.51, 180.13 0.69 M147.58 49.02 C153.07 34.76, 165.17 17.34, 189.18 0.74 M146.13 45.91 C159.39 28.55, 176.35 10.81, 185.53 1.25 M151.76 45.04 C157.53 33.91, 170.43 27.17, 193.05 -1.71 M148.8 45.59 C161.24 33.6, 172.74 18.24, 189.27 0.99 M153.13 46.47 C169.55 28.1, 190.84 8.68, 197.69 1.75 M155.3 45.3 C171.56 30.52, 184.19 13.27, 194.6 1.03 M157.16 45.29 C176.92 28.76, 192.4 16.97, 203.84 2.71 M161.01 47.99 C172.09 32.26, 187.61 13.6, 201.09 -0.7 M168.35 49.32 C178.57 39.3, 184.27 23.95, 209.53 1.57 M165.62 45.49 C178.68 32.83, 192.3 17.35, 205.33 1.07 M172.48 43.24 C190.19 30.63, 203.73 12.37, 213.83 -3.39 M169.83 44.94 C187.84 27, 203.52 12.53, 211.22 1.44 M172.37 49.57 C189.07 40.57, 190.15 25.21, 215.09 0.93 M177.69 47.32 C191.47 29.75, 205.72 12.62, 218.71 -0.18 M178.11 49.65 C189.62 39.12, 202.55 27.96, 222.67 -0.5 M181.26 45.9 C195.19 30.7, 210.57 15.19, 222.03 -1.53 M186.83 44.7 C196.97 33.82, 205.06 26.17, 231.24 -1.91 M186.9 48.83 C202.3 29.12, 217.49 8.83, 226.48 0.96 M188.28 49.51 C204.37 30.48, 213.99 21.59, 232.49 -3.65 M191.37 46.3 C204.23 33.24, 217.18 18.23, 234.64 -1.29 M195.86 45.71 C209.37 28.7, 226.14 10.08, 236.72 -2.48 M199.36 45.35 C213.24 28.87, 228.64 11.09, 238.49 2.2 M205.68 47.04 C214.15 37.1, 226.18 22.97, 239.91 1.67 M200.99 48.59 C215.96 30.06, 228.48 14.95, 244.92 -0.27 M210.1 45.08 C218.8 36.22, 225.76 22.54, 246.72 -1.03 M207.94 45.45 C223.09 31.09, 236.3 16.83, 249.29 0.21 M209.53 46.26 C225.09 36.82, 227.98 30.72, 252.08 3.44 M211.7 46.7 C224.13 34.4, 237.26 22.31, 255.5 0.34 M218.66 48.82 C235.79 28.51, 247.88 10.96, 260.96 1.94 M220.27 46.93 C229.78 37.04, 238.34 26.03, 258.23 -0.81 M222.22 47.89 C243.01 27.08, 253.48 8.74, 262.62 3.16 M224.49 47.08 C235.01 32.65, 247.49 22.17, 263.73 0.62 M229.2 44.41 C237.2 41.21, 243.75 27.81, 266.34 2.66 M230.72 48.87 C243.52 29.33, 259.95 10.04, 272.05 -0.17 M236.63 50.19 C244.47 38.14, 256.12 25.26, 275.67 -0.18 M235.12 45.41 C246.44 31.42, 260.99 15.15, 273.75 -2.14 M243.84 48.85 C252.32 32.4, 271.31 10.77, 284.22 2.88 M240.4 47.59 C247.69 38.28, 257.41 23.8, 280.24 0.08 M248.15 48.89 C262.66 26.4, 276.73 14.03, 289.86 -2.09 M246.07 46.65 C258.1 32.57, 267.79 19.67, 284.43 -1.34 M251.21 44.63 C264.75 31.6, 275.48 20.03, 290.5 1.85 M249.19 48.64 C262.39 34.11, 270.88 20.46, 291.05 -0.88 M254.66 45.24 C272.66 27.29, 286.36 12.89, 298.32 -0.57 M254.61 48.98 C267.87 34.25, 278.93 21.95, 297.38 -1.19 M258.45 43.73 C272.41 33.87, 285.72 20.1, 303.55 -3.71 M259.71 46.86 C269.27 36.67, 280.13 21.27, 303.49 1.4 M264.54 45.98 C280.12 32.68, 292.89 14.53, 304.69 -4.14 M264.71 47.84 C279.31 35.51, 289.45 19.65, 308.98 -0.62 M275.19 47.66 C290.04 28.13, 305.43 8.36, 312.26 -3.54 M273.34 46.29 C285.79 30.54, 303.5 10.6, 311.29 0.6 M280.67 47.35 C289.68 27.46, 308.54 15.63, 315.09 0.21 M275.13 47.92 C289.88 29.86, 306.89 13.91, 318.35 -1.3 M281.56 47.41 C298.03 30.04, 317.21 10.46, 324.02 2.1 M282.18 48.26 C297.22 28.57, 309.32 14.22, 322.94 -0.32 M284.44 51.09 C301.17 34.02, 313.95 14.88, 330.17 -1.05 M287.37 47.18 C298.45 38.21, 306.24 29.33, 327.36 0.33 M292.19 47.46 C303.89 32.16, 312.23 23.91, 332.7 2.44 M293.12 47.34 C304.88 33.96, 316.75 18.61, 333.71 -1.19 M299.73 48.45 C313.94 25.03, 327.14 9.17, 337.05 0.08 M297.66 48.78 C304.91 37.73, 314.88 27.26, 340.63 1.08 M299.57 50.57 C314.28 37.08, 326.72 24.26, 342.69 0.24 M303.11 48.1 C311.31 36.02, 320.76 26.63, 345.58 -0.55 M304.92 44.16 C316.42 31.39, 328 19.85, 348.72 1.86 M309.01 45.19 C325.91 29.96, 338.78 13.77, 348.88 -0.22 M316.64 46.71 C328.61 31.82, 338.53 16.28, 352.88 3.73 M313.85 46.08 C322.7 37.82, 329.99 28.52, 355.29 0.28 M320.89 48.48 C333.23 29.1, 347.5 17.74, 358.61 -2.24 M319.16 46.09 C328.44 37.8, 336.86 24.84, 359.53 2.23 M324.87 49.63 C344.09 30.28, 353.17 10.11, 364.63 2.66 M323.79 48.38 C339.61 29.79, 354.64 14.25, 366.36 1.24 M331.03 45.14 C345.61 34.87, 353.32 23.72, 368.7 -2.98 M328.61 46.42 C343.59 33.22, 354.96 20.3, 368.81 1.76 M332.89 45.83 C341.74 33.89, 357.19 22.55, 373.84 0.26 M334.81 46.54 C344.17 36.13, 356.08 21.34, 377.01 -0.47 M337.22 47.38 C356.59 35.18, 365.21 17.59, 384.13 -2.35 M340.61 46.37 C349.64 37.4, 360.12 24.89, 380.34 0.17 M343.85 51.3 C362.49 30.87, 379.3 7.68, 386.89 -2.71 M347.53 49.39 C355.39 35.91, 363.88 26.71, 388.25 1.59 M351.85 49.95 C355.9 37.33, 370.64 23.02, 388.52 3.13 M353.14 47.39 C365.55 30.14, 378.98 14.97, 392.48 0.54 M355.36 47.53 C363.65 34.14, 376.9 25.23, 396.67 -0.02 M357.32 46.99 C367.99 33.15, 377.69 22.73, 395.82 -0.89 M365.79 45.09 C375.57 34.67, 381.43 23.18, 400.02 -1.54 M362.96 48.16 C373.35 31.51, 387.42 16.32, 402.36 -0.81 M367.57 45.51 C383.15 34.04, 394.79 19.83, 406.55 -3.93 M366.3 46.67 C377.92 37.33, 388.41 23.31, 410.22 1.02 M372.43 46.54 C384.49 35.02, 391.26 22.74, 415.25 -1.87 M373.57 48.63 C389.73 30.31, 402.78 9.8, 413.84 1.67 M375.11 45.74 C389.01 32.64, 396.2 28.83, 422.41 2.81 M379.34 48.98 C391.96 27.98, 408.92 10.4, 420.7 1.53 M383.65 49.54 C396.92 31.97, 413.06 10.95, 425.35 -1.87 M383.2 45.98 C392.61 33.98, 401.77 24.07, 425.56 -1.18 M391.11 46.2 C401.82 38.26, 411.4 20.75, 428.65 2.94 M388.06 47.74 C401.65 28.58, 418.59 11.46, 431.25 0.07 M397.84 46.84 C410.61 27.2, 424.32 16.19, 431.95 -0.05 M392.86 46.67 C410.31 30.46, 426.57 11.95, 434.88 -1.32 M399.21 50.4 C410.86 34.27, 428.27 17.18, 444.14 0.7 M398.84 46.03 C413.36 30.04, 430.8 11.38, 440.62 1.34 M407.87 44.67 C416.45 36.89, 425.5 24.17, 447.18 2.58 M406.28 46.38 C416.49 33.54, 426.45 25.31, 445.92 -1.42 M409.53 43.31 C418.46 40.34, 429.1 22.94, 450.27 -2.17 M408.79 48.15 C420.57 35.36, 428.05 23.22, 450.3 -0.73 M417.14 46.78 C429.34 27.19, 446.71 12.14, 453.67 2.53 M413.98 46.05 C425.23 34.55, 438.29 19.83, 457.55 1.09 M418.7 47.43 C435.44 29.3, 450.93 18.49, 462.92 1.58 M421.78 47.67 C427.63 34.28, 438.82 24.74, 460.54 1.06 M422.86 47.17 C438.21 35.37, 449.29 19.22, 468.57 1.77 M424.53 48.63 C441.78 29.54, 456.56 12.82, 467.4 -1.98 M433.87 50.77 C444.65 29.35, 459.24 15.39, 467.81 1.44 M432.45 47.41 C445.73 31.22, 456.31 16.73, 469.68 -0.1 M434.73 51.07 C443.43 34.8, 459.28 20.26, 479.49 -0.2 M435.24 48.05 C452.26 30.69, 466.24 13, 475.83 -1.56 M440.67 46.79 C453.63 32.53, 466.97 10.82, 479.14 -1.85 M442.15 47.43 C456.6 29.84, 471.16 12.98, 480.77 -0.02 M446.98 47.48 C455.27 34.84, 470.8 20.14, 484.58 1.61 M448.22 45.76 C457.88 34.66, 466.76 24.45, 485.97 0.66 M451.22 50.51 C460.29 30.44, 473.88 16.01, 495.64 0.2 M451.02 49.06 C465.65 33.33, 479.94 15.06, 493.67 0.98 M456.99 46.14 C471.3 37.2, 478.19 20.85, 500.46 1.71 M456.94 47.7 C472.19 28.89, 488.61 13.78, 499.68 0.25 M464.16 50.41 C480.38 32.2, 495.69 10.29, 503.2 -3.17 M461.91 46.85 C471.92 35.75, 483.44 21.68, 503.61 -0.88 M464.65 46.28 C479.65 35.74, 486.48 18.56, 500.37 6.86 M465.66 49.05 C478.19 34.59, 487.53 22.36, 503.69 4.83 M472.63 48.49 C483.71 35.95, 488.29 28.34, 503.68 10.86 M472.45 48.63 C481.57 34.76, 492.83 26.71, 502.09 11.89 M480.33 44.66 C486.22 40.57, 493.23 28.36, 499.25 21.05 M477.37 46.27 C486.28 41.18, 488.9 33, 502.68 18.93 M480.25 44.23 C493.4 36.93, 495.4 30.31, 506.49 22.47 M483.02 47.46 C491.38 37.05, 497.72 30.52, 504.36 25.91 M484.92 43.51 C488.77 45.7, 499.06 37.52, 501.83 34 M489.82 49.04 C492.06 43.37, 498.5 35.92, 503.35 32.61 M493.63 49.34 C497.11 43.58, 499.93 41.85, 503.88 37.78 M493.35 46.1 C496.42 42.44, 500.12 39.48, 501.88 37.62 M500.19 48.28 C499.78 45.49, 501.56 45.55, 503.22 43.8 M499.5 47.6 C500.45 45.74, 502.42 45.3, 503.18 42.67" stroke="#228be6" stroke-width="0.5" fill="none"></path><path d="M1.08 -0.4 C137 -2.51, 274.15 -3.12, 503.18 0.74 M-0.08 0.3 C158.58 1.44, 317.23 0.43, 502.65 0.13 M505.24 -1.49 C503.56 11.88, 503.16 31.38, 506.11 45 M503.19 1.06 C502.03 18.17, 504.81 37.33, 502 45.75 M501.94 45.58 C333.94 45.74, 168.99 44.26, 0.51 45.97 M503.57 46.67 C320.7 41.96, 140.08 41.57, 0.44 46.43 M3.63 46.9 C-1.3 37.26, -0.2 22.42, 1.43 0.81 M1.59 47.75 C1.49 28.23, 1.31 13.77, 1.79 -0.07" stroke="#000000" stroke-width="1" fill="none"></path></g><g transform="translate(52 15) rotate(0 209.5 18)"><text x="209.5" y="25" font-family="Virgil, Segoe UI Emoji" font-size="28px" fill="#000000" text-anchor="middle" style="white-space: pre;" direction="ltr">Dealing with Imbalanced Data</text></g><g stroke-linecap="round" transform="translate(12.320801324203785 56.33642760721705) rotate(0 676.3257631366068 409.73075913072626)"><path d="M-0.23 -0.69 C466.5 1.4, 933.8 3.44, 1352.9 -1.43 M1352.58 1.6 C1351.95 232.35, 1351.26 465.8, 1353.1 819.69 M1352.82 818.18 C1066.17 815.93, 780.9 815.04, 1.55 819.36 M-0.73 819.39 C0.86 580.15, -1.42 339.36, 0.53 1.46" stroke="#000000" stroke-width="1.5" fill="none" stroke-dasharray="8 9"></path></g><g transform="translate(51.499251546958476 98.14512470751652) rotate(0 514.5 12.5)"><text x="0" y="18" font-family="Virgil, Segoe UI Emoji" font-size="20px" fill="#000000" text-anchor="start" style="white-space: pre;" direction="ltr">Class imbalance is a condition in the data that can significantly affect the performance of the model..</text></g><g transform="translate(309.37279282467534 153.3763200801768) rotate(0 237.5 12.5)"><text x="0" y="18" font-family="Virgil, Segoe UI Emoji" font-size="20px" fill="#000000" text-anchor="start" style="white-space: pre;" direction="ltr">.. independently of the chosen learning algorithm.</text></g><g stroke-linecap="round"><g transform="translate(248.25149539437734 141.24093491321582) rotate(0 21.82212452969725 12.989506459370205)"><path d="M-0.07 0.92 C0.16 4.35, -7.37 17.64, 0.59 21.62 C8.54 25.61, 39.77 24.13, 47.69 24.81 M-1.56 0.35 C-1.38 4.44, -8.14 18.54, -0.08 22.75 C7.97 26.96, 38.69 24.95, 46.76 25.62" stroke="#a61e4d" stroke-width="2" fill="none"></path></g><g transform="translate(248.25149539437734 141.24093491321582) rotate(0 21.82212452969725 12.989506459370205)"><path d="M25.63 34.49 C28.08 31.22, 33.15 29.96, 46.69 26.02 M23.67 33.21 C29.36 31.37, 33.01 30.64, 47.54 25.68" stroke="#a61e4d" stroke-width="2" fill="none"></path></g><g transform="translate(248.25149539437734 141.24093491321582) rotate(0 21.82212452969725 12.989506459370205)"><path d="M25.79 18.06 C28.35 18.67, 33.38 21.31, 46.69 26.02 M23.84 16.77 C29.63 18.37, 33.23 21.07, 47.54 25.68" stroke="#a61e4d" stroke-width="2" fill="none"></path></g></g><mask></mask><g transform="translate(580.9988027539875 213.65106083932005) rotate(0 117.5 12.5)"><text x="0" y="18" font-family="Virgil, Segoe UI Emoji" font-size="20px" fill="#a61e4d" text-anchor="start" style="white-space: pre;" direction="ltr">How can we mitigate it?</text></g><g transform="translate(171.89148580558685 296.13237953135103) rotate(0 85 18)"><text x="0" y="25" font-family="Virgil, Segoe UI Emoji" font-size="28px" fill="#e67700" text-anchor="start" style="white-space: pre;" direction="ltr">Oversampling</text></g><g transform="translate(48.64364046430455 348.82484964489777) rotate(0 214.5 37.5)"><text x="214.5" y="18" font-family="Virgil, Segoe UI Emoji" font-size="20px" fill="#000000" text-anchor="middle" style="white-space: pre;" direction="ltr">Upsample the minority class, duplicating or </text><text x="214.5" y="43" font-family="Virgil, Segoe UI Emoji" font-size="20px" fill="#000000" text-anchor="middle" style="white-space: pre;" direction="ltr">generating new data samples, to decrease </text><text x="214.5" y="68" font-family="Virgil, Segoe UI Emoji" font-size="20px" fill="#000000" text-anchor="middle" style="white-space: pre;" direction="ltr">the gap with the majority class</text></g><g transform="translate(90.81807231432686 660.0490762013142) rotate(0 65.5 12.5)"><text x="0" y="18" font-family="Virgil, Segoe UI Emoji" font-size="20px" fill="#000000" text-anchor="start" style="white-space: pre;" direction="ltr">Original data</text></g><g stroke-linecap="round" transform="translate(84.40926280718668 455.1807833826897) rotate(0 29.50319218489858 91.48379742239922)"><path d="M0 0 C0 0, 0 0, 0 0 M0 0 C0 0, 0 0, 0 0 M0.93 13.19 C3.23 7.69, 6.55 7.43, 11.72 0.18 M-0.12 12.34 C3.39 9.54, 5.67 5.61, 10.82 0.26 M2 23.37 C6.72 14.23, 15.01 7.1, 22.01 1.62 M0.93 24.03 C7.24 16.93, 12.61 9.78, 20.59 -0.18 M1.64 38.34 C7.79 28.68, 13.54 17.74, 31.07 -1.32 M0.31 36.32 C11.28 23.54, 21.59 12.55, 31.82 -0.03 M-0.27 47.8 C17.71 29.61, 32.5 11.81, 43.85 -1.19 M-0.3 49.01 C7.22 39.56, 16.03 28.22, 42.96 0.66 M0.4 61.78 C18.33 41.77, 35.02 21.77, 54.94 0.22 M-0.21 60.8 C16.01 40.7, 33.48 22.08, 53.59 0.23 M-1.64 72.36 C20.77 53.33, 36.11 32.6, 62.37 2.73 M1.08 72.09 C21.43 48.64, 41.63 23.12, 62.71 1.5 M1.75 86.98 C13.85 68.34, 29.83 50.42, 60.5 15.26 M-0.49 85.49 C17.47 65.83, 32.84 46.87, 62.43 14.52 M-1.05 97.64 C14.93 79.07, 31.63 61.97, 62.58 26.46 M0 98.34 C15.33 80.2, 29.71 62.86, 61.16 26.47 M0.77 110.4 C22.36 82.59, 45.45 56.91, 63.17 37.34 M-0.65 109.4 C23.29 83.26, 47.02 58.3, 60.96 39.51 M-0.07 122.43 C17.05 103.88, 33.29 84.21, 62.32 52.53 M0.59 121.19 C13.09 106.68, 26.64 93.52, 62.3 51.29 M1.27 135.46 C24.7 105.98, 48.59 77.58, 63.64 61.71 M-0.21 134.65 C24 105.57, 48.82 79.57, 60.99 63.67 M0.53 145.06 C14.23 129.52, 33.41 110.9, 60.53 77.66 M-0.32 145.7 C13.69 129.92, 27.31 113.86, 61.1 75.97 M-0.8 157.87 C13.14 145.51, 26.84 130.82, 62.24 89.7 M-0.72 159.73 C12.86 143.97, 27.52 127.96, 61.81 87.71 M-1.31 169.11 C23.06 142.91, 42.68 119.37, 61.51 100.76 M0.71 170.31 C16.63 151.26, 33.91 131.89, 61.78 100.87 M-0.15 183.56 C15.47 163.99, 27.82 150.04, 60.64 112.85 M-0.45 183.51 C15.7 163.08, 32.07 144, 61.95 112.67 M7.02 186.33 C27.06 162.59, 50.54 138.38, 62.36 124.29 M5.61 187.78 C17.8 172.59, 30.89 157.17, 61.22 124.01 M17.73 187.11 C31.16 173.27, 40.78 157.49, 60.66 135 M17.39 187.62 C29.69 172.89, 44.68 156.62, 61.95 136.01 M26.16 188.22 C35.69 176.83, 43.61 170.05, 62.91 147.95 M28.26 188.74 C38.41 175.94, 49.55 161.26, 60.92 148.75 M38.51 188.04 C46.93 179.58, 50.54 171.58, 61.47 162.2 M38.63 188.78 C43.6 181.92, 49.59 175.81, 61.59 161.52 M47.89 186.73 C49.83 185.9, 53.26 178.84, 59.73 174.41 M49.54 188.35 C54.24 183.28, 58.65 177.39, 60.98 173.58 M-0.03 182.94 C-0.03 182.94, -0.03 182.94, -0.03 182.94 M-0.03 182.94 C-0.03 182.94, -0.03 182.94, -0.03 182.94 M12 184.2 C7.26 178.47, 2.07 174.84, 0.07 173.03 M12.17 182.72 C9.27 181.38, 6.25 177.87, 0.08 172.04 M22.32 182.7 C17.65 175.83, 11.16 168.06, -1.47 163.22 M24.9 182.24 C18.99 178.28, 12.42 172.88, 0.6 162.1 M38.11 181.42 C25.39 171.13, 9.05 160.2, 0.54 151.03 M36.74 183 C25.66 172.09, 13.48 162.81, 0.09 150.65 M50.09 184.23 C38.45 174.89, 24.2 164.79, -1.85 140.41 M48.36 183.33 C37.35 173.51, 27.78 164.69, -0.08 140.66 M58.41 180.79 C42.14 168.7, 26.44 152.6, -1.18 128.48 M60.05 182.33 C44.02 168.62, 26.68 153.6, -0.14 130.42 M60.07 172.89 C39.18 153.09, 15.78 130.3, 0.9 118.17 M59.94 171.17 C44.01 156.9, 29.09 144.27, 0.35 119.14 M60.89 159.18 C40.88 141.83, 20.67 124.4, 1.18 106.75 M60.73 160.98 C35.43 139.58, 12.84 118.62, 0.73 108.78 M61.78 150.82 C40.63 131.28, 18.69 112.61, -1.61 98.32 M60.69 149.75 C39.3 132.28, 18.89 114.87, -0.51 97.73 M61.58 137.77 C37.05 117.43, 11.71 96.72, 0.64 88.29 M59.26 139.95 C39.28 122.19, 19.61 104.73, 0.58 86.61 M60.53 129.32 C45.06 116.91, 27.53 102.28, 0.99 75.93 M59.32 128.26 C46.74 117.46, 33.73 106.63, -0.43 75.98 M59.83 118.61 C37.81 98.94, 16.2 79.53, 1.68 65.45 M59.38 119.31 C41.4 102.21, 24.32 87.77, 0.71 66.8 M61.07 107.08 C48.44 96.82, 33.7 84.45, -1.41 55.96 M59.88 107.46 C41.16 91.63, 21.69 74.71, 0.17 55.49 M61.77 97.02 C47.44 86.96, 35.19 75.87, 1.3 45.85 M59.42 96.51 C47.04 87.13, 34.75 76.45, 0.77 45.67 M58.89 88.04 C44.67 75.07, 30.33 60.29, 1.54 34.68 M59.01 87.47 C45.92 72.76, 30.71 59.71, -0.73 35.26 M60.28 77.57 C34.85 54.55, 11.73 34.09, 1.49 24.35 M60.35 76.34 C39.29 58.56, 21.21 42.76, -0.7 24.88 M60.24 65.38 C46.48 54.94, 30.11 41.76, 1.23 11.56 M60.02 65.79 C39.05 46.71, 15.8 28.21, -0.3 13.62 M58.97 54.07 C48.4 42.69, 35.86 33.16, -1.75 4.37 M59.78 54.99 C43.9 40.05, 27.85 26.74, 0.71 2.79 M58.11 45.55 C40.82 28.1, 25.24 16.42, 2.78 -6.06 M58.8 43.3 C41.57 29.62, 23.57 12.34, 3.98 -5.08 M60.21 33.58 C49.56 25.15, 42.75 18.3, 14.19 -3.6 M59.91 34.03 C43.81 18.55, 25.98 4.71, 15.87 -5.07 M60.25 24.24 C50.17 16.99, 45.92 10.16, 26.94 -6.43 M59.88 22.23 C48.5 13.38, 37.46 2.42, 28.04 -3.97 M61.13 12.44 C55.58 6.5, 51.95 4.78, 39.99 -3.53 M59.61 12.39 C54.33 7.63, 48.25 2.82, 41.65 -3.48 M60.3 1.94 C56.57 -0.54, 54.59 -2.57, 52.86 -4.2 M59.97 1.86 C56.98 -0.42, 53.89 -3.22, 52.54 -4.32" stroke="#4c6ef5" stroke-width="1" fill="none"></path><path d="M-1.61 1.95 C13.13 -0.8, 26.83 1.88, 59.58 0.58 M0.1 -0.34 C17.77 0.21, 36.51 0.58, 58.1 0.73 M60.74 -0.16 C57.66 62.02, 56.79 123.91, 59.38 181.48 M59.42 -0.34 C60.85 44.58, 59.25 86.94, 58.52 182.45 M57.51 183.73 C37.22 183.52, 11.57 183.69, -1.76 183.04 M59.47 183.82 C45.34 183.18, 29.36 182.92, 0.12 182.13 M-0.56 182.51 C-1.5 132.33, -1.59 78.34, 1.72 -1.97 M-0.15 182.13 C-0.84 134.3, -2.38 86.14, -0.75 -0.39" stroke="#1864ab" stroke-width="2" fill="none"></path></g><g stroke-linecap="round" transform="translate(165.49977418298295 598.2341258291417) rotate(0 29.50319218489858 19.92333465156389)"><path d="M0 0 C0 0, 0 0, 0 0 M0 0 C0 0, 0 0, 0 0 M0.88 11.05 C3.36 8.68, 7.63 1.36, 11.76 1.46 M0.21 12.72 C3.37 6.96, 8.32 2.76, 10.45 0.19 M0.03 23.11 C4.53 19.52, 10.39 12.16, 20.93 1.65 M0.01 24.56 C5.8 18.42, 10.99 11.07, 21.18 0.15 M0.25 34.93 C11.33 24.33, 19.56 14.16, 33.07 1.37 M-0.73 37.36 C10.34 24.9, 20.97 12.09, 31.05 -0.97 M2.94 44.94 C15.4 31.68, 24.6 21.53, 41.08 -0.09 M5.11 43.23 C16.08 31.05, 27.64 16.84, 41.7 -0.25 M13.53 45.19 C30.17 29.23, 43.22 14.08, 54.52 0.04 M14.8 44.32 C27.47 28.68, 41.22 13.11, 52.47 -0.86 M23.79 43.1 C36.73 31.28, 45.75 21.17, 61.4 3.09 M26.7 44.32 C37.89 30.58, 49.37 17.27, 62.63 1.98 M35.82 43.61 C41.62 36.02, 49.03 27.62, 61.05 12.51 M37 43.83 C44.27 35.94, 51.33 26.69, 61.04 13.84 M47.64 44.51 C49.72 40.2, 53.81 36.47, 62.68 28.49 M46.05 42.9 C50.66 39.39, 54.49 35.13, 61.4 26.85 M-0.11 39.75 C-0.11 39.75, -0.11 39.75, -0.11 39.75 M-0.11 39.75 C-0.11 39.75, -0.11 39.75, -0.11 39.75 M11.23 38.28 C7.82 37.28, 6.95 35.75, 0.51 29.08 M11.85 39.9 C8.19 36.14, 3.76 31.72, 0.22 29.91 M24.28 39.04 C16.69 33.21, 12.19 28.7, 1.3 19.21 M24.8 39.5 C15.67 32.45, 6.44 25.23, -0.16 18.49 M37.85 41.27 C23.29 29.18, 8.11 14.84, -1.95 7.38 M35.83 39.78 C28.2 32.95, 18.45 24.83, 0.43 7.22 M50.66 38.73 C28.83 22.48, 10.98 7.15, -0.64 -1.75 M48.58 39.08 C33 26.71, 18.34 12.59, 1.24 -0.88 M61 40.01 C44.15 24.2, 26.76 7.99, 13.64 -0.6 M60.88 38.32 C46.99 26.88, 36.3 17.7, 12.89 -0.73 M61.8 29.49 C47.07 15.36, 33.86 3.3, 25.59 -1.81 M60.67 27.6 C52.41 22.13, 43.72 14.48, 24.54 -0.83 M59.75 19.42 C54.44 11.64, 47.23 9.27, 38.67 -2.88 M59.93 17.5 C53.5 12.21, 47.21 5.51, 39.08 -0.62 M61.1 6.13 C55.79 4.68, 53.28 1.75, 49.41 -1.39 M59.83 7.71 C57.28 4.97, 56.31 3.28, 49.94 -0.83" stroke="#fa5252" stroke-width="1" fill="none"></path><path d="M0.98 1.41 C14.01 -0.06, 32.39 0.8, 59.19 -0.07 M-0.5 -0.31 C23.18 0.73, 46.5 0.26, 59.14 -0.2 M58.61 0.42 C58.29 13.24, 58.76 27.95, 59.45 40.94 M59.42 -0.76 C58.67 15.33, 58.69 31.88, 58.09 39.51 M57.27 39.11 C39.45 39.86, 17.1 41.88, 0.11 39.32 M58.96 39.37 C42.45 40.82, 23.93 39.21, 0.99 40.2 M1.71 38.13 C-0.87 29.49, 1.56 17.77, -0.29 -1.65 M-0.02 40.28 C-0.39 28.01, 0.03 14.65, 0.95 -0.82" stroke="#c92a2a" stroke-width="2" fill="none"></path></g><g transform="translate(272.634753823093 661.8671829030609) rotate(0 90 12.5)"><text x="0" y="18" font-family="Virgil, Segoe UI Emoji" font-size="20px" fill="#000000" text-anchor="start" style="white-space: pre;" direction="ltr">Oversampled data</text></g><g stroke-linecap="round" transform="translate(380.8330336401177 460.2243849400875) rotate(0 29.50319218489858 91.48379742239922)"><path d="M0 0 C0 0, 0 0, 0 0 M0 0 C0 0, 0 0, 0 0 M-0.05 11.2 C3.73 7.67, 8.27 4.47, 10.19 1.28 M0.63 11.36 C3.71 6.95, 8.14 3.51, 10.5 0.68 M0.73 25.85 C3.01 20.63, 8.29 15.18, 22.76 0.93 M0.85 24.73 C7.98 14.82, 16.26 5.75, 21.05 -0.32 M-1.02 37.47 C6.33 28.45, 14.28 20.61, 32.77 1.12 M-0.08 36.35 C10.9 24.07, 23.98 8.73, 31.44 -0.21 M-0.85 49.94 C11.84 31.89, 26.64 17.36, 42.25 -1.9 M0.76 49.34 C14.75 29.77, 30.59 12.03, 42.5 -0.04 M0.62 60.06 C14.92 43.03, 28.67 28.9, 54.7 1.7 M-0.35 60.19 C18.26 40.68, 34.91 21.82, 52.32 0.14 M0.76 73.8 C14.63 54.4, 30.18 37.78, 61.45 1.45 M0.72 73.77 C21.37 47.08, 41.7 23.9, 61.96 1.96 M-1.25 86.53 C18.36 66.33, 32.4 48.16, 63.59 13.06 M1.09 84.38 C22.22 61.26, 42.99 36.86, 62.64 13.98 M-0.55 99.31 C22.23 75.3, 41.67 47.57, 59.47 28.1 M-0.09 98.74 C14.71 80.13, 28.79 62.91, 60.42 26.08 M0.52 111.37 C18.32 92.8, 33.25 72.07, 60.19 37.56 M0.78 109.22 C23.07 81.31, 49.15 53.59, 61.06 39.86 M0.97 120.09 C22.57 97.07, 45.49 68.16, 62.71 50.15 M-0.48 122.6 C15.34 105.45, 31.64 86.46, 62.28 51.59 M0.3 133.56 C18.47 112.61, 35.89 91.33, 61 64.74 M0.59 133.34 C19.42 110.69, 40.22 87.84, 62.17 63.45 M-1.65 146.76 C24.77 118.93, 49.38 89.43, 61.18 75.36 M0.14 146.56 C14.83 128.41, 29.09 112.98, 61.64 75.29 M-0.89 157.86 C17.03 139.72, 37.31 119.58, 60.67 87.73 M-0.86 159.04 C23.14 131.32, 48.07 103.84, 60.78 87.85 M1.89 172.69 C15.38 152.98, 31.37 135.6, 60.75 99.22 M-0.27 170.48 C20.24 147.73, 40.24 124.95, 60.65 99.57 M1.83 184.76 C20.36 159.96, 43.15 132.59, 61.7 111.39 M-0.95 182.22 C23.66 156.79, 44.99 129.6, 61.7 111.77 M6.98 188.96 C21.16 169.41, 39.57 150.56, 62.59 122.22 M5.51 187.77 C21.46 169.12, 37.59 150.81, 62.82 123.71 M17 188.9 C29.74 173.13, 44.62 156.64, 61.21 138.36 M16.76 188.8 C29.15 175.11, 41.48 160.33, 60.48 137.56 M27.6 187.88 C41.66 173.02, 55.18 157.28, 61.11 147.62 M27.39 188.97 C41.84 173.97, 54.44 157.51, 61.07 149.64 M38.9 187.34 C46.71 178.64, 51.16 171.08, 60.21 158.99 M38.52 187.03 C47.71 178.12, 56.51 167.52, 60.7 161.19 M47.35 187.66 C52 185.61, 53.73 180, 61.93 171.15 M49.01 188.41 C51.95 183.35, 56.69 178.78, 61.63 173.62 M-0.03 182.94 C-0.03 182.94, -0.03 182.94, -0.03 182.94 M-0.03 182.94 C-0.03 182.94, -0.03 182.94, -0.03 182.94 M12.28 182.83 C9.35 179.53, 3.31 176.98, -0.07 172.78 M12.54 182.63 C9.08 180.53, 5.3 177.73, 0.09 172.19 M23.17 181.54 C13.99 173.8, 4.36 166.93, 1.53 161.43 M23.09 182.81 C18.67 178.61, 13.39 172.92, -0.88 161.9 M35.01 182.44 C24.42 171.31, 6.75 156.51, 1.65 151.61 M37.12 182.37 C27.15 173.77, 17.43 166.22, 0 150.28 M47.93 183.71 C34.91 169.29, 22.98 157.92, -0.65 138.71 M48.9 182.46 C37.64 173.86, 27.23 163.97, 0.56 141.03 M58.86 180.73 C40.9 166.9, 26.76 151.86, 1.48 129.44 M60.3 181.75 C35.66 161.21, 12.11 140.1, 0.58 130.3 M62 171.14 C44.01 157.46, 31.98 145.08, -0.74 117.4 M60.58 172.12 C39.26 152.79, 16.53 131.87, -0.48 118.89 M61.72 162.53 C36.46 141.26, 11.54 120.95, 0.72 106.64 M60.58 161.17 C46.19 149.91, 32.77 137.09, 0.32 108.51 M59.95 151.06 C41.85 133.47, 22.31 117.19, -0.78 99.11 M59.31 149.53 C45.4 138.83, 31.55 126.09, -0.88 98.06 M59.92 138.81 C45.55 127.6, 33.38 114.44, -2.06 86.21 M60.97 139.05 C36.43 118.66, 11.51 99, -0.98 87.83 M58.69 129.3 C39.94 111.64, 21.11 93.2, -1.59 76.23 M60.74 128.94 C41.83 113.32, 24.23 96.98, -0.15 75.78 M59.65 118.95 C43.76 106.81, 30.36 93.56, 1.72 66.55 M60.48 118.12 C37.39 100.29, 16.79 80.87, 0.64 66.44 M61.02 108.61 C37.57 90.53, 18.29 69.46, 2.03 56.51 M60.54 107.38 C44.87 93.81, 30.33 82.08, 0.35 56.54 M60.35 99.06 C45.14 86.85, 30.51 72.91, -0.4 46.85 M59.48 97.72 C41.85 82.28, 25.98 66.87, 0.21 45.18 M59.01 86.48 C42.77 72.45, 23.48 55.13, -1.74 36.54 M59.79 86.52 C42.96 71.64, 25.22 58, 0.36 35.49 M58.7 74 C40.92 59.68, 23.29 41.95, -1.34 23 M59.71 75.83 C36.56 57.16, 13.69 35.88, 0.43 23.5 M57.97 67.16 C40.25 47.7, 19.58 30.48, -1.21 13.57 M58.91 64.63 C44.12 51.69, 30.69 41.02, -0.76 14.4 M60.67 53.42 C37.69 33.13, 13.01 15.42, -1.53 1 M60.29 55.04 C41.78 38.46, 23.78 23.35, 0.6 2.81 M60.48 45.65 C39.49 25.96, 15.2 5.87, 3.6 -5.74 M59.72 44.62 C47.06 33.55, 36.17 23.02, 4.78 -3.73 M61.42 33.67 C49.48 25.07, 38.85 16.61, 15.68 -4.62 M59.74 32.57 C50.12 26.36, 42.25 18.32, 15.27 -5.09 M58.35 23.69 C46.89 14.62, 35.89 4.38, 26.72 -4.83 M59.39 22.03 C46.69 12.26, 34.9 2.45, 28.95 -4.14 M61.42 13.87 C53.77 7.34, 52.84 5.21, 41.59 -4.27 M59.91 12.27 C53.51 8.14, 48.78 2.06, 41.7 -3.45 M60.06 1.66 C57.19 -0.29, 56.16 -0.69, 52.09 -4.13 M60 1.31 C57.07 -0.57, 54.7 -2.33, 52.83 -4.59" stroke="#4c6ef5" stroke-width="1" fill="none"></path><path d="M-1.87 0.71 C14.47 -2.23, 32.2 -0.99, 58.52 -1.43 M-0.36 -0.1 C18 0.58, 35.47 0.06, 59.95 0.47 M57.56 0.04 C62.04 38.97, 58.75 80.67, 58.82 184.95 M59.87 0.34 C57.03 37.94, 56.95 74.78, 58.06 182.36 M58.97 184.07 C40.9 180.85, 21.55 184.02, 1.08 184 M58.03 182.01 C39.33 183.27, 20.53 182.81, -0.47 183.38 M0.9 184.89 C-0.36 121.65, -3 63.45, -1.67 -1.48 M0.54 182.96 C0.41 124.12, 1.85 64.54, -0.57 0.22" stroke="#1864ab" stroke-width="2" fill="none"></path></g><g stroke-linecap="round" transform="translate(302.6030564842058 602.0043298545261) rotate(0 29.50319218489858 19.92333465156389)"><path d="M0 0 C0 0, 0 0, 0 0 M0 0 C0 0, 0 0, 0 0 M0.34 11.12 C1.04 8.26, 5.13 7.01, 11.03 1.42 M-0.53 11.42 C3.18 7.94, 7.13 3.64, 10.74 -0.11 M0.88 23.26 C7.73 16.82, 13.06 11.52, 22.43 0.26 M0.23 24.72 C7.92 15.27, 13.65 8.68, 21.13 0.35 M0.69 38.1 C8.88 26.63, 17.11 13.52, 33.23 1.07 M0.12 37.47 C11.94 22.54, 24.58 8.94, 31.16 -0.54 M3.18 43.97 C11.66 33.04, 21.75 22.21, 43.91 -2.12 M5.23 42.65 C18.5 26.6, 34.2 10.07, 42.59 -0.92 M15.29 41.92 C29.36 29.19, 43.43 12.06, 52.23 -1.73 M16.01 44.35 C24.03 33.72, 31.01 24.34, 52.39 0.3 M26.73 42.43 C37.03 29.67, 46.3 15.92, 63.76 1.52 M25.6 43.36 C36.75 30.48, 48.76 17.21, 62.49 1.86 M34.93 42.66 C43.83 36.96, 47.92 29.16, 61.85 13.1 M35.95 43.1 C43.74 36.7, 49.42 27.16, 60.98 13.45 M47.67 44.64 C49.34 41.26, 52.61 38.15, 63.09 26.31 M47.77 42.68 C52.4 38.78, 55.79 32.93, 60.81 26.08 M-0.11 39.75 C-0.11 39.75, -0.11 39.75, -0.11 39.75 M-0.11 39.75 C-0.11 39.75, -0.11 39.75, -0.11 39.75 M12.09 39.84 C6.9 34.28, 3.63 32.91, 0.34 28.62 M12.24 39.65 C7.45 36, 3.35 32.12, -0.74 28.37 M26 41.75 C14.83 35.16, 9.14 26.93, 1.69 19.72 M24.21 40.17 C17.67 33.82, 11.07 27.93, -1.17 17.52 M35.99 40.15 C20.76 26.06, 6.2 13.31, -0.13 7.44 M37.68 39.83 C25.65 29.92, 13.04 18.14, 0.51 7.54 M49.77 38.91 C36.46 27.9, 19.43 13.64, 2.88 -2.07 M47.99 40.47 C29.83 24.68, 13.7 9.18, 1.31 -1.06 M58.82 38.45 C41.28 25.43, 24.85 8.58, 11.97 -2.56 M60.09 39.73 C46.74 26.42, 32.15 16.4, 12.89 -1.63 M58.62 28.1 C54.26 23.72, 45.05 15.18, 27.08 0.09 M60.08 28.17 C49.12 19.12, 38 9.58, 26 -0.87 M60.9 17.14 C52.46 10.51, 43.33 2.43, 38.31 -1.74 M60.66 17.04 C53.48 11.07, 46.95 6.62, 37.18 -1.75 M60.56 6.03 C57.5 6.04, 55.66 3.76, 49.3 -1.57 M59.78 7.48 C58.34 5.19, 56.47 3.73, 50.65 -1.16" stroke="#fa5252" stroke-width="1" fill="none"></path><path d="M-1.66 1.46 C19.13 2.4, 39.28 1.32, 60.15 -0.4 M-0.92 -0.93 C21.92 -1.32, 43.33 -1.25, 58.52 -0.24 M57.61 0 C59.39 11.18, 60.9 19.53, 58.01 40.97 M59.37 0.28 C59.95 13.22, 58.9 26.77, 58.26 40.41 M57.5 41.09 C47.14 38.79, 33.99 40.15, 0.74 38.83 M59.19 39.17 C47.07 39.75, 34.05 40, 0.84 39.01 M-1.16 40.78 C-0.42 29.41, 0.47 16.98, -0.38 1.76 M-0.15 39.18 C0.86 25.59, -0.42 12.89, 0.21 -0.61" stroke="#c92a2a" stroke-width="2" fill="none"></path></g><g stroke-linecap="round" transform="translate(303.28357156194943 554.3007851077618) rotate(0 29.50319218489858 19.92333465156389)"><path d="M0 0 C0 0, 0 0, 0 0 M0 0 C0 0, 0 0, 0 0 M-0.79 10.55 C3.31 7.42, 9.03 3.04, 12.08 0.52 M-0.49 11.48 C2.37 9.37, 4.4 6.98, 10.55 -0.14 M-0.55 25.68 C7.64 16.03, 17 7.44, 21.59 0.62 M0.91 24.78 C6.35 15.66, 14.64 8.3, 21.68 -0.08 M0.97 36.47 C10.65 23.25, 18.75 14.7, 33.06 1.47 M0.34 37.04 C10.23 24.9, 21.48 11.06, 31.45 -0.69 M4.81 41.69 C16.13 29.42, 27.54 18.39, 40.54 1.61 M3.49 43.06 C16.95 29.32, 29.9 14.6, 41.74 0.37 M13.42 44.85 C30.52 28.85, 43.26 9.3, 51.6 -1.75 M15.84 44.52 C29.8 25.59, 44.99 8.19, 53.62 -0.04 M24.6 43.84 C38.11 26.3, 50.68 14.73, 61.28 2.21 M25.52 43.13 C33.12 35.21, 40.33 26.53, 61.61 1.39 M35.48 45.08 C44.8 34.02, 52 24.9, 60.95 13.4 M35.93 44 C43.9 35.47, 48.71 27.63, 61.3 13.21 M48.13 42.82 C52.88 37.71, 57.87 34.55, 60.84 27.49 M46.17 44.19 C52.4 37.36, 56.67 32.08, 60.61 27.1 M-0.11 39.75 C-0.11 39.75, -0.11 39.75, -0.11 39.75 M-0.11 39.75 C-0.11 39.75, -0.11 39.75, -0.11 39.75 M12.15 39.24 C6.02 36.52, 3.99 32.06, -0.64 29.93 M11.96 39.4 C8.11 36.07, 3.87 32.04, -0.9 29.32 M26.34 38.24 C20.01 35.17, 12.34 30.92, 1.05 18.19 M24.75 40.38 C14.42 32.13, 4.78 21.79, -1.15 19.44 M36.91 38.45 C26.35 30.1, 16.8 23.46, -0.63 8.46 M36.59 41 C27.47 32.24, 16.3 23.67, -0.53 7.82 M47.84 41.35 C37.62 28.43, 23.88 21.42, 0.65 0.13 M49.4 38.97 C34.51 27.5, 19.76 13.59, 1.65 -0.66 M59.46 37.98 C48.01 27.22, 33.04 13.9, 12.33 -1.79 M60.74 39.25 C45.76 26.62, 34.19 15.46, 13.27 -2.38 M59.71 30.21 C52.66 20.34, 41.5 13.82, 27.15 -1.45 M59.78 28.43 C48.88 18.75, 37.91 10.2, 26.2 -0.84 M59.34 18.76 C53.28 12.54, 46.06 6.72, 37.6 -0.89 M59.24 18.13 C53.18 13.45, 48.76 6.63, 37.59 -1.95 M58.83 6.96 C57.29 4.21, 53.29 0.03, 49.94 -2.58 M60.28 7.6 C56.36 4.63, 53.13 1.51, 50.36 -1.88" stroke="#fa5252" stroke-width="1" fill="none"></path><path d="M1.46 -1.09 C23.18 -0.68, 43.38 1.63, 58.6 1.42 M-0.93 0.04 C11.78 0.1, 24.55 0.05, 58.77 -0.64 M59.01 0.3 C60.54 14.59, 59.49 24.56, 60.13 40.67 M59.28 0.67 C58.39 14.38, 58.35 28.79, 59.57 38.85 M60.24 39.81 C39.51 38.04, 22.94 40.14, -1.01 37.94 M58.33 39.97 C42.69 39.13, 27.18 40.79, -0.84 39.57 M0.94 39.53 C0.11 27.41, -1.47 13.43, 1.76 0.97 M-0.67 40.69 C-0.45 27.63, 0.73 16.51, -0.61 -0.16" stroke="#c92a2a" stroke-width="2" fill="none"></path></g><g stroke-linecap="round" transform="translate(302.70964371681293 507.4163016280345) rotate(0 29.50319218489858 19.92333465156389)"><path d="M0 0 C0 0, 0 0, 0 0 M0 0 C0 0, 0 0, 0 0 M-1.36 11.23 C4.11 8.43, 8.33 4.57, 11.18 -1.35 M-0.43 11.91 C2.55 8.92, 5.23 6.41, 10.53 0.51 M1.86 23.82 C8.06 17.52, 15.31 8.45, 21.95 0.41 M0.96 23.21 C4.67 18.82, 10.13 12.89, 21.25 0.09 M-0.67 37.99 C10.54 21.06, 26.42 8.51, 33.46 0.65 M-0.1 36.72 C11.65 23.8, 21.71 9.97, 31.3 -0.03 M2.52 43.38 C13.1 32.26, 24.87 20.05, 44.27 0.45 M3.89 43.28 C13.24 34.05, 21.66 23.16, 43.03 0.67 M16.35 44.77 C30.56 27.75, 41.23 11.2, 51.57 1.66 M16.02 43.48 C26.36 29.48, 38.28 15.78, 53.29 0.51 M26 42.95 C37.24 26.9, 54.46 12.19, 61.96 0.34 M25.3 43.35 C38.13 29.26, 50.21 16.13, 61.15 2.24 M37.91 43.81 C43.74 34.36, 51.49 25.38, 61.25 13.21 M36.82 44.32 C41.57 36.1, 46.99 29.79, 61.06 14.28 M46.32 44.67 C49.78 41.2, 55.19 35.25, 62.01 27.34 M47.68 44.2 C50.01 39.54, 53.9 34, 61.63 27.14 M-0.11 39.75 C-0.11 39.75, -0.11 39.75, -0.11 39.75 M-0.11 39.75 C-0.11 39.75, -0.11 39.75, -0.11 39.75 M11.56 38.3 C9.72 38.2, 6.15 33.7, 0.67 29.68 M11.72 39.76 C9.05 37.17, 5.78 34.07, 0.05 28.8 M22.82 42.03 C16.02 33.14, 8.33 25.82, -0.48 20.45 M24.97 39.86 C16.8 32.51, 6.31 23.93, 0.77 18.06 M35.21 38.92 C26.01 30.74, 18.25 23.34, 0.39 7.27 M37.76 40.63 C26.98 30.62, 17.01 22.08, -0.26 7.32 M50.28 40.25 C34.17 26.73, 24.39 16.56, 2.84 -1.18 M47.91 40.43 C36.71 29.21, 22.34 17.2, 2.06 -1.56 M58.99 40.69 C44.86 25.47, 27.61 10.66, 13.11 -1.88 M60.26 38.16 C44.57 27.48, 30.34 13.84, 12.51 -1.92 M61.82 30.35 C49.82 19.14, 40.7 11.68, 25.61 -1.45 M60.03 28.35 C47.11 17.14, 35.33 7.15, 26.23 -1.73 M60.96 17.75 C52.18 9.97, 43.97 3.18, 38.45 -1.74 M60.33 17 C53.38 12.12, 44.54 4.58, 37.39 -0.49 M59.76 8.05 C58.13 5.89, 55.14 3.45, 48.93 -0.57 M60.39 7.01 C58.47 5.54, 56.34 3.82, 49.63 -0.93" stroke="#fa5252" stroke-width="1" fill="none"></path><path d="M-1.09 1.9 C11.51 0.38, 26.49 -0.83, 60.42 -1.7 M0.04 -0.92 C21.2 -0.31, 42.79 0.31, 58.37 0.21 M59.31 1.78 C60.54 10.27, 57.73 20.22, 59.83 41.26 M59.67 -0.38 C58.76 9.15, 58.4 19.71, 58.01 39.89 M58.97 38.29 C34.92 40.01, 14.3 39.2, -1.91 39.19 M59.13 39.29 C35.84 39.13, 15.17 38.61, -0.28 40.11 M-0.32 40.26 C0.81 23.7, -0.15 11.65, 0.97 -0.09 M0.84 39.47 C-0.38 27.95, 0.27 13.84, -0.16 -0.53" stroke="#c92a2a" stroke-width="2" fill="none"></path></g><g stroke-linecap="round" transform="translate(302.896590897637 460.1317511813377) rotate(0 29.50319218489858 19.92333465156389)"><path d="M0 0 C0 0, 0 0, 0 0 M0 0 C0 0, 0 0, 0 0 M-0.68 12.13 C4.31 8.76, 8.23 5.13, 9.31 -1.11 M0 11.91 C2.11 9.61, 4.69 6.78, 11.17 0.22 M0.01 24.97 C8.68 17.1, 14.57 8.63, 21.74 -1.31 M-0.61 23.48 C6.94 16.65, 12.97 9.62, 21.42 0.9 M0.86 35.09 C9.73 25.44, 23 12.85, 32.64 1 M-0.41 37.5 C10.63 23.61, 20.79 11.26, 31.96 -0.64 M4.21 42.62 C12.81 35.1, 20.32 25.15, 43.1 -1.55 M4.12 44.02 C19.27 27.47, 32.72 11.46, 43.33 0.42 M16.27 45.56 C26.66 28.89, 37.47 14.69, 54.99 0.23 M14.98 43.09 C29.84 25.35, 45.04 9.11, 53.84 0.57 M25.12 41.79 C37.25 30.94, 50.69 14.61, 60.09 2.64 M25.51 44.05 C35.44 32.51, 46.3 19.26, 61.99 1.99 M36.64 43.2 C41.69 36.51, 47.2 29.17, 61.06 12.58 M37.14 42.89 C42.17 34.82, 49.1 27.27, 62.13 13.38 M48.17 43.04 C53.29 39.67, 55.96 33.05, 61.87 26.2 M47.69 42.82 C52.91 36.51, 57.24 31.04, 61.67 27.79 M-0.11 39.75 C-0.11 39.75, -0.11 39.75, -0.11 39.75 M-0.11 39.75 C-0.11 39.75, -0.11 39.75, -0.11 39.75 M10.62 40.54 C9.46 36.83, 3.94 33.9, 0.42 27.98 M12.08 39.54 C7.79 35.44, 3 32.68, -0.46 29.63 M26.61 40.63 C16.18 33.9, 7.68 23.86, 1.78 19.54 M24.44 40.88 C18.54 33.84, 11.41 30.42, -0.61 18.03 M35.68 38.49 C25.94 31.41, 17.01 23.53, -0.8 7.32 M37.39 40.6 C21.81 28.51, 7.56 15.17, -0.75 7.58 M49.18 38.36 C30.77 27.46, 15.29 13.03, 1.54 -1.81 M49.36 40.86 C38.91 30.46, 28.19 22.19, 1.16 -1.1 M61.7 39.3 C49.37 27.89, 37.17 19.44, 13.01 -1.32 M59.17 38.23 C46.66 26.56, 31.76 13.99, 12.98 -1.52 M61.95 28.66 C52.21 23.62, 46.1 15.28, 25.61 -0.41 M59.96 28.2 C49.47 19.99, 40.04 11.11, 25.33 -1.03 M59.95 18.13 C51.82 11.56, 44.52 5.17, 37.59 -0.62 M59.2 18.5 C52.96 10.02, 43.73 3.32, 38.85 -2.19 M60.85 7.33 C57.19 3.37, 53.09 0.07, 50.95 -2.49 M59.81 7.72 C57.43 5.44, 54.89 2.15, 50.59 -0.99" stroke="#fa5252" stroke-width="1" fill="none"></path><path d="M1.9 -1.17 C13.63 1.46, 25.23 1.74, 57.31 1.34 M-0.92 -0.44 C11.43 -0.51, 24.33 -0.66, 59.21 -0.6 M60.78 1.81 C59.73 8.17, 60.13 19.16, 60.42 38.65 M58.63 -0.39 C58.7 12.64, 59.68 25.78, 59.05 40.7 M57.45 38.48 C45.54 40.58, 31.46 37.93, -0.66 41.42 M58.45 39.02 C39.91 40.76, 20.6 39.64, 0.27 40.61 M0.41 40.43 C-1.35 29.82, 1.57 21.53, -0.09 0.37 M-0.38 39.41 C1.07 28.71, -0.34 17, -0.53 -0.42" stroke="#c92a2a" stroke-width="2" fill="none"></path></g><g stroke-linecap="round"><g transform="translate(228.78617228022085 617.7104896286837) rotate(0 36.25355994006168 -0.6056655507891264)"><path d="M1.46 -0.03 C19.77 -1.85, 45.42 -0.9, 71.04 -1.16" stroke="#c92a2a" stroke-width="1.5" fill="none" stroke-dasharray="8 9"></path></g><g transform="translate(228.78617228022085 617.7104896286837) rotate(0 36.25355994006168 -0.6056655507891264)"><path d="M44.32 9.09 C49.37 4.15, 61.77 2.11, 70.11 -1.94" stroke="#c92a2a" stroke-width="1.5" fill="none"></path></g><g transform="translate(228.78617228022085 617.7104896286837) rotate(0 36.25355994006168 -0.6056655507891264)"><path d="M44.31 -11.43 C49.41 -10.17, 61.82 -6, 70.11 -1.94" stroke="#c92a2a" stroke-width="1.5" fill="none"></path></g></g><mask></mask><g stroke-linecap="round"><g transform="translate(228.6991758422173 615.3311874011852) rotate(0 36.903520354777356 -22.019979111033535)"><path d="M0.14 -1.44 C21.82 -11.14, 45.89 -25.82, 73.67 -42.6" stroke="#c92a2a" stroke-width="1.5" fill="none" stroke-dasharray="8 9"></path></g><g transform="translate(228.6991758422173 615.3311874011852) rotate(0 36.903520354777356 -22.019979111033535)"><path d="M54.94 -20.72 C60.22 -24.37, 68.05 -32.83, 73.68 -40.87" stroke="#c92a2a" stroke-width="1.5" fill="none"></path></g><g transform="translate(228.6991758422173 615.3311874011852) rotate(0 36.903520354777356 -22.019979111033535)"><path d="M44.36 -38.31 C52.64 -36.71, 63.6 -39.96, 73.68 -40.87" stroke="#c92a2a" stroke-width="1.5" fill="none"></path></g></g><mask></mask><g stroke-linecap="round"><g transform="translate(230.53469460962333 610.2038135220264) rotate(0 34.88654982090793 -43.29032248558906)"><path d="M-0.93 -1.25 C24.36 -30.33, 54.34 -64.9, 70.7 -85.33" stroke="#c92a2a" stroke-width="1.5" fill="none" stroke-dasharray="8 9"></path></g><g transform="translate(230.53469460962333 610.2038135220264) rotate(0 34.88654982090793 -43.29032248558906)"><path d="M59.73 -58.31 C62.4 -66.22, 69.38 -79.07, 71.97 -86.31" stroke="#c92a2a" stroke-width="1.5" fill="none"></path></g><g transform="translate(230.53469460962333 610.2038135220264) rotate(0 34.88654982090793 -43.29032248558906)"><path d="M43.91 -71.38 C52.79 -74.08, 65.9 -81.87, 71.97 -86.31" stroke="#c92a2a" stroke-width="1.5" fill="none"></path></g></g><mask></mask><g stroke-linecap="round"><g transform="translate(228.415283454382 605.7637559904342) rotate(0 36.43216967680655 -62.84164627106202)"><path d="M1.02 1.11 C28.94 -47.87, 56.33 -97.78, 71.84 -126.79" stroke="#c92a2a" stroke-width="1.5" fill="none" stroke-dasharray="8 9"></path></g><g transform="translate(228.415283454382 605.7637559904342) rotate(0 36.43216967680655 -62.84164627106202)"><path d="M68.47 -96.01 C70.38 -107.87, 71.55 -120.14, 71.82 -127.08" stroke="#c92a2a" stroke-width="1.5" fill="none"></path></g><g transform="translate(228.415283454382 605.7637559904342) rotate(0 36.43216967680655 -62.84164627106202)"><path d="M50.43 -105.77 C59.37 -113.7, 67.55 -122.18, 71.82 -127.08" stroke="#c92a2a" stroke-width="1.5" fill="none"></path></g></g><mask></mask><g transform="translate(174.84397968061785 724.3578529287242) rotate(0 91 12.5)"><text x="91" y="18" font-family="Virgil, Segoe UI Emoji" font-size="20px" fill="#000000" text-anchor="middle" style="white-space: pre;" direction="ltr">Popular algorithms</text></g><g transform="translate(136.83012370192773 789.6678898981081) rotate(0 37 12.5)"><text x="37" y="18" font-family="Virgil, Segoe UI Emoji" font-size="20px" fill="#000000" text-anchor="middle" style="white-space: pre;" direction="ltr">SMOTE</text></g><g transform="translate(299.8904044470819 787.7959612864597) rotate(0 39.5 12.5)"><text x="39.5" y="18" font-family="Virgil, Segoe UI Emoji" font-size="20px" fill="#000000" text-anchor="middle" style="white-space: pre;" direction="ltr">ADASYN</text></g><g stroke-linecap="round"><g transform="translate(256.98768286948325 759.1949378332265) rotate(0 -24.61401161781305 13.057705381470441)"><path d="M-0.05 1.2 C-17.95 8.18, -34.62 16.95, -49.18 24.91" stroke="#e67700" stroke-width="2.5" fill="none" stroke-dasharray="8 10"></path></g><g transform="translate(256.98768286948325 759.1949378332265) rotate(0 -24.61401161781305 13.057705381470441)"><path d="M-31.18 5.95 C-37.85 11.89, -43.26 19.67, -49.32 26.9" stroke="#e67700" stroke-width="2.5" fill="none"></path></g><g transform="translate(256.98768286948325 759.1949378332265) rotate(0 -24.61401161781305 13.057705381470441)"><path d="M-22.43 22.27 C-32.38 22.3, -40.96 24.15, -49.32 26.9" stroke="#e67700" stroke-width="2.5" fill="none"></path></g></g><mask></mask><g stroke-linecap="round"><g transform="translate(275.15730589446866 759.8285254590137) rotate(0 25.661987965064327 11.319227698858413)"><path d="M-1.04 -0.79 C14.55 5, 29.01 12.57, 52.36 23.43" stroke="#e67700" stroke-width="2.5" fill="none" stroke-dasharray="8 10"></path></g><g transform="translate(275.15730589446866 759.8285254590137) rotate(0 25.661987965064327 11.319227698858413)"><path d="M23.95 20.1 C32.62 20.08, 40.1 21.96, 54.11 25.38" stroke="#e67700" stroke-width="2.5" fill="none"></path></g><g transform="translate(275.15730589446866 759.8285254590137) rotate(0 25.661987965064327 11.319227698858413)"><path d="M31.99 3.09 C38.19 8.14, 43.25 15.13, 54.11 25.38" stroke="#e67700" stroke-width="2.5" fill="none"></path></g></g><mask></mask><g transform="translate(665.7901005799868 297.2271550865298) rotate(0 92 18)"><text x="0" y="25" font-family="Virgil, Segoe UI Emoji" font-size="28px" fill="#e67700" text-anchor="start" style="white-space: pre;" direction="ltr">Undersampling</text></g><g transform="translate(554.7508185600545 348.6237499915551) rotate(0 197.5 25)"><text x="197.5" y="18" font-family="Virgil, Segoe UI Emoji" font-size="20px" fill="#000000" text-anchor="middle" style="white-space: pre;" direction="ltr">Downsample the majority class, removing</text><text x="197.5" y="43" font-family="Virgil, Segoe UI Emoji" font-size="20px" fill="#000000" text-anchor="middle" style="white-space: pre;" direction="ltr">random or redundant instances</text></g><g transform="translate(579.9252504100787 659.8479765479715) rotate(0 65.5 12.5)"><text x="0" y="18" font-family="Virgil, Segoe UI Emoji" font-size="20px" fill="#000000" text-anchor="start" style="white-space: pre;" direction="ltr">Original data</text></g><g stroke-linecap="round" transform="translate(649.7317523403453 605.9654788704938) rotate(0 29.50319218489858 15.385213539776487)"><path d="M0 0 C0 0, 0 0, 0 0 M0 0 C0 0, 0 0, 0 0 M-0.47 12.38 C3.87 8.17, 5.94 3.36, 10.43 0.62 M0.86 12.79 C3.6 6.9, 8.27 1.95, 9.96 -0.05 M-1.64 22.64 C6.86 15.92, 13.2 6.92, 20.7 1.11 M-0.64 24.01 C5.68 17.88, 9.51 14.17, 20.88 -0.12 M1.31 32.22 C13.91 21.34, 25.08 8.66, 30.47 -0.13 M3.09 33.86 C12.35 21.94, 21.79 11.98, 32.49 -0.96 M12.53 34.9 C23.7 20.3, 33.33 9.7, 41.74 -0.9 M14.01 33.22 C22.05 22.49, 31.44 11.51, 42.56 0.15 M24.06 33.92 C35.19 20.72, 45.36 5.78, 53.86 -1.26 M24.26 32.82 C35.06 21.63, 44.95 10.92, 52.22 -0.92 M33.15 33.34 C43.59 22.75, 51.19 13.34, 62.05 2.46 M35.03 33.47 C42.86 23.24, 52.16 13.31, 61.61 1.4 M46.85 34.69 C53.07 25.52, 55.2 20.07, 63.26 12.1 M46.5 33.41 C51.44 27.04, 56.74 21.77, 60.99 13.63 M55.53 32.71 C58.08 30.95, 59.52 29.76, 60.74 26.27 M55.92 32.77 C57.78 31.58, 59.09 29.38, 61.45 27.16 M-0.14 30.65 C-0.14 30.65, -0.14 30.65, -0.14 30.65 M-0.14 30.65 C-0.14 30.65, -0.14 30.65, -0.14 30.65 M10.9 29.94 C7.28 27.17, 6.13 25.07, -1.4 21.49 M12.28 31.22 C8.4 27.28, 2.9 22.95, -0.62 20.35 M25.65 29.39 C15.74 22.82, 6.84 14.16, 0.78 9.25 M24.93 30.42 C19.04 25.25, 13.93 22.19, 0.18 9.97 M36.76 29.61 C27.85 22.39, 22.06 18.62, -0.42 1.25 M35.93 31.21 C24.01 19.51, 10.27 8.56, 0.36 -1.23 M49.24 30.66 C40.41 21.87, 32.69 15.89, 13.24 0.39 M48.81 30.39 C35.57 19.33, 22.56 8.31, 12.19 0.2 M60.21 29.33 C46.36 19.96, 33.11 8.22, 24.26 -0.41 M60.71 30.43 C47.47 18.04, 32.9 7.98, 25.17 0.05 M58.79 19.32 C53.38 16.54, 49.23 10.31, 37.53 -0.83 M59.92 18.7 C52.61 13.65, 46.91 6.87, 37.53 0.24 M58.82 9.82 C56.7 6.65, 51.64 2.72, 50.18 -1.59 M59.52 9.1 C56.25 5.85, 53.04 2.23, 49.65 -1.09" stroke="#4c6ef5" stroke-width="1" fill="none"></path><path d="M0.13 -0.37 C23.42 0.92, 46.09 -2.28, 59.06 1.53 M0.88 -0.02 C19.35 -0.72, 37.98 0.25, 58.2 -0.66 M59.54 -1.98 C58.75 8.39, 60.47 15.87, 60.45 28.85 M59.52 0.45 C58.59 9.32, 59.44 19.73, 59.19 31.49 M60.8 32.72 C42.6 30.14, 26.86 31.3, -1.45 31.97 M59.92 30.77 C44.52 31.02, 29.19 30.15, 0.95 31.21 M-1.65 30.32 C1.5 25.23, 0.82 17.76, -1.73 -0.19 M-0.42 31.33 C1.07 20.17, 0.65 7.47, -0.4 -0.84" stroke="#1864ab" stroke-width="2" fill="none"></path></g><g transform="translate(761.8768170932599 661.6660832497182) rotate(0 92 12.5)"><text x="0" y="18" font-family="Virgil, Segoe UI Emoji" font-size="20px" fill="#000000" text-anchor="start" style="white-space: pre;" direction="ltr">Downsampled data</text></g><g stroke-linecap="round" transform="translate(785.8602758879915 629.6064435461849) rotate(0 29.50319218489858 6.063869803805574)"><path d="M0 0 C0 0, 0 0, 0 0 M0 0 C0 0, 0 0, 0 0 M0.82 11.33 C4.52 9.05, 6.93 5.29, 11.11 -0.55 M0.85 12.22 C4.42 7.55, 9 2.74, 10.32 -0.09 M11.57 12.28 C14.62 9.03, 16.35 5.3, 22.48 0.47 M10.78 11.91 C14.16 7.68, 17.54 4.11, 20.87 0.46 M22.31 10.87 C23.54 8.66, 26.18 5.45, 31.67 1.43 M21.65 11.83 C24.87 7.59, 28.04 3.09, 31.69 0.42 M30.83 13.2 C35.79 9.23, 38.3 4.68, 41.99 0.68 M32.23 11.84 C35.6 7.59, 39.47 2.7, 42.67 -0.4 M41.94 11.3 C45.22 8.26, 49.09 2.55, 54.62 1.27 M42.47 12.5 C45.09 9.02, 47.69 6.71, 53.08 0.37 M52.18 11.61 C56.56 8.86, 56.8 7.51, 60.88 3.06 M53.29 12.08 C56.13 8.47, 60.21 4.11, 62.45 2.06 M0.03 12.16 C0.03 12.16, 0.03 12.16, 0.03 12.16 M0.03 12.16 C0.03 12.16, 0.03 12.16, 0.03 12.16 M11.74 11.03 C9.97 9.73, 8.14 8.63, 0.04 0.7 M11.89 12.37 C7.99 8.48, 3.79 5.52, 0.46 1.29 M23.64 10.5 C17.99 7.66, 10.92 0.5, 5.57 -3.38 M23.51 12.7 C16.99 5.62, 7.67 -0.85, 4.24 -5.06 M35.69 10.61 C29.37 5.26, 23.27 1.47, 18.38 -4.5 M36.33 12.47 C30.68 6.11, 22.78 0.19, 15.56 -5.87 M47.82 11.87 C43.22 6.25, 39.89 5.72, 26.9 -4.56 M48.26 11.91 C43.95 8.02, 39.6 4.14, 28.09 -4.59 M61.08 10.61 C56.29 8.06, 49.83 3.4, 40.65 -3.62 M59.69 10.49 C52.97 5.91, 47.03 0, 41.15 -4.46" stroke="#4c6ef5" stroke-width="1" fill="none"></path><path d="M1.07 -1.19 C23.09 -1.3, 45.93 -1.49, 58.32 -1.6 M0.04 -0.29 C21.64 0.19, 45.13 -0.54, 58.94 0.65 M59.77 0.75 C59.94 3.73, 59.63 6.92, 59.5 11.2 M58.87 0.28 C59.35 3.02, 59.17 5.73, 59.21 12.49 M57.36 12.58 C40.63 13.19, 26.07 11.32, 1.21 11.36 M59.98 11.58 C41.11 11.86, 22.92 12.01, 0.63 11.75 M0.56 12.42 C-0.17 8.14, 0.89 5.45, 0.93 0.91 M-0.57 11.92 C-0.03 8.26, -0.39 3.38, 0.54 -0.36" stroke="#1864ab" stroke-width="2" fill="none"></path></g><g stroke-linecap="round" transform="translate(649.1126484849156 565.8420712858078) rotate(0 29.50319218489858 6.063869803805574)"><path d="M0 0 C0 0, 0 0, 0 0 M0 0 C0 0, 0 0, 0 0 M1.19 10.94 C4.35 8.56, 7.77 3.31, 10.41 -0.53 M0.9 12.35 C3.59 7.87, 6.75 4.68, 10.59 -0.4 M11.81 11.17 C12.39 9.77, 14.87 7.34, 22.34 0.26 M11.17 12.53 C14.66 7.27, 18.67 3.19, 21 -0.06 M20.87 12.76 C22.85 10.07, 26.44 4.81, 30.68 0.57 M22.12 11.53 C23.81 8.83, 26.24 6.76, 31.74 -0.06 M33.1 10.88 C34.91 8.57, 36.56 4.73, 44.1 -1.02 M32.64 12.65 C35.42 9.61, 37.54 5.91, 42.03 0.48 M42.67 10.59 C47.06 7.55, 51.17 3.2, 54.73 0.42 M42.01 11.16 C44.69 9.77, 46.59 6.41, 52.87 -0.59 M52.91 10.77 C54.61 9.1, 58.03 5.26, 62.14 2.02 M52.95 11.99 C56.77 7.79, 59.44 4.82, 61.67 1.96 M0.03 12.16 C0.03 12.16, 0.03 12.16, 0.03 12.16 M0.03 12.16 C0.03 12.16, 0.03 12.16, 0.03 12.16 M12.25 12.6 C9.37 10.03, 6.05 6.21, -0.57 0.55 M12.39 12.45 C7.62 8.62, 4.26 5.83, 0.64 1.56 M22.97 10.74 C17.74 7.28, 10.78 0.73, 3.68 -7 M24.55 11.16 C17.37 6.8, 9.94 -0.21, 4.12 -5.59 M38.6 11.96 C31.72 9.19, 26.77 1.83, 18.42 -3.89 M37.55 12.91 C29.74 5.77, 23.89 0.59, 16.28 -4.55 M49.85 13.48 C42.15 5.48, 37.71 -0.75, 28.61 -5.76 M48.58 11.31 C43.68 7.67, 41.17 3.99, 28.97 -6.36 M58.49 9.97 C54.88 7.17, 45.74 -0.11, 42.47 -4.34 M60.2 10.15 C53.34 5.35, 47.03 -0.29, 40.67 -4.91" stroke="#4c6ef5" stroke-width="1" fill="none"></path><path d="M1.21 -0.23 C19.06 0.04, 34.84 0.25, 57.65 1 M-0.38 0.01 C20.68 0.48, 42.92 -0.91, 58.88 -0.77 M58.55 -0.8 C60.1 2.88, 59.49 6.27, 58.95 10.98 M59.46 0.28 C59.22 4.89, 58.34 9.09, 59.04 12.45 M57.81 13.62 C42.99 11.74, 29.83 10.9, -1.12 11.95 M58.25 12.75 C44.39 13.38, 28.3 12.32, -0.59 11.6 M-0.52 12.45 C0.44 8.29, 0.48 2.56, 0.77 0.77 M-0.19 12.65 C-0.5 8.06, 0.45 4.99, 0.12 0.07" stroke="#1864ab" stroke-width="2" fill="none"></path></g><g stroke-linecap="round" transform="translate(649.3020065182318 528.2882229659208) rotate(0 29.50319218489858 15.370946838636883)"><path d="M0 0 C0 0, 0 0, 0 0 M0 0 C0 0, 0 0, 0 0 M-0.75 11.78 C2.26 8.59, 6.44 5.64, 10.71 -0.27 M-0.4 12.04 C4.24 6.62, 8.1 3.42, 10.19 -0.33 M2.05 25.71 C9.07 16.26, 14.45 7.32, 22.81 1.05 M-0.55 24.49 C6.25 17.6, 12.41 10.82, 21.63 -0.81 M1.16 32.43 C14.73 19.75, 23.36 9.17, 30.84 -0.2 M2.18 32.2 C12.37 22.31, 20.92 12.1, 31.86 0.63 M14.04 34.19 C23.06 20.48, 35.89 8.21, 42.23 -1.42 M13.77 32.55 C23.64 21.77, 32.15 10.81, 43.01 -0.67 M26.11 34.85 C32.8 23.04, 40.55 17.15, 53.72 -2.03 M24.65 32.94 C34.56 20.82, 43.59 9.5, 52.54 -0.15 M35.98 31.12 C43.11 20.99, 53.43 13, 61.9 2.25 M34.34 32.88 C44.72 22.15, 53.16 11.87, 60.9 2.45 M44.07 33.12 C53.92 24.02, 57.98 17.19, 61.1 13.89 M45.32 33.29 C51.08 28.51, 54.41 23.54, 62.65 14.32 M56.57 32.52 C57.37 30.91, 59.66 28.4, 62.02 27.01 M56.42 32.87 C57.71 31.21, 59.33 28.87, 61.36 26.52 M-0.13 30.63 C-0.13 30.63, -0.13 30.63, -0.13 30.63 M-0.13 30.63 C-0.13 30.63, -0.13 30.63, -0.13 30.63 M10.83 31.16 C9.3 29.26, 6.63 24.44, -0.16 20.42 M12.34 30.65 C9.53 27.99, 6.66 25.81, -0.31 19.33 M24.2 29.08 C19.36 24.16, 15.3 22.12, -1.95 9.93 M24.02 31.81 C16.27 23.53, 7.76 16.38, -0.31 8.71 M38.43 30.42 C22.07 17.2, 8.84 6.25, 1.45 0.52 M36.19 31.31 C22.81 20.06, 9.35 8.72, -0.04 0.33 M47.91 32.14 C40.4 23.56, 30.54 14.19, 13.95 -0.56 M48.72 30.51 C34.95 18.45, 21.75 6.17, 13.19 0.09 M59.13 31.68 C50.76 21.56, 39.96 11.34, 23.43 0.23 M61.06 30.58 C47.05 18.2, 33.24 6.44, 25.14 -1.55 M58.58 19.36 C55.17 14.19, 46.04 9.21, 36.15 -0.16 M59.79 19.57 C52.23 11.43, 43.98 5.55, 38.4 0.02 M60.68 9.23 C56.75 6.12, 53.85 3.06, 50.5 -1.75 M60.1 8.36 C55.51 5.7, 52.97 1.53, 49.64 -0.59" stroke="#4c6ef5" stroke-width="1" fill="none"></path><path d="M1.25 1.65 C20.26 0.8, 36.85 -0.73, 57.94 1.44 M0.26 0.39 C20.06 0.68, 38.57 0.89, 59.64 0 M60.72 -1.35 C57.67 13.29, 59.54 23.39, 59.23 32.46 M58.51 0.42 C58.09 9.49, 59.05 18.78, 58.99 30.98 M59.29 30.13 C45.33 30.99, 28.78 31.09, -1.15 31.1 M58.32 31.27 C43.22 31.71, 26.37 31, -0.31 30.74 M0.77 31.35 C-1.38 23.91, -0.3 15.7, -0.91 -1.06 M-0.52 30.07 C0.53 23.76, 0.87 18.94, 0.2 0.62" stroke="#1864ab" stroke-width="2" fill="none"></path></g><g stroke-linecap="round" transform="translate(648.9284783429212 509.50157150973973) rotate(0 29.50319218489858 6.063869803805574)"><path d="M0 0 C0 0, 0 0, 0 0 M0 0 C0 0, 0 0, 0 0 M-0.27 13.24 C2.58 10.06, 4.23 7.65, 11.59 -0.3 M0.15 11.91 C1.82 9.61, 4.63 6.02, 9.85 -0.81 M11.4 10.53 C13.74 10.34, 14.57 6.04, 20.57 1.37 M11.2 12.23 C15.51 6.75, 19.49 3.03, 20.72 0.26 M20.28 11.97 C25.09 6.86, 27.45 5.29, 32.73 0.2 M21.35 11.82 C24.29 7.26, 28.41 3.56, 31.69 -0.88 M32.64 10.54 C35.82 8.6, 37.65 4.94, 41.41 1.12 M31.63 11.84 C34.29 9.49, 37.79 6.09, 43.19 -0.33 M41.9 12.64 C46.37 9.89, 49.43 6.77, 52.26 0.5 M43.22 11.45 C46.08 8.56, 47.93 4.94, 52.8 0.38 M53.72 12.77 C56.43 9.32, 59.27 4.83, 61.72 1.74 M52.93 12.27 C56.4 8.84, 58.82 5.44, 61.51 2.61 M0.03 12.16 C0.03 12.16, 0.03 12.16, 0.03 12.16 M0.03 12.16 C0.03 12.16, 0.03 12.16, 0.03 12.16 M12.69 11.02 C7.87 9.27, 2.21 5, -0.4 1.9 M12.64 12.82 C8.29 7.99, 3.63 4.47, 0.38 1.82 M22.37 13.41 C17.54 8.74, 15.72 1.58, 4.74 -6.16 M23.42 12.17 C19.79 9.22, 15.91 4.29, 4.76 -4.8 M36.96 11.21 C29.83 4.7, 21.75 -0.84, 17.42 -6.82 M37.06 13.29 C29.07 5.08, 21.99 -1.23, 15.95 -4.92 M47.93 10.36 C42.56 4.55, 35.2 -1.21, 27.09 -4.59 M49.89 11.52 C41.92 4.8, 33.42 -0.97, 29.18 -4.93 M59.74 10.03 C53.32 4.56, 47.19 -2.03, 39.53 -4.03 M58.8 10.36 C53.81 6.64, 48.63 1.81, 42.06 -4.61" stroke="#4c6ef5" stroke-width="1" fill="none"></path><path d="M-0.7 -1.05 C21.65 0.49, 43.75 -0.52, 57.32 -1.81 M0.26 -0.03 C19.06 1.07, 36.68 -0.15, 59.2 0.56 M58.75 -0.18 C58.2 3.3, 59.67 5.38, 59.14 11.5 M58.98 0.3 C58.65 3.97, 59.3 9.01, 59.56 12.68 M60.44 12.7 C35.65 13.57, 15.51 12.83, 0.73 11.93 M58.65 11.52 C40.54 12.07, 22.95 12, 0.53 11.19 M0.97 12.18 C0.18 9.46, -1.11 5.2, -0.7 -0.15 M-0.25 11.57 C0.31 8.55, -0.44 4.07, -0.45 0.05" stroke="#1864ab" stroke-width="2" fill="none"></path></g><g stroke-linecap="round" transform="translate(645.8442769509456 458.2503931222782) rotate(0 29.50319218489858 6.063869803805574)"><path d="M0 0 C0 0, 0 0, 0 0 M0 0 C0 0, 0 0, 0 0 M0.59 11.09 C4.3 6.82, 8.6 3.22, 9.91 -1.17 M0.77 12.27 C3.16 9.76, 5.22 5.72, 9.86 -0.18 M11.84 13.27 C14.42 8, 16.69 5.21, 22.06 -0.96 M10.51 11.86 C14.01 7.07, 19.18 3.45, 21.9 0.39 M22.71 11.8 C25.01 7.82, 27.93 3.87, 31.41 0.93 M21.34 12.49 C23.26 8.53, 27.17 6.45, 32.26 0.25 M33.36 13.2 C34.36 9.98, 39.11 6.27, 42.88 0.87 M31.83 11.17 C35.32 7.44, 38.9 4.51, 42.65 -0.81 M43.78 10.74 C46.91 7.4, 50.21 4.4, 52.03 0.74 M42.16 11.67 C46 7.77, 50.61 2.47, 52.95 -0.83 M54.05 12.63 C53.85 10.02, 56.19 6.57, 62.53 3.18 M53.73 11.88 C54.76 9.8, 57.43 7.55, 62.16 1.94 M0.03 12.16 C0.03 12.16, 0.03 12.16, 0.03 12.16 M0.03 12.16 C0.03 12.16, 0.03 12.16, 0.03 12.16 M11.12 12.79 C8.78 8.28, 6.84 8.11, -0.38 2.55 M11.35 11.91 C7.43 8.45, 3.04 4.38, 0.6 1.91 M23.58 13.1 C16.73 4.78, 12.79 1.16, 3.13 -3.73 M24.42 11.58 C19.77 8.54, 15.42 3.43, 4.33 -5.17 M35.66 12.72 C30.93 6.48, 21.37 -0.44, 18.06 -5.63 M37.88 12.69 C33.01 9.81, 29.19 4.64, 17.5 -5.64 M47.09 12.12 C41.19 5.43, 33.21 -0.48, 27.69 -4.05 M48.74 12.33 C42.75 5.73, 36.26 0.49, 27.57 -6.29 M57.92 12.18 C53.87 7.06, 53.5 2.45, 39.53 -5.52 M59.17 10.45 C52.99 6.6, 48.18 1.8, 42.13 -4.38" stroke="#4c6ef5" stroke-width="1" fill="none"></path><path d="M0.75 -1.94 C21.3 -1.21, 44.64 0.81, 57.87 -0.41 M0.97 -0.84 C15.73 -0.97, 30.67 0.63, 58.31 -0.36 M58.66 -0.58 C59.98 2.92, 59.35 7.6, 59.98 11.99 M59.35 -0.22 C59.48 5.08, 58.78 9.04, 59.13 11.92 M59.7 11.69 C43.7 13.42, 26.27 11.04, 1.64 10.29 M59.48 11.54 C40.84 10.61, 22.44 10.76, 0.74 11.29 M0.67 11.61 C-0.49 7.48, 1.21 5.04, -0.62 0.06 M-0.37 12.4 C0.4 7.41, 0.21 3.64, 0.45 0.21" stroke="#1864ab" stroke-width="2" fill="none"></path></g><g stroke-linecap="round" transform="translate(786.2882769222051 610.6758281057737) rotate(0 29.50319218489858 6.063869803805574)"><path d="M0 0 C0 0, 0 0, 0 0 M0 0 C0 0, 0 0, 0 0 M1.13 11.34 C4.46 8.89, 5.88 5.82, 10.29 0.05 M0.13 11.24 C3.31 6.92, 7.48 2.81, 10.01 0.51 M9.55 10.54 C12.51 9.56, 15.08 8.25, 20.77 -0.68 M11.27 12.61 C13.38 9.49, 14.46 6.78, 21.37 0.64 M22.39 13.37 C25.17 9.28, 28.1 4.88, 31.2 -0.11 M21.85 12.59 C25.81 6.99, 29.58 2.89, 32.12 0.28 M31.58 13.35 C36.14 7.37, 37.08 4.93, 42.54 1.23 M31.41 11.18 C35.69 9.1, 37.2 5.2, 42.98 0.35 M41.37 11.47 C45.95 8.25, 47.47 3.38, 51.68 1.11 M43 12.54 C46.61 7.51, 50.04 4.23, 53.59 -0.68 M52.2 13.1 C54.43 9.76, 58.09 7.1, 61.87 1.52 M53.72 11.98 C55.41 9.24, 58.11 5.59, 62.25 1.79 M0.03 12.16 C0.03 12.16, 0.03 12.16, 0.03 12.16 M0.03 12.16 C0.03 12.16, 0.03 12.16, 0.03 12.16 M13.49 13.12 C9.65 8.02, 6.22 7.44, -1.13 1.57 M11.32 11.86 C8.69 9.23, 5.48 5.8, -0.52 1.3 M23.97 10.06 C16.06 7.37, 11.83 1.02, 4.34 -6.63 M23.86 12.82 C17.66 6.35, 11.45 0.51, 4.14 -4.62 M36.02 12.66 C31.96 5.11, 21.77 -0.53, 17.8 -7.25 M36 13.39 C30.54 7.45, 25.05 0.61, 16.66 -5.08 M47.85 11.58 C43.06 5.16, 37.31 2.82, 30.57 -4.19 M49.59 11.44 C41.38 4.96, 33.01 -0.94, 28.13 -6.1 M57.98 10.69 C54.74 5.16, 46.07 -2.14, 41.98 -4.81 M59.61 10.99 C52.78 4.77, 45.74 -0.93, 40.53 -5.18" stroke="#4c6ef5" stroke-width="1" fill="none"></path><path d="M-1.86 1.11 C14.12 -1.1, 25.35 -0.04, 60.39 0.04 M0.29 0.54 C13.33 -0.19, 26.42 -0.35, 58.08 -0.82 M59.87 0.37 C60.11 2.88, 60.13 5.13, 57.88 12.44 M59.4 -0.58 C58.7 2.51, 58.35 5.9, 58.65 12.42 M60.58 11.66 C44.02 14.26, 24.95 13.67, -1.81 11.84 M59.7 12.88 C41.56 12.55, 22.75 12.75, -0.27 12.73 M-0.07 11.3 C0.98 8.46, -0.47 5.9, 0.38 -0.38 M-0.29 12.03 C-0.09 8.67, -0.44 4.71, -0.38 0.09" stroke="#1864ab" stroke-width="2" fill="none"></path></g><g stroke-linecap="round" transform="translate(649.8908321834806 586.7570551575627) rotate(0 29.50319218489858 6.063869803805574)"><path d="M0 0 C0 0, 0 0, 0 0 M0 0 C0 0, 0 0, 0 0 M-1.24 10.76 C3.49 7.87, 7.54 1.92, 9.17 -1.51 M0.6 12.39 C4.7 7.75, 7.92 2.94, 11.41 0.4 M9.53 10.68 C14.84 8.06, 15.99 7.22, 21.02 0 M10.73 12.55 C13.59 8.16, 16.77 5.01, 21.22 0.47 M21.69 13.52 C22.77 8.08, 26.42 6.9, 31.08 -1.49 M21.44 11.46 C24.96 7.18, 28.96 4.48, 32.04 0.37 M32.63 13.35 C36.9 8.24, 38.08 3.53, 43.11 -1.27 M32.3 11.18 C35.03 8.52, 38.69 5.28, 42.56 -0.66 M41.2 11.79 C44.02 7.11, 49.12 5.35, 53.13 -0.3 M42.05 11.7 C45.72 9.43, 47.77 7.15, 53.61 -0.45 M54.28 11.29 C56.45 9.51, 58.24 3.74, 60.85 2.88 M53.21 11.28 C55.63 9.87, 57.12 8.47, 61.37 2.14 M0.03 12.16 C0.03 12.16, 0.03 12.16, 0.03 12.16 M0.03 12.16 C0.03 12.16, 0.03 12.16, 0.03 12.16 M12.23 10.82 C9.09 11.11, 6.26 6.83, -1.52 2.02 M12.82 12.12 C8.42 9.16, 4.54 5.98, 0.27 0.85 M25.57 12.47 C18.57 6.48, 13.29 4.21, 5.95 -6.56 M25.03 11.58 C17.66 6.7, 11.66 -0.22, 4.22 -4.37 M38.39 11.19 C29.22 6.71, 23.09 0.33, 18.32 -5.42 M36.17 12.55 C31.58 9.07, 28.09 4.02, 15.58 -6.06 M49.25 13.41 C41.29 6.04, 34.12 -0.04, 27.17 -7.15 M49.84 11.47 C41.3 5.46, 34.37 0.89, 28.94 -4.98 M58.77 12.42 C55.18 8, 51.22 0.86, 42.54 -3.84 M59.45 10.55 C54.58 7.69, 52.04 4.53, 42.1 -5.13" stroke="#4c6ef5" stroke-width="1" fill="none"></path><path d="M-1.31 -0.44 C20.13 -0.41, 35.32 -1.38, 60.07 1.94 M0.54 -0.6 C20.3 -0.88, 39.6 -1.09, 58.8 -0.93 M59.14 0.75 C58.48 4.38, 59.46 6.54, 59.95 11.87 M59.59 0 C58.47 3.18, 58.56 7.19, 58.65 11.65 M60.75 10.61 C35.49 11.43, 15.88 11.87, 1.8 11.51 M58.99 12.76 C44.32 12.96, 28.2 11.5, -0.05 12.26 M-1.01 12.89 C1.13 8.29, 0.18 3.87, -1 -0.53 M0.32 12.48 C0.37 8.83, -0.3 4.97, 0.26 0.17" stroke="#1864ab" stroke-width="2" fill="none"></path></g><g stroke-linecap="round" transform="translate(785.8914032359389 593.4390591825686) rotate(0 29.50319218489858 6.063869803805574)"><path d="M0 0 C0 0, 0 0, 0 0 M0 0 C0 0, 0 0, 0 0 M-0.2 12.33 C2.97 10.69, 4.64 5.94, 10.17 0.16 M-0.6 11.32 C4.53 7.61, 8.01 3.03, 10.04 0.33 M12.25 12.5 C14.66 10.02, 17.75 4.6, 22.14 0.38 M10.86 12.69 C13.08 7.8, 16.23 5.48, 20.48 0.04 M22.95 11.75 C24.64 10.7, 24.83 7.08, 32.24 0 M21.11 12.13 C24.28 8.47, 28.93 4.98, 32.39 0.48 M30.68 11.78 C33.41 7.61, 37.01 5.47, 41.45 0.7 M31.97 12.65 C36.06 7.08, 39.47 2.8, 42.56 0.58 M42.91 12.53 C45.77 8.68, 49.84 2.78, 52.72 -0.43 M42.57 11.63 C45.29 9.35, 48.71 4.91, 53.33 -0.14 M53.12 12.48 C55.25 8.57, 56.46 8.76, 62.07 1.57 M52.88 11.83 C55.81 8.34, 59.55 5.26, 61.29 2.04 M0.03 12.16 C0.03 12.16, 0.03 12.16, 0.03 12.16 M0.03 12.16 C0.03 12.16, 0.03 12.16, 0.03 12.16 M11.38 10.8 C7.33 9.6, 4.15 5.33, -0.27 0.91 M12.38 12.74 C10.41 9.61, 7.62 8.23, -0.65 1.88 M22.4 12.41 C18.79 7.31, 12.6 0.1, 2.77 -4.44 M24.52 11.65 C18.71 7.3, 14.1 2.96, 4.91 -4.48 M37.14 12.5 C31.75 6.65, 26.96 4.37, 17.12 -6.98 M36.39 12.42 C32.19 8.64, 28.9 5.44, 15.91 -4.59 M50.32 10.86 C44.08 9.48, 39.98 5.86, 26.89 -4.55 M48.7 13.18 C41.91 5.57, 33.81 -0.48, 28.29 -4.54 M61.01 9.56 C52.81 4.71, 46.22 0.82, 39.42 -5.83 M59.3 11.72 C53.78 6.64, 48.7 0.96, 41.1 -4.31" stroke="#4c6ef5" stroke-width="1" fill="none"></path><path d="M1.56 1.09 C21.35 0.01, 44.79 0.23, 59.96 -0.5 M0.88 0.84 C22.47 -0.21, 46.27 0.17, 59.86 -0.25 M57.86 1.04 C59.66 1.73, 58.8 6.25, 59.74 12.08 M58.84 0.06 C58.84 2.91, 58.35 6.35, 59.49 12.41 M60.6 12.7 C45.03 12.41, 33.69 13.48, -1.26 10.85 M59.95 11.4 C45.84 12.18, 32.3 11.68, -0.42 12.31 M0.21 11 C0.92 7.58, -0.05 6.21, -0.5 1.11 M-0.47 11.85 C-0.14 8.54, -0.33 3.49, 0.23 0.15" stroke="#1864ab" stroke-width="2" fill="none"></path></g><g stroke-linecap="round" transform="translate(786.7162779564151 575.5408341155871) rotate(0 29.50319218489858 6.063869803805574)"><path d="M0 0 C0 0, 0 0, 0 0 M0 0 C0 0, 0 0, 0 0 M-0.86 11.95 C2.91 7.36, 8.57 3.86, 9.35 -0.07 M-0.55 12.59 C2.84 8.77, 4.47 5.66, 10.83 -0.71 M9.81 11.45 C13.51 6.32, 17.97 0.97, 22.02 1.17 M10.42 11.4 C14.09 8.55, 18.26 4.04, 21.13 -0.37 M22.01 13.41 C25.15 8.7, 26.69 7.78, 30.6 0.6 M20.71 12.18 C25.33 8.45, 28.93 3.83, 31.2 0.19 M32.68 11.55 C34.66 8.74, 38.45 5.85, 43.2 0.96 M32.11 11.97 C34.48 8.42, 37.06 6.3, 42.76 -0.81 M41.81 11.91 C44.11 9.39, 47.8 7.66, 52.16 0.96 M43.2 11.33 C44.95 9.64, 47.55 7.06, 52.48 0.18 M52.96 13.03 C56.53 7.52, 58.33 4.31, 61.44 3.22 M53.78 11.45 C56.16 8.27, 59.07 5.36, 61.18 1.76 M0.03 12.16 C0.03 12.16, 0.03 12.16, 0.03 12.16 M0.03 12.16 C0.03 12.16, 0.03 12.16, 0.03 12.16 M13.52 11.04 C9.34 9.09, 6.78 5.66, 1.02 1.36 M12.19 12.26 C7.71 8.12, 3.01 3.95, 0.66 2.06 M22.48 12.95 C16.3 6.26, 10.31 1.1, 6.15 -6.56 M23.68 11.34 C19.22 6.61, 13.51 2.57, 4.93 -4.98 M36.84 14.23 C27.69 4.83, 19.28 -0.71, 16.74 -6.18 M37.15 12.96 C28.97 5.26, 22.37 -1.75, 16.43 -6.24 M48.93 10.92 C46.49 7.73, 39.33 6.03, 28.4 -6.69 M49.84 12.31 C41.16 5, 34.24 0, 28.64 -4.5 M58.78 11.89 C54.42 3.33, 47.08 -0.2, 40.64 -6.63 M59.92 11.32 C52.91 7.01, 47.58 0.42, 41.15 -5.02" stroke="#4c6ef5" stroke-width="1" fill="none"></path><path d="M-1.83 -1.8 C22.87 0.14, 43.72 -0.11, 57.54 0.92 M0.93 0.31 C17.29 1.04, 34.13 -0.2, 59.56 0.28 M59.16 1.04 C58.1 2.46, 58.2 7.87, 57.82 12.29 M59.6 -0.08 C59.36 3.06, 58.58 5.28, 59.14 12.17 M58.3 12.53 C38.3 12.71, 22.24 13.8, 1.24 13.58 M58.16 12.03 C44.4 11.62, 31.2 12.06, -0.67 12.65 M-0.09 13.2 C-0.1 7.07, -1.17 3, 0.06 1.09 M0.1 12.37 C-0.17 8.48, 0.09 3.81, -0.16 -0.1" stroke="#1864ab" stroke-width="2" fill="none"></path></g><g stroke-linecap="round" transform="translate(863.0431290572869 574.0570840206619) rotate(0 29.50319218489858 32.981257113476204)"><path d="M0 0 C0 0, 0 0, 0 0 M0 0 C0 0, 0 0, 0 0 M0.06 11.17 C2.98 9.79, 5.27 3.5, 11.19 -0.86 M-0.66 11.58 C2.42 8.15, 6.07 5.47, 10.47 -0.49 M-0.67 24.8 C6.59 19.82, 11.16 13.53, 22.06 -2.04 M0.68 25 C6.59 15.93, 12.54 9.92, 21.53 -0.96 M-0.55 35.34 C10.5 24.76, 15.76 17.85, 33.62 1.84 M0.33 36.21 C9.6 24.85, 19.7 13.46, 31.01 0.69 M-0.34 47.67 C15.91 30.62, 29.12 15.19, 42.74 1.13 M-0.06 49.09 C9.95 38.46, 18.6 27.1, 43.11 0.76 M0.19 58.98 C14.76 46.96, 26.01 28.02, 52.6 0.72 M0.01 60.89 C21.05 38.15, 39.88 15.53, 53 0.38 M3.59 68.28 C24.32 44.9, 42.64 24.41, 62.31 2.6 M3.93 69.02 C23.03 47.37, 42.74 25.28, 61.01 1.41 M15.01 68.61 C33.15 49.22, 48.78 28.67, 63.82 13.35 M14.9 68.61 C25.86 54.69, 37.28 40.96, 62.33 13.18 M25.88 69.21 C35.38 57.05, 47.59 42.45, 60.43 26.8 M24.35 69.83 C35.21 57.29, 45.03 45.05, 62.23 26.41 M35.73 70.82 C44.94 58.02, 56.63 48.65, 61.29 40.64 M34.65 68.48 C42.39 59.85, 50.1 51.21, 61.32 39.06 M44.56 70.54 C49.6 63.57, 55.69 62.31, 61.54 51.66 M46.02 68.12 C51.33 63.71, 56.43 57.6, 62.44 50.82 M-0.21 65.78 C-0.21 65.78, -0.21 65.78, -0.21 65.78 M-0.21 65.78 C-0.21 65.78, -0.21 65.78, -0.21 65.78 M10.98 65.79 C9.48 62.54, 5.67 62.54, 1.29 56.3 M12.54 66.06 C6.8 61.27, 2.64 58.54, -1.02 55.26 M23.24 65.64 C17.65 61.99, 13.31 55.67, -1.75 44.45 M23.9 65.86 C14.56 58.2, 5.99 50.55, 0.05 44.15 M36.06 64.48 C23.22 56.44, 12.42 44.9, -1.49 35.89 M36.55 66.14 C25.44 56.24, 14.17 47.55, -0.11 33.47 M48.55 65.24 C34.11 50.45, 15.27 37.81, -1.65 22.59 M48.99 65.99 C31.9 50.03, 12.83 34.54, 0.35 23.72 M59.97 64.8 C35.78 44.01, 12.01 25.84, -0.69 12.7 M59.46 65.3 C36.72 45.36, 14.51 26.5, -0.11 14.02 M60.69 55.35 C36.54 34.36, 13.55 11.97, 1.13 0.75 M60.04 55.4 C43.48 40.73, 27.63 24.62, 0.64 3.21 M59.37 44.43 C46.85 32.39, 34.43 22.51, 5.47 -4.68 M60.61 44.35 C40.16 26.54, 21.25 10.21, 4.89 -5.16 M61.29 34.59 C46.4 19.06, 32.5 10.14, 17.43 -5.66 M59.89 33.84 C45.87 20.08, 30.41 6.38, 15.4 -4.31 M59.15 21.67 C48.04 11.33, 37.39 0.42, 28.2 -5.6 M59.04 22.76 C48.75 13.17, 40.44 5.31, 28.72 -5.66 M60.55 11.37 C55.03 8.06, 50.73 3.09, 40.45 -5.7 M59.85 10.97 C54.36 7.57, 46.35 1.42, 41.39 -4.07 M59.68 0.6 C56.55 -0.47, 54.47 -3.81, 52.78 -5.35 M59.45 1.2 C57.66 -0.48, 55.73 -2.66, 52.93 -4.25" stroke="#fa5252" stroke-width="1" fill="none"></path><path d="M-1.91 -1.46 C10.99 0.53, 23.08 2.14, 58.21 -1.4 M0.57 -0.72 C20.55 1.26, 42.08 -0.26, 58.15 -0.27 M60.67 -1.17 C59.12 22.3, 60.11 47.79, 57.53 67.35 M59.1 -0.15 C59.74 23.6, 59.25 45.34, 59.87 65.24 M57.34 65.89 C45.15 64.43, 31.74 64.84, 0.79 67.6 M58.02 66.87 C46.74 66.17, 35.88 66.03, 0.71 66.11 M-0.06 64.77 C1.3 42.91, 1.64 21.12, -0.86 1.76 M0.29 65.38 C0.47 51.63, -0.55 37.55, 0.1 -0.53" stroke="#c92a2a" stroke-width="2" fill="none"></path></g><g stroke-linecap="round" transform="translate(573.9375092579194 569.9742135488668) rotate(0 29.50319218489858 32.981257113476204)"><path d="M0 0 C0 0, 0 0, 0 0 M0 0 C0 0, 0 0, 0 0 M-1.4 10.74 C4.28 9.88, 7.77 5.37, 9.64 0.73 M0.1 11.37 C4.3 7.07, 8.39 3.91, 11.12 -0.08 M-0.49 23.09 C7.87 17.21, 13.83 8.51, 21.85 1.28 M1.18 23.68 C7.28 17.16, 13.97 8.78, 21.65 -0.12 M1.62 35.47 C8.88 24.72, 20.86 15.28, 29.96 -0.7 M-0.49 36.62 C9.3 25.4, 19.62 14.91, 32.78 0.48 M-0.9 48.38 C15.2 34.02, 26.94 18.91, 41.42 0.1 M-0.04 49.84 C14.81 30.8, 29.26 15.09, 41.86 0.75 M0.89 59.81 C19.44 41.3, 36.42 17.17, 52.76 -0.77 M-0.83 60.07 C20.03 38.01, 40.28 14.22, 53.57 0.66 M4.65 69.65 C24.07 44.2, 45.31 20.68, 59.87 0.4 M3.16 68.46 C17.98 52.22, 33.69 34.2, 61.84 1.6 M14.08 70.97 C30.85 51.28, 46.04 33.85, 63.89 14.06 M13.82 68.55 C25.75 56.34, 36.88 43.16, 60.96 13.68 M23.51 71.06 C34.84 59.32, 42.02 49.84, 62.69 26.93 M24.86 70.11 C36.01 56.66, 47.55 42.83, 62.37 26.04 M36.83 69.86 C40.9 59.21, 48.24 54.09, 62.44 37.75 M35.9 68.31 C43.55 58.78, 53.33 48.21, 61.41 39.31 M44.77 67.72 C51.39 66.52, 55.14 61.12, 62.65 51.41 M45.03 68.2 C52.22 61.22, 58.22 54.41, 61.65 50.52 M-0.21 65.78 C-0.21 65.78, -0.21 65.78, -0.21 65.78 M-0.21 65.78 C-0.21 65.78, -0.21 65.78, -0.21 65.78 M12.87 65.74 C8.99 61.8, 7.01 59.89, -1.18 56.28 M11.46 65.15 C8.69 62.74, 4.53 59.71, 0.03 54.52 M23.17 64.19 C16.95 58.7, 9.49 55.01, -2.17 44.69 M24.33 65.82 C16.27 59.95, 8.72 53.06, -0.4 43.87 M36.23 64.64 C27.34 55.2, 14.04 48.21, 1.5 33.48 M36.61 66.05 C28.14 57.53, 19.1 51.01, 0.38 33.12 M49.42 66.73 C30.72 52.44, 13.62 36.95, -2.08 23.17 M49.59 66.75 C32.61 53.02, 18.68 38.97, -0.03 22.97 M60.17 66.19 C45.4 52.48, 27.41 37.99, -1.51 11.62 M60.13 65.06 C38.59 46.45, 15.39 26.81, -0.62 12.61 M58.44 55.13 C39.47 36.72, 14.67 17.21, -0.85 3.1 M59.97 55.25 C41.31 38.8, 24.39 24.74, -0.17 3.16 M58.89 45.14 C43.83 31.06, 29.98 18.48, 5.24 -4.93 M59.21 44.55 C47.77 33.29, 34.8 21.7, 4.76 -4.85 M60.19 33.85 C44.79 19.95, 29.3 8.33, 17.91 -3.58 M60.85 32.48 C47.32 22.59, 34.19 11.5, 15.58 -4.45 M60.85 22.33 C49.56 13.95, 40.11 6.7, 29.81 -4.2 M59.82 23.02 C52.01 16.27, 46.4 11.09, 28.6 -5.2 M59.68 10.57 C52.98 8.26, 46.22 2.6, 39.49 -3.85 M60.8 12.76 C53.76 4.89, 45.31 -0.47, 40.63 -3.83 M60.05 1.18 C57.14 -0.79, 55.32 -2.06, 52.79 -4.15 M59.84 1.3 C57.87 -0.11, 55.86 -1.56, 53.19 -4.27" stroke="#fa5252" stroke-width="1" fill="none"></path><path d="M-1.47 -1.99 C11.74 1.15, 27.22 -1.56, 60.64 1.49 M-0.24 0.93 C11.51 0.85, 23.92 0.43, 58.58 0.67 M57.62 1.36 C57.11 18.73, 60.38 37.39, 57.81 64.49 M58.48 -0.94 C57.83 21.81, 58.09 42.76, 58.44 66.9 M60.34 67.36 C42.26 65.81, 25.13 64.87, 0.03 67.43 M58.63 65.42 C40.09 66.25, 20.57 66.23, 0.56 65.47 M1.81 64.3 C-0.99 47.16, -0.67 26.72, 0.36 -0.17 M-0.52 65.84 C0.87 52.51, -0.19 38.57, -0.86 0.61" stroke="#c92a2a" stroke-width="2" fill="none"></path></g><g stroke-linecap="round"><g transform="translate(709.4315500038774 592.7728854462857) rotate(0 38.16041690673592 21.410415026230112)"><path d="M0.53 -0.75 C27.25 16.33, 56.82 31.89, 75.79 43.57" stroke="#1864ab" stroke-width="1.5" fill="none" stroke-dasharray="8 9"></path></g><g transform="translate(709.4315500038774 592.7728854462857) rotate(0 38.16041690673592 21.410415026230112)"><path d="M46.82 37.39 C56.23 40.9, 68.6 42.64, 76.01 44.7" stroke="#1864ab" stroke-width="1.5" fill="none"></path></g><g transform="translate(709.4315500038774 592.7728854462857) rotate(0 38.16041690673592 21.410415026230112)"><path d="M57.21 19.7 C62.79 29.87, 71.28 38.21, 76.01 44.7" stroke="#1864ab" stroke-width="1.5" fill="none"></path></g></g><mask></mask><g stroke-linecap="round"><g transform="translate(707.5204458309872 571.0631384972148) rotate(0 38.61327103408075 23.998484022894445)"><path d="M1.26 1.19 C29.46 17.02, 55.65 35.24, 75.97 46.81" stroke="#1864ab" stroke-width="1.5" fill="none" stroke-dasharray="8 9"></path></g><g transform="translate(707.5204458309872 571.0631384972148) rotate(0 38.61327103408075 23.998484022894445)"><path d="M47.8 42.18 C58.96 42.4, 68.5 45.19, 76.14 44.83" stroke="#1864ab" stroke-width="1.5" fill="none"></path></g><g transform="translate(707.5204458309872 571.0631384972148) rotate(0 38.61327103408075 23.998484022894445)"><path d="M58.42 24.62 C65.93 31.11, 71.66 40.2, 76.14 44.83" stroke="#1864ab" stroke-width="1.5" fill="none"></path></g></g><mask></mask><g stroke-linecap="round"><g transform="translate(708.6406009361763 514.0545496510913) rotate(0 37.61378678601159 43.03499435635058)"><path d="M0.17 0.84 C18.56 20.91, 33.53 38.31, 75.06 85.23" stroke="#1864ab" stroke-width="1.5" fill="none" stroke-dasharray="8 9"></path></g><g transform="translate(708.6406009361763 514.0545496510913) rotate(0 37.61378678601159 43.03499435635058)"><path d="M48.88 71.73 C56.34 75.54, 60.65 77.12, 76.29 85.65" stroke="#1864ab" stroke-width="1.5" fill="none"></path></g><g transform="translate(708.6406009361763 514.0545496510913) rotate(0 37.61378678601159 43.03499435635058)"><path d="M64.26 58.15 C68.32 64.87, 69.17 69.49, 76.29 85.65" stroke="#1864ab" stroke-width="1.5" fill="none"></path></g></g><mask></mask><g stroke-linecap="round"><g transform="translate(703.1326801501091 465.9753582663998) rotate(0 41.48096404423177 56.75078897613821)"><path d="M1.91 -0.77 C19.09 22.82, 34.26 48.3, 81.05 114.27" stroke="#1864ab" stroke-width="1.5" fill="none" stroke-dasharray="8 9"></path></g><g transform="translate(703.1326801501091 465.9753582663998) rotate(0 41.48096404423177 56.75078897613821)"><path d="M58.43 96.24 C63.12 100.16, 66.47 105.87, 79.35 113.96" stroke="#1864ab" stroke-width="1.5" fill="none"></path></g><g transform="translate(703.1326801501091 465.9753582663998) rotate(0 41.48096404423177 56.75078897613821)"><path d="M75.26 84.51 C76.62 90.84, 76.54 98.94, 79.35 113.96" stroke="#1864ab" stroke-width="1.5" fill="none"></path></g></g><mask></mask><g stroke-linecap="round" transform="translate(647.519965848518 479.56484462596563) rotate(0 29.50319218489858 10.843214685822204)"><path d="M0 0 C0 0, 0 0, 0 0 M0 0 C0 0, 0 0, 0 0 M-0.16 11.38 C5.28 6.54, 6.09 4.14, 11.59 -1.07 M0.15 12.49 C4.73 7.83, 8.4 2.67, 9.92 0.07 M1.36 23.86 C9.48 16.58, 15.57 8.7, 20.37 0.49 M1.43 21.85 C7.25 16.11, 11.91 10.44, 21.17 0.18 M10.36 21.18 C18.13 16.55, 19.79 10.14, 33.78 0.13 M12.72 22.13 C15.98 17.04, 21.33 12.32, 32.87 0.61 M22.36 22.52 C30.06 15.54, 35.66 8.5, 41.63 0.35 M23.46 22.92 C29.63 13.66, 35.93 6.76, 42.18 0.2 M34.37 21.28 C38.68 14.23, 43.75 8.05, 53.89 0.23 M33.25 23.88 C37.73 17.6, 42.27 12.46, 52.35 -0.51 M41.8 24.88 C49.1 15.56, 54.87 8.26, 62.48 1.93 M43.59 24.09 C51.05 16.28, 55.92 7.52, 60.84 2.73 M54.05 23.59 C56.08 19.68, 59.91 15.67, 62.08 14.19 M54.14 22.68 C56.93 20.54, 59.08 16.98, 62.52 14.46 M-0.17 21.54 C-0.17 21.54, -0.17 21.54, -0.17 21.54 M-0.17 21.54 C-0.17 21.54, -0.17 21.54, -0.17 21.54 M10.46 20.78 C9.33 18.12, 5.05 17.15, 1.07 12.26 M12.3 21.46 C8.37 18.85, 6.46 15.97, -0.19 11.33 M22.74 20.81 C19.58 16.89, 8.77 9.19, -1.58 0.83 M25.44 21.7 C20.28 16.91, 14.43 12.61, -1.1 1.02 M36.72 21.14 C23.51 9.63, 10.67 -1.45, 5.85 -5.32 M36.01 21.19 C25.77 12.41, 15.07 4.52, 5.82 -5.95 M46.93 19.7 C35.52 10, 24.73 -0.09, 16.14 -5.17 M47.8 22.19 C40.54 13.63, 31.47 6.22, 17.74 -6.67 M59.68 21.06 C50.85 14.82, 46.04 7.03, 29.82 -4.92 M60.65 21.63 C48.19 12.52, 38.84 3.43, 29.44 -5.82 M59.88 9.64 C54.24 4.22, 46.9 0.09, 42.94 -7.38 M60.49 9.62 C55.59 6.1, 49.95 1.09, 41.38 -6.05" stroke="#4c6ef5" stroke-width="1" fill="none"></path><path d="M1.44 -1.9 C16.4 1.14, 33.13 0.54, 57.94 0.62 M0.96 -0.68 C13.16 0.17, 27.93 0.09, 58.05 -0.93 M57.52 1.04 C59.15 6.87, 61.04 17.13, 57.01 19.78 M58.05 -0.2 C58.93 4.45, 59.33 10.83, 60.01 22.15 M60.36 20.83 C38.55 21.64, 18.7 22.45, -1.99 20.75 M58.13 21.1 C44.06 21.45, 30.12 22.93, 0.51 22.18 M-1.37 23.26 C1.52 13.27, -1.75 7.13, -1.1 0.15 M-0.77 21.22 C0.48 13.5, 0.65 5.53, -0.91 -0.33" stroke="#1864ab" stroke-width="2" fill="none"></path></g><g transform="translate(667.5215322319164 711.587463718397) rotate(0 96.5 12.5)"><text x="96.5" y="18" font-family="Virgil, Segoe UI Emoji" font-size="20px" fill="#000000" text-anchor="middle" style="white-space: pre;" direction="ltr">Popular approaches</text></g><g transform="translate(588.9410602915359 775.4803575767855) rotate(0 36.5 12.5)"><text x="36.5" y="18" font-family="Virgil, Segoe UI Emoji" font-size="20px" fill="#000000" text-anchor="middle" style="white-space: pre;" direction="ltr">Random</text></g><g transform="translate(715.8003835878662 770.4756315177583) rotate(0 49 25)"><text x="49" y="18" font-family="Virgil, Segoe UI Emoji" font-size="20px" fill="#000000" text-anchor="middle" style="white-space: pre;" direction="ltr">Based on</text><text x="49" y="43" font-family="Virgil, Segoe UI Emoji" font-size="20px" fill="#000000" text-anchor="middle" style="white-space: pre;" direction="ltr">properties</text></g><g transform="translate(835.9732750535331 775.3199367326324) rotate(0 48.5 12.5)"><text x="48.5" y="18" font-family="Virgil, Segoe UI Emoji" font-size="20px" fill="#000000" text-anchor="middle" style="white-space: pre;" direction="ltr">Clustering</text></g><g stroke-linecap="round"><g transform="translate(782.3660893912747 738.1952850653488) rotate(0 45.15566424031749 12.711610521874718)"><path d="M-0.06 1.61 C27.77 6.66, 59.88 15.61, 90.37 23.81" stroke="#e67700" stroke-width="2.5" fill="none" stroke-dasharray="8 10"></path></g><g transform="translate(782.3660893912747 738.1952850653488) rotate(0 45.15566424031749 12.711610521874718)"><path d="M60.42 28.01 C68.3 24.45, 80.67 25.25, 89.98 25.07" stroke="#e67700" stroke-width="2.5" fill="none"></path></g><g transform="translate(782.3660893912747 738.1952850653488) rotate(0 45.15566424031749 12.711610521874718)"><path d="M65.76 8.19 C72.07 11.03, 82.71 18.24, 89.98 25.07" stroke="#e67700" stroke-width="2.5" fill="none"></path></g></g><mask></mask><g stroke-linecap="round"><g transform="translate(768.4672400864638 740.4230085904273) rotate(0 -0.03662292961780622 14.391871492861355)"><path d="M0.51 -1.16 C-1.43 6.83, -0.32 14.41, 0.35 29.94" stroke="#e67700" stroke-width="2.5" fill="none" stroke-dasharray="8 10"></path></g><g transform="translate(768.4672400864638 740.4230085904273) rotate(0 -0.03662292961780622 14.391871492861355)"><path d="M-4.78 16.2 C-4.64 19.97, -2.35 23.46, 0.72 31.24" stroke="#e67700" stroke-width="2.5" fill="none"></path></g><g transform="translate(768.4672400864638 740.4230085904273) rotate(0 -0.03662292961780622 14.391871492861355)"><path d="M4.82 15.7 C2.38 19.63, 2.08 23.26, 0.72 31.24" stroke="#e67700" stroke-width="2.5" fill="none"></path></g></g><mask></mask><g stroke-linecap="round"><g transform="translate(767.0921540190138 737.8256237963524) rotate(0 -57.73052202947929 15.64696404985989)"><path d="M1.01 -1.12 C-32.04 9.01, -61 15.11, -116.47 32.42" stroke="#e67700" stroke-width="2.5" fill="none" stroke-dasharray="8 10"></path></g><g transform="translate(767.0921540190138 737.8256237963524) rotate(0 -57.73052202947929 15.64696404985989)"><path d="M-91.36 13.42 C-100.2 20.65, -104.91 23.32, -114.61 33.61" stroke="#e67700" stroke-width="2.5" fill="none"></path></g><g transform="translate(767.0921540190138 737.8256237963524) rotate(0 -57.73052202947929 15.64696404985989)"><path d="M-85.52 33.09 C-95.93 35.23, -102.14 32.83, -114.61 33.61" stroke="#e67700" stroke-width="2.5" fill="none"></path></g></g><mask></mask><g transform="translate(1138.9294963479824 309.62156500855235) rotate(0 39.5 18)"><text x="0" y="25" font-family="Virgil, Segoe UI Emoji" font-size="28px" fill="#e67700" text-anchor="start" style="white-space: pre;" direction="ltr">Hybrid</text></g><g transform="translate(1039.5397031839784 348.2632574509298) rotate(0 128 37.5)"><text x="128" y="18" font-family="Virgil, Segoe UI Emoji" font-size="20px" fill="#000000" text-anchor="middle" style="white-space: pre;" direction="ltr">Combining oversampling and</text><text x="128" y="43" font-family="Virgil, Segoe UI Emoji" font-size="20px" fill="#000000" text-anchor="middle" style="white-space: pre;" direction="ltr">undersampling to possibly</text><text x="128" y="68" font-family="Virgil, Segoe UI Emoji" font-size="20px" fill="#000000" text-anchor="middle" style="white-space: pre;" direction="ltr">get better results</text></g><g transform="translate(1031.26386368376 481.1591192375163) rotate(0 129.5 25)"><text x="129.5" y="18" font-family="Virgil, Segoe UI Emoji" font-size="20px" fill="#000000" text-anchor="middle" style="white-space: pre;" direction="ltr">E.g., clustering-based</text><text x="129.5" y="43" font-family="Virgil, Segoe UI Emoji" font-size="20px" fill="#000000" text-anchor="middle" style="white-space: pre;" direction="ltr">undersampling with SMOTE</text></g><g stroke-linecap="round"><g transform="translate(1168.6030666114784 437.91681393460203) rotate(0 0.41798729993479355 14.075556318758572)"><path d="M-0.21 -0.39 C-0.68 9.75, 1.84 17.85, 0.88 28.54" stroke="#e67700" stroke-width="2.5" fill="none" stroke-dasharray="8 10"></path></g><g transform="translate(1168.6030666114784 437.91681393460203) rotate(0 0.41798729993479355 14.075556318758572)"><path d="M-3.92 15.02 C-2.77 20, 0.54 23.61, 1.62 28.86" stroke="#e67700" stroke-width="2.5" fill="none"></path></g><g transform="translate(1168.6030666114784 437.91681393460203) rotate(0 0.41798729993479355 14.075556318758572)"><path d="M5.68 15.12 C3.74 20.17, 3.95 23.74, 1.62 28.86" stroke="#e67700" stroke-width="2.5" fill="none"></path></g></g><mask></mask></svg>