<svg version="1.1" xmlns="http://www.w3.org/2000/svg" viewBox="0 0 1375.065940360255 1520.2697431509387" width="4125.197821080765" height="4560.809229452816">
  <!-- svg-source:excalidraw -->
  
  <defs>
    <style class="style-fonts">
      @font-face {
        font-family: "Virgil";
        src: url("https://excalidraw.com/Virgil.woff2");
      }
      @font-face {
        font-family: "Cascadia";
        src: url("https://excalidraw.com/Cascadia.woff2");
      }
    </style>
  </defs>
  <rect x="0" y="0" width="1375.065940360255" height="1520.2697431509387" fill="#ffffff"></rect><g stroke-linecap="round" transform="translate(10 10) rotate(0 197 23)"><path d="M0 0 C0 0, 0 0, 0 0 M0 0 C0 0, 0 0, 0 0 M-1.08 5.29 C1.48 3.36, 4.71 3.29, 5.4 0.28 M-0.46 6.48 C2.18 3.67, 2.82 1.98, 5.33 0.67 M1.66 11.48 C3.96 9.28, 5.21 0.2, 12.53 -3.23 M0.12 12.02 C2.73 9.15, 6.25 5.55, 10.83 -0.29 M-0.67 22.28 C9.23 12.28, 9.36 3.02, 14.46 -2.8 M-1.62 17.83 C3.23 11.52, 11.42 6.59, 15.8 1.03 M2.88 22.77 C4.77 19.81, 9.5 11.3, 20.25 -0.73 M-0.14 23.18 C9.99 15.79, 14.96 6.22, 20.09 -1.05 M0.34 29.8 C11.56 23.86, 14.33 8.29, 24.79 -2 M1.71 28.97 C9.92 18.83, 19.49 7.93, 27.47 1.97 M-1.46 33.49 C7.97 26.88, 14.48 19.44, 28.64 3.33 M-1.09 36.71 C7.89 26.95, 14.92 21.9, 32.96 -0.39 M-2.18 43.11 C13.22 28.65, 19.06 19.41, 33.43 1.15 M0.1 42.89 C7.33 33.4, 14.07 24.64, 35.56 0.51 M-0.44 43.59 C15.98 33.17, 30.01 17.09, 39.4 -1.06 M0.87 47.86 C11.47 36.41, 19 28.06, 41.3 -1.45 M3.07 49.96 C19.99 27.32, 41.68 6.8, 48.42 3.63 M6.17 46.71 C16.8 35.37, 28.11 23.92, 47.96 -1.02 M8.71 46.25 C25.73 35.69, 33.37 21.12, 53.41 3.27 M11.1 48.42 C28.38 29.94, 41.84 11.57, 52.1 0.52 M17.84 43.05 C28.41 33.83, 45.1 18.91, 57.44 0.81 M18.52 45.94 C31.35 32.67, 45.1 16.11, 57.76 1.53 M23.97 43.89 C34.27 26.5, 49.41 9.11, 63.15 -4.14 M23.74 46.85 C32.7 34.49, 42.18 21.87, 63.53 -1.93 M26.17 50.93 C34.54 37.95, 45.89 31.05, 67.79 2.42 M29.65 47.43 C40.7 31.06, 52.52 18.57, 67.23 2.11 M32.15 50.75 C48.92 33.37, 64.68 13.95, 76.72 -1.36 M31.33 46.86 C42.3 38.35, 51.24 27.8, 72.97 -0.42 M39.68 44.04 C46.76 33.37, 54.29 24.95, 82.4 0.56 M39.18 45.29 C47.7 35.31, 59.89 21.68, 79.83 0.52 M47.66 47.43 C63.71 32.19, 79.33 11.59, 85.87 -4.11 M43.57 45.98 C53.51 38.63, 63.72 25.24, 84.96 1.21 M45.59 43.17 C55.74 36.44, 68.95 24.92, 91.8 1.72 M49.91 45.44 C63.87 31.2, 79.15 13.94, 88.21 -1.68 M56.57 44.92 C68.57 34.52, 83.44 13.06, 97.96 -1.7 M55.35 47.55 C63.92 35.3, 73.25 26.63, 95.25 -1.03 M62.78 47.48 C72.1 29.19, 83.08 20.81, 98.19 2.76 M59.83 45.64 C66.7 34.85, 77.42 24.69, 102.2 -1.07 M64.53 44.57 C79.53 31.87, 87.78 21.79, 103.96 2.89 M66.77 48.71 C78.63 31.94, 90.76 17.67, 106.77 0.67 M69.07 51.28 C80.27 37.75, 85.92 26.37, 107.34 -1.1 M69.47 48.2 C81.48 35.89, 95.96 21.56, 112.83 -0.45 M72.86 46.12 C86.49 35.73, 95.16 27.28, 117.84 1.86 M75.09 48.42 C87.22 31.63, 100.68 20.55, 116.97 -1.34 M83.89 48.98 C88.08 34.85, 96.4 24.94, 120.7 -0.25 M80.5 48.96 C93.16 30.98, 108.39 14.35, 120.31 -0.8 M86.47 47.67 C96.36 27.54, 112.38 16.98, 123.15 3.48 M86.78 47.47 C95.52 38.08, 102.31 29.5, 128.47 -1.12 M92.31 47.63 C100.5 29.02, 113.37 13.64, 135.3 -2.7 M91.82 45.87 C107.25 30.85, 123.12 15.45, 134.03 -1.26 M97.92 45.7 C112.84 31.02, 128.56 5.84, 141.09 -3.32 M97.48 48.44 C105.99 36.2, 112.59 26.51, 137.12 1.32 M103.69 47.89 C115.83 30.27, 126.79 19.45, 143.83 -2.09 M102.18 47.93 C116.31 30.9, 129.06 16.55, 144.58 0.79 M111.37 43.08 C116.4 38.55, 128.26 21.79, 145.15 4 M108.03 47.72 C122.33 30.9, 139.47 12.47, 146.57 1.05 M111.03 44.82 C132.02 27.09, 141.21 14.01, 150.57 -1.7 M113.49 47.93 C131.11 28.46, 147.22 8.18, 155.72 1.83 M118.63 49.04 C135.83 32.55, 147.13 12.63, 156.44 2.36 M116.45 47.53 C125.45 35.58, 137.36 26.59, 159.71 0.91 M122.94 43.83 C141.8 29.25, 153.92 10.44, 163.46 1.59 M122.88 46.49 C136.2 28.41, 149.49 13.89, 164.43 0.14 M131.11 47.17 C139.59 31.96, 154.27 14.02, 171.69 3.06 M129.95 47.89 C141.81 29.37, 156.61 12.76, 170.59 -0.39 M131.64 44.71 C138.92 36.05, 153.68 28.55, 178.04 1.25 M134.65 48.05 C148.73 31.79, 158.48 16.83, 176.85 -0.22 M139.88 43.48 C156.19 33.03, 165.64 16.75, 179.27 3.78 M140.93 46.64 C154.44 32.69, 169.01 14.07, 180.44 -0.38 M145.01 49.65 C158.71 31.65, 169.77 23.2, 185.48 -2.85 M144.29 48.85 C154 36.3, 166.29 20.75, 184.31 -1.32 M147.6 50.3 C164.61 35.57, 173.81 22.42, 191.16 -3.46 M150.97 47.44 C164.18 28.78, 182.24 10.15, 189.7 -0.73 M154.53 47.17 C169.28 29.34, 185.96 8.05, 196.6 3.51 M154.49 48.94 C169.62 31.64, 179.24 18.37, 195.33 0.53 M160.56 46.38 C177.75 32.18, 191.79 13.98, 202.97 -0.22 M158.84 47.73 C172.96 32.87, 190.49 13.06, 201.99 0.65 M167.31 44.21 C177.21 31.79, 190.64 20.84, 209.8 0.94 M167.1 48.19 C179.26 28.19, 195.02 14.99, 207.64 -1.13 M172.71 48.83 C182.44 33.47, 192.74 15.65, 209.94 2.28 M172.51 46.8 C181.7 34.98, 192.65 23.41, 212.09 1.71 M174.08 50.06 C183.3 36.35, 197.7 18.63, 219.13 0.44 M175.18 46.29 C188.73 29.85, 203.12 15.91, 216.11 1.03 M181.58 49.11 C195.84 25.55, 214.75 6.31, 222.94 3.22 M181.13 45.74 C196.85 28.27, 214.92 9.38, 222.02 0.19 M189.21 44.38 C202.92 29.61, 217.51 7.95, 230.28 3.34 M186.97 46.72 C202.26 28.48, 217.26 11.34, 228.84 0.16 M195.68 45.86 C206.61 27.11, 221.73 13.8, 236.44 -3.85 M190.36 48.19 C205.27 33.91, 217.28 18.08, 232.94 1.64 M194.68 49.22 C209.84 32.33, 224.57 17.87, 235.89 2.15 M197.9 48.8 C209.92 34.53, 222.22 18.21, 238.45 -0.03 M205.15 49.79 C220.87 29.21, 228.95 18.31, 244.57 0.98 M201.05 49.36 C214.77 31.8, 226.14 17.78, 245.22 -0.56 M212.11 49.01 C220.64 28.97, 236 13.21, 250.18 1.45 M206.59 47.63 C218.95 36.05, 226.41 23.35, 248.7 -0.27 M209.73 48.25 C223.48 36.14, 233.28 27.76, 257.05 0 M213.25 48.52 C222.86 36.3, 235.65 22.96, 254.42 -1.25 M222.73 46.53 C231.36 36.91, 237.55 21.93, 257.06 -1.51 M218.84 46.16 C229.74 33.11, 240.3 20.78, 258.59 -1.21 M221.48 50.25 C238.23 31.58, 249.16 24.69, 267.24 1.9 M224.86 46.03 C236.65 32.67, 251.06 16.92, 263.27 0.59 M231.41 46.96 C241.76 37.3, 249.48 27.36, 268.7 4.12 M227.64 47.11 C241.4 36.33, 250.81 22.68, 268.96 1.54 M232.07 47.12 C242.25 33.34, 254.13 18.7, 276.14 1.7 M234.96 48.02 C250.51 29.82, 262.37 13.88, 277.71 1.74 M242.62 49.84 C246.9 39.33, 253.81 26.08, 276.89 3.58 M241.17 45.06 C249.2 34.16, 258.75 24.08, 281.82 2.19 M244.81 44.61 C261.53 28.03, 277.42 7.1, 284.35 -3.16 M243.82 46.45 C262.15 28.99, 276.63 10.04, 286.86 -1.17 M252.49 49.09 C260.52 33.39, 273.48 22.45, 293.06 -3.53 M250.8 46.37 C260.63 32.53, 274.79 19.96, 292.38 0.77 M258.61 46.83 C267.35 33.1, 287.37 11.02, 300.12 3.11 M256.91 47.11 C270.19 28.47, 287.34 9.87, 295 0.3 M264.74 49.01 C267.54 37.61, 276.91 27.17, 300.26 -3.22 M263.07 45.21 C267.31 35.51, 279.22 27.22, 301.05 -0.89 M268.03 48.24 C273.76 34.79, 281.95 23.26, 307.3 -1.33 M264.87 45.58 C278.71 31.8, 291.14 16.77, 305.65 -1.63 M274.74 48.26 C288.49 32.87, 298.79 12.15, 309.16 0.86 M271.74 47.59 C281.11 34.71, 290.44 22.04, 313.4 0.87 M279.23 49.72 C290.81 32.97, 297.71 14.67, 321.37 -3.93 M275.54 47.25 C287.09 32.45, 297.76 21.76, 317.47 1.12 M285.47 47.9 C300.14 28.89, 312.09 15.49, 326.06 3.44 M281.73 47.3 C294.16 37.23, 300.49 25.23, 324.22 -0.49 M286.02 50.49 C306.28 32.66, 318.69 18.24, 325.46 2.24 M285.94 47.34 C299.87 34.62, 307.54 21.81, 328.33 0.4 M291.55 43.33 C303 33.12, 320.05 16.83, 336.89 -2.36 M293.15 45.96 C308.96 28.97, 321.64 12.13, 333.45 -1.7 M301.82 48.17 C312.31 31.57, 327.91 16.02, 342.29 2.46 M298.28 46.88 C312.69 30.81, 329.71 11.84, 339.29 -0.1 M302.55 49.12 C317.78 36.72, 328.7 20.6, 347.19 -1.07 M304.66 45.77 C311.35 35.6, 322.87 24.19, 346.25 -1.68 M311.68 46.72 C325.03 25.28, 334.71 8.68, 345.57 1.17 M307.96 48.7 C324.18 30.01, 337.42 12.29, 349.92 -0.13 M313.66 47.92 C324.33 31.44, 341.17 17.54, 358.14 -2.82 M312.06 46.45 C323.15 35.53, 334.89 25.12, 356.96 -1.51 M320.28 48.52 C336.96 33.11, 343.63 11.18, 358.6 2.89 M319.55 45.44 C328.86 33.73, 342.5 23.39, 360.98 2.1 M325.69 51.03 C337.38 31.87, 345.97 24.77, 366.53 -3.39 M324.36 45.82 C339.23 29.95, 351.27 13.96, 365.09 -0.5 M327.91 46.3 C344.27 29.4, 356.68 14.8, 370.34 0.81 M330.85 47.58 C342.05 33.48, 350.45 22.1, 370.42 -1.54 M331.77 47.37 C353.87 30.61, 368.59 11.8, 372.8 -0.17 M334.44 48.74 C350.24 31.31, 362.52 13.24, 375.35 -0.12 M338.49 47.15 C347.56 35.41, 358.9 23.4, 378.02 -2.29 M340.79 47.39 C348.18 35.77, 357.55 28.52, 380.05 -0.11 M348.62 44.23 C357.25 28.65, 370.69 10.26, 388.98 -0.17 M346.35 47.89 C351.73 36.05, 361.89 26.43, 385.65 -0.02 M351.58 48.57 C365.36 33.11, 379.7 14.04, 394.5 -1.24 M349.54 46.95 C359.05 35.75, 369.28 27.84, 390.85 1.13 M352.62 51.3 C371.86 33.35, 385.18 17.02, 396.79 -1.78 M355.34 47.77 C367.1 35.91, 376.13 24.28, 397.1 0.2 M362.35 46.41 C368.43 36.98, 377.11 22.95, 393.72 11.07 M362.43 46.16 C371.81 34.28, 384.04 24.3, 396.45 8.28 M367.73 48.6 C373.77 38.67, 385.16 28.2, 392.96 16.29 M367.82 48.68 C374.33 40.34, 382.29 31.55, 395.4 16.05 M369.59 50.91 C377.18 39.4, 386.74 24.67, 398.39 17.53 M373.97 46.74 C382.41 35.09, 389.84 26.72, 394.83 20.69 M377.59 50.56 C381.65 40.77, 391.34 37.01, 392.95 24.33 M377.42 46.74 C384.84 40.24, 390.96 31.55, 394.56 27.5 M383.71 46.67 C386.85 41.36, 390.96 33.05, 399.35 34.55 M383.85 48.14 C385.66 44.68, 389.8 38.18, 395.82 32.76 M388.93 48.9 C392.28 46.28, 394.52 40.58, 398.01 39.79 M388.64 46.45 C388.86 44.34, 390.8 43.14, 396.76 38.17" stroke="#228be6" stroke-width="0.5" fill="none"></path><path d="M2.15 0.53 C153.54 -3.01, 307.18 0.24, 394.8 -1.05 M0.72 0.41 C123.02 -3.56, 245.34 -1.57, 394.15 0.96 M396.74 -1.15 C398.33 7.88, 395.76 21.56, 397.49 44.32 M392.52 1.1 C393.29 10.57, 394.79 22.98, 392.39 45.13 M392.46 45.76 C299.21 39.95, 208.8 41.6, -1.3 46.16 M393.31 45.15 C272.24 43.78, 151.44 44.7, -0.69 46.23 M-1.66 42.97 C-3.44 32.34, 1.24 11.34, -3.7 -1.77 M1 47.85 C1.01 29.44, -0.51 13.36, 1.69 -0.77" stroke="#000000" stroke-width="1" fill="none"></path></g><g transform="translate(27.5 15) rotate(0 179.5 18)"><text x="179.5" y="25" font-family="Virgil, Segoe UI Emoji" font-size="28px" fill="#000000" text-anchor="middle" style="white-space: pre;" direction="ltr">Causes of Data Leakage</text></g><g stroke-linecap="round" transform="translate(12.414414087041223 55.93811414008087) rotate(0 676.3257631366068 727.1658145054289)"><path d="M0.31 -1.45 C434.07 -1.67, 867.33 -3.21, 1352.85 0.78 M1352.72 -1.33 C1359.08 520.87, 1360.11 1040.22, 1351.7 1455.74 M1354.06 1453.06 C838.62 1451, 325.21 1450.55, -0.93 1453.35 M-0.12 1453.9 C9.67 985.75, 7.3 515.29, -1.04 0.05" stroke="#000000" stroke-width="1.5" fill="none" stroke-dasharray="8 9"></path></g><g transform="translate(46.41554217912562 90.5346050365697) rotate(0 632.5 12.5)"><text x="0" y="18" font-family="Virgil, Segoe UI Emoji" font-size="20px" fill="#000000" text-anchor="start" style="white-space: pre;" direction="ltr">Let us discuss the three most frequent causes of Data Leakage that can happen during the data collection and preparation</text></g><g stroke-linecap="round"><g transform="translate(568.4703760237135 116.9018627372825) rotate(0 67.76037504579836 1.2155748806053452)"><path d="M0.41 0.16 C22.98 0.28, 113.69 1.59, 136.36 1.83 M-0.84 -0.81 C21.49 0.02, 112.62 2.65, 135.37 3.24" stroke="#e67700" stroke-width="2" fill="none"></path></g></g><mask></mask><g transform="translate(96.97540489750645 166.33117492863676) rotate(0 175.5 12.5)"><text x="0" y="18" font-family="Virgil, Segoe UI Emoji" font-size="20px" fill="#c92a2a" text-anchor="start" style="white-space: pre;" direction="ltr">Target is a Function of a Feature</text></g><g transform="translate(51.33680678503151 166.54603025747565) rotate(0 3.5 12.5)"><text x="0" y="18" font-family="Virgil, Segoe UI Emoji" font-size="20px" fill="#c92a2a" text-anchor="start" style="white-space: pre;" direction="ltr">1</text></g><g stroke-linecap="round"><g transform="translate(67.97060740732195 157.15413721367804) rotate(0 4.811216311614771 20.883143287483108)"><path d="M-0.68 0.26 C1.19 3.38, 9.73 12.46, 10.28 19.33 C10.82 26.2, 3.85 37.56, 2.6 41.5 M1.16 -0.65 C2.96 2.09, 9.22 10.51, 9.31 17.68 C9.39 24.86, 2.71 38.56, 1.65 42.41" stroke="#c92a2a" stroke-width="2" fill="none"></path></g></g><mask></mask><g transform="translate(99.59644834126811 212.4446678276654) rotate(0 457.5 12.5)"><text x="0" y="18" font-family="Virgil, Segoe UI Emoji" font-size="20px" fill="#000000" text-anchor="start" style="white-space: pre;" direction="ltr">Imagine you train a model to predict the yearly salary of an employee, given his attributes.</text></g><g transform="translate(182.33467997596927 255.00354085221625) rotate(0 447 12.5)"><text x="0" y="18" font-family="Virgil, Segoe UI Emoji" font-size="20px" fill="#000000" text-anchor="start" style="white-space: pre;" direction="ltr">The training data contains, among many other attributes, both monthly and yearly salary.</text></g><g transform="translate(257.30116997800906 302.0286764314842) rotate(0 526.5 12.5)"><text x="0" y="18" font-family="Virgil, Segoe UI Emoji" font-size="20px" fill="#000000" text-anchor="start" style="white-space: pre;" direction="ltr">If you forget to remove the monthly salary, that attribute alone will perfectly predict the yearly salary.</text></g><g transform="translate(587.6411051093291 359.8612552424056) rotate(0 180 12.5)"><text x="0" y="18" font-family="Virgil, Segoe UI Emoji" font-size="20px" fill="#000000" text-anchor="start" style="white-space: pre;" direction="ltr">Is the model perfect? Far from it.. </text></g><g transform="translate(234.64164383556636 425.22077175093) rotate(0 493.5 12.5)"><text x="0" y="18" font-family="Virgil, Segoe UI Emoji" font-size="20px" fill="#000000" text-anchor="start" style="white-space: pre;" direction="ltr">Once the model is put in production, it will likely stop receiving info about a person's monthly salary</text></g><g stroke-linecap="round"><g transform="translate(135.19387951337922 241.53742829855764) rotate(0 17.82662307044302 13.085553600747517)"><path d="M1.08 -1 C0.31 2.78, -11.96 18.11, -5.01 22.57 C1.94 27.04, 34.88 25.39, 42.79 25.77 M0.19 1.08 C-0.18 5.06, -9.8 19.63, -2.83 23.97 C4.14 28.32, 34.46 26.89, 42.02 27.15" stroke="#c92a2a" stroke-width="2" fill="none"></path></g><g transform="translate(135.19387951337922 241.53742829855764) rotate(0 17.82662307044302 13.085553600747517)"><path d="M18.33 33.52 C25.49 32.82, 32.03 30.12, 40.66 28.42 M20.07 35.26 C24.9 33.39, 31.42 31.37, 41.77 27.5" stroke="#c92a2a" stroke-width="2" fill="none"></path></g><g transform="translate(135.19387951337922 241.53742829855764) rotate(0 17.82662307044302 13.085553600747517)"><path d="M18.3 17.48 C25.45 21.1, 32 22.71, 40.66 28.42 M20.04 19.23 C24.9 21.19, 31.43 23, 41.77 27.5" stroke="#c92a2a" stroke-width="2" fill="none"></path></g></g><mask></mask><g stroke-linecap="round"><g transform="translate(200.36860271242767 287.9292625334565) rotate(0 17.906430645472938 13.050078133597708)"><path d="M-0.1 -1.1 C-1.07 2.78, -12.33 18.49, -5.1 22.93 C2.14 27.37, 35.45 25.2, 43.32 25.55 M-1.62 0.94 C-2.29 5.06, -10.37 20.21, -2.96 24.52 C4.45 28.83, 35.34 26.59, 42.83 26.8" stroke="#c92a2a" stroke-width="2" fill="none"></path></g><g transform="translate(200.36860271242767 287.9292625334565) rotate(0 17.906430645472938 13.050078133597708)"><path d="M19.13 33.42 C28.96 33.11, 36.44 28.05, 41.77 27.71 M20.86 35.66 C28.94 32.31, 36.45 30.34, 41.96 26.57" stroke="#c92a2a" stroke-width="2" fill="none"></path></g><g transform="translate(200.36860271242767 287.9292625334565) rotate(0 17.906430645472938 13.050078133597708)"><path d="M18.82 17.38 C28.72 22.81, 36.31 23.5, 41.77 27.71 M20.55 19.63 C28.85 22.05, 36.47 25.85, 41.96 26.57" stroke="#c92a2a" stroke-width="2" fill="none"></path></g></g><mask></mask><g stroke-linecap="round"><g transform="translate(1089.4564893109855 339.0048927217358) rotate(0 -60.577151120390226 18.26682315729886)"><path d="M0.5 0.84 C-0.87 6.5, 13.6 28.09, -7.39 33.13 C-28.38 38.17, -105.91 31.27, -125.43 31.1 M-0.7 0.23 C-1.75 6.1, 15.97 28.93, -4.99 34.26 C-25.95 39.58, -106.62 32.92, -126.45 32.17" stroke="#c92a2a" stroke-width="2" fill="none"></path></g><g transform="translate(1089.4564893109855 339.0048927217358) rotate(0 -60.577151120390226 18.26682315729886)"><path d="M-96.33 22.55 C-109.74 26.04, -119.87 30.84, -125.61 33.96 M-97.23 23.41 C-102.98 25.9, -108.61 27.76, -125.88 32.69" stroke="#c92a2a" stroke-width="2" fill="none"></path></g><g transform="translate(1089.4564893109855 339.0048927217358) rotate(0 -60.577151120390226 18.26682315729886)"><path d="M-97.51 43.03 C-110.34 38.92, -120.03 36.12, -125.61 33.96 M-98.41 43.9 C-104.03 42.16, -109.42 39.8, -125.88 32.69" stroke="#c92a2a" stroke-width="2" fill="none"></path></g></g><mask></mask><g stroke-linecap="round"><g transform="translate(769.2016928057146 394.95573710826284) rotate(0 0.2960695041301733 10.145331118626927)"><path d="M-0.76 -0.74 C-0.73 2.77, 0.93 16.58, 1.35 20.07 M1.04 1.49 C0.76 5.19, 0.16 17.78, 0.15 21.03" stroke="#c92a2a" stroke-width="2" fill="none"></path></g><g transform="translate(769.2016928057146 394.95573710826284) rotate(0 0.2960695041301733 10.145331118626927)"><path d="M-3.84 10.5 C-2.91 14.91, -1.47 19.55, -0.3 20.09 M-3.62 11.26 C-2.68 14.08, -1.36 17.8, 0.09 20.76" stroke="#c92a2a" stroke-width="2" fill="none"></path></g><g transform="translate(769.2016928057146 394.95573710826284) rotate(0 0.2960695041301733 10.145331118626927)"><path d="M3.42 10.72 C1.45 15, -0.01 19.55, -0.3 20.09 M3.65 11.48 C2.2 14.27, 1.13 17.92, 0.09 20.76" stroke="#c92a2a" stroke-width="2" fill="none"></path></g></g><mask></mask><g transform="translate(103.1423832255714 503.33442996676604) rotate(0 130 12.5)"><text x="0" y="18" font-family="Virgil, Segoe UI Emoji" font-size="20px" fill="#c92a2a" text-anchor="start" style="white-space: pre;" direction="ltr">Feature hides the Target</text></g><g transform="translate(57.24247479569385 503.54928529560857) rotate(0 8 12.5)"><text x="0" y="18" font-family="Virgil, Segoe UI Emoji" font-size="20px" fill="#c92a2a" text-anchor="start" style="white-space: pre;" direction="ltr">2</text></g><g stroke-linecap="round"><g transform="translate(73.87627541798793 494.1573922518146) rotate(0 4.801196469269598 20.50316737144749)"><path d="M0.2 -0.24 C2.11 2.95, 10.16 12.55, 10.72 19.51 C11.28 26.47, 4.9 37.86, 3.56 41.51 M-1.15 -1.42 C0.69 1.43, 9.27 10.65, 9.98 17.95 C10.7 25.26, 4.31 38.41, 3.12 42.42" stroke="#c92a2a" stroke-width="2" fill="none"></path></g></g><mask></mask><g transform="translate(122.15692020536699 550.2447440599826) rotate(0 561 12.5)"><text x="0" y="18" font-family="Virgil, Segoe UI Emoji" font-size="20px" fill="#000000" text-anchor="start" style="white-space: pre;" direction="ltr">Sometimes the target is not a function of one or more feature, but rather it is "hidden" in one of the features</text></g><g stroke-linecap="round" transform="translate(173.2598123978114 625.3688315744621) rotate(0 523.540246108786 93.29783370852874)"><path d="M0.28 0.27 C255.97 -3.7, 511.33 -2.77, 1046.38 0.67 M0.14 0.23 C381.77 4.01, 763.81 3.52, 1047.27 0.39 M1049 -1.66 C1046.46 40.06, 1049.29 79.74, 1047.57 186.65 M1046.93 -0.71 C1047.18 53.82, 1047.53 105.82, 1046.56 186.9 M1047.5 187.17 C679.3 185.03, 310.59 184.4, 0.64 187.14 M1047.15 186.48 C788.23 184.89, 529.03 184.67, 0.35 186.99 M1.22 184.94 C-2.87 130.44, 0.13 74.99, -0.71 -1.76 M-0.07 185.63 C1.03 131.67, 0.41 78.01, 0.01 -0.49" stroke="#000000" stroke-width="2" fill="none"></path></g><g stroke-linecap="round"><g transform="translate(173.25981239780958 671.017733944831) rotate(0 525.0009518745201 -1.3819932130409143)"><path d="M0.74 -0.01 C299.03 -1.98, 598.13 -1.9, 1049.91 -0.69 M-0.22 0.07 C239.87 -3.93, 479.7 -3.57, 1050.22 -0.22" stroke="#000000" stroke-width="2" fill="none"></path></g></g><mask></mask><g transform="translate(190.50126814778196 637.9068319662911) rotate(0 64 12.5)"><text x="0" y="18" font-family="Virgil, Segoe UI Emoji" font-size="20px" fill="#000000" text-anchor="start" style="white-space: pre;" direction="ltr">Customer ID</text></g><g transform="translate(345.90896135099683 636.3767097436139) rotate(0 29.5 12.5)"><text x="0" y="18" font-family="Virgil, Segoe UI Emoji" font-size="20px" fill="#000000" text-anchor="start" style="white-space: pre;" direction="ltr">Group</text></g><g transform="translate(434.98261610025475 636.643045259425) rotate(0 79 12.5)"><text x="0" y="18" font-family="Virgil, Segoe UI Emoji" font-size="20px" fill="#000000" text-anchor="start" style="white-space: pre;" direction="ltr">Yearly Spendings</text></g><g transform="translate(616.7171210069628 635.7033331564635) rotate(0 83 12.5)"><text x="0" y="18" font-family="Virgil, Segoe UI Emoji" font-size="20px" fill="#000000" text-anchor="start" style="white-space: pre;" direction="ltr">Yearly Pageviews</text></g><g transform="translate(1132.0713768389414 633.6128506172754) rotate(0 34.5 12.5)"><text x="0" y="18" font-family="Virgil, Segoe UI Emoji" font-size="20px" fill="#e67700" text-anchor="start" style="white-space: pre;" direction="ltr">Gender</text></g><g stroke-linecap="round"><g transform="translate(332.77468557511565 632.0925470490911) rotate(0 -0.22982605051038263 89.48256631854201)"><path d="M1.15 -1.87 C-2.98 44.7, -1.3 87.84, -1.1 180.83 M-0.61 -0.74 C1.29 59.87, 1.82 122.3, -0.78 180.59" stroke="#000000" stroke-width="1" fill="none"></path></g></g><mask></mask><g stroke-linecap="round"><g transform="translate(423.1113443428294 631.8173029320897) rotate(0 -0.6703659726599653 89.98032606120432)"><path d="M-1.42 0.26 C-0.67 51.23, 0.67 97.75, -1.89 179.8 M-0.19 -0.69 C0.64 36.05, 0.69 72.54, 0.35 180.65" stroke="#000000" stroke-width="1" fill="none"></path></g></g><mask></mask><g stroke-linecap="round"><g transform="translate(604.2680695405452 631.7718110464702) rotate(0 -0.4576035812460759 89.95997457306112)"><path d="M0.63 1.43 C-0.3 47.83, -0.73 91.66, -1.55 178.8 M0.26 -0.5 C1.17 65.71, 0.1 132.79, 0.37 180.42" stroke="#000000" stroke-width="1" fill="none"></path></g></g><mask></mask><g stroke-linecap="round"><g transform="translate(796.8085466784505 630.9125021180953) rotate(0 -0.31189663106488297 90.3804967860433)"><path d="M-1.79 1.69 C-0.04 58.45, 3.25 117.5, -0.68 179.75 M-0.61 0.44 C-1.18 38.04, -0.79 76.71, -0.44 180.33" stroke="#000000" stroke-width="1" fill="none"></path></g></g><mask></mask><g stroke-linecap="round"><g transform="translate(1116.1129986913184 629.2510065919632) rotate(0 0.12079603597521782 90.3716046885329)"><path d="M-1.64 0.19 C2.12 62.89, 0.09 125.02, 1.88 181.66 M0.09 -0.91 C0.7 44.73, 0.41 88.64, 0.05 180.58" stroke="#000000" stroke-width="1" fill="none"></path></g></g><mask></mask><g transform="translate(950.9582008888647 632.3565510143817) rotate(0 9 12.5)"><text x="0" y="18" font-family="Virgil, Segoe UI Emoji" font-size="20px" fill="#000000" text-anchor="start" style="white-space: pre;" direction="ltr">...</text></g><g transform="translate(946.4997780895901 708.2698628991202) rotate(0 16 23)"><text x="0" y="32" font-family="Virgil, Segoe UI Emoji" font-size="36px" fill="#000000" text-anchor="start" style="white-space: pre;" direction="ltr">...</text></g><g transform="translate(251.62275642726308 686.3572317574581) rotate(0 3.5 12.5)"><text x="0" y="18" font-family="Virgil, Segoe UI Emoji" font-size="20px" fill="#000000" text-anchor="start" style="white-space: pre;" direction="ltr">1</text></g><g transform="translate(250.31122309353668 718.5939809547126) rotate(0 8 12.5)"><text x="0" y="18" font-family="Virgil, Segoe UI Emoji" font-size="20px" fill="#000000" text-anchor="start" style="white-space: pre;" direction="ltr">2</text></g><g transform="translate(228.37378460551736 780.1024095118792) rotate(0 30.5 12.5)"><text x="0" y="18" font-family="Virgil, Segoe UI Emoji" font-size="20px" fill="#000000" text-anchor="start" style="white-space: pre;" direction="ltr">18879</text></g><g transform="translate(248.0323752753302 743.9712329329559) rotate(0 9 12.5)"><text x="0" y="18" font-family="Virgil, Segoe UI Emoji" font-size="20px" fill="#000000" text-anchor="start" style="white-space: pre;" direction="ltr">...</text></g><g transform="translate(343.4610958848807 686.9326676692071) rotate(0 36.5 12.5)"><text x="0" y="18" font-family="Virgil, Segoe UI Emoji" font-size="20px" fill="#000000" text-anchor="start" style="white-space: pre;" direction="ltr">M18-25</text></g><g transform="translate(342.85811552718224 716.5814396845235) rotate(0 37 12.5)"><text x="0" y="18" font-family="Virgil, Segoe UI Emoji" font-size="20px" fill="#000000" text-anchor="start" style="white-space: pre;" direction="ltr">F25-35</text></g><g transform="translate(352.9261657222214 780.4215603046432) rotate(0 25.5 12.5)"><text x="0" y="18" font-family="Virgil, Segoe UI Emoji" font-size="20px" fill="#000000" text-anchor="start" style="white-space: pre;" direction="ltr">F65+</text></g><g transform="translate(368.66510163103703 744.5567192415292) rotate(0 9 12.5)"><text x="0" y="18" font-family="Virgil, Segoe UI Emoji" font-size="20px" fill="#000000" text-anchor="start" style="white-space: pre;" direction="ltr">...</text></g><g transform="translate(492.0687831519026 684.4502196539179) rotate(0 23.5 12.5)"><text x="23.5" y="18" font-family="Virgil, Segoe UI Emoji" font-size="20px" fill="#000000" text-anchor="middle" style="white-space: pre;" direction="ltr">1350</text></g><g transform="translate(488.55369307277033 716.1593230179569) rotate(0 27.5 12.5)"><text x="0" y="18" font-family="Virgil, Segoe UI Emoji" font-size="20px" fill="#000000" text-anchor="start" style="white-space: pre;" direction="ltr">2365</text></g><g transform="translate(486.6617710483606 777.9340870909364) rotate(0 27 12.5)"><text x="0" y="18" font-family="Virgil, Segoe UI Emoji" font-size="20px" fill="#000000" text-anchor="start" style="white-space: pre;" direction="ltr">3653</text></g><g transform="translate(506.3203617181698 741.8029105120113) rotate(0 9 12.5)"><text x="0" y="18" font-family="Virgil, Segoe UI Emoji" font-size="20px" fill="#000000" text-anchor="start" style="white-space: pre;" direction="ltr">...</text></g><g transform="translate(675.2787774537974 682.7416521939958) rotate(0 28 12.5)"><text x="28" y="18" font-family="Virgil, Segoe UI Emoji" font-size="20px" fill="#000000" text-anchor="middle" style="white-space: pre;" direction="ltr">11,987</text></g><g transform="translate(676.2636873746633 714.4507555580349) rotate(0 30.5 12.5)"><text x="0" y="18" font-family="Virgil, Segoe UI Emoji" font-size="20px" fill="#000000" text-anchor="start" style="white-space: pre;" direction="ltr">8,543</text></g><g transform="translate(680.1205923330508 775.9591841152032) rotate(0 27 12.5)"><text x="0" y="18" font-family="Virgil, Segoe UI Emoji" font-size="20px" fill="#000000" text-anchor="start" style="white-space: pre;" direction="ltr">6,775</text></g><g transform="translate(694.0303560200664 740.0943430520892) rotate(0 9 12.5)"><text x="0" y="18" font-family="Virgil, Segoe UI Emoji" font-size="20px" fill="#000000" text-anchor="start" style="white-space: pre;" direction="ltr">...</text></g><g transform="translate(1159.4789753619389 680.6913712420901) rotate(0 8.5 12.5)"><text x="8.5" y="18" font-family="Virgil, Segoe UI Emoji" font-size="20px" fill="#000000" text-anchor="middle" style="white-space: pre;" direction="ltr">M</text></g><g transform="translate(1160.5119071036697 712.3904242093067) rotate(0 6.5 12.5)"><text x="0" y="18" font-family="Virgil, Segoe UI Emoji" font-size="20px" fill="#000000" text-anchor="start" style="white-space: pre;" direction="ltr">F</text></g><g transform="translate(1160.3989053169462 774.5521285599734) rotate(0 6.5 12.5)"><text x="0" y="18" font-family="Virgil, Segoe UI Emoji" font-size="20px" fill="#000000" text-anchor="start" style="white-space: pre;" direction="ltr">F</text></g><g transform="translate(1158.7305539282079 738.0440621001835) rotate(0 9 12.5)"><text x="0" y="18" font-family="Virgil, Segoe UI Emoji" font-size="20px" fill="#000000" text-anchor="start" style="white-space: pre;" direction="ltr">...</text></g><g stroke-linecap="round"><g transform="translate(1232.260075247541 597.6900387237329) rotate(0 -22.06910054778291 14.545975202358022)"><path d="M-0.65 0.39 C-5.88 1.14, -23.09 0.75, -30.36 5.61 C-37.63 10.47, -42.21 25.8, -44.29 29.55 M1.21 -0.46 C-4.3 0.45, -23.69 -0.96, -31.45 3.73 C-39.21 8.42, -43.56 23.48, -45.34 27.68" stroke="#000000" stroke-width="1" fill="none"></path></g><g transform="translate(1232.260075247541 597.6900387237329) rotate(0 -22.06910054778291 14.545975202358022)"><path d="M-44.74 13.78 C-44.6 18.7, -44.17 25.54, -45.99 28.62 M-44.81 14.24 C-44.74 17.01, -45.97 19.15, -45.72 27.64" stroke="#000000" stroke-width="1" fill="none"></path></g><g transform="translate(1232.260075247541 597.6900387237329) rotate(0 -22.06910054778291 14.545975202358022)"><path d="M-36.04 17.06 C-39.28 20.67, -42.2 26.25, -45.99 28.62 M-36.12 17.53 C-37.85 19.6, -40.9 21.05, -45.72 27.64" stroke="#000000" stroke-width="1" fill="none"></path></g></g><mask></mask><g transform="translate(1237.9255892192377 582.1799448752245) rotate(0 36 12.5)"><text x="0" y="18" font-family="Virgil, Segoe UI Emoji" font-size="20px" fill="#364fc7" text-anchor="start" style="white-space: pre;" direction="ltr">Target</text></g><g stroke-linecap="round" transform="translate(327.7151157800181 672.3483835262632) rotate(0 52.479680476574686 69.68258722179598)"><path d="M29.39 7.49 C35.95 2.21, 46.16 -0.63, 54.25 -0.23 C62.35 0.17, 70.94 4.6, 77.95 9.9 C84.96 15.2, 91.84 22.44, 96.32 31.56 C100.8 40.68, 104.1 53.86, 104.84 64.63 C105.58 75.4, 103.78 86.3, 100.76 96.21 C97.75 106.12, 92.91 117.08, 86.75 124.1 C80.6 131.11, 71.99 136.28, 63.84 138.33 C55.69 140.37, 45.92 139.48, 37.84 136.39 C29.75 133.3, 21.04 127.22, 15.33 119.79 C9.61 112.36, 6.03 102.04, 3.54 91.82 C1.06 81.6, -0.84 68.98, 0.41 58.48 C1.65 47.98, 5.45 37.7, 11.01 28.82 C16.56 19.95, 29.48 9.13, 33.75 5.22 C38.03 1.32, 36.5 4.37, 36.66 5.4 M34.5 3.64 C41.85 -0.82, 52.05 -0.45, 59.82 1.12 C67.58 2.68, 74.63 7.1, 81.08 13.04 C87.53 18.99, 94.49 27.44, 98.51 36.79 C102.52 46.14, 104.99 58.54, 105.16 69.17 C105.32 79.79, 103.28 90.85, 99.52 100.53 C95.76 110.2, 89.13 120.63, 82.57 127.23 C76.02 133.83, 68.45 139.05, 60.18 140.13 C51.91 141.21, 40.87 137.48, 32.96 133.69 C25.06 129.89, 17.75 125.11, 12.76 117.36 C7.78 109.61, 5.09 97.82, 3.08 87.21 C1.06 76.59, -0.93 64.23, 0.67 53.67 C2.27 43.1, 7.4 32.03, 12.67 23.81 C17.95 15.59, 28.98 7.08, 32.3 4.36 C35.63 1.64, 32.27 6.38, 32.65 7.47" stroke="#c92a2a" stroke-width="2" fill="none"></path></g><g transform="translate(523.0598717531757 1333.548269820134) rotate(0 76 12.5)"><text x="0" y="18" font-family="Virgil, Segoe UI Emoji" font-size="20px" fill="#c92a2a" text-anchor="start" style="white-space: pre;" direction="ltr">Data Leakage!</text></g><g transform="translate(99.36267116400086 884.6524072859065) rotate(0 124.5 12.5)"><text x="0" y="18" font-family="Virgil, Segoe UI Emoji" font-size="20px" fill="#c92a2a" text-anchor="start" style="white-space: pre;" direction="ltr">Feature from the Future</text></g><g transform="translate(53.46276273412332 884.867262614749) rotate(0 8 12.5)"><text x="0" y="18" font-family="Virgil, Segoe UI Emoji" font-size="20px" fill="#c92a2a" text-anchor="start" style="white-space: pre;" direction="ltr">3</text></g><g stroke-linecap="round"><g transform="translate(70.09656335641739 875.4753695709551) rotate(0 4.9431382632747045 20.901572747551654)"><path d="M-0.06 -1.18 C1.68 1.77, 10.71 10.22, 11.39 17.58 C12.07 24.94, 5.29 39.04, 4 42.99 M-1.55 0.81 C0.04 3.91, 10.12 11.97, 11.01 18.67 C11.9 25.37, 4.9 37.15, 3.79 41.02" stroke="#c92a2a" stroke-width="2" fill="none"></path></g></g><mask></mask><g transform="translate(118.37720814379827 931.5627213791195) rotate(0 576 12.5)"><text x="0" y="18" font-family="Virgil, Segoe UI Emoji" font-size="20px" fill="#000000" text-anchor="start" style="white-space: pre;" direction="ltr">It is a kind of data leakage that is hard to catch if you do not have a clear understanding of the business goal</text></g><g stroke-linecap="round" transform="translate(145.85003495257843 1121.9282515343511) rotate(0 523.540246108786 93.29783370852874)"><path d="M-0.56 0.7 C309.22 -3.26, 616.83 -3.72, 1047.78 0.15 M-0.37 0.05 C350.94 -0.68, 702.16 -0.72, 1046.81 0.06 M1048.01 -0.29 C1047.32 52.94, 1046.24 103.27, 1048.17 186.48 M1047.83 0.24 C1047.22 45.01, 1046.91 91.54, 1047.52 187.07 M1046.48 187.1 C764.2 182.43, 481.87 183.64, -0.03 186.81 M1047.22 186.95 C636.2 183.83, 225.29 184.23, 0.39 186.73 M0.79 187.36 C0.84 126.45, 2.28 65.18, 1.99 1.32 M0.41 186.74 C0.38 114.97, 0.77 45.93, 0.29 -0.96" stroke="#000000" stroke-width="2" fill="none"></path></g><g stroke-linecap="round"><g transform="translate(145.85003495257843 1167.57715390472) rotate(0 525.2190977862883 1.2662890391884503)"><path d="M0.7 0.47 C212 2.29, 423.07 3.66, 1050.39 0.28 M0.05 -0.19 C211.11 3.76, 422.09 3.6, 1050.3 -0.09" stroke="#000000" stroke-width="2" fill="none"></path></g></g><mask></mask><g transform="translate(163.0914907025508 1134.4662519261838) rotate(0 62 12.5)"><text x="0" y="18" font-family="Virgil, Segoe UI Emoji" font-size="20px" fill="#000000" text-anchor="start" style="white-space: pre;" direction="ltr">Borrower ID</text></g><g transform="translate(324.5930871580513 1133.8570961638125) rotate(0 92.5 12.5)"><text x="0" y="18" font-family="Virgil, Segoe UI Emoji" font-size="20px" fill="#000000" text-anchor="start" style="white-space: pre;" direction="ltr">Demographic Group</text></g><g transform="translate(540.3420047696181 1132.1571674801417) rotate(0 49 12.5)"><text x="0" y="18" font-family="Virgil, Segoe UI Emoji" font-size="20px" fill="#000000" text-anchor="start" style="white-space: pre;" direction="ltr">Education</text></g><g transform="translate(1048.2207975579713 1133.4295874542295) rotate(0 67 12.5)"><text x="0" y="18" font-family="Virgil, Segoe UI Emoji" font-size="20px" fill="#e67700" text-anchor="start" style="white-space: pre;" direction="ltr">Will Pay Loan</text></g><g stroke-linecap="round"><g transform="translate(521.4311123671869 1123.7435351130644) rotate(0 -0.7230560753732789 90.28938535607631)"><path d="M-1.98 0.37 C-1.49 70.04, -0.62 140.07, -0.5 180.23 M0.49 0.35 C0.74 41.87, -0.07 84.55, -0.88 179.71" stroke="#000000" stroke-width="1" fill="none"></path></g></g><mask></mask><g stroke-linecap="round"><g transform="translate(658.7133467948988 1120.2762609703186) rotate(0 0.2864833093535708 89.33107748448128)"><path d="M0.37 -1.84 C0.87 56.49, 1.1 114.41, 0.28 178.63 M0.35 0.47 C-0.54 56.35, 0.13 112.5, -0.25 180.5" stroke="#000000" stroke-width="1" fill="none"></path></g></g><mask></mask><g stroke-linecap="round"><g transform="translate(1032.088203110603 1123.5456146551642) rotate(0 -0.8931961346406752 90.05734217918689)"><path d="M-1.84 0.24 C-2.75 60.82, -2.29 120.97, -1.33 180.26 M0.47 -0.14 C0.54 50.57, 0 99.83, 0.54 179.9" stroke="#000000" stroke-width="1" fill="none"></path></g></g><mask></mask><g transform="translate(703.0011465294283 1127.6067090852775) rotate(0 9 12.5)"><text x="0" y="18" font-family="Virgil, Segoe UI Emoji" font-size="20px" fill="#000000" text-anchor="start" style="white-space: pre;" direction="ltr">...</text></g><g transform="translate(698.2154082579036 1212.1727638573757) rotate(0 16 23)"><text x="0" y="32" font-family="Virgil, Segoe UI Emoji" font-size="36px" fill="#000000" text-anchor="start" style="white-space: pre;" direction="ltr">...</text></g><g transform="translate(224.21297898203193 1182.9166517173508) rotate(0 3.5 12.5)"><text x="0" y="18" font-family="Virgil, Segoe UI Emoji" font-size="20px" fill="#000000" text-anchor="start" style="white-space: pre;" direction="ltr">1</text></g><g transform="translate(222.90144564830553 1215.1534009146053) rotate(0 8 12.5)"><text x="0" y="18" font-family="Virgil, Segoe UI Emoji" font-size="20px" fill="#000000" text-anchor="start" style="white-space: pre;" direction="ltr">2</text></g><g transform="translate(200.96400716028438 1276.66182947177) rotate(0 33 12.5)"><text x="0" y="18" font-family="Virgil, Segoe UI Emoji" font-size="20px" fill="#000000" text-anchor="start" style="white-space: pre;" direction="ltr">65723</text></g><g transform="translate(220.62259783009722 1240.5306528928486) rotate(0 9 12.5)"><text x="0" y="18" font-family="Virgil, Segoe UI Emoji" font-size="20px" fill="#000000" text-anchor="start" style="white-space: pre;" direction="ltr">...</text></g><g transform="translate(374.74224930628225 1181.4847749767541) rotate(0 39 12.5)"><text x="39" y="18" font-family="Virgil, Segoe UI Emoji" font-size="20px" fill="#000000" text-anchor="middle" style="white-space: pre;" direction="ltr">M35-50</text></g><g transform="translate(377.4936953406359 1213.1938783407932) rotate(0 37 12.5)"><text x="0" y="18" font-family="Virgil, Segoe UI Emoji" font-size="20px" fill="#000000" text-anchor="start" style="white-space: pre;" direction="ltr">F25-35</text></g><g transform="translate(374.19748435464135 1274.398479978243) rotate(0 39 12.5)"><text x="0" y="18" font-family="Virgil, Segoe UI Emoji" font-size="20px" fill="#000000" text-anchor="start" style="white-space: pre;" direction="ltr">M25-35</text></g><g transform="translate(404.4938278725476 1238.837465834844) rotate(0 9 12.5)"><text x="0" y="18" font-family="Virgil, Segoe UI Emoji" font-size="20px" fill="#000000" text-anchor="start" style="white-space: pre;" direction="ltr">...</text></g><g transform="translate(537.7368333049144 1179.0054323724999) rotate(0 53.5 12.5)"><text x="53.5" y="18" font-family="Virgil, Segoe UI Emoji" font-size="20px" fill="#000000" text-anchor="middle" style="white-space: pre;" direction="ltr">High School</text></g><g transform="translate(550.2158085826031 1208.5764266033002) rotate(0 44.5 12.5)"><text x="0" y="18" font-family="Virgil, Segoe UI Emoji" font-size="20px" fill="#000000" text-anchor="start" style="white-space: pre;" direction="ltr">Master's</text></g><g transform="translate(548.7406389124171 1270.2326750511602) rotate(0 44.5 12.5)"><text x="0" y="18" font-family="Virgil, Segoe UI Emoji" font-size="20px" fill="#000000" text-anchor="start" style="white-space: pre;" direction="ltr">Master's</text></g><g transform="translate(585.2404494664333 1233.0955270717222) rotate(0 9 12.5)"><text x="0" y="18" font-family="Virgil, Segoe UI Emoji" font-size="20px" fill="#000000" text-anchor="start" style="white-space: pre;" direction="ltr">...</text></g><g transform="translate(1109.3606272717116 1178.7448279543423) rotate(0 6 12.5)"><text x="6" y="18" font-family="Virgil, Segoe UI Emoji" font-size="20px" fill="#000000" text-anchor="middle" style="white-space: pre;" direction="ltr">Y</text></g><g transform="translate(1107.8935590134424 1210.4438809215608) rotate(0 7.5 12.5)"><text x="0" y="18" font-family="Virgil, Segoe UI Emoji" font-size="20px" fill="#000000" text-anchor="start" style="white-space: pre;" direction="ltr">N</text></g><g transform="translate(1107.780557226717 1272.6055852722275) rotate(0 7.5 12.5)"><text x="0" y="18" font-family="Virgil, Segoe UI Emoji" font-size="20px" fill="#000000" text-anchor="start" style="white-space: pre;" direction="ltr">N</text></g><g transform="translate(1106.1122058379806 1236.0975188124394) rotate(0 9 12.5)"><text x="0" y="18" font-family="Virgil, Segoe UI Emoji" font-size="20px" fill="#000000" text-anchor="start" style="white-space: pre;" direction="ltr">...</text></g><g stroke-linecap="round"><g transform="translate(1204.8502978023098 1094.2494586836256) rotate(0 -26.433057622453816 15.95739749072618)"><path d="M0.91 0.29 C-4.27 0.87, -21.53 -1.18, -30.64 4.01 C-39.76 9.2, -50.16 26.7, -53.77 31.45 M-0.08 -0.61 C-5.49 0.03, -23.33 -0.58, -31.88 4.94 C-40.43 10.47, -48.05 28.31, -51.37 32.52" stroke="#000000" stroke-width="1" fill="none"></path></g><g transform="translate(1204.8502978023098 1094.2494586836256) rotate(0 -26.433057622453816 15.95739749072618)"><path d="M-47.62 14.46 C-50.75 19.67, -50.86 27.54, -50.53 31.99 M-47.49 15.1 C-49.75 19.19, -49.13 22.59, -51.13 33.33" stroke="#000000" stroke-width="1" fill="none"></path></g><g transform="translate(1204.8502978023098 1094.2494586836256) rotate(0 -26.433057622453816 15.95739749072618)"><path d="M-37.31 20.63 C-43.89 23.87, -47.43 29.69, -50.53 31.99 M-37.18 21.27 C-41.6 23.97, -43.18 26.05, -51.13 33.33" stroke="#000000" stroke-width="1" fill="none"></path></g></g><mask></mask><g transform="translate(1210.5158117740066 1078.7393648351135) rotate(0 36 12.5)"><text x="0" y="18" font-family="Virgil, Segoe UI Emoji" font-size="20px" fill="#364fc7" text-anchor="start" style="white-space: pre;" direction="ltr">Target</text></g><g transform="translate(121.09086877536174 986.3195174167231) rotate(0 553.5 25)"><text x="0" y="18" font-family="Virgil, Segoe UI Emoji" font-size="20px" fill="#000000" text-anchor="start" style="white-space: pre;" direction="ltr">Imagine a client asked you to train a model that predicts whether a borrower will pay back the loan, based on</text><text x="0" y="43" font-family="Virgil, Segoe UI Emoji" font-size="20px" fill="#000000" text-anchor="start" style="white-space: pre;" direction="ltr">attributes such as age, gender, education, salary, marital status, and so on.</text></g><g stroke-linecap="round"><g transform="translate(304.36114185200677 1124.6480915358643) rotate(0 -0.003754902631044388 90.72578525456811)"><path d="M1.55 -0.36 C0.29 58.67, 0.14 115.51, -1.55 181.82 M0.6 -0.13 C0.66 43.06, 0.21 83.56, -0.96 179.37" stroke="#000000" stroke-width="1" fill="none"></path></g></g><mask></mask><g transform="translate(786.3922143642503 1130.7606677511849) rotate(0 118.5 12.5)"><text x="0" y="18" font-family="Virgil, Segoe UI Emoji" font-size="20px" fill="#000000" text-anchor="start" style="white-space: pre;" direction="ltr">Late Payment reminders</text></g><g stroke-linecap="round"><g transform="translate(774.0312515615624 1126.2240753792848) rotate(0 -0.4441078839963666 90.28990220844025)"><path d="M0.65 -0.21 C-0.86 61.73, -0.29 125.64, -0.12 178.59 M-0.52 -0.08 C-1.7 68.03, -2.3 138.77, 0.2 180.79" stroke="#000000" stroke-width="1" fill="none"></path></g></g><mask></mask><g transform="translate(897.6439126048135 1179.0104608532129) rotate(0 8 12.5)"><text x="8" y="18" font-family="Virgil, Segoe UI Emoji" font-size="20px" fill="#000000" text-anchor="middle" style="white-space: pre;" direction="ltr">0</text></g><g transform="translate(902.8437294670039 1210.7095138204313) rotate(0 3.5 12.5)"><text x="0" y="18" font-family="Virgil, Segoe UI Emoji" font-size="20px" fill="#000000" text-anchor="start" style="white-space: pre;" direction="ltr">1</text></g><g transform="translate(900.5345464471229 1272.871218171098) rotate(0 8 12.5)"><text x="0" y="18" font-family="Virgil, Segoe UI Emoji" font-size="20px" fill="#000000" text-anchor="start" style="white-space: pre;" direction="ltr">3</text></g><g transform="translate(896.3954911710825 1236.36315171131) rotate(0 9 12.5)"><text x="0" y="18" font-family="Virgil, Segoe UI Emoji" font-size="20px" fill="#000000" text-anchor="start" style="white-space: pre;" direction="ltr">...</text></g><g stroke-linecap="round" transform="translate(849.5649985168548 1167.7604680281802) rotate(0 52.479680476574686 69.68258722179598)"><path d="M42.3 0.62 C49.7 -2.43, 60.59 -0.88, 68.51 2.33 C76.43 5.54, 84.03 12.21, 89.83 19.88 C95.63 27.55, 101.01 37.94, 103.3 48.36 C105.6 58.79, 105.22 71.66, 103.6 82.44 C101.97 93.22, 98.47 104.4, 93.53 113.03 C88.59 121.67, 81.37 129.72, 73.95 134.25 C66.53 138.78, 57.17 141.05, 48.99 140.21 C40.8 139.37, 31.62 135.03, 24.84 129.23 C18.05 123.43, 12.55 114.74, 8.28 105.4 C4.01 96.07, -0.32 83.86, -0.77 73.2 C-1.21 62.53, 2.03 51.17, 5.63 41.43 C9.23 31.69, 13.53 21.63, 20.83 14.78 C28.13 7.92, 43.95 2.41, 49.41 0.31 C54.87 -1.79, 53.64 1.19, 53.61 2.17 M70.91 3.55 C78.25 6.62, 87.49 17.05, 92.98 25.57 C98.47 34.08, 102.24 44.48, 103.85 54.65 C105.46 64.82, 104.66 76.23, 102.62 86.59 C100.57 96.95, 97.18 108.6, 91.57 116.82 C85.95 125.04, 76.69 132.08, 68.93 135.92 C61.18 139.75, 52.87 141.22, 45.05 139.84 C37.24 138.46, 28.5 134.06, 22.03 127.64 C15.57 121.22, 9.94 111.27, 6.25 101.32 C2.56 91.37, -0.38 78.99, -0.12 67.94 C0.15 56.88, 3.77 44.41, 7.83 34.98 C11.89 25.56, 17.78 17.3, 24.24 11.4 C30.7 5.49, 38.56 0.5, 46.58 -0.42 C54.59 -1.35, 68.06 4.71, 72.33 5.84 C76.6 6.98, 72.66 5.67, 72.21 6.39" stroke="#c92a2a" stroke-width="2" fill="none"></path></g><g transform="translate(255.72751203801818 1393.0569204073126) rotate(0 416.5 12.5)"><text x="0" y="18" font-family="Virgil, Segoe UI Emoji" font-size="20px" fill="#000000" text-anchor="start" style="white-space: pre;" direction="ltr">In the production environment, the value of Late Payment Reminders is always zero</text></g><g transform="translate(138.61514304638877 1459.5543389072718) rotate(0 510 12.5)"><text x="0" y="18" font-family="Virgil, Segoe UI Emoji" font-size="20px" fill="#000000" text-anchor="start" style="white-space: pre;" direction="ltr">The client uses our model BEFORE the borrower gets the credit, so no reminders have yet been made!</text></g><g stroke-linecap="round"><g transform="translate(586.620692432738 1366.111295783383) rotate(0 1.252099501090015 9.910576379073973)"><path d="M0.98 -0.51 C1.4 3.1, 2.41 18.15, 2.47 21.64 M0.03 -1.82 C0.35 1.42, 1.8 15.9, 1.86 19.76" stroke="#c92a2a" stroke-width="2" fill="none"></path></g><g transform="translate(586.620692432738 1366.111295783383) rotate(0 1.252099501090015 9.910576379073973)"><path d="M-2.84 10.58 C-0.72 12.46, -0.55 16.17, 1.3 20.6 M-2.72 9.81 C-0.76 13.81, 1.19 17.77, 2.01 20.06" stroke="#c92a2a" stroke-width="2" fill="none"></path></g><g transform="translate(586.620692432738 1366.111295783383) rotate(0 1.252099501090015 9.910576379073973)"><path d="M4.42 10.12 C4.38 12.2, 2.4 16.04, 1.3 20.6 M4.53 9.36 C3.67 13.55, 2.78 17.69, 2.01 20.06" stroke="#c92a2a" stroke-width="2" fill="none"></path></g></g><mask></mask><g stroke-linecap="round"><g transform="translate(585.0119936232295 1429.0193197643712) rotate(0 0.4696352718365233 10.942963817960845)"><path d="M-0.79 0.84 C-0.48 4.16, 1.29 17.09, 1.73 20.48 M0.99 0.23 C1.15 3.65, 0.71 17.94, 0.73 21.65" stroke="#c92a2a" stroke-width="2" fill="none"></path></g><g transform="translate(585.0119936232295 1429.0193197643712) rotate(0 0.4696352718365233 10.942963817960845)"><path d="M-2.02 11.52 C-2.34 14.54, -0.72 17.41, 0.28 20.95 M-2.65 11.64 C-1.03 15.24, -0.61 19.08, 0.54 21.41" stroke="#c92a2a" stroke-width="2" fill="none"></path></g><g transform="translate(585.0119936232295 1429.0193197643712) rotate(0 0.4696352718365233 10.942963817960845)"><path d="M5.25 11.62 C2.85 14.56, 2.39 17.41, 0.28 20.95 M4.62 11.75 C3.43 15.3, 1.04 19.09, 0.54 21.41" stroke="#c92a2a" stroke-width="2" fill="none"></path></g></g><mask></mask><g stroke-linecap="round"><g transform="translate(383.3443814818347 817.4427782202802) rotate(0 26.359988888728367 18.43036904654764)"><path d="M-0.95 -0.4 C-0.66 4.92, -7.39 25.27, 2.07 31.75 C11.53 38.24, 46.92 37.48, 55.81 38.51 M0.75 -1.65 C0.84 3.85, -8.1 26.69, 1 33.08 C10.1 39.46, 46.22 35.64, 55.35 36.66" stroke="#000000" stroke-width="2" fill="none"></path></g><g transform="translate(383.3443814818347 817.4427782202802) rotate(0 26.359988888728367 18.43036904654764)"><path d="M29.68 45.34 C37.83 43.92, 48.23 40.3, 55.93 36.77 M30.35 45.62 C40.83 42, 49.91 37.85, 54.64 37.2" stroke="#000000" stroke-width="2" fill="none"></path></g><g transform="translate(383.3443814818347 817.4427782202802) rotate(0 26.359988888728367 18.43036904654764)"><path d="M29.7 27.14 C37.83 31.66, 48.22 33.98, 55.93 36.77 M30.38 27.42 C40.77 31.07, 49.83 34.19, 54.64 37.2" stroke="#000000" stroke-width="2" fill="none"></path></g></g><mask></mask><g transform="translate(457.8745170142629 839.1082335601204) rotate(0 76 12.5)"><text x="0" y="18" font-family="Virgil, Segoe UI Emoji" font-size="20px" fill="#c92a2a" text-anchor="start" style="white-space: pre;" direction="ltr">Data Leakage!</text></g><g stroke-linecap="round"><g transform="translate(902.3435626067421 1308.7342814401163) rotate(0 -97.76364127212764 19.324172444647957)"><path d="M-1.17 -1.15 C-2.71 3.5, 23.56 21.39, -10.29 28.22 C-44.13 35.04, -171.94 38.16, -204.23 39.8 M0.41 0.86 C-0.66 5.15, 26.17 20.39, -8.05 26.54 C-42.27 32.7, -172.34 35.8, -204.94 37.79" stroke="#000000" stroke-width="2" fill="none"></path></g><g transform="translate(902.3435626067421 1308.7342814401163) rotate(0 -97.76364127212764 19.324172444647957)"><path d="M-179.12 24.83 C-181.64 28.68, -187.87 31.46, -206.82 37.91 M-176.47 27.24 C-184.22 29.43, -193.63 33.37, -204.59 36.82" stroke="#000000" stroke-width="2" fill="none"></path></g><g transform="translate(902.3435626067421 1308.7342814401163) rotate(0 -97.76364127212764 19.324172444647957)"><path d="M-178.25 45.33 C-181.01 44.82, -187.42 43.25, -206.82 37.91 M-175.59 47.74 C-183.71 44.07, -193.36 42.15, -204.59 36.82" stroke="#000000" stroke-width="2" fill="none"></path></g></g><mask></mask></svg>