<svg version="1.1" xmlns="http://www.w3.org/2000/svg" viewBox="0 0 1375.065940360255 550.8695280833672" width="4125.197821080765" height="1652.6085842501016">
  <!-- svg-source:excalidraw -->
  
  <defs>
    <style class="style-fonts">
      @font-face {
        font-family: "Virgil";
        src: url("https://excalidraw.com/Virgil.woff2");
      }
      @font-face {
        font-family: "Cascadia";
        src: url("https://excalidraw.com/Cascadia.woff2");
      }
    </style>
  </defs>
  <rect x="0" y="0" width="1375.065940360255" height="550.8695280833672" fill="#ffffff"></rect><g stroke-linecap="round" transform="translate(10 10) rotate(0 153.5 23)"><path d="M0 0 C0 0, 0 0, 0 0 M0 0 C0 0, 0 0, 0 0 M-0.82 5.18 C1.75 5.55, 3.57 4.46, 5.58 1.56 M-1.01 6.63 C0.51 5.31, 2.66 4.03, 5.5 0.53 M1.6 12.3 C3.91 5.79, 3.01 4.43, 11.06 1.39 M1.37 10.51 C3.27 6.75, 7.89 4.15, 10.61 0.61 M2.26 20.45 C2.21 14.72, 8.34 9.62, 16.97 0.21 M-0.98 18.77 C5.61 12.07, 6.49 9.39, 15.03 -1.37 M-1.71 22.19 C4.49 18.17, 8.66 11.15, 21.32 3.39 M0.56 24.5 C7.67 17.32, 13.46 10.9, 20.1 0.87 M1.42 33.68 C7.63 20.65, 19.53 6.4, 27.63 -0.35 M1.49 31.12 C6.6 19.98, 15.48 10.38, 28.02 -0.91 M3.64 39.45 C11.36 21.57, 25.86 10.43, 30.4 3.33 M-1.81 35.26 C6.7 28.21, 15.77 16.57, 31.97 1.83 M3.31 43.03 C14.11 32.42, 26.08 15.02, 37.61 -3.01 M-1.6 42.48 C8.45 34.72, 17.08 24.35, 35 -1.56 M0.3 43.93 C8.54 37.49, 20.19 28.82, 39.77 -2.34 M0.69 45.92 C14.43 29.56, 31.68 12.1, 43.38 -1 M4.33 48.58 C19.75 28.4, 29.57 18.6, 48.44 -0.86 M7.19 46.9 C15.79 36.33, 25.17 24.49, 45.51 2.14 M9.55 45.74 C26.66 32.09, 37.49 16.1, 49.17 -1.86 M10.57 47.88 C22.86 36.37, 32.84 22.38, 53.28 -1.05 M14.1 44.57 C24.75 35.62, 38.96 20.72, 56.05 0.65 M17.95 48.21 C28.82 34.91, 36.64 24.3, 56.93 0.84 M22.62 45.5 C33.91 34.68, 53.03 12.29, 64.69 0.11 M21.78 48.61 C38.56 30.43, 54.6 9.32, 62.45 -0.58 M31.28 50.4 C39.88 32.46, 52.89 20.06, 66.73 -0.3 M29.27 46.94 C38.14 33.38, 50.06 21.94, 70.43 -1.63 M34.29 44.88 C42.89 40.81, 50.61 27.59, 74.82 -1.44 M33.24 46.18 C47.48 33.46, 56.66 18.69, 73.47 1.33 M40.87 48.54 C51.51 37.39, 63.84 22.68, 81.15 -1.91 M37.49 46.25 C49.29 34.57, 62.4 20.43, 79.01 -0.24 M41.75 49.19 C52.84 32.07, 72.92 14.87, 82.42 -3.89 M43.69 47.89 C55.55 32.02, 71.98 15.75, 86.75 0.8 M50.21 45.12 C61.75 27.63, 75.75 12.44, 86.36 1.24 M48.76 48.52 C56.42 39.07, 67.61 28.41, 91.47 -0.79 M52.54 43.35 C66.75 36.44, 77.11 19.13, 96.72 3 M55.7 46.17 C63.31 37.92, 71.77 26.71, 96.49 1.14 M57.04 45.86 C73.97 37.94, 81.36 20.56, 103.78 2.19 M59.04 47.3 C75.96 28.19, 90.51 12.49, 100.44 0.12 M68.57 47.9 C80.73 34.01, 85.73 18.14, 109.33 -2.92 M63.63 46.69 C79.52 33.46, 92.71 14.97, 106.72 0.83 M72.82 48.89 C82.5 27.29, 100.45 11.87, 109.2 -2.36 M69.44 48.08 C77.52 38.27, 89.07 27.43, 110.34 -0.92 M78.14 47.02 C88.74 30.96, 102.4 17.23, 117.57 -3.41 M73.66 48.28 C92.91 29.64, 106.62 14.04, 114.63 2.32 M77.33 49.68 C96.12 29.55, 105.71 19.56, 120.79 3.86 M80.87 49.29 C97.55 30.2, 112.93 8.67, 121.41 1.85 M87.93 44.5 C97.95 31.29, 112.13 20, 127.12 1.14 M87.78 46.95 C94.85 35.7, 105.45 24.48, 125.17 0.95 M94.77 45.6 C108.33 31.14, 123.45 12.72, 135.1 0.79 M90.07 46.8 C99.96 34.82, 110.73 25.66, 133.72 -0.59 M98.97 47.78 C108.9 36.57, 116.37 20.04, 140.05 4.21 M95.8 47.93 C111.1 31.73, 123.54 19.01, 139.14 1.53 M100.39 48.88 C115.91 32.24, 122.13 21.85, 143.05 -4.02 M100.26 46.9 C112.92 35.09, 125.06 19.1, 143.13 -0.11 M106.68 43.91 C117.27 35.75, 127.61 21.85, 149.46 -1.82 M107.34 45.6 C118.99 34.88, 130.85 19.82, 147.84 -0.69 M115.78 47.38 C129.4 35.02, 144.14 16.87, 153.93 0.59 M112.45 47.1 C125.54 36.31, 134.7 22.01, 153.31 0.64 M116.87 47.54 C124.67 39.83, 131.69 30.46, 154.85 -0.98 M119.83 47.55 C133.27 27.83, 151.6 9.78, 160.33 0.72 M120.93 44.6 C138.5 31.96, 150.13 13.49, 163.41 -2.56 M121.48 48.06 C132.18 38.69, 140.54 27.21, 163.77 0.17 M129.7 44.99 C139.66 33.43, 153.35 21.57, 170.06 -1.66 M130.51 46.55 C137.38 36.18, 146.57 23.35, 167.52 -0.64 M134.2 43.64 C148.35 33.36, 160.02 16.16, 177.53 -3.07 M132.01 45.66 C149.11 32.25, 161.96 15.79, 173.81 -1.8 M139.71 50.18 C150.73 31.08, 164.52 20.62, 183.33 3.39 M140.44 48.57 C146.93 38.47, 157.67 25.69, 178.12 0.05 M148.31 47.24 C161.93 30.64, 179.5 13.4, 188.73 -2.88 M142.49 46.95 C154.41 33.47, 163.66 23.73, 186.55 -0.39 M151.83 48.65 C164.92 35.03, 179.55 15.17, 189.27 -2.98 M150.48 48.75 C158.14 36.44, 167.44 24.48, 190.66 -1.22 M154.38 49.75 C164.58 35.77, 175.39 23.24, 199.78 -0.31 M153.2 46.17 C163.34 35.44, 176.95 25.52, 196.91 -1.49 M157.35 45.59 C171.86 33.12, 186.88 19.48, 204.86 1.73 M161.32 47.43 C178.74 27.18, 194.44 8.61, 201.47 -1.28 M165.9 45.18 C180.58 31.1, 198.42 15, 207.87 1.93 M166.23 48.74 C174.97 36.86, 184.69 24.22, 207.65 -1.85 M173.94 49.78 C185.21 27.89, 198.7 14.27, 213.46 -0.39 M169.44 46.12 C181.81 34.25, 194.63 20.71, 212.71 -1.76 M178.7 51.12 C181.83 38.39, 192.96 26.91, 220.53 -3.23 M177.47 47.3 C188.53 33.58, 198.52 22.46, 217.31 -1 M181.65 49.65 C191.34 31.43, 207.45 22.96, 220.79 -3.58 M183.16 47.55 C193.31 35.36, 201.67 24.75, 224.33 -1.1 M187.04 44.82 C197.37 38.65, 213.7 19.83, 231.69 -3.24 M188.64 45.63 C201.91 29.73, 213.02 15.07, 228.27 -1.29 M194.24 46.02 C204.68 29.66, 225.7 8.86, 230.98 -2.5 M189.94 48.35 C206.81 30.96, 217.28 19.75, 234.11 1.43 M199.51 51.13 C208.36 33.53, 221.81 18, 236.99 2.81 M199.26 46.73 C208.47 37.73, 218.2 26.8, 238.04 0.86 M205.81 49.03 C208.72 36.91, 217.36 25.92, 246.49 -0.15 M203.02 48.11 C215.74 31.27, 226.6 17.19, 245.63 1.76 M207.1 46.54 C218.13 33.97, 237.14 17.13, 252.4 1.24 M206.67 48.78 C221.23 34.01, 233.22 17.33, 249.94 -0.02 M210.88 50.74 C231.24 28.31, 240.18 16.49, 252.19 0.07 M213.49 45.86 C221.84 38.04, 232.2 25.2, 256.3 -0.98 M215.17 47.17 C237.07 26.25, 249.81 16.03, 262.32 0.2 M218.01 45.15 C226.13 35.37, 237.42 27.47, 261.12 2.01 M223 46.09 C233.6 33.93, 251.45 18.8, 263.31 2.41 M224.89 49.05 C240.73 30.66, 255.11 11.47, 265.32 -0.5 M227.44 44.74 C246.96 25.14, 264.95 7.57, 270.17 2.75 M230.26 48.38 C238.32 37.64, 248.34 24.67, 269.19 1.37 M234.09 49.61 C240.25 33.36, 256.14 23.72, 277.45 2.73 M232.61 46.32 C246.74 31.28, 262.46 15.6, 273.73 0.7 M238.03 46.63 C253.12 34.36, 266.89 18.02, 281.73 -0.43 M238.18 46.23 C254.86 31.86, 265.6 16.82, 279.58 1.64 M246.43 47.48 C260.01 34.78, 267.03 19.98, 282.61 -3.5 M243.82 47.53 C255.91 31.88, 268.34 17.7, 288.36 -0.71 M247.42 43.81 C258.21 35.61, 273.01 22.69, 289.19 0.96 M250.36 45.61 C264.75 33.79, 277 17.82, 289.54 -0.42 M256.7 45.5 C268.12 29.2, 286.8 12.3, 297.13 2.85 M257.51 47.68 C271.64 32.98, 286.38 15.1, 297.85 -0.86 M262.47 50.9 C274.3 34.76, 281.77 25.55, 303.08 -3.17 M261.21 48.65 C273.92 31.95, 287.88 19.48, 300.12 1.17 M263.95 45.1 C279.53 25.29, 293.1 8.53, 305.09 1.26 M264.5 47 C276.06 38.96, 280.72 31.34, 308.02 0.06 M272.4 50.14 C279.55 39.02, 291.79 23.19, 307.08 2.77 M270.92 48.65 C284.22 32.57, 297.86 13.54, 306.94 7.57 M277.59 43.32 C280.26 40.67, 288.45 27.41, 304.42 12.66 M275.39 46.86 C284.98 39.64, 292.11 28.78, 305.95 10.85 M280.83 47.38 C288.52 36.08, 294.63 27.01, 308.49 15.97 M281.54 46.09 C292.02 35.01, 303.12 24.02, 306.69 19.14 M285.43 48.83 C290.25 40.51, 297.66 36.38, 310.44 27.72 M288.62 45.87 C295.36 38.09, 300.73 31.61, 307.57 25.63 M289.74 48.12 C298.46 38.64, 303.82 34.72, 305.55 31.92 M292.89 48.67 C297.74 43.19, 303.82 34.07, 308.44 32.1 M300.59 49.12 C300.37 45.58, 303.66 41.84, 309.91 39.02 M298.36 47.61 C299.3 43.75, 301.57 42.16, 308.35 36.9 M304.26 48.35 C304.92 46.91, 304.98 44.89, 306.06 43.79 M302.8 47.69 C304.69 45.99, 305.78 43.58, 306.71 43.22" stroke="#228be6" stroke-width="0.5" fill="none"></path><path d="M-1.23 1.03 C88.93 -2.96, 179.61 -0.79, 305.27 2.7 M0 1.09 C75.58 -2.24, 151.05 -4.6, 308 -0.22 M309.67 -2.55 C305.82 15.96, 306 36.93, 308.32 43.95 M307.86 1.04 C305.13 12.57, 307.97 29.46, 308.83 47.37 M309.67 45.79 C234.64 47.42, 162.13 51.99, 0.52 45.25 M306.54 46.14 C229.69 48.63, 154.67 49.89, 1.35 47.14 M-3.07 49.68 C4.51 27.17, 3.22 12.94, -3.07 1.04 M-0.8 44.18 C0.69 30.95, 2.13 14.24, 1.46 -1.92" stroke="#000000" stroke-width="1" fill="none"></path></g><g transform="translate(28 15) rotate(0 135.5 18)"><text x="135.5" y="25" font-family="Virgil, Segoe UI Emoji" font-size="28px" fill="#000000" text-anchor="middle" style="white-space: pre;" direction="ltr">What is good Data</text></g><g stroke-linecap="round" transform="translate(12.414414087041223 55.93811414008087) rotate(0 676.3257631366068 242.46570697164316)"><path d="M-0.4 -1.52 C412.52 -4.16, 823.78 -2.35, 1351.75 0.97 M1353.53 1.6 C1354.27 183.68, 1353.83 369.45, 1354.18 485.68 M1352.02 484.14 C987.1 478.45, 623.21 477.21, 0.2 484.82 M-1.53 483.4 C-0.89 327.73, -0.21 170.47, -1.1 0.45" stroke="#000000" stroke-width="1.5" fill="none" stroke-dasharray="8 9"></path></g><g transform="translate(529.455851186307 231.10738043975653) rotate(0 49 45.5)"><text x="49" y="32.5" font-family="Virgil, Segoe UI Emoji" font-size="36px" fill="#087f5b" text-anchor="middle" style="white-space: pre;" direction="ltr">Good</text><text x="49" y="78" font-family="Virgil, Segoe UI Emoji" font-size="36px" fill="#087f5b" text-anchor="middle" style="white-space: pre;" direction="ltr">Data</text></g><g transform="translate(218.16021010858822 107.79551649982386) rotate(0 73 12.5)"><text x="73" y="18" font-family="Virgil, Segoe UI Emoji" font-size="20px" fill="#e67700" text-anchor="middle" style="white-space: pre;" direction="ltr">Is Informative</text></g><g transform="translate(136.42700795193923 141.96394022996537) rotate(0 150.5 25)"><text x="150.5" y="18" font-family="Virgil, Segoe UI Emoji" font-size="20px" fill="#000000" text-anchor="middle" style="white-space: pre;" direction="ltr">Contains enough information</text><text x="150.5" y="43" font-family="Virgil, Segoe UI Emoji" font-size="20px" fill="#000000" text-anchor="middle" style="white-space: pre;" direction="ltr">that can be used for modeling</text></g><g transform="translate(175.7080979067141 243.51448189430448) rotate(0 94.5 12.5)"><text x="94.5" y="18" font-family="Virgil, Segoe UI Emoji" font-size="20px" fill="#e67700" text-anchor="middle" style="white-space: pre;" direction="ltr">Has good Coverage</text></g><g transform="translate(117.4748957500633 277.94654806193284) rotate(0 148.5 25)"><text x="148.5" y="18" font-family="Virgil, Segoe UI Emoji" font-size="20px" fill="#000000" text-anchor="middle" style="white-space: pre;" direction="ltr">Has good coverage of what</text><text x="148.5" y="43" font-family="Virgil, Segoe UI Emoji" font-size="20px" fill="#000000" text-anchor="middle" style="white-space: pre;" direction="ltr">we want to do with the model</text></g><g transform="translate(261.73846367352235 391.92496575849873) rotate(0 105.5 12.5)"><text x="105.5" y="18" font-family="Virgil, Segoe UI Emoji" font-size="20px" fill="#e67700" text-anchor="middle" style="white-space: pre;" direction="ltr">Reflects Real Inputs</text></g><g transform="translate(214.50526151687518 426.35703192613073) rotate(0 148.5 25)"><text x="148.5" y="18" font-family="Virgil, Segoe UI Emoji" font-size="20px" fill="#000000" text-anchor="middle" style="white-space: pre;" direction="ltr">Reflects real inputs that the</text><text x="148.5" y="43" font-family="Virgil, Segoe UI Emoji" font-size="20px" fill="#000000" text-anchor="middle" style="white-space: pre;" direction="ltr">model will see in production</text></g><g transform="translate(752.5058171544715 286.70676127272236) rotate(0 59 12.5)"><text x="59" y="18" font-family="Virgil, Segoe UI Emoji" font-size="20px" fill="#e67700" text-anchor="middle" style="white-space: pre;" direction="ltr">Is Unbiased</text></g><g transform="translate(747.6351137446363 159.68021921421314) rotate(0 181.5 12.5)"><text x="181.5" y="18" font-family="Virgil, Segoe UI Emoji" font-size="20px" fill="#e67700" text-anchor="middle" style="white-space: pre;" direction="ltr">Is not a result of a Feedback Loop</text></g><g transform="translate(740.8512767811153 194.3709534337213) rotate(0 190 12.5)"><text x="190" y="18" font-family="Virgil, Segoe UI Emoji" font-size="20px" fill="#000000" text-anchor="middle" style="white-space: pre;" direction="ltr">It is not a result of the model itself</text></g><g transform="translate(474.97712223313283 90.04876940370377) rotate(0 111 12.5)"><text x="111" y="18" font-family="Virgil, Segoe UI Emoji" font-size="20px" fill="#e67700" text-anchor="middle" style="white-space: pre;" direction="ltr">Has Consistent Labels</text></g><g transform="translate(679.445530738707 397.60974194599476) rotate(0 69 12.5)"><text x="69" y="18" font-family="Virgil, Segoe UI Emoji" font-size="20px" fill="#e67700" text-anchor="middle" style="white-space: pre;" direction="ltr">Is Big Enough</text></g><g transform="translate(648.2128111356942 431.46541042794706) rotate(0 109.5 25)"><text x="109.5" y="18" font-family="Virgil, Segoe UI Emoji" font-size="20px" fill="#000000" text-anchor="middle" style="white-space: pre;" direction="ltr">Is big enough to allow</text><text x="109.5" y="43" font-family="Virgil, Segoe UI Emoji" font-size="20px" fill="#000000" text-anchor="middle" style="white-space: pre;" direction="ltr">generalization</text></g><g transform="translate(921.7221279677087 295.7293502065295) rotate(0 158.5 62.5)"><text x="158.5" y="18" font-family="Virgil, Segoe UI Emoji" font-size="20px" fill="#000000" text-anchor="middle" style="white-space: pre;" direction="ltr">E.g., we cannot train a model</text><text x="158.5" y="43" font-family="Virgil, Segoe UI Emoji" font-size="20px" fill="#000000" text-anchor="middle" style="white-space: pre;" direction="ltr">that predicts the gender of a</text><text x="158.5" y="68" font-family="Virgil, Segoe UI Emoji" font-size="20px" fill="#000000" text-anchor="middle" style="white-space: pre;" direction="ltr">person from their name, and use</text><text x="158.5" y="93" font-family="Virgil, Segoe UI Emoji" font-size="20px" fill="#000000" text-anchor="middle" style="white-space: pre;" direction="ltr">the prediction to label a new </text><text x="158.5" y="118" font-family="Virgil, Segoe UI Emoji" font-size="20px" fill="#000000" text-anchor="middle" style="white-space: pre;" direction="ltr">training example</text></g><g stroke-linecap="round"><g transform="translate(1052.4650562472707 225.29141888129016) rotate(0 20.709065906375145 27.070774323316073)"><path d="M0.56 0.35 C6.87 3.42, 32.01 9.88, 38.65 18.78 C45.29 27.69, 40 47.63, 40.4 53.79 M-0.6 -0.52 C5.47 2.71, 31 10.97, 37.65 20.16 C44.31 29.36, 38.72 49.06, 39.34 54.66" stroke="#000000" stroke-width="2" fill="none"></path></g><g transform="translate(1052.4650562472707 225.29141888129016) rotate(0 20.709065906375145 27.070774323316073)"><path d="M35.05 37.37 C35.9 42.97, 36.86 50.26, 41 54.29 M34.61 37 C35.08 43.09, 37.83 47.74, 39.37 55.35" stroke="#000000" stroke-width="2" fill="none"></path></g><g transform="translate(1052.4650562472707 225.29141888129016) rotate(0 20.709065906375145 27.070774323316073)"><path d="M47.2 38.29 C43.58 43.61, 40.06 50.56, 41 54.29 M46.76 37.93 C43.73 43.79, 42.97 48.17, 39.37 55.35" stroke="#000000" stroke-width="2" fill="none"></path></g></g><mask></mask></svg>