<svg version="1.1" xmlns="http://www.w3.org/2000/svg" viewBox="0 0 1375.065940360255 966.3517808390934" width="4125.197821080765" height="2899.05534251728">
  <!-- svg-source:excalidraw -->
  
  <defs>
    <style class="style-fonts">
      @font-face {
        font-family: "Virgil";
        src: url("https://excalidraw.com/Virgil.woff2");
      }
      @font-face {
        font-family: "Cascadia";
        src: url("https://excalidraw.com/Cascadia.woff2");
      }
    </style>
  </defs>
  <rect x="0" y="0" width="1375.065940360255" height="966.3517808390934" fill="#ffffff"></rect><g stroke-linecap="round" transform="translate(10 338.7687627502419) rotate(0 283 23)"><path d="M0 0 C0 0, 0 0, 0 0 M0 0 C0 0, 0 0, 0 0 M-0.79 7.79 C1.62 4.08, 4.47 3.94, 6.14 0.22 M-0.01 6.45 C1.41 5.06, 3.08 3.03, 5.71 0.79 M-2.98 11.01 C2.83 7.52, 6.47 3.02, 11.57 2.03 M-1.43 10.55 C5.75 8.92, 9.87 1.19, 10.88 1.47 M-3.38 16.29 C3.36 11.61, 13.03 4.3, 15.65 -0.61 M-0.05 20.14 C4.14 13.85, 8.19 7.26, 14.74 0.18 M-1.04 20.17 C7.31 20.33, 9.43 10.27, 21.15 0.64 M-0.48 26.01 C5.5 16.74, 11.45 13.87, 20.02 -1.3 M2.49 29.42 C4.45 23.2, 16.3 17.22, 29.32 -1.72 M-0.94 29.12 C6.05 22.97, 14.31 14.19, 25.18 -0.88 M-1.65 39.64 C14.98 25.77, 25.29 8.65, 33.22 -3.4 M-0.14 35 C14 23.53, 26.84 7.53, 32.64 -1.65 M3.05 41.73 C9.19 32.31, 24.99 18.9, 40.23 -1.26 M-1.38 41.37 C11.5 29.22, 22.24 18.5, 37.86 0.29 M-2.58 51.2 C11.04 34.74, 18.4 25.84, 40.77 -2.87 M1.06 48.69 C15.33 30.34, 28.46 15.29, 40.84 -0.48 M6.6 43.36 C17.47 30.79, 27.62 23.71, 46.53 0.08 M8.72 48.59 C16.61 31.03, 30.69 19.98, 47.12 1.12 M10.5 44.88 C26.58 30.77, 38.4 18.03, 51.28 -1.83 M12.17 48.71 C21.34 37.44, 28.62 27.76, 51.28 0.35 M19 48.26 C31.28 29.5, 41.54 20.65, 61.08 -1.14 M16.9 48.4 C27.64 34.41, 39.72 21.73, 57.94 -1.55 M26.29 50.81 C35.81 35.7, 42.32 20.84, 63.02 0.91 M20.47 46.95 C31.83 38.52, 40.26 26.93, 65.24 -1.66 M27.58 45.17 C40.8 26.37, 62.65 11.68, 71.5 -3.08 M27.99 47.34 C45.6 29.92, 60.33 9.93, 69.9 0.44 M33.4 45.8 C41.68 39.33, 50.6 23.16, 72.96 -4.2 M33.08 48.07 C41.86 33.86, 54.43 24.55, 74.64 -1.65 M38.32 47.51 C47.35 34.49, 61.91 27.84, 80.16 1.3 M37.41 46.79 C48.01 35.75, 57.19 25.31, 81.23 -1.35 M43.2 43.92 C55.53 29.2, 73.25 14.91, 84.87 2.51 M43.7 48.15 C54.41 36.12, 60.76 26.28, 85.99 0.63 M47.97 49.98 C60.81 32.03, 80.57 15.02, 88.18 0.34 M51.19 47.49 C60.66 32.38, 74.63 17.56, 88.77 0.03 M57.83 48.48 C66.1 30.66, 78.27 14.08, 93.22 -1.99 M52.68 46.62 C70.96 30.44, 86.67 12.67, 96.46 0.81 M60.03 44.53 C74.98 35.76, 84.5 22.36, 103.43 3.59 M58 45.56 C73.21 30.84, 87.04 17.82, 100 -1.11 M62.13 44.06 C77.41 30.27, 94.92 14.64, 107.28 -3.54 M63 46.29 C82.4 29.96, 98.84 10.32, 105.84 -2.11 M68.08 45.09 C81.71 35.82, 91.38 23.31, 108.54 1.87 M68.44 49.26 C85.16 29.73, 101.88 11.26, 113.01 0.9 M71.75 44.46 C90.88 34.95, 98.28 21.4, 118.38 2.09 M76.24 45.35 C83.86 34.08, 95.33 22.73, 115.88 -1.01 M82.45 44.6 C88.5 34.6, 107.23 23.35, 124.88 -0.76 M81.76 47.94 C90.81 33.68, 103.24 24.8, 120.51 -0.86 M85.04 44.76 C97.48 33.17, 107.52 18.84, 126.57 -1.95 M84.64 45.35 C97.43 35.1, 108.8 20.27, 124.92 0.35 M94.2 43.51 C107.93 32.23, 124.9 12.33, 132.56 -2.96 M89.82 48.62 C102.1 36.31, 108.74 24.11, 133.87 -1.97 M99.14 45.26 C109.21 32.42, 118.94 25.31, 136.71 -0.94 M95.03 47.24 C110.23 32.09, 118.49 18.51, 135.96 -0.15 M101.85 46.76 C110.9 32.57, 116.24 28.85, 142.46 1.81 M103.78 48.92 C110.85 36.01, 118.07 26.79, 143.04 1.39 M109.9 43.55 C119.36 34.97, 131.89 14.15, 145.03 0.3 M108.88 47.32 C123.69 30.96, 137.22 14.3, 147.28 1.98 M110.64 48.54 C125.37 28.17, 140.39 17.41, 156.2 1.38 M113.43 45.83 C129.41 28.13, 142.47 11.46, 152.63 0.4 M119.96 50.43 C130.96 34.33, 144.47 18.52, 162.53 2.21 M118.3 45.28 C133.59 30.57, 146.75 12.28, 159.81 -1.37 M124.56 48.28 C134.83 28.12, 152.13 12.34, 166.15 -3.19 M123.17 47.72 C131.12 38.64, 144.08 25.32, 165.85 1.62 M130.68 49.97 C137.26 34.82, 150.42 20.24, 166.96 2.49 M130 48.17 C141.33 30.26, 157.31 13.65, 169.06 1.04 M130.36 50.69 C141.49 36.65, 154.89 25.9, 171.43 2.42 M132.03 46.36 C144.85 34.14, 156.57 22.15, 176.54 -1.01 M142.19 47.48 C152.45 34.04, 169.68 12.28, 182.81 4.08 M141.32 46.45 C152.7 31.21, 166.27 14.95, 181.2 -0.18 M145.54 49.7 C155.96 36.48, 165.67 28.06, 185.91 -2.23 M145.69 48.85 C156.65 34.14, 168.72 18.68, 185.19 -2.18 M153.35 45.54 C166.52 28.73, 179.12 7.32, 193.33 -0.84 M148.25 45.9 C163.49 30.94, 175.7 18.48, 189 0.99 M154.34 44.51 C171.22 27.57, 189.27 7.8, 198.22 -0.31 M156.41 45.69 C170.81 29.81, 186.56 11.23, 194.89 -1.21 M161.78 43.96 C167.62 34.29, 174.94 31.9, 204.51 1.18 M161.37 47.73 C169.35 36.08, 178.3 25.13, 199.89 1.91 M163.76 47.55 C173.76 33.12, 188.34 17.18, 203.72 -1.76 M167.11 46.77 C177.36 33.96, 192.24 16.8, 207.35 -2.03 M171.87 47.8 C183.06 28.07, 198.24 16.33, 213.11 -3.17 M169.9 48.49 C186.58 28.35, 202.39 9.64, 211.89 -0.67 M179.54 44.53 C189.51 26.59, 203.48 14.19, 220.53 -3.27 M175.31 45.32 C186.95 38.45, 195.82 25.88, 218.92 -1.21 M178.72 43.38 C191.46 38.5, 197.97 23.96, 222.61 2.06 M181.69 48.11 C194.84 31.28, 205.82 19.43, 221.65 1.37 M190.18 50.37 C203.99 27.05, 215.23 10.24, 225.54 -4.26 M185.19 45.97 C198.29 38.65, 206.1 25.96, 228.58 0.06 M191.56 47.03 C207.91 32.62, 213.64 21.01, 235.27 -1.95 M190.56 46.67 C203.52 37.36, 211.66 26.74, 232.47 -0.46 M198.93 45.27 C208.95 37.34, 215.64 26.49, 241.69 1.83 M199.51 48.72 C209.58 37.38, 217.68 23.17, 237.26 0.72 M204.31 46.05 C215.03 37.2, 224.45 25.38, 244.08 3.24 M202.92 49.34 C209.9 37.46, 220.91 29.58, 242.25 0.7 M207.78 46.67 C219.24 33.74, 226 25.16, 252.68 0.55 M207.7 48.94 C219.8 33.58, 233.29 19.24, 250.49 0.82 M215.7 51.26 C232.35 29.17, 244.87 11.43, 256.78 1.33 M213.82 46.93 C221.68 35.55, 228.26 27.9, 255.53 -0.9 M217.48 45.26 C231.44 30.94, 245.74 12.34, 262.97 0.99 M217.78 45.38 C229.32 32.2, 243.24 21.25, 258.47 2.05 M223.84 45.97 C231.9 35.43, 246.07 27.49, 263.88 -2.74 M225.61 48.87 C230.88 39.5, 239.28 27.28, 263.45 0.37 M227.53 44.99 C242.41 26.85, 263.94 12.27, 268.43 0.7 M228.4 48.16 C243.05 31.69, 257.52 16.35, 270.66 0.73 M233.6 50.76 C244.97 31.47, 264.98 10.16, 278.61 1.21 M235.27 47.99 C246.1 30.2, 263.03 14.27, 275.82 1.5 M236.17 47.05 C251.33 31.53, 261.25 24.56, 279.68 2.51 M240.87 46.79 C251.65 35.02, 262.3 20.41, 279.17 0.53 M248.61 43.45 C259.87 28.87, 275.64 13.45, 288.97 -3.36 M246.39 48.46 C259.09 31.27, 269.94 18.69, 285.02 -1.13 M248.39 49.87 C263.94 34.38, 278.48 11.3, 290.1 -1.52 M251.07 46.12 C257.9 37.2, 266.89 28.07, 290.71 0.53 M255.24 47.08 C271.97 30.64, 280.83 19.1, 297.72 -3.77 M257.19 45.85 C270.68 28.3, 286.99 9.26, 298.1 0.22 M259.95 49.15 C270.07 31.5, 289.3 20.57, 299.8 1.93 M261.55 46.42 C272.98 32.66, 279.73 22.87, 302.62 -0.85 M262.6 49.99 C274.99 33.06, 287.11 19.79, 306.34 1.92 M264.51 47.09 C272.99 37.51, 282.4 27.36, 308.72 0.69 M273.33 45.83 C291.93 31.98, 305.41 8.57, 315.66 -0.59 M273.46 47.31 C281.65 33.59, 293.43 20.88, 310.89 -1.8 M278.57 45.75 C284.76 35.11, 296.32 22.24, 315.09 -3.09 M275.83 46.49 C284.78 36.53, 294.79 27.23, 317.16 -1.25 M281.8 46.11 C294.11 30.98, 309.8 11.54, 319.29 -1.24 M282.59 47.77 C295.1 30.97, 309.87 17.14, 322.1 -1.12 M285.77 49.15 C301.52 35.24, 307.87 19.88, 330.95 1.63 M289.25 45.74 C298.89 31.83, 315 16.43, 330.32 0.3 M293.33 45.41 C307.31 38, 317.05 24.52, 331.07 -2.97 M291.35 46.19 C304.21 35.9, 313.27 25.57, 333.47 1.73 M297.58 48.28 C307.61 37.65, 316.4 23.17, 335.68 1.78 M297.48 45.9 C311.37 30.17, 327.56 13.83, 337.74 -1.42 M306.02 45.2 C320.64 27.41, 337.74 9, 346.12 -3.45 M304.11 49.07 C318.09 33, 329.38 14.77, 344.86 -1.29 M310.1 44.45 C319.83 41.6, 324.32 23.54, 349.11 -2.94 M307.87 47.4 C323.03 31.95, 336.8 14.66, 350.92 -1.05 M310.69 49.9 C323.84 38.3, 339.04 23.48, 358.31 -3.13 M313.83 48.03 C324.33 35.96, 331.91 26.14, 354.72 1.11 M318.22 44.22 C329.65 32.6, 346.47 16.01, 359.81 -1.86 M318.38 46.05 C329.03 38.4, 336.51 25.11, 361.96 -0.07 M326.91 47.45 C338.98 34.43, 351.4 14.28, 368.26 2.82 M326.16 48.3 C338.53 29.93, 354.98 14.07, 364.16 -0.38 M331.55 43.42 C338.15 29.35, 355.78 19.34, 369.1 -0.78 M329.62 49.04 C339.91 33.91, 350.28 22.05, 371.62 1.62 M333.69 46.3 C349.43 27.8, 362.5 17.45, 375.34 0.45 M334 45.78 C349.27 32.8, 358.93 18.89, 376.9 0.31 M342.46 43.1 C351.26 36.06, 367.76 20.71, 377.75 -1.01 M340.81 46.94 C350.6 37.69, 360.69 25.09, 379.91 -1.21 M348.77 44.15 C359.98 30.24, 371.38 19.65, 385.67 -2.9 M344.88 47.7 C358.27 34.53, 368.99 20.44, 387.29 0.6 M350.09 49.59 C362.86 33.43, 366.82 29.72, 393.24 1.4 M349.79 45.67 C366.26 30.43, 379.61 14.07, 393.5 1.54 M356.66 43.92 C365.49 32.07, 380.35 13.28, 396.13 -2.68 M356.95 48.69 C369.19 32.39, 382.78 16.86, 396.29 1.32 M360.29 50.45 C369.63 34.36, 385.77 23.32, 405.82 -0.36 M361.04 46.54 C377.53 29.5, 394.83 9.7, 401.68 -0.61 M364.58 45.82 C378.49 35.88, 390.23 23.79, 410.34 2.93 M367.01 46.74 C381.54 27.12, 400.51 11.26, 407.49 -1.36 M369.68 46.49 C382.06 37.87, 396.2 18.53, 412.49 0.14 M373.64 46.25 C381.7 35.16, 391.63 23.63, 412.35 1.2 M378.54 47.28 C388.83 37.61, 392.9 22.22, 422.66 -3 M378.46 47.24 C390.48 31.72, 400.44 18.01, 419.13 0.12 M381.65 43.79 C397.34 25.28, 417.82 7.15, 424.99 -1.4 M381.32 48.85 C393.81 35.62, 404.09 22.29, 424.04 -0.78 M387.29 51 C400.09 34.02, 415.07 15.73, 426.22 -0.16 M389.34 46.92 C402.16 31.82, 415.34 17.04, 428.05 0.71 M390.31 45.66 C412.32 26.41, 418.99 11.42, 437.83 3.96 M392.42 45.77 C403.15 34.95, 414.93 20.08, 433.92 1.07 M402.33 48.91 C407.96 32.75, 424.52 19.09, 436.88 -2.98 M400.29 45.92 C408.08 38.66, 417.27 27.93, 441.71 -1.29 M404.53 44.67 C421.06 31.29, 434.84 12.92, 444.23 -1.58 M405.93 47.84 C415 32.91, 429.8 19.22, 445.76 1.76 M409.89 46.21 C418.97 29.57, 437.51 19.51, 453.28 3.36 M410.61 47.72 C418.17 36.79, 428.18 28.51, 450.22 -0.19 M415.93 46.63 C427.33 27.43, 443.31 19.32, 452.21 1.4 M415.42 45.22 C428.66 28.76, 443.02 10.9, 453.98 -0.34 M418.98 45.35 C429.52 31.14, 441.08 19.8, 464.78 -1.08 M418.2 47.21 C436.46 28.68, 450.58 13.55, 462.28 1.06 M422.23 47.36 C443.12 31.38, 460.14 12.85, 468.51 -2.39 M424.46 48.25 C436.77 34.37, 445.08 25.53, 467.61 0.5 M429.33 46 C448.48 27.8, 456.22 15.02, 474.84 1.77 M431.6 46.63 C442.17 37.14, 452.19 22.83, 472.6 -0.34 M437.86 45.68 C449.5 30.18, 466.4 15.76, 474.62 0.99 M437.23 48.34 C446.24 35.31, 459.36 21.19, 478.31 1.43 M439.46 45.12 C453.37 38.83, 461.9 26.57, 479.65 0.97 M441.97 47.6 C454.02 34.55, 464.49 20.61, 480.46 1.91 M450.04 47.89 C457.23 31.4, 471.24 14.33, 490.79 -1.28 M446.52 46.57 C459.81 28.98, 476.02 11.35, 488.35 -1.07 M454.59 44.89 C461.61 33.05, 474.11 25.14, 496.18 1.1 M451.08 47.12 C469.83 26.95, 483.68 9.9, 493.79 -0.25 M453.39 48.83 C463.18 39.75, 474.53 29.02, 496.01 -0.74 M456.43 46.61 C473.12 30.39, 488.61 12.89, 498.65 0.87 M462.74 44.75 C475.18 27.8, 490.63 10.33, 500.79 3.21 M463.35 45.57 C471.62 32.93, 485.05 20.8, 503.82 -0.25 M465.27 48.55 C477.34 35.66, 486.99 24.23, 508.04 0.28 M465.69 47.52 C483.66 27.55, 499.48 11.67, 508.74 -1.48 M474.64 49.41 C489.76 33.22, 500.03 19.06, 516.61 -2.37 M473.81 46.68 C483.55 36.81, 493.12 22.55, 512.39 -0.18 M477.81 44.37 C487.34 35.82, 501.86 21.42, 519.37 -3.27 M479.63 47.75 C491.31 28.89, 508.1 11.43, 520.78 -1.52 M483.79 44.79 C496.34 35.61, 507.79 15.61, 525.5 3.92 M484.12 45.6 C499.92 32.66, 513.16 16.93, 523.98 1.29 M489.88 46.86 C501.03 33.71, 513.74 22.13, 529.24 -3.19 M490.24 49.1 C503.64 29.61, 520.32 16.18, 531.56 -1.24 M498.44 46.09 C507.37 26.81, 529.91 6.33, 532.09 -1.11 M494.55 48.81 C509.14 31.34, 523.13 13.36, 533.67 0.85 M499.11 47.83 C517.27 30.83, 529.97 12.12, 543.65 -2.05 M500.11 48.76 C510.61 35.43, 523.1 21.94, 540.47 0.73 M501.58 49.75 C514.06 36.28, 526.22 23.78, 547.76 -3.38 M504.03 46.18 C517.22 35.44, 529.48 21.09, 547.19 -1.46 M509.86 44.36 C526.41 30.86, 537.98 9.65, 551.34 2.85 M510.45 47.28 C520.22 36.62, 528.41 25.26, 549.56 1.13 M514.96 49.47 C527.88 36.18, 538.58 17.03, 558.61 0.42 M514.08 46.97 C526.97 31.32, 542.31 17.21, 556.88 1.82 M517.25 46.75 C531.55 32.49, 543.65 20.24, 563.82 3.44 M521.12 48.62 C534.46 30.93, 548.92 15.65, 563.48 0.1 M527.08 44.18 C534.3 40.57, 539.34 25.81, 564.87 3.61 M524.85 47.8 C540.45 30.37, 553.34 14.97, 565.07 2.23 M531.15 46.57 C542.57 34.55, 555.15 21.5, 569.42 3.72 M530.58 48.06 C541.42 36.48, 548.03 25.24, 567.61 7.92 M532.53 46.83 C540.99 42.5, 551.19 36.53, 564.97 14.58 M534.49 49.41 C545.19 37.69, 552.57 28.94, 568.15 12.55 M544.19 48.65 C549.33 41.26, 553.58 37.75, 570.46 20.6 M543.93 48.31 C548.49 41.36, 554.59 34.1, 565.17 17.96 M550.6 49.35 C557.77 37.9, 564.13 34.93, 567.13 25.06 M545.7 45.68 C555.59 38.44, 562.31 29.73, 568.2 22.99 M555.74 47.04 C559.68 38.18, 559.4 34.06, 562.61 33.27 M552.89 47.42 C556.52 42.05, 556.7 42.42, 564.63 31.93 M557.47 50.08 C559.87 44.73, 563.97 39.89, 567.96 35.84 M557.8 47.92 C558.81 45.87, 561.98 42.53, 567.68 38.03 M563.43 47.58 C564.12 45.43, 565.69 44.73, 567.33 43.77 M563.41 47.02 C564.6 45.18, 565.44 44.08, 566.53 42.97" stroke="#228be6" stroke-width="0.5" fill="none"></path><path d="M-0.81 0.98 C174.46 4.32, 347.4 3.72, 567.27 -0.27 M-0.16 -0.73 C135.53 -3.87, 271.85 -4.1, 566.52 -0.38 M565.38 3.44 C565.82 17.24, 563.36 24.17, 564.52 47.27 M567.84 0.56 C566.58 13.7, 565.2 28.51, 567 46.64 M565.7 45.13 C396.99 46.48, 227.22 47.02, 1.08 45.78 M565.55 45.35 C396.95 43.23, 227.09 43.53, -0.38 45.33 M-3.94 42.66 C2.68 30.56, 2.39 16.54, 3.01 2.9 M-1.56 47.46 C0.14 31.51, -0.49 15.2, 1.94 -0.23" stroke="#000000" stroke-width="1" fill="none"></path></g><g transform="translate(108 343.7687627502419) rotate(0 185 18)"><text x="185" y="25" font-family="Virgil, Segoe UI Emoji" font-size="28px" fill="#000000" text-anchor="middle" style="white-space: pre;" direction="ltr">Questions about the data</text></g><g stroke-linecap="round" transform="translate(12.414414087041223 384.70687689032275) rotate(0 676.3257631366068 285.82245197438533)"><path d="M0.13 0.15 C280.1 -7.06, 563.99 -6.89, 1351.7 0.43 M1351.72 0.46 C1351.41 223.24, 1352.76 445.71, 1352.68 572.52 M1352.38 572.99 C978.5 579.52, 606.26 581.46, 0.4 571.34 M0.61 570.64 C-4.71 374.84, -3.41 180.79, -0.03 0" stroke="#000000" stroke-width="1.5" fill="none" stroke-dasharray="8 9"></path></g><g transform="translate(47.05356728204788 419.8073063715892) rotate(0 425 12.5)"><text x="0" y="18" font-family="Virgil, Segoe UI Emoji" font-size="20px" fill="#000000" text-anchor="start" style="white-space: pre;" direction="ltr">Before starting collecting data, there are some questions that need to be answered</text></g><g transform="translate(81.48623073492854 570.1232367970442) rotate(0 62 25)"><text x="62" y="18" font-family="Virgil, Segoe UI Emoji" font-size="20px" fill="#e67700" text-anchor="middle" style="white-space: pre;" direction="ltr">Is the data</text><text x="62" y="43" font-family="Virgil, Segoe UI Emoji" font-size="20px" fill="#e67700" text-anchor="middle" style="white-space: pre;" direction="ltr">accessible?</text></g><g transform="translate(180.68783621293005 497.29280181082504) rotate(0 194 12.5)"><text x="194" y="18" font-family="Virgil, Segoe UI Emoji" font-size="20px" fill="#000000" text-anchor="middle" style="white-space: pre;" direction="ltr">Does the data we need already exist?</text></g><g transform="translate(223.88443251537865 532.5348572352414) rotate(0 259 12.5)"><text x="259" y="18" font-family="Virgil, Segoe UI Emoji" font-size="20px" fill="#000000" text-anchor="middle" style="white-space: pre;" direction="ltr">Is it accessible (physically, contractually, ethically)?</text></g><g transform="translate(252.99907328706104 565.6845485937847) rotate(0 276.5 12.5)"><text x="276.5" y="18" font-family="Virgil, Segoe UI Emoji" font-size="20px" fill="#000000" text-anchor="middle" style="white-space: pre;" direction="ltr">Do we need a new licensing agreement with the supplier?</text></g><g transform="translate(218.81539406649972 626.3838644838142) rotate(0 144 12.5)"><text x="144" y="18" font-family="Virgil, Segoe UI Emoji" font-size="20px" fill="#000000" text-anchor="middle" style="white-space: pre;" direction="ltr">Is it protected by copyright?</text></g><g transform="translate(254.82627993771348 595.806973780218) rotate(0 76 12.5)"><text x="76" y="18" font-family="Virgil, Segoe UI Emoji" font-size="20px" fill="#000000" text-anchor="middle" style="white-space: pre;" direction="ltr">Is it sensitive?</text></g><g transform="translate(181.91562420073205 658.834955956474) rotate(0 121.5 12.5)"><text x="121.5" y="18" font-family="Virgil, Segoe UI Emoji" font-size="20px" fill="#000000" text-anchor="middle" style="white-space: pre;" direction="ltr">Should it be anonymized?</text></g><g transform="translate(97.02698292105924 777.9808861446181) rotate(0 62 25)"><text x="62" y="18" font-family="Virgil, Segoe UI Emoji" font-size="20px" fill="#e67700" text-anchor="middle" style="white-space: pre;" direction="ltr">Is the data</text><text x="62" y="43" font-family="Virgil, Segoe UI Emoji" font-size="20px" fill="#e67700" text-anchor="middle" style="white-space: pre;" direction="ltr">sizeable?</text></g><g transform="translate(241.8234010898068 752.6438149066962) rotate(0 129 12.5)"><text x="0" y="18" font-family="Virgil, Segoe UI Emoji" font-size="20px" fill="#000000" text-anchor="start" style="white-space: pre;" direction="ltr">Do we have enough data?</text></g><g transform="translate(291.1739405620938 789.8255717804132) rotate(0 129.5 12.5)"><text x="0" y="18" font-family="Virgil, Segoe UI Emoji" font-size="20px" fill="#000000" text-anchor="start" style="white-space: pre;" direction="ltr">How much data is needed?</text></g><g transform="translate(241.31588926307268 826.2972759922377) rotate(0 288 12.5)"><text x="0" y="18" font-family="Virgil, Segoe UI Emoji" font-size="20px" fill="#000000" text-anchor="start" style="white-space: pre;" direction="ltr">Do we have time to gather a sufficient amount of data?</text></g><g transform="translate(874.7277046795898 532.1857051697516) rotate(0 62 25)"><text x="62" y="18" font-family="Virgil, Segoe UI Emoji" font-size="20px" fill="#e67700" text-anchor="middle" style="white-space: pre;" direction="ltr">Is the data</text><text x="62" y="43" font-family="Virgil, Segoe UI Emoji" font-size="20px" fill="#e67700" text-anchor="middle" style="white-space: pre;" direction="ltr">usable?</text></g><g transform="translate(993.7848485587274 488.37705200329583) rotate(0 135.5 12.5)"><text x="0" y="18" font-family="Virgil, Segoe UI Emoji" font-size="20px" fill="#000000" text-anchor="start" style="white-space: pre;" direction="ltr">Is there any missing value?</text></g><g transform="translate(1052.9479958825123 522.345532475385) rotate(0 117.5 12.5)"><text x="0" y="18" font-family="Virgil, Segoe UI Emoji" font-size="20px" fill="#000000" text-anchor="start" style="white-space: pre;" direction="ltr">Is there any duplicate?</text></g><g transform="translate(1086.9235246588541 550.8191116946291) rotate(0 88 12.5)"><text x="0" y="18" font-family="Virgil, Segoe UI Emoji" font-size="20px" fill="#000000" text-anchor="start" style="white-space: pre;" direction="ltr">Is it up-to-date?</text></g><g transform="translate(1056.3304640810566 583.1575257663608) rotate(0 105.5 12.5)"><text x="0" y="18" font-family="Virgil, Segoe UI Emoji" font-size="20px" fill="#000000" text-anchor="start" style="white-space: pre;" direction="ltr">Is it representative?</text></g><g transform="translate(1012.862079076187 616.7654385554088) rotate(0 75.5 12.5)"><text x="0" y="18" font-family="Virgil, Segoe UI Emoji" font-size="20px" fill="#000000" text-anchor="start" style="white-space: pre;" direction="ltr">Is it complete?</text></g><g transform="translate(717.9194037861689 707.4570188684593) rotate(0 79.5 25)"><text x="79.5" y="18" font-family="Virgil, Segoe UI Emoji" font-size="20px" fill="#e67700" text-anchor="middle" style="white-space: pre;" direction="ltr">Is the data</text><text x="79.5" y="43" font-family="Virgil, Segoe UI Emoji" font-size="20px" fill="#e67700" text-anchor="middle" style="white-space: pre;" direction="ltr">understandable?</text></g><g transform="translate(893.6250923303305 707.2497886866513) rotate(0 181 12.5)"><text x="0" y="18" font-family="Virgil, Segoe UI Emoji" font-size="20px" fill="#000000" text-anchor="start" style="white-space: pre;" direction="ltr">Where do the attributes come from?</text></g><g transform="translate(942.4662296067618 741.5738089030892) rotate(0 131.5 12.5)"><text x="0" y="18" font-family="Virgil, Segoe UI Emoji" font-size="20px" fill="#000000" text-anchor="start" style="white-space: pre;" direction="ltr">Can data leakage happen?</text></g><g transform="translate(888.9300876976995 852.7498598713428) rotate(0 62 25)"><text x="62" y="18" font-family="Virgil, Segoe UI Emoji" font-size="20px" fill="#e67700" text-anchor="middle" style="white-space: pre;" direction="ltr">Is the data</text><text x="62" y="43" font-family="Virgil, Segoe UI Emoji" font-size="20px" fill="#e67700" text-anchor="middle" style="white-space: pre;" direction="ltr">reliable?</text></g><g transform="translate(1043.2093416657226 851.5087398368887) rotate(0 125.5 12.5)"><text x="0" y="18" font-family="Virgil, Segoe UI Emoji" font-size="20px" fill="#000000" text-anchor="start" style="white-space: pre;" direction="ltr">Can we trust the labels?</text></g><g transform="translate(1035.1010882109676 883.6806855170471) rotate(0 140 12.5)"><text x="0" y="18" font-family="Virgil, Segoe UI Emoji" font-size="20px" fill="#000000" text-anchor="start" style="white-space: pre;" direction="ltr">Is there any feedback loop?</text></g><g stroke-linecap="round"><g transform="translate(166.5466577110219 520.4723738463945) rotate(0 27.168237846315606 71.57852265336078)"><path d="M-1.02 0.06 C8.99 12.21, 60.37 50.05, 59.7 73.89 C59.04 97.73, 6.02 131.63, -4.99 143.09 M0.65 -0.96 C10.54 11.29, 59.84 51.07, 58.83 75.25 C57.83 99.43, 5.5 132.79, -5.37 144.12" stroke="#e67700" stroke-width="2" fill="none"></path></g></g><mask></mask><g stroke-linecap="round"><g transform="translate(938.088996648421 504.24183364500277) rotate(0 48.30629546310411 60.773527748389824)"><path d="M-0.34 0.73 C15.81 8.99, 95.85 29.8, 96.94 49.72 C98.04 69.64, 21.02 108.33, 6.23 120.23 M1.68 0.06 C17.62 8.46, 94.55 30.69, 95.7 50.93 C96.85 71.17, 23.05 110.15, 8.6 121.49" stroke="#e67700" stroke-width="2" fill="none"></path></g></g><mask></mask><g stroke-linecap="round"><g transform="translate(868.4031552806136 700.9213496842895) rotate(0 11.134600949517335 34.586224860306174)"><path d="M0.59 0.39 C4.28 5.99, 22.67 21.56, 22.83 33.1 C23 44.64, 5.35 63.42, 1.58 69.62 M-0.57 -0.45 C3 5.33, 22.18 22.93, 22.44 34.25 C22.69 45.58, 4.71 61.82, 0.94 67.51" stroke="#e67700" stroke-width="2" fill="none"></path></g></g><mask></mask><g stroke-linecap="round"><g transform="translate(196.58809084408313 762.8718811867184) rotate(0 24.87477729138118 41.331822076834214)"><path d="M0.05 -0.83 C8.61 5.44, 50.03 24.1, 51.11 37.99 C52.19 51.88, 14.11 74.88, 6.55 82.52 M-1.38 1.34 C7.1 7.27, 49.21 22.69, 50.49 36.38 C51.78 50.07, 13.71 75.95, 6.32 83.5" stroke="#e67700" stroke-width="2" fill="none"></path></g></g><mask></mask><g stroke-linecap="round"><g transform="translate(1006.8367818892475 838.1641072635102) rotate(0 10.626812973251617 34.06232171862757)"><path d="M-0.8 -0.39 C2.96 5.25, 21.71 23.45, 22.05 34.97 C22.39 46.48, 4.82 62.96, 1.23 68.7 M0.97 -1.64 C4.66 4.21, 21.34 21.54, 21.24 33.44 C21.15 45.34, 3.91 63.57, 0.42 69.77" stroke="#e67700" stroke-width="2" fill="none"></path></g></g><mask></mask><g stroke-linecap="round" transform="translate(18.302240715602238 10) rotate(0 668.5 60)"><path d="M0 0 C0 0, 0 0, 0 0 M0 0 C0 0, 0 0, 0 0 M0.04 5.25 C1.77 5.73, 2.19 3.11, 5.26 -0.46 M-0.35 7.12 C1.33 4.94, 2.58 3.08, 4.4 1.08 M1.01 14.5 C1.62 7.97, 4.86 7.92, 12 -1.28 M-0.84 10.51 C3.64 8.5, 9.58 2.81, 10.11 -1.23 M3.63 17.98 C2.07 11.91, 6.56 10.89, 15.37 -1.65 M1.55 17.76 C5.87 11.56, 10.04 6.62, 14.42 0.47 M4.11 20.17 C12.25 10.53, 18.95 8.23, 23.09 -3.23 M1.82 23.51 C4.47 17.36, 12.07 11.04, 23.03 -0.44 M-3.9 31.57 C7.34 20.43, 17.15 14.05, 25.82 1.16 M-0.55 31.69 C9.58 19.22, 19.46 9.45, 26.83 -0.52 M-0.34 33.66 C8.36 24.78, 23.84 12.22, 34.19 -3.16 M-0.46 37.66 C8.16 29.11, 13.98 18.93, 30.38 -1.21 M-3.48 44.77 C12.97 29.68, 20.41 13.38, 34.87 -0.01 M2.1 42.58 C12.46 31.6, 21.41 18.9, 38.01 1.39 M1.07 49.33 C11.63 31.07, 24.33 13.54, 44.79 2.62 M-0.37 48.25 C17.86 32.08, 33.56 12.94, 42.64 -1 M2.02 55.59 C6.43 44.11, 18.96 26.92, 50.93 1.59 M1.13 56.23 C14.62 33.16, 34.33 13.56, 47.95 1.65 M-1.92 60.67 C16.85 38.57, 36.3 20.07, 56.52 -0.41 M-1.57 62.48 C13.22 45.65, 27.91 27.83, 53.19 0.24 M3.59 68.27 C14.22 51.45, 31.45 28.33, 60.86 2.19 M-1.77 68.47 C20.68 40.9, 43.09 17.36, 59.4 0.95 M-0.45 73.92 C16.43 49.56, 37.26 29.4, 65.5 2.76 M-0.32 72.04 C13.99 55.01, 33.41 35.64, 62.15 -0.17 M-3.34 82.28 C23.26 56.97, 40.42 32.53, 70.05 3.54 M-0.14 78.11 C24.82 49.72, 49.48 23.67, 69.84 1.23 M0.88 84.83 C25.61 53.23, 51.36 25.02, 78.37 0.6 M1.89 85.89 C16.13 62.06, 35.52 43.8, 76.39 0.34 M1.22 88.89 C22.71 69.34, 42.07 45.85, 78.38 -3.12 M1.22 91.45 C13.98 73.64, 31.07 55.31, 79.53 1.67 M-0.7 95.39 C19.82 78.21, 36.32 51.32, 88.27 3.12 M1.65 98.95 C26.49 68.56, 55.06 36.59, 85.53 1.58 M0.4 100.08 C23.42 79.66, 40.36 61.47, 88.25 2.95 M0.93 103.33 C22.88 78.9, 41.96 49.05, 91.47 -1.27 M-3.51 110.83 C31.48 73.93, 73.92 31.88, 98.82 1.81 M0.26 109.16 C28.68 79.73, 58.03 49.55, 93.95 0.62 M3.82 117.34 C18.58 89.67, 42.99 70.18, 104.52 0 M0.37 113.81 C32.07 79.71, 66.95 38.61, 99.39 -1.91 M3.34 119.4 C25.41 95.5, 46.23 67.58, 108.16 1.65 M0.47 121.22 C40.93 72.52, 81.31 27.55, 104.76 -0.22 M5.53 116.87 C42.22 73.34, 88.47 26.98, 110.59 3.77 M5.56 121.41 C41.83 81.54, 71.92 44.07, 111.8 -1.31 M10.41 120.27 C33.79 92.23, 60.49 62.75, 116.27 -2.09 M12.95 122.51 C44.67 82, 77.67 41.27, 115.18 -0.62 M18.85 120.67 C46.63 90.95, 72.72 52.37, 124.33 3.49 M18.07 122.2 C51.6 81.76, 86.48 36.52, 119.95 0.73 M23.76 124.01 C56.49 79.21, 96.81 32.16, 127.58 -2.95 M20.13 119.52 C47.04 90.6, 79.79 54.37, 127.14 -1.27 M24.32 120.03 C59.71 86.92, 90.24 53.09, 134.13 1.92 M26.91 121.29 C47.22 95.11, 73.45 66.58, 133.81 1.65 M29.76 119.35 C63.1 78.71, 97.53 42, 139.08 -2.68 M32.98 120.71 C60.72 90.05, 91.87 52.57, 139.35 0.64 M41.57 122.42 C57.27 92.78, 80.97 64.12, 146.87 -0.71 M36.46 119.75 C60.77 97.31, 80.95 67.72, 142.16 0.13 M41.29 124.55 C77.49 74.97, 115.83 39.36, 150.91 1.72 M41.26 119.76 C66.01 92.55, 91.51 62.37, 149.95 0.43 M52.73 116.85 C85.38 73.56, 127.48 29.04, 155.93 1.34 M49.84 119.88 C72.37 88.72, 97.71 58.87, 152.47 0.13 M57.74 123.33 C79.27 90.48, 104.08 65.41, 157.68 2.74 M53.46 119.62 C84.66 86.72, 117.34 51, 159.79 -1.33 M58.44 121.81 C95.87 73.51, 140.61 26.64, 165.2 3.33 M60.92 121.26 C89.76 82.51, 122.62 44.16, 163 -1.18 M64.99 120.95 C95.81 85.86, 126.86 50.55, 172.54 -1.63 M64.83 120.47 C93.58 89.89, 123.73 59.14, 168.5 1.18 M69.83 121.28 C96.32 89.96, 122.37 56.01, 173.06 -2.02 M70.33 120.7 C97.7 87.62, 125.17 52.11, 174.74 -1.34 M75.42 120.15 C114.92 72.17, 152.6 31.47, 179.12 0.11 M73.37 119.77 C102.35 91.21, 133.26 59.62, 178.46 -0.98 M84.53 120.76 C111.42 83.26, 143.28 46.55, 188.39 -0.45 M81.43 120.28 C104.75 94.39, 130.2 68.97, 187.44 -0.67 M87.92 121.17 C114.16 87.03, 148.95 54.98, 187.56 0.94 M83.82 120.19 C109.54 97.18, 131.06 71.2, 190.78 0.5 M94.67 123.25 C108.63 96, 131.08 65.87, 198.58 -4.23 M92.35 119.29 C133.46 76.56, 171.11 32.81, 195.6 -2.23 M95.87 121.75 C128.35 81.37, 165.24 40.28, 202.47 -0.63 M95.67 121.69 C133.52 77.95, 169.63 40.59, 201.33 -0.79 M102.9 121.23 C136.95 80.51, 172.53 34.28, 209.51 -4.11 M103.96 122.32 C138.24 81.53, 172.73 44.27, 208.45 0.18 M103.15 117.13 C131.92 97.54, 152.83 69.99, 215 -0.63 M107.18 121.45 C139.68 81.09, 172.05 44.85, 212.74 1.94 M113.67 121.45 C142.55 88.46, 169.15 59.34, 221.55 -1.35 M111.21 119.93 C134.59 96.96, 157.67 68.26, 218 -1.99 M116.15 124.05 C147.2 83.05, 180.45 42.83, 218.78 2.44 M119.34 121.92 C143.04 90.08, 167.62 61.07, 222.37 0.77 M119.95 117.9 C149.96 87.57, 177.67 60.3, 229.6 0.29 M121.8 121.68 C164.99 73.24, 202.77 25.06, 227 -0.08 M127.74 116.77 C169.64 76.4, 204.36 28.54, 233.95 -0.42 M127.89 118.78 C163.8 80.99, 201.31 39.39, 234.35 1.01 M131.2 120.31 C169.84 86.39, 197.84 44.41, 238.38 3.3 M132.19 120.64 C166.17 88.41, 196.53 52.01, 236.27 0.64 M141.31 123.01 C174.93 82.32, 207.54 46.43, 243.13 3.28 M139.34 120.98 C171.63 86.31, 203.22 51.31, 243.54 1.24 M144.07 119.19 C189.1 73.83, 223.38 30.52, 249.09 -2.57 M142.26 122.38 C184.91 74.03, 226 26.56, 247.39 1.83 M146.75 120.02 C181.53 83.38, 211.12 44.96, 255.45 -0.48 M150.92 118.71 C191.52 71.08, 232.25 24.85, 255.58 1.26 M157.67 118.53 C188.59 78.18, 226.89 36.97, 263.44 4.17 M154.61 121.71 C184.27 92.23, 211.23 58.94, 258.69 0.7 M160.43 122.55 C191 80.48, 231.81 46.57, 266.56 3.81 M158.64 119.41 C184.16 93.36, 205.61 66.08, 266.83 -1.86 M165.65 119.81 C185.57 93.73, 215.99 63.32, 270.34 1.75 M166.63 122.7 C198.25 84.44, 229.98 46.26, 271.91 -1.07 M169.24 118.84 C199.32 93.06, 226.15 59.82, 274.58 -2.87 M169.24 119.78 C193 90.75, 221.81 60.53, 276.4 -1.79 M172.14 122.03 C201.56 88.59, 224.98 58.32, 277.15 -2.07 M174.43 122.67 C198.16 93.09, 219.93 67.65, 279.56 -0.53 M178.56 118.62 C222.88 78.44, 254.55 30.35, 288.15 -2.03 M180.21 121.74 C217.34 73.93, 254.78 31.64, 286.18 1.02 M183.76 121.69 C210.69 93.37, 237.23 64.93, 293.76 -2.06 M184.89 120.18 C220.28 85.33, 253.26 46.99, 292.88 -1.5 M188.27 121.15 C235.37 72.58, 270.15 30.35, 294.4 -1.66 M191.81 120.5 C228.66 78.3, 264.19 36.23, 296.79 -0.61 M193.66 120.77 C226.5 89.3, 249.93 60.12, 300.55 -3.47 M195.62 119.05 C218.92 92.13, 242.75 65.01, 301.86 1.48 M200.77 123.15 C229.04 93.67, 251.09 65.57, 306.96 3.71 M203.02 120.5 C223.06 91.31, 249.91 63.44, 307.58 -0.61 M205.47 118.76 C237.81 87.15, 269.02 49.97, 312.41 1.94 M207 120.35 C226.17 97.76, 248.55 71.79, 311.25 -0.91 M212.92 118.89 C242.41 81.58, 278.2 46.6, 317.96 1.09 M211.6 119.42 C244.48 80.85, 279.18 43.16, 316.7 0.34 M217.31 120.67 C240.68 88.47, 261.1 62.85, 322.72 3.9 M218.16 122.38 C255.96 78.07, 294.16 33.53, 324.55 -0.74 M223.46 124.84 C249.62 87.73, 277.56 59.49, 330.04 -1.04 M221.39 120.97 C258.59 80.34, 296.78 35.46, 329 -1.21 M229.83 120.97 C267.6 81.07, 304.62 40.65, 335.36 -2.32 M226.95 120.73 C261.24 82.33, 297.69 42.79, 332.01 -0.8 M235.58 120.75 C279.09 75.3, 314.52 29.5, 340.34 3.31 M232.93 119.82 C273.85 73.53, 313.18 27.82, 340.1 0.58 M238.15 119.67 C277.84 70.39, 324.3 22.77, 340.71 -0.01 M238 120.2 C273.56 79.55, 305.45 39.87, 342.61 1.35 M245 118.11 C280.7 84.75, 314.36 39.17, 347.82 2.41 M243.58 122.18 C273.3 91.38, 299.38 59.05, 347.73 1.51 M247.9 122.25 C289.41 85.31, 325.98 39.41, 355.66 1.1 M250.68 118.86 C279.67 88.04, 307.44 55.12, 356.11 1.39 M258.62 117.16 C285.81 80.34, 317.1 44.93, 363.93 3.71 M254.08 122.72 C289.15 74.67, 328.65 33.32, 358.32 0.41 M259.23 123.71 C286.09 91.52, 311.74 64.97, 367.59 -3.27 M259.12 120.03 C298.95 77.74, 337.9 34.83, 367 0.27 M261.82 123.65 C283.8 98.18, 308.38 67.78, 368.65 -1.52 M263.92 121.41 C294.23 86.89, 324.71 51.43, 371.08 -0.43 M274.76 124.54 C299.07 94.09, 321.51 64.66, 374.39 -3.86 M272.18 120.28 C292.97 91.64, 316.82 63.22, 376.53 0.18 M274.47 124.82 C312.09 75.76, 349.55 37.04, 385.12 -1.29 M275.36 119.42 C308.07 86.96, 339.79 49.31, 380.63 1.83 M283.62 122.73 C315.5 83.63, 355.58 36.91, 384.43 -1.94 M281.48 121.41 C320.57 77.12, 359.99 32.78, 388.69 0.56 M286.95 121.41 C317.03 85.39, 349.37 48.83, 390.95 -2.12 M285.38 119.19 C319.87 82.32, 356.34 40.18, 392.34 -0.74 M293.46 121.78 C313.43 93.44, 337.63 70.54, 400.6 -1.27 M293.41 122.5 C326.3 77.89, 366.52 33.52, 398.24 -1.89 M300.17 119.66 C320.06 97.09, 348.08 64.07, 406.3 3 M297.73 120.43 C317.5 97.32, 341.04 70.77, 402.34 1.15 M306.39 122.67 C327 90.99, 348.84 67.47, 404.28 -0.09 M305.07 119.87 C327.67 94.57, 349.02 68.52, 406.66 -1.25 M309.48 123.31 C345.19 71.47, 386.97 25.7, 413.78 2.54 M306.91 120.06 C344.95 76.27, 382.26 31.77, 413.49 2.09 M311.06 123.9 C347.64 73.61, 387.1 31.35, 419.35 0.82 M312.33 119.07 C337.01 91.8, 358.46 65.16, 418.2 1.69 M320.79 117.61 C341.41 95.32, 365.73 66.96, 422.54 -1.49 M318.17 120.29 C352.89 84.61, 388.63 44.21, 423.42 1.89 M322.6 121.46 C359.35 85.54, 391.35 44.42, 432.2 -1.78 M325.83 118.93 C359.66 74.92, 399.41 32.31, 427.86 -0.63 M326.46 117.31 C360.42 85.67, 390.18 53.99, 436.21 -1.6 M331.5 120.55 C360.16 87.72, 390.48 57.05, 436.5 1.62 M333.98 117.6 C363.09 89.46, 390.06 58.28, 439.71 2.34 M334.27 120.27 C358.76 90.53, 382.97 64.66, 441.38 1.47 M337.39 118.63 C364.38 85.72, 394.05 59.25, 444.91 -0.81 M341.65 121.53 C368.23 87.54, 398.34 52.43, 443.84 -0.41 M342.64 117.8 C363.45 92.57, 387.25 69.36, 449.27 -3.07 M347.09 122.89 C381.01 83.66, 413.92 43.64, 451.27 -1.06 M350.96 123.32 C395.34 72.99, 431.42 32.6, 457.29 3.39 M350.11 121.18 C371.57 95.13, 393.33 70.19, 455.33 -0.64 M354.58 119.3 C380.88 85.76, 409.85 56.44, 462.75 3.23 M354.51 122.12 C391.13 77.77, 429.94 37.81, 460.76 -0.02 M359.04 122.64 C383.5 95.38, 406.93 66.31, 468.47 2.98 M361.13 122.69 C393.3 89.39, 420.74 58.34, 467.58 1.76 M362.91 124.1 C386.8 94.53, 415.68 65.23, 467.88 0.73 M366.14 121.76 C402.01 80.57, 436.21 40.59, 471.2 -1.24 M372.03 121.3 C398.59 82.64, 431.19 53.24, 476.08 3.45 M373.71 122.5 C398.87 85.72, 432.8 54.14, 475.95 0.85 M379.27 123.7 C412.23 81.48, 442.26 45.01, 480.86 4.18 M378.35 122.9 C412.41 83.36, 450.99 40.67, 480.64 0.49 M378.8 121.57 C406.32 91.45, 428.25 69.37, 488.27 -0.2 M381.59 122.29 C420.89 80.36, 460.42 35.96, 486.59 -0.05 M385.79 123.08 C411.23 96.48, 433.01 72.88, 494.41 4.06 M386.27 119.84 C415.05 82.59, 447.36 49.28, 491.93 1.85 M394.73 123.18 C428.46 71.84, 471.61 26.98, 499.66 0.52 M393.27 121.02 C415.79 90.04, 438.92 63.46, 496.34 -0.37 M399.12 124.73 C432.47 82.6, 471.57 37.81, 504.42 3.62 M399.76 120.15 C439.48 71.26, 483.05 26.28, 503.31 0.04 M405.72 123.38 C437.22 81.04, 470.72 41.68, 507.38 3.6 M403.99 118.87 C442.8 79.63, 479.96 36.4, 508.84 1.69 M406.37 120.65 C444.7 74.04, 479.12 32.11, 517.27 3.6 M407.46 120.65 C439.82 86.86, 467.89 52.87, 515.77 1.5 M416.15 116.9 C446.42 85.99, 469.99 49.75, 519.07 -3.46 M415.75 121.28 C455.02 74.98, 495.65 28.6, 518.46 1.21 M421.18 124.34 C453.27 83.12, 493.87 37.27, 525.84 2.24 M420.72 119.4 C450.45 86.98, 477.55 54.4, 525.07 1.91 M424.88 119.99 C452.93 87.59, 477.41 53.09, 528.87 -3.68 M425.3 118.96 C455.84 86.01, 483.96 54.25, 530.32 -1.5 M427.69 122.77 C469.14 80.13, 505.04 40.29, 533.51 3.28 M429.68 119.73 C468.93 78.12, 507.43 33.84, 533.7 -1.77 M433.32 122.39 C477.09 77.71, 514.79 28.02, 541.4 1.44 M436.13 119.82 C463.63 91.44, 489.38 60.64, 540.28 -0.86 M444.53 124.45 C463.99 93.65, 483.09 70.2, 546.18 -0.02 M439.2 122.19 C483.47 74.92, 521.17 26.95, 546.91 0.64 M445.34 119.35 C475.66 81.89, 515.85 40.35, 547.79 -0.11 M446.49 121.08 C485.78 74.16, 522.98 31.83, 550.97 -2.07 M452.82 119.37 C476.46 94.57, 497.78 65.4, 556.21 -0.94 M452.89 120.6 C470.63 93.21, 497.29 67.08, 556.68 0.57 M458.67 120.35 C486.32 84.93, 511.85 50.04, 565.69 1.17 M456.71 121.92 C494.91 74.41, 533.89 29.71, 563.77 -1.06 M460.21 119.01 C499.27 79.87, 532.46 46.23, 566.5 -3.23 M461.15 122.03 C487.07 88.29, 515 55.27, 565.77 -1.26 M467.5 122.14 C507.55 75.89, 551.81 29.38, 575.21 -3.75 M467.87 120.53 C490.94 91.79, 517.29 64.75, 570.78 -0.51 M468.83 124.38 C498.76 85.25, 529.49 55.31, 574.42 2.86 M473.08 118.8 C505.99 80.74, 541.58 38.67, 579.68 1.07 M474.56 121.21 C515.48 80.01, 549.87 34.65, 582.35 -1.6 M477.79 122.6 C506.14 90.55, 533.06 55.46, 582.24 -1.1 M483.31 117.96 C503.32 92.28, 528.77 72.38, 587.87 0.56 M484.55 120.47 C516.23 83.49, 550.54 45.29, 586.65 -1.24 M485.73 118.8 C530.85 75.82, 570.07 25.56, 589.54 0.1 M487.72 122.32 C522.93 80.21, 555.8 42.37, 593.06 -0.52 M494.77 119.74 C522.96 92.71, 553.2 54.89, 601.21 2.62 M494.19 121.86 C533.62 73.75, 569.93 31.69, 597.67 0.24 M501.4 121.65 C525.95 92.46, 546.58 69.24, 607.76 1.58 M497.66 119.14 C529.3 90.23, 554.86 59, 602.97 -0.95 M504.86 123.22 C529.95 92.79, 552.43 62.48, 611.34 3.28 M503.37 119.03 C540.47 81.58, 570.85 44.05, 610.49 -0.78 M508.45 118.01 C554.91 76.92, 589.1 29.35, 611.15 -0.15 M510.36 121.74 C541.22 86.79, 568.27 55.59, 615.08 -0.08 M517.71 119.4 C548.98 85, 579.91 44.31, 617.64 2.28 M516.21 121.3 C539.59 97.31, 560.47 73.12, 621.62 -1.38 M520.26 117.62 C554.99 83.11, 586.91 52.74, 624.33 -2.6 M519.31 120.08 C550.01 88.54, 577.96 51.57, 623.27 1.66 M523.95 120.75 C562.17 79.78, 603.02 39.14, 629.99 -3.13 M527.58 119.25 C551.12 95.45, 573.82 70.28, 630.28 -1.35 M528.71 119.72 C566.01 82.55, 598.27 42.67, 634.44 2.21 M532.76 121.33 C557.78 90.55, 587.26 55.27, 636.16 1.09 M532.72 121.28 C562.08 90.08, 584.98 63.85, 644.77 -2.22 M535.1 120.67 C571.33 79.45, 607.65 40.46, 642.49 0.75 M544.19 121.05 C580.24 73.22, 617.33 32.73, 647.11 3.78 M541.69 121.95 C571.81 88.27, 599.21 51.82, 645.12 0.27 M547.63 120.47 C581.17 87.2, 609.33 44.7, 652.87 -2.74 M547.15 118.65 C569.35 93.66, 596.13 66.22, 650.98 -0.4 M555.58 123.85 C574.87 91.85, 600.62 62.79, 654.48 -2.89 M551.87 119.62 C590.22 78.13, 630.21 31.82, 656.27 -1.48 M558.84 123.33 C584.85 88.42, 623.05 49.97, 663.66 1.05 M558.83 119.5 C580.1 93.76, 604.78 65.48, 663.26 -0.86 M562.26 119.88 C606.84 68.3, 648.81 24.93, 667.17 -1.32 M563.79 121.28 C601.59 80.45, 635.76 38.51, 666.49 0.41 M566.31 125.08 C592.12 94.09, 622.28 66.07, 673.04 -3.6 M567.38 119.53 C598.04 85.66, 631.42 50.9, 673.56 0.58 M574.12 122.36 C603.53 87.95, 634.52 46.94, 682.33 -1.51 M572.68 119.13 C615.17 72.27, 656.53 23.96, 679.38 -0.25 M574.5 124.23 C610.11 84.51, 645.27 43.22, 687.38 0.04 M578.72 122.06 C613.71 81.16, 650.92 42.32, 682.89 -1.65 M587.54 118.05 C607.58 93.39, 631 64.72, 691.58 0.02 M584.56 122.6 C607.39 95.84, 627.97 70.4, 689.33 -0.38 M588.37 119.01 C622.37 84.85, 650.49 48.07, 691.57 2.22 M587.56 121.9 C612.39 95.26, 635.97 66.66, 694.99 0.13 M593.39 123.17 C628.88 73.94, 672.21 28.47, 697.06 -3.72 M596.15 122.39 C631.79 76.2, 669.15 30.68, 701.45 0.31 M600.06 120.42 C638.43 69.58, 678.65 23.74, 704.34 -0.57 M600.04 122.38 C640.22 77.72, 676.53 33.85, 703.7 -0.36 M609.08 119.49 C632.75 93.53, 654.01 59, 711.39 1.75 M606.97 122.45 C626.76 92.91, 652.65 61.54, 711.62 -0.59 M612.2 120.95 C634.86 95.18, 660.43 66.88, 716.87 -0.59 M609.01 120.05 C650.09 75.68, 688.15 32.04, 715.58 1.54 M614.46 118.23 C647.12 77.3, 681.24 41.12, 717.72 -3.58 M615.26 119.95 C650.51 84.54, 682.32 46.41, 722.46 -0.27 M621.93 118.59 C656.75 76.23, 692.86 35.66, 728.9 1.65 M622.1 120.74 C657.9 76.38, 697.56 30.02, 725.97 2.04 M623.94 120.14 C652 97.95, 672.32 63.37, 733.67 -2.2 M626 121.34 C662.4 82.86, 693.8 46.99, 731.33 1.33 M628.88 124.84 C666.17 74.25, 707.64 23.12, 735.31 2.4 M629.69 119.51 C668.69 79.84, 702.32 41.83, 737.61 1.82 M638.39 123.47 C673.82 84.95, 701.48 45.96, 739.38 -3.14 M638.95 122.32 C662.47 87.9, 686.94 57.54, 742.37 1.54 M643.17 124.68 C659.94 96.74, 685.63 75.67, 749.48 3.4 M640.89 120.68 C668.63 90.27, 695.71 58.11, 748 -1.16 M645.2 123.95 C673.62 91.58, 692.05 64.93, 749.48 -1.9 M648.61 119.83 C687.37 72.29, 729.77 29.22, 754.43 -1.09 M653.46 124.61 C685.95 80.78, 720.19 40.26, 755.29 3.89 M651.57 121.82 C679.56 92.66, 705.23 62.79, 757.39 0.27 M658.24 122.82 C695.68 72.05, 735.99 24.22, 765.1 3.52 M660.22 120.05 C682.13 93.29, 705.27 66.88, 765.15 1.27 M666.86 120.62 C684.9 86.76, 717.95 63.43, 771.13 0.61 M664.35 121.74 C693.98 92.16, 722.6 56.5, 768.78 -1.43 M669.9 118.84 C704.4 71.76, 746.84 31.07, 773.88 -3.39 M669.78 122.43 C708.39 76.18, 744.56 31.08, 774.89 1.67 M677 122.2 C711.2 76.67, 757.67 24.13, 777.88 3.81 M672.61 120.5 C708.7 78.49, 742.42 40.95, 779.9 -0.58 M683.07 124.23 C703.92 89.82, 734.33 57.55, 781.94 -1.65 M680.02 119.65 C704.63 91.53, 732.23 61.05, 782.77 -1.55 M688.03 120.34 C718.57 83.07, 750.85 48.01, 790.92 -2.78 M684.47 119.43 C715.21 86.53, 747.52 47.58, 791.26 1.76 M686.47 117.51 C723.03 80.24, 755.42 45.79, 797.93 3.25 M687.8 122.43 C732.75 73.84, 772.04 27.31, 794.67 -0.85 M698.58 119.55 C723.11 80.27, 756.83 41.45, 804.14 2.1 M694.8 121.09 C729.62 78.59, 764.93 35.56, 802.1 1.78 M697.29 120.39 C726.59 94.01, 754.02 59.47, 808.97 3.28 M698.67 120.43 C735.14 81.74, 773.03 38.68, 807.2 0.61 M709.78 121.8 C735.04 93.45, 756.51 57.5, 813.91 -2.83 M705.21 121.29 C730.4 94.67, 756.59 66.52, 810.42 0.94 M709.26 122.39 C729.01 97.56, 751.52 68.37, 812.05 -3.29 M710.98 122.86 C750.04 75.21, 790.28 28.59, 815.09 1.64 M717.25 118.59 C743.34 85.63, 776.94 54.34, 819.13 -1.31 M716.09 121.11 C746.49 89.86, 771.48 57.34, 820.96 1.91 M719.27 117.73 C747.9 94.76, 774.15 62.97, 824.6 1.01 M722.45 119.4 C758.96 78.15, 799.05 34.74, 825.76 0.05 M727.14 122.92 C755.23 90.36, 787.92 52.35, 829.17 -3.61 M726.54 118.86 C761.98 80.94, 798.28 43.32, 833.23 0.64 M734.7 122.17 C764.41 88.33, 796.65 48.75, 840.6 1.43 M733.61 120.99 C760.77 87.18, 789.87 56.79, 835.43 1.15 M740.07 121.28 C774.22 74.98, 817.91 29.12, 839.92 1.53 M738.45 122.1 C762.8 88.65, 789.1 56.32, 841.46 -1.68 M741.43 124.94 C773.57 79.19, 809.24 44.7, 849.19 3.96 M743.68 119.84 C775.22 83.54, 809.91 47.03, 847.71 -1.23 M751.19 121.65 C777.24 81.57, 817.27 44.64, 849.75 -1.17 M748.43 119.66 C777.37 90.58, 807.05 53.25, 854.65 1.4 M751.84 120.78 C793.84 78.25, 832.04 31.22, 857.99 4.1 M754.66 121.37 C790.89 72.53, 831.77 26.57, 856.99 -0.03 M758.12 121.53 C782.45 98.44, 805.03 72.42, 867.56 2.55 M759.86 121.59 C791.57 80.06, 825.33 43.44, 864.55 1.56 M764.81 117.95 C783.47 99.14, 805.36 71.1, 869.15 2.83 M763.31 120.28 C785.33 93.01, 810.58 66.68, 868.39 1.07 M768.99 123.91 C805.81 75.51, 844.4 38.95, 872.73 0.42 M770.85 119.22 C808.65 79.97, 845.02 34.3, 873.65 -0.26 M773.74 122.17 C817.6 68.63, 855.84 27.26, 879.29 -1.35 M773.11 120.52 C797.94 90.75, 824.84 61.57, 877.76 -0.36 M778.44 121.29 C817.18 81.93, 851.02 45.95, 887.13 1.68 M782.28 121.11 C803.14 92.96, 828.07 65.54, 887.2 -1.86 M782.49 120.7 C827.15 77.22, 870.37 30.6, 887.55 3.55 M786.32 119.27 C819.91 85.2, 852.45 43.99, 891.74 -1.52 M791.6 119.66 C818.21 88.35, 844.67 55.75, 895.15 -2.91 M789.77 121.08 C815.25 94.54, 838.66 69.95, 897.2 0.2 M797.47 122.28 C834.31 72.57, 880.51 28.17, 903.56 3.02 M795.93 118.98 C839.62 71.78, 879.04 27.15, 899.7 1.68 M799.44 123.26 C826.93 92.54, 847.15 65.15, 907.68 -1.12 M799.03 122.95 C837.56 80.43, 870.12 41, 906.4 -1.39 M803.53 117.14 C844.34 77.03, 881.35 33.37, 915.45 -3.94 M805.68 119.33 C832.1 91.04, 854.47 61.98, 909.75 -1.46 M813.42 123.57 C839.7 84.71, 867.58 55.45, 914.09 0.79 M812.49 121.52 C853 78.79, 891.07 33.9, 916.28 -0.69 M820.08 117.03 C860.28 79.18, 896.18 33.25, 921.85 3.15 M818.08 121.27 C850.17 83.3, 883.93 43.17, 920.77 -0.38 M821.51 119.85 C850.58 87.17, 882.62 47.13, 930.27 2.06 M821.38 123.13 C844.97 94.79, 869.66 64.81, 927.09 1.49 M829 123.19 C847.42 89.7, 875.01 68.64, 931.91 2.29 M826.36 118.98 C869.51 77.45, 906.04 31.05, 934.38 0.76 M830.84 124.08 C861.17 87.87, 885.59 58.25, 933.95 0.2 M832.31 122.57 C860.91 89.61, 886.59 58.06, 937.18 -1.65 M838.65 118.37 C865.3 85.58, 902.49 49.79, 941.24 0.98 M838.53 119.92 C879.95 75.42, 921.13 27.29, 942.95 -0.99 M843.05 121.77 C873.34 84.66, 906.1 51.28, 947.32 3.94 M842.65 119.92 C876.79 84.71, 906.85 46.97, 949.61 2.07 M851.94 122.8 C877.75 90.21, 906.05 53.36, 955.99 -3.8 M849.33 120.77 C890.96 75.14, 931.75 26.01, 953.61 0.68 M854.26 119.89 C877.58 94.18, 897.27 64.04, 961.1 -2.24 M852.52 120.51 C896.13 70.97, 938.13 23.02, 960.2 0.35 M858.24 122.24 C899.5 72.72, 944.4 20.8, 960.78 -1.56 M860.25 119.48 C893.01 83.27, 923 46.68, 964.21 1.36 M863.11 122.94 C894.84 78.94, 931.24 39.1, 969.19 2.92 M864.81 122.88 C897.06 87.41, 927.49 50.4, 968.22 1.37 M873.43 123.91 C888.07 93.6, 917.54 64.99, 974.76 -0.3 M871.55 119.22 C901.23 82.92, 936.19 45.48, 975.39 1.84 M878.74 124.92 C901.5 87.88, 934.1 53.42, 983.96 -1.84 M877.11 122.86 C900.87 92.92, 925.69 65.33, 979.65 -1.42 M883.9 124.56 C911.53 86.4, 934.4 58.58, 987.55 -2.52 M882.21 120.46 C905.9 93.69, 928.36 67.88, 986.51 0.21 M888.77 117.31 C923.54 72.06, 966.89 29.07, 988.3 -0.29 M885.82 121.52 C910.65 91.35, 934.85 61.57, 991.24 -1.32 M894.52 118.44 C929.4 75.25, 965.84 36.86, 999.28 2.75 M889.99 120.87 C930.12 79.67, 961.93 39.96, 995.7 -0.23 M899.34 121.11 C923.04 93.13, 944.27 70.84, 999.58 -2.67 M898.05 121.17 C923.35 91.49, 948.53 62.45, 1002.49 1.59 M904.7 121.29 C930.82 83.05, 965.75 49.41, 1004.59 0.02 M903.38 119.4 C923.83 93.53, 948.73 69.45, 1007.82 1.09 M911.08 122.82 C945.63 70.4, 991.83 27.82, 1013.7 2.25 M907.66 121.38 C933.88 89.7, 960.79 59.32, 1011.65 0.52 M916.29 122.35 C952.82 74.2, 992.36 30.43, 1016.6 3.28 M913.62 120.24 C944.6 79.94, 974.74 43.95, 1018.5 -2.01 M919.13 122.41 C950.26 86.21, 983.94 40.59, 1021.03 -0.78 M919.29 118.97 C951.99 79.55, 983.12 41.18, 1023.7 1.91 M925.04 125.11 C955.41 88.66, 981.51 53.43, 1026.97 0.01 M922.06 121.59 C950.69 85.71, 977.44 54, 1030.11 1.53 M929.11 117.39 C960.11 88.35, 989.63 49.96, 1030.46 2.47 M928.29 119.99 C966.09 78.95, 1003.19 33.97, 1034.4 1.44 M931.14 120.31 C971.95 78.24, 1011.32 31.31, 1037.81 -0.78 M934.76 120.63 C962.63 87.51, 988.55 56.82, 1039.77 0.03 M941.17 118.75 C961.94 95.24, 984.98 67.24, 1045.36 -0.25 M940.8 119.77 C972.9 78.19, 1011.59 36.49, 1042.24 0.06 M943.31 122.45 C968.63 95.67, 994.31 65.9, 1045.1 0.14 M942.55 122.05 C977.15 88.76, 1005.95 52.53, 1050.7 -0.18 M949.92 118.98 C978.98 87.57, 1001.9 57.23, 1055.64 0.3 M949.69 118.88 C981.64 80.16, 1013.94 44.57, 1056.47 -0.05 M957.43 118.77 C981.91 89.82, 1012.42 57.1, 1057.29 -2.73 M955.69 123.05 C976.98 96.09, 999.39 68.68, 1058.82 2.19 M960.52 124.07 C998.33 76.14, 1040.7 30.55, 1061.65 2.87 M958.57 119.13 C999.49 80.33, 1036.4 35.08, 1065.08 0.57 M963.9 118.01 C999.73 85.15, 1036.75 45.3, 1067.35 0.84 M967.16 122.06 C1005.13 77.23, 1042.97 30.68, 1068.86 -0.02 M972.58 121.51 C990.08 90.46, 1017.05 64.24, 1074.3 3.7 M969.82 119.58 C997.67 86.28, 1029.73 53.75, 1074.82 -1.4 M979.58 118.4 C1014.51 83.81, 1049.55 39.74, 1079.43 1.85 M976.71 122.78 C1016.47 76.49, 1057.38 29.38, 1080.93 -1.51 M980.24 120.3 C1009.19 89.58, 1032.97 59.81, 1082.95 -3.48 M980.55 120.56 C1013.02 86.46, 1042.85 55.33, 1087.19 -0.01 M983.88 123.71 C1026.13 74.37, 1070.94 27.45, 1092.14 -3.21 M986.84 122.16 C1017.01 86.28, 1047.01 51.85, 1089.91 0.29 M996.13 118.93 C1029.42 79.25, 1068.67 37.31, 1095.51 -3.42 M990.64 119.63 C1017.54 89.82, 1044.45 59.83, 1098.43 -0.09 M998.66 119.16 C1031.88 87.72, 1058.93 45.47, 1098.62 3.66 M998.8 122.37 C1019.57 95.99, 1041.62 70.63, 1101.41 1.21 M1003.39 121.39 C1031.6 87.29, 1051.94 62.58, 1106.33 0.63 M1002.71 119.6 C1039.89 73.34, 1079.39 31.61, 1107.54 -1.17 M1008.31 119.5 C1030.31 101, 1048.19 68.35, 1110.51 -2.05 M1008.58 122.87 C1044.64 78.8, 1081.2 38.49, 1111.81 -1.71 M1011.66 121.17 C1051 79.89, 1090.37 34.77, 1120.32 2.9 M1014.14 120.55 C1036.57 95.67, 1059.97 69.56, 1120.27 -1.58 M1015.72 120.97 C1038.4 88.91, 1069.27 67.74, 1125.94 0.64 M1018.93 120.34 C1050.05 81.14, 1082.66 46.34, 1124.23 1.87 M1025.05 117.27 C1052.5 89.62, 1074.64 63.54, 1128.85 3.14 M1025.03 119.78 C1053.21 86.22, 1082.15 51.21, 1129.1 1.63 M1026.26 117.31 C1067.55 77.49, 1108.59 34.19, 1137.55 -1.77 M1027.34 120.73 C1056.92 89.53, 1082.75 57.35, 1132.54 -0.49 M1033.55 122.93 C1056.51 91.38, 1084.55 63.66, 1141.81 -1.41 M1033.61 120.63 C1066.66 80.89, 1099.92 41.42, 1141.29 0.65 M1039.82 123.77 C1065.61 90.29, 1088.46 59.58, 1148.45 -1.28 M1038.06 119.23 C1074.72 78.87, 1109.11 39.52, 1145.36 0.03 M1047.61 122.63 C1074.5 84.94, 1106.98 46.95, 1147.57 -0.02 M1042.82 121.39 C1078.95 82.17, 1115.36 44.6, 1150.83 0.93 M1050.78 121.09 C1081.49 81.41, 1114.65 45.18, 1156.29 -0.41 M1050.08 120.27 C1086.56 77.16, 1127.62 34.7, 1154.07 1.48 M1054.2 124.62 C1084.63 90.59, 1108.04 53.3, 1160.37 0.33 M1056.35 119.89 C1095.67 78.2, 1133.08 34.83, 1161.82 1.9 M1064.03 119.51 C1088.9 91.15, 1111.21 66.56, 1169.21 3.84 M1061.16 121.56 C1090.38 88.19, 1117.54 52.98, 1164.77 -0.81 M1067.45 117.9 C1093.25 89, 1118.09 57.56, 1174.9 3.86 M1065.35 122.44 C1102.19 77.1, 1139.5 34.28, 1171.06 2 M1070.94 118.77 C1112.77 77.96, 1146.82 28.41, 1173.82 -4.04 M1071.79 122.02 C1090.27 96.79, 1111.85 73.8, 1178.35 1.73 M1080 120.95 C1102 88.13, 1131.52 54.17, 1178.38 -1.43 M1075.67 120.62 C1106.06 83.88, 1141.1 47.19, 1180.14 -0.83 M1081.41 124.11 C1110.98 90.63, 1140.58 53.91, 1191.27 -2.06 M1081.21 121.86 C1122.81 75.57, 1162.54 28.83, 1186.43 -1.09 M1086.98 117.77 C1121.62 81.92, 1161.5 38.82, 1193.21 1.19 M1087.94 119.23 C1113.03 87.91, 1141.34 54.35, 1194.05 -0.13 M1091.81 122.28 C1137.51 76.19, 1174.07 27.27, 1197.19 -2.73 M1091.42 122.51 C1124.93 86.75, 1152.57 52.4, 1199.37 1.79 M1094.02 121.85 C1131.64 78.22, 1175.42 36.71, 1204.26 1.98 M1097.52 120.35 C1135.64 79.14, 1169.08 37.62, 1204.55 -0.23 M1101.02 121.52 C1139.24 83.82, 1171.28 46.99, 1209.71 2.95 M1103.17 118.67 C1130 88.12, 1159.88 54.27, 1210.3 -1.3 M1109.25 120.19 C1128.5 95.86, 1151.02 67.55, 1214.91 -3.32 M1110.55 119.28 C1142.48 83.82, 1177.73 43.88, 1214.13 -0.18 M1110.44 119.57 C1149.51 81.23, 1188.04 33.08, 1217.47 -2.53 M1115.94 122.28 C1147.41 82.38, 1182.98 41.86, 1219.09 -0.8 M1119.32 121.26 C1148.39 87.19, 1178.21 51.65, 1223.05 2.52 M1119.89 120.6 C1145.91 88.84, 1172.09 60.97, 1224.03 -1.78 M1123.93 119.67 C1149.07 93.99, 1166.05 67.35, 1227.59 0.82 M1124 122.52 C1163.54 76.35, 1198.94 31.32, 1228.36 -1.9 M1129.34 123.08 C1163.8 79.14, 1197.63 39.93, 1237.06 2.25 M1129.17 122.13 C1149.15 93.47, 1174.32 69.56, 1234.26 -1.6 M1131.89 122.57 C1165.08 90.18, 1194.85 53.12, 1241.71 -1.51 M1136.34 121.85 C1164.44 82.07, 1195.07 48.44, 1239.47 -0.53 M1138.96 121.12 C1167.43 93.09, 1184.62 69.12, 1243.82 0.11 M1140.75 118.93 C1178.2 73.57, 1219.98 27.36, 1243.55 1.05 M1142.54 119.26 C1176.52 88.66, 1206.45 48.24, 1247.96 -2.52 M1144.03 120.7 C1173.8 83.91, 1208.07 43.46, 1252.56 0.64 M1150.3 124.39 C1188.62 75.89, 1223.52 36.54, 1256.73 -2.15 M1151.75 119.31 C1190.1 73.67, 1231.2 25.65, 1257.4 0.12 M1152.58 119.98 C1187.38 84.9, 1224.74 47.06, 1260.98 2.27 M1154.9 122.5 C1187.24 89.63, 1214.54 55.45, 1262.5 0.16 M1160 123.36 C1184.77 89.97, 1212.24 59.23, 1267.65 2.7 M1162.05 120.84 C1199.52 78.55, 1232.31 40.13, 1268.07 -1.21 M1167.23 118.72 C1188.06 98.25, 1216.89 66.99, 1273.9 -1.13 M1165.53 122.22 C1199.48 84.42, 1230.39 44.44, 1270.89 -2.15 M1175.2 122.05 C1199.71 86.52, 1228.53 53.94, 1278.97 3.4 M1174.26 122.34 C1208.62 77.41, 1245.69 35.35, 1278.54 1.52 M1178.87 122.22 C1212.42 81.68, 1241.9 42.24, 1281.69 3.51 M1175.93 119.27 C1197.63 94.53, 1219.96 68.86, 1281.47 -0.47 M1181.51 121.93 C1225.06 75.83, 1262.34 20.21, 1287.57 2.21 M1181.77 119.88 C1212.55 88.33, 1243.28 53.51, 1286.57 -2.02 M1190.4 118.73 C1224.52 78.14, 1259.64 44.77, 1291.8 3.67 M1188.82 122.37 C1211.73 93.41, 1231.79 69.72, 1294.66 2.02 M1191.09 122 C1232.34 74.71, 1272 27.81, 1300.85 -1.14 M1192.68 118.77 C1231.11 77.47, 1270.24 33.05, 1296.64 -0.88 M1199.18 117.98 C1222.78 93.66, 1251.4 61.26, 1304.21 2.62 M1197.72 121.44 C1220.05 91.97, 1246.59 66.96, 1303.68 1.62 M1202.56 118.75 C1245.49 77.42, 1279.68 35.19, 1312.67 -1.4 M1205.87 121.57 C1242.44 75.66, 1281.61 29.94, 1308 1.14 M1213.11 119.23 C1238.88 83.49, 1270.29 50.89, 1314.05 0.33 M1210.87 119.68 C1231.89 93.26, 1254.83 64.87, 1313.14 -0.84 M1217.05 122.18 C1249.25 72.78, 1285.78 34.92, 1319.43 -3.84 M1214.97 120.11 C1246.82 82.53, 1278.15 45.32, 1318.66 1.48 M1218.57 119.21 C1258.73 78.03, 1288.11 39.61, 1326.95 2.3 M1219.25 121.54 C1244.19 88.93, 1273.23 60.81, 1326.42 0.71 M1222.19 123.77 C1258.08 80.37, 1297.85 41.88, 1328.01 -0.21 M1224.34 119.45 C1247.37 89.54, 1274.01 60.55, 1329.35 -1.19 M1228.44 120.16 C1253.04 89.6, 1278.9 66.92, 1335.04 3.52 M1228.63 120.69 C1270.22 75.02, 1313.36 28.97, 1333.65 1.58 M1240.12 120.52 C1273.79 78.06, 1316.5 29.51, 1337.81 1.49 M1237.1 121.91 C1265.48 85.93, 1291.64 55.89, 1337.61 3.36 M1242.1 121.84 C1276.48 83, 1306.85 46.41, 1342.4 4.04 M1239.5 120.09 C1258.64 97.82, 1280.46 76.19, 1341.12 5.88 M1247.48 122.92 C1267 94.16, 1286.99 77.02, 1338.17 12.06 M1247.13 119.05 C1266.03 97.63, 1285.05 77.57, 1339.11 15.86 M1253.43 121.47 C1268.84 99.82, 1291.9 74.68, 1340.13 23.57 M1251.09 119.93 C1282.08 88.18, 1306.93 54.01, 1338.44 21.16 M1255.39 122.97 C1286.69 89.34, 1320.94 53.61, 1335.99 22.43 M1259.04 119.69 C1283.26 90.71, 1306.37 63.92, 1339.39 24.94 M1258.82 121.8 C1285.92 91.58, 1305.89 68.54, 1341.11 35.58 M1261.41 121.64 C1277.17 103.68, 1294.19 84.32, 1337.22 32.46 M1268.83 118.9 C1292.91 86.59, 1321.87 57.47, 1340.16 38.83 M1267.55 122.65 C1287.27 99.11, 1308.7 75.64, 1338.2 38.29 M1273.16 123.08 C1296.53 96.32, 1324.98 65.74, 1338.82 41.81 M1271.21 119.92 C1289.17 102.91, 1305.31 81.44, 1337.92 44.85 M1281.25 120.21 C1299.62 96.94, 1314.93 75.29, 1337.4 49.77 M1276.1 121.74 C1298.38 100.15, 1314.75 79.53, 1337.36 49.61 M1281.82 123.04 C1302.53 92.77, 1327 73.63, 1337.88 56.76 M1283.98 122.71 C1296.7 108.79, 1308.28 95.15, 1340.41 55.89 M1286.62 120.14 C1307.16 95.93, 1325.49 75.6, 1342.92 62.97 M1288.9 122.28 C1302.64 105.91, 1313.54 92.06, 1339.44 63.58 M1296.68 116.93 C1314.12 100.75, 1331.16 82.21, 1337.44 68.41 M1293.96 119.2 C1310.39 99.73, 1332.05 77.4, 1339.33 68.39 M1298.07 124.68 C1311.93 107.79, 1323.09 91.68, 1340.42 77.94 M1297.56 122.08 C1313.21 104.65, 1325.67 89.77, 1339.78 76.39 M1308.13 121.49 C1319.34 108.79, 1329.29 88.25, 1338.46 79.01 M1306.15 119.84 C1317.96 106.48, 1325.36 95.37, 1339.37 83.19 M1307.24 121.32 C1320.58 108.1, 1330.67 100.95, 1340.81 90.91 M1308.47 120.22 C1316.52 114.13, 1322.66 106.17, 1341.12 88.74 M1317.06 118.96 C1322.13 109.76, 1336.04 102.01, 1338.4 94.04 M1316.31 120.3 C1318.83 116.89, 1325.04 107.55, 1337.99 92.08 M1324.27 119.06 C1323.48 111.84, 1334.53 103.6, 1341.46 95.63 M1318.74 121 C1327.27 113.75, 1330.95 108.59, 1340.97 98.57 M1326.84 121.09 C1330.83 114.32, 1333.97 107.6, 1343.23 102.76 M1326.91 121.55 C1329.99 117.57, 1333.08 112.78, 1337.38 106.39 M1330.32 123.03 C1330.85 118.05, 1333.32 114.58, 1340.56 109.63 M1331.81 121.6 C1333.5 118, 1334.54 115.59, 1338.95 113.06" stroke="#4c6ef5" stroke-width="0.5" fill="none"></path><path d="M-0.22 0.09 C438.72 -10.89, 879.66 -11, 1337.67 0.05 M-0.76 0.39 C440.23 -3.24, 879.59 -4.15, 1337.36 -0.54 M1333.65 -0.8 C1339.12 23.42, 1336.53 53.23, 1338.67 116.7 M1338.91 -0.1 C1337.49 37.12, 1335.59 76.73, 1336.31 120.77 M1335.61 119.45 C945.45 131.18, 551.32 130.97, 1.01 120.93 M1337.17 120.37 C1007.39 120.14, 678.94 120.82, 0.27 120.68 M2.92 118.84 C0.86 81.29, 3.12 49.49, -1.06 -3.07 M-0.35 121.35 C-2.48 76.57, -2.4 35.41, 1.28 -0.75" stroke="#000000" stroke-width="1" fill="none"></path></g><g transform="translate(394.80224071560224 47) rotate(0 292 23)"><text x="292" y="32" font-family="Virgil, Segoe UI Emoji" font-size="36px" fill="#000000" text-anchor="middle" style="white-space: pre;" direction="ltr">Data Collection and Preparation</text></g><g transform="translate(46.661241229103325 153.37008310176316) rotate(0 174 12.5)"><text x="0" y="18" font-family="Virgil, Segoe UI Emoji" font-size="20px" fill="#000000" text-anchor="start" style="white-space: pre;" direction="ltr">illustrated-machine-learning.github.io</text></g><g transform="translate(600.5530288922564 165.04847911032994) rotate(0 49 12.5)"><text x="0" y="18" font-family="Virgil, Segoe UI Emoji" font-size="20px" fill="#a61e4d" text-anchor="start" style="white-space: pre;" direction="ltr">Disclaimer</text></g><g stroke-linecap="round"><g transform="translate(736.7660483381733 158.33297968494298) rotate(0 0.3271706849336624 15.084402878639594)" fill-rule="evenodd"><path d="M0 0 C0 0, 0 0, 0 0 M0 0 C0 0, 0 0, 0 0 M-13.41 20.8 C-8.46 15.06, -5.27 12.38, 3.24 3.17 M-12.61 20.61 C-7.17 14.33, -1.78 7.82, 2.86 3.65 M-15.18 30.7 C-7.31 20.94, 1.02 14.14, 4.11 6.3 M-14.73 30.25 C-11.85 24.63, -8.04 20.81, 3.5 8.45 M-11.14 31.11 C-5.74 23.96, -0.21 19.68, 4.47 12.57 M-10.62 30.33 C-6.79 25.48, -0.69 19.37, 7.02 11.85 M-4.16 31.89 C-1.41 25.46, -0.65 25.08, 9.65 15.83 M-4.07 29.6 C-0.31 25.67, 2.66 21.21, 9.23 13.29 M0.24 31.52 C3.3 26.89, 7.94 22.39, 11.92 17.96 M0.09 31.07 C4.03 25.79, 7.95 22.04, 10.21 18.39 M6.24 30.26 C7.91 27.41, 7.95 27.03, 13.92 21.67 M5.84 29.73 C7.6 26.94, 10.59 24.33, 13.32 21.29 M9.99 30.24 C11.91 28.5, 13.72 26.27, 14.79 25.85 M10.75 30.28 C12.18 29.04, 13.44 27.4, 15.35 25.27 M16.17 29.86 C16.8 29.73, 17.25 28.98, 17.45 28.52 M16.32 30.07 C16.62 29.6, 16.89 29.33, 17.59 28.58 M-17.22 28.96 C-17.22 28.96, -17.22 28.96, -17.22 28.96 M-17.22 28.96 C-17.22 28.96, -17.22 28.96, -17.22 28.96 M-11.29 28.48 C-12.26 27.56, -14 26.31, -15.52 24.89 M-11.61 28.32 C-12.97 27.38, -14.45 26.07, -15.13 25.52 M-5.43 28.65 C-7.08 27.12, -9.69 24.93, -12.65 20.78 M-5.04 29.14 C-7.79 26.45, -11.1 24.07, -13.08 21.53 M1.35 29.44 C-1.96 26.86, -7.2 23.11, -12.41 18.22 M1.65 28.81 C-2.38 26.44, -4.73 24.08, -11.2 17.95 M6.33 29.24 C1.5 25.31, -3.85 18.21, -10.08 14.89 M6.8 28.92 C3.67 25.83, -0.32 22.1, -8.22 15.07 M14.53 27.49 C9.18 24.02, -0.03 18.25, -5.31 12.86 M13.14 29.35 C7.45 23.05, -0.95 17.27, -7.48 11.54 M19.34 28.23 C12.12 21.67, 5.31 19.11, -3.66 9.43 M17.89 28.56 C11.56 22.9, 4 16.89, -5.26 8.11 M10.95 15.88 C9.77 15.71, 5.18 11.49, -3.68 6.35 M12.31 17.22 C6.85 13.54, 0.72 7.57, -2.6 4.6 M4.55 5.91 C3.05 4.96, 1.9 4.16, -0.68 1.15 M4.21 5.17 C3.19 3.93, 1.61 2.75, -0.85 0.57" stroke="#fab005" stroke-width="0.5" fill="none"></path><path d="M0.27 -0.61 C-4.64 8.84, -10.19 19.17, -16.62 26.96 M-0.56 -0.51 C-5.51 9.49, -12.76 20.92, -18.26 28.03 M-18.39 28.68 C-6.79 27.52, 2.49 28.52, 19.04 30.78 M-17.64 28.79 C-7.44 29.48, 3.07 29.05, 18.32 28 M16.04 29.22 C13.83 22.42, 6.9 13.94, 0.15 0.43 M18.28 28.88 C11.73 19.58, 5.35 9.09, 0.75 0.73 M0 0 C0 0, 0 0, 0 0 M0 0 C0 0, 0 0, 0 0" stroke="#a61e4d" stroke-width="1" fill="none"></path></g></g><mask></mask><g stroke-linecap="round"><g transform="translate(736.9125639189006 177.00243970965676) rotate(0 -0.2925696686252195 -5.439166783849942)" fill-rule="evenodd"><path d="M-1.38 -0.05 L-3.28 -9.78 L1.4 -9.66 L-1.24 0.87" stroke="none" stroke-width="0" fill="#ffff" fill-rule="evenodd"></path><path d="M-0.35 0.49 C-0.59 -2.34, -0.37 -4.95, -3.86 -10.74 M-0.3 0.26 C-1.36 -4.15, -1.46 -7.93, -3.23 -11.42 M-2.8 -11.07 C-1.49 -11.16, 0.5 -10.8, 3.27 -11.33 M-2.77 -11.4 C-0.65 -11.3, 1.23 -11.01, 2.51 -11.4 M2.95 -10.57 C2.5 -8, 1.08 -3.34, 0.25 0.54 M2.75 -11.11 C2.39 -8.19, 1.35 -4.62, 0.42 -0.17 M0 0 C0 0, 0 0, 0 0 M0 0 C0 0, 0 0, 0 0" stroke="#a61e4d" stroke-width="1" fill="none"></path></g></g><mask></mask><g stroke-linecap="round" transform="translate(733.878944940614 179.69754482687858) rotate(0 2.887103397559258 2.887103397559258)"><path d="M3.55 -0.29 C4.15 -0.6, 4.6 -0.63, 5.13 -0.18 C5.65 0.28, 6.71 1.82, 6.72 2.43 C6.72 3.05, 5.53 2.92, 5.15 3.51 C4.77 4.1, 4.89 5.67, 4.43 5.99 C3.96 6.31, 2.93 5.84, 2.37 5.45 C1.82 5.06, 1.61 4.26, 1.1 3.64 C0.58 3.02, -0.64 2.12, -0.72 1.74 C-0.8 1.36, -0.04 1.75, 0.61 1.36 C1.27 0.97, 2.58 -0.43, 3.2 -0.59 C3.81 -0.76, 4.33 0.38, 4.31 0.37 M3.05 -0.84 C3.81 -1.16, 4.61 -1.31, 5.11 -0.75 C5.61 -0.2, 5.95 1.71, 6.05 2.51 C6.15 3.3, 6.14 3.42, 5.72 4.01 C5.31 4.61, 3.94 5.94, 3.56 6.07 C3.19 6.2, 3.98 4.71, 3.47 4.79 C2.97 4.88, 1.04 6.97, 0.54 6.57 C0.04 6.17, 0.55 3.19, 0.46 2.38 C0.38 1.57, -0.02 2.05, 0.04 1.71 C0.1 1.38, 0.32 0.8, 0.83 0.38 C1.35 -0.03, 2.84 -0.84, 3.14 -0.78" stroke="none" stroke-width="0" fill="#ffff"></path><path d="M3.28 -0.95 C3.9 -1.07, 4.75 0.49, 5.26 0.97 C5.78 1.44, 6.43 1.23, 6.36 1.87 C6.29 2.52, 5.38 4.33, 4.85 4.82 C4.32 5.32, 3.54 4.88, 3.16 4.85 C2.77 4.82, 3.15 4.77, 2.55 4.65 C1.94 4.52, -0.08 4.62, -0.47 4.09 C-0.87 3.57, 0 2.08, 0.17 1.49 C0.34 0.9, -0.07 0.93, 0.53 0.55 C1.14 0.17, 3.23 -0.67, 3.81 -0.78 C4.39 -0.89, 3.96 -0.45, 4.03 -0.11 M2.34 -0.12 C2.68 0.09, 3.62 0.81, 4.17 1.21 C4.72 1.6, 5.16 1.95, 5.62 2.24 C6.08 2.53, 7.29 2.29, 6.92 2.97 C6.56 3.65, 4.18 6.03, 3.43 6.31 C2.68 6.59, 2.88 4.83, 2.42 4.66 C1.97 4.5, 0.94 5.84, 0.68 5.33 C0.43 4.83, 0.81 2.4, 0.91 1.65 C1 0.9, 0.88 0.99, 1.25 0.83 C1.62 0.68, 2.94 1.03, 3.14 0.7 C3.34 0.36, 2.26 -1.13, 2.45 -1.19" stroke="#a61e4d" stroke-width="1" fill="none"></path></g><g stroke-linecap="round" transform="translate(409.9945346562017 203.92841581719404) rotate(0 285.4531842854976 32.76829396888934)"><path d="M16.38 0 M16.38 0 C185 -0.67, 354.19 -0.62, 554.52 0 M16.38 0 C126.78 -0.78, 236.47 -0.38, 554.52 0 M554.52 0 C564.09 -1.53, 572.28 3.58, 570.91 16.38 M554.52 0 C563.52 -0.46, 571.18 3.51, 570.91 16.38 M570.91 16.38 C569.23 24.88, 570.23 34.28, 570.91 49.15 M570.91 16.38 C570.23 29.02, 570.81 41.94, 570.91 49.15 M570.91 49.15 C571.67 59.94, 565.34 67.54, 554.52 65.54 M570.91 49.15 C568.91 59.29, 566.57 66.24, 554.52 65.54 M554.52 65.54 C427.96 66.46, 300.61 66.95, 16.38 65.54 M554.52 65.54 C381.21 65.39, 208.58 65.14, 16.38 65.54 M16.38 65.54 C7.17 65.45, 0.73 61.57, 0 49.15 M16.38 65.54 C7.14 64.87, 1 58.21, 0 49.15 M0 49.15 C-1.57 37.04, 0.79 23.78, 0 16.38 M0 49.15 C-0.98 39.18, -0.59 31.27, 0 16.38 M0 16.38 C-0.75 4.11, 5.59 -0.08, 16.38 0 M0 16.38 C-0.99 3.16, 3.87 -0.05, 16.38 0" stroke="#a61e4d" stroke-width="1" fill="none"></path></g><g transform="translate(434.7250859593951 240.64280779212277) rotate(0 262 10)"><text x="0" y="14" font-family="Virgil, Segoe UI Emoji" font-size="16px" fill="#a61e4d" text-anchor="start" style="white-space: pre;" direction="ltr">Book: Machine Learning Engineering, freely available on his webpage</text></g><g transform="translate(570.4891241190198 214.46353450134484) rotate(0 120 10)"><text x="0" y="14" font-family="Virgil, Segoe UI Emoji" font-size="16px" fill="#a61e4d" text-anchor="start" style="white-space: pre;" direction="ltr">Full credits: Dr. Andriy Burkov</text></g></svg>