<svg version="1.1" xmlns="http://www.w3.org/2000/svg" viewBox="0 0 1374.9723275974138 1525.6058306916057" width="4124.9169827922415" height="4576.817492074817">
  <!-- svg-source:excalidraw -->
  
  <defs>
    <style class="style-fonts">
      @font-face {
        font-family: "Virgil";
        src: url("https://excalidraw.com/Virgil.woff2");
      }
      @font-face {
        font-family: "Cascadia";
        src: url("https://excalidraw.com/Cascadia.woff2");
      }
    </style>
  </defs>
  <rect x="0" y="0" width="1374.9723275974138" height="1525.6058306916057" fill="#ffffff"></rect><g stroke-linecap="round" transform="translate(10 10) rotate(0 251.5 23)"><path d="M0 0 C0 0, 0 0, 0 0 M0 0 C0 0, 0 0, 0 0 M0.5 6.01 C1.43 4.25, 3.09 1.68, 4.12 0.59 M0 6.86 C1.7 3.81, 2.91 2.12, 4.48 0.97 M-0.73 10.89 C3.95 10.64, 5.01 1.3, 11.99 0.97 M-1.16 13.06 C1.98 7.82, 6.7 4.01, 10.81 0.04 M-0.91 21.19 C2.61 11.04, 11.08 8.76, 15.75 2.09 M1.72 20.42 C4.48 11.91, 9.93 7.09, 16.97 2.08 M-1.42 27.26 C8.4 21.11, 8.89 8.77, 19.5 -2.43 M-0.44 22.21 C5.99 16.75, 10.6 11.45, 21.06 1.08 M1.56 29.58 C4.09 22.75, 13.3 17.17, 28.23 1.3 M-1.73 30.99 C6.73 21.6, 12 15.22, 27.32 0.65 M-1.11 35.3 C12.2 25.65, 13.59 18, 33.03 1.59 M-2.13 36.18 C9.81 27.96, 15.83 19.24, 30.88 0.25 M-2.72 45.24 C9.63 33.96, 20.76 25.39, 37.23 0.42 M-1.28 42.16 C6.35 30.97, 15.31 22.1, 37.1 0.82 M1.62 47.6 C17.16 29.75, 22.4 18.79, 44.64 0.42 M1.37 48.45 C16.19 28.71, 30.69 10.34, 43.26 -1.83 M10.57 45.74 C19.62 33.87, 26.29 26.17, 45.27 3.86 M7.59 47.99 C16.74 34.99, 28.37 21.4, 45.87 0.59 M10.46 50.23 C24.81 34.21, 38.36 15.44, 51.59 -0.32 M11.84 45.71 C25.53 36.65, 33.21 21.83, 54.38 -1.77 M14.03 45.75 C28.83 26.63, 46.48 12.98, 60.32 2.49 M17.44 47.89 C31.33 28.64, 47.71 10.82, 58.46 0.71 M26.23 50.65 C31.71 39.17, 41.86 28.35, 64.62 -0.49 M23.93 48.27 C37.65 31.32, 50.84 16.34, 65.7 -1.46 M24.48 47.93 C38.57 29.68, 58.33 16.88, 71.88 -2.31 M28.78 45.48 C41.44 34.25, 53 19.76, 68.92 0.68 M32.41 48.24 C48.1 29.79, 67.79 11.53, 75.96 2.55 M34.69 48.62 C41.57 37.28, 54.45 24.99, 75.9 -0.02 M36.15 44.9 C52.03 29.09, 66.42 18.37, 82.94 1.34 M39.29 46.66 C52.3 32.7, 62.78 20.09, 80.59 -1.26 M42 44.88 C55.77 29.79, 67.86 18.15, 83.37 -2.08 M42.44 46.02 C55.9 35.3, 67 20.02, 84.91 -1.84 M48.78 47.8 C63.13 35.62, 68.63 19.7, 94 3.84 M47.93 48.03 C56.82 36.29, 68.48 24.7, 90.01 -0.12 M57.5 44.95 C64.13 33.51, 81.04 22.99, 98.08 1.26 M54.75 46.46 C70.55 28.76, 83.59 10.33, 93.95 -0.54 M59.63 46.26 C78.19 27.1, 93.75 11.27, 103.05 -1.94 M58.87 44.98 C76.36 28.15, 91.78 8.2, 99.01 -0.14 M62.88 47.33 C80.85 34.01, 90.62 15.59, 104.83 -1.29 M64.44 46.69 C77.45 29.91, 90.81 16.6, 105.43 0.99 M70.77 49.17 C81.66 34.64, 95.07 21.7, 113.57 3.38 M68.91 48.37 C83.29 32.3, 98.58 14.16, 110.65 1.17 M71.65 45.42 C86.05 36.38, 94.47 20.25, 117.22 3.64 M77.57 46.2 C86.96 31.18, 103.37 15.92, 114.41 -0.61 M83.76 49.65 C96.12 33.16, 106.31 17.1, 118.57 1.69 M82.05 45.56 C92.22 35.28, 102.25 23.02, 121.26 1.05 M86.8 51.08 C101.02 26.87, 119.17 11.97, 124.29 -2.32 M85.45 47.24 C95.91 32.62, 108.32 20.69, 127.13 -0.24 M87.69 45.6 C101.33 36.18, 113.3 17.27, 132.53 1.37 M89.57 48.94 C106.36 27.85, 123.12 13.33, 132.39 -0.49 M100.82 46.72 C111.2 33.69, 116.81 19, 134.64 -0.78 M96.66 46.8 C112.81 31.41, 125.47 13.35, 137.13 0.23 M101.8 44.64 C114.3 30.12, 125.44 20.21, 143.44 -2.69 M100.67 48.87 C115.05 32.85, 128.24 14.05, 142.87 -0.72 M103.7 49.19 C114.52 35.11, 127.09 28.35, 146.99 -3.6 M109.01 48.63 C116.07 36.24, 121.82 26.61, 147.85 0.93 M110.82 48.9 C124.26 37.24, 126.66 26.32, 152.8 2.88 M113.79 46.48 C119.93 37.05, 130.95 29.99, 152.76 1.87 M114.93 45.9 C128.3 35.4, 139.53 27.52, 157.61 3.84 M117.57 47.23 C130.92 32.02, 141.31 17.55, 159.98 0.72 M121.01 47.02 C135.76 30.81, 151.32 21.01, 167.6 1.97 M124.61 45.63 C137.66 28.78, 153.5 11.48, 163.37 -0.49 M127.51 50.72 C141.57 36.03, 157.77 15.62, 168.22 -1.32 M130.64 47.84 C142.03 32.06, 152.24 15.97, 167.47 1.22 M136.11 46.14 C149.4 26.27, 167.65 9.41, 176.34 -3.03 M134.09 48.96 C149.5 30.3, 163.16 15.82, 173.28 -0.79 M139.93 48.04 C152.38 34.15, 164.88 17.86, 178.07 0.55 M137.81 46.47 C148.47 37.14, 159.04 27.38, 181.5 -1.19 M141.35 47.88 C156.18 36.41, 168.81 15.04, 189 0.75 M144.4 45.81 C161.95 28.06, 174.86 13.39, 186.29 -1.28 M148.18 48.74 C157.66 32.61, 169.48 20.9, 191.91 -0.42 M149.89 45.84 C161.84 29.85, 176.39 15.3, 190.51 0.6 M151.47 48.38 C166.35 36.23, 178.1 27.14, 197.07 -3.31 M155 48.33 C167.05 34.48, 178 22.56, 195.48 -1.48 M161.75 50.19 C176.59 33.32, 188.97 15.52, 203.97 -3.59 M158.94 47.47 C174.92 28.7, 189.22 14.15, 200.21 0.47 M162.73 46.26 C174.81 32, 190.04 23.25, 205.55 2.69 M166.58 47.38 C177.61 30.99, 192.94 17.14, 207.16 -2.14 M171.63 44.29 C189.22 31.99, 203.91 10.08, 214 2.17 M170.27 47.6 C181.55 34, 189.23 24.4, 213.52 -0.96 M176.87 50.67 C184.62 33.39, 201.36 16.37, 216.94 -0.88 M177.07 48.58 C189.62 31.16, 199.84 18.59, 216.91 -1.25 M182.33 49.42 C197.97 25.28, 211.9 9.63, 219.23 -1.51 M182.47 45.21 C195.31 29.57, 209.59 14.19, 222.64 -0.32 M185.12 49.24 C195.32 36.42, 207.86 26.84, 231.21 0.86 M185.67 48.3 C198.13 34.55, 212.16 20.79, 229.52 -2.08 M195.16 47.21 C203.46 33.17, 219.36 16.7, 230.42 1.5 M190.67 46.83 C207.33 30.67, 222.32 13.87, 233.02 0.51 M200.22 48.09 C213.89 27.03, 231.62 11.28, 237.22 2.06 M196.81 45.67 C209.71 32.42, 219.81 18.05, 238.42 -0.37 M202.95 43.55 C208.64 41.26, 220.87 29.36, 247.8 -2.15 M201.28 47.42 C214.22 35.58, 221.88 21.86, 243.34 -1.6 M208.43 47.87 C221.27 35.08, 230.81 21.76, 247.26 -2.91 M208.2 46.55 C215.35 39.19, 223.18 26.04, 248.24 0.61 M210.01 49.05 C225.62 35.7, 239.78 16.88, 253.12 0.65 M211.93 47 C221.74 38.09, 230.32 24.69, 253.54 0.97 M217.48 43.7 C231.23 36.77, 239.28 23.45, 261.17 1.08 M218.77 47.57 C226.17 35.04, 235.99 27.03, 258.88 -1.38 M226.85 44.12 C237.13 36.05, 247.56 15.8, 265.62 1.55 M222.21 47.55 C238.12 30.72, 249.36 14.86, 264.82 -1.4 M232.61 49.22 C238.06 38.29, 249.55 21.81, 268.94 -1.08 M228.71 48.1 C243.24 33.82, 251.39 21.07, 268.15 1.4 M237.46 43.62 C249.2 30.81, 266.13 9.59, 278.04 2.67 M232.92 45.82 C243.06 39.91, 249.06 28.77, 275.62 0.4 M240.57 48.56 C252.97 32.51, 265.83 19.38, 282.06 1.98 M239.46 46.25 C251.89 31.58, 264.23 17.32, 279.14 -0.56 M247.34 48.95 C255.54 32.75, 266.87 23.55, 288.61 0.65 M246.14 49.32 C253.28 37.01, 263.01 28.66, 285.62 -1.75 M249.6 44.35 C263.35 33.11, 270.69 24.63, 293.53 0.16 M249.72 46.9 C265.29 32.28, 278.86 14.41, 292.15 2 M259.46 47.99 C269.9 33.25, 284.82 12.56, 293.1 2.63 M257.18 48.28 C267.24 37.25, 275.38 26.66, 295.78 -1.23 M257.44 49.73 C273.65 31.1, 290.7 16.38, 301.84 1.84 M259.43 45.67 C275.28 32.63, 287.69 18.63, 300.75 1.07 M266.33 47.11 C277.18 30.22, 287.46 22.66, 308.73 2.23 M266.6 47.71 C281.56 32.29, 294.21 12.79, 308.27 -0.68 M275.34 48.32 C286.66 27.18, 304.88 16.27, 310.98 1.9 M273.78 44.94 C285.3 29.22, 300.35 13.77, 311.75 -0.61 M273.93 47.21 C290.06 35.41, 297.41 18.18, 318.25 3.59 M276.23 47.34 C290.64 32.19, 302.48 19.92, 318.55 0.04 M280.02 50.27 C289.8 36.94, 303.46 25.94, 322.44 -2.29 M283.2 45.81 C293.04 34.23, 306.05 19.42, 325.23 -1.54 M285.76 43.66 C296.94 33.6, 307.07 24.55, 325.9 -2.67 M289.13 45.68 C305.66 30.08, 322.15 10.47, 327.31 -0.22 M293.75 44.2 C305.26 32.48, 314.23 21.86, 335.21 -2.83 M291.4 48.17 C304.7 31.28, 320.23 18.86, 334.5 -1.47 M294.82 50.35 C311.6 28.06, 321.06 17.19, 341.42 0.6 M297.61 47.97 C311.28 33.17, 321.27 20.42, 340.48 0.18 M303.6 46 C315.44 34.37, 319.47 29.97, 345.8 2.66 M302.66 47.39 C317.69 30.4, 331.08 13.79, 346.12 -1.4 M307.58 43.66 C323.71 33.98, 337.71 15.77, 347.41 1.78 M307.25 46.2 C322.66 31.51, 340.63 9.83, 348.6 2.35 M312.13 47.79 C322.43 35.14, 331.39 28.42, 356.18 3.06 M312.47 47.33 C326.84 37.69, 336.94 25.8, 355.91 0.4 M320.06 50.48 C334.44 26.37, 354.38 10.55, 357.91 -2.5 M320.85 47.13 C335.24 27.41, 350.69 9.64, 361.42 -0.09 M325.42 46.47 C334.07 31.29, 347.04 19.76, 365.85 -2.25 M323.63 48.87 C334.39 37.42, 342.11 29.81, 364.94 0.44 M333.73 44.18 C342.74 34.14, 351.75 22.26, 374.5 -2.87 M330.49 48.24 C346.18 28.88, 360.81 9.28, 371.99 -0.51 M331.72 48.67 C346.67 35.16, 361.79 22.61, 379.81 -3.39 M336.83 46.87 C348.68 32.51, 366.24 14.67, 375.53 -2.04 M339.59 48.65 C348.82 37.77, 354.94 23.99, 380.94 3.82 M341.48 45.79 C357.05 32.23, 370.43 13.21, 383.24 1.7 M348.76 47.51 C355.53 34.22, 364.9 26.27, 384.54 -3.96 M346 46.97 C359.99 31.86, 375.78 17.13, 387.24 -1.04 M350.13 50.27 C361.08 36.8, 375.41 16.97, 390.47 -0.8 M352.39 46.77 C359.27 35.99, 370.31 27.01, 391.36 1.92 M359.8 46.63 C364.67 37.32, 372.9 30.42, 396.04 2.9 M354.35 45.52 C371.18 30.07, 387.98 10.14, 396.88 0.18 M359.35 45.93 C378.71 29.94, 393.93 14.76, 405.82 -0.6 M363.03 48.93 C374.7 30.89, 387.33 16.67, 401.79 -1.73 M369.57 44.17 C384.85 31.63, 395.66 10.08, 411.8 2.59 M366.3 45.66 C376.56 34.98, 388.42 21.85, 406.53 1.12 M374.73 43 C383.49 37.08, 392.27 26.48, 411.24 -0.95 M374.47 48.76 C387.27 29.41, 403.68 11.6, 413.23 -0.38 M380.31 48.75 C398.55 31.83, 408.53 9.36, 418.82 -1.02 M379.56 49.24 C385.68 38.51, 392.16 26.94, 419.5 0.03 M385.27 43.38 C393.99 33.09, 407.96 17.25, 420.47 3.28 M385.03 45.51 C390.52 35.76, 400.61 23.82, 425.62 1.58 M391.77 47.52 C405.82 30.97, 415.59 12.76, 425.58 -1.53 M389.06 48.9 C397.33 36.32, 408.61 24.32, 428.35 -2.1 M393.46 43.44 C407.25 32.63, 418.97 10.47, 436.75 3.74 M394.28 45.18 C407.07 31.74, 418.42 20.46, 436.15 -1.46 M401.19 46.09 C411.21 32.4, 427.96 12.07, 438.07 1.93 M399 48.01 C414.66 31.96, 428.99 11.75, 438.91 -1.52 M407.3 50.06 C416.83 30.39, 434.49 13.34, 444.83 2.54 M403.02 48.5 C414.7 33.9, 421.51 23.75, 443.25 -0.39 M411.32 44.61 C419.4 31.85, 434.97 23.54, 451.79 -3.26 M410.81 48.68 C418.62 35.76, 427.46 26.26, 450.24 0.26 M416.27 48.63 C429.15 29.8, 447.1 6.8, 458.95 -3.67 M413.33 46.99 C430.14 30.78, 447.22 9.42, 454.63 0.67 M422.38 45.71 C434.4 32.37, 452.37 16.72, 459.74 -3.21 M419.2 47.79 C431.21 33.58, 441.71 21.32, 462.65 0.49 M422.71 43.79 C436.57 33.58, 453.95 17.31, 466.84 0.24 M423.86 47.63 C434.95 34.22, 446.83 20.59, 467.22 0.33 M432.13 46.52 C449.92 27.85, 463.18 9.86, 467.74 3.21 M432.09 48.96 C443.32 32.59, 454.75 19.47, 473.06 -0.07 M436.42 48.41 C453.78 29.5, 460.55 12.84, 477.76 -0.1 M436.5 45.91 C450.98 29.02, 465.5 14.14, 475.21 -0.04 M443.81 46.67 C453.47 33.03, 463.81 20.68, 481.1 1.39 M442.68 46.55 C457.13 30.55, 471.35 17.17, 481.59 -0.2 M446.75 48.13 C456.32 35.82, 468.12 22.95, 490.44 -0.57 M444.41 46.35 C460.43 32.03, 474.27 17.43, 486.05 -0.3 M450.16 48.29 C468.22 30.69, 480.28 7.55, 492.67 -2.55 M453.42 45.69 C466.16 32.6, 476.37 19.19, 491.66 -1.64 M457.19 46.33 C469.06 34.44, 473.8 28.68, 501.13 -2.51 M458.65 47.42 C474.02 29.89, 490.39 11.92, 496.43 -1.6 M465.43 48.03 C478.34 25.75, 493.95 7.84, 501.42 -0.72 M463.99 46.26 C476.37 31.24, 492.98 13.71, 504.58 -0.14 M468.71 48.89 C481.78 33.82, 488.26 20.9, 505.66 9.98 M467.53 46.38 C478.65 33.02, 490.44 21.51, 502.38 8.48 M469.34 45.01 C485.12 35.95, 494.66 23.29, 501.35 13.33 M471.33 46.87 C479.21 40.68, 484.84 30.82, 504.42 11.36 M479.83 48.19 C487.42 39.15, 490.91 32.38, 504.59 15.04 M476.63 47.23 C489.57 35.88, 495.17 28.05, 504.41 16.8 M487.16 48.86 C494.09 35.16, 500.31 33.58, 504.96 24.43 M485.64 48.89 C489.72 39.81, 495.3 32.28, 505.49 22.54 M486.53 47.13 C492.06 45.85, 499.57 41.1, 507.26 29.51 M488.77 48.71 C490.72 44.68, 493.4 39.64, 503.54 29.21 M493.92 47.45 C496.95 46.18, 501.94 42.45, 503.06 39.44 M494.41 47.92 C497.64 45.1, 499.99 41.18, 503.8 38.11 M499.13 48.43 C501.75 46.55, 502.48 45.74, 502.37 43.75 M499.64 47.6 C500.8 45.49, 501.9 44.46, 502.84 43.01" stroke="#228be6" stroke-width="0.5" fill="none"></path><path d="M-0.8 -0.31 C129.97 -2.67, 260.27 -3.94, 502.7 0.12 M0.27 -0.26 C141.56 -1.41, 284.04 -1.08, 503.21 0.32 M503.82 3.46 C502.73 11.45, 507.04 27.97, 502.38 43.29 M502.43 -1.03 C504.5 12.05, 501.8 25.27, 504.85 46.89 M501.4 45.29 C302.36 49.44, 101.43 48.94, 0.08 45.78 M502.7 46.5 C332.25 44.59, 161.84 44.34, -0.64 45.86 M2.84 45.81 C2.87 29.26, -0.29 16.1, 3.58 -1.96 M-0.75 47.95 C-0.18 32.1, 0.21 18.37, 0.18 -0.86" stroke="#000000" stroke-width="1" fill="none"></path></g><g transform="translate(47 15) rotate(0 214.5 18)"><text x="214.5" y="25" font-family="Virgil, Segoe UI Emoji" font-size="28px" fill="#000000" text-anchor="middle" style="white-space: pre;" direction="ltr">Dealing with Missing Attributes</text></g><g stroke-linecap="round" transform="translate(12.320801324200147 56.336427607218866) rotate(0 676.3257631366068 729.6347015421934)"><path d="M0.25 0.23 C504.43 1.07, 1006.88 2.22, 1352.38 1.19 M1351.24 -1.13 C1355.62 467.87, 1357 937.3, 1353.19 1460.75 M1352.2 1457.71 C873.36 1467.55, 391.27 1467.55, -0.62 1460.31 M0.72 1459.29 C1.9 958.45, 4.83 456.41, 1.59 0.87" stroke="#000000" stroke-width="1.5" fill="none" stroke-dasharray="8 9"></path></g><g transform="translate(112.61161703580183 158.35911429143744) rotate(0 170.5 25)"><text x="170.5" y="18" font-family="Virgil, Segoe UI Emoji" font-size="20px" fill="#1864ab" text-anchor="middle" style="white-space: pre;" direction="ltr">Removing the examples with missing</text><text x="170.5" y="43" font-family="Virgil, Segoe UI Emoji" font-size="20px" fill="#1864ab" text-anchor="middle" style="white-space: pre;" direction="ltr">attributes from the dataset</text></g><g transform="translate(51.007961463577885 98.14512470752015) rotate(0 426.5 12.5)"><text x="0" y="18" font-family="Virgil, Segoe UI Emoji" font-size="20px" fill="#000000" text-anchor="start" style="white-space: pre;" direction="ltr">The list of typical approaches of dealing with missing values for an attribute include:</text></g><g transform="translate(947.0684450178687 172.8179924123815) rotate(0 175 25)"><text x="175" y="18" font-family="Virgil, Segoe UI Emoji" font-size="20px" fill="#1864ab" text-anchor="middle" style="white-space: pre;" direction="ltr">Using a learning algorithm that can</text><text x="175" y="43" font-family="Virgil, Segoe UI Emoji" font-size="20px" fill="#1864ab" text-anchor="middle" style="white-space: pre;" direction="ltr">deal with missing attribute values</text></g><g transform="translate(575.9344742639023 179.81777865112417) rotate(0 109 25)"><text x="109" y="18" font-family="Virgil, Segoe UI Emoji" font-size="20px" fill="#1864ab" text-anchor="middle" style="white-space: pre;" direction="ltr">Using data imputation</text><text x="109" y="43" font-family="Virgil, Segoe UI Emoji" font-size="20px" fill="#1864ab" text-anchor="middle" style="white-space: pre;" direction="ltr">techniques</text></g><g stroke-linecap="round"><g transform="translate(275.74023641863823 253.60174654003276) rotate(0 0.037805478184054664 -14.033786944948588)"><path d="M0.72 0.47 C0.59 -3.84, 0.14 -22.3, 0.12 -26.88 M-0.35 -0.33 C-0.69 -4.88, -0.7 -23.76, -0.58 -28.54" stroke="#e67700" stroke-width="2" fill="none"></path></g><g transform="translate(275.74023641863823 253.60174654003276) rotate(0 0.037805478184054664 -14.033786944948588)"><path d="M4.59 -14.92 C3.44 -19.27, 1.53 -24.53, 0.49 -28.86 M3.45 -15.27 C1.9 -20.02, 0.37 -25.82, -0.6 -28.68" stroke="#e67700" stroke-width="2" fill="none"></path></g><g transform="translate(275.74023641863823 253.60174654003276) rotate(0 0.037805478184054664 -14.033786944948588)"><path d="M-4.9 -15 C-2.48 -19.38, -0.81 -24.61, 0.49 -28.86 M-6.05 -15.36 C-3.83 -20.14, -1.6 -25.91, -0.6 -28.68" stroke="#e67700" stroke-width="2" fill="none"></path></g></g><mask></mask><g transform="translate(166.83042581337213 274.241013845849) rotate(0 109 25)"><text x="109" y="18" font-family="Virgil, Segoe UI Emoji" font-size="20px" fill="#000000" text-anchor="middle" style="white-space: pre;" direction="ltr">N.B. the dataset has</text><text x="109" y="43" font-family="Virgil, Segoe UI Emoji" font-size="20px" fill="#000000" text-anchor="middle" style="white-space: pre;" direction="ltr">to be big enough</text></g><g stroke-linecap="round"><g transform="translate(1117.874020084786 278.24513244878835) rotate(0 -0.39273190753283416 -13.102633643128684)"><path d="M-1.16 -0.81 C-1.39 -5.3, -0.34 -23.01, -0.3 -27.59 M0.44 1.38 C-0.05 -2.83, -0.83 -21.2, -1.22 -25.96" stroke="#e67700" stroke-width="2" fill="none"></path></g><g transform="translate(1117.874020084786 278.24513244878835) rotate(0 -0.39273190753283416 -13.102633643128684)"><path d="M3.38 -13.18 C2.42 -18.89, -0.52 -24.27, 0.09 -26.43 M4.83 -13.82 C1.75 -17.25, 1.15 -22.21, -1.43 -25.31" stroke="#e67700" stroke-width="2" fill="none"></path></g><g transform="translate(1117.874020084786 278.24513244878835) rotate(0 -0.39273190753283416 -13.102633643128684)"><path d="M-6.1 -12.6 C-3.34 -18.44, -2.56 -24.05, 0.09 -26.43 M-4.65 -13.24 C-4.6 -16.85, -2.07 -22, -1.43 -25.31" stroke="#e67700" stroke-width="2" fill="none"></path></g></g><mask></mask><g transform="translate(1027.4077622628174 298.8843997546064) rotate(0 91.5 12.5)"><text x="91.5" y="18" font-family="Virgil, Segoe UI Emoji" font-size="20px" fill="#000000" text-anchor="middle" style="white-space: pre;" direction="ltr">I.e., Decision Tree</text></g><g transform="translate(529.0624706003764 350.50828662382264) rotate(0 155 62.5)"><text x="155" y="18" font-family="Virgil, Segoe UI Emoji" font-size="20px" fill="#000000" text-anchor="middle" style="white-space: pre;" direction="ltr">The most common technique</text><text x="155" y="43" font-family="Virgil, Segoe UI Emoji" font-size="20px" fill="#000000" text-anchor="middle" style="white-space: pre;" direction="ltr">consists in replacing the missing</text><text x="155" y="68" font-family="Virgil, Segoe UI Emoji" font-size="20px" fill="#000000" text-anchor="middle" style="white-space: pre;" direction="ltr">value with the average of</text><text x="155" y="93" font-family="Virgil, Segoe UI Emoji" font-size="20px" fill="#000000" text-anchor="middle" style="white-space: pre;" direction="ltr">this attribute in the rest</text><text x="155" y="118" font-family="Virgil, Segoe UI Emoji" font-size="20px" fill="#000000" text-anchor="middle" style="white-space: pre;" direction="ltr">of the dataset</text></g><g stroke-linecap="round" transform="translate(374.4560719740857 525.139870681207) rotate(0 219.88508835095672 112.83398539873906)"><path d="M0.1 -0.9 C176.76 0.81, 352.48 0.71, 439.8 -0.55 M0.26 0.18 C106.2 2, 212.13 1.54, 439.34 0.36 M438.61 -1.53 C440.17 66.83, 438.88 134.92, 439.53 224.65 M439.5 0.11 C441.17 86.34, 440.34 173.16, 439.81 225.28 M439.34 226.41 C281.9 224.71, 125.8 224.9, -0.25 225.73 M439.59 225.59 C265.76 225.39, 91.75 225.17, 0 226.05 M0.34 227.27 C-1.52 139.6, 0.09 49.6, 0.77 0.58 M0.49 225.14 C-0.86 176.46, -1.17 127.23, 0.75 -0.69" stroke="#000000" stroke-width="2" fill="none"></path></g><g stroke-linecap="round"><g transform="translate(374.4560719740857 570.7887730515758) rotate(0 219.63692449918562 0.0009692134572105715)"><path d="M-0.9 0.9 C92.34 0.55, 184.5 -0.18, 439.26 -0.59 M0.18 0.31 C94.17 -0.8, 187.75 -1.59, 440.17 0.01" stroke="#000000" stroke-width="2" fill="none"></path></g></g><mask></mask><g transform="translate(391.6975277240581 537.6778710730396) rotate(0 19.5 12.5)"><text x="0" y="18" font-family="Virgil, Segoe UI Emoji" font-size="20px" fill="#000000" text-anchor="start" style="white-space: pre;" direction="ltr">Row</text></g><g transform="translate(541.5325292454072 536.8253742907928) rotate(0 31.5 12.5)"><text x="0" y="18" font-family="Virgil, Segoe UI Emoji" font-size="20px" fill="#000000" text-anchor="start" style="white-space: pre;" direction="ltr">Weight</text></g><g transform="translate(732.156170652428 538.7945450600073) rotate(0 32 12.5)"><text x="0" y="18" font-family="Virgil, Segoe UI Emoji" font-size="20px" fill="#e67700" text-anchor="start" style="white-space: pre;" direction="ltr">Salary</text></g><g transform="translate(406.6025875866999 584.4570231050438) rotate(0 3.5 12.5)"><text x="0" y="18" font-family="Virgil, Segoe UI Emoji" font-size="20px" fill="#000000" text-anchor="start" style="white-space: pre;" direction="ltr">1</text></g><g transform="translate(403.2846386739784 611.0556067851248) rotate(0 8 12.5)"><text x="0" y="18" font-family="Virgil, Segoe UI Emoji" font-size="20px" fill="#000000" text-anchor="start" style="white-space: pre;" direction="ltr">2</text></g><g transform="translate(406.21389761349565 674.1664130014851) rotate(0 7.5 12.5)"><text x="0" y="18" font-family="Virgil, Segoe UI Emoji" font-size="20px" fill="#000000" text-anchor="start" style="white-space: pre;" direction="ltr">4</text></g><g transform="translate(405.9322986733023 643.4116955598693) rotate(0 8 12.5)"><text x="0" y="18" font-family="Virgil, Segoe UI Emoji" font-size="20px" fill="#000000" text-anchor="start" style="white-space: pre;" direction="ltr">3</text></g><g stroke-linecap="round"><g transform="translate(452.058585434057 527.8505280027257) rotate(0 -0.7045776032991853 109.80518784318792)"><path d="M-1.31 -0.25 C-2.45 87.85, -0.84 171.64, -0.56 219.44 M0.3 0.04 C-0.59 85.63, -0.95 169.91, -0.37 219.86" stroke="#000000" stroke-width="1" fill="none"></path></g></g><mask></mask><g transform="translate(406.65002326901777 704.5308491182568) rotate(0 7 12.5)"><text x="0" y="18" font-family="Virgil, Segoe UI Emoji" font-size="20px" fill="#000000" text-anchor="start" style="white-space: pre;" direction="ltr">5</text></g><g transform="translate(465.65050499344034 535.9304117983338) rotate(0 18 12.5)"><text x="0" y="18" font-family="Virgil, Segoe UI Emoji" font-size="20px" fill="#000000" text-anchor="start" style="white-space: pre;" direction="ltr">Age</text></g><g transform="translate(476.4187675181547 586.5800634483967) rotate(0 11.5 12.5)"><text x="0" y="18" font-family="Virgil, Segoe UI Emoji" font-size="20px" fill="#000000" text-anchor="start" style="white-space: pre;" direction="ltr">18</text></g><g transform="translate(473.10081860543323 613.1786471284795) rotate(0 14 12.5)"><text x="0" y="18" font-family="Virgil, Segoe UI Emoji" font-size="20px" fill="#000000" text-anchor="start" style="white-space: pre;" direction="ltr">43</text></g><g transform="translate(476.03007754494865 676.2894533448416) rotate(0 11 12.5)"><text x="0" y="18" font-family="Virgil, Segoe UI Emoji" font-size="20px" fill="#000000" text-anchor="start" style="white-space: pre;" direction="ltr">21</text></g><g transform="translate(475.7484786047553 645.5347359032239) rotate(0 14 12.5)"><text x="0" y="18" font-family="Virgil, Segoe UI Emoji" font-size="20px" fill="#000000" text-anchor="start" style="white-space: pre;" direction="ltr">34</text></g><g transform="translate(474.51947504144664 706.4105484417305) rotate(0 13.5 12.5)"><text x="0" y="18" font-family="Virgil, Segoe UI Emoji" font-size="20px" fill="#000000" text-anchor="start" style="white-space: pre;" direction="ltr">65</text></g><g stroke-linecap="round"><g transform="translate(522.7148161580171 530.4951872335205) rotate(0 0.40323003802222956 109.70301032237694)"><path d="M-0.38 -1.1 C-1.54 74.11, 1.51 148.72, 1.45 220.5 M-0.07 0.27 C0.23 77.09, 0.41 155.04, -0.64 219.17" stroke="#000000" stroke-width="1" fill="none"></path></g></g><mask></mask><g transform="translate(558.7731148635885 588.7573642095831) rotate(0 13.5 12.5)"><text x="0" y="18" font-family="Virgil, Segoe UI Emoji" font-size="20px" fill="#000000" text-anchor="start" style="white-space: pre;" direction="ltr">70</text></g><g transform="translate(555.455165950867 615.3559478896659) rotate(0 13.5 12.5)"><text x="0" y="18" font-family="Virgil, Segoe UI Emoji" font-size="20px" fill="#000000" text-anchor="start" style="white-space: pre;" direction="ltr">65</text></g><g transform="translate(558.3844248903788 678.466754106028) rotate(0 14 12.5)"><text x="0" y="18" font-family="Virgil, Segoe UI Emoji" font-size="20px" fill="#000000" text-anchor="start" style="white-space: pre;" direction="ltr">66</text></g><g transform="translate(556.1560977911613 647.7120366644103) rotate(0 14 12.5)"><text x="0" y="18" font-family="Virgil, Segoe UI Emoji" font-size="20px" fill="#000000" text-anchor="start" style="white-space: pre;" direction="ltr">87</text></g><g transform="translate(556.8738223868804 708.5878492029169) rotate(0 14.5 12.5)"><text x="0" y="18" font-family="Virgil, Segoe UI Emoji" font-size="20px" fill="#000000" text-anchor="start" style="white-space: pre;" direction="ltr">60</text></g><g stroke-linecap="round"><g transform="translate(621.3446872867135 531.7957044937339) rotate(0 -0.23000956288160523 109.62055350605715)"><path d="M-0.4 -0.7 C-0.66 65.79, 1.42 130.83, -0.64 219.94 M0.6 -0.38 C-1.33 67.57, -1.2 134.47, -0.86 219.94" stroke="#000000" stroke-width="1" fill="none"></path></g></g><mask></mask><g transform="translate(637.9652413976328 538.7214104062004) rotate(0 30 12.5)"><text x="0" y="18" font-family="Virgil, Segoe UI Emoji" font-size="20px" fill="#000000" text-anchor="start" style="white-space: pre;" direction="ltr">Height</text></g><g transform="translate(651.8878781030944 617.2519840050736) rotate(0 15.5 12.5)"><text x="0" y="18" font-family="Virgil, Segoe UI Emoji" font-size="20px" fill="#000000" text-anchor="start" style="white-space: pre;" direction="ltr">175</text></g><g transform="translate(652.5888099433905 649.608072779818) rotate(0 16.5 12.5)"><text x="0" y="18" font-family="Virgil, Segoe UI Emoji" font-size="20px" fill="#000000" text-anchor="start" style="white-space: pre;" direction="ltr">187</text></g><g transform="translate(653.3065345391078 712.6326324372494) rotate(0 16 12.5)"><text x="0" y="18" font-family="Virgil, Segoe UI Emoji" font-size="20px" fill="#000000" text-anchor="start" style="white-space: pre;" direction="ltr">169</text></g><g stroke-linecap="round"><g transform="translate(717.777399438939 533.6917406091452) rotate(0 -0.3197581188469485 109.67972429789461)"><path d="M-1.07 -0.67 C-1.75 72.6, 0.52 144.25, -1.35 217.51 M0.09 0.42 C1.13 44.89, 0.85 90.35, -0.61 220.03" stroke="#000000" stroke-width="1" fill="none"></path></g></g><mask></mask><g transform="translate(731.1840551870246 586.3744587507772) rotate(0 37 12.5)"><text x="0" y="18" font-family="Virgil, Segoe UI Emoji" font-size="20px" fill="#000000" text-anchor="start" style="white-space: pre;" direction="ltr">35,000</text></g><g transform="translate(730.3821605930407 614.1805648502559) rotate(0 37 12.5)"><text x="0" y="18" font-family="Virgil, Segoe UI Emoji" font-size="20px" fill="#000000" text-anchor="start" style="white-space: pre;" direction="ltr">26,900</text></g><g transform="translate(730.147986274138 678.0030287662612) rotate(0 37.5 12.5)"><text x="0" y="18" font-family="Virgil, Segoe UI Emoji" font-size="20px" fill="#000000" text-anchor="start" style="white-space: pre;" direction="ltr">94,800</text></g><g transform="translate(731.0830924333331 646.5366536250003) rotate(0 35.5 12.5)"><text x="0" y="18" font-family="Virgil, Segoe UI Emoji" font-size="20px" fill="#000000" text-anchor="start" style="white-space: pre;" direction="ltr">76,500</text></g><g transform="translate(731.8008170290541 707.4124661635069) rotate(0 33 12.5)"><text x="0" y="18" font-family="Virgil, Segoe UI Emoji" font-size="20px" fill="#000000" text-anchor="start" style="white-space: pre;" direction="ltr">19,000</text></g><g stroke-linecap="round" transform="translate(639.6725086757542 579.9426194669577) rotate(0 27.63068410615233 15.952610822005227)"><path d="M7.98 0 M7.98 0 C20.07 -1.66, 36.11 0.86, 47.29 0 M7.98 0 C17.22 0.84, 27.55 -0.75, 47.29 0 M47.29 0 C54.06 0.47, 54.63 2.14, 55.26 7.98 M47.29 0 C54.86 -0.18, 57.19 4.16, 55.26 7.98 M55.26 7.98 C54.48 13.54, 54.99 15.9, 55.26 23.93 M55.26 7.98 C54.7 14.49, 55.51 18.7, 55.26 23.93 M55.26 23.93 C54.66 29.43, 52.09 31.23, 47.29 31.91 M55.26 23.93 C54.46 29.83, 51.09 32.31, 47.29 31.91 M47.29 31.91 C34.59 30.86, 18.34 30, 7.98 31.91 M47.29 31.91 C35.29 31.48, 23.44 31.19, 7.98 31.91 M7.98 31.91 C2.13 30.1, -0.73 28.1, 0 23.93 M7.98 31.91 C2.25 30.97, -1.93 27.15, 0 23.93 M0 23.93 C1.14 19.15, 1.27 12.82, 0 7.98 M0 23.93 C-0.43 19.37, 0.02 16.33, 0 7.98 M0 7.98 C1.9 4.23, 2.88 -1.91, 7.98 0 M0 7.98 C1.44 4.26, 1.65 -1.94, 7.98 0" stroke="#000000" stroke-width="2" fill="none"></path></g><g stroke-linecap="round" transform="translate(639.667917335757 676.1610361287403) rotate(0 27.63068410615233 15.952610822005227)"><path d="M7.98 0 M7.98 0 C16.42 0.13, 27.88 1.42, 47.29 0 M7.98 0 C19.91 -0.25, 32.39 -0.41, 47.29 0 M47.29 0 C53.4 -0.23, 54.84 4.64, 55.26 7.98 M47.29 0 C54.55 -0.59, 53.2 3.1, 55.26 7.98 M55.26 7.98 C55.39 12.05, 56.85 16.83, 55.26 23.93 M55.26 7.98 C55.09 10.76, 54.49 14.31, 55.26 23.93 M55.26 23.93 C55.68 29.24, 51.66 32.66, 47.29 31.91 M55.26 23.93 C54.68 28.95, 53.9 32.4, 47.29 31.91 M47.29 31.91 C39.21 30.31, 29.33 33.04, 7.98 31.91 M47.29 31.91 C37.57 32.43, 27.71 31.17, 7.98 31.91 M7.98 31.91 C4.6 31.54, 1.73 28.35, 0 23.93 M7.98 31.91 C4.07 33.66, 1.97 29.56, 0 23.93 M0 23.93 C-1.14 18.71, -1.03 14.5, 0 7.98 M0 23.93 C-0.24 17.59, -0.75 12.03, 0 7.98 M0 7.98 C1.05 2.47, 2.45 -0.58, 7.98 0 M0 7.98 C0.1 2.67, 1.04 -0.78, 7.98 0" stroke="#000000" stroke-width="2" fill="none"></path></g><g transform="translate(653.6558138422315 584.380072718468) rotate(0 14.5 12.5)"><text x="0" y="18" font-family="Virgil, Segoe UI Emoji" font-size="20px" fill="#a61e4d" text-anchor="start" style="white-space: pre;" direction="ltr">177</text></g><g transform="translate(653.7393700816901 681.895542929602) rotate(0 14.5 12.5)"><text x="0" y="18" font-family="Virgil, Segoe UI Emoji" font-size="20px" fill="#a61e4d" text-anchor="start" style="white-space: pre;" direction="ltr">177</text></g><g transform="translate(371.8703410260641 777.6568138365565) rotate(0 127.5 12.5)"><text x="127.5" y="18" font-family="Virgil, Segoe UI Emoji" font-size="20px" fill="#000000" text-anchor="middle" style="white-space: pre;" direction="ltr">(175 + 187 + 169)/3 = 177</text></g><g stroke-linecap="round"><g transform="translate(608.4192573114142 773.6971673698608) rotate(0 14.391999856450639 -88.7063844577433)"><path d="M0.69 -0.56 C1.58 -24.9, 0.27 -115.3, 5.02 -145.07 C9.77 -174.83, 25.23 -173.38, 29.19 -179.17 M-0.41 1.75 C0.88 -22.48, 2.45 -113.73, 7.21 -143.67 C11.97 -173.62, 24.61 -172.01, 28.17 -177.9" stroke="#e67700" stroke-width="2" fill="none"></path></g><g transform="translate(608.4192573114142 773.6971673698608) rotate(0 14.391999856450639 -88.7063844577433)"><path d="M16.76 -161.56 C19.98 -165.71, 23.13 -171.34, 27.02 -177.66 M17.62 -159.84 C19.36 -163.84, 23.14 -169.33, 29.12 -177.14" stroke="#e67700" stroke-width="2" fill="none"></path></g><g transform="translate(608.4192573114142 773.6971673698608) rotate(0 14.391999856450639 -88.7063844577433)"><path d="M7.64 -172.5 C13.44 -173.7, 19.1 -176.33, 27.02 -177.66 M8.5 -170.78 C12.56 -172, 18.66 -174.71, 29.12 -177.14" stroke="#e67700" stroke-width="2" fill="none"></path></g></g><mask></mask><g stroke-linecap="round"><g transform="translate(608.8508432711969 771.8101266308076) rotate(0 13.608698497696423 -45.23995873533204)"><path d="M-0.89 1.05 C-0.34 -13.33, -1.52 -73.17, 3.31 -86.72 C8.14 -100.27, 24.04 -81, 28.11 -80.25 M0.84 0.56 C1.2 -13.63, -2.23 -71.69, 2.19 -85.48 C6.61 -99.26, 23.1 -82.77, 27.36 -82.15" stroke="#e67700" stroke-width="2" fill="none"></path></g><g transform="translate(608.8508432711969 771.8101266308076) rotate(0 13.608698497696423 -45.23995873533204)"><path d="M16.15 -84.46 C18.17 -83.38, 23.34 -83.23, 26.16 -81.84 M15.23 -84.04 C18.43 -83.36, 21.02 -82.92, 26.75 -82.43" stroke="#e67700" stroke-width="2" fill="none"></path></g><g transform="translate(608.8508432711969 771.8101266308076) rotate(0 13.608698497696423 -45.23995873533204)"><path d="M20.28 -91.91 C21.03 -88.63, 24.96 -86.22, 26.16 -81.84 M19.37 -91.5 C21.61 -89, 23.18 -86.74, 26.75 -82.43" stroke="#e67700" stroke-width="2" fill="none"></path></g></g><mask></mask><g stroke-linecap="round"><g transform="translate(705.5237230870189 428.0503388015477) rotate(0 39.625240402046984 -0.0431439585508997)"><path d="M-0.64 -0.12 C12.34 -0.08, 64.58 1.25, 77.66 1.24 M1.22 -1.24 C14.6 -1.6, 66.71 -0.74, 79.89 -0.39" stroke="#e67700" stroke-width="2" fill="none"></path></g></g><mask></mask><g stroke-linecap="round"><g transform="translate(785.3930553431364 472.58241126805297) rotate(0 27.096635780615543 29.363596565093758)"><path d="M-0.11 -0.44 C8.56 3.36, 45.28 13.11, 52.08 23.14 C58.87 33.17, 42.71 53.47, 40.67 59.75 M-1.63 -1.72 C7.4 2.26, 47.35 14.27, 54.29 24.63 C61.23 35, 42.43 54.25, 40.01 60.45" stroke="#000000" stroke-width="2" fill="none"></path></g><g transform="translate(785.3930553431364 472.58241126805297) rotate(0 27.096635780615543 29.363596565093758)"><path d="M43.64 39.51 C42.95 47.32, 39.81 51.9, 39.79 58.85 M45.14 40.44 C42.87 47.04, 41.06 52.34, 40.75 61" stroke="#000000" stroke-width="2" fill="none"></path></g><g transform="translate(785.3930553431364 472.58241126805297) rotate(0 27.096635780615543 29.363596565093758)"><path d="M55.08 46.85 C50.87 52.41, 44.24 54.75, 39.79 58.85 M56.57 47.78 C51.12 52.27, 46.08 55.5, 40.75 61" stroke="#000000" stroke-width="2" fill="none"></path></g></g><mask></mask><g transform="translate(913.6230306670295 413.30003021833) rotate(0 189.5 37.5)"><text x="189.5" y="18" font-family="Virgil, Segoe UI Emoji" font-size="20px" fill="#000000" text-anchor="middle" style="white-space: pre;" direction="ltr">Another technique consists in replacing</text><text x="189.5" y="43" font-family="Virgil, Segoe UI Emoji" font-size="20px" fill="#000000" text-anchor="middle" style="white-space: pre;" direction="ltr">the missing value with a value</text><text x="189.5" y="68" font-family="Virgil, Segoe UI Emoji" font-size="20px" fill="#000000" text-anchor="middle" style="white-space: pre;" direction="ltr">outside the normal range of values</text></g><g stroke-linecap="round" transform="translate(884.2947117720723 586.4550936511678) rotate(0 219.88508835095672 112.83398539873906)"><path d="M0.79 0.38 C113.38 0.68, 228.77 2.54, 440.18 -0.12 M0.38 -0.48 C135.49 1.12, 269.95 1.26, 439.4 -0.39 M438.88 -1.18 C442.63 64.65, 442.65 129.12, 438.96 226.42 M439.87 0.51 C437.96 71.87, 439.34 145.08, 439.31 225.66 M439.57 225.82 C266.2 227.84, 91.73 227.14, -0.27 225.75 M439.62 225.92 C327.48 226.1, 215.09 226.27, -0.39 225.66 M-1.26 225.96 C2.25 172.49, -0.6 121.05, 1.58 -1.63 M-0.83 226.4 C-0.34 166.41, -0.03 106.96, 0.66 -0.72" stroke="#000000" stroke-width="2" fill="none"></path></g><g stroke-linecap="round"><g transform="translate(884.2947117720723 632.1039960215367) rotate(0 219.6064923480244 -0.5650595610431992)"><path d="M0.38 -1 C171.06 -1.73, 344.93 -1.34, 439.7 0.07 M-0.48 0.36 C172.29 -2.01, 344.69 -2.05, 439.42 -0.05" stroke="#000000" stroke-width="2" fill="none"></path></g></g><mask></mask><g transform="translate(901.5361675220447 598.9930940430004) rotate(0 19.5 12.5)"><text x="0" y="18" font-family="Virgil, Segoe UI Emoji" font-size="20px" fill="#000000" text-anchor="start" style="white-space: pre;" direction="ltr">Row</text></g><g transform="translate(1051.3711690433956 598.1405972607554) rotate(0 31.5 12.5)"><text x="0" y="18" font-family="Virgil, Segoe UI Emoji" font-size="20px" fill="#000000" text-anchor="start" style="white-space: pre;" direction="ltr">Weight</text></g><g transform="translate(1241.9948104504183 600.1097680299663) rotate(0 32 12.5)"><text x="0" y="18" font-family="Virgil, Segoe UI Emoji" font-size="20px" fill="#e67700" text-anchor="start" style="white-space: pre;" direction="ltr">Salary</text></g><g transform="translate(916.4412273846865 645.7722460750028) rotate(0 3.5 12.5)"><text x="0" y="18" font-family="Virgil, Segoe UI Emoji" font-size="20px" fill="#000000" text-anchor="start" style="white-space: pre;" direction="ltr">1</text></g><g transform="translate(913.123278471965 672.3708297550857) rotate(0 8 12.5)"><text x="0" y="18" font-family="Virgil, Segoe UI Emoji" font-size="20px" fill="#000000" text-anchor="start" style="white-space: pre;" direction="ltr">2</text></g><g transform="translate(916.0525374114841 735.4816359714478) rotate(0 7.5 12.5)"><text x="0" y="18" font-family="Virgil, Segoe UI Emoji" font-size="20px" fill="#000000" text-anchor="start" style="white-space: pre;" direction="ltr">4</text></g><g transform="translate(915.7709384712907 704.7269185298301) rotate(0 8 12.5)"><text x="0" y="18" font-family="Virgil, Segoe UI Emoji" font-size="20px" fill="#000000" text-anchor="start" style="white-space: pre;" direction="ltr">3</text></g><g stroke-linecap="round"><g transform="translate(961.8972252320455 589.1657509726883) rotate(0 0.2259441906326174 109.48617074372032)"><path d="M1.59 -0.85 C1.11 72.98, 1.02 149.42, -1.14 219.83 M0.74 0.14 C-1.93 49.14, -0.86 99.13, 0.63 218.45" stroke="#000000" stroke-width="1" fill="none"></path></g></g><mask></mask><g transform="translate(916.4886630670044 765.8460720882158) rotate(0 7 12.5)"><text x="0" y="18" font-family="Virgil, Segoe UI Emoji" font-size="20px" fill="#000000" text-anchor="start" style="white-space: pre;" direction="ltr">5</text></g><g transform="translate(975.4891447914306 597.2456347682946) rotate(0 18 12.5)"><text x="0" y="18" font-family="Virgil, Segoe UI Emoji" font-size="20px" fill="#000000" text-anchor="start" style="white-space: pre;" direction="ltr">Age</text></g><g transform="translate(986.2574073161413 647.8952864183575) rotate(0 11.5 12.5)"><text x="0" y="18" font-family="Virgil, Segoe UI Emoji" font-size="20px" fill="#000000" text-anchor="start" style="white-space: pre;" direction="ltr">18</text></g><g transform="translate(982.9394584034198 674.4938700984403) rotate(0 14 12.5)"><text x="0" y="18" font-family="Virgil, Segoe UI Emoji" font-size="20px" fill="#000000" text-anchor="start" style="white-space: pre;" direction="ltr">43</text></g><g transform="translate(985.8687173429389 737.6046763148024) rotate(0 11 12.5)"><text x="0" y="18" font-family="Virgil, Segoe UI Emoji" font-size="20px" fill="#000000" text-anchor="start" style="white-space: pre;" direction="ltr">21</text></g><g transform="translate(985.5871184027455 706.8499588731847) rotate(0 14 12.5)"><text x="0" y="18" font-family="Virgil, Segoe UI Emoji" font-size="20px" fill="#000000" text-anchor="start" style="white-space: pre;" direction="ltr">34</text></g><g transform="translate(984.3581148394333 767.7257714116913) rotate(0 13.5 12.5)"><text x="0" y="18" font-family="Virgil, Segoe UI Emoji" font-size="20px" fill="#000000" text-anchor="start" style="white-space: pre;" direction="ltr">65</text></g><g stroke-linecap="round"><g transform="translate(1032.5534559560074 591.8104102034795) rotate(0 -0.0417719237266283 109.55168325604973)"><path d="M-1.27 -1.35 C-1.43 68.75, -0.96 133.66, -1.19 220.45 M-0.41 0.38 C1.57 56.74, 1.58 114.52, 0.51 218.44" stroke="#000000" stroke-width="1" fill="none"></path></g></g><mask></mask><g transform="translate(1068.611754661575 650.0725871795457) rotate(0 13.5 12.5)"><text x="0" y="18" font-family="Virgil, Segoe UI Emoji" font-size="20px" fill="#000000" text-anchor="start" style="white-space: pre;" direction="ltr">70</text></g><g transform="translate(1065.2938057488536 676.6711708596285) rotate(0 13.5 12.5)"><text x="0" y="18" font-family="Virgil, Segoe UI Emoji" font-size="20px" fill="#000000" text-anchor="start" style="white-space: pre;" direction="ltr">65</text></g><g transform="translate(1068.2230646883654 739.7819770759907) rotate(0 14 12.5)"><text x="0" y="18" font-family="Virgil, Segoe UI Emoji" font-size="20px" fill="#000000" text-anchor="start" style="white-space: pre;" direction="ltr">66</text></g><g transform="translate(1065.9947375891497 709.027259634373) rotate(0 14 12.5)"><text x="0" y="18" font-family="Virgil, Segoe UI Emoji" font-size="20px" fill="#000000" text-anchor="start" style="white-space: pre;" direction="ltr">87</text></g><g transform="translate(1066.712462184867 769.9030721728795) rotate(0 14.5 12.5)"><text x="0" y="18" font-family="Virgil, Segoe UI Emoji" font-size="20px" fill="#000000" text-anchor="start" style="white-space: pre;" direction="ltr">60</text></g><g stroke-linecap="round"><g transform="translate(1131.183327084702 593.1109274636929) rotate(0 -0.21568088134517893 109.63039908342125)"><path d="M-1.19 1.24 C-0.36 85.59, -1.22 167.85, 0.76 219.59 M0.51 -0.77 C-0.29 54.56, 0.32 107.42, -0.01 220.03" stroke="#000000" stroke-width="1" fill="none"></path></g></g><mask></mask><g transform="translate(1147.8038811956212 600.0366333761613) rotate(0 30 12.5)"><text x="0" y="18" font-family="Virgil, Segoe UI Emoji" font-size="20px" fill="#000000" text-anchor="start" style="white-space: pre;" direction="ltr">Height</text></g><g transform="translate(1161.7265179010828 678.5672069750344) rotate(0 15.5 12.5)"><text x="0" y="18" font-family="Virgil, Segoe UI Emoji" font-size="20px" fill="#000000" text-anchor="start" style="white-space: pre;" direction="ltr">175</text></g><g transform="translate(1162.427449741379 710.9232957497788) rotate(0 16.5 12.5)"><text x="0" y="18" font-family="Virgil, Segoe UI Emoji" font-size="20px" fill="#000000" text-anchor="start" style="white-space: pre;" direction="ltr">187</text></g><g transform="translate(1163.1451743370963 773.9478554072102) rotate(0 16 12.5)"><text x="0" y="18" font-family="Virgil, Segoe UI Emoji" font-size="20px" fill="#000000" text-anchor="start" style="white-space: pre;" direction="ltr">169</text></g><g stroke-linecap="round"><g transform="translate(1227.6160392369275 595.006963579106) rotate(0 0.31760835180830327 109.59103354868421)"><path d="M-0.82 0.76 C1.76 56.28, 1.78 114.62, 1.03 217.67 M-0.47 -0.01 C2.17 46.66, 1.82 94.19, 0.13 219.19" stroke="#000000" stroke-width="1" fill="none"></path></g></g><mask></mask><g transform="translate(1241.0226949850148 647.6896817207398) rotate(0 37 12.5)"><text x="0" y="18" font-family="Virgil, Segoe UI Emoji" font-size="20px" fill="#000000" text-anchor="start" style="white-space: pre;" direction="ltr">35,000</text></g><g transform="translate(1240.220800391031 675.4957878202167) rotate(0 37 12.5)"><text x="0" y="18" font-family="Virgil, Segoe UI Emoji" font-size="20px" fill="#000000" text-anchor="start" style="white-space: pre;" direction="ltr">26,900</text></g><g transform="translate(1239.9866260721283 739.3182517362238) rotate(0 37.5 12.5)"><text x="0" y="18" font-family="Virgil, Segoe UI Emoji" font-size="20px" fill="#000000" text-anchor="start" style="white-space: pre;" direction="ltr">94,800</text></g><g transform="translate(1240.9217322313234 707.8518765949611) rotate(0 35.5 12.5)"><text x="0" y="18" font-family="Virgil, Segoe UI Emoji" font-size="20px" fill="#000000" text-anchor="start" style="white-space: pre;" direction="ltr">76,500</text></g><g transform="translate(1241.6394568270443 768.7276891334677) rotate(0 33 12.5)"><text x="0" y="18" font-family="Virgil, Segoe UI Emoji" font-size="20px" fill="#000000" text-anchor="start" style="white-space: pre;" direction="ltr">19,000</text></g><g stroke-linecap="round" transform="translate(1149.5111484737427 641.2578424369185) rotate(0 27.63068410615233 15.952610822005227)"><path d="M7.98 0 M7.98 0 C18.83 -1.82, 25.63 1.38, 47.29 0 M7.98 0 C20.16 -0.59, 30.98 -0.19, 47.29 0 M47.29 0 C52.91 -0.04, 57.23 0.76, 55.26 7.98 M47.29 0 C53.26 -0.62, 55.44 1.64, 55.26 7.98 M55.26 7.98 C56.1 13.13, 55.54 17.97, 55.26 23.93 M55.26 7.98 C54.58 13.1, 54.47 18.53, 55.26 23.93 M55.26 23.93 C55.61 30.62, 51.01 29.94, 47.29 31.91 M55.26 23.93 C53.94 31.36, 50.41 31.05, 47.29 31.91 M47.29 31.91 C36.91 31.05, 23.17 31.77, 7.98 31.91 M47.29 31.91 C36.09 30.63, 25.09 31.41, 7.98 31.91 M7.98 31.91 C3.79 32.76, 1.87 28.45, 0 23.93 M7.98 31.91 C4.86 30.08, -0.54 27.92, 0 23.93 M0 23.93 C-0.62 17.31, 1.41 13.87, 0 7.98 M0 23.93 C0.26 18.77, 0.26 14.5, 0 7.98 M0 7.98 C1.35 3.19, 2.23 0.99, 7.98 0 M0 7.98 C2.24 4.19, 0.5 -1.95, 7.98 0" stroke="#000000" stroke-width="2" fill="none"></path></g><g stroke-linecap="round" transform="translate(1149.5065571337436 737.4762590987029) rotate(0 27.63068410615233 15.952610822005227)"><path d="M7.98 0 M7.98 0 C18.9 -1.93, 34.81 -0.52, 47.29 0 M7.98 0 C17.05 0.17, 27.13 -0.22, 47.29 0 M47.29 0 C52.56 1.97, 53.37 3.23, 55.26 7.98 M47.29 0 C51.98 0.18, 54.24 2.5, 55.26 7.98 M55.26 7.98 C55.69 13.27, 55.85 18.85, 55.26 23.93 M55.26 7.98 C54.81 10.86, 54.67 15.21, 55.26 23.93 M55.26 23.93 C56.63 27.65, 50.64 30.75, 47.29 31.91 M55.26 23.93 C57.38 27.06, 51.74 32.07, 47.29 31.91 M47.29 31.91 C34.17 32.29, 22.25 31.88, 7.98 31.91 M47.29 31.91 C31.52 31.85, 17.48 32.43, 7.98 31.91 M7.98 31.91 C3.51 33.78, -0.79 31.16, 0 23.93 M7.98 31.91 C0.83 31.37, -1.33 30.49, 0 23.93 M0 23.93 C-0.85 20.52, 1.35 14.08, 0 7.98 M0 23.93 C-0.45 19.08, -0.13 14.19, 0 7.98 M0 7.98 C0.53 2.23, 3.65 1.95, 7.98 0 M0 7.98 C1.53 0.5, 0.71 -1.95, 7.98 0" stroke="#000000" stroke-width="2" fill="none"></path></g><g transform="translate(1170.8457798886611 645.0958798558622) rotate(0 8 12.5)"><text x="0" y="18" font-family="Virgil, Segoe UI Emoji" font-size="20px" fill="#a61e4d" text-anchor="start" style="white-space: pre;" direction="ltr">-1</text></g><g transform="translate(1169.1650178284926 742.9110579832777) rotate(0 8 12.5)"><text x="0" y="18" font-family="Virgil, Segoe UI Emoji" font-size="20px" fill="#a61e4d" text-anchor="start" style="white-space: pre;" direction="ltr">-1</text></g><g transform="translate(78.42335140139767 995.4006620351302) rotate(0 188 25)"><text x="188" y="18" font-family="Virgil, Segoe UI Emoji" font-size="20px" fill="#000000" text-anchor="middle" style="white-space: pre;" direction="ltr">Use the missing values as the target</text><text x="188" y="43" font-family="Virgil, Segoe UI Emoji" font-size="20px" fill="#000000" text-anchor="middle" style="white-space: pre;" direction="ltr">variable for a regression problem</text></g><g stroke-linecap="round"><g transform="translate(927.6735555255455 494.3572065902572) rotate(0 122.3710986069409 -1.1729419309231162)"><path d="M-0.68 -0.11 C40.09 -0.34, 204.42 -1.8, 245.43 -2.24 M1.16 -1.21 C41.68 -1.16, 203.75 -0.59, 244.28 -0.66" stroke="#e67700" stroke-width="2" fill="none"></path></g></g><mask></mask><g stroke-linecap="round"><g transform="translate(585.5142881876382 239.46620106370028) rotate(0 -199.12177483038886 340.5065422484222)"><path d="M-0.82 -0.96 C-59.79 45.58, -288.41 165.52, -354.49 279.16 C-420.57 392.81, -390.15 614.07, -397.29 680.93 M0.95 1.15 C-58.15 47.91, -289.13 167.27, -355.57 280.74 C-422.01 394.21, -390.85 615.28, -397.71 681.97" stroke="#000000" stroke-width="2" fill="none"></path></g><g transform="translate(585.5142881876382 239.46620106370028) rotate(0 -199.12177483038886 340.5065422484222)"><path d="M-409.7 653.41 C-405.44 661.89, -403.89 668.77, -399.56 683.43 M-407.64 654.54 C-404.26 661.43, -401.56 668.07, -396.72 682.6" stroke="#000000" stroke-width="2" fill="none"></path></g><g transform="translate(585.5142881876382 239.46620106370028) rotate(0 -199.12177483038886 340.5065422484222)"><path d="M-389.18 653.31 C-389.96 661.68, -393.45 668.58, -399.56 683.43 M-387.12 654.45 C-388.99 661.53, -391.56 668.19, -396.72 682.6" stroke="#000000" stroke-width="2" fill="none"></path></g></g><mask></mask><g stroke-linecap="round"><g transform="translate(687.5864870408313 243.803483550284) rotate(0 0.3007781845226418 38.46435385924724)"><path d="M1.04 -1.18 C1.32 12.01, 0.59 65.28, 0.76 78.11 M0.13 0.81 C0.28 13.8, -0.72 63.98, -0.46 76.61" stroke="#000000" stroke-width="2" fill="none"></path></g><g transform="translate(687.5864870408313 243.803483550284) rotate(0 0.3007781845226418 38.46435385924724)"><path d="M-12.63 47.52 C-6.65 55.97, -8.16 59.07, -0.19 77.44 M-9.8 47.53 C-6.06 58.83, -3.19 67.49, -1.2 77.04" stroke="#000000" stroke-width="2" fill="none"></path></g><g transform="translate(687.5864870408313 243.803483550284) rotate(0 0.3007781845226418 38.46435385924724)"><path d="M7.89 47.57 C9.25 56.18, 3.11 59.27, -0.19 77.44 M10.72 47.57 C7.18 59.05, 2.77 67.7, -1.2 77.04" stroke="#000000" stroke-width="2" fill="none"></path></g></g><mask></mask><g stroke-linecap="round"><g transform="translate(753.3865118307076 241.903448458379) rotate(0 99.50738299529803 68.7252837773558)"><path d="M-0.68 -0.09 C18.36 6.86, 80.68 17.96, 113.69 41.08 C146.71 64.2, 183.41 122.45, 197.4 138.64 M1.16 -1.19 C20.64 5.48, 82.89 16.4, 115.98 39.38 C149.07 62.36, 186.12 120.02, 199.7 136.7" stroke="#000000" stroke-width="2" fill="none"></path></g><g transform="translate(753.3865118307076 241.903448458379) rotate(0 99.50738299529803 68.7252837773558)"><path d="M174.51 118.83 C182.22 122.57, 188.45 127.15, 200.24 138.14 M174.98 120.56 C182.47 125.63, 190.16 130.04, 200.29 137.4" stroke="#000000" stroke-width="2" fill="none"></path></g><g transform="translate(753.3865118307076 241.903448458379) rotate(0 99.50738299529803 68.7252837773558)"><path d="M191 106.61 C194.5 113.33, 196.59 120.98, 200.24 138.14 M191.46 108.34 C193.46 117.52, 195.73 125.95, 200.29 137.4" stroke="#000000" stroke-width="2" fill="none"></path></g></g><mask></mask><g stroke-linecap="round"><g transform="translate(1239.1070854085247 496.6007529993185) rotate(0 10.92687108897826 29.99844326148377)"><path d="M0.53 -0.92 C5.34 3.17, 30.37 14.12, 29.12 24.43 C27.88 34.73, -0.92 55.01, -6.94 60.92 M-0.66 1.2 C4.06 5.43, 29.81 15.75, 28.7 25.41 C27.59 35.07, -1.46 53.23, -7.31 59.17" stroke="#000000" stroke-width="2" fill="none"></path></g><g transform="translate(1239.1070854085247 496.6007529993185) rotate(0 10.92687108897826 29.99844326148377)"><path d="M4.09 39.68 C-0.3 46.13, -0.85 52.82, -7.14 58.6 M5.34 37.6 C3.46 43.05, -1.19 48.09, -6.63 59.07" stroke="#000000" stroke-width="2" fill="none"></path></g><g transform="translate(1239.1070854085247 496.6007529993185) rotate(0 10.92687108897826 29.99844326148377)"><path d="M14.67 52.96 C6.89 55.18, 2.94 57.6, -7.14 58.6 M15.92 50.87 C11.51 53.2, 4.36 55.1, -6.63 59.07" stroke="#000000" stroke-width="2" fill="none"></path></g></g><mask></mask><g transform="translate(158.1296606189917 955.6240039426557) rotate(0 111.5 12.5)"><text x="111.5" y="18" font-family="Virgil, Segoe UI Emoji" font-size="20px" fill="#a61e4d" text-anchor="middle" style="white-space: pre;" direction="ltr">Slightly more advanced</text></g><g stroke-linecap="round"><g transform="translate(192.41176407777675 659.515761847284) rotate(0 175.46912662150407 162.76085094712926)"><path d="M-1.18 -0.68 C7.31 34.87, -8.49 159.44, 49.99 213.92 C108.46 268.4, 299.69 307.78, 349.68 326.2 M0.4 1.58 C8.84 37.21, -9.47 161.28, 49.15 215.09 C107.77 268.89, 302 306.07, 352.12 324.43" stroke="#000000" stroke-width="2" fill="none"></path></g><g transform="translate(192.41176407777675 659.515761847284) rotate(0 175.46912662150407 162.76085094712926)"><path d="M321.07 327.02 C327.51 325.04, 337.02 324.98, 351.08 322.96 M322.43 326.12 C333.66 324.62, 346.12 324.17, 352.16 323.5" stroke="#000000" stroke-width="2" fill="none"></path></g><g transform="translate(192.41176407777675 659.515761847284) rotate(0 175.46912662150407 162.76085094712926)"><path d="M326.63 307.27 C331.97 309.53, 340.27 313.76, 351.08 322.96 M328 306.37 C336.83 312.78, 347.07 320.19, 352.16 323.5" stroke="#000000" stroke-width="2" fill="none"></path></g></g><mask></mask><g transform="translate(551.386160911663 984.7212007761318) rotate(0 183 37.5)"><text x="183" y="18" font-family="Virgil, Segoe UI Emoji" font-size="20px" fill="#000000" text-anchor="middle" style="white-space: pre;" direction="ltr">Add a synthetic binary indicator</text><text x="183" y="43" font-family="Virgil, Segoe UI Emoji" font-size="20px" fill="#000000" text-anchor="middle" style="white-space: pre;" direction="ltr">attribute for each original attribute</text><text x="183" y="68" font-family="Virgil, Segoe UI Emoji" font-size="20px" fill="#000000" text-anchor="middle" style="white-space: pre;" direction="ltr">with missing values</text></g><g stroke-linecap="round" transform="translate(527.6408532655787 1132.5832182151407) rotate(0 309.7437420054366 112.83398539873906)"><path d="M-0.3 -0.67 C173.33 0.34, 345.95 -0.2, 620.13 -0.46 M-0.03 -0.31 C244.98 2.14, 489.81 2.42, 619.63 -0.34 M619.36 -1.41 C620.63 49.68, 620.17 98.9, 620.47 225.08 M620.27 -0.2 C617.81 88.42, 617.87 175.16, 620.16 226.39 M619.63 224.89 C469.96 225.69, 321.42 225.87, -0.46 226.2 M619.84 225.49 C449.03 224.87, 277.86 224.31, 0.34 225.37 M-0.89 225.69 C-2.48 163.05, 0.02 100.05, -0.12 1.52 M-0.2 226.43 C1.51 178.75, 0.9 130.52, -0.06 0.54" stroke="#000000" stroke-width="2" fill="none"></path></g><g stroke-linecap="round"><g transform="translate(527.6408532655787 1178.2321205855096) rotate(0 308.4003302237352 0.3607386995408888)"><path d="M-0.67 0.15 C142.78 0.51, 285.2 1.56, 617.35 0.76 M-0.31 0.05 C131 0.13, 262.52 0.33, 617.47 -0.33" stroke="#000000" stroke-width="2" fill="none"></path></g></g><mask></mask><g transform="translate(544.8823090155511 1145.1212186069733) rotate(0 19.5 12.5)"><text x="0" y="18" font-family="Virgil, Segoe UI Emoji" font-size="20px" fill="#000000" text-anchor="start" style="white-space: pre;" direction="ltr">Row</text></g><g transform="translate(694.717310536902 1144.2687218247283) rotate(0 31.5 12.5)"><text x="0" y="18" font-family="Virgil, Segoe UI Emoji" font-size="20px" fill="#000000" text-anchor="start" style="white-space: pre;" direction="ltr">Weight</text></g><g transform="translate(1064.5719407472188 1147.0465384812687) rotate(0 32 12.5)"><text x="0" y="18" font-family="Virgil, Segoe UI Emoji" font-size="20px" fill="#e67700" text-anchor="start" style="white-space: pre;" direction="ltr">Salary</text></g><g transform="translate(559.7873688781929 1191.9003706389758) rotate(0 3.5 12.5)"><text x="0" y="18" font-family="Virgil, Segoe UI Emoji" font-size="20px" fill="#000000" text-anchor="start" style="white-space: pre;" direction="ltr">1</text></g><g transform="translate(556.4694199654714 1218.4989543190586) rotate(0 8 12.5)"><text x="0" y="18" font-family="Virgil, Segoe UI Emoji" font-size="20px" fill="#000000" text-anchor="start" style="white-space: pre;" direction="ltr">2</text></g><g transform="translate(559.3986789049904 1281.6097605354207) rotate(0 7.5 12.5)"><text x="0" y="18" font-family="Virgil, Segoe UI Emoji" font-size="20px" fill="#000000" text-anchor="start" style="white-space: pre;" direction="ltr">4</text></g><g transform="translate(559.1170799647971 1250.855043093803) rotate(0 8 12.5)"><text x="0" y="18" font-family="Virgil, Segoe UI Emoji" font-size="20px" fill="#000000" text-anchor="start" style="white-space: pre;" direction="ltr">3</text></g><g stroke-linecap="round"><g transform="translate(605.2433667255518 1135.2938755366613) rotate(0 -0.6712631187328952 109.03535941395694)"><path d="M-1.52 -1.65 C-1.23 82.04, -0.89 165.78, -0.25 219.5 M0.18 -0.48 C-1.68 72.8, -1.24 147.39, 0.14 219.72" stroke="#000000" stroke-width="1" fill="none"></path></g></g><mask></mask><g transform="translate(559.8348045605107 1311.9741966521888) rotate(0 7 12.5)"><text x="0" y="18" font-family="Virgil, Segoe UI Emoji" font-size="20px" fill="#000000" text-anchor="start" style="white-space: pre;" direction="ltr">5</text></g><g transform="translate(618.835286284937 1143.3737593322676) rotate(0 18 12.5)"><text x="0" y="18" font-family="Virgil, Segoe UI Emoji" font-size="20px" fill="#000000" text-anchor="start" style="white-space: pre;" direction="ltr">Age</text></g><g transform="translate(629.6035488096477 1194.0234109823305) rotate(0 11.5 12.5)"><text x="0" y="18" font-family="Virgil, Segoe UI Emoji" font-size="20px" fill="#000000" text-anchor="start" style="white-space: pre;" direction="ltr">18</text></g><g transform="translate(626.2855998969262 1220.6219946624133) rotate(0 14 12.5)"><text x="0" y="18" font-family="Virgil, Segoe UI Emoji" font-size="20px" fill="#000000" text-anchor="start" style="white-space: pre;" direction="ltr">43</text></g><g transform="translate(629.2148588364453 1283.7328008787754) rotate(0 11 12.5)"><text x="0" y="18" font-family="Virgil, Segoe UI Emoji" font-size="20px" fill="#000000" text-anchor="start" style="white-space: pre;" direction="ltr">21</text></g><g transform="translate(628.9332598962519 1252.9780834371577) rotate(0 14 12.5)"><text x="0" y="18" font-family="Virgil, Segoe UI Emoji" font-size="20px" fill="#000000" text-anchor="start" style="white-space: pre;" direction="ltr">34</text></g><g transform="translate(627.7042563329396 1313.8538959756643) rotate(0 13.5 12.5)"><text x="0" y="18" font-family="Virgil, Segoe UI Emoji" font-size="20px" fill="#000000" text-anchor="start" style="white-space: pre;" direction="ltr">65</text></g><g stroke-linecap="round"><g transform="translate(675.8995974495137 1137.9385347674524) rotate(0 -0.2650137616374195 109.24784537393953)"><path d="M0.61 -1.48 C-1.71 54.04, -1.22 107.24, -1.42 219.97 M0.5 -0.3 C1.1 74.59, 1.13 150.91, -0.2 218.57" stroke="#000000" stroke-width="1" fill="none"></path></g></g><mask></mask><g transform="translate(711.9578961550815 1196.2007117435187) rotate(0 13.5 12.5)"><text x="0" y="18" font-family="Virgil, Segoe UI Emoji" font-size="20px" fill="#000000" text-anchor="start" style="white-space: pre;" direction="ltr">70</text></g><g transform="translate(708.63994724236 1222.7992954236015) rotate(0 13.5 12.5)"><text x="0" y="18" font-family="Virgil, Segoe UI Emoji" font-size="20px" fill="#000000" text-anchor="start" style="white-space: pre;" direction="ltr">65</text></g><g transform="translate(711.5692061818718 1285.9101016399636) rotate(0 14 12.5)"><text x="0" y="18" font-family="Virgil, Segoe UI Emoji" font-size="20px" fill="#000000" text-anchor="start" style="white-space: pre;" direction="ltr">66</text></g><g transform="translate(709.3408790826561 1255.155384198346) rotate(0 14 12.5)"><text x="0" y="18" font-family="Virgil, Segoe UI Emoji" font-size="20px" fill="#000000" text-anchor="start" style="white-space: pre;" direction="ltr">87</text></g><g transform="translate(710.0586036783734 1316.0311967368525) rotate(0 14.5 12.5)"><text x="0" y="18" font-family="Virgil, Segoe UI Emoji" font-size="20px" fill="#000000" text-anchor="start" style="white-space: pre;" direction="ltr">60</text></g><g stroke-linecap="round"><g transform="translate(774.5294685782083 1139.2390520276658) rotate(0 -0.07990081687967177 110.06379808544625)"><path d="M-1.42 0.76 C-0.31 70.55, -0.03 141.51, -0.59 220.77 M-0.2 -0.65 C2.22 53.42, 0.96 108.7, 0.73 218.69" stroke="#000000" stroke-width="1" fill="none"></path></g></g><mask></mask><g transform="translate(791.1500226891276 1146.1647579401342) rotate(0 30 12.5)"><text x="0" y="18" font-family="Virgil, Segoe UI Emoji" font-size="20px" fill="#000000" text-anchor="start" style="white-space: pre;" direction="ltr">Height</text></g><g transform="translate(805.0726593945892 1224.6953315390074) rotate(0 15.5 12.5)"><text x="0" y="18" font-family="Virgil, Segoe UI Emoji" font-size="20px" fill="#000000" text-anchor="start" style="white-space: pre;" direction="ltr">175</text></g><g transform="translate(805.7735912348853 1257.0514203137518) rotate(0 16.5 12.5)"><text x="0" y="18" font-family="Virgil, Segoe UI Emoji" font-size="20px" fill="#000000" text-anchor="start" style="white-space: pre;" direction="ltr">187</text></g><g transform="translate(806.4913158306026 1320.0759799711832) rotate(0 16 12.5)"><text x="0" y="18" font-family="Virgil, Segoe UI Emoji" font-size="20px" fill="#000000" text-anchor="start" style="white-space: pre;" direction="ltr">169</text></g><g stroke-linecap="round"><g transform="translate(870.9621807304338 1141.135088143079) rotate(0 0.2209263344093415 108.89272324999547)"><path d="M0.99 -0.59 C1.88 74.13, 1.95 151.71, -0.4 217.92 M0.68 0.73 C-1.8 76.46, -1.06 153.72, -0.84 218.38" stroke="#000000" stroke-width="1" fill="none"></path></g></g><mask></mask><g transform="translate(1063.5998252818154 1194.6264521720423) rotate(0 37 12.5)"><text x="0" y="18" font-family="Virgil, Segoe UI Emoji" font-size="20px" fill="#000000" text-anchor="start" style="white-space: pre;" direction="ltr">35,000</text></g><g transform="translate(1062.7979306878315 1222.4325582715192) rotate(0 37 12.5)"><text x="0" y="18" font-family="Virgil, Segoe UI Emoji" font-size="20px" fill="#000000" text-anchor="start" style="white-space: pre;" direction="ltr">26,900</text></g><g transform="translate(1062.5637563689288 1286.2550221875263) rotate(0 37.5 12.5)"><text x="0" y="18" font-family="Virgil, Segoe UI Emoji" font-size="20px" fill="#000000" text-anchor="start" style="white-space: pre;" direction="ltr">94,800</text></g><g transform="translate(1063.498862528124 1254.7886470462636) rotate(0 35.5 12.5)"><text x="0" y="18" font-family="Virgil, Segoe UI Emoji" font-size="20px" fill="#000000" text-anchor="start" style="white-space: pre;" direction="ltr">76,500</text></g><g transform="translate(1064.2165871238449 1315.6644595847702) rotate(0 33 12.5)"><text x="0" y="18" font-family="Virgil, Segoe UI Emoji" font-size="20px" fill="#000000" text-anchor="start" style="white-space: pre;" direction="ltr">19,000</text></g><g stroke-linecap="round" transform="translate(792.857289967249 1187.3859670008915) rotate(0 27.63068410615233 15.952610822005227)"><path d="M7.98 0 M7.98 0 C17.2 -1.85, 28.35 -1.71, 47.29 0 M7.98 0 C15.42 -0.7, 24.32 -0.16, 47.29 0 M47.29 0 C50.66 -1.92, 53.72 1.31, 55.26 7.98 M47.29 0 C51.37 -1.33, 56.78 2.1, 55.26 7.98 M55.26 7.98 C54.47 12.8, 56.49 14.75, 55.26 23.93 M55.26 7.98 C55.23 12.39, 55.9 15.29, 55.26 23.93 M55.26 23.93 C55.28 27.93, 52.88 33.51, 47.29 31.91 M55.26 23.93 C55.38 29.09, 54.64 29.82, 47.29 31.91 M47.29 31.91 C40.77 31.32, 31.57 29.88, 7.98 31.91 M47.29 31.91 C38.46 32.33, 29.95 31.52, 7.98 31.91 M7.98 31.91 C3.95 31.6, -0.91 29.93, 0 23.93 M7.98 31.91 C3.55 30.41, -0.57 29.02, 0 23.93 M0 23.93 C1.54 21.1, -1.55 16.92, 0 7.98 M0 23.93 C-0.51 21, -0.62 16.85, 0 7.98 M0 7.98 C0.83 3.63, 2.78 -0.27, 7.98 0 M0 7.98 C-0.09 2.25, 1.25 1.89, 7.98 0" stroke="#000000" stroke-width="2" fill="none"></path></g><g stroke-linecap="round" transform="translate(792.85269862725 1283.604383662676) rotate(0 27.63068410615233 15.952610822005227)"><path d="M7.98 0 M7.98 0 C21.97 1.1, 37.6 -1.82, 47.29 0 M7.98 0 C22.5 0.49, 37.93 -0.74, 47.29 0 M47.29 0 C50.68 -1.54, 53.91 1.59, 55.26 7.98 M47.29 0 C51.27 1.52, 54.7 1.15, 55.26 7.98 M55.26 7.98 C56.49 13.34, 54.69 15.18, 55.26 23.93 M55.26 7.98 C55.7 14.63, 54.73 20.29, 55.26 23.93 M55.26 23.93 C53.94 29.52, 54.2 32.01, 47.29 31.91 M55.26 23.93 C55.11 31.29, 50.52 29.85, 47.29 31.91 M47.29 31.91 C36.23 33.12, 24.24 30.91, 7.98 31.91 M47.29 31.91 C35.96 32.99, 23.64 32.68, 7.98 31.91 M7.98 31.91 C2.35 30.99, 0.69 30.02, 0 23.93 M7.98 31.91 C1.16 31.34, -0.23 27.64, 0 23.93 M0 23.93 C1 17.12, 0.49 12.06, 0 7.98 M0 23.93 C0.54 17.69, -0.07 12.83, 0 7.98 M0 7.98 C0.97 2.78, 2.39 -0.07, 7.98 0 M0 7.98 C-0.4 1.25, 4.55 1.02, 7.98 0" stroke="#000000" stroke-width="2" fill="none"></path></g><g stroke-linecap="round"><g transform="translate(846.2151284389329 1046.4275609197157) rotate(0 13.744364997545745 30.098168240432642)"><path d="M0.19 0.47 C4.98 4.97, 26.89 16.07, 28.55 26.08 C30.21 36.09, 13.39 54.95, 10.14 60.53 M-1.18 -0.33 C3.51 3.91, 25.97 14.46, 27.83 24.28 C29.69 34.1, 13.07 52.52, 10 58.57" stroke="#000000" stroke-width="2" fill="none"></path></g><g transform="translate(846.2151284389329 1046.4275609197157) rotate(0 13.744364997545745 30.098168240432642)"><path d="M15.55 40.21 C14.28 46.85, 13.11 50.49, 9.63 58.65 M14.63 40.4 C13.71 45.67, 10.94 52.71, 9.7 57.98" stroke="#000000" stroke-width="2" fill="none"></path></g><g transform="translate(846.2151284389329 1046.4275609197157) rotate(0 13.744364997545745 30.098168240432642)"><path d="M26.68 47.75 C22.32 52.26, 18 53.78, 9.63 58.65 M25.77 47.93 C20.83 50.5, 14.07 54.83, 9.7 57.98" stroke="#000000" stroke-width="2" fill="none"></path></g></g><mask></mask><g stroke-linecap="round"><g transform="translate(1047.3091132953887 1134.7759530831972) rotate(0 0.06367646005946881 109.58385525853737)"><path d="M0.8 -0.49 C1.38 79.78, 0.44 161.1, -0.85 217.89 M-0.24 0.75 C0.11 79.15, -1.24 159.72, 0.73 219.66" stroke="#000000" stroke-width="1" fill="none"></path></g></g><mask></mask><g transform="translate(887.1933970066111 1144.5587433938836) rotate(0 74 12.5)"><text x="0" y="18" font-family="Virgil, Segoe UI Emoji" font-size="20px" fill="#000000" text-anchor="start" style="white-space: pre;" direction="ltr">Height_present</text></g><g transform="translate(950.4552931995531 1193.5562267010173) rotate(0 8 12.5)"><text x="0" y="18" font-family="Virgil, Segoe UI Emoji" font-size="20px" fill="#a61e4d" text-anchor="start" style="white-space: pre;" direction="ltr">0</text></g><g transform="translate(954.0306263613293 1220.1548103811) rotate(0 3.5 12.5)"><text x="0" y="18" font-family="Virgil, Segoe UI Emoji" font-size="20px" fill="#000000" text-anchor="start" style="white-space: pre;" direction="ltr">1</text></g><g transform="translate(953.0636823891673 1282.965908681179) rotate(0 8 12.5)"><text x="0" y="18" font-family="Virgil, Segoe UI Emoji" font-size="20px" fill="#a61e4d" text-anchor="start" style="white-space: pre;" direction="ltr">0</text></g><g transform="translate(954.7315582016254 1252.5108991558445) rotate(0 3.5 12.5)"><text x="0" y="18" font-family="Virgil, Segoe UI Emoji" font-size="20px" fill="#000000" text-anchor="start" style="white-space: pre;" direction="ltr">1</text></g><g transform="translate(955.4492827973427 1313.386711694351) rotate(0 3.5 12.5)"><text x="0" y="18" font-family="Virgil, Segoe UI Emoji" font-size="20px" fill="#000000" text-anchor="start" style="white-space: pre;" direction="ltr">1</text></g><g transform="translate(63.17243176797092 1405.57196942876) rotate(0 89 18)"><text x="89" y="25" font-family="Virgil, Segoe UI Emoji" font-size="28px" fill="#a61e4d" text-anchor="middle" style="white-space: pre;" direction="ltr">IMPORTANT</text></g><g transform="translate(60.95784102348625 1448.371467840072) rotate(0 590 12.5)"><text x="0" y="18" font-family="Virgil, Segoe UI Emoji" font-size="20px" fill="#000000" text-anchor="start" style="white-space: pre;" direction="ltr">At prediction time, if your example is not complete, you should use the same imputation technique to fill missing values</text></g><g transform="translate(430.99997754133983 811.0963050955652) rotate(0 68.5 12.5)"><text x="68.5" y="18" font-family="Virgil, Segoe UI Emoji" font-size="20px" fill="#a61e4d" text-anchor="middle" style="white-space: pre;" direction="ltr">BE CAREFUL!</text></g><g transform="translate(438.65286437087707 835.1697275584411) rotate(0 145.5 25)"><text x="145.5" y="18" font-family="Virgil, Segoe UI Emoji" font-size="20px" fill="#000000" text-anchor="middle" style="white-space: pre;" direction="ltr">Don't use the whole dataset</text><text x="145.5" y="43" font-family="Virgil, Segoe UI Emoji" font-size="20px" fill="#000000" text-anchor="middle" style="white-space: pre;" direction="ltr">to compute statistics!</text></g><g transform="translate(802.0368560147344 873.36930507953) rotate(0 130.5 25)"><text x="130.5" y="18" font-family="Virgil, Segoe UI Emoji" font-size="20px" fill="#000000" text-anchor="middle" style="white-space: pre;" direction="ltr">This would result in data</text><text x="130.5" y="43" font-family="Virgil, Segoe UI Emoji" font-size="20px" fill="#000000" text-anchor="middle" style="white-space: pre;" direction="ltr">leakage during imputation..</text></g><g stroke-linecap="round"><g transform="translate(709.0434571780443 875.951960525832) rotate(0 39.270557497065965 11.549791276801443)"><path d="M-0.12 0.33 C5.3 3.68, 18.15 16.42, 31.53 20.1 C44.92 23.78, 72.13 22.14, 80.18 22.41 M-1.64 -0.54 C3.71 2.48, 17.02 14.42, 30.62 18.45 C44.21 22.48, 71.64 22.98, 79.93 23.64" stroke="#a61e4d" stroke-width="2" fill="none"></path></g><g transform="translate(709.0434571780443 875.951960525832) rotate(0 39.270557497065965 11.549791276801443)"><path d="M57.59 30.66 C63.55 30.72, 66.77 28.58, 78.54 23.11 M57.5 30.29 C65.87 27.25, 74.68 24.85, 79.64 23.29" stroke="#a61e4d" stroke-width="2" fill="none"></path></g><g transform="translate(709.0434571780443 875.951960525832) rotate(0 39.270557497065965 11.549791276801443)"><path d="M58.49 14.33 C64.26 17.95, 67.28 19.39, 78.54 23.11 M58.4 13.96 C66.55 17.16, 75.01 21, 79.64 23.29" stroke="#a61e4d" stroke-width="2" fill="none"></path></g></g><mask></mask></svg>