<svg version="1.1" xmlns="http://www.w3.org/2000/svg" viewBox="0 0 1375.065940360255 1232.8614421442035" width="4125.197821080765" height="3698.5843264326104">
  <!-- svg-source:excalidraw -->
  
  <defs>
    <style class="style-fonts">
      @font-face {
        font-family: "Virgil";
        src: url("https://excalidraw.com/Virgil.woff2");
      }
      @font-face {
        font-family: "Cascadia";
        src: url("https://excalidraw.com/Cascadia.woff2");
      }
    </style>
  </defs>
  <rect x="0" y="0" width="1375.065940360255" height="1232.8614421442035" fill="#ffffff"></rect><g stroke-linecap="round" transform="translate(396.5358609800969 106.08532475942957) rotate(0 120.5 30)"><path d="M0 0 C0 0, 0 0, 0 0 M0 0 C0 0, 0 0, 0 0 M-0.02 6.17 C0.69 5.61, 2.78 3.64, 4.89 -0.19 M0.1 6.58 C0.99 5.43, 1.6 3.63, 4.75 0.04 M1.64 13.07 C5.17 8.73, 8.46 3.11, 9.68 0.46 M-0.59 11.7 C3.41 7.77, 8.82 3.13, 9.88 -0.07 M0.09 16.55 C1.98 12.7, 7.58 11.89, 16.2 1.33 M-0.46 18.04 C5.95 10.72, 12.03 5.16, 16.32 -0.38 M1.77 24.37 C4.47 16.48, 11.65 11.81, 21.18 1.35 M-0.38 24.43 C4.67 18.25, 7.7 14.66, 20.39 -0.73 M-1.14 30.19 C9.33 21.76, 18.44 9.01, 25.97 -1.54 M0.57 30.57 C6.95 22.29, 14.12 14.07, 25.66 -0.54 M-1.81 38.75 C7.02 27.72, 19.09 14.88, 32.72 -1.84 M-0.79 37.41 C7.44 27.45, 16.79 17.69, 32.78 -0.43 M1.57 40.53 C11.93 28.35, 25.28 15.38, 36.81 -0.16 M0.18 42.24 C10.56 31.89, 20.27 19.66, 36.18 0.8 M1.63 50.16 C13.77 34.4, 29.16 15.31, 41.93 -1.12 M-0.01 49.9 C16.48 29.73, 31.28 12.34, 43.33 -0.92 M0.34 53.21 C13.59 42.39, 22.59 27.12, 48.71 0.75 M-0.27 54.44 C15.04 35.56, 30.41 17.81, 47.58 -0.02 M2.28 59.64 C16.19 45.95, 29.09 28.27, 53.86 -0.81 M0.5 59.34 C12.31 47.73, 23.35 33.76, 53.44 -0.33 M3.73 59.61 C21.91 44.1, 32.62 29.22, 58.79 -1.72 M4.73 60.14 C25.16 38.18, 44.09 15.02, 57.44 -0.11 M12.74 59.46 C23.52 43.97, 33.23 29.99, 64.75 -1.41 M10.41 59.22 C26.25 40.77, 42.71 23.33, 63.4 -1.18 M18.22 60.98 C38.62 36.17, 59.22 10.59, 69.41 -0.69 M16.35 59.93 C31.4 41.99, 46.73 23.45, 69.26 0.06 M23.75 61.58 C38.5 40.26, 53.08 23.06, 74.03 0.38 M22.23 59.49 C33.94 46.51, 44.59 33.59, 74.41 -0.43 M28.24 60.41 C39.61 48.2, 48.84 33.92, 80.07 0.57 M27.41 60.02 C44.73 40.61, 60.68 20.87, 78.45 0.59 M33.07 60.47 C44.87 44.3, 59.62 28.18, 84.31 -0.33 M32.25 59.38 C44.23 46.45, 55.27 34.41, 84.57 0.59 M38.67 58.76 C50.76 42.96, 66.63 26.67, 91.49 0.58 M36.91 60.19 C52.07 44.39, 66.49 27.41, 90.31 0.19 M43.68 60.39 C59.18 42.12, 72.34 27.01, 97.41 -0.59 M42.66 60.71 C53.64 47.44, 63.88 34.57, 94.9 0.11 M49.55 60.72 C68.29 37.24, 87.62 17.21, 101.57 -0.32 M48.71 59.82 C63.61 42.5, 79.78 25.26, 100.06 0.13 M55.05 60.21 C70.32 37.51, 89.13 15.38, 106.31 -1.66 M52.88 60.66 C71.45 40.1, 89.09 19.7, 105.32 -0.03 M60.13 58.79 C71.56 46.95, 83.46 31.61, 109.39 0 M59.63 59.86 C73.24 42.71, 90.28 24.76, 110.82 0.31 M61.85 62.29 C77.93 42.72, 93.9 27.22, 114.53 -0.25 M64.22 60.73 C75.56 47.12, 87.99 32.14, 115.99 0.37 M68.83 61.26 C91.44 34.48, 112.84 12.66, 123.23 1.53 M69.35 60.88 C88 38.6, 108.2 15.44, 121.61 -0.79 M73.92 61.12 C95.44 38.76, 113.55 16.03, 126.75 0.52 M73.94 61.27 C94.36 38.9, 113.53 15.55, 125.95 0.83 M81.28 60.26 C89.39 46.67, 103.54 34.62, 132.54 -1.97 M80.48 61.03 C97.46 39.59, 114.67 20.22, 133.38 -0.1 M87 60.21 C99.81 47.75, 110.31 30.3, 136.88 -0.42 M85.83 60.49 C102.17 41.64, 119.39 22.19, 137.2 0.7 M90.26 59.71 C99.38 48.84, 112.34 36.37, 143.98 1.08 M90.54 60.05 C101.9 48.74, 112.9 35, 142.96 0.05 M93.96 60.9 C114.41 38.52, 133.82 13.19, 146.64 -1.08 M95.63 61.18 C109.7 44.34, 123.43 28.07, 147.27 0.22 M99.79 59.37 C113.81 42.37, 128.49 27.6, 153.37 0.1 M101.94 59.29 C119.65 39.58, 138 19.46, 153.1 -0.09 M104.9 62.34 C124.74 37.76, 146.09 14.64, 156.98 0.35 M106.94 60.72 C121.06 44.2, 134.56 28.86, 158.61 1.19 M113.03 58.77 C131.84 37.66, 149.48 17.64, 165.74 -1.72 M112.01 59.67 C125.26 45.93, 136.18 31.34, 164.45 0.36 M115.09 61.49 C133.82 41.4, 146.46 26.19, 168 1.48 M117.29 61.1 C130.12 45.86, 141.04 33.19, 168.58 1 M124.34 61.3 C139.75 42, 153.45 23.21, 175.3 0.65 M122.98 59.72 C142 37.85, 161.74 15.69, 175.57 -1.17 M128.99 61.14 C143.33 42.69, 159.6 21.22, 179.01 -0.25 M128.13 60.89 C146.74 38.85, 165.76 15.91, 179.44 0.67 M131.3 62.14 C145.09 46.57, 159.79 31.48, 185.45 -1.94 M133.99 59.57 C155.01 36.36, 175.7 12.28, 184.93 -0.64 M136.24 61.85 C151.68 42.45, 168.76 25.41, 192.51 0.4 M138.78 61.25 C152.36 42.42, 167.79 25.22, 190.35 0.76 M142.63 60.27 C158.5 43.42, 168.53 29.01, 196.77 -0.85 M143.07 60.92 C159.01 42.31, 174.55 23.99, 196.89 0.6 M147.69 62.04 C166.41 38.8, 187.51 18.12, 202.16 0.48 M148.51 59.96 C165.01 41.6, 180.41 24.31, 201.4 -0.52 M154.26 58.51 C175 39.57, 193.55 15.89, 207.04 -1.62 M155.19 59.09 C166.28 47, 177.68 33.54, 207.74 -0.23 M159.35 61.91 C178.63 36.38, 198.79 13.97, 212.84 0.86 M160.45 61.35 C178.37 39.89, 195.68 18.39, 211.56 0.59 M165.31 59.46 C179.35 44.06, 190.98 28.99, 219.21 0.02 M164.19 60.98 C178.5 44.67, 192.78 28.06, 217.66 -1.3 M168.44 59.49 C184.85 44.32, 197.67 28.57, 220.6 -1.77 M169.67 60.38 C184.33 43.01, 199.49 26.37, 222.73 -0.53 M173.44 62.32 C197.01 37.06, 217.43 14.25, 229.43 -1.83 M174.18 59.83 C191.9 40.66, 210.64 19.03, 228.74 -0.2 M181.34 58.62 C194.65 46.93, 205.58 29.16, 232.68 1.07 M181.13 60.6 C198.44 39.77, 216.47 19.55, 233.69 -0.92 M185.43 59.82 C204.77 35.86, 227.33 14.77, 238.38 1.48 M186.14 60.23 C197.96 45.07, 211.32 31.18, 238.31 0.84 M189.66 60.95 C202.53 46.53, 214.28 34.03, 242.19 3.21 M191.71 60.14 C205.47 42.84, 220.75 27.14, 242.83 1.48 M197.32 58.78 C211.76 43.07, 221.74 29.64, 243.99 8.94 M196 60.62 C214.24 40.67, 232.42 20.13, 243.7 6.71 M202.15 61.93 C212.88 49.21, 218.92 39.26, 242.89 13.81 M202.18 59.73 C213.38 46.42, 226.67 31.54, 242.89 13.9 M208.97 61.05 C220.08 45.96, 231.08 32.64, 241.97 20.08 M207.23 60.27 C217.12 48.83, 228.29 38.37, 242.71 19.6 M212.78 58.85 C220.35 49.56, 229.38 39.95, 244.76 26.24 M213.23 60.69 C220.52 52.39, 226.69 42.78, 242.56 25.49 M219.43 60.31 C225.32 50.13, 231.7 42.09, 243.13 33.44 M218.21 60.06 C225.13 51.57, 232.9 43.76, 242.96 31.53 M224.7 58.78 C228.54 53.85, 234.29 50.93, 243.79 36.25 M223.45 60.95 C228.55 55.01, 231.65 49.03, 242.26 37.62 M226.95 62.08 C230.83 56.99, 234.09 52.49, 240.89 44.92 M228.25 60.44 C232.63 56.14, 235.79 52.84, 243.41 44.61 M234.11 59.18 C237.55 56.88, 239.02 53.91, 242.47 51.53 M233.52 60.72 C235.44 57.39, 237.42 55.36, 242.57 50.11 M238.29 60.28 C240.06 59.88, 240.59 58.96, 242.71 55.87 M239.06 60.84 C240.31 58.9, 242.21 56.8, 243.04 56.28" stroke="#82c91e" stroke-width="0.5" fill="none"></path><path d="M-1.15 -0.95 C92.21 1.4, 179.72 1.61, 240.53 0.83 M-0.29 0.04 C63.99 0.03, 126.69 -1.06, 240.81 0.46 M239.64 -1.39 C241.1 20.81, 241.97 40.31, 240.91 61.45 M241.53 0.84 C240.09 20.57, 241.54 42.55, 240.48 60.35 M241.42 59.38 C188.22 60.71, 132.57 60.47, 0.39 58.96 M240.28 59.83 C149.45 60.06, 58.81 60.42, 0.5 60.71 M-1.74 61.65 C-0.89 46.12, -0.44 29.38, -0.33 -0.62 M0.74 60.4 C-0.39 42.22, -0.12 24.46, -0.34 -0.28" stroke="#000000" stroke-width="1" fill="none"></path></g><g transform="translate(446.5358609800969 123.58532475942957) rotate(0 70.5 12.5)"><text x="70.5" y="18" font-family="Virgil, Segoe UI Emoji" font-size="20px" fill="#000000" text-anchor="middle" style="white-space: pre;" direction="ltr">Training Data</text></g><g stroke-linecap="round" transform="translate(639.2713892833435 105.79973746657743) rotate(0 66 30)"><path d="M0 0 C0 0, 0 0, 0 0 M0 0 C0 0, 0 0, 0 0 M-0.48 6.96 C2.51 3.96, 3.72 1.16, 4.3 0.67 M-0.11 6.7 C0.7 4.58, 2.2 2.89, 5.34 0.33 M1.09 13.34 C2.76 9.39, 4.18 6.59, 12.06 1.31 M-0.58 12.4 C3.3 9.7, 4.38 6.43, 10.06 0.16 M-1.58 16.87 C5.38 14.63, 10.37 8.16, 17.47 0.22 M-0.24 17.84 C4.52 13.93, 10.25 6.73, 14.93 1.06 M-0.22 22.25 C9.95 13.9, 16.07 6.99, 19.28 0.36 M0.51 23.17 C6.54 16.23, 13.69 7.09, 21.52 0.45 M0.93 31.55 C8.98 20.26, 14.56 11.82, 25.77 -0.44 M-0.41 30.76 C8.54 20.27, 17.65 8.45, 26.09 0.76 M-1.95 38.24 C10.94 24.5, 20.21 12.59, 31.1 -0.57 M-1.02 36.86 C7.57 28.02, 15.67 19.3, 32.17 -0.01 M-0.08 41.89 C8.67 34.22, 15.28 24.63, 36.22 -0.18 M0.66 42.86 C8.43 32.95, 15.2 25.03, 37.22 0.76 M-0.23 50.57 C11.05 35.45, 20 23.34, 44.04 0.94 M0.71 48.53 C15.94 30.19, 33.62 9.76, 41.94 -0.77 M1.79 55.7 C14.93 35.97, 32.67 19.5, 48.04 1.5 M-0.05 53.67 C17.81 33.45, 35.91 13.8, 47.11 0.03 M2.42 61.47 C15.04 43.69, 28.62 27.8, 51.42 0.8 M1.39 60.29 C13.66 45.47, 25.74 32.1, 52.84 -0.81 M7.39 60.61 C22.81 41.22, 43.44 16.85, 59.68 0.89 M5.57 61.29 C24.27 39.26, 43.53 16.76, 57.46 1.11 M11.87 58.44 C28.92 35.7, 51.78 13.18, 63.78 0.7 M10.78 59.24 C31.26 38.28, 49.9 15.46, 64.77 -0.54 M17.47 60.08 C30.47 42.46, 44.21 27.51, 68.75 2.13 M16.3 60.45 C35.62 37.58, 56.21 15.35, 68.89 0.16 M22.14 58.66 C31.29 46.7, 43.95 33.96, 72.82 0.18 M22.5 59.98 C38.69 40.8, 56.35 20.48, 73.54 0.26 M28.75 61.42 C46.06 37.41, 66.46 15.78, 80.05 1.13 M27.58 60.52 C39.9 44.87, 53.93 28.71, 78.89 0.93 M32.28 59.83 C54.29 35.08, 72.67 12.8, 83.44 0.58 M32.95 59.39 C44.92 46.87, 56.86 33.06, 84.85 0.37 M36.39 59.72 C50.63 45.36, 65.62 30.4, 89.57 1.64 M37.99 61.42 C56.9 39.86, 75.52 17.79, 89.89 0.76 M44.55 59.42 C58.21 43.48, 76.16 23.61, 93.72 1.03 M43.42 59.92 C61.62 37.92, 79.3 18.09, 96.34 -0.82 M48.7 59.87 C68.6 38.63, 89.22 13.33, 100.5 -0.78 M48.04 59.64 C59.45 47.82, 69.02 35.78, 101.22 0.58 M51.7 59.5 C68.91 38.69, 88.44 18.38, 106.94 -1.48 M53.45 60.4 C69.53 42.06, 84.19 24.55, 105.54 -1.33 M59.23 60.59 C76.12 39.47, 90.78 21.38, 111.19 1.24 M58.12 60.31 C72.7 44.88, 84.9 29.84, 111.11 0.91 M63.68 59.68 C80.65 43.3, 93.05 24.74, 114.9 0.55 M63.47 60.96 C77.92 43.36, 92.12 27.55, 117.21 0.16 M70.66 58.41 C89 40.08, 105.74 21.62, 123.2 -1.13 M68.55 61.11 C90.58 35.63, 110.98 11.23, 122.68 -0.12 M75.62 61.65 C91.48 41.57, 109.15 20.85, 128.56 2.22 M74.83 61.61 C85.8 47.73, 96.99 34.19, 126.01 1.32 M78.92 59.65 C99.83 39.41, 116.1 16.54, 133.28 -0.89 M79.53 60.34 C98.75 38, 120.51 14.05, 132 -0.8 M86.52 62.14 C94.31 47.31, 105.21 35.52, 132.86 4.72 M84.44 61.18 C95.52 48.4, 107.34 34.66, 131.29 6.7 M89.07 60.47 C100.18 50.36, 108.76 41.84, 130.2 13.6 M91.2 60.89 C100.13 49.71, 108.16 40.27, 132.84 13.02 M94.55 61.72 C106.45 45.41, 118.83 31.29, 131.8 20.24 M96.14 60.11 C103.43 51.08, 110.12 42.79, 132.2 18.66 M99.39 58.83 C107.16 52.46, 115.97 43.57, 132.88 23.37 M101.58 60.23 C113.41 47.65, 123.08 34.5, 132.88 24.63 M105.09 60.75 C117.39 48.06, 125.29 36.82, 131.86 28.79 M106.65 60.42 C114.94 50.83, 123.73 41.07, 133.04 30.1 M113.34 58.51 C117.88 53.56, 123.76 46.57, 130.97 35.6 M112.6 60.45 C118.82 51.37, 127.14 43.38, 132.23 37.31 M118.68 59.41 C121.28 55.85, 126.15 49.74, 130.77 42.96 M117.61 59.73 C119.36 57.47, 122.66 53.67, 132.12 43.32 M123.33 60.86 C125.05 56.44, 130.11 52.19, 133.58 48.62 M122.22 60.19 C124.29 58.23, 127.21 54.55, 132.52 49.06 M127.4 60.95 C128.79 58.32, 130.14 56.97, 132.6 55.13 M127.57 60.8 C129.34 58.34, 130.94 56.54, 131.98 55.15" stroke="#fab005" stroke-width="0.5" fill="none"></path><path d="M1.94 0.85 C33.23 1.85, 69.44 1.76, 131.26 1.87 M0.8 0.97 C44.78 -0.4, 89.24 0.49, 132.27 -0.15 M132.19 1.19 C132.64 24.45, 131.5 48.2, 133.1 59.55 M131.22 -0.72 C132.99 12.56, 131.8 25.53, 131.22 59.56 M132.75 61.87 C95.98 61.08, 64.34 58.26, 1.59 61.95 M131.88 59.9 C92.36 60.07, 51.59 60.58, -0.39 60.84 M-0.39 61.79 C0.58 44.89, 0.2 27.72, -0.09 1 M-0.09 59.96 C-0.27 44.19, -0.79 28.21, -0.47 0.26" stroke="#000000" stroke-width="1" fill="none"></path></g><g transform="translate(652.7713892833435 110.79973746657743) rotate(0 52.5 25)"><text x="52.5" y="18" font-family="Virgil, Segoe UI Emoji" font-size="20px" fill="#000000" text-anchor="middle" style="white-space: pre;" direction="ltr">Validation </text><text x="52.5" y="43" font-family="Virgil, Segoe UI Emoji" font-size="20px" fill="#000000" text-anchor="middle" style="white-space: pre;" direction="ltr">Data</text></g><g stroke-linecap="round" transform="translate(774.0709875892353 105.4581861999086) rotate(0 44.5 30.5)"><path d="M0 0 C0 0, 0 0, 0 0 M0 0 C0 0, 0 0, 0 0 M0.48 6.3 C1.08 4.17, 1.91 3.39, 4.68 1.09 M-0.62 6.19 C1.29 3.95, 3.68 2.17, 4.76 0.74 M0.32 12.4 C2.94 8.05, 9.15 4.49, 9.55 -1.47 M0.74 12.47 C2.2 8.85, 5.07 5.97, 10.75 0.05 M0.43 20.19 C3.83 15.84, 8.33 11.01, 15.72 -0.34 M-0.34 19.4 C4.7 13.1, 7.42 9.83, 16.44 1.08 M2.1 23.17 C6.85 18.1, 11.54 9.52, 21.99 -1.37 M-0.69 24.44 C6.37 15.52, 14.54 8.61, 21.05 -0.64 M1.48 28.65 C7.07 19.89, 14.37 12.38, 27.26 1.41 M-0.49 30.89 C7.66 20.23, 16.22 12.19, 26.26 -0.48 M0.98 35.92 C13.54 20.37, 24.56 7.09, 30.51 -1.17 M-0.05 36.73 C12.28 23.48, 23.03 10.83, 31 0.61 M1.22 42.77 C7.49 33.74, 14.27 25.24, 35.17 0.33 M0.56 41.92 C9.21 31.45, 20.24 19.92, 36.36 1.13 M0.91 47.88 C14.76 29.81, 32.31 14.11, 44.26 0.08 M-0.5 49.58 C17.25 28.77, 32.85 9.39, 42.83 -0.1 M-0.66 53.61 C12.04 42.19, 22.36 30.3, 48.97 -0.87 M-0.12 53.68 C14.13 39.08, 27.27 23.47, 47.15 1.03 M1 60.25 C14.63 43.36, 26.64 28.35, 51.85 -0.5 M0.56 59.97 C11.23 47.68, 22 34.11, 53.63 -1.14 M1.33 65.02 C17.04 45.66, 31.84 32.27, 59.38 -1.66 M2.08 63.92 C16.59 46.55, 30.81 31.43, 58.94 0.91 M6.09 62.27 C23.54 46.26, 37.32 31.41, 65.11 -1.99 M8.21 63.68 C19.41 50.32, 32.23 37.81, 63.44 0.76 M14.49 61.63 C31.69 42.39, 48.81 24.76, 70.29 0.28 M13.3 62.99 C27.35 48.31, 40.18 33.22, 67.95 1.06 M17.08 64.06 C38.95 41.06, 58.49 17, 75 0.37 M18.29 64.14 C31.41 48.7, 43.67 34.29, 75.15 0.42 M24.2 63 C40.66 44.98, 56.93 26.79, 78.78 1.12 M23.45 63.89 C36.81 47.99, 51.15 32.35, 80.3 0.38 M30.67 62.53 C46.38 43.49, 63.25 23.97, 83.73 -0.88 M29.16 64.4 C41.26 50.53, 54.24 35.7, 84.61 0.29 M34.87 63.43 C48.45 50.71, 58.24 38.3, 90.48 -0.43 M35.24 64.19 C49.78 45.97, 64.23 29.45, 89.36 1.08 M39.38 65.39 C57.03 45.58, 69.12 29.05, 90.73 5.42 M39.73 63.06 C57.17 43.43, 76.79 21.6, 90.63 7.17 M46.12 65.05 C60.17 47.27, 72.94 30.89, 87.65 13.96 M46.27 63.04 C55.53 51.78, 67.2 40.15, 89.88 13.83 M48.94 62.18 C61.54 50.47, 72.85 38.37, 89.89 17.95 M50.81 63.32 C60.73 51.27, 72.25 36.96, 90.16 19.19 M56.77 61.78 C61.56 54.9, 70.71 47.68, 88.79 26.57 M57.05 63.19 C64.23 54.23, 72.79 45.33, 89.54 23.95 M62.23 64.22 C70.08 51.06, 81.09 39.63, 88.88 32.18 M61.12 62.97 C69.37 54.06, 78.98 44.2, 89.69 31.02 M68.79 63.36 C75.89 56.03, 83.79 44.25, 91.73 36.79 M67 62.97 C74.83 53.12, 83.99 44.49, 90.08 36.71 M71.34 64.67 C77.19 57.32, 84.67 52.49, 87.94 42.39 M71.27 64.4 C77.05 56.83, 83.4 50.09, 89.98 43.97 M79.27 63.35 C81.22 57.3, 85.62 54.08, 91.42 49.79 M76.5 64.27 C82.93 57.98, 86.23 52, 89.2 49.93 M81.94 63.03 C84 60.96, 86.67 58.17, 89.03 56.26 M82.08 64.19 C84.32 61.55, 85.98 59.21, 89.13 55.28" stroke="#4c6ef5" stroke-width="0.5" fill="none"></path><path d="M-1.77 1.1 C21.06 0.63, 42.51 1.49, 89.78 -0.7 M0.05 -0.34 C26.91 -0.31, 54.54 -1.01, 89.9 -0.68 M90.05 1.08 C88.97 15.5, 90.16 27.65, 87.2 62.06 M89.67 -0.03 C88.01 23.8, 87.74 46.46, 88.58 61.25 M87.04 62.57 C66.07 60.58, 43.81 63.78, 0.14 59.28 M89.87 61.34 C64.74 61.77, 38.88 61.75, -0.36 60.13 M0.06 61.73 C-0.21 37.06, 0.03 15.35, -0.75 1.49 M0.18 60.94 C-0.28 39.99, -0.41 19.8, -0.75 -0.12" stroke="#000000" stroke-width="1" fill="none"></path></g><g transform="translate(788.5709875892353 110.9581861999086) rotate(0 30 25)"><text x="30" y="18" font-family="Virgil, Segoe UI Emoji" font-size="20px" fill="#000000" text-anchor="middle" style="white-space: pre;" direction="ltr">Test </text><text x="30" y="43" font-family="Virgil, Segoe UI Emoji" font-size="20px" fill="#000000" text-anchor="middle" style="white-space: pre;" direction="ltr">Data</text></g><g stroke-linecap="round" transform="translate(10 10) rotate(0 190.5 23)"><path d="M0 0 C0 0, 0 0, 0 0 M0 0 C0 0, 0 0, 0 0 M1.08 5.78 C1.15 5.02, 5.08 0.37, 4.07 -0.65 M0.35 6.85 C1.1 4.09, 3.68 2.69, 5.2 0.87 M-0.9 9.18 C2.93 4.73, 8.33 2.26, 9.36 -0.66 M1.53 13.05 C3.51 8.34, 6.05 5.21, 9.25 0.74 M2.79 18.76 C5.85 10.5, 8.5 9.56, 14.39 -2.24 M1.61 18.49 C4.01 13.72, 11.84 4.06, 17.16 1.03 M-0.06 26.98 C4.53 16.87, 13.13 5.58, 18.56 3.61 M0.84 22.35 C5.99 13.37, 16.87 4.64, 21.26 0.84 M-2.08 26.74 C10.95 18.85, 18.24 4.96, 30.21 -1.03 M1.19 30.03 C7.23 20.43, 14 13.49, 26.23 2.26 M-0.18 36.57 C10.34 21.11, 25.86 9.09, 32.36 -0.07 M-0.05 35.41 C4.53 28.47, 12.75 20.85, 30.3 0.32 M2.42 41.89 C10.57 29.99, 24.09 14.38, 33.38 2.27 M1.98 43.45 C13.23 26.22, 27.74 11.37, 37.53 1.27 M3.85 47.52 C8.49 36.5, 19.18 24.1, 40.49 3.12 M0.92 47.14 C18.48 27.34, 32.5 10.07, 40.92 0.71 M8.39 44.16 C16.19 38.76, 24.29 29.13, 46.76 2.81 M5.67 46.27 C16.7 35.64, 28.66 24.17, 47.05 1.78 M13.61 51.2 C28.39 33.54, 42.94 14.21, 52.62 2.54 M13.18 46.73 C23.42 34.58, 38.04 18.53, 51.2 1.17 M18.38 46.41 C31.44 27.05, 43.21 15.53, 60.83 -1.85 M17.99 46.43 C33.1 30.39, 49.15 10.34, 57.98 -0.64 M21.91 44.21 C33.38 36.37, 36.69 28.43, 66.04 1.91 M20.99 46.06 C33.9 29.91, 49.44 14.18, 64.42 -1.34 M29.25 45.4 C41.66 31.1, 48.79 20.29, 65.71 -3.79 M28.51 47.15 C41.34 30.69, 52.13 17.04, 68.67 1.38 M30.34 46.97 C46.42 34.6, 51.73 24.4, 73.68 3.35 M32.97 46.24 C47.05 33.34, 56.21 18.49, 73.04 -0.06 M37.44 47.76 C49.32 30.87, 59.55 21.19, 83.14 -0.72 M39.95 44.96 C54.47 31.01, 67.3 17.06, 80.68 -0.99 M40.16 50.28 C61.01 26.28, 75.49 5.88, 88.1 -0.67 M44.91 48.2 C57.17 32.31, 71.14 15.83, 86.7 1.61 M50.98 50.45 C56.7 38.73, 64.01 27.66, 86.46 4.02 M48.21 46.2 C64.82 30.69, 76.99 12.53, 90.76 -0.75 M52.21 47.31 C65.68 32.5, 88.67 10.34, 93.46 -3.28 M55.81 48.7 C61.87 35.48, 71.43 25.23, 96.24 -1.94 M57.55 48.83 C66.65 39.11, 77.76 25.75, 96.68 1.49 M58.36 47.02 C69.43 37.18, 77.87 28.82, 98.83 0.91 M67 49.61 C76.15 35.08, 81.86 27.68, 109.57 0.75 M63.84 48.27 C77.71 30.15, 91.61 14.29, 105.68 1.51 M71.79 45.4 C78.9 34.94, 83.65 27.1, 110.4 1.11 M68.02 46.14 C78.77 37.1, 90.1 25.31, 112.01 -1.4 M76.62 47.09 C93.85 31.33, 102.11 13.69, 119.18 -0.22 M74.38 47.3 C92.79 27.63, 106.34 9.88, 115.58 -1.26 M81.94 46.74 C93.68 33.23, 107.27 19, 123.86 -1.34 M81.98 45.81 C91.61 35.01, 102.99 21.71, 120.6 -1.25 M88.81 48.04 C98.51 29.19, 116.6 14.71, 126.67 2.29 M87.97 45.96 C100.15 31.89, 113.9 15.57, 125.64 0.08 M93.89 44.1 C96.63 39.74, 105.66 29.36, 132.92 0.33 M92.21 48.39 C104.49 29.81, 121.92 11.86, 134.09 -0.38 M94.94 47.15 C103.22 39.78, 116.26 23.12, 138.04 1.38 M96.36 48.24 C108.71 30.3, 121.45 16.19, 138.8 -0.08 M101.82 50.34 C117.43 27.25, 131.41 11.69, 141.07 -1.35 M100.55 49.27 C119.33 29.73, 134.77 7.81, 145.17 -0.76 M110 49.45 C122.45 33.64, 132.21 13.07, 147.61 3.78 M106.48 45.96 C119.18 34.45, 129.68 24.4, 147.82 1.73 M111.53 44.68 C128.41 26.23, 140.72 14.66, 151.41 -3.46 M114.04 45.66 C127.95 27.38, 145.3 10.18, 153.69 -0.5 M116.58 46.37 C129.03 30.43, 143.7 23.81, 161.29 -1.39 M116.44 46.72 C127.35 37.74, 136.08 27.69, 158.67 -1.21 M124.43 44.74 C140.97 28.23, 156.26 7.95, 166.68 -0.69 M124.86 48.6 C138.93 30.83, 151.52 14.23, 162.71 -1.94 M128.94 47.69 C143.92 29.14, 161.03 13.76, 172.63 -2.65 M127.55 45.97 C140.71 31.07, 155.49 17.52, 170.49 2.17 M137.58 50.5 C144.22 34.69, 156.21 20.03, 173.25 -1.39 M134.43 46.9 C146.26 31.73, 162.58 16.51, 174.48 0.43 M136.92 49.59 C147.96 36.39, 160.28 19.58, 178.8 1.86 M140.29 46.93 C150.73 35.18, 160.06 20.35, 179.62 0.79 M143.65 44.31 C157.44 32.12, 167.74 19.37, 189.11 -3.5 M145.33 47.23 C158.98 32.47, 172.18 15.5, 186.42 -0.08 M146.03 50.61 C166.38 28.68, 184.85 11.61, 188.61 -3.64 M150.35 48.68 C161.82 30.66, 176.89 16.84, 191.58 1.35 M154.94 46.9 C164.18 37.72, 176.38 20.6, 199.85 -2.61 M153.33 46.04 C169.65 32.67, 183.29 16.6, 195.15 1.63 M161.36 43.68 C178.51 29.83, 190.01 15.54, 198.48 3.46 M160.59 46.07 C169.69 37.29, 177.64 29.36, 201.09 0.38 M163.37 45.39 C177.89 35.97, 192.12 18.01, 206.73 0.08 M167.39 45.62 C177.68 32.09, 195.19 16.56, 208.46 -1.5 M171.66 48.09 C189.04 30.03, 203.19 12.55, 208.45 -3.84 M173.07 45.79 C183.37 30.18, 197.4 16.61, 212.03 0.22 M172.5 49.26 C189.98 31.01, 204.98 17.02, 218.59 -2.26 M177.66 46.04 C191.92 27.72, 206.35 11.04, 217.36 -0.73 M181.28 45.5 C193.96 40.48, 201.27 24.8, 222.2 1.79 M181.02 46.33 C195.09 31.41, 211.57 16.14, 221.49 1.01 M189.49 50.35 C198.16 29.31, 213.89 13.78, 227.93 1.91 M187.47 45.21 C200.24 28.95, 215.74 15.29, 228.03 0.5 M193.56 44.72 C207.9 32.49, 218.66 16.82, 231.03 -1.89 M192.23 46.75 C205.4 35.11, 217.93 17.03, 231.76 0.71 M201.15 46.92 C207.91 28.67, 219.61 17.97, 234.21 3.28 M197.35 46.84 C209.67 31.99, 219.06 21.34, 237.16 -0.69 M205.43 46.66 C219.68 31.74, 237.4 13.42, 245.87 1.21 M203.61 47.65 C212.18 36.27, 224.61 24.4, 242.27 -0.9 M205.9 43.56 C221.61 26.9, 239.01 10.99, 246.46 0.61 M209 48.45 C219.32 36.95, 230.39 22.08, 250.63 -1.63 M211.45 48.87 C227.83 29.63, 240.08 21.94, 257.26 1.58 M213.32 47.74 C222.39 35.25, 231.08 26.4, 253.7 1.77 M221.79 43.25 C228.95 38.73, 237.63 24.62, 263.4 -2.65 M217.33 45.38 C232.65 31.15, 245.03 17.57, 259.52 -1.56 M222.49 50.52 C234.86 27.54, 252.08 18, 267.37 -3.93 M223.35 48.74 C231.64 38.37, 242.88 27.84, 263.86 0.12 M230.48 47.36 C240.03 35.38, 252.55 23.3, 268.01 -1.47 M230.41 46.78 C238.34 33.2, 253.3 18, 270.77 -0.69 M233.04 45.15 C243.87 31.93, 257.05 20, 274.01 -4.09 M234.87 48.22 C245.68 34.86, 253.27 22.9, 275.78 -0.65 M241.29 47.62 C248.86 38.9, 258.57 25.67, 282.9 3.57 M241.53 47.61 C254.59 28.73, 268.83 8.96, 282.48 0.6 M245.21 44.68 C257.63 32.47, 269.28 19.73, 286.59 2.73 M244.25 47.53 C256.41 33.36, 267.28 23.59, 285.67 -1.5 M251.13 50.12 C259.66 32.71, 267.45 29.52, 290.32 -1.73 M249.13 48.65 C260.56 35.1, 271.53 21.62, 291.96 1.75 M252.74 47.41 C271.38 30.71, 285.46 9.04, 294.18 0.48 M255.05 47.87 C271.95 31.78, 283.8 17.64, 298.93 -1.6 M260.56 43.37 C278.96 28.01, 287.6 10.36, 304.11 2.8 M260.87 48.48 C271.08 31.61, 283.04 18.77, 303.71 2 M264.98 46 C283.7 28.79, 296.06 13.55, 305.43 3.55 M266.01 46.23 C280.86 28.11, 295.74 11.35, 306.14 1.69 M273.74 46.2 C288.96 24.87, 305.2 13.17, 313.78 -0.29 M273.59 47.5 C285.71 32.54, 295.03 20.02, 313.39 0.39 M274.92 43.51 C290.37 39.07, 295.22 22.28, 316.65 0.65 M275.05 47.41 C291.54 28.25, 309.49 9.3, 319.08 0.85 M282.48 43.86 C294.2 29.35, 307.34 20.1, 324.42 -2.1 M281.3 47.92 C291.51 35.81, 300.33 26.39, 323.89 -0.19 M291.19 45.35 C306.36 28.28, 318.99 10.28, 327.77 2.89 M287.3 48.02 C300.81 33.2, 313.44 17.69, 330.7 -1.86 M290.19 43.96 C307.27 29.03, 323.69 15.39, 332.78 0.69 M291.21 45.78 C304.79 32.76, 318.89 16.69, 333.24 -1.06 M298 43.32 C313.36 30.89, 327.78 10.06, 342.33 -4.24 M299.04 48.51 C310.02 33.67, 322.42 17.32, 339.16 -2.34 M303.28 45.22 C318.37 29.79, 331.78 17.93, 343.21 -2.27 M303.08 47.65 C316.26 31.88, 326.48 20.49, 342.7 0.26 M311.22 47.59 C320.1 38.98, 331.62 27.56, 350.85 3.87 M309.79 49.11 C322.18 33.93, 334.05 18.72, 351.13 2.05 M317.73 50.51 C325.33 32.32, 334.8 21.32, 351.7 -2.92 M315.78 47.69 C327.71 29.64, 343.4 11.07, 356.69 -1.92 M322.34 46.7 C325.22 33.71, 337.65 24.97, 357.45 -0.07 M318.21 45.88 C328.94 36.7, 340.84 24.66, 360.45 1.52 M323.18 47.29 C342.6 29.6, 355.6 16.57, 361.87 1.15 M323.45 48.1 C332.08 35.42, 342.73 27.97, 366.82 -1.49 M330.47 47.57 C337.74 32.48, 352.79 21.42, 367.88 -2.67 M330.18 46.69 C340.09 35.16, 350.61 26.05, 372.17 -1.66 M337.56 44.69 C346.76 40.27, 356.7 29.53, 376.95 -1.27 M334.03 48.16 C345.14 33.81, 354.71 23.35, 375.91 -0.5 M342.35 43.49 C345.71 33.95, 361.69 26.28, 384.2 -0.97 M338.73 47.21 C351.38 37.13, 358.82 28.06, 381.18 -0.13 M342.4 50.19 C351.92 34.51, 363.91 23.39, 377.9 3.8 M344.69 48.95 C356.94 34.92, 370.92 23.36, 380.03 5.58 M348.34 46.15 C366.72 34.12, 373.13 18.62, 377.58 10.46 M352.13 46.95 C360.6 35.54, 365.99 29.14, 381.08 11.31 M354.9 45.64 C359.42 36.94, 370.04 31.64, 384.51 16.38 M357.74 45.39 C360.61 39.86, 367.01 32.23, 381.68 16.78 M362.42 45.57 C369.32 36.68, 376.64 29.6, 383.82 27.3 M361.79 45.2 C367.83 39.78, 373.5 34.18, 379.64 23.56 M363.84 51.27 C372 44.65, 378.91 32.62, 379.49 27.12 M368.73 46.18 C371.91 44.32, 373.07 38.3, 381.82 29.2 M373.64 49.06 C374.97 43.12, 377.86 41.64, 382.47 39.25 M373.72 45.74 C374.62 44.41, 377.67 39.84, 382.12 37.79 M377.6 46.83 C378.6 46.19, 379.1 43.43, 381.23 42.64 M377.8 46.87 C379.01 46.03, 380.36 43.49, 381.06 43.16" stroke="#228be6" stroke-width="0.5" fill="none"></path><path d="M-0.27 -1.43 C115.8 4.1, 234.32 0.1, 379.37 1.75 M-0.29 -1.1 C146.89 -1.2, 291.53 0.19, 379.81 0.26 M381.97 -3.63 C376.6 16.9, 376.93 28.35, 382.05 48.09 M381.92 1.07 C381.94 11.02, 380.19 23.86, 380.53 45.27 M380 46.68 C246.19 47.4, 112.35 44.44, -0.37 47.13 M379.99 46.82 C267.11 49.69, 152.25 49.22, -0.47 45.72 M-3.07 45.92 C1.33 34.78, 4.04 23.44, 1.12 0.37 M-0.22 45.36 C0.42 36.55, -0.72 26.17, -0.66 -0.43" stroke="#000000" stroke-width="1" fill="none"></path></g><g transform="translate(77.5 15) rotate(0 123 18)"><text x="123" y="25" font-family="Virgil, Segoe UI Emoji" font-size="28px" fill="#000000" text-anchor="middle" style="white-space: pre;" direction="ltr">Data Partitioning</text></g><g stroke-linecap="round" transform="translate(12.414414087041223 55.93811414008087) rotate(0 676.3257631366068 583.4616640020613)"><path d="M-0.34 1.54 C353.58 5.31, 703.82 7.62, 1353.97 1.2 M1354.12 -0.73 C1350.31 368.01, 1348.79 734.09, 1353.24 1165.88 M1351.13 1167.49 C898.06 1156.04, 446.66 1157.93, -0.33 1166 M1.18 1165.46 C-4.53 832.51, -4.68 500.44, 0.81 0.9" stroke="#000000" stroke-width="1.5" fill="none" stroke-dasharray="8 9"></path></g><g transform="translate(55.324050040455404 230.73328777025745) rotate(0 194 25)"><text x="194" y="18" font-family="Virgil, Segoe UI Emoji" font-size="20px" fill="#000000" text-anchor="middle" style="white-space: pre;" direction="ltr">Used by the Machine Learning algorithm</text><text x="194" y="43" font-family="Virgil, Segoe UI Emoji" font-size="20px" fill="#000000" text-anchor="middle" style="white-space: pre;" direction="ltr">to train the model</text></g><g transform="translate(485.0631288448749 231.35112758886862) rotate(0 198 25)"><text x="198" y="18" font-family="Virgil, Segoe UI Emoji" font-size="20px" fill="#000000" text-anchor="middle" style="white-space: pre;" direction="ltr">Needed to find the best values for the</text><text x="198" y="43" font-family="Virgil, Segoe UI Emoji" font-size="20px" fill="#000000" text-anchor="middle" style="white-space: pre;" direction="ltr">hyperparameters of the ML Pipeline</text></g><g transform="translate(930.0209738189678 227.8294889358349) rotate(0 199 37.5)"><text x="199" y="18" font-family="Virgil, Segoe UI Emoji" font-size="20px" fill="#000000" text-anchor="middle" style="white-space: pre;" direction="ltr">Used for reporting, once we have the</text><text x="199" y="43" font-family="Virgil, Segoe UI Emoji" font-size="20px" fill="#000000" text-anchor="middle" style="white-space: pre;" direction="ltr">best model we test its performance</text><text x="199" y="68" font-family="Virgil, Segoe UI Emoji" font-size="20px" fill="#000000" text-anchor="middle" style="white-space: pre;" direction="ltr">on the test set and report the results</text></g><g stroke-linecap="round"><g transform="translate(823.4035295399226 169.66596993962958) rotate(0 146.4402098926048 21.353078892830126)"><path d="M1.06 1.08 C6.29 5.22, -11.47 24.83, 31.4 24.1 C74.26 23.37, 214.75 -7.15, 258.27 -3.28 C301.8 0.59, 287 38.92, 292.55 47.32 M0.16 0.6 C5.22 4.48, -12.57 23.39, 30.36 22.41 C73.29 21.43, 214.02 -9.61, 257.74 -5.28 C301.47 -0.94, 286.82 39.62, 292.72 48.4" stroke="#364fc7" stroke-width="1" fill="none"></path></g><g transform="translate(823.4035295399226 169.66596993962958) rotate(0 146.4402098926048 21.353078892830126)"><path d="M280.73 21.48 C284.27 30.35, 288.13 37.34, 292.64 46.53 M279.3 22.13 C283.09 29.61, 285.43 35.81, 293.13 48.4" stroke="#364fc7" stroke-width="1" fill="none"></path></g><g transform="translate(823.4035295399226 169.66596993962958) rotate(0 146.4402098926048 21.353078892830126)"><path d="M301.08 18.85 C298.51 28.69, 296.29 36.46, 292.64 46.53 M299.65 19.5 C297.75 27.75, 294.42 34.68, 293.13 48.4" stroke="#364fc7" stroke-width="1" fill="none"></path></g></g><mask></mask><g stroke-linecap="round"><g transform="translate(702.2982859848526 166.05224663613262) rotate(0 0.19975829570466885 29.462515715797053)"><path d="M1.04 0 C0.89 9.69, 0.57 48.58, 0.23 58.37 M0.13 -1.05 C-0.27 8.84, -0.8 50.36, -0.6 59.97" stroke="#e67700" stroke-width="1" fill="none"></path></g><g transform="translate(702.2982859848526 166.05224663613262) rotate(0 0.19975829570466885 29.462515715797053)"><path d="M-10.57 32.98 C-6.36 41.7, -1.79 53.05, -2.15 59.52 M-10.7 31.72 C-7.04 43.01, -2.88 52.14, -0.35 59.39" stroke="#e67700" stroke-width="1" fill="none"></path></g><g transform="translate(702.2982859848526 166.05224663613262) rotate(0 0.19975829570466885 29.462515715797053)"><path d="M9.35 32.98 C5.64 41.87, 2.27 53.22, -2.15 59.52 M9.22 31.71 C5.91 43.19, 3.1 52.32, -0.35 59.39" stroke="#e67700" stroke-width="1" fill="none"></path></g></g><mask></mask><g stroke-linecap="round"><g transform="translate(521.9443648921097 171.87789629416147) rotate(0 -129.01544881991595 25.018479437329916)"><path d="M0.3 0.29 C-1.42 5.15, 26.45 29.23, -11.25 28.83 C-48.96 28.43, -183.38 -5.86, -225.94 -2.12 C-268.51 1.61, -259.87 42.38, -266.64 51.25 M-1 -0.61 C-2.83 3.95, 25.23 27.16, -12.34 27.14 C-49.9 27.12, -184.09 -4.94, -226.4 -0.72 C-268.72 3.49, -259.3 43.74, -266.21 52.45" stroke="#5c940d" stroke-width="1" fill="none"></path></g><g transform="translate(521.9443648921097 171.87789629416147) rotate(0 -129.01544881991595 25.018479437329916)"><path d="M-268.81 22.18 C-267.3 30.22, -267.73 36.52, -265.91 53.12 M-269.35 22.8 C-268.51 31.94, -267.72 40.98, -266.75 52.35" stroke="#5c940d" stroke-width="1" fill="none"></path></g><g transform="translate(521.9443648921097 171.87789629416147) rotate(0 -129.01544881991595 25.018479437329916)"><path d="M-248.91 27.17 C-251.83 34.15, -256.69 39.34, -265.91 53.12 M-249.45 27.79 C-254.66 35.42, -259.88 42.94, -266.75 52.35" stroke="#5c940d" stroke-width="1" fill="none"></path></g></g><mask></mask><g stroke-linecap="round" transform="translate(640.2642197044333 93.513805816081) rotate(0 115.01789479131094 41.40079852676536)"><path d="M20.7 0 M20.7 0 C65.25 -0.15, 107 0.27, 209.34 0 M209.34 0 C223.08 1.99, 229.71 5.89, 230.04 20.7 M230.04 20.7 C229.62 29.48, 230.3 39.91, 230.04 62.1 M230.04 62.1 C228.61 74.73, 224.52 84.31, 209.34 82.8 M209.34 82.8 C138.54 84.45, 65.71 82.82, 20.7 82.8 M20.7 82.8 C6.97 83.89, -0.49 75.97, 0 62.1 M0 62.1 C0.25 45.76, -0.62 33.01, 0 20.7 M0 20.7 C-1.75 8.51, 6.84 -1.35, 20.7 0" stroke="#d9480f" stroke-width="2.5" fill="none" stroke-dasharray="8 10"></path></g><g stroke-linecap="round"><g transform="translate(872.7121493829654 122.40340963590279) rotate(0 22.540302862617864 -4.350370288067097)"><path d="M-0.92 -0.78 C6.81 -2.15, 37.92 -7.05, 46 -8.38 M0.79 1.43 C8.36 -0.27, 37 -8.08, 44.77 -10.13" stroke="#d9480f" stroke-width="2" fill="none"></path></g><g transform="translate(872.7121493829654 122.40340963590279) rotate(0 22.540302862617864 -4.350370288067097)"><path d="M24.05 2.55 C31.66 1.76, 36.21 -3.5, 45.4 -10.96 M25.02 3.19 C30.51 -0.22, 35.53 -3.86, 44.23 -10.69" stroke="#d9480f" stroke-width="2" fill="none"></path></g><g transform="translate(872.7121493829654 122.40340963590279) rotate(0 22.540302862617864 -4.350370288067097)"><path d="M19.84 -13.12 C28.55 -9.74, 34.21 -10.86, 45.4 -10.96 M20.82 -12.48 C27.48 -12.03, 33.53 -11.85, 44.23 -10.69" stroke="#d9480f" stroke-width="2" fill="none"></path></g></g><mask></mask><g transform="translate(928.168291623997 81.71392131581342) rotate(0 160 30)"><text x="160" y="14" font-family="Virgil, Segoe UI Emoji" font-size="16px" fill="#000000" text-anchor="middle" style="white-space: pre;" direction="ltr">a.k.a. Holdout sets</text><text x="160" y="34" font-family="Virgil, Segoe UI Emoji" font-size="16px" fill="#000000" text-anchor="middle" style="white-space: pre;" direction="ltr">They contain examples that the learning</text><text x="160" y="54" font-family="Virgil, Segoe UI Emoji" font-size="16px" fill="#000000" text-anchor="middle" style="white-space: pre;" direction="ltr">algorithm is not allowed to see</text></g><g transform="translate(60.638235937389254 337.35510137260826) rotate(0 284 12.5)"><text x="0" y="18" font-family="Virgil, Segoe UI Emoji" font-size="20px" fill="#000000" text-anchor="start" style="white-space: pre;" direction="ltr">To be effective, partitioning has to satisfy 4 conditions:</text></g><g transform="translate(65.7516412643181 388.25974074854275) rotate(0 209 12.5)"><text x="0" y="18" font-family="Virgil, Segoe UI Emoji" font-size="20px" fill="#c92a2a" text-anchor="start" style="white-space: pre;" direction="ltr">Condition 1: Split was applied to raw data</text></g><g transform="translate(140.98610415194344 433.0790143413542) rotate(0 396.5 12.5)"><text x="0" y="18" font-family="Virgil, Segoe UI Emoji" font-size="20px" fill="#000000" text-anchor="start" style="white-space: pre;" direction="ltr">Once we have access to raw examples, and before everything else, do the split.</text></g><g stroke-linecap="round"><g transform="translate(584.3888361427871 457.3463451181906) rotate(0 104.93125502456769 1.1129067824294907)"><path d="M-0.84 0.2 C34.36 0.34, 175.38 1.3, 210.7 1.38 M0.92 -0.74 C36.06 -0.43, 175.12 2.55, 210.1 2.96" stroke="#d9480f" stroke-width="2" fill="none"></path></g></g><mask></mask><g transform="translate(68.54265405598744 488.6573790229995) rotate(0 253 12.5)"><text x="0" y="18" font-family="Virgil, Segoe UI Emoji" font-size="20px" fill="#c92a2a" text-anchor="start" style="white-space: pre;" direction="ltr">Condition 2: Data was randomized before the split</text></g><g transform="translate(141.27185787826602 528.6583362903675) rotate(0 274.5 12.5)"><text x="0" y="18" font-family="Virgil, Segoe UI Emoji" font-size="20px" fill="#000000" text-anchor="start" style="white-space: pre;" direction="ltr">Randomly shuffle your examples first, then do the split</text></g><g transform="translate(70.74258808957711 578.4462461416988) rotate(0 330 12.5)"><text x="0" y="18" font-family="Virgil, Segoe UI Emoji" font-size="20px" fill="#c92a2a" text-anchor="start" style="white-space: pre;" direction="ltr">Condition 3: Validation and Test sets follow the same distribution</text></g><g transform="translate(143.47179191185387 618.447203409065) rotate(0 535 25)"><text x="0" y="18" font-family="Virgil, Segoe UI Emoji" font-size="20px" fill="#000000" text-anchor="start" style="white-space: pre;" direction="ltr">When you select the best values of hyperparameters using the validation set, you want that this selection</text><text x="0" y="43" font-family="Virgil, Segoe UI Emoji" font-size="20px" fill="#000000" text-anchor="start" style="white-space: pre;" direction="ltr">yealds a model that works well in production.</text></g><g transform="translate(143.03696930441583 685.4449856660758) rotate(0 423.5 12.5)"><text x="0" y="18" font-family="Virgil, Segoe UI Emoji" font-size="20px" fill="#000000" text-anchor="start" style="white-space: pre;" direction="ltr">The examples in the test set are your best representatives of the production data</text></g><g transform="translate(240.99810919198535 729.5211169845024) rotate(0 404 12.5)"><text x="0" y="18" font-family="Virgil, Segoe UI Emoji" font-size="20px" fill="#000000" text-anchor="start" style="white-space: pre;" direction="ltr">Hence, the need for the validation and test sets to follow the same distribution</text></g><g stroke-linecap="round"><g transform="translate(185.762988635508 721.489008543449) rotate(0 17.451162788037436 12.463705916314211)"><path d="M-0.39 -0.09 C-1.3 3.64, -11.47 18.96, -4.35 23.31 C2.76 27.67, 34.53 25.5, 42.31 26.02 M1.61 -1.18 C0.41 2.1, -12.1 17.27, -5.49 21.44 C1.13 25.61, 33.31 23.38, 41.28 23.87" stroke="#c92a2a" stroke-width="2" fill="none"></path></g><g transform="translate(185.762988635508 721.489008543449) rotate(0 17.451162788037436 12.463705916314211)"><path d="M19.14 31.39 C28.64 28.04, 37.08 24.9, 42.61 25.79 M19.32 31.12 C23.57 30.03, 28.74 28.3, 41.19 24.14" stroke="#c92a2a" stroke-width="2" fill="none"></path></g><g transform="translate(185.762988635508 721.489008543449) rotate(0 17.451162788037436 12.463705916314211)"><path d="M19.07 15.35 C28.73 18.3, 37.19 21.45, 42.61 25.79 M19.25 15.08 C23.67 17.68, 28.85 19.62, 41.19 24.14" stroke="#c92a2a" stroke-width="2" fill="none"></path></g></g><mask></mask><g transform="translate(73.68402926198723 776.4259790369451) rotate(0 246.5 12.5)"><text x="0" y="18" font-family="Virgil, Segoe UI Emoji" font-size="20px" fill="#c92a2a" text-anchor="start" style="white-space: pre;" direction="ltr">Condition 4: Leakage during the split was avoided</text></g><g transform="translate(146.41323308426763 816.4269363043113) rotate(0 219 12.5)"><text x="0" y="18" font-family="Virgil, Segoe UI Emoji" font-size="20px" fill="#000000" text-anchor="start" style="white-space: pre;" direction="ltr">Group Leakage may occur during partitioning</text></g><g transform="translate(198.7819224330251 860.1749536744064) rotate(0 528 100)"><text x="0" y="18" font-family="Virgil, Segoe UI Emoji" font-size="20px" fill="#000000" text-anchor="start" style="white-space: pre;" direction="ltr">E.g., Imagine you have magnetic resonance images of the brains of multiple patients.</text><text x="0" y="43" font-family="Virgil, Segoe UI Emoji" font-size="20px" fill="#000000" text-anchor="start" style="white-space: pre;" direction="ltr">    Each image is labeled with certain brain disease, and the same patient may be represented by several</text><text x="0" y="68" font-family="Virgil, Segoe UI Emoji" font-size="20px" fill="#000000" text-anchor="start" style="white-space: pre;" direction="ltr">    images taken at different times.</text><text x="0" y="93" font-family="Virgil, Segoe UI Emoji" font-size="20px" fill="#000000" text-anchor="start" style="white-space: pre;" direction="ltr">    </text><text x="0" y="118" font-family="Virgil, Segoe UI Emoji" font-size="20px" fill="#000000" text-anchor="start" style="white-space: pre;" direction="ltr">    If you apply the partitioning techniques discussed above (shuffle, then split), images of the same</text><text x="0" y="143" font-family="Virgil, Segoe UI Emoji" font-size="20px" fill="#000000" text-anchor="start" style="white-space: pre;" direction="ltr">    patient might appear both in the training and holdout data.</text><text x="0" y="168" font-family="Virgil, Segoe UI Emoji" font-size="20px" fill="#000000" text-anchor="start" style="white-space: pre;" direction="ltr"></text><text x="0" y="193" font-family="Virgil, Segoe UI Emoji" font-size="20px" fill="#000000" text-anchor="start" style="white-space: pre;" direction="ltr">    The model might learn from the particularities of the patient rather than the disease!</text></g><g transform="translate(154.37465516128577 1092.7786781623763) rotate(0 138 12.5)"><text x="0" y="18" font-family="Virgil, Segoe UI Emoji" font-size="20px" fill="#000000" text-anchor="start" style="white-space: pre;" direction="ltr">Solution: Group Partitioning!</text></g><g transform="translate(211.53016790993024 1126.0707981953728) rotate(0 372 12.5)"><text x="0" y="18" font-family="Virgil, Segoe UI Emoji" font-size="20px" fill="#000000" text-anchor="start" style="white-space: pre;" direction="ltr">Keeping all patient examples together in one set, either training or holdout</text></g><g stroke-linecap="round"><g transform="translate(577.1317882869298 925.104227462045) rotate(0 26.62240694006232 13.690774433623119)"><path d="M-0.23 0.74 C8.09 0.75, 42 -4.22, 50.78 0.62 C59.55 5.45, 52.04 24.91, 52.4 29.76 M-1.8 0.08 C6.23 -0.31, 40.69 -6.26, 49.57 -1.17 C58.46 3.92, 50.88 25.34, 51.51 30.6" stroke="#d9480f" stroke-width="2" fill="none"></path></g><g transform="translate(577.1317882869298 925.104227462045) rotate(0 26.62240694006232 13.690774433623119)"><path d="M48.95 15.02 C50.21 20.96, 49.52 27.28, 50.31 30.83 M48.56 16.2 C48.39 21.11, 50.84 25.93, 51.07 30.37" stroke="#d9480f" stroke-width="2" fill="none"></path></g><g transform="translate(577.1317882869298 925.104227462045) rotate(0 26.62240694006232 13.690774433623119)"><path d="M59.39 16.26 C56.73 21.72, 52.12 27.57, 50.31 30.83 M59 17.45 C55.36 21.9, 54.34 26.3, 51.07 30.37" stroke="#d9480f" stroke-width="2" fill="none"></path></g></g><mask></mask><g stroke-linecap="round"><g transform="translate(841.8063475018716 995.1424274670499) rotate(0 27.684335931985515 13.62919121897994)"><path d="M-1.18 0.28 C6.96 0.25, 41.27 -4.17, 50.06 0.74 C58.85 5.65, 51.05 24.73, 51.57 29.74 M0.39 -0.61 C8.78 -1.07, 43.23 -6.18, 52.14 -0.99 C61.06 4.21, 53.65 25.07, 53.9 30.56" stroke="#d9480f" stroke-width="2" fill="none"></path></g><g transform="translate(841.8063475018716 995.1424274670499) rotate(0 27.684335931985515 13.62919121897994)"><path d="M51.13 13.98 C53.11 20.17, 52.17 28.21, 54.03 31.84 M51.45 15.67 C51.93 18.52, 52.51 22.93, 54.66 30.08" stroke="#d9480f" stroke-width="2" fill="none"></path></g><g transform="translate(841.8063475018716 995.1424274670499) rotate(0 27.684335931985515 13.62919121897994)"><path d="M61.54 15.48 C59.36 20.98, 54.27 28.41, 54.03 31.84 M61.86 17.17 C59.75 19.74, 57.77 23.78, 54.66 30.08" stroke="#d9480f" stroke-width="2" fill="none"></path></g></g><mask></mask></svg>