<svg version="1.1" xmlns="http://www.w3.org/2000/svg" viewBox="0 0 1375.0726755008536 807.4296231814296" width="4125.218026502561" height="2422.288869544289">
  <!-- svg-source:excalidraw -->
  
  <defs>
    <style class="style-fonts">
      @font-face {
        font-family: "Virgil";
        src: url("https://excalidraw.com/Virgil.woff2");
      }
      @font-face {
        font-family: "Cascadia";
        src: url("https://excalidraw.com/Cascadia.woff2");
      }
    </style>
  </defs>
  <rect x="0" y="0" width="1375.0726755008536" height="807.4296231814296" fill="#ffffff"></rect><g stroke-linecap="round" transform="translate(10 10) rotate(0 159.5 24)"><path d="M0 0 C0 0, 0 0, 0 0 M0 0 C0 0, 0 0, 0 0 M-1.63 6.34 C2.26 3.78, 2.16 5.29, 6.03 1.96 M-0.44 7.1 C1.21 3.83, 3.67 2.35, 4.82 0.71 M2.62 10.14 C0.14 6.89, 8 8.24, 13.49 2.74 M-0.83 12.67 C4 9.28, 8.38 3.52, 9.8 1.08 M0.59 16.87 C7.8 11.45, 9.63 4.16, 14.58 1.14 M0.32 17.75 C3 13.95, 9.16 7.26, 17.4 0.64 M-1.81 26.99 C11.48 15.83, 16.56 7.74, 17.78 1.3 M-0.3 24.91 C7.2 14.05, 12.36 8.48, 22.6 0.69 M0.5 32.91 C4.42 19.21, 12.71 10.24, 27.5 1.56 M-1.93 29.95 C6.29 25.11, 12.23 16.83, 24.57 0.79 M3.18 39.97 C7.68 20.72, 19.7 12.89, 31.32 3.27 M-2.23 36.87 C11.37 24.57, 21.62 8.21, 32.69 -0.21 M-0.87 44.3 C12.32 31.3, 28.16 8.29, 35.42 1.57 M0.52 44.29 C14.58 25.83, 27.06 13.46, 37.06 2.21 M1.22 50.27 C19.66 29.7, 33.81 8.41, 45.88 3.3 M2.09 46.97 C13.64 33.72, 27.51 17.63, 41.81 0.18 M8.79 46.96 C17.59 38.71, 23.6 26.28, 47.4 1.09 M6.88 48.26 C20.15 34.59, 32.49 19.23, 47.81 -0.55 M9.91 48.02 C23.15 36.98, 33.71 22.49, 56.54 -0.69 M10.14 47.94 C21.8 36.08, 32.63 20.82, 53.94 1.39 M16.53 46.82 C29.25 39.79, 39.36 28.64, 60.5 4.07 M17.12 49.39 C30.21 30.82, 42.15 17.78, 59.81 1.02 M24.47 48.47 C37.62 34.31, 48.83 11.1, 62.35 1.24 M23.07 47.62 C33.98 33.27, 48.94 16.25, 63.05 0.96 M24.18 51.85 C46.63 28.87, 56.55 11.92, 67.78 2.45 M27.97 47.26 C36.38 40.05, 45.1 30.28, 70.03 1.47 M29.97 51.57 C38.53 33.97, 47.95 27.12, 74.37 -0.96 M33.83 48.55 C44.77 32.02, 56.72 18.05, 73.11 -1.57 M34.8 52 C48.72 36.35, 61.42 17.51, 82.31 0.15 M39.39 49.39 C45.67 39.88, 56.99 27.96, 77.42 1.33 M39.47 45.25 C58.04 36.57, 69.97 21.89, 83.67 2.64 M41.39 47.27 C56.56 32.48, 72.71 15.23, 86.08 -0.69 M47.44 49.19 C64.89 28.72, 79.97 13.08, 89.15 -2.88 M49.35 49.32 C63.73 30.25, 79.47 14.93, 90.96 -0.88 M54.03 45.44 C65.8 35.05, 77.87 20.93, 93.32 1.97 M54.74 46.29 C63.91 36.75, 77.17 21.29, 93.94 -0.86 M57.17 49.37 C72.23 36.39, 80.51 24.01, 101.37 -2.7 M57.81 46.57 C68.38 37.1, 81.78 23.74, 101.63 -0.62 M62.05 48.85 C74.46 35.6, 82.4 24.31, 102.37 -1.02 M64.17 46.91 C70.78 36.52, 80.5 28.63, 106.65 -0.54 M71.06 46.48 C80.23 38.47, 85.18 30.59, 112.01 0.63 M70.76 46.69 C81.93 33.72, 99.05 16.46, 110.37 0.64 M73.91 45.89 C89.68 33.18, 107.29 15.13, 113.22 0.36 M75.96 50.15 C89.43 31.22, 109.08 9.23, 115.52 0.55 M76.16 46.45 C96.57 35.11, 109.67 16.61, 118.16 3.03 M80.15 49.19 C88.27 35.7, 102.59 23.35, 120.18 -0.57 M86.02 49.27 C101.81 30.64, 116.47 17.08, 126.26 -1.47 M84.44 49.3 C98.74 30.89, 115.32 14.5, 127.84 -1.58 M87.55 51.22 C103.23 40.69, 107.02 28.29, 128.86 -3.55 M91.96 47.61 C105.7 28.34, 123.51 10.48, 132.01 -1.72 M99.44 50.92 C115.48 28.74, 124.97 10.7, 135.9 0.19 M94.57 46.88 C108.16 34.47, 119.04 19.61, 138.93 1.38 M100.27 50.72 C112.81 34.36, 122.65 17.09, 141.19 0.83 M102.15 49.48 C109.73 39.22, 120.32 25.74, 144.84 1.72 M103.23 46.77 C119.46 30.1, 135.09 18.36, 149.18 -0.73 M105.32 47.43 C119.94 30.73, 132.8 14.23, 146.74 -1.06 M113.39 46.91 C121.48 35.58, 132.18 24.64, 156.2 0.11 M112.7 48.34 C123.05 33.64, 136.96 17.57, 155.62 0.28 M114.45 44.76 C130.26 28.99, 149.47 15.54, 161.18 1.72 M117.66 49.48 C130.71 31.47, 142.96 17.5, 159.24 -1.36 M121.98 45.7 C139.52 28.08, 154.3 8.67, 162.96 -1.79 M123.57 47.71 C137.56 31.21, 152.71 16.21, 163.34 -1.5 M130.18 48.84 C143.12 34.38, 153.28 13.3, 170.96 1.46 M126.55 49.55 C136.41 37.43, 147.37 28.74, 170.41 2.01 M133.1 49.04 C146.7 37.65, 155.84 26.77, 178.52 3.08 M132.73 49.13 C146.77 30.86, 161.11 16.7, 176.96 -1.09 M135.46 50.93 C146.01 35.85, 152.24 24.13, 181.58 -3.56 M136.97 50.19 C155.01 31.42, 170.91 13.15, 180.22 0.58 M141.81 46.87 C151.76 38.76, 170.36 25.76, 183.96 2.66 M144.14 48.12 C153.42 32.87, 165.14 22.65, 187.44 -1.97 M151.36 46.99 C158.57 37.35, 164.31 28.4, 192.11 -3.4 M147.88 47.92 C163.57 31.2, 179.76 10.34, 190.63 -0.11 M155.18 49.13 C158.88 34.47, 173.47 30.85, 196.34 -3.12 M155.79 46.22 C162.91 39.52, 174.18 28.46, 195.77 -1.6 M162.95 44.93 C166.85 38.17, 177.27 32.28, 197.6 -0.13 M160.25 49.27 C171.13 35.53, 181.08 24.81, 201.61 -0.54 M168.26 45.75 C182.19 32.95, 195.75 16.2, 204.71 -2.32 M163.63 46.96 C172.05 35.74, 181.26 26.36, 208.9 0.55 M167.29 48.71 C174.08 35.89, 184.29 27.47, 213.12 0.19 M169.05 46.78 C180.48 34.88, 192.37 22.25, 211.13 0.82 M172.12 46.66 C186.14 30.93, 205.06 16.69, 218.14 -2.99 M173.64 47.87 C184.29 37.49, 193.86 28.45, 215.8 -0.99 M181.43 50.25 C192.63 36.16, 207.9 16.81, 225.73 3.5 M179.26 46.98 C192.25 32.01, 203.98 20.79, 223.16 -0.49 M185.16 50.57 C195.88 37.06, 210.81 16.43, 225.69 -1.22 M185.12 49.23 C199.87 30.21, 216.66 15.19, 227.45 -1.68 M194.45 45.5 C205.48 30.21, 212.57 19.32, 234.49 3.73 M189.83 46.39 C202.39 36.7, 213.76 24.76, 231.67 1.06 M199.76 49.9 C211.28 29.63, 232.49 13.19, 235.77 3.71 M197.37 47.08 C212.56 33.09, 226.35 16.37, 240.16 1.75 M199.4 50.39 C212.87 31.69, 224.72 21.86, 242.47 -1.17 M201.74 47.55 C218.38 31.75, 231.73 13.02, 244.63 1 M210.33 51.35 C219.31 34.47, 224.92 27.12, 246.76 -1.79 M205.69 49.69 C219.05 32.72, 232.54 17.09, 250.2 0.33 M209.35 44.87 C220.24 38.18, 231.68 24.1, 256.72 -1.28 M213.96 46.99 C229.7 31.56, 244.87 12.17, 256 0.86 M215.93 48.84 C233.53 27.6, 246.47 9.97, 259.05 -1.02 M216.04 46.59 C226.71 35.65, 234.37 28.29, 257.89 1.35 M225.36 44.86 C235.84 31.31, 251.86 12.9, 264.32 1.35 M223.45 47.24 C235.44 32.59, 246.4 20.39, 265.75 0.17 M227.61 48.32 C238.62 31.8, 256.67 21.16, 269.72 1.96 M228.41 49.32 C244.47 30.82, 257.4 16.56, 270.2 1.34 M236.49 46.31 C250.62 36.02, 257.74 16.96, 272.32 0.66 M233.18 48.83 C242.01 34.96, 253.02 26.7, 275.86 0.47 M236.45 51.72 C252.09 37.16, 261.66 19.94, 279.82 -0.92 M236.75 47.41 C249.2 35.84, 257.7 26.95, 280.1 -1.18 M243.81 49.15 C252.97 38.57, 263.85 19.76, 283.79 2.58 M244.13 46.3 C256.37 35.77, 265.82 21.9, 286.29 1.27 M245.51 48.99 C257.2 37.47, 268.35 25.44, 294.42 2.28 M249.05 48.39 C264.3 28.31, 283.7 9.05, 290.55 -1.66 M252.37 49.33 C264.06 38.25, 273.28 30.68, 297.78 1.04 M255.26 48.17 C264.52 36.8, 276.72 22.32, 295.01 0.13 M261.84 50.05 C269.14 29.5, 288.14 21.26, 298.57 3.5 M259.25 49.79 C270.1 41.17, 278.54 28.91, 302.53 -1.59 M263.24 46.77 C276.4 32.66, 288.68 20.57, 309.37 2 M267.53 48.98 C277.42 36.83, 290.8 20.46, 305.99 0.56 M272.52 44.86 C285.24 35.7, 294 15.14, 313.35 -1.33 M271.34 47.14 C282.55 34.38, 295.57 16.81, 311.01 -0.42 M273.49 45.42 C293.22 27.42, 303.22 13.12, 317.61 -0.62 M275.93 49.26 C287.15 34.28, 298.04 25.3, 317.2 0.1 M284.6 51.33 C291.71 40.65, 299.56 28.69, 321.85 6.01 M279.29 49.97 C297.51 34.3, 309.21 15.36, 322.97 2.64 M284.17 45.21 C300.09 33.76, 301.91 30.31, 318.34 7.42 M285.41 47.53 C300.23 31.29, 316.62 14.3, 321.39 6.58 M293.14 51.42 C296.75 40.24, 311.44 34.06, 322.56 12.98 M291.05 49.82 C301.67 38.21, 312.21 23.6, 322.84 15.66 M299.69 50.84 C306.39 39.21, 316.44 26.89, 321.92 24.3 M298.3 49.09 C301.43 43.05, 308.92 35.38, 319.8 21.75 M305.22 47.06 C306.97 39.69, 311.57 38.18, 325.09 25.73 M300.61 48.21 C306.75 44.33, 312.55 34.98, 320.11 27.36 M306.42 44.73 C313.02 46.38, 313.03 41.47, 320 34.65 M308.86 46.95 C311.88 43.48, 320.1 35.57, 321.01 31.88 M314.92 50.82 C314.63 47.51, 318.78 45.05, 319.6 39.58 M312.35 48.54 C315.74 46.25, 316.95 43.64, 321.72 38.35 M317.79 48.37 C319.08 47.61, 319.47 46.55, 320.8 43.94 M318.45 49.08 C319.68 46.79, 320.62 45.36, 321.63 44.46" stroke="#228be6" stroke-width="0.5" fill="none"></path><path d="M-2.72 2.63 C85.75 5.22, 170.04 4.97, 320.35 2.17 M0.7 0.07 C125.67 -1.63, 252.47 -1.69, 319.4 0.41 M318.04 -0.75 C315.18 18.61, 316.74 41.39, 322.45 49.54 M317.09 -1.64 C321.69 12.55, 321.69 25.43, 319.3 48.14 M317.08 47.98 C215.24 48.97, 111.95 47.89, -0.46 48.19 M320.09 49.37 C235.47 46.78, 153.68 48.04, -0.32 49.29 M-2.95 44.78 C-3.98 36.28, 2.31 29.07, 3.12 2.88 M1.43 49.29 C0.04 33.34, 0.32 15.78, -1.26 -0.33" stroke="#000000" stroke-width="1" fill="none"></path></g><g transform="translate(21 16) rotate(0 148.5 18)"><text x="148.5" y="25" font-family="Virgil, Segoe UI Emoji" font-size="28px" fill="#000000" text-anchor="middle" style="white-space: pre;" direction="ltr">Unsupervised Learning</text></g><g stroke-linecap="round" transform="translate(12.421149227639035 61.256072145479266) rotate(0 676.3257631366073 368.0867755179752)"><path d="M0.28 1.5 C327.51 -8.77, 656.34 -8.9, 1354.16 -0.81 M1352.56 -0.21 C1356.69 244.34, 1356.03 489.69, 1354.15 736.08 M1351.15 736.05 C1002.5 735.58, 655.49 734.77, -0.75 737.38 M1.57 736.49 C7.19 514.99, 5.86 292.14, 0.43 1.36" stroke="#000000" stroke-width="1.5" fill="none" stroke-dasharray="8 9"></path></g><g transform="translate(58.95956156598186 95.8335840823529) rotate(0 243.5 12.5)"><text x="0" y="18" font-family="Virgil, Segoe UI Emoji" font-size="20px" fill="#000000" text-anchor="start" style="white-space: pre;" direction="ltr">We work with a collection of unlabeled examples: </text></g><g stroke-linecap="round"><g transform="translate(341.88965526297943 127.6205287835055) rotate(0 95.16839319972769 -2.635369793382779)"><path d="M1.13 -0.21 C32.62 -0.78, 158.6 -2.83, 190.08 -3.24 M0.26 -1.36 C31.59 -2.31, 158.09 -4.55, 189.66 -5.06" stroke="#364fc7" stroke-width="1" fill="none"></path></g></g><mask></mask><g transform="translate(731.4577882238773 95.80068908512112) rotate(0 75.5 12.5)"><text x="0" y="18" font-family="Virgil, Segoe UI Emoji" font-size="20px" fill="#000000" text-anchor="start" style="white-space: pre;" direction="ltr">{x1, x2, ..., xN}</text></g><g stroke-linecap="round"><g transform="translate(842.4574678004301 182.28488275589916) rotate(0 -47.419497305740606 -23.90826012011803)"><path d="M0.58 0.93 C-13.52 -0.28, -68.96 1.7, -84.79 -6.24 C-100.63 -14.18, -92.75 -39.86, -94.41 -46.71 M-0.58 0.37 C-14.72 -0.17, -69.42 3.16, -85.15 -5.02 C-100.88 -13.21, -93.42 -41.86, -94.97 -48.74" stroke="#364fc7" stroke-width="1" fill="none"></path></g><g transform="translate(842.4574678004301 182.28488275589916) rotate(0 -47.419497305740606 -23.90826012011803)"><path d="M-86.45 -26.73 C-91.15 -33.62, -91.11 -39.85, -95.08 -49.01 M-87.7 -27.67 C-90.59 -36.45, -93.35 -43.65, -95.91 -48.82" stroke="#364fc7" stroke-width="1" fill="none"></path></g><g transform="translate(842.4574678004301 182.28488275589916) rotate(0 -47.419497305740606 -23.90826012011803)"><path d="M-101.02 -26.95 C-101.6 -33.85, -97.45 -40.02, -95.08 -49.01 M-102.27 -27.9 C-99.79 -36.63, -97.16 -43.75, -95.91 -48.82" stroke="#364fc7" stroke-width="1" fill="none"></path></g></g><mask></mask><g stroke-linecap="round"><g transform="translate(844.4185549681642 184.2738715703308) rotate(0 -25.106868232703164 -29.057102082277197)"><path d="M0.93 1.13 C-7.12 -3.3, -39.07 -15.93, -47.27 -25.99 C-55.48 -36.05, -48.03 -53.67, -48.31 -59.24 M-0.05 0.68 C-7.79 -4.17, -36.76 -18.14, -44.88 -27.91 C-53 -37.67, -48.11 -52.81, -48.76 -57.89" stroke="#364fc7" stroke-width="1" fill="none"></path></g><g transform="translate(844.4185549681642 184.2738715703308) rotate(0 -25.106868232703164 -29.057102082277197)"><path d="M-42.5 -42.91 C-45.41 -47.31, -47.67 -54.31, -48.98 -56.75 M-43.28 -42.13 C-45.77 -46.73, -46.91 -51.78, -48.82 -58.35" stroke="#364fc7" stroke-width="1" fill="none"></path></g><g transform="translate(844.4185549681642 184.2738715703308) rotate(0 -25.106868232703164 -29.057102082277197)"><path d="M-53.77 -43.59 C-52.34 -47.81, -50.26 -54.55, -48.98 -56.75 M-54.55 -42.8 C-53.85 -47.25, -51.81 -52.11, -48.82 -58.35" stroke="#364fc7" stroke-width="1" fill="none"></path></g></g><mask></mask><g stroke-linecap="round"><g transform="translate(844.968616003016 181.5554539922923) rotate(0 14.621639507694454 -26.720107695960905)"><path d="M1.13 -0.61 C5.76 -4.57, 25.26 -13.79, 28.39 -22.88 C31.51 -31.97, 21.34 -49.9, 19.89 -55.13 M0.26 1.69 C4.72 -2.71, 24.49 -15.43, 27.64 -24.69 C30.79 -33.95, 20.45 -48.57, 19.15 -53.85" stroke="#364fc7" stroke-width="1" fill="none"></path></g><g transform="translate(844.968616003016 181.5554539922923) rotate(0 14.621639507694454 -26.720107695960905)"><path d="M29.58 -41.5 C27.2 -45.95, 22.39 -50.37, 20.28 -54.13 M30.35 -42.37 C26.48 -45.95, 22.22 -49.74, 18.7 -53.12" stroke="#364fc7" stroke-width="1" fill="none"></path></g><g transform="translate(844.968616003016 181.5554539922923) rotate(0 14.621639507694454 -26.720107695960905)"><path d="M19.35 -37.04 C20.5 -43.14, 19.25 -49.11, 20.28 -54.13 M20.12 -37.91 C19.6 -43.05, 18.69 -48.3, 18.7 -53.12" stroke="#364fc7" stroke-width="1" fill="none"></path></g></g><mask></mask><g transform="translate(785.2869937215582 193.956017007662) rotate(0 75.5 12.5)"><text x="0" y="18" font-family="Virgil, Segoe UI Emoji" font-size="20px" fill="#364fc7" text-anchor="start" style="white-space: pre;" direction="ltr">Feature Vector</text></g><g stroke-linecap="round"><g transform="translate(996.652607735663 174.45755613617803) rotate(0 -21.47601815598273 13.107751902985001)"><path d="M0.6 0.06 C-3.47 2.52, -17.73 10.8, -25.03 15.11 C-32.33 19.43, -40.11 24.06, -43.22 25.96 M-0.55 -0.95 C-4.73 1.66, -18.84 11.88, -26.01 16.57 C-33.18 21.25, -40.67 25.29, -43.55 27.17" stroke="#364fc7" stroke-width="1" fill="none"></path></g><g transform="translate(996.652607735663 174.45755613617803) rotate(0 -21.47601815598273 13.107751902985001)"><path d="M-36.58 18.56 C-38.48 21.55, -40.25 23.23, -43.23 28.2 M-36.74 18.1 C-38.75 20.81, -40.25 24.1, -43.34 26.91" stroke="#364fc7" stroke-width="1" fill="none"></path></g><g transform="translate(996.652607735663 174.45755613617803) rotate(0 -21.47601815598273 13.107751902985001)"><path d="M-32.71 25 C-35.59 26.4, -38.33 26.47, -43.23 28.2 M-32.86 24.54 C-35.98 25.35, -38.62 26.75, -43.34 26.91" stroke="#364fc7" stroke-width="1" fill="none"></path></g></g><mask></mask><g transform="translate(985.9788962255734 115.58195382901613) rotate(0 90 25)"><text x="0" y="18" font-family="Virgil, Segoe UI Emoji" font-size="20px" fill="#364fc7" text-anchor="start" style="white-space: pre;" direction="ltr">1-dimensional array</text><text x="0" y="43" font-family="Virgil, Segoe UI Emoji" font-size="20px" fill="#364fc7" text-anchor="start" style="white-space: pre;" direction="ltr">with D values</text></g><g stroke-linecap="round" transform="translate(1027.2139983400575 140.3280377306619) rotate(0 14.225853865125373 12.051518397648579)"><path d="M19.35 1.66 C22.15 2.23, 25.03 3.54, 26.47 5.58 C27.91 7.63, 28.67 11.33, 28 13.93 C27.33 16.53, 24.84 19.34, 22.46 21.19 C20.07 23.03, 16.46 24.91, 13.71 25 C10.96 25.08, 8.3 23.37, 5.97 21.69 C3.64 20.01, 0.43 17.69, -0.25 14.93 C-0.92 12.16, 0.45 7.3, 1.91 5.1 C3.36 2.89, 5.35 2.19, 8.51 1.72 C11.67 1.25, 18.52 2.17, 20.87 2.29 C23.21 2.4, 22.71 2.35, 22.58 2.41 M20.07 1.39 C22.98 2.58, 26.58 5.5, 27.96 7.73 C29.34 9.96, 29.24 12.53, 28.35 14.78 C27.46 17.03, 25.15 19.72, 22.63 21.24 C20.11 22.75, 16.09 23.74, 13.23 23.89 C10.37 24.04, 7.76 24.04, 5.45 22.14 C3.14 20.25, -0.21 15.23, -0.62 12.52 C-1.04 9.81, 1.17 7.66, 2.95 5.88 C4.72 4.1, 7.36 2.49, 10.03 1.83 C12.71 1.17, 17.11 2.21, 18.97 1.94 C20.84 1.66, 21.32 0.36, 21.21 0.18" stroke="#d9480f" stroke-width="1" fill="none"></path></g><g stroke-linecap="round"><g transform="translate(1132.9041310663197 194.73438023365816) rotate(0 -45.547903768644574 -5.084272444309136)"><path d="M-0.16 0.83 C-7.25 2.99, -27.46 16.69, -42.49 12.89 C-57.52 9.09, -82.31 -15.89, -90.36 -21.97 M-1.7 0.22 C-8.97 2.01, -28.68 14.93, -43.55 10.94 C-58.42 6.95, -83.1 -18.1, -90.94 -23.72" stroke="#d9480f" stroke-width="1" fill="none"></path></g><g transform="translate(1132.9041310663197 194.73438023365816) rotate(0 -45.547903768644574 -5.084272444309136)"><path d="M-61.4 -13.68 C-70.81 -15.96, -78.08 -19.83, -91.77 -24.2 M-63.34 -12.45 C-69.75 -15.89, -79 -18.44, -90.92 -24.67" stroke="#d9480f" stroke-width="1" fill="none"></path></g><g transform="translate(1132.9041310663197 194.73438023365816) rotate(0 -45.547903768644574 -5.084272444309136)"><path d="M-74.66 1.98 C-80.01 -5.06, -83.24 -13.71, -91.77 -24.2 M-76.6 3.22 C-79.13 -4.63, -84.65 -11.58, -90.92 -24.67" stroke="#d9480f" stroke-width="1" fill="none"></path></g></g><mask></mask><g transform="translate(1144.4374790640086 168.0102137312897) rotate(0 66.5 25)"><text x="66.5" y="18" font-family="Virgil, Segoe UI Emoji" font-size="20px" fill="#e67700" text-anchor="middle" style="white-space: pre;" direction="ltr">Vector</text><text x="66.5" y="43" font-family="Virgil, Segoe UI Emoji" font-size="20px" fill="#e67700" text-anchor="middle" style="white-space: pre;" direction="ltr">Dimensionality</text></g><g transform="translate(61.75679516466698 178.66170164555297) rotate(0 23 12.5)"><text x="0" y="18" font-family="Virgil, Segoe UI Emoji" font-size="20px" fill="#364fc7" text-anchor="start" style="white-space: pre;" direction="ltr">Goal</text></g><g transform="translate(65.60182533625994 219.9372005389123) rotate(0 77 12.5)"><text x="0" y="18" font-family="Virgil, Segoe UI Emoji" font-size="20px" fill="#000000" text-anchor="start" style="white-space: pre;" direction="ltr">Create a model</text></g><g transform="translate(190.37978169904454 269.81923723527143) rotate(0 203.5 12.5)"><text x="0" y="18" font-family="Virgil, Segoe UI Emoji" font-size="20px" fill="#000000" text-anchor="start" style="white-space: pre;" direction="ltr">that takes a feature vector x as input</text></g><g transform="translate(430.6874037398993 331.7747003530094) rotate(0 50.5 12.5)"><text x="0" y="18" font-family="Virgil, Segoe UI Emoji" font-size="20px" fill="#000000" text-anchor="start" style="white-space: pre;" direction="ltr">and either</text></g><g transform="translate(646.9093101885519 309.8230159505074) rotate(0 185.5 12.5)"><text x="0" y="18" font-family="Virgil, Segoe UI Emoji" font-size="20px" fill="#000000" text-anchor="start" style="white-space: pre;" direction="ltr">transforms it into another vector, or</text></g><g transform="translate(647.5895803516396 362.61787230796836) rotate(0 137 12.5)"><text x="0" y="18" font-family="Virgil, Segoe UI Emoji" font-size="20px" fill="#000000" text-anchor="start" style="white-space: pre;" direction="ltr">transforms it into a value </text></g><g transform="translate(855.2661945397194 410.9423880311879) rotate(0 232 12.5)"><text x="0" y="18" font-family="Virgil, Segoe UI Emoji" font-size="20px" fill="#000000" text-anchor="start" style="white-space: pre;" direction="ltr">that can be used to solve a practical problem</text></g><g stroke-linecap="round"><g transform="translate(115.52499938067194 251.40749617478286) rotate(0 30.290534507391385 14.506849208252788)"><path d="M-1.13 -0.09 C-1.59 4.3, -14.63 21.07, -3.04 26.11 C8.55 31.16, 56.76 29.44, 68.41 30.2 M0.48 -1.18 C0.44 2.91, -11.96 19.67, -0.67 24.55 C10.61 29.44, 56.94 27.43, 68.18 28.1" stroke="#364fc7" stroke-width="1" fill="none"></path></g><g transform="translate(115.52499938067194 251.40749617478286) rotate(0 30.290534507391385 14.506849208252788)"><path d="M39.76 37.04 C49.52 37.36, 56.31 31.93, 69.7 28.13 M40.11 39.12 C46.34 35.96, 51.63 34.03, 69.03 27.93" stroke="#364fc7" stroke-width="1" fill="none"></path></g><g transform="translate(115.52499938067194 251.40749617478286) rotate(0 30.290534507391385 14.506849208252788)"><path d="M39.92 16.52 C49.6 22.5, 56.35 22.74, 69.7 28.13 M40.27 18.6 C46.3 19.63, 51.56 21.9, 69.03 27.93" stroke="#364fc7" stroke-width="1" fill="none"></path></g></g><mask></mask><g stroke-linecap="round"><g transform="translate(313.78780848903443 304.6877962319886) rotate(0 48.41621636347418 20.46843039014948)"><path d="M-0.09 -0.66 C1.92 5.82, -4.59 30.87, 11.83 37.74 C28.25 44.62, 83.92 40, 98.43 40.57 M-1.6 1.61 C0.37 7.87, -5.14 29.5, 11.44 36.16 C28.03 42.83, 83.22 40.58, 97.91 41.6" stroke="#364fc7" stroke-width="1" fill="none"></path></g><g transform="translate(313.78780848903443 304.6877962319886) rotate(0 48.41621636347418 20.46843039014948)"><path d="M68.45 53.18 C79.35 49.43, 84.66 47.41, 97.94 39.69 M70.53 51.95 C75.78 49.27, 82.08 47.92, 97.74 40.91" stroke="#364fc7" stroke-width="1" fill="none"></path></g><g transform="translate(313.78780848903443 304.6877962319886) rotate(0 48.41621636347418 20.46843039014948)"><path d="M68.79 32.66 C79.39 34.68, 84.62 38.44, 97.94 39.69 M70.87 31.43 C76.25 33.23, 82.47 36.34, 97.74 40.91" stroke="#364fc7" stroke-width="1" fill="none"></path></g></g><mask></mask><g stroke-linecap="round"><g transform="translate(543.4572927743648 352.4136598714358) rotate(0 47.78213021757847 -13.242203016228814)"><path d="M-0.66 1.07 C15.57 -3.19, 80.34 -21.29, 96.22 -25.68 M1.2 0.59 C17.45 -4.03, 80.42 -22.94, 95.82 -27.56" stroke="#364fc7" stroke-width="1" fill="none"></path></g><g transform="translate(543.4572927743648 352.4136598714358) rotate(0 47.78213021757847 -13.242203016228814)"><path d="M73.55 -7.91 C77.5 -14.13, 83.2 -16.85, 93.91 -29.2 M72.32 -9.49 C81.38 -16.73, 91.73 -24.31, 95.13 -27.56" stroke="#364fc7" stroke-width="1" fill="none"></path></g><g transform="translate(543.4572927743648 352.4136598714358) rotate(0 47.78213021757847 -13.242203016228814)"><path d="M67.65 -27.57 C72.81 -29.7, 79.72 -28.38, 93.91 -29.2 M66.43 -29.14 C77.87 -28.62, 90.57 -28.37, 95.13 -27.56" stroke="#364fc7" stroke-width="1" fill="none"></path></g></g><mask></mask><g stroke-linecap="round"><g transform="translate(542.3916714820298 357.2178926446868) rotate(0 47.013761243435965 7.498558757552928)"><path d="M1.07 1.03 C16.73 3.35, 78.32 11.09, 93.85 13.22 M0.17 0.53 C15.72 3.06, 77.51 12.03, 93.15 14.47" stroke="#364fc7" stroke-width="1" fill="none"></path></g><g transform="translate(542.3916714820298 357.2178926446868) rotate(0 47.013761243435965 7.498558757552928)"><path d="M65.47 21.2 C71.44 19.94, 81.01 14.77, 91.5 16.43 M63.89 20.5 C73.36 19.21, 82.31 15.77, 93.14 14.68" stroke="#364fc7" stroke-width="1" fill="none"></path></g><g transform="translate(542.3916714820298 357.2178926446868) rotate(0 47.013761243435965 7.498558757552928)"><path d="M68.51 0.91 C73.48 5.6, 82.16 6.37, 91.5 16.43 M66.94 0.21 C75.63 5.42, 83.61 8.47, 93.14 14.68" stroke="#364fc7" stroke-width="1" fill="none"></path></g></g><mask></mask><g stroke-linecap="round"><g transform="translate(753.7385972280572 388.93232628608166) rotate(0 40.54701150317442 18.491184388125475)"><path d="M1.03 0.46 C1.9 5.47, -9.44 25.1, 4.52 31.13 C18.48 37.15, 71.57 35.31, 84.77 36.61 M0.12 -0.34 C0.83 4.86, -10.71 23.2, 3.28 29.48 C17.26 35.76, 70.65 36.07, 84.02 37.32" stroke="#364fc7" stroke-width="1" fill="none"></path></g><g transform="translate(753.7385972280572 388.93232628608166) rotate(0 40.54701150317442 18.491184388125475)"><path d="M56.11 45.19 C63.8 43.76, 67.41 39.92, 85.98 37.71 M55.41 46.4 C67.56 42.41, 77.45 39.07, 84.24 37.93" stroke="#364fc7" stroke-width="1" fill="none"></path></g><g transform="translate(753.7385972280572 388.93232628608166) rotate(0 40.54701150317442 18.491184388125475)"><path d="M57.16 24.7 C64.78 28.29, 68.13 29.48, 85.98 37.71 M56.46 25.91 C68.3 30.08, 77.77 34.89, 84.24 37.93" stroke="#364fc7" stroke-width="1" fill="none"></path></g></g><mask></mask><g transform="translate(78.55606394121605 484.76066308496956) rotate(0 410.5 12.5)"><text x="0" y="18" font-family="Virgil, Segoe UI Emoji" font-size="20px" fill="#000000" text-anchor="start" style="white-space: pre;" direction="ltr">The model returns the ID of the cluster for each feature vector in the dataset</text></g><g transform="translate(56.90862182577621 445.53355823314996) rotate(0 41.5 12.5)"><text x="41.5" y="18" font-family="Virgil, Segoe UI Emoji" font-size="20px" fill="#a61e4d" text-anchor="middle" style="white-space: pre;" direction="ltr">Example:</text></g><g transform="translate(150.03635635113278 446.15375048009446) rotate(0 48 12.5)"><text x="0" y="18" font-family="Virgil, Segoe UI Emoji" font-size="20px" fill="#000000" text-anchor="start" style="white-space: pre;" direction="ltr">Clustering</text></g><g stroke-linecap="round"><g transform="translate(306.6172063339618 510.76934117910423) rotate(0 88.2793906608913 0.6617238172539146)"><path d="M0.02 -1.15 C29.41 -0.89, 146.29 1.87, 175.79 2.47 M-1.43 0.87 C28.38 0.75, 148.35 0.99, 177.99 0.96" stroke="#364fc7" stroke-width="1" fill="none"></path></g></g><mask></mask><g transform="translate(908.9029007510362 490.46329556537967) rotate(0 194 25)"><text x="194" y="18" font-family="Virgil, Segoe UI Emoji" font-size="20px" fill="#e67700" text-anchor="middle" style="white-space: pre;" direction="ltr">Useful for finding groups of similar</text><text x="194" y="43" font-family="Virgil, Segoe UI Emoji" font-size="20px" fill="#e67700" text-anchor="middle" style="white-space: pre;" direction="ltr">objects in a large collection of objects</text></g><g transform="translate(59.60118198800046 558.5951110317837) rotate(0 41.5 12.5)"><text x="41.5" y="18" font-family="Virgil, Segoe UI Emoji" font-size="20px" fill="#a61e4d" text-anchor="middle" style="white-space: pre;" direction="ltr">Example:</text></g><g transform="translate(152.72891651335704 559.2153032787246) rotate(0 118.5 12.5)"><text x="0" y="18" font-family="Virgil, Segoe UI Emoji" font-size="20px" fill="#000000" text-anchor="start" style="white-space: pre;" direction="ltr">Dimensionality Reduction</text></g><g transform="translate(87.89935033131405 603.6569474309399) rotate(0 446.5 12.5)"><text x="0" y="18" font-family="Virgil, Segoe UI Emoji" font-size="20px" fill="#000000" text-anchor="start" style="white-space: pre;" direction="ltr">The model returns a feature vector with fewer dimensions than the one provided as input</text></g><g transform="translate(993.0064965236579 610.8045983435004) rotate(0 143.5 25)"><text x="143.5" y="18" font-family="Virgil, Segoe UI Emoji" font-size="20px" fill="#e67700" text-anchor="middle" style="white-space: pre;" direction="ltr">Useful to mitigate the curse</text><text x="143.5" y="43" font-family="Virgil, Segoe UI Emoji" font-size="20px" fill="#e67700" text-anchor="middle" style="white-space: pre;" direction="ltr">of dimensionality</text></g><g transform="translate(58.66455083285109 669.5740020168887) rotate(0 41.5 12.5)"><text x="41.5" y="18" font-family="Virgil, Segoe UI Emoji" font-size="20px" fill="#a61e4d" text-anchor="middle" style="white-space: pre;" direction="ltr">Example:</text></g><g transform="translate(151.79228535820948 670.1941942638296) rotate(0 86 12.5)"><text x="0" y="18" font-family="Virgil, Segoe UI Emoji" font-size="20px" fill="#000000" text-anchor="start" style="white-space: pre;" direction="ltr">Outlier Detection</text></g><g transform="translate(86.96271917616468 714.6358384160449) rotate(0 438.5 25)"><text x="0" y="18" font-family="Virgil, Segoe UI Emoji" font-size="20px" fill="#000000" text-anchor="start" style="white-space: pre;" direction="ltr">The model returns a real number that indicates how the input feature is different from</text><text x="0" y="43" font-family="Virgil, Segoe UI Emoji" font-size="20px" fill="#000000" text-anchor="start" style="white-space: pre;" direction="ltr">a "typical" example in the dataset</text></g><g transform="translate(980.3187058880685 719.7321052807711) rotate(0 121.5 25)"><text x="121.5" y="18" font-family="Virgil, Segoe UI Emoji" font-size="20px" fill="#e67700" text-anchor="middle" style="white-space: pre;" direction="ltr">Useful for solving a</text><text x="121.5" y="43" font-family="Virgil, Segoe UI Emoji" font-size="20px" fill="#e67700" text-anchor="middle" style="white-space: pre;" direction="ltr">network intrusion problem</text></g></svg>