<svg version="1.1" xmlns="http://www.w3.org/2000/svg" viewBox="0 0 1356.8571440710402 345.2309155287894" width="100%" height="100%">
  <!-- svg-source:excalidraw -->
  
  <defs>
    <style class="style-fonts">
      @font-face {
        font-family: "Virgil";
        src: url("https://excalidraw.com/Virgil.woff2");
      }
      @font-face {
        font-family: "Cascadia";
        src: url("https://excalidraw.com/Cascadia.woff2");
      }
    </style>
  </defs>
  <rect x="0" y="0" width="1356.8571440710402" height="345.2309155287894" fill="#ffffff"></rect><g stroke-linecap="round" transform="translate(10 10) rotate(0 242.5 23)"><path d="M0 0 C0 0, 0 0, 0 0 M0 0 C0 0, 0 0, 0 0 M-1.23 7.69 C1.31 5.38, 1.21 4.19, 5.42 -0.09 M0.28 6.98 C1.01 3.91, 3.34 2.13, 5.18 0.89 M-3.01 12.64 C1.95 6.32, 6.11 2.81, 8.01 2.42 M-1.21 13.33 C2.74 9.5, 7.13 4.46, 9.54 0.48 M-2.32 15.73 C3.81 10.05, 14.5 8.06, 11.78 -1.57 M-1.94 18.87 C7.66 12.53, 13.12 2.22, 15.26 0.61 M-0.16 24.11 C3.46 13.59, 14.06 6.44, 24.73 3.67 M-1.28 25.07 C5.42 17.18, 12.52 11.83, 22.91 1.64 M-0.79 30.36 C8.67 20.33, 12.86 20.15, 22.81 -0.99 M-0.11 30.12 C6.37 24.02, 11.74 18.73, 27.97 -1.67 M2.21 37.65 C12.37 24.74, 19.2 9.44, 29.88 -2.07 M0.88 38.31 C8.69 27.62, 15.52 18.59, 30.3 1.39 M-2.16 43.41 C13.29 29.45, 23.18 13.79, 38.54 2.45 M1.5 41.99 C10.33 33.32, 18.1 22.51, 35.28 -1.04 M3.82 45.33 C8.29 34.86, 19.24 26.7, 46.14 2.32 M0.03 45.72 C13.14 35.1, 23.45 21.47, 41.67 -2.03 M5.94 49.35 C22.6 31.58, 39.74 8.37, 48.24 2.33 M8.44 48.31 C16.22 34.27, 24.42 26, 46.97 1.56 M15.65 49.95 C24.78 34.53, 30.07 22.79, 50.68 -2.5 M9.89 49.33 C25.37 30.28, 39.37 12.48, 51.32 -1.59 M20.59 49.35 C34.45 30.79, 44.9 12.97, 55.02 0.38 M17.11 46.37 C31.12 34.6, 42.92 20.71, 58.86 0.14 M22.14 49.28 C33.99 38.82, 39.46 25.89, 62.58 0.24 M21.84 48.96 C30.02 35.92, 39.1 26.13, 65.61 -1.32 M31.42 50.22 C44.21 31.67, 61.19 8.27, 67.9 -1.58 M26.7 47.92 C45.49 28.72, 57.3 13.71, 68.84 -0.36 M30.79 46.67 C47.67 30.31, 59.91 14.97, 70.78 -0.55 M34.54 48.78 C47.63 30.82, 61.17 17.81, 74.95 -0.32 M41.87 50.36 C51.99 35.23, 66.43 16.15, 77.76 -1.58 M40.36 45.12 C54.22 29.56, 70.69 7.37, 80.85 -0.07 M47 45.57 C59.31 28.32, 73.78 9.63, 82.1 -3.86 M44.67 47.94 C55.71 33.49, 63.79 25.22, 85.82 -0.72 M49.26 44.29 C66.9 27.05, 79.83 7.48, 89.34 2.47 M49.34 47.07 C58.57 37.34, 68.39 28.49, 88.91 -0.16 M58 49.57 C67.52 39.16, 72.42 29.82, 97.24 3.48 M55.01 48.5 C64.11 36.05, 74.13 27.63, 96.78 0.24 M60.79 46.67 C74.34 33.66, 88.73 13.37, 97.3 -3.22 M60.93 47.79 C71.43 33.37, 79.66 20.73, 101.09 1.1 M64.94 46.39 C79.6 26.23, 93.05 10.38, 102.76 -1.27 M66.37 47.45 C76.71 31.31, 89.19 17.58, 106.41 -1.7 M68.86 45.02 C81.6 40.88, 86.82 29.86, 110.12 -0.31 M69.82 47.03 C79.45 36.49, 91.02 22.3, 111.54 0.43 M74.82 47.86 C86.23 34.32, 102.58 12.72, 118.45 4.04 M73.65 48.75 C92.63 28.31, 104.51 14.1, 116.75 -1.13 M77.73 44.73 C94.78 29.72, 114.61 6.32, 118.19 -2.34 M80.75 47.17 C96.16 29.56, 111.61 13.03, 120.45 1.44 M84.52 49.95 C94.05 38.78, 105.84 25.75, 127.93 3.45 M85.79 47.26 C93.88 36.49, 103.14 28.23, 127.83 2.03 M91.57 49.59 C109.54 31.91, 121.75 12.81, 133.77 1.28 M92.54 45.82 C105.87 32.27, 121.3 15.76, 134.08 -1.31 M96.79 48.74 C105.69 33.56, 114.85 21.88, 138.76 3.34 M97.8 48.8 C111.73 27.7, 129.13 9.2, 137.78 -0.93 M101.07 50.74 C109.86 39, 119.02 26.01, 142.98 -2.73 M100.74 48.76 C114.93 33.05, 126.08 16.5, 144.76 1.7 M104.28 48.45 C119.84 31.27, 141.95 13.1, 144.99 -2.5 M106.77 46.14 C117.1 36.74, 125.39 25.63, 149.48 1.46 M114.79 43.47 C128.06 26.4, 141.81 13.55, 153.84 -3.55 M112.95 46.72 C126.24 33.48, 140.36 18.22, 154.89 -1.1 M121.47 45.41 C130.35 39.17, 134.48 20.62, 158.57 -0.18 M119.83 46.94 C129.84 33.57, 140.56 20.24, 157.83 1.62 M119.18 51.16 C136.33 31.72, 148.59 26.41, 164.22 1.8 M124.85 47.35 C137.84 33.8, 149.39 19.79, 164.89 1.66 M128.76 44.1 C141.17 39.82, 150.58 23.36, 169.32 -3.66 M130.18 45.86 C136.63 33.98, 149.26 24.89, 169.81 0.89 M134.56 45.36 C146.1 36.64, 154.12 22.21, 177.88 0.4 M132.16 47.25 C144.49 36.08, 155.1 21.7, 173.3 0.31 M136.4 49.09 C153.28 31.28, 169.25 14.33, 176.92 1.2 M141.09 48.44 C148.55 36.75, 154.77 26.8, 180.48 1.55 M143.12 49.7 C153 35.64, 165.11 21.49, 188.45 3.46 M142.67 47.95 C155.99 34.86, 166.35 24.69, 184.69 0.1 M152.52 49.09 C163.36 31.82, 169.06 21.31, 190.96 0.68 M149.87 47.2 C160.67 35.67, 172.2 20.74, 188.93 -1.17 M152.92 43.96 C167.27 38.98, 170.84 29.14, 195.44 -1.67 M156.25 47.93 C167.03 30.5, 180.86 15.08, 197.69 1.22 M159.13 48.96 C167.78 31.97, 180.93 18.74, 198.87 1.17 M159.91 45.57 C169.8 36.2, 178.09 26.96, 202.33 0.88 M165.93 44.04 C175.72 31.54, 193.72 14.29, 204.22 -3.54 M164.82 46.6 C174.8 37.21, 186.26 23.82, 205 -1.2 M168.1 45.64 C178.23 30.9, 190.83 21.68, 213.97 -2.79 M172.68 45.93 C184.54 31.25, 196.87 18.92, 211.93 0.8 M177.94 45.97 C195.49 31.47, 206.21 5.45, 218.06 1.44 M176.34 48.29 C190.23 30.48, 204.63 14.41, 217.39 -1.11 M181.2 44.23 C193.94 36.13, 200.52 23.97, 219.45 3.44 M183.67 45.59 C197.82 28.63, 213.04 10.85, 221.01 0.63 M186.65 49.9 C202.29 34.57, 211.32 17.38, 230.08 0.99 M186.88 46.31 C200.26 32.32, 212.95 18.66, 227.68 -1.49 M189.4 50.7 C205.35 41.26, 207.25 25.26, 232.38 -1.36 M193.81 45.58 C205.41 30.81, 221.98 15.84, 232.92 -0.66 M199.64 44.11 C212.5 30.45, 221.35 14.99, 238.63 -0.31 M196.53 46.86 C211.28 30.31, 224.15 13.44, 238.1 2.35 M199.51 44.87 C215.83 33.21, 224.92 22.87, 247.72 -2.29 M204.04 47.55 C214.78 35.78, 221.99 26.52, 243.09 0.84 M210.35 44.98 C217.21 38.3, 223.41 27.57, 249.92 0.01 M209.47 49.11 C226.63 29.06, 240.18 10.75, 246.92 -0.22 M214.26 48.96 C230.74 31.12, 241.96 17.63, 254.26 3.67 M211.42 46.41 C223.97 36.51, 230.8 28.6, 255 -2.04 M222.09 49.06 C231.94 27.14, 245 15.36, 258.02 -1.22 M217.92 45.15 C228.26 37.16, 236.77 24.32, 260.49 1.37 M226.91 44.56 C237.41 34.14, 248.5 19.97, 266.71 -0.32 M223.71 47.21 C241.49 26.88, 256.17 9.53, 264.18 0.51 M232.05 48.99 C238.2 32.13, 255.46 17.1, 271.59 0.22 M230.18 48.02 C241.19 33.65, 249.27 21.88, 271.88 -0.13 M236.58 45.38 C246.97 27.22, 263.15 10.91, 277.64 -2.99 M234.72 45.95 C251.06 27.85, 268.34 11.34, 274.26 -0.8 M239.32 49.54 C256.72 30, 271.92 8.2, 281.12 0.67 M238.6 47.68 C253.28 30.84, 267.36 16.29, 280.25 -1.04 M248.29 49.27 C253.41 39.64, 266.68 24.2, 289.49 3.06 M244.35 45.58 C254.75 35.47, 268.24 20.69, 284.9 1.68 M252.82 43.62 C260.38 38.19, 263.36 25.39, 290.99 -3.42 M251.61 47.06 C265.31 28.61, 281.52 11.78, 290.78 1.29 M256.92 46.17 C267.45 30.7, 277.79 21.44, 298.57 -2.64 M254.55 47.98 C270.92 30.81, 285.42 14.75, 295.82 0.56 M259.38 44.25 C270.78 33.59, 288.18 18.59, 303.46 0.55 M261.69 45.99 C273.03 31.98, 285.16 21.54, 302.73 0.42 M263.21 50.19 C280.36 31.4, 299.06 12.27, 311.09 3.56 M265.32 45.96 C279.35 31.22, 293.87 12.05, 306.83 1.36 M271.69 44.58 C278.08 33.56, 292.87 24.16, 310.66 1.29 M273.37 45.27 C284.96 33.82, 300.44 17.05, 313.44 0.84 M273.81 43.53 C291.06 29.49, 304.88 14.95, 319.1 1.42 M278.76 47.27 C289.6 33.43, 301.69 19.99, 317.77 -1.43 M280.32 49.88 C300.72 25.88, 316.81 11.97, 326.6 3.64 M283.27 46.6 C294.72 33.23, 306.31 18.56, 322.29 2 M285.21 48.53 C296.12 36.67, 311.65 26.05, 332.56 -1.14 M286.98 46.6 C297.68 37.94, 303.21 26.26, 328.58 -0.41 M293.71 45.57 C309.86 34.17, 319.73 16.35, 331.16 -3.45 M292.06 48.65 C306.57 29.16, 320.38 12.6, 334.73 -1.72 M299.8 47.65 C314.11 29.59, 330.17 9.41, 339.28 -0.1 M296.2 45.59 C309.07 37.43, 318.34 25.75, 339.22 0.77 M305.53 45.91 C316.61 36.78, 325.98 22.61, 342.09 1.12 M303.81 47.78 C317.62 33.21, 333.1 15.24, 346.27 -1.01 M309.84 47.49 C321.88 32.75, 332.66 17.33, 352.3 -2.56 M310.68 48.79 C315.32 37.05, 324.44 28.01, 349.09 0.14 M313.28 51.05 C332.4 26.53, 343.95 14.23, 359.02 -1.44 M312.63 47 C328.69 31.79, 341.85 14.01, 354.5 0.38 M321.44 46.75 C331.61 28.63, 348.17 18.77, 356.49 2.25 M320.73 47.71 C326.08 36.95, 333.45 28.15, 359.61 -1.58 M322.38 43.52 C328.92 38.73, 342.15 29.56, 363.46 2.22 M322.71 48.54 C336.75 34.84, 348.77 18.95, 367.04 1.65 M330.63 44.28 C347.58 30.44, 360.91 12.88, 368.66 -0.52 M330.76 48.79 C344.52 28.88, 362.38 12.52, 370.28 -0.48 M332.75 49.22 C339.92 39.98, 352.24 23.55, 374.8 1.54 M334.98 46.82 C349.76 28.05, 366.72 11.82, 377.59 0.92 M339.28 47.03 C351.82 36.78, 353.24 27.78, 384.1 1.66 M339.2 45.41 C355.7 33.2, 365.68 16.44, 381.35 -0.46 M346.24 50.17 C359.07 34.94, 373.28 16.83, 386.28 2.12 M346.41 49.18 C354.4 36.53, 366.69 24.66, 385.93 -0.74 M355.15 46.09 C364.61 30.8, 382.26 11.9, 392.03 1.45 M350.58 45.89 C360.96 35.13, 370.47 23.16, 393.1 -0.49 M358.52 48.52 C370.61 29.66, 386.91 16.05, 397.04 1.67 M358.06 47.89 C367.06 33.07, 378.08 20.4, 397.87 0.67 M359.86 48.68 C370.85 34.46, 385.17 27.17, 399.5 3.6 M363.46 45.47 C379.49 29.29, 393.59 13.82, 401.89 1.41 M367.17 50.56 C381.25 38.35, 389.47 19.11, 412.08 -1.97 M367.03 48.2 C382.16 33.11, 395.5 16.92, 409.3 0.09 M372.93 46.14 C387.81 26.08, 408.34 8.89, 415.46 1.04 M374.49 46.34 C383.98 33.42, 396.76 17.26, 412.14 0.14 M379.63 50.68 C388.79 33.62, 400.91 11.88, 418.29 -2.83 M378.48 48.24 C385.31 36.27, 396.67 24.03, 418.18 -0.6 M379.73 45.92 C395.52 35.53, 400.35 26.58, 426.72 -1.23 M382.36 45.65 C397.52 30.89, 412.52 14.96, 424.33 -0.45 M389.21 47.4 C398.57 29.42, 416.24 17.21, 432.41 -2.83 M389.65 47.13 C401.32 31.58, 414.96 17.77, 428.51 -0.58 M395.53 47.62 C403.98 31.4, 416.55 13.56, 437.99 -2.04 M395.85 47.44 C408.79 30.07, 422.56 16.61, 435 0.43 M399.12 43.38 C409.34 33.43, 416.36 25.25, 437.09 -3.76 M397.83 48.89 C413.57 27.17, 429.5 9.5, 438.37 -0.1 M401.44 42.95 C416.76 35.73, 429.43 21.87, 447.83 3.87 M405.76 46.72 C416.49 29.74, 430.57 17.48, 444.77 0.49 M406.42 45.39 C422.11 38.83, 432.69 26.78, 452.82 0.72 M408.39 46.5 C424.37 31.05, 438.5 12.79, 451.9 -0.48 M416.48 47.74 C430.84 26.38, 449.46 11.13, 456.68 1.91 M416.99 45.44 C427.07 33.38, 435.8 21.99, 454.3 -1.6 M418.05 48.33 C432.38 38.7, 442.91 22.57, 458 1.07 M418.73 45.86 C435.02 29.79, 447.14 15.47, 463.29 -0.08 M424.88 46.72 C442.11 32.17, 457.94 15.62, 466.86 -2.4 M423.84 49.23 C432.72 37.97, 443.38 27.02, 468.32 1.75 M426.83 43.23 C435.88 35.81, 449.02 30.31, 468.21 -3.36 M430.34 45.83 C441.42 32.78, 450.67 21.74, 472.17 -1.58 M434.69 46.46 C447.59 32.92, 456.97 22.58, 474.57 0.6 M436.63 48.39 C448.83 34.51, 457.09 20.42, 475.62 -0.93 M443.46 49.23 C453.57 29.56, 471.09 13.63, 482.9 0.64 M440.76 46.18 C449.41 35.74, 459.01 27.72, 482.15 1.01 M449.9 47.92 C456.19 37.31, 465.16 27.41, 484.56 2.18 M445.77 46.43 C454.79 36.59, 464.41 30.45, 487.76 1.35 M448.5 49.62 C460.6 35.58, 472.71 23.61, 483.51 3.43 M451.6 47.64 C461.05 38.27, 468.09 28.97, 487.07 5.67 M457.01 43.46 C467.86 32.92, 476.94 20.11, 488.9 13.31 M456.42 49.04 C469.47 36.28, 477.5 23.84, 485.77 12.06 M464.4 47.8 C468.13 36.89, 480.18 31.44, 488.59 19.25 M464.53 47.87 C470.66 38.99, 477.84 27.92, 486.04 21.04 M464.4 49.53 C474.7 38.82, 482.51 35.8, 490.59 29.44 M467.76 48.84 C472 41.75, 477.6 34.28, 487.83 23.97 M475.47 43.28 C475.74 42.06, 484.75 35.03, 487.79 32.37 M473.28 45.46 C476.76 42.55, 480.66 41.76, 485.48 32.63 M478.29 49.54 C482.3 44.98, 480.9 44.17, 485.83 37.02 M477.47 46.1 C480.08 44.54, 481.92 41.73, 486.89 37.43 M483.88 47.12 C484.24 46.56, 485.93 44.67, 486.42 43.71 M483.83 47.17 C484.12 45.94, 485.08 45.52, 486.66 44.05" stroke="#228be6" stroke-width="0.5" fill="none"></path><path d="M1.37 -0.07 C172.15 1.62, 346.68 2.86, 485.89 1.41 M-0.1 0.07 C143.74 -0.32, 287.33 -0.68, 484.47 -0.46 M487.17 -2.35 C483.92 9.03, 486.68 25.07, 487.75 45.41 M483.9 -0.74 C483.55 10.83, 486.23 18.68, 483.38 47.89 M485.46 47.4 C318.57 46.7, 155.94 45.82, -0.57 46.45 M484.27 45.68 C385.61 42.46, 286.55 41.46, 0.54 45.58 M-3.58 45.89 C-2.89 35.82, 1.95 21.22, 1.82 -0.27 M-1.48 45.25 C0.59 35.55, -2.07 26.4, -1.42 -0.06" stroke="#000000" stroke-width="1" fill="none"></path></g><g transform="translate(80 15) rotate(0 172.5 18)"><text x="172.5" y="25" font-family="Virgil, Segoe UI Emoji" font-size="28px" fill="#000000" text-anchor="middle" style="white-space: pre;" direction="ltr">Shallow vs Deep Learning</text></g><g stroke-linecap="round" transform="translate(12.18595949550945 56.719983540519024) rotate(0 667.3355922877654 139.2554659941352)"><path d="M-0.58 -1.39 C301.04 0.22, 600.77 1.78, 1334.62 -1.16 M1333.92 -0.56 C1332.14 82.82, 1332.25 167.71, 1334.1 276.15 M1334.52 276.95 C834.39 271.91, 333.31 272, -1.39 278.76 M-2.45 280.08 C4.03 198.58, -0.12 124.44, 1.24 0.79" stroke="#000000" stroke-width="1.5" fill="none" stroke-dasharray="8 9"></path></g><g transform="translate(32.066027972915435 88.51018442381428) rotate(0 81.5 12.5)"><text x="0" y="18" font-family="Virgil, Segoe UI Emoji" font-size="20px" fill="#e67700" text-anchor="start" style="white-space: pre;" direction="ltr">Shallow Learning:</text></g><g transform="translate(218.79450817345878 88.47274443565766) rotate(0 233 25)"><text x="0" y="18" font-family="Virgil, Segoe UI Emoji" font-size="20px" fill="#000000" text-anchor="start" style="white-space: pre;" direction="ltr">Learning the parameters of the model directly </text><text x="0" y="43" font-family="Virgil, Segoe UI Emoji" font-size="20px" fill="#000000" text-anchor="start" style="white-space: pre;" direction="ltr">from the features of the training examples</text></g><g transform="translate(115.56480580056541 186.2999606657122) rotate(0 46.5 12.5)"><text x="46.5" y="18" font-family="Virgil, Segoe UI Emoji" font-size="20px" fill="#c92a2a" text-anchor="middle" style="white-space: pre;" direction="ltr">Example: </text></g><g stroke-linecap="round" transform="translate(264.6968775864498 203.78793801866414) rotate(0 10.114211774724026 10.114211774724026)"><path d="M7.64 -0.53 C9.59 -0.87, 13.2 0.14, 15.15 1.21 C17.1 2.27, 18.72 3.73, 19.33 5.84 C19.94 7.94, 19.41 11.78, 18.81 13.85 C18.2 15.92, 17.56 17.39, 15.72 18.26 C13.88 19.14, 10.18 19.23, 7.79 19.1 C5.4 18.97, 2.67 18.86, 1.39 17.46 C0.11 16.07, 0.08 13.18, 0.1 10.72 C0.13 8.26, 0.01 4.64, 1.52 2.71 C3.03 0.77, 7.91 -0.47, 9.17 -0.88 C10.43 -1.29, 9.21 0, 9.08 0.25 M4.17 0.96 C5.93 -0.01, 9.72 1.16, 12.15 1.69 C14.59 2.22, 17.57 2.7, 18.79 4.13 C20.02 5.56, 19.87 7.93, 19.53 10.27 C19.18 12.62, 17.88 16.47, 16.73 18.2 C15.58 19.93, 14.73 20.61, 12.62 20.65 C10.51 20.7, 6.06 19.84, 4.07 18.49 C2.08 17.13, 1.24 14.55, 0.68 12.51 C0.12 10.47, -0.27 8.02, 0.72 6.24 C1.7 4.46, 5.96 2.41, 6.59 1.82 C7.22 1.24, 4.53 2.67, 4.52 2.75" stroke="none" stroke-width="0" fill="#fd7e14"></path><path d="M11.95 -0.86 C14.03 -0.82, 16.1 0.68, 17.55 2.28 C19 3.89, 20.6 6.6, 20.65 8.78 C20.7 10.95, 19.35 13.53, 17.85 15.33 C16.34 17.13, 13.6 19.05, 11.62 19.55 C9.65 20.06, 7.71 19.33, 5.98 18.35 C4.26 17.37, 2.15 15.52, 1.25 13.69 C0.36 11.85, -0.03 9.5, 0.63 7.36 C1.29 5.21, 3.21 1.92, 5.22 0.81 C7.22 -0.3, 11.56 0.6, 12.68 0.68 C13.8 0.77, 12.13 1.21, 11.92 1.33 M15.3 1.61 C17.58 1.94, 19.74 2.17, 20.39 4.19 C21.04 6.21, 19.66 11.65, 19.2 13.75 C18.74 15.85, 19.07 15.89, 17.64 16.8 C16.21 17.71, 12.96 19.08, 10.64 19.19 C8.31 19.3, 5.33 18.76, 3.7 17.45 C2.07 16.14, 1.2 13.68, 0.87 11.34 C0.55 9, 0.53 5.19, 1.75 3.4 C2.98 1.62, 6.15 1.02, 8.21 0.66 C10.26 0.3, 13 1.17, 14.08 1.25 C15.16 1.32, 14.67 0.82, 14.67 1.11" stroke="#e67700" stroke-width="1" fill="none"></path></g><g stroke-linecap="round" transform="translate(243.0859358807429 238.31549316718156) rotate(0 10.114211774724026 10.114211774724026)"><path d="M10.14 -0.4 C12.17 -0.57, 13.38 1.24, 15.11 2.7 C16.85 4.16, 19.82 6.46, 20.56 8.39 C21.29 10.31, 20.68 12.39, 19.52 14.27 C18.36 16.15, 15.71 18.7, 13.62 19.66 C11.53 20.63, 9.05 20.82, 6.99 20.05 C4.93 19.29, 2.4 16.81, 1.25 15.07 C0.09 13.33, -0.06 11.47, 0.07 9.59 C0.2 7.71, 0.09 5.29, 2 3.8 C3.91 2.3, 9.72 1.26, 11.54 0.62 C13.35 -0.01, 13.18 -0.18, 12.87 -0.01 M12.71 -0.81 C14.6 -0.32, 17.09 1.89, 18.38 3.94 C19.67 6, 20.7 9.37, 20.47 11.5 C20.23 13.62, 18.41 15.34, 16.95 16.71 C15.49 18.08, 13.99 19.45, 11.69 19.74 C9.39 20.04, 5.2 19.74, 3.13 18.48 C1.06 17.23, -0.65 14.59, -0.73 12.19 C-0.81 9.79, 1.7 6.09, 2.65 4.09 C3.6 2.09, 3.29 0.56, 4.96 0.18 C6.64 -0.2, 11.17 1.74, 12.72 1.83 C14.27 1.93, 14.4 0.79, 14.29 0.74" stroke="none" stroke-width="0" fill="#7950f2"></path><path d="M6.75 0.71 C8.49 -0.34, 10.08 -0.5, 12.16 0.07 C14.24 0.64, 18.03 2.14, 19.25 4.12 C20.47 6.11, 19.88 9.74, 19.47 11.96 C19.06 14.18, 18.34 16.16, 16.78 17.43 C15.21 18.7, 12.1 19.32, 10.09 19.57 C8.07 19.81, 6.21 19.99, 4.67 18.9 C3.13 17.81, 1.52 15.32, 0.84 13.01 C0.16 10.71, -0.51 7.03, 0.58 5.06 C1.68 3.1, 6.23 2.1, 7.42 1.2 C8.61 0.3, 7.88 -0.44, 7.71 -0.34 M12.47 0.61 C14.49 1.11, 16.46 2.39, 17.91 4.34 C19.36 6.28, 21.4 10.12, 21.16 12.29 C20.92 14.45, 18.39 15.86, 16.45 17.32 C14.51 18.78, 11.72 21.07, 9.52 21.05 C7.32 21.03, 4.73 18.5, 3.25 17.2 C1.77 15.91, 0.89 15.13, 0.66 13.27 C0.43 11.42, 0.69 8.03, 1.88 6.05 C3.08 4.08, 6 2.27, 7.82 1.42 C9.64 0.57, 11.8 1.23, 12.82 0.95 C13.84 0.66, 13.95 -0.22, 13.94 -0.28" stroke="#364fc7" stroke-width="1" fill="none"></path></g><g stroke-linecap="round" transform="translate(266.4963144470112 276.34162555607145) rotate(0 10.114211774724026 10.114211774724026)"><path d="M7.83 0.35 C9.96 0.09, 13.52 1, 15.57 1.98 C17.62 2.95, 19.34 4.46, 20.15 6.22 C20.96 7.97, 21.27 10.46, 20.43 12.5 C19.59 14.55, 17.23 17.3, 15.11 18.49 C12.99 19.67, 9.8 19.96, 7.7 19.6 C5.6 19.24, 3.77 17.83, 2.5 16.31 C1.23 14.78, 0.02 12.4, 0.07 10.44 C0.12 8.47, 1.19 6.22, 2.81 4.52 C4.42 2.83, 8.24 0.79, 9.77 0.26 C11.3 -0.27, 11.91 1.23, 12.01 1.32 M10.25 0.33 C12.15 0.16, 14.94 2.15, 16.79 3.27 C18.63 4.39, 20.98 4.82, 21.33 7.06 C21.68 9.3, 20.38 14.51, 18.9 16.72 C17.41 18.93, 14.48 19.97, 12.42 20.31 C10.36 20.65, 8.52 19.43, 6.54 18.76 C4.55 18.09, 1.8 18.29, 0.51 16.29 C-0.77 14.29, -1.77 9.3, -1.17 6.76 C-0.57 4.23, 2.09 2.2, 4.13 1.11 C6.17 0.02, 10.14 0.6, 11.06 0.23 C11.99 -0.14, 9.95 -1.46, 9.69 -1.11" stroke="none" stroke-width="0" fill="#e64980"></path><path d="M7.95 -0.82 C9.98 -1.21, 13.21 0.97, 15.2 2.15 C17.19 3.34, 19.15 4.25, 19.9 6.28 C20.65 8.32, 20.37 12.13, 19.69 14.37 C19 16.62, 17.75 18.84, 15.81 19.75 C13.87 20.66, 10.24 20.24, 8.05 19.85 C5.87 19.46, 4.05 18.92, 2.69 17.42 C1.33 15.91, -0.22 13.16, -0.09 10.8 C0.04 8.44, 1.82 5.14, 3.47 3.24 C5.12 1.35, 8.59 0.09, 9.8 -0.57 C11 -1.23, 10.8 -0.96, 10.68 -0.71 M13.69 1 C15.57 1.59, 18.35 4.7, 19.44 6.35 C20.53 8, 20.78 8.93, 20.23 10.87 C19.68 12.82, 17.93 16.39, 16.16 18.02 C14.39 19.66, 11.54 20.54, 9.59 20.66 C7.64 20.78, 6.24 20.15, 4.48 18.75 C2.72 17.35, -0.62 14.54, -0.97 12.26 C-1.32 9.98, 1.06 6.78, 2.38 5.07 C3.7 3.36, 5.21 2.88, 6.95 2 C8.69 1.12, 11.53 -0.07, 12.81 -0.22 C14.09 -0.36, 14.4 1.04, 14.62 1.16" stroke="#a61e4d" stroke-width="1" fill="none"></path></g><g transform="translate(224.44521272987276 173.73439255077756) rotate(0 44 12.5)"><text x="44" y="18" font-family="Virgil, Segoe UI Emoji" font-size="20px" fill="#000000" text-anchor="middle" style="white-space: pre;" direction="ltr">features</text></g><g stroke-linecap="round" transform="translate(349.1268484035709 216.47642613270727) rotate(0 38.58071292952354 30.220706269139555)"><path d="M15.11 0 M15.11 0 C33.68 1.67, 52.05 -1.75, 62.05 0 M15.11 0 C30.59 0.94, 45.53 0.71, 62.05 0 M62.05 0 C72.75 0.72, 75.64 4.11, 77.16 15.11 M62.05 0 C72.49 -0.64, 78.26 6.78, 77.16 15.11 M77.16 15.11 C78.18 20.67, 78.36 25.97, 77.16 45.33 M77.16 15.11 C77.41 25.04, 76.72 36.36, 77.16 45.33 M77.16 45.33 C75.69 56.62, 71.6 60.94, 62.05 60.44 M77.16 45.33 C75.55 56.76, 70.05 61.21, 62.05 60.44 M62.05 60.44 C47.4 60.03, 33.86 60.02, 15.11 60.44 M62.05 60.44 C50.19 59.46, 37.75 60.32, 15.11 60.44 M15.11 60.44 C4.77 62.31, -1.53 55.55, 0 45.33 M15.11 60.44 C3.01 62.32, -0.34 56.03, 0 45.33 M0 45.33 C0.79 35.65, -0.28 29.79, 0 15.11 M0 45.33 C0.33 37.42, 0.36 27.92, 0 15.11 M0 15.11 C0.66 6.29, 6.33 -1.09, 15.11 0 M0 15.11 C-2.19 3.12, 6.14 1.98, 15.11 0" stroke="#000000" stroke-width="1" fill="none"></path></g><g transform="translate(360.2075613330944 234.19713240184683) rotate(0 27.5 12.5)"><text x="27.5" y="18" font-family="Virgil, Segoe UI Emoji" font-size="20px" fill="#000000" text-anchor="middle" style="white-space: pre;" direction="ltr">Model</text></g><g stroke-linecap="round"><g transform="translate(288.638237521408 217.38106105714178) rotate(0 30.276795520928317 11.519624803630904)"><path d="M0.15 0.25 C10.3 3.8, 51.73 18.53, 61.78 22.07 M-1.23 -0.66 C8.78 3.03, 51.28 19.82, 61.42 23.7" stroke="#000000" stroke-width="1" fill="none"></path></g><g transform="translate(288.638237521408 217.38106105714178) rotate(0 30.276795520928317 11.519624803630904)"><path d="M31.85 24.88 C42.92 22.92, 53.21 24.5, 61.12 22.8 M32.12 23.41 C41.05 22.53, 52.13 22.95, 61.9 24.07" stroke="#000000" stroke-width="1" fill="none"></path></g><g transform="translate(288.638237521408 217.38106105714178) rotate(0 30.276795520928317 11.519624803630904)"><path d="M39.3 5.76 C47.72 10.95, 55.23 19.67, 61.12 22.8 M39.57 4.29 C46.14 9.82, 54.74 16.62, 61.9 24.07" stroke="#000000" stroke-width="1" fill="none"></path></g></g><mask></mask><g stroke-linecap="round"><g transform="translate(269.6212381316391 250.86435284723666) rotate(0 40.093380613165664 -0.7772208034029973)"><path d="M0.62 -0.35 C13.73 -0.35, 65.22 0.37, 78.48 0.09 M-0.51 -1.57 C12.99 -1.9, 67.31 -1.54, 80.7 -1.5" stroke="#000000" stroke-width="1" fill="none"></path></g><g transform="translate(269.6212381316391 250.86435284723666) rotate(0 40.093380613165664 -0.7772208034029973)"><path d="M51.88 7.08 C62.18 6.89, 66.68 1.1, 80.66 -3.29 M51.85 7.98 C60.69 6.39, 69.24 3.43, 80.69 -0.9" stroke="#000000" stroke-width="1" fill="none"></path></g><g transform="translate(269.6212381316391 250.86435284723666) rotate(0 40.093380613165664 -0.7772208034029973)"><path d="M51.98 -13.44 C62.26 -7.8, 66.74 -7.75, 80.66 -3.29 M51.95 -12.54 C60.86 -8.01, 69.38 -4.84, 80.69 -0.9" stroke="#000000" stroke-width="1" fill="none"></path></g></g><mask></mask><g stroke-linecap="round"><g transform="translate(289.4956741019605 282.51870881184004) rotate(0 30.296184706856366 -12.306877555867686)"><path d="M-0.87 -0.02 C9.46 -3.91, 51.03 -18.82, 61.46 -22.65 M0.87 -1.08 C11.17 -5.4, 50.83 -21.16, 60.94 -24.59" stroke="#000000" stroke-width="1" fill="none"></path></g><g transform="translate(289.4956741019605 282.51870881184004) rotate(0 30.296184706856366 -12.306877555867686)"><path d="M38.08 -3.79 C44.36 -8.11, 49.62 -16.83, 59.99 -24.6 M38.62 -5.2 C45.04 -10.97, 51.01 -16.52, 60.44 -24.71" stroke="#000000" stroke-width="1" fill="none"></path></g><g transform="translate(289.4956741019605 282.51870881184004) rotate(0 30.296184706856366 -12.306877555867686)"><path d="M30.91 -23.02 C39.13 -22.4, 46.2 -26.23, 59.99 -24.6 M31.45 -24.43 C40.18 -24.46, 48.3 -24.25, 60.44 -24.71" stroke="#000000" stroke-width="1" fill="none"></path></g></g><mask></mask><g stroke-linecap="round"><g transform="translate(429.4993741626613 247.50778536550388) rotate(0 39.87760234697862 -0.4433877973469862)"><path d="M-1.06 -0.66 C11.98 -0.71, 65.3 -0.43, 78.55 -0.56 M0.58 1.61 C13.98 1.2, 67.43 -2.16, 80.82 -2.49" stroke="#000000" stroke-width="1" fill="none"></path></g><g transform="translate(429.4993741626613 247.50778536550388) rotate(0 39.87760234697862 -0.4433877973469862)"><path d="M52.03 7.63 C62.72 4.01, 70.23 3.8, 82.16 -4.14 M52.66 8.17 C59.37 6.17, 64.97 3.81, 81.75 -2.8" stroke="#000000" stroke-width="1" fill="none"></path></g><g transform="translate(429.4993741626613 247.50778536550388) rotate(0 39.87760234697862 -0.4433877973469862)"><path d="M51.08 -12.87 C62.04 -9.85, 69.85 -3.42, 82.16 -4.14 M51.71 -12.33 C58.61 -9.7, 64.42 -7.44, 81.75 -2.8" stroke="#000000" stroke-width="1" fill="none"></path></g></g><mask></mask><g transform="translate(519.4745588612668 230.1339925221946) rotate(0 35.5 12.5)"><text x="35.5" y="18" font-family="Virgil, Segoe UI Emoji" font-size="20px" fill="#000000" text-anchor="middle" style="white-space: pre;" direction="ltr">Output</text></g><g transform="translate(722.0001731459224 86.92418208175513) rotate(0 70.5 12.5)"><text x="0" y="18" font-family="Virgil, Segoe UI Emoji" font-size="20px" fill="#e67700" text-anchor="start" style="white-space: pre;" direction="ltr">Deep Learning:</text></g><g transform="translate(889.8650485743183 86.75694664792172) rotate(0 195 25)"><text x="0" y="18" font-family="Virgil, Segoe UI Emoji" font-size="20px" fill="#000000" text-anchor="start" style="white-space: pre;" direction="ltr">Learning the parameters of the model </text><text x="0" y="43" font-family="Virgil, Segoe UI Emoji" font-size="20px" fill="#000000" text-anchor="start" style="white-space: pre;" direction="ltr">from the output of the previous layers</text></g><g transform="translate(769.7736414222236 185.50710213225466) rotate(0 46.5 12.5)"><text x="46.5" y="18" font-family="Virgil, Segoe UI Emoji" font-size="20px" fill="#c92a2a" text-anchor="middle" style="white-space: pre;" direction="ltr">Example: </text></g><g stroke-linecap="round" transform="translate(916.1485432862419 199.2506775371039) rotate(0 10.114211774724026 10.114211774724026)"><path d="M7.51 -0.04 C9.4 -0.82, 12.07 0.27, 13.84 1.21 C15.61 2.14, 17.21 3.68, 18.12 5.58 C19.03 7.49, 19.49 10.42, 19.29 12.64 C19.08 14.87, 18.54 17.63, 16.89 18.92 C15.25 20.21, 11.65 20.43, 9.41 20.38 C7.18 20.33, 4.97 19.96, 3.51 18.62 C2.04 17.27, 0.93 14.49, 0.62 12.31 C0.32 10.14, 0.3 7.44, 1.68 5.56 C3.06 3.68, 7.23 2.04, 8.91 1.02 C10.6 -0.01, 11.72 -0.44, 11.79 -0.58 M7.76 0.18 C9.49 -0.31, 12.26 0.91, 14 1.47 C15.74 2.03, 17.25 1.9, 18.2 3.54 C19.14 5.18, 19.88 8.75, 19.7 11.3 C19.51 13.85, 18.72 17.39, 17.09 18.85 C15.45 20.3, 11.87 20.03, 9.89 20.04 C7.91 20.05, 6.89 20.2, 5.21 18.93 C3.53 17.66, 0.5 14.76, -0.22 12.41 C-0.93 10.06, -0.14 6.76, 0.9 4.81 C1.95 2.86, 5.09 1.36, 6.06 0.71 C7.03 0.06, 6.55 0.6, 6.73 0.89" stroke="none" stroke-width="0" fill="#fd7e14"></path><path d="M10.84 1.04 C12.9 1.08, 15.45 1.29, 17.11 2.76 C18.77 4.23, 20.62 7.53, 20.81 9.86 C21 12.19, 19.57 15.13, 18.25 16.74 C16.92 18.34, 15.09 19.23, 12.86 19.5 C10.62 19.77, 6.99 19.38, 4.83 18.33 C2.67 17.29, 0.72 15.17, -0.11 13.24 C-0.94 11.32, -1.12 8.68, -0.17 6.79 C0.78 4.9, 3.45 3.11, 5.58 1.91 C7.71 0.71, 11.29 -0.24, 12.6 -0.4 C13.92 -0.56, 13.39 0.6, 13.48 0.95 M6.1 1.03 C8.14 0.48, 11.85 0.58, 14.17 1.48 C16.49 2.37, 18.94 4.79, 20.05 6.4 C21.16 8.01, 21.59 9.09, 20.83 11.14 C20.07 13.19, 17.37 17.17, 15.49 18.68 C13.61 20.19, 11.52 20.4, 9.55 20.2 C7.59 20.01, 5.33 18.93, 3.71 17.49 C2.09 16.05, 0.29 13.6, -0.18 11.55 C-0.65 9.49, -0.1 6.8, 0.89 5.15 C1.87 3.5, 4.74 2.39, 5.73 1.64 C6.71 0.88, 6.72 0.59, 6.77 0.64" stroke="#e67700" stroke-width="1" fill="none"></path></g><g stroke-linecap="round" transform="translate(894.5376015805332 233.77823268562133) rotate(0 10.114211774724026 10.114211774724026)"><path d="M10.32 -0.01 C12.37 -0.23, 15.97 0.56, 17.65 1.96 C19.33 3.36, 20.21 5.98, 20.42 8.37 C20.63 10.77, 20.05 14.49, 18.93 16.34 C17.81 18.19, 15.85 18.95, 13.72 19.47 C11.58 20, 8.07 20.21, 6.11 19.47 C4.16 18.73, 2.81 16.98, 1.97 15.03 C1.13 13.08, 0.57 10.06, 1.07 7.78 C1.57 5.5, 3.05 2.65, 4.99 1.34 C6.93 0.03, 11.62 0.1, 12.71 -0.07 C13.8 -0.24, 11.88 0.24, 11.54 0.32 M14.4 1.87 C16.66 2.42, 19.79 4, 20.46 5.83 C21.13 7.66, 19.31 10.68, 18.41 12.88 C17.52 15.07, 16.53 17.88, 15.1 19.01 C13.66 20.14, 11.91 19.78, 9.79 19.65 C7.67 19.52, 3.85 19.85, 2.37 18.24 C0.89 16.64, 0.9 12.45, 0.92 9.99 C0.94 7.54, 1.36 5.2, 2.48 3.51 C3.59 1.82, 5.53 0.19, 7.61 -0.15 C9.68 -0.5, 13.72 1.12, 14.93 1.44 C16.13 1.76, 14.77 1.89, 14.82 1.75" stroke="none" stroke-width="0" fill="#7950f2"></path><path d="M8.51 -0.19 C10.36 -0.62, 12.06 0.53, 13.88 1.57 C15.7 2.61, 18.36 4.08, 19.43 6.06 C20.49 8.03, 20.95 11.45, 20.27 13.43 C19.59 15.4, 17.32 16.91, 15.35 17.89 C13.38 18.88, 10.62 19.55, 8.44 19.33 C6.25 19.11, 3.67 17.81, 2.23 16.55 C0.8 15.29, -0.18 13.86, -0.18 11.76 C-0.18 9.67, 0.78 6.04, 2.24 3.98 C3.69 1.91, 7.08 -0.07, 8.54 -0.61 C10 -1.15, 10.8 0.59, 11 0.75 M9.48 0.59 C11.77 0.54, 14.65 1.61, 16.59 2.86 C18.53 4.1, 20.78 6.36, 21.11 8.07 C21.44 9.78, 19.53 11.36, 18.57 13.13 C17.61 14.9, 17.17 17.54, 15.35 18.7 C13.53 19.86, 9.96 20.57, 7.67 20.08 C5.38 19.59, 2.93 17.61, 1.62 15.75 C0.3 13.9, -0.46 11.21, -0.24 8.93 C-0.01 6.66, 1.25 3.6, 2.97 2.12 C4.69 0.63, 9.09 0.52, 10.08 0.05 C11.07 -0.42, 9.01 -1.03, 8.92 -0.71" stroke="#364fc7" stroke-width="1" fill="none"></path></g><g stroke-linecap="round" transform="translate(917.9479801468033 271.80436507451304) rotate(0 10.114211774724026 10.114211774724026)"><path d="M12.93 0.89 C14.7 1.48, 16.55 2.96, 17.63 4.76 C18.72 6.56, 19.44 9.44, 19.44 11.7 C19.44 13.95, 19.13 16.85, 17.62 18.29 C16.11 19.74, 12.6 20.21, 10.37 20.36 C8.14 20.52, 5.84 20.41, 4.25 19.22 C2.65 18.04, 1.31 15.39, 0.8 13.25 C0.3 11.12, 0.43 8.3, 1.21 6.4 C2 4.5, 3.39 2.94, 5.5 1.84 C7.62 0.75, 12.33 0.05, 13.89 -0.15 C15.45 -0.36, 15.02 0.15, 14.87 0.63 M6.35 1.97 C7.83 0.82, 10.09 -1.31, 12.01 -1 C13.94 -0.69, 16.47 1.69, 17.88 3.85 C19.29 6.01, 20.65 9.79, 20.49 11.97 C20.33 14.16, 18.23 15.44, 16.91 16.96 C15.59 18.48, 14.72 20.78, 12.57 21.09 C10.43 21.39, 6.12 20.24, 4.04 18.8 C1.95 17.35, 0.65 14.57, 0.06 12.44 C-0.53 10.3, -0.46 7.91, 0.51 6.01 C1.49 4.11, 4.98 1.69, 5.91 1.03 C6.85 0.36, 6.35 1.72, 6.14 2" stroke="none" stroke-width="0" fill="#e64980"></path><path d="M10.14 -0.56 C12.41 -0.72, 15.92 1.19, 17.61 2.84 C19.3 4.48, 20.04 7.25, 20.3 9.3 C20.57 11.35, 20.51 13.5, 19.21 15.13 C17.91 16.76, 14.83 18.47, 12.51 19.07 C10.19 19.67, 7.31 19.51, 5.3 18.75 C3.29 17.98, 1.13 16.24, 0.44 14.49 C-0.26 12.73, 0.55 10.4, 1.1 8.19 C1.66 5.99, 2.12 2.61, 3.76 1.24 C5.4 -0.12, 9.42 0.08, 10.95 0.02 C12.49 -0.05, 13 0.71, 12.97 0.85 M8.15 1.16 C10.41 0.66, 13.65 1.62, 15.64 2.28 C17.63 2.95, 19.58 3.27, 20.1 5.16 C20.62 7.05, 19.57 11.42, 18.78 13.63 C17.98 15.84, 16.9 17.41, 15.32 18.44 C13.73 19.48, 11.38 20.1, 9.26 19.85 C7.13 19.6, 4.17 18.39, 2.55 16.92 C0.93 15.45, -0.2 12.97, -0.47 11.02 C-0.74 9.08, -0.44 7.07, 0.91 5.26 C2.26 3.45, 6.64 0.9, 7.61 0.17 C8.57 -0.55, 6.5 0.56, 6.69 0.9" stroke="#a61e4d" stroke-width="1" fill="none"></path></g><g transform="translate(882.5518449172523 170.2787607832197) rotate(0 44 12.5)"><text x="44" y="18" font-family="Virgil, Segoe UI Emoji" font-size="20px" fill="#000000" text-anchor="middle" style="white-space: pre;" direction="ltr">features</text></g><g transform="translate(1203.0541884821314 231.61046528748557) rotate(0 35.5 12.5)"><text x="35.5" y="18" font-family="Virgil, Segoe UI Emoji" font-size="20px" fill="#000000" text-anchor="middle" style="white-space: pre;" direction="ltr">Output</text></g><g stroke-linecap="round" transform="translate(1008.7590065080785 186.66931032342836) rotate(0 11.612759193028978 11.612759193028978)"><path d="M8.48 0.76 C10.53 0.06, 14.15 -0.16, 16.42 0.84 C18.68 1.84, 20.88 4.35, 22.06 6.75 C23.24 9.15, 24.17 12.87, 23.5 15.22 C22.82 17.57, 20.08 19.4, 18.01 20.86 C15.94 22.32, 13.69 24.12, 11.07 23.99 C8.46 23.86, 4.04 22.03, 2.33 20.08 C0.62 18.13, 0.81 14.84, 0.81 12.27 C0.8 9.7, 0.68 6.6, 2.31 4.64 C3.93 2.68, 9.29 1.13, 10.57 0.51 C11.85 -0.11, 10.24 0.88, 9.99 0.9 M13.32 1.63 C15.48 1.95, 18.74 3.39, 20.31 5.02 C21.88 6.66, 22.78 8.93, 22.76 11.45 C22.74 13.96, 21.61 17.97, 20.2 20.11 C18.79 22.25, 16.78 24.24, 14.31 24.28 C11.85 24.31, 7.8 21.72, 5.39 20.31 C2.97 18.91, 0.8 18.1, -0.17 15.86 C-1.14 13.62, -1.64 9.25, -0.41 6.88 C0.81 4.52, 4.8 2.9, 7.18 1.69 C9.56 0.48, 12.53 -0.46, 13.86 -0.41 C15.2 -0.36, 15.3 1.58, 15.18 1.99" stroke="#000000" stroke-width="1" fill="none"></path></g><g stroke-linecap="round" transform="translate(1007.8209394233927 221.39352523812886) rotate(0 11.612759193028978 11.612759193028978)"><path d="M16.39 0.47 C18.45 1.45, 20.5 4.18, 21.7 6.58 C22.9 8.97, 24.1 12.41, 23.59 14.84 C23.08 17.27, 20.64 19.78, 18.63 21.17 C16.62 22.55, 13.93 23.27, 11.53 23.14 C9.13 23.01, 6.11 22.25, 4.23 20.38 C2.36 18.52, 0.77 14.58, 0.3 11.95 C-0.18 9.31, 0 6.56, 1.37 4.56 C2.74 2.57, 5.79 0.62, 8.5 -0.02 C11.21 -0.66, 16 0.18, 17.62 0.73 C19.24 1.28, 18.42 3.14, 18.23 3.27 M8.04 0.27 C10.15 -0.37, 12.92 0.87, 15.4 1.91 C17.89 2.95, 21.83 4.35, 22.96 6.51 C24.09 8.66, 23.07 12.37, 22.19 14.87 C21.31 17.37, 19.58 20.25, 17.66 21.49 C15.75 22.73, 13.17 22.68, 10.68 22.31 C8.2 21.95, 4.31 21, 2.74 19.31 C1.18 17.61, 1.5 14.25, 1.3 12.11 C1.11 9.98, 0.44 8.37, 1.58 6.48 C2.72 4.6, 7.1 1.98, 8.13 0.82 C9.16 -0.34, 7.93 -0.65, 7.76 -0.49" stroke="#000000" stroke-width="1" fill="none"></path></g><g stroke-linecap="round" transform="translate(1008.6469104413563 254.1373763073807) rotate(0 11.612759193028978 11.612759193028978)"><path d="M13.5 0.04 C15.85 0.32, 18.37 2.05, 19.94 3.87 C21.52 5.68, 22.75 8.53, 22.94 10.95 C23.13 13.38, 22.59 16.45, 21.08 18.41 C19.57 20.37, 16.53 22.06, 13.89 22.69 C11.25 23.33, 7.57 23.48, 5.24 22.21 C2.92 20.94, 0.81 17.48, -0.05 15.08 C-0.91 12.67, -0.91 10.17, 0.09 7.78 C1.09 5.38, 3.22 1.99, 5.97 0.73 C8.71 -0.54, 14.47 -0.1, 16.54 0.19 C18.61 0.48, 18.52 2.24, 18.39 2.45 M7 1.92 C9.43 0.74, 14.41 -1.28, 17.08 -0.42 C19.76 0.44, 21.88 4.68, 23.04 7.07 C24.2 9.47, 24.9 11.37, 24.03 13.95 C23.16 16.52, 19.93 21.06, 17.81 22.51 C15.69 23.96, 13.76 23.01, 11.29 22.65 C8.82 22.3, 4.75 22.26, 3 20.38 C1.25 18.5, 1.18 14.04, 0.79 11.38 C0.41 8.73, -0.59 6.02, 0.7 4.44 C1.99 2.86, 7.01 2.52, 8.55 1.92 C10.08 1.33, 10.01 1.06, 9.92 0.88" stroke="#000000" stroke-width="1" fill="none"></path></g><g stroke-linecap="round" transform="translate(1009.4689482639951 287.0975531194308) rotate(0 11.612759193028978 11.612759193028978)"><path d="M5.98 1.47 C8.29 0.04, 12.48 -0.72, 14.91 -0.33 C17.33 0.06, 19.21 1.63, 20.53 3.8 C21.86 5.98, 23 10.25, 22.87 12.72 C22.74 15.19, 21.32 16.8, 19.74 18.61 C18.17 20.42, 15.7 22.98, 13.39 23.57 C11.08 24.17, 8.18 23.57, 5.89 22.19 C3.6 20.81, 0.66 17.91, -0.35 15.29 C-1.35 12.68, -1.18 8.79, -0.16 6.51 C0.87 4.24, 4.45 2.4, 5.81 1.63 C7.16 0.87, 7.9 1.75, 7.98 1.9 M11.31 0.31 C13.64 0.07, 17 -0.1, 18.97 1.38 C20.94 2.87, 22.7 6.46, 23.13 9.2 C23.56 11.93, 22.72 15.69, 21.57 17.81 C20.43 19.92, 18.46 21.27, 16.26 21.91 C14.06 22.54, 10.85 22.32, 8.37 21.62 C5.89 20.92, 2.65 19.87, 1.37 17.69 C0.1 15.51, 0.13 11.29, 0.7 8.54 C1.27 5.8, 2.86 2.52, 4.8 1.24 C6.74 -0.04, 11.3 0.99, 12.33 0.86 C13.37 0.73, 10.99 0.6, 11 0.48" stroke="#000000" stroke-width="1" fill="none"></path></g><g transform="translate(993.1262421156089 156.45587412729765) rotate(0 63.5 12.5)"><text x="63.5" y="18" font-family="Virgil, Segoe UI Emoji" font-size="20px" fill="#000000" text-anchor="middle" style="white-space: pre;" direction="ltr">hidden layers</text></g><g stroke-linecap="round"><g transform="translate(937.6356517287641 210.50748335815115) rotate(0 34.859627426847055 -6.539005040456686)"><path d="M0 0 C11.62 -2.18, 58.1 -10.9, 69.72 -13.08 M0 0 C11.62 -2.18, 58.1 -10.9, 69.72 -13.08" stroke="#e67700" stroke-width="1" fill="none"></path></g></g><mask></mask><g stroke-linecap="round"><g transform="translate(937.2236493512601 211.48655535970283) rotate(0 35.152237518847414 10.23335299592236)"><path d="M0 0 C11.72 3.41, 58.59 17.06, 70.3 20.47 M0 0 C11.72 3.41, 58.59 17.06, 70.3 20.47" stroke="#e67700" stroke-width="1" fill="none"></path></g></g><mask></mask><g stroke-linecap="round"><g transform="translate(936.8341585179696 212.04282003332264) rotate(0 35.822479712937366 25.976270980842855)"><path d="M0 0 C11.94 8.66, 59.7 43.29, 71.64 51.95 M0 0 C11.94 8.66, 59.7 43.29, 71.64 51.95" stroke="#e67700" stroke-width="1" fill="none"></path></g></g><mask></mask><g stroke-linecap="round"><g transform="translate(937.2686953125658 213.07837200485847) rotate(0 35.21723203474994 41.71129977996134)"><path d="M0 0 C11.74 13.9, 58.7 69.52, 70.43 83.42 M0 0 C11.74 13.9, 58.7 69.52, 70.43 83.42" stroke="#e67700" stroke-width="1" fill="none"></path></g></g><mask></mask><g stroke-linecap="round"><g transform="translate(917.2263910787042 242.5842199245053) rotate(0 45.01469242234862 -22.431358076946708)"><path d="M0 0 C15 -7.48, 75.02 -37.39, 90.03 -44.86 M0 0 C15 -7.48, 75.02 -37.39, 90.03 -44.86" stroke="#5f3dc4" stroke-width="1" fill="none"></path></g></g><mask></mask><g stroke-linecap="round"><g transform="translate(916.25873492767 242.88528643190875) rotate(0 45.8011976282246 -5.224126479413826)"><path d="M0 0 C15.27 -1.74, 76.34 -8.71, 91.6 -10.45 M0 0 C15.27 -1.74, 76.34 -8.71, 91.6 -10.45" stroke="#5f3dc4" stroke-width="1" fill="none"></path></g></g><mask></mask><g stroke-linecap="round"><g transform="translate(916.6833673524025 242.68903739237066) rotate(0 45.70823755686433 11.02093290461471)"><path d="M0 0 C15.24 3.67, 76.18 18.37, 91.42 22.04 M0 0 C15.24 3.67, 76.18 18.37, 91.42 22.04" stroke="#5f3dc4" stroke-width="1" fill="none"></path></g></g><mask></mask><g stroke-linecap="round"><g transform="translate(915.6160416664115 243.2812800723732) rotate(0 47.086000800915826 27.550182788590973)"><path d="M0 0 C15.7 9.18, 78.48 45.92, 94.17 55.1 M0 0 C15.7 9.18, 78.48 45.92, 94.17 55.1" stroke="#5f3dc4" stroke-width="1" fill="none"></path></g></g><mask></mask><g stroke-linecap="round"><g transform="translate(938.036033993516 278.92613451715806) rotate(0 34.62671041773683 -40.17764288032049)"><path d="M0 0 C11.54 -13.39, 57.71 -66.96, 69.25 -80.36 M0 0 C11.54 -13.39, 57.71 -66.96, 69.25 -80.36" stroke="#a61e4d" stroke-width="1" fill="none"></path></g></g><mask></mask><g stroke-linecap="round"><g transform="translate(939.255788500559 279.10137772628514) rotate(0 34.489973103721695 -23.4516356230979)"><path d="M0 0 C11.5 -7.82, 57.48 -39.09, 68.98 -46.9 M0 0 C11.5 -7.82, 57.48 -39.09, 68.98 -46.9" stroke="#a61e4d" stroke-width="1" fill="none"></path></g></g><mask></mask><g stroke-linecap="round"><g transform="translate(938.8137660677012 279.8863144231982) rotate(0 34.58214370070755 -7.235557043684821)"><path d="M0 0 C11.53 -2.41, 57.64 -12.06, 69.16 -14.47 M0 0 C11.53 -2.41, 57.64 -12.06, 69.16 -14.47" stroke="#a61e4d" stroke-width="1" fill="none"></path></g></g><mask></mask><g stroke-linecap="round"><g transform="translate(938.9194814477569 280.3871410362117) rotate(0 35.01062135049551 9.114978284736026)"><path d="M0 0 C11.67 3.04, 58.35 15.19, 70.02 18.23 M0 0 C11.67 3.04, 58.35 15.19, 70.02 18.23" stroke="#a61e4d" stroke-width="1" fill="none"></path></g></g><mask></mask><g stroke-linecap="round" transform="translate(1079.1179402920443 186.65803395617695) rotate(0 11.612759193028978 11.612759193028978)"><path d="M16.49 0.15 C18.52 0.95, 20.07 3.56, 21.25 5.91 C22.42 8.26, 23.93 11.91, 23.54 14.23 C23.16 16.54, 21.15 18.22, 18.95 19.82 C16.75 21.42, 12.99 23.75, 10.33 23.83 C7.67 23.91, 4.53 22, 2.99 20.28 C1.44 18.56, 1.23 15.81, 1.07 13.5 C0.9 11.19, 0.88 8.67, 2 6.42 C3.12 4.17, 5.43 0.95, 7.77 0 C10.1 -0.95, 14.41 0.3, 16.01 0.73 C17.61 1.15, 17.26 2.43, 17.36 2.53 M11.36 -0.77 C13.77 -0.94, 16.58 0.49, 18.45 2.22 C20.32 3.95, 21.97 7.14, 22.59 9.59 C23.21 12.05, 23.4 14.91, 22.16 16.94 C20.93 18.98, 17.3 20.88, 15.19 21.78 C13.08 22.67, 11.71 22.81, 9.5 22.32 C7.3 21.83, 3.7 20.75, 1.96 18.83 C0.23 16.92, -0.93 13.61, -0.91 10.83 C-0.89 8.05, 0.13 4.06, 2.07 2.17 C4.01 0.27, 9.07 -0.13, 10.75 -0.56 C12.43 -0.99, 12.34 -0.55, 12.14 -0.39" stroke="#000000" stroke-width="1" fill="none"></path></g><g stroke-linecap="round" transform="translate(1078.1798732073566 221.38224887087927) rotate(0 11.612759193028978 11.612759193028978)"><path d="M14.72 0.02 C17.05 0.67, 19.9 3.96, 21.32 6.24 C22.74 8.51, 23.77 11.45, 23.26 13.67 C22.75 15.88, 20.06 18.09, 18.24 19.54 C16.43 20.99, 14.71 22.05, 12.39 22.38 C10.07 22.72, 6.31 22.96, 4.33 21.57 C2.34 20.17, 0.8 16.66, 0.49 14.02 C0.18 11.37, 1.38 8, 2.45 5.68 C3.52 3.36, 4.57 0.81, 6.92 0.1 C9.27 -0.6, 14.52 1, 16.55 1.46 C18.57 1.91, 19.26 2.7, 19.1 2.82 M9.36 0.15 C11.85 -0.44, 15.58 0.23, 17.95 1.58 C20.32 2.93, 22.78 6.05, 23.56 8.27 C24.34 10.5, 23.79 12.47, 22.61 14.92 C21.44 17.37, 18.84 21.65, 16.5 22.98 C14.15 24.3, 10.8 23.76, 8.56 22.88 C6.32 21.99, 4.39 19.87, 3.03 17.66 C1.67 15.44, 0.56 11.93, 0.38 9.61 C0.2 7.28, 0.43 5.08, 1.96 3.73 C3.49 2.37, 8.31 2.26, 9.57 1.47 C10.84 0.69, 9.55 -0.84, 9.54 -0.98" stroke="#000000" stroke-width="1" fill="none"></path></g><g stroke-linecap="round" transform="translate(1079.0058442253212 254.1260999401311) rotate(0 11.612759193028978 11.612759193028978)"><path d="M7.76 0.19 C10 -0.46, 14.47 0.29, 16.89 1.18 C19.3 2.07, 21.38 3.24, 22.24 5.54 C23.1 7.85, 22.8 12.43, 22.03 15.01 C21.26 17.59, 19.33 19.63, 17.62 21.04 C15.91 22.46, 14.09 23.5, 11.78 23.49 C9.48 23.47, 5.79 22.83, 3.79 20.96 C1.79 19.09, 0.21 15, -0.2 12.29 C-0.62 9.58, -0.67 6.62, 1.32 4.71 C3.3 2.8, 9.41 1.65, 11.71 0.82 C14.01 0, 15.16 -0.25, 15.12 -0.24 M8.13 0.59 C10.19 0.01, 13.42 0.73, 15.73 1.71 C18.04 2.7, 20.97 4.51, 21.97 6.5 C22.98 8.49, 22.13 11.35, 21.76 13.66 C21.39 15.96, 21.53 18.62, 19.76 20.32 C17.98 22.03, 13.92 23.85, 11.1 23.89 C8.28 23.93, 4.91 22.55, 2.84 20.58 C0.77 18.61, -1.15 14.67, -1.32 12.05 C-1.5 9.42, 0 6.85, 1.8 4.83 C3.6 2.8, 8.61 0.71, 9.45 -0.1 C10.29 -0.91, 7.11 -0.29, 6.84 -0.03" stroke="#000000" stroke-width="1" fill="none"></path></g><g stroke-linecap="round" transform="translate(1079.827882047959 287.08627675218304) rotate(0 11.612759193028978 11.612759193028978)"><path d="M14.31 0.96 C16.78 1.56, 19.96 3.32, 21.28 5.11 C22.6 6.91, 22.36 9.41, 22.23 11.72 C22.09 14.03, 22.06 16.88, 20.47 18.95 C18.89 21.02, 15.25 23.73, 12.72 24.13 C10.19 24.54, 7.17 23, 5.28 21.38 C3.39 19.75, 2.18 16.94, 1.38 14.39 C0.59 11.84, -0.31 8.28, 0.5 6.09 C1.31 3.9, 3.57 2.07, 6.23 1.25 C8.89 0.43, 14.89 1.16, 16.46 1.16 C18.03 1.15, 15.92 1.21, 15.67 1.21 M14.02 -0.03 C16.64 0.31, 20 2.71, 21.59 4.51 C23.17 6.31, 23.81 8.12, 23.52 10.77 C23.23 13.41, 21.64 18.33, 19.86 20.38 C18.07 22.43, 15.08 23.03, 12.8 23.05 C10.52 23.07, 8.15 22.05, 6.17 20.52 C4.2 18.98, 2.03 16.02, 0.95 13.82 C-0.13 11.62, -1.07 9.16, -0.31 7.32 C0.45 5.47, 3.26 4.16, 5.53 2.76 C7.8 1.37, 12.06 -0.57, 13.32 -1.06 C14.59 -1.54, 13.1 -0.5, 13.13 -0.15" stroke="#000000" stroke-width="1" fill="none"></path></g><g stroke-linecap="round"><g transform="translate(1031.971102395648 197.80718391638766) rotate(0 23.25185259012278 -0.16313474362596025)"><path d="M0 0 C7.75 -0.05, 38.75 -0.27, 46.5 -0.33 M0 0 C7.75 -0.05, 38.75 -0.27, 46.5 -0.33" stroke="#000000" stroke-width="1" fill="none"></path></g></g><mask></mask><g stroke-linecap="round"><g transform="translate(1032.4828303282839 197.59253293793336) rotate(0 23.166850802655063 17.461857097286156)"><path d="M0 0 C7.72 5.82, 38.61 29.1, 46.33 34.92 M0 0 C7.72 5.82, 38.61 29.1, 46.33 34.92" stroke="#000000" stroke-width="1" fill="none"></path></g></g><mask></mask><g stroke-linecap="round"><g transform="translate(1032.3738770137716 197.5525583662802) rotate(0 22.907544284936648 33.864239181300036)"><path d="M0 0 C7.64 11.29, 38.18 56.44, 45.82 67.73 M0 0 C7.64 11.29, 38.18 56.44, 45.82 67.73" stroke="#000000" stroke-width="1" fill="none"></path></g></g><mask></mask><g stroke-linecap="round"><g transform="translate(1033.0693063139906 198.79387019982823) rotate(0 23.13296946064338 49.76297587906538)"><path d="M0 0 C7.71 16.59, 38.55 82.94, 46.27 99.53 M0 0 C7.71 16.59, 38.55 82.94, 46.27 99.53" stroke="#000000" stroke-width="1" fill="none"></path></g></g><mask></mask><g stroke-linecap="round"><g transform="translate(1031.182659663713 230.98694267821702) rotate(0 23.6357560044994 -16.544439856284953)"><path d="M0 0 C7.88 -5.51, 39.39 -27.57, 47.27 -33.09 M0 0 C7.88 -5.51, 39.39 -27.57, 47.27 -33.09" stroke="#000000" stroke-width="1" fill="none"></path></g></g><mask></mask><g stroke-linecap="round"><g transform="translate(1031.31894612615 231.09449848100485) rotate(0 23.648279625371742 0.6935875912677147)"><path d="M0 0 C7.88 0.23, 39.41 1.16, 47.3 1.39 M0 0 C7.88 0.23, 39.41 1.16, 47.3 1.39" stroke="#000000" stroke-width="1" fill="none"></path></g></g><mask></mask><g stroke-linecap="round"><g transform="translate(1031.6460336359987 230.34308122864968) rotate(0 23.369076548271096 17.417041557672746)"><path d="M0 0 C7.79 5.81, 38.95 29.03, 46.74 34.83 M0 0 C7.79 5.81, 38.95 29.03, 46.74 34.83" stroke="#000000" stroke-width="1" fill="none"></path></g></g><mask></mask><g stroke-linecap="round"><g transform="translate(1031.931130181746 231.05913766913) rotate(0 23.906118878631332 33.73495121287942)"><path d="M0 0 C7.97 11.24, 39.84 56.22, 47.81 67.47 M0 0 C7.97 11.24, 39.84 56.22, 47.81 67.47" stroke="#000000" stroke-width="1" fill="none"></path></g></g><mask></mask><g stroke-linecap="round"><g transform="translate(1031.6357200658686 264.241576196453) rotate(0 23.759518846063656 -33.173598324354316)"><path d="M0 0 C7.92 -11.06, 39.6 -55.29, 47.52 -66.35 M0 0 C7.92 -11.06, 39.6 -55.29, 47.52 -66.35" stroke="#000000" stroke-width="1" fill="none"></path></g></g><mask></mask><g stroke-linecap="round"><g transform="translate(1031.867038710221 264.0279379580388) rotate(0 23.314561963296455 -15.661156242976176)"><path d="M0 0 C7.77 -5.22, 38.86 -26.1, 46.63 -31.32 M0 0 C7.77 -5.22, 38.86 -26.1, 46.63 -31.32" stroke="#000000" stroke-width="1" fill="none"></path></g></g><mask></mask><g stroke-linecap="round"><g transform="translate(1032.4136579271308 263.98152689245217) rotate(0 22.922646298341988 0.43390662905676436)"><path d="M0 0 C7.64 0.14, 38.2 0.72, 45.85 0.87 M0 0 C7.64 0.14, 38.2 0.72, 45.85 0.87" stroke="#000000" stroke-width="1" fill="none"></path></g></g><mask></mask><g stroke-linecap="round"><g transform="translate(1033.3138852627972 263.88354797621287) rotate(0 23.16243680387288 17.40304456963895)"><path d="M0 0 C7.72 5.8, 38.6 29.01, 46.32 34.81 M0 0 C7.72 5.8, 38.6 29.01, 46.32 34.81" stroke="#000000" stroke-width="1" fill="none"></path></g></g><mask></mask><g stroke-linecap="round"><g transform="translate(1032.5565745417953 298.31319180573155) rotate(0 23.545143924067816 -50.28786293034318)"><path d="M0 0 C7.85 -16.76, 39.24 -83.81, 47.09 -100.58 M0 0 C7.85 -16.76, 39.24 -83.81, 47.09 -100.58" stroke="#000000" stroke-width="1" fill="none"></path></g></g><mask></mask><g stroke-linecap="round"><g transform="translate(1033.3602963283838 297.2007995988133) rotate(0 22.928171425197434 -32.71906455503813)"><path d="M0 0 C7.64 -10.91, 38.21 -54.53, 45.86 -65.44 M0 0 C7.64 -10.91, 38.21 -54.53, 45.86 -65.44" stroke="#000000" stroke-width="1" fill="none"></path></g></g><mask></mask><g stroke-linecap="round"><g transform="translate(1033.2247465495275 298.0752430091525) rotate(0 21.929965173293112 -16.726769042517844)"><path d="M0 0 C7.31 -5.58, 36.55 -27.88, 43.86 -33.45 M0 0 C7.31 -5.58, 36.55 -27.88, 43.86 -33.45" stroke="#000000" stroke-width="1" fill="none"></path></g></g><mask></mask><g stroke-linecap="round"><g transform="translate(1032.8041002249238 298.2277365103655) rotate(0 23.06445788763449 0.34660962473935797)"><path d="M0 0 C7.69 0.12, 38.44 0.58, 46.13 0.69 M0 0 C7.69 0.12, 38.44 0.58, 46.13 0.69" stroke="#000000" stroke-width="1" fill="none"></path></g></g><mask></mask><g stroke-linecap="round" transform="translate(1136.3391340921426 233.1842262238497) rotate(0 11.612759193028978 11.612759193028978)"><path d="M14.76 0.49 C17 1.11, 20.77 3.52, 22.2 5.8 C23.62 8.08, 23.85 11.58, 23.3 14.18 C22.75 16.79, 20.72 20.04, 18.9 21.41 C17.08 22.78, 14.71 22.69, 12.37 22.39 C10.02 22.09, 6.96 21.23, 4.82 19.59 C2.68 17.95, -0.06 14.78, -0.48 12.55 C-0.9 10.32, 1.08 8.25, 2.3 6.22 C3.52 4.18, 4.54 1.18, 6.81 0.34 C9.08 -0.5, 14.08 1.06, 15.92 1.17 C17.76 1.29, 17.81 0.85, 17.85 1.03 M14.75 -0.35 C16.92 -0.12, 17.72 2.72, 19.13 4.56 C20.54 6.41, 22.84 8.56, 23.22 10.74 C23.6 12.91, 22.8 15.57, 21.41 17.62 C20.03 19.67, 17.38 22.31, 14.9 23.03 C12.41 23.75, 8.89 23.04, 6.5 21.93 C4.12 20.82, 1.72 18.97, 0.6 16.35 C-0.52 13.73, -0.98 8.93, -0.23 6.23 C0.53 3.53, 2.65 1.41, 5.14 0.17 C7.63 -1.07, 13.4 -1.48, 14.7 -1.22 C16.01 -0.96, 13.1 1.4, 12.96 1.75" stroke="#000000" stroke-width="1" fill="none"></path></g><g stroke-linecap="round"><g transform="translate(1161.171205692428 245.71542717056764) rotate(0 17.268816731252173 -0.5814185137205641)"><path d="M-1.15 -0.17 C4.76 -0.23, 29.37 -0.83, 35.69 -0.92 M0.44 -1.3 C6.13 -1.19, 28.5 -0.13, 34.48 0.14" stroke="#000000" stroke-width="1" fill="none"></path></g><g transform="translate(1161.171205692428 245.71542717056764) rotate(0 17.268816731252173 -0.5814185137205641)"><path d="M16.96 4.8 C21.38 4.89, 27.26 2.42, 33.31 -1.2 M17.75 5.81 C20.69 4.93, 23.6 3.23, 34.93 -0.52" stroke="#000000" stroke-width="1" fill="none"></path></g><g transform="translate(1161.171205692428 245.71542717056764) rotate(0 17.268816731252173 -0.5814185137205641)"><path d="M17.53 -7.56 C21.71 -3.53, 27.41 -2.06, 33.31 -1.2 M18.31 -6.55 C21.2 -4.92, 23.99 -4.09, 34.93 -0.52" stroke="#000000" stroke-width="1" fill="none"></path></g></g><mask></mask><g stroke-linecap="round"><g transform="translate(1102.4706274523705 197.92800314636406) rotate(0 16.5773927170344 22.664304605610596)"><path d="M0 0 C5.53 7.55, 27.63 37.77, 33.15 45.33 M0 0 C5.53 7.55, 27.63 37.77, 33.15 45.33" stroke="#000000" stroke-width="1" fill="none"></path></g></g><mask></mask><g stroke-linecap="round"><g transform="translate(1101.994565945357 232.60407738144568) rotate(0 16.996361976897333 5.379407195034219)"><path d="M0 0 C5.67 1.79, 28.33 8.97, 33.99 10.76 M0 0 C5.67 1.79, 28.33 8.97, 33.99 10.76" stroke="#000000" stroke-width="1" fill="none"></path></g></g><mask></mask><g stroke-linecap="round"><g transform="translate(1102.43637210408 265.55772243709) rotate(0 16.612087236457228 -11.107077097691217)"><path d="M0 0 C5.54 -3.7, 27.69 -18.51, 33.22 -22.21 M0 0 C5.54 -3.7, 27.69 -18.51, 33.22 -22.21" stroke="#000000" stroke-width="1" fill="none"></path></g></g><mask></mask><g stroke-linecap="round"><g transform="translate(1102.9949977838978 298.39454797164035) rotate(0 15.955965565350652 -27.029226485882646)"><path d="M0 0 C5.32 -9.01, 26.59 -45.05, 31.91 -54.06 M0 0 C5.32 -9.01, 26.59 -45.05, 31.91 -54.06" stroke="#000000" stroke-width="1" fill="none"></path></g></g><mask></mask></svg>