<svg version="1.1" xmlns="http://www.w3.org/2000/svg" viewBox="0 0 1366.5943497224544 433.09169874879626" width="100%" height="100%">
  <!-- svg-source:excalidraw -->
  
  <defs>
    <style class="style-fonts">
      @font-face {
        font-family: "Virgil";
        src: url("https://excalidraw.com/Virgil.woff2");
      }
      @font-face {
        font-family: "Cascadia";
        src: url("https://excalidraw.com/Cascadia.woff2");
      }
    </style>
  </defs>
  <rect x="0" y="0" width="1366.5943497224544" height="433.09169874879626" fill="#ffffff"></rect><g stroke-linecap="round" transform="translate(10 10) rotate(0 214.5 24)"><path d="M0 0 C0 0, 0 0, 0 0 M0 0 C0 0, 0 0, 0 0 M-1.73 7.94 C2.09 5.65, 1.32 3.84, 4.58 -0.83 M-0.5 6.66 C1.18 4.1, 3.42 1.3, 5 0.97 M0.02 9.49 C5.13 6.47, 6.2 7.95, 13.03 1.66 M-0.56 13.09 C4.38 7.25, 7.48 3.41, 10.75 -1.58 M1.32 19.06 C5.04 17.14, 5.81 13.68, 18.66 1.54 M-0.43 17.65 C3.95 14.17, 11.44 8.37, 14.08 0.04 M-1.35 20.74 C3.82 19.13, 8.2 12.72, 20.47 0.7 M1.71 25.27 C9.21 16.53, 16.58 7.38, 19.49 1.37 M-3.4 29.01 C3.77 20.96, 9.98 15.37, 23.22 -0.99 M0.26 29.6 C8.72 19.39, 18.3 8.4, 28.11 1.94 M1.1 38.25 C10.61 28.02, 19.37 14.2, 29.81 -2.33 M-2.13 38.21 C9.79 25.82, 18.54 15.65, 33.41 1.48 M0.21 45.6 C12.38 28, 16.73 24.41, 35.4 2.89 M1.95 42.48 C13.68 25.22, 26.35 11.75, 38.62 0.9 M1.54 49.72 C9.12 37.42, 19.74 26.74, 39.37 1.14 M1.97 46.48 C13.53 37.01, 24.04 20.15, 40.6 -0.34 M5.59 48.46 C23.65 30.67, 38.94 10.05, 46.84 2.39 M6.67 46.81 C15.75 35.7, 23.24 26.87, 47.19 1.17 M14.65 52.04 C23.79 30.83, 39.07 16.38, 56.69 -0.62 M12.87 47.78 C24.28 32.17, 37.16 20.29, 53.14 -1.87 M18.81 51.37 C23.25 37.68, 34.27 23.81, 55.04 2.85 M15.28 48.04 C28.46 36.12, 39.68 20.75, 57.45 1.94 M18.6 47.37 C34.01 32.36, 47.39 15.26, 67.23 0.8 M21.11 47.87 C34.73 29.26, 51.37 14.39, 63.22 0.05 M26.57 46.25 C41.28 32.48, 56.44 11.52, 71.37 1.73 M27.46 46.63 C37.77 36.82, 47.75 24.77, 67.09 1.34 M31.25 50.68 C48.71 26.27, 62.56 10.06, 74.31 1.92 M33.15 48.11 C45.89 29.98, 61.29 12.54, 75.07 1.51 M38.68 47.13 C44.65 39.11, 60.92 24.57, 81.11 -3.38 M36.17 49.92 C49 34.78, 61.71 19.74, 79.9 0.43 M44.37 45.05 C61.3 28.92, 74.24 10.7, 83.11 3.38 M41.49 48.84 C59.08 31.18, 77.96 10.85, 84.97 -0.46 M50.84 48.17 C62.53 28.38, 75.33 13.51, 91.37 1.24 M46.47 50.21 C59.91 32.53, 75.79 17.33, 89.68 -0.78 M55.59 45.7 C62.87 38.73, 73.94 29.02, 92.71 1.97 M52.72 49.3 C65.14 32.79, 77.35 18.77, 97.29 0.13 M60.62 47.64 C66.87 40.24, 76.45 29.31, 99.17 -2.59 M59.47 48.7 C73.36 32.64, 89.31 13.06, 100.33 0.65 M59.75 44.72 C80.82 29.11, 95.02 10.43, 104.05 -1.41 M62.81 48.43 C83.17 30.37, 96.91 8.62, 104.44 -1.82 M67.45 47.94 C81.94 37.4, 95.28 22.13, 107.38 -0.9 M68.33 47.56 C84.64 34.81, 97.59 16.93, 109.79 -1.41 M75.56 48.07 C85.1 28.46, 98.51 16.67, 119.29 -0.99 M75.77 49.86 C85.78 35.1, 96.73 24.81, 118.26 2.28 M80.67 47.6 C93.13 35.72, 106.69 16.89, 124.76 -3.59 M78.28 49.89 C92.63 35.86, 107.88 18.15, 122.09 1.86 M85.61 48.07 C100.25 31.78, 115.31 15.48, 128.43 2.88 M83.72 50.4 C98.71 34.51, 109.34 18.51, 128.59 -0.28 M87.45 49.26 C103.02 31.46, 119.45 16.29, 133.94 3.53 M90.61 47.71 C100.75 35.4, 111.57 26.12, 131.29 -1.79 M95.03 52.46 C111.18 34.64, 123 15.54, 137.4 0.23 M97.47 49.07 C111.98 29.28, 125.11 12.81, 139.38 0.97 M100.88 51.7 C116.51 30.7, 136.6 9.53, 139.43 2.82 M102.7 50.01 C117.8 30.81, 133.79 10.07, 141.54 -1.67 M106.82 45.06 C117.17 32.07, 134.3 18.89, 146.63 0.45 M105.92 47.79 C124.18 30.3, 139.39 11.61, 147.32 0.69 M111.89 49.83 C126.75 34.61, 133.35 21.59, 151.6 0.74 M111.94 46.69 C126.29 33.58, 140.14 14.09, 155.03 -0.14 M113.88 49.84 C124.43 35.21, 140.61 25.2, 158.44 1.08 M116.02 47.45 C127.55 32.83, 140.93 19.76, 157.12 -1.52 M121.3 50.66 C140.61 32.82, 155.76 13.59, 162.72 -4.14 M123.83 48.59 C134.74 35.32, 143.02 22.76, 164.02 -0.64 M130.94 50.89 C139.2 34.35, 145.87 31.45, 169.03 3.76 M128.78 47.86 C138.99 34.65, 151.76 17.84, 169.58 -1.13 M131.81 49.35 C145.95 31.41, 157.62 16.76, 178.92 2.91 M131.9 47.51 C144.52 37.79, 151.63 22.58, 174.85 0.32 M138.65 48.41 C151.35 37.2, 157.79 23.91, 176.46 -1.74 M139.26 47.77 C148.41 35.96, 157.85 24.79, 181.55 -0.67 M139.98 45.17 C158.14 29.57, 177.37 11.15, 188.19 -3.27 M141.78 48.16 C157.58 31.45, 171.31 14.14, 183.89 1.2 M147.52 50.76 C167.61 33.92, 180.68 16.79, 188.67 2.5 M148.62 48.88 C158.41 35.72, 166.42 23.51, 189.97 -1.72 M152.25 49.53 C166.62 36.26, 179.03 20.92, 192.43 0.27 M155.11 48.2 C168.55 29.95, 183.66 14.61, 197.61 -0.64 M157.91 50.38 C174.49 33.77, 194.76 15.29, 199.49 -1.51 M160.05 47.82 C175.15 32.41, 192.05 12.99, 199.8 -0.95 M168.96 45.95 C181.86 29.9, 196.39 13.04, 207.38 -3.38 M165.64 46.23 C181.43 29.35, 196.05 13.65, 208.5 -0.87 M168.09 47.88 C184.44 28.52, 202.7 9.25, 212.61 -3.61 M170.82 48.14 C181.95 34.51, 197.44 18.14, 212.09 1.94 M176.28 46.07 C188.01 38.71, 196.05 24.28, 214.68 1 M175.16 49.78 C190.87 34.18, 202 18.77, 219.16 -0.25 M182.19 51.95 C198.92 33.64, 207.95 17.76, 225.59 2.46 M180.24 48.35 C191.19 37.06, 199.31 25.98, 223.95 0.16 M185.63 50.44 C194.43 36.56, 203.51 22.91, 225.83 -3.25 M184.87 48.09 C195.97 39.31, 203.66 27.41, 230.21 -0.58 M194.22 47.45 C203.43 32.78, 218.49 14.27, 229.89 3.12 M189.71 49.9 C200.92 35.46, 211.82 24.48, 232.55 -0.13 M196.26 45.43 C205.57 31.25, 221.87 15.89, 241.57 0.07 M198 49.04 C208.49 36.83, 219.6 20.97, 239.69 0.02 M204.05 51.32 C212.48 31.64, 227.06 15.78, 242.81 -3.12 M202.68 49.16 C210.74 34.31, 222.03 25.02, 243.11 0.18 M207.35 47.84 C217.05 31.88, 230.26 19.04, 246.45 1.06 M207.87 47.74 C223.58 29.18, 239.8 13.25, 249.69 0.11 M209.44 48.67 C230.67 31.45, 245.03 13.03, 251.55 2.4 M212.66 49.44 C224.21 36.92, 233.19 24.59, 252.94 1.11 M220.57 45.8 C230.17 30.94, 246 11.97, 260.95 0.18 M216.53 47.48 C228.73 37.49, 241.62 22.8, 258.37 -0.56 M222.02 48.7 C241.68 31.48, 250.57 16.28, 261.19 2.45 M223.22 49 C234.86 37.07, 246.22 23.26, 263.39 -0.37 M231.51 47.6 C235.41 38.88, 242.48 29.79, 272.07 -2.74 M230.09 48.47 C240.08 36.55, 248.32 24.41, 270.63 -0.05 M235.29 44.75 C250.61 31.14, 263.41 15.82, 278.65 -0.07 M232.01 49.03 C248.48 34, 262.51 17.4, 275.87 1.66 M237.6 49.64 C247.68 33.59, 259.46 19.38, 280.71 0.27 M238.72 47.88 C247.34 39.86, 255.57 28.35, 281.4 -1.48 M240.65 46.28 C258.72 31.31, 271.95 21.56, 288.77 1.86 M242.72 49.66 C260.12 27.72, 276.07 10.42, 287.88 -1.95 M246.16 52.44 C258.64 36.38, 263.74 26.39, 293.61 1.3 M248.64 47.8 C266.13 28.45, 281.65 8.74, 291.71 -1.03 M251.34 46.89 C264.3 37.63, 281.37 21.68, 294.23 3.41 M253.11 49.94 C266.64 36.69, 274.47 28.74, 296.94 0.57 M258.39 44.66 C275.7 31.75, 287.46 21.67, 299.4 0.56 M258.15 47.27 C273.51 33.38, 284.68 20.21, 300.62 0.05 M262.5 48.28 C277.48 33.18, 297.23 16.01, 307.61 -4.16 M267.02 47.9 C284.43 30.82, 298.2 8.16, 308.68 -2.05 M269.35 51.06 C282.15 31.23, 297.73 15.12, 316.6 -1.62 M269.61 50.26 C281.07 33.89, 290.9 22.59, 313.29 -0.54 M275.13 44.29 C293.21 34.84, 305.21 21.34, 319.34 -1.45 M274.32 48.46 C285.14 38.13, 292.39 29.09, 316.75 -0.16 M283.99 44.55 C291.59 33.49, 308.32 18.8, 321.57 3.24 M281.43 49.67 C294.55 32.64, 307.82 14.21, 324.89 1.81 M288.1 44.89 C296.88 36.93, 302.39 24.45, 329.75 3.07 M286.98 47.5 C299.11 32.43, 315.38 18.7, 326.9 0.85 M293.12 50.15 C309.13 35.69, 317.23 16.6, 336.59 -0.29 M292.11 47.36 C308.35 32.07, 323.23 14.6, 332.71 -1.33 M297.54 44.91 C312.77 32.41, 321.06 22.35, 341.03 -2.95 M298.33 48.6 C309.96 33.16, 324.82 18.4, 340.91 0.51 M305.45 49.02 C315.63 26.71, 329.75 10.5, 341.77 -3.48 M304.17 50.11 C310.01 38.73, 317.98 27.11, 344.06 0.55 M307.36 45.07 C315.27 35.66, 322.17 25.53, 348.59 -2.98 M305.79 47.99 C323.46 30.89, 340.6 13.31, 347.98 0.04 M315.53 50.42 C322.37 37.26, 333.53 20.94, 355.13 2.49 M312.23 49.63 C322.59 38, 333.26 26.32, 356.34 0.89 M317.43 48.45 C334.5 31.11, 352.87 12.1, 359.68 -2.63 M318.81 47.13 C334.15 31.46, 348.06 12.56, 359.35 -0.66 M319.8 51.77 C340.04 32.13, 348.72 22.2, 368.54 2.6 M322.96 46.6 C337.1 36.96, 344.93 21.26, 364.98 0.06 M326.12 49.52 C338.6 34.07, 352.15 18.42, 373.47 -1.12 M329.61 49.63 C344.47 32.06, 355.71 16.52, 372.34 1.52 M332.6 46.58 C351.02 32.26, 358.35 16.66, 379.76 -2.07 M335.08 46.6 C346.02 32.87, 358.72 17.2, 375.51 1.38 M337.7 50.86 C352.89 30.45, 370.03 16.4, 383.66 -2.3 M340.45 50.07 C348.96 37.38, 360.17 21.38, 380.99 1.87 M346.11 48.51 C360.32 29.65, 368.36 16.81, 384.42 -2.31 M343.4 48.17 C356.34 34.4, 366.42 24.22, 387.51 -0.89 M346.29 47.19 C367.14 31.93, 375.98 20.58, 393.8 2.11 M351.65 49.95 C362.28 32.91, 374.34 19.06, 391.42 0.59 M354.4 51.32 C365.7 35.48, 377.81 29.31, 400.03 3.22 M354.77 46.78 C364.41 37.7, 373.59 25.96, 398.59 -1.57 M359.89 49.34 C375.44 33.94, 388.66 13.79, 401.35 0.51 M361.6 49.71 C374.56 30.62, 389.98 18.13, 401.78 -1.15 M369.42 44.93 C379.79 32, 384.93 22.93, 409.97 -0.02 M368.1 46.84 C375.3 36, 382.01 28.52, 408.48 -0.53 M368.4 52.29 C386.81 30.4, 405.43 14.83, 413.62 1.41 M370.75 48.73 C386.13 30.21, 401.19 13.87, 414.32 -1.25 M372.98 47.36 C389 41.59, 393.28 24.92, 419.49 -2.43 M378.38 49.71 C386.9 37.34, 398.29 24.56, 418.93 1.3 M383.56 51.11 C402.16 28, 411.67 11.12, 423.8 1.48 M381.61 49.32 C399 28.85, 415.52 11.52, 423.32 -0.68 M388.77 48.75 C398.7 35.26, 409.94 24.69, 431.08 -1.56 M388.66 49.65 C406.08 29.49, 421.74 10.49, 429.11 -1.32 M391 49.02 C405.81 36.97, 418.48 15.59, 429.72 7.53 M390.76 48.73 C405.51 36.02, 417.08 23.05, 429.9 6.58 M394.37 51.38 C408.67 40.83, 410.09 32.91, 428.54 15.01 M398.03 49.89 C408.46 34.69, 420.5 19.81, 427.72 11.1 M406.23 49.35 C409.33 39.73, 415.71 37.29, 428.32 16.45 M404.84 47.16 C407.29 40.47, 414.52 35.02, 428.47 17.42 M409.21 45.66 C414.05 44, 423.95 36.13, 428.6 21.91 M409.68 46.6 C417.09 39.51, 422.09 30.48, 428.55 23.14 M410.64 47.58 C417.45 43.68, 420.66 43.02, 431.01 31.98 M412.54 47.73 C418.27 42.79, 424.27 38.13, 430.1 32.42 M421.33 50.43 C423.44 47.76, 424.56 40.01, 428.27 37.11 M418.29 49.44 C421.47 43.17, 427.3 39.25, 429.55 37.4 M424.09 47.94 C425.78 47.56, 427.45 43.15, 429.99 42.58 M424.5 48.37 C425.67 46, 427.92 44.93, 429.59 43.65" stroke="#228be6" stroke-width="0.5" fill="none"></path><path d="M-1.83 1.31 C88.3 -1.7, 176.23 -0.78, 429.33 0.31 M-0.67 0.92 C109.29 -1.36, 219.42 0.05, 429.88 0.97 M425.2 -3.8 C426.21 16.53, 426.05 29.75, 427.81 44.88 M429.96 1.88 C427.12 16.66, 429.43 33.43, 427.31 49.77 M427.17 49.05 C296.07 52.85, 160.46 50.94, -1.7 50 M428.42 47.39 C265.8 47.41, 104.78 47.14, -0.11 48.64 M-3.24 46.8 C-0.16 34.95, 3.01 30.96, -3.1 -2.8 M-1.31 48.79 C1.83 31.21, -0.2 11.57, 1.11 0.68" stroke="#000000" stroke-width="1" fill="none"></path></g><g transform="translate(52.5 16) rotate(0 172 18)"><text x="172" y="25" font-family="Virgil, Segoe UI Emoji" font-size="28px" fill="#000000" text-anchor="middle" style="white-space: pre;" direction="ltr">Machine Learning Pipel;ine</text></g><g stroke-linecap="round" transform="translate(12.185959495507632 56.719983540517205) rotate(0 672.2041951134734 183.18585760413953)"><path d="M-0.57 -0.33 C440.34 -6.41, 883.82 -6.54, 1343.68 0.6 M1344.58 -2.1 C1343.84 115.23, 1343.61 230.2, 1344.36 368.4 M1342.98 367.26 C830.29 356.62, 318.67 354.92, 0.84 365.3 M-1.54 366.03 C-0.85 260.56, -4.29 158.04, 0.31 1.24" stroke="#000000" stroke-width="1.5" fill="none" stroke-dasharray="8 9"></path></g><g transform="translate(59.32328576956934 93.29419897466869) rotate(0 428.5 12.5)"><text x="0" y="18" font-family="Virgil, Segoe UI Emoji" font-size="20px" fill="#000000" text-anchor="start" style="white-space: pre;" direction="ltr">Sequence of operations on the dataset that goes from its initial state to the model</text></g><g transform="translate(61.942459552027685 148.65686621791065) rotate(0 117.5 12.5)"><text x="0" y="18" font-family="Virgil, Segoe UI Emoji" font-size="20px" fill="#a61e4d" text-anchor="start" style="white-space: pre;" direction="ltr">Examples of operations:</text></g><g transform="translate(108.73470308447031 185.98116698291778) rotate(0 56 25)"><text x="56" y="18" font-family="Virgil, Segoe UI Emoji" font-size="20px" fill="#000000" text-anchor="middle" style="white-space: pre;" direction="ltr">Data</text><text x="56" y="43" font-family="Virgil, Segoe UI Emoji" font-size="20px" fill="#000000" text-anchor="middle" style="white-space: pre;" direction="ltr">Partitioning</text></g><g transform="translate(263.48421709602826 230.79836487410648) rotate(0 64.5 25)"><text x="64.5" y="18" font-family="Virgil, Segoe UI Emoji" font-size="20px" fill="#000000" text-anchor="middle" style="white-space: pre;" direction="ltr">Missing Data</text><text x="64.5" y="43" font-family="Virgil, Segoe UI Emoji" font-size="20px" fill="#000000" text-anchor="middle" style="white-space: pre;" direction="ltr">Imputation</text></g><g transform="translate(436.00480500020876 179.34477615525975) rotate(0 52.5 25)"><text x="52.5" y="18" font-family="Virgil, Segoe UI Emoji" font-size="20px" fill="#000000" text-anchor="middle" style="white-space: pre;" direction="ltr">Feature</text><text x="52.5" y="43" font-family="Virgil, Segoe UI Emoji" font-size="20px" fill="#000000" text-anchor="middle" style="white-space: pre;" direction="ltr">Extraction</text></g><g transform="translate(578.6315233861933 223.1060137679342) rotate(0 64.5 25)"><text x="64.5" y="18" font-family="Virgil, Segoe UI Emoji" font-size="20px" fill="#000000" text-anchor="middle" style="white-space: pre;" direction="ltr">Data</text><text x="64.5" y="43" font-family="Virgil, Segoe UI Emoji" font-size="20px" fill="#000000" text-anchor="middle" style="white-space: pre;" direction="ltr">Augmentation</text></g><g transform="translate(728.5157318701004 179.65908368731107) rotate(0 79.5 25)"><text x="79.5" y="18" font-family="Virgil, Segoe UI Emoji" font-size="20px" fill="#000000" text-anchor="middle" style="white-space: pre;" direction="ltr">Class Imbalance</text><text x="79.5" y="43" font-family="Virgil, Segoe UI Emoji" font-size="20px" fill="#000000" text-anchor="middle" style="white-space: pre;" direction="ltr">Reduction</text></g><g transform="translate(921.4634681895886 221.52363866130872) rotate(0 66 25)"><text x="66" y="18" font-family="Virgil, Segoe UI Emoji" font-size="20px" fill="#000000" text-anchor="middle" style="white-space: pre;" direction="ltr">Dimensionality</text><text x="66" y="43" font-family="Virgil, Segoe UI Emoji" font-size="20px" fill="#000000" text-anchor="middle" style="white-space: pre;" direction="ltr">Reduction</text></g><g transform="translate(1086.0215818748256 190.53790535631015) rotate(0 38 25)"><text x="38" y="18" font-family="Virgil, Segoe UI Emoji" font-size="20px" fill="#000000" text-anchor="middle" style="white-space: pre;" direction="ltr">Model</text><text x="38" y="43" font-family="Virgil, Segoe UI Emoji" font-size="20px" fill="#000000" text-anchor="middle" style="white-space: pre;" direction="ltr">Training</text></g><g transform="translate(69.38900984662905 305.37716671159797) rotate(0 416 12.5)"><text x="0" y="18" font-family="Virgil, Segoe UI Emoji" font-size="20px" fill="#000000" text-anchor="start" style="white-space: pre;" direction="ltr">In practice, when deploying a model in production, we usually deploy an entire pipeline</text></g><g transform="translate(317.6569185282633 367.9980948749035) rotate(0 287.5 12.5)"><text x="0" y="18" font-family="Virgil, Segoe UI Emoji" font-size="20px" fill="#000000" text-anchor="start" style="white-space: pre;" direction="ltr">that is usually optimized when hyperparameters are tuned</text></g><g stroke-linecap="round"><g transform="translate(233.7067936932708 334.2734509821239) rotate(0 30.929803529546007 24.944018496482386)"><path d="M0.15 0.31 C0.61 8.09, -9.06 37.63, 1.95 45.8 C12.97 53.98, 55.52 48.79, 66.25 49.35 M-1.24 -0.57 C-0.84 6.9, -9.96 35.85, 1.11 43.82 C12.17 51.79, 54.28 46.14, 65.14 47.24" stroke="#364fc7" stroke-width="1" fill="none"></path></g><g transform="translate(233.7067936932708 334.2734509821239) rotate(0 30.929803529546007 24.944018496482386)"><path d="M37.65 58.3 C44.1 54.38, 50.85 52.03, 65.6 47.75 M36.22 57.38 C44.14 55.14, 51.32 52.89, 64.99 47.33" stroke="#364fc7" stroke-width="1" fill="none"></path></g><g transform="translate(233.7067936932708 334.2734509821239) rotate(0 30.929803529546007 24.944018496482386)"><path d="M37.3 37.78 C43.68 38.59, 50.51 40.97, 65.6 47.75 M35.88 36.86 C44.07 40.2, 51.35 43.51, 64.99 47.33" stroke="#364fc7" stroke-width="1" fill="none"></path></g></g><mask></mask></svg>