<svg version="1.1" xmlns="http://www.w3.org/2000/svg" viewBox="0 0 1375.0659403602576 529.1405430260293" width="4125.197821080773" height="1587.4216290780878">
  <!-- svg-source:excalidraw -->
  
  <defs>
    <style class="style-fonts">
      @font-face {
        font-family: "Virgil";
        src: url("https://excalidraw.com/Virgil.woff2");
      }
      @font-face {
        font-family: "Cascadia";
        src: url("https://excalidraw.com/Cascadia.woff2");
      }
    </style>
  </defs>
  <rect x="0" y="0" width="1375.0659403602576" height="529.1405430260293" fill="#ffffff"></rect><g stroke-linecap="round" transform="translate(10 10) rotate(0 196 23)"><path d="M0 0 C0 0, 0 0, 0 0 M0 0 C0 0, 0 0, 0 0 M0.22 6.43 C1.97 3.42, 2.8 4.02, 6.12 1.25 M-0.86 5.6 C1.61 5.29, 2.85 2.93, 5.56 0.13 M-2.31 10.92 C0.34 9.4, 7.56 1.83, 9.95 0.44 M1.04 12.78 C1.75 8.19, 4.86 8.16, 10.65 -0.04 M-2.67 14.72 C8.91 11.18, 15.12 7.01, 15.13 3.01 M1.16 17.34 C1.14 15.57, 6.11 12.6, 16.4 -1.66 M4.11 24.98 C2.45 16.11, 12.9 13.12, 23.06 -0.55 M-1.53 25.33 C7.35 16.18, 15.19 9.72, 19.85 1.12 M-0.03 31.92 C4.61 23.89, 19.77 11.81, 28.88 3.65 M1.78 31.12 C11.48 18.3, 20.5 5.76, 25.21 0.85 M0.18 37.04 C10.33 22.19, 25.44 8.19, 29.27 -0.4 M0.24 38.02 C11.3 23.13, 22.72 9.17, 29.91 -1.54 M2.78 39.1 C12.56 34.82, 19.38 18.72, 33.03 3.57 M1.64 40.71 C8.46 33.33, 20.07 20.55, 35.4 1.26 M3.87 50.87 C16.86 34.46, 31.06 18.41, 42.34 2.06 M-0.27 45.99 C16.4 32.37, 30.41 15.06, 44.36 0.94 M10.26 45.8 C18.65 27.97, 38.05 12.91, 47.51 -2.17 M6.82 47.53 C20.14 29.73, 37.8 15.05, 47.49 -0.43 M10.32 45.22 C20.64 34.41, 32.73 20.57, 56.21 -4.11 M12.67 48.91 C28.4 30.89, 43.42 10.88, 52.73 -0.45 M13.73 44.1 C26.24 36.42, 35.35 25.32, 56.25 1.5 M16.23 45.56 C31.62 28.66, 46.01 12.96, 60.01 1.72 M26.29 45.72 C31.57 39.32, 41.03 22.25, 60.82 -1.85 M24.43 47.3 C39.42 27.19, 56.17 10.32, 62.55 -0.75 M31.18 47.58 C40.49 35.42, 48.77 28.7, 71.21 1.63 M29.47 48.3 C38.02 37.97, 45.69 28.43, 69.51 -0.3 M31.72 47.44 C46.16 32.65, 53.49 22.03, 74.1 -2.09 M31.53 49.14 C47.85 30.52, 61.87 12.47, 75.35 -1 M40.56 45.3 C54.68 30.23, 66.7 17.07, 76.31 -2.71 M40.07 46.73 C52.93 29.48, 67.66 13.29, 78.5 -0.54 M42.54 49.44 C51.83 34.77, 62.43 20.16, 86 -3.76 M44.51 48.39 C55.4 36.49, 65.15 22.01, 86.66 -0.23 M47.81 46.34 C58.6 30.47, 69.78 18.82, 91.48 -0.47 M47.55 45.8 C64.26 32.67, 76.48 15.16, 91.52 0.99 M54.69 46.78 C71.27 30.96, 83.83 15.52, 98.44 -1.82 M55.89 49.03 C71.3 29.01, 86.57 13.64, 94.03 0.54 M62.85 47.75 C75.27 30.41, 84.25 23.65, 100.68 -0.56 M61.46 48.49 C73.45 28.71, 90.69 12.56, 99.11 -1.76 M68.11 46.52 C75.62 33.44, 85.47 25.69, 109.38 -3.19 M64.21 49.02 C76.7 31.38, 89.7 18.78, 104.96 -1.73 M66.97 51.34 C82.41 30.79, 95.07 17.48, 107.83 0.05 M68.66 48.53 C79.84 35.9, 90.57 20.39, 109.78 -0.8 M78.73 43.73 C85.8 32.49, 89.69 29.24, 120.08 -2.06 M73.99 48.33 C90.29 29.43, 104.33 14.35, 116.35 0.69 M79.43 44.68 C95.85 26.21, 112.76 8.11, 120.88 0.45 M80 47.36 C89.82 36.7, 103.25 22.88, 122.08 1.81 M86.5 45.46 C93.26 32.17, 109.09 17.79, 129.8 1.12 M87.77 48.93 C98.23 32.41, 115.77 15.58, 125.04 -0.75 M89.5 45.58 C104.74 38.28, 109.35 27.92, 135.76 3.69 M90.36 46.73 C101.23 33.65, 111.69 21.76, 132.54 -1.94 M95.35 46.79 C110.4 33.75, 124.99 15.86, 139.82 4.18 M98.08 46.79 C110.88 33.31, 125.17 16.12, 135.9 1.68 M99.11 51.1 C112.76 38.68, 124.16 26.31, 144.4 0.83 M101.26 45.58 C117.3 31.61, 128.12 16.59, 143.68 -2.08 M105.22 46.77 C116.74 31.86, 129.89 21.86, 148.07 0.17 M107.46 47.88 C124.05 29.16, 135.3 14.06, 148.45 0.95 M114.22 46.31 C123.87 30.97, 144.12 8.35, 150.76 2.94 M112.24 48.9 C123.81 36.52, 134.91 22.25, 152.04 1.34 M120.04 48.47 C132.94 35.91, 145.63 18.93, 156.51 2.15 M116.42 48.17 C128.42 35.73, 139.7 18.92, 160.24 0.03 M120.75 44.26 C128.5 37.83, 138.21 28.46, 162.75 1.07 M124.82 47.65 C134.36 35.72, 142.95 23.29, 164.14 -1.69 M131.76 50.94 C142.29 34.13, 152.47 23.09, 171.05 3.2 M127.51 45.62 C143.69 34.3, 153.15 15.7, 170.8 -0.12 M132.64 46.02 C149.31 30.99, 160.86 15.34, 176.33 -1.7 M134.55 46.8 C143.01 35.31, 155.14 21.23, 176.53 0.78 M136.31 49.26 C155.57 32.67, 162.38 14.22, 177.64 0.37 M141.25 48.21 C156.54 29.39, 169.19 10.66, 181.65 -0.53 M143.83 48.66 C164.91 25.11, 177.26 7.4, 183.42 1.68 M142.94 49.31 C157.16 30.48, 171.92 13.99, 183.72 -1.26 M149.63 50.48 C164.06 26.16, 179.61 6.72, 190.22 2.73 M148.18 45.9 C158.66 38.63, 170.3 23.88, 192.32 -0.22 M152.26 45.23 C163.28 38.13, 174.33 24.08, 195.97 -1.73 M153.54 48.17 C164.52 34.48, 177.57 23.76, 198.26 0.14 M159.65 49.66 C170.28 37.96, 175.6 24.41, 202.73 -0.67 M160.83 46.66 C170.87 35.82, 176.45 28.18, 200.36 -0.24 M167.86 48.79 C175.9 35.35, 195.19 16.39, 205.92 3.14 M163.87 46.33 C176.78 36.99, 185.05 25.42, 206.68 -1.05 M174.32 45.87 C180.03 31.36, 193.54 22.3, 213.1 -0.76 M169.72 48.46 C182.85 33.23, 192.27 20.92, 213.28 0.4 M172.58 44.42 C192.36 29.87, 212.14 8.44, 217.2 3.36 M177.46 48.76 C187.98 34.46, 197.29 26.87, 217.49 -0.85 M181.57 50.18 C199.58 26.49, 216.6 12.94, 223.27 -0.48 M183.4 47.28 C199.16 31.38, 213.17 12.36, 220.63 0.66 M184.35 45.17 C197.65 34.84, 205 27.61, 229.74 -2.03 M187.85 46.44 C199.46 33.39, 212.62 17.29, 229.25 -1.29 M188.68 46.39 C208.04 26.42, 221.14 10.9, 231.17 1.24 M191.73 45.82 C201.11 38.11, 211.43 24.58, 233.92 1.5 M201.1 44.1 C209.82 39.67, 215.15 29.97, 238.83 -1.19 M198.57 48.34 C213 30.5, 229.44 13.16, 237.81 2.34 M200.9 44.06 C212.58 34.73, 222.76 19.53, 246.75 1.45 M200.56 46.56 C214.28 34.79, 223.44 26.38, 242.7 1.9 M208.78 46.28 C222.34 30.14, 239.38 13.79, 245.73 3.42 M207.14 45.41 C222.23 33.16, 234.65 17.43, 247.03 -1.5 M209.52 51.01 C224.74 33.92, 238.7 21.91, 251.94 1.23 M211.76 48.21 C226.26 31.84, 239.95 16.98, 254.49 -1.18 M221.32 44.77 C232.83 25.65, 250.02 9.46, 261.7 -0.37 M217.1 46.63 C231.26 35.02, 241.21 22.04, 260.78 -0.07 M226.47 46.31 C232.76 34.64, 241.97 21.3, 264.69 -2.38 M221.87 46.74 C233.09 37, 239.55 27.45, 266.83 -0.76 M232.66 44.63 C238.32 31.48, 255.19 18.99, 270.7 2.48 M229.99 46.97 C241.15 32.97, 255.14 18.6, 269.59 0.58 M235.68 45 C244.13 41.4, 253.22 32.55, 274.92 -0.3 M233.41 48.13 C245.18 33.9, 256.11 19.48, 275.25 0.12 M240.73 46.92 C252.84 36.89, 260.07 23.74, 284.65 -0.95 M241.32 47.4 C252.35 30.67, 265.79 18.19, 281.99 0.43 M241.11 50.16 C261.74 28.16, 276.63 11.26, 284.57 -3.47 M246.92 48.34 C254.77 34.95, 264.42 20.82, 285.27 0.43 M247.49 48.72 C257.44 37.51, 272.77 24.1, 287.49 -3.6 M252.64 46.89 C265.92 27.39, 283.19 10.81, 292.52 1.44 M258.67 44.85 C268.54 31.15, 283.79 15.01, 299.59 -2.83 M256.93 45.35 C269.73 30.25, 283.54 17.13, 296.43 1.14 M258.85 43.07 C272.13 35.22, 280.34 23.37, 299.16 -2.41 M259.47 46.4 C273.9 32.87, 284.16 18.99, 301.7 -0.41 M268.32 48.13 C281.5 29.29, 300.97 12.34, 305.9 -1.32 M267.96 47.11 C272.59 38.58, 282.53 26.54, 306.26 1.22 M268.76 43.04 C285.95 32.03, 290.89 28.33, 311.61 1.69 M271.35 48.9 C279.62 36.3, 289.14 25.27, 312.07 0.84 M277.99 51.07 C293.75 33.3, 302.2 17.83, 317.46 2.12 M278.56 47.59 C285.38 36.51, 298.89 23.66, 318.3 1.64 M283.17 49.7 C295.07 30.08, 315.72 9.2, 320.76 3.75 M283.8 47.37 C297.53 28.71, 313.59 10.73, 324.15 1.17 M283.61 48.72 C302.07 33.14, 317.54 11.05, 328.19 -3.44 M289.26 46.78 C294.43 36.48, 305.5 28.28, 330.07 1.36 M295.99 44.11 C307.98 32.48, 318.17 24.55, 334.55 2.83 M294.36 48.76 C308.42 29.71, 323.03 12.46, 332.48 -1.47 M301.12 48.14 C315.97 26.84, 329.42 9.9, 336.03 -0.94 M298.57 46.63 C307.8 35.62, 317.6 25.09, 341.1 1.36 M304.52 44.08 C316.78 32.56, 321.76 26.24, 340.92 2.01 M301.91 46.81 C316.44 30.82, 330.86 11.74, 345.6 0.91 M310.47 44.41 C321.46 30.1, 332.67 21.43, 350.26 -0.56 M307.04 47.12 C317.83 34, 330.19 24.19, 348.27 1.36 M312.01 45.16 C329.37 29.51, 345.21 10.52, 355.82 0.35 M313.28 46.98 C321.14 35.08, 328.9 28.37, 354.02 -1.74 M319.58 44.58 C326.89 30.92, 341.23 19.5, 362.14 -2.75 M321.2 46.2 C330.53 32.24, 340.53 22.87, 360.42 0.81 M323.74 49.19 C334.9 30.61, 352.54 19.49, 367.16 0.89 M323.35 46.98 C332.91 36.39, 345.18 24.41, 366.29 -1.44 M332.4 43.72 C338.44 37.07, 346.08 27.25, 372.94 -1.7 M329.57 47.86 C344.57 28.92, 358.14 12.3, 370.43 -0.55 M333.64 45.21 C346.68 33.04, 360.44 13.53, 374.91 2.72 M333.66 45.79 C346.7 30.78, 363.39 16.08, 376.93 -0.23 M340.87 48.89 C347.5 35.44, 359.76 25.98, 380.61 3.66 M342.69 46.06 C353.5 30.43, 367.38 17.31, 381.83 2.23 M347.65 50.28 C360.67 32.36, 379.82 13.71, 390.98 0.89 M343.73 48.38 C354.39 36.86, 364.01 26.98, 386.47 1.87 M348.91 47.14 C364.75 35.15, 377.95 15.94, 395.07 2.4 M353.09 48.77 C360.14 35.18, 374.07 20.68, 392.15 0.13 M359.71 45.49 C364.44 35.03, 375.93 26.07, 394.07 8.49 M355.1 45.7 C368.19 33.93, 379.01 18.11, 392.2 4.86 M364.48 45.55 C369.99 36.27, 382.08 28.81, 395.78 15.65 M363.31 45.96 C365.99 38.74, 372.49 33.54, 390.43 14.2 M367.76 47.87 C370.73 38.41, 376.95 38.49, 395.47 21.36 M367.29 46.74 C370.88 41.07, 380.74 33.6, 390 17.46 M375.5 47.18 C379.21 41.55, 378.72 36.13, 395.16 20.39 M373.86 45.6 C375.28 40.72, 379.91 37.57, 392.69 23.32 M373.74 46.5 C382.86 40.74, 386.03 33.72, 393.66 31 M377.84 46.47 C381.48 42.2, 389.94 33.45, 392.94 30.1 M382.3 44.24 C384.72 42.33, 390.49 43.06, 391.53 34.49 M383.27 46.03 C386.23 45.06, 387.63 40.96, 391.04 36.44 M389.21 48.23 C390.18 45.08, 389.93 44.39, 392.08 42.3 M387.63 46.85 C389.06 45.19, 391.23 44.2, 392.37 42.98" stroke="#228be6" stroke-width="0.5" fill="none"></path><path d="M-0.5 1.66 C90.32 5.7, 179.08 4.94, 390.47 -1.95 M1.11 -0.18 C146.17 0.61, 291.08 0.41, 392.09 1.05 M391.63 2.19 C392.07 17.53, 396.51 34.87, 393.12 47.7 M393.9 0.83 C390.75 13.56, 390.89 21.79, 391.16 46.22 M389.99 46.37 C309.79 51.54, 226 50.83, 0.5 44.96 M391.14 46.65 C282.94 44.26, 174.56 43.82, 0.77 46.16 M-2.77 49.73 C3.09 32.21, 4.02 13.58, 0.69 -1.08 M1.88 46.97 C-0.27 33.92, 1.04 25.3, 0.41 0.82" stroke="#000000" stroke-width="1" fill="none"></path></g><g transform="translate(51 15) rotate(0 155 18)"><text x="155" y="25" font-family="Virgil, Segoe UI Emoji" font-size="28px" fill="#000000" text-anchor="middle" style="white-space: pre;" direction="ltr">Reinforcement Learning</text></g><g stroke-linecap="round" transform="translate(12.414414087043042 56.400372532751135) rotate(0 676.3257631366073 231.37008524663906)"><path d="M1.11 1.25 C291.26 -7.03, 579.15 -9.1, 1353.8 1.03 M1353.5 -1.17 C1356.43 123.6, 1356.87 251.88, 1353.53 464.26 M1352.38 463.36 C859.28 469.83, 363.35 469.35, -0.67 463.81 M-1.72 464.3 C-5.67 356.38, -4.84 253.85, -1.58 -0.06" stroke="#000000" stroke-width="1.5" fill="none" stroke-dasharray="8 9"></path></g><g transform="translate(70.15780339434968 356.3026374979145) rotate(0 194 12.5)"><text x="0" y="18" font-family="Virgil, Segoe UI Emoji" font-size="20px" fill="#000000" text-anchor="start" style="white-space: pre;" direction="ltr">Learn an optimal policy, i.e., a. function</text></g><g transform="translate(60.19096237662416 93.29419897466323) rotate(0 591.5 12.5)"><text x="0" y="18" font-family="Virgil, Segoe UI Emoji" font-size="20px" fill="#000000" text-anchor="start" style="white-space: pre;" direction="ltr">The machine, a.k.a. the agent, "lives" in an environment and is capable of perceiving its state as a vector of features</text></g><g stroke-linecap="round"><g transform="translate(680.3321006180722 119.09471265867433) rotate(0 283.34490367304716 -0.29788403715247114)"><path d="M0.87 0.54 C94.82 0.2, 470.31 -1.15, 564.53 -1.14 M-0.14 -0.22 C94.12 -0.53, 472.49 0.05, 566.83 -0.13" stroke="#364fc7" stroke-width="1" fill="none"></path></g></g><mask></mask><g transform="translate(524.4506326301707 160.86473067527913) rotate(0 269.5 12.5)"><text x="0" y="18" font-family="Virgil, Segoe UI Emoji" font-size="20px" fill="#000000" text-anchor="start" style="white-space: pre;" direction="ltr">The agent can execute actions in non-terminal states</text></g><g stroke-linecap="round"><g transform="translate(428.64694509550463 122.64286416761206) rotate(0 30.538960729677456 26.340308027404717)"><path d="M-0.79 -1.01 C-2.03 6.87, -18.68 38.72, -6.54 47.78 C5.6 56.85, 58.9 52.55, 72.02 53.38 M0.99 1.08 C-0.4 8.56, -18.72 37.64, -7.04 46.07 C4.64 54.49, 57.84 50.9, 71.07 51.64" stroke="#364fc7" stroke-width="1" fill="none"></path></g><g transform="translate(428.64694509550463 122.64286416761206) rotate(0 30.538960729677456 26.340308027404717)"><path d="M41.23 63.41 C54.63 57.73, 65.73 54.16, 71.99 50.37 M43.82 62.46 C51.8 59.69, 58.87 56.64, 70.9 52.02" stroke="#364fc7" stroke-width="1" fill="none"></path></g><g transform="translate(428.64694509550463 122.64286416761206) rotate(0 30.538960729677456 26.340308027404717)"><path d="M41.17 42.89 C54.68 44.84, 65.81 48.91, 71.99 50.37 M43.76 41.94 C51.59 44.99, 58.68 47.76, 70.9 52.02" stroke="#364fc7" stroke-width="1" fill="none"></path></g></g><mask></mask><g transform="translate(106.53967609354368 239.95977696040427) rotate(0 524 12.5)"><text x="0" y="18" font-family="Virgil, Segoe UI Emoji" font-size="20px" fill="#000000" text-anchor="start" style="white-space: pre;" direction="ltr">Different actions bring different rewards and could move the agent to another state of the environment</text></g><g stroke-linecap="round"><g transform="translate(1089.8864971185849 172.08250316581507) rotate(0 56.268881497224356 27.50908274430185)"><path d="M0.86 0.77 C19.95 2.94, 113.99 2.96, 113.79 11.98 C113.58 21, 18.74 47.86, -0.38 54.89 M-0.15 0.13 C18.83 2.08, 112.83 1.68, 112.65 10.46 C112.47 19.25, 17.71 45.39, -1.25 52.83" stroke="#364fc7" stroke-width="1" fill="none"></path></g><g transform="translate(1089.8864971185849 172.08250316581507) rotate(0 56.268881497224356 27.50908274430185)"><path d="M23.64 33.72 C18.59 38.5, 12.08 41.88, -1.58 51.21 M23.18 34.97 C15.17 40.67, 7.84 46.2, -0.31 53.56" stroke="#364fc7" stroke-width="1" fill="none"></path></g><g transform="translate(1089.8864971185849 172.08250316581507) rotate(0 56.268881497224356 27.50908274430185)"><path d="M30.02 53.23 C23.64 53.49, 15.64 52.31, -1.58 51.21 M29.56 54.48 C19.42 54.21, 10.12 53.74, -0.31 53.56" stroke="#364fc7" stroke-width="1" fill="none"></path></g></g><mask></mask><g transform="translate(70.10913883751346 314.8019429738306) rotate(0 23 12.5)"><text x="0" y="18" font-family="Virgil, Segoe UI Emoji" font-size="20px" fill="#364fc7" text-anchor="start" style="white-space: pre;" direction="ltr">Goal</text></g><g stroke-linecap="round"><g transform="translate(164.57122345222342 385.2814806951028) rotate(0 67.00378605435617 -0.5661077841750739)"><path d="M-0.36 1.14 C21.9 0.94, 112.01 -0.05, 134.36 -0.44 M1.66 0.7 C23.66 0.07, 110.88 -2.16, 133.32 -2.28" stroke="#364fc7" stroke-width="1" fill="none"></path></g></g><mask></mask><g transform="translate(296.14014773464805 408.5478357250031) rotate(0 263 12.5)"><text x="0" y="18" font-family="Virgil, Segoe UI Emoji" font-size="20px" fill="#000000" text-anchor="start" style="white-space: pre;" direction="ltr">that takes the feature vector of a state as input</text></g><g transform="translate(637.3098924262085 465.4334877649562) rotate(0 284.5 12.5)"><text x="0" y="18" font-family="Virgil, Segoe UI Emoji" font-size="20px" fill="#000000" text-anchor="start" style="white-space: pre;" direction="ltr">and outputs an optimal action to execute in that state</text></g><g stroke-linecap="round"><g transform="translate(220.32911458609487 395.7912346741123) rotate(0 32.10662288797721 15.396266375525556)"><path d="M0.55 -0.76 C2.4 3.98, 1.52 22.91, 12.24 28.24 C22.95 33.57, 55.99 30.74, 64.83 31.22 M-0.62 1.46 C0.95 6.33, 0.4 24.6, 11.18 29.27 C21.97 33.93, 55 29.48, 64.11 29.45" stroke="#364fc7" stroke-width="1" fill="none"></path></g><g transform="translate(220.32911458609487 395.7912346741123) rotate(0 32.10662288797721 15.396266375525556)"><path d="M38.89 39.62 C48.02 35.83, 60.94 32.49, 65.76 30.77 M40.54 40.88 C47.78 37.22, 54.45 33.47, 64.78 28.71" stroke="#364fc7" stroke-width="1" fill="none"></path></g><g transform="translate(220.32911458609487 395.7912346741123) rotate(0 32.10662288797721 15.396266375525556)"><path d="M37.75 21.76 C47.3 25.03, 60.67 28.75, 65.76 30.77 M39.4 23.03 C47.07 24.55, 54.07 25.99, 64.78 28.71" stroke="#364fc7" stroke-width="1" fill="none"></path></g></g><mask></mask><g stroke-linecap="round"><g transform="translate(540.3962334700136 447.2210480728827) rotate(0 35.39839699988215 15.88410396695781)"><path d="M-0.76 -0.2 C-0.34 4.26, -10.31 21.75, 2.3 27.3 C14.91 32.86, 62.82 32.11, 74.9 33.11 M1.04 -1.35 C1.84 3.28, -7.78 23.48, 4.5 28.89 C16.78 34.29, 62.87 30.69, 74.71 31.07" stroke="#364fc7" stroke-width="1" fill="none"></path></g><g transform="translate(540.3962334700136 447.2210480728827) rotate(0 35.39839699988215 15.88410396695781)"><path d="M46.41 40.3 C54.8 40.83, 63.56 37.57, 76.03 30.89 M47.68 42.65 C56.97 38.39, 66.19 34.79, 73.97 32.02" stroke="#364fc7" stroke-width="1" fill="none"></path></g><g transform="translate(540.3962334700136 447.2210480728827) rotate(0 35.39839699988215 15.88410396695781)"><path d="M45.98 19.78 C54.58 26.15, 63.47 28.73, 76.03 30.89 M47.25 22.13 C56.65 25.15, 66.03 28.83, 73.97 32.02" stroke="#364fc7" stroke-width="1" fill="none"></path></g></g><mask></mask><g stroke-linecap="round" transform="translate(796.871539887341 451.98708724055905) rotate(0 39.7742857547546 23.763733146832237)"><path d="M42.07 0.67 C49.32 0.53, 58.27 2.79, 64.23 5.62 C70.2 8.44, 75.55 13.14, 77.86 17.65 C80.16 22.15, 80.67 28.28, 78.06 32.66 C75.46 37.04, 68.92 41.33, 62.23 43.92 C55.53 46.5, 45.84 48.27, 37.89 48.18 C29.93 48.1, 20.47 46.55, 14.48 43.41 C8.49 40.27, 3.8 34.11, 1.93 29.33 C0.07 24.55, 0.82 19.01, 3.27 14.72 C5.72 10.44, 9.96 6.2, 16.62 3.62 C23.28 1.03, 38.53 -0.43, 43.24 -0.77 C47.96 -1.11, 45.1 1, 44.88 1.56 M56.5 2.38 C63.21 3.59, 69.54 7.67, 73.56 11.57 C77.59 15.47, 81.54 20.95, 80.65 25.77 C79.75 30.6, 73.66 37.03, 68.2 40.51 C62.74 44, 55.23 46.02, 47.91 46.69 C40.58 47.37, 31.16 46.38, 24.23 44.57 C17.3 42.76, 10.12 39.87, 6.31 35.84 C2.5 31.8, 0.92 25.21, 1.39 20.37 C1.86 15.53, 3.88 9.96, 9.13 6.81 C14.39 3.66, 24.9 2.04, 32.93 1.47 C40.96 0.89, 53.39 3.15, 57.32 3.37 C61.25 3.58, 57.09 2.76, 56.53 2.76" stroke="#e67700" stroke-width="1" fill="none"></path></g><g stroke-linecap="round"><g transform="translate(861.6146851175381 456.1732813494982) rotate(0 23.001147348506493 -21.99745282699041)"><path d="M-0.97 0.09 C6.98 -6.92, 39 -35.24, 46.98 -42.26 M0.71 -0.91 C8.67 -8.26, 38.95 -36.91, 46.6 -44.08" stroke="#e67700" stroke-width="1" fill="none"></path></g><g transform="translate(861.6146851175381 456.1732813494982) rotate(0 23.001147348506493 -21.99745282699041)"><path d="M33.27 -15.46 C37.31 -21.87, 40.87 -30.05, 47.7 -44.43 M33.4 -16.86 C37.01 -25.78, 41.26 -34.57, 47.02 -45.02" stroke="#e67700" stroke-width="1" fill="none"></path></g><g transform="translate(861.6146851175381 456.1732813494982) rotate(0 23.001147348506493 -21.99745282699041)"><path d="M19.2 -30.4 C26.54 -33.16, 33.43 -37.8, 47.7 -44.43 M19.33 -31.79 C27.85 -35.76, 36.85 -39.5, 47.02 -45.02" stroke="#e67700" stroke-width="1" fill="none"></path></g></g><mask></mask><g transform="translate(894.0148698510657 354.28860476135014) rotate(0 134 25)"><text x="0" y="18" font-family="Virgil, Segoe UI Emoji" font-size="20px" fill="#e67700" text-anchor="start" style="white-space: pre;" direction="ltr">It maximizes the expected</text><text x="0" y="43" font-family="Virgil, Segoe UI Emoji" font-size="20px" fill="#e67700" text-anchor="start" style="white-space: pre;" direction="ltr">averaged long-term reward!</text></g></svg>