<svg version="1.1" xmlns="http://www.w3.org/2000/svg" viewBox="0 0 1375.0659403602558 1260.418920443306" width="100%" height="100%">
  <!-- svg-source:excalidraw -->
  
  <defs>
    <style class="style-fonts">
      @font-face {
        font-family: "Virgil";
        src: url("https://excalidraw.com/Virgil.woff2");
      }
      @font-face {
        font-family: "Cascadia";
        src: url("https://excalidraw.com/Cascadia.woff2");
      }
    </style>
  </defs>
  <rect x="0" y="0" width="1375.0659403602558" height="1260.418920443306" fill="#ffffff"></rect><g stroke-linecap="round" transform="translate(10 10) rotate(0 283 23)"><path d="M0 0 C0 0, 0 0, 0 0 M0 0 C0 0, 0 0, 0 0 M1.18 6.02 C0.12 3.96, 3.83 2.95, 5.86 0.36 M-0.6 6.27 C0.83 5.27, 1.06 4.69, 4.41 -0.37 M2.56 10.2 C3.18 6.65, 6.13 1.04, 11.52 -2.2 M-0.26 11.81 C3.72 7.07, 5.44 4.34, 10.95 -1.61 M2.62 21.49 C4.55 12.29, 7.62 6.77, 19.43 -1.04 M1.27 19.37 C3.54 10.53, 8.39 7.5, 17.26 -0.26 M0.3 20.38 C7.26 13.28, 18.11 3.73, 20.2 3.34 M0 24.92 C7.08 17.82, 15.32 9.58, 23 -1.58 M1.77 33.03 C4.23 22.97, 10.54 18.55, 25.95 0.13 M-1.15 31.17 C7.74 23.62, 15.08 13.49, 24.39 -1 M-0.83 40.69 C13.15 22.79, 17.48 8.24, 34.82 -1.98 M0.8 37.97 C11.05 22.79, 22.39 12.15, 30.6 -1.77 M0.23 46.51 C11.45 31.48, 17.93 16.53, 32.9 -0.43 M-0.77 43.93 C8.73 31.18, 17.84 21.3, 35.17 2.17 M2.61 45.33 C14.16 25.07, 35.31 9.63, 46.51 -3.75 M1.88 46.74 C14.48 32.38, 29.95 15.92, 41.68 -0.36 M5.5 43.34 C20.98 35.18, 28.96 22.6, 47.95 -0.55 M7.82 45.33 C19.44 34.75, 31.55 20.37, 47.06 -0.18 M11.5 50.21 C22.65 36.41, 32.83 25.31, 55.73 3.47 M10.93 46.51 C21.74 37.68, 31.49 26.02, 51.32 1.62 M17.36 45.98 C28.24 35.8, 41.06 24.48, 56.3 0.5 M16.09 46.34 C31.45 32.32, 41.16 21.85, 56.79 -0.7 M19.83 48.59 C35.07 33.87, 39.39 25.24, 64.38 -0.37 M22.5 48.18 C36.66 30.66, 47.27 17.65, 61.89 -0.12 M27.83 44.89 C40.8 31.1, 55.7 12.9, 68.62 1.89 M29.44 48.2 C43.02 29.93, 59.8 14.01, 68.34 0.7 M32.29 45.66 C43.53 31.32, 59.1 15.02, 75.91 3.17 M31.55 48.86 C45.35 29.84, 61.6 14.71, 74.97 -1.12 M42.33 48.54 C48.25 30.08, 61.47 19.55, 81.09 1.32 M40.49 48.39 C50.03 34.85, 62.49 20.45, 80.92 0.86 M47.05 45.11 C55.45 28.73, 69.58 13.66, 87.23 -0.95 M44.31 46.37 C55.3 33.19, 66.01 21.28, 83.42 -0.16 M51.78 47.86 C62.29 27, 75.96 11.04, 91.38 2.99 M49.08 45.12 C57.73 36.72, 67.43 26.63, 89.02 1.36 M55.8 49.15 C65.93 36.21, 82.83 18.54, 96.8 2.69 M54.24 47.3 C67.65 32.82, 79.48 16.28, 95.33 0.73 M56.62 48.29 C65.62 36.75, 77.82 28.46, 98.69 1.6 M58.3 45.35 C72.38 33.19, 79.2 21.68, 102.34 0.56 M67.72 50.47 C72.22 37.54, 87.71 25.06, 104.52 -3.94 M66.08 47.01 C79.95 29.54, 94.42 12.55, 106.06 0.25 M66.13 46.54 C78.72 39.55, 90.66 26.37, 111.69 -1.66 M69.85 49.55 C78.87 36.19, 90.55 24.4, 109.86 1.53 M77.48 48.26 C92.63 28.42, 108.35 10.53, 119.17 0.34 M75.8 45.57 C86.95 35.97, 97.84 25.18, 117.53 -1.36 M77.03 43.55 C86.99 39.23, 100.63 29.29, 124.55 0.9 M78.63 48.68 C92.85 33.22, 102.26 22.55, 123.81 0.12 M89.27 48.22 C97.31 39.27, 111.46 22.88, 129.01 0.98 M86.62 47.82 C99.42 28.58, 115.23 11.79, 124.92 -1.42 M93.62 49.01 C99.79 36.1, 117.07 16.65, 132.96 -0.52 M92.85 48.71 C105.44 33.6, 116.31 20.86, 131.66 0.92 M100.76 46.54 C108.3 32.21, 122.12 14.66, 137.79 0.18 M97 47.36 C106.11 36.06, 114.4 26.72, 136.67 1.82 M98.31 46.37 C118.71 33.33, 131.64 14.22, 142.1 -1.22 M100.58 47.6 C117.37 31.11, 129.76 14.9, 144.13 1.26 M111.13 45.93 C118.67 32.77, 126.57 24.81, 151.46 -2.12 M108.68 46.53 C119.54 32.81, 129.2 18.57, 149.11 2.05 M115.04 49.57 C124.73 28.37, 137.84 19.76, 150.65 1.98 M113.2 48.06 C128.67 31.12, 140.45 10.06, 155.2 -0.75 M121.07 47.56 C123.51 35.99, 136.08 26.1, 161.43 0.52 M118.62 48.41 C135.09 28.91, 149.45 13.92, 157.85 1.74 M121.23 47.07 C138.98 29.17, 152.29 16.36, 166.78 2.8 M121.28 45.57 C136.04 31.87, 148.2 20.33, 166.08 1.71 M124.75 43.15 C137.54 40.18, 147.73 23.03, 168.65 -2.95 M127.06 48.84 C141.52 33.84, 151.87 17.05, 169.74 0.12 M135.82 49.8 C149.89 27.89, 165.1 6.59, 176.19 1.41 M134.68 48.34 C148.15 28.92, 166.9 12.21, 173.25 0.23 M141.86 46.88 C151.2 31.61, 164.97 16.48, 183.53 -1.08 M137.45 48.43 C152.33 34.45, 163.63 18.43, 178.88 1.13 M147.24 51.21 C153.25 35.03, 171.91 22.65, 182.03 -3.48 M142.5 45.32 C159.96 27.31, 177.43 8.44, 184.44 -0.83 M153.57 47.45 C161.95 25.71, 180.59 7.59, 194.01 0.08 M148.53 48.49 C160.41 38.5, 168.6 25.08, 190.6 1.51 M153.41 51.24 C171.12 28.23, 177.89 13.13, 197.01 1.33 M153.08 46.24 C167.83 34.23, 175.95 22.6, 194.61 -0.4 M158.56 48.06 C175.49 30.74, 186.23 14.71, 197.53 0.95 M162.26 47.14 C174.03 32.56, 187.77 15.72, 201.52 -1.3 M161.76 48.34 C176.63 30.36, 193.19 16.67, 203.29 3.52 M166.02 45.56 C179.46 35.39, 187.72 19.5, 205.98 -0.63 M173.01 50.4 C183.17 30.03, 197.78 15.69, 209 0.51 M171.87 47.19 C181.92 36.5, 191.65 24.67, 211.47 -1.06 M173.24 47.47 C194.95 29.75, 206.76 5.62, 216.56 -2.71 M176.17 46.5 C191.81 27.28, 208.6 10.46, 216.04 1.06 M182.6 46.67 C197.43 24.96, 210.57 9.52, 220.85 -3.82 M181.84 48.25 C194.74 29.81, 210.79 10.7, 223.56 1.18 M190.25 44.05 C202.21 34.47, 212.62 23.38, 229.99 -0.66 M185.63 49.02 C202.09 30.39, 215.66 12.07, 229.49 0.02 M189.87 44.31 C206.38 37.14, 218.27 24.96, 235.03 -0.09 M191.22 47.42 C204.76 34.74, 214.34 20.17, 232.13 1.13 M200.74 48.04 C210.86 29.62, 232.16 15.9, 237.61 1.62 M195.75 45.84 C209.24 35.44, 217.66 22.46, 237.67 1.09 M200.78 47.01 C214.94 36.36, 229.54 22.65, 246.95 -1.85 M204.31 48.26 C213.93 34.04, 226.7 21.36, 242.78 -0.73 M210.13 43.88 C223.01 30.27, 242.82 12.6, 244.91 0.32 M207.11 46.41 C217.81 32.85, 230.96 21.19, 249.1 -0.4 M212.88 51.23 C220.26 39.07, 227.97 29.76, 253.55 -0.16 M214.67 49.37 C231.24 29.5, 245.12 13.88, 256.36 0.8 M217.36 46.52 C235.95 25.86, 247.42 8.86, 256.92 0.37 M219.58 48.96 C234.82 29.14, 251.2 12.23, 257.61 1.9 M225.84 51.15 C233.69 39.51, 242.07 26.31, 261.26 -3.56 M223.77 49.35 C241.29 31.28, 255.51 13.69, 264.97 -0.3 M230.85 45.4 C240.48 39.55, 248.9 20.65, 272.81 -3.51 M228.24 48.45 C242.28 33.42, 250.41 22.88, 268.9 -1.67 M232.84 47.48 C248.03 37.32, 255.99 25.05, 278 1.88 M236.33 47.53 C248.01 33.98, 260.93 17.97, 275.95 -1.32 M236.53 44.47 C255.73 31.72, 269.32 14.88, 277.26 -2.14 M239.45 48.6 C253.95 30.6, 270.5 13.03, 279.96 -0.03 M244.56 47.41 C260.1 27.94, 272.65 10.76, 289.21 -3.4 M244.33 48.01 C258.36 33.22, 269.01 19.06, 287.89 1.19 M253.83 46.18 C263.61 26.39, 275.52 13.25, 288.46 4.18 M250.8 45.87 C266.09 26.44, 280.83 11.08, 291.01 -1.34 M257.18 48.62 C265.43 36.05, 275.52 26.28, 297.82 -0.43 M255 47.61 C266.53 33.74, 275.91 22.19, 298.66 -0.54 M263.69 43.46 C274.36 31.28, 285.52 18.89, 302.08 -2.35 M263.14 45.47 C272.46 32.92, 285.91 20.58, 301.52 -1 M268.38 47.33 C282.29 31.25, 294.39 23.12, 308.25 -3.79 M266.79 47.95 C281.79 30.82, 294.68 11.81, 309.35 -1.54 M272.52 43.77 C285.55 32.19, 295.16 22.71, 315.3 -1.04 M272.57 45.37 C283.8 36.84, 292.95 24.76, 314.22 -1.67 M277.34 46.22 C290.01 28.25, 301.77 20.21, 318.44 2.48 M277.45 47.34 C292.37 28.02, 310.32 9.93, 316.3 -0.12 M280.27 45.04 C296.13 34.47, 307.99 22.32, 326.81 3.3 M282.44 48.28 C296.15 29.94, 307.77 19.39, 323.07 -1.27 M284.74 46.5 C295.25 32.87, 304.14 27.84, 327.81 0.82 M287.93 48.89 C299.43 34.61, 306.37 26.42, 327.11 -1.78 M296.36 43.73 C307.32 28.55, 320.57 15.43, 336.78 -3.63 M291.34 45.67 C306.49 33.63, 318.59 17.51, 333.3 -0.96 M300.75 47.84 C311.23 32.46, 329.6 12.63, 337.29 -3.83 M298.46 48.43 C314.3 30.93, 326.84 15.99, 340.63 0.66 M307.07 51.54 C314.79 37.21, 322.13 29.77, 346.89 2.37 M304.47 46.51 C318.55 30.26, 334.23 13.75, 345.38 -1.14 M305.07 48.46 C321.55 26.15, 342.02 15.57, 348.67 0.75 M308.51 46.56 C317.88 36.4, 329.37 26.27, 350.3 -0.06 M310.13 44.4 C327.91 30.4, 346.42 11.59, 352.32 -4.01 M312.23 46.26 C330.55 27.96, 346.72 12.88, 355.04 -1.48 M318.86 45.04 C328.65 35.38, 339.84 17.76, 359.17 -1.03 M320.81 48.6 C331.83 36.23, 339.46 26.47, 358.78 -0.73 M326.82 47 C333.38 30.59, 346.42 16.08, 365.75 -1.57 M326.31 47.38 C340.3 28.79, 353.86 11.12, 365.24 -0.88 M332.81 48.78 C341.87 32.06, 350.26 24.17, 373.58 0.05 M329.33 48.66 C339.69 39.24, 348.81 28.48, 370.01 0.85 M332.58 49.81 C350.96 27.31, 363.44 13.51, 377.37 -2.62 M334.32 48.34 C349.33 31.27, 362.49 15.61, 378.22 -1.51 M339.1 45.38 C352.41 28.15, 364.88 18.59, 382.82 2.92 M339.3 45.57 C354.83 31.58, 365.03 16.87, 379.84 -1.09 M344.32 49.75 C361.36 36.04, 365.69 20.9, 386.84 3.04 M347.1 48.35 C354.61 34.24, 368.44 20.01, 387.44 -0.77 M347.4 43.03 C362.84 33.02, 377.17 16.03, 395.32 -2.96 M351.17 46.93 C365.01 34.17, 375.19 21.24, 391.37 0.41 M356.48 50.28 C369.44 32.87, 384.47 14.65, 395.36 0.1 M354.76 47.38 C371.78 29.53, 383.79 13.22, 397.62 0.67 M360.9 48.43 C371.63 34.09, 382.96 27.29, 405.02 2.34 M360.69 45.06 C374.12 30.54, 388.46 16.02, 402.95 1.06 M364.99 45.34 C380.99 36.12, 393.97 18.19, 405.6 3.76 M366.62 46.14 C379.41 37.98, 388.51 26.33, 408.74 -1.1 M376.28 50.77 C387.11 32.93, 402.83 10.96, 415.34 -2.72 M370.81 45.07 C384.16 31.75, 397.19 17.46, 412.17 1.33 M375.28 43.38 C390.43 31.22, 412.2 11.29, 421.73 3.72 M379.31 46.1 C390.2 33.56, 403.12 17.32, 420.02 -1.23 M383.71 45.74 C394.48 32.05, 400.01 23.16, 423.21 -1.2 M383.77 48.79 C393.15 32.94, 407.59 21.43, 423.88 -1.56 M386.28 43.34 C394.48 35.88, 400.92 29.86, 433.45 -3.84 M388.65 45.48 C402.93 28.06, 418.92 12.69, 429.93 -2.14 M390.88 43.55 C405.21 34.39, 419.31 18.03, 435.07 -1.66 M393.03 46.81 C409.45 29.2, 425.61 11.33, 434.18 -1.65 M398.41 50.67 C416.96 33.68, 429.01 12.39, 439.92 -0.22 M397.76 47.23 C409.72 38.29, 418.12 26.16, 440.2 -1.49 M406.97 44.89 C416.12 37.34, 424.66 24.71, 442.83 1.85 M403.31 46.47 C419.22 28.52, 436.33 11.1, 446.41 -0.23 M405.61 45.32 C419.9 35.51, 428.39 23.52, 449.83 -0.21 M408.97 47.07 C426.56 26.2, 441.14 10.33, 451.8 -0.18 M418.64 48.95 C427.93 38.32, 430.95 20.69, 455.94 -2.22 M414.6 47.86 C431.2 29.86, 449.12 12.52, 455.18 -1.83 M419.31 45.72 C430.22 34.02, 435.69 23.88, 465.37 -4.13 M419.89 45.48 C435.35 29.88, 450.54 15.66, 460.95 1.62 M421.44 46.18 C444.18 25.86, 454.43 9.41, 469.32 -2.94 M425.46 48.58 C439.22 31.82, 456.06 14.35, 466.33 1.77 M428.44 44.82 C441.34 35.33, 451.75 16.59, 473.54 2.98 M431.37 47.65 C439.8 35.83, 452.85 22.94, 470.46 1.25 M438.35 47.28 C447.31 32.13, 455.67 19.31, 479.39 1.15 M435.67 48.71 C443.18 36.86, 452.02 26.35, 476.95 -0.48 M439.43 50.08 C453.36 31.12, 467.09 15.48, 480.85 0.29 M439.49 47.56 C453.21 30.52, 466.25 18.57, 480.38 -1.44 M443.89 47.68 C454.67 34.21, 470.13 19, 484.1 1.99 M446.29 47.33 C455.22 38.7, 462.75 25.33, 487.41 1.15 M452.2 43.42 C465.21 33.56, 477.25 15.78, 493.31 -0.23 M451.61 47.92 C463.23 30.43, 479.84 16.68, 492.02 0.38 M454.75 48.58 C475.19 29.9, 490.6 10.77, 498.87 -1.97 M458.31 47.55 C472.99 29.09, 488.48 10.18, 497.28 1.11 M460.18 45.31 C473.73 31.17, 490.25 14.65, 503.12 3.1 M462.33 48.2 C476.88 29.22, 491.97 13.23, 502.6 1.55 M465.1 49.69 C475.21 36.77, 489.48 19.96, 508.63 2.21 M467.94 49.19 C480.65 30.41, 497 11.64, 509.43 -1.37 M474.32 50.69 C483.25 38.43, 495.99 22.34, 511.94 2.49 M473.49 48.61 C484.29 34.12, 497.52 17.32, 512.59 1.66 M478.62 49.19 C491.18 39.47, 500.52 28.26, 515.8 1.97 M478.65 48.86 C492.04 31.04, 503.89 17.66, 517.95 1.67 M483.03 44.99 C496.22 34.26, 505.35 19.2, 522.95 -3.38 M482.19 46.12 C496.83 32.93, 510.27 19.52, 525.72 1.05 M492.5 43.78 C497.16 36.06, 509.27 26.07, 532.33 -0.73 M489.18 47.88 C506.18 30.02, 519.39 13.04, 532.19 -1.06 M492.24 44.17 C503.98 34.26, 508.17 28.09, 532.84 -1.31 M492.78 46.44 C506.9 31.13, 522.38 15.7, 536.96 0.81 M497.41 44.66 C510.62 33.22, 527.13 14.17, 539.63 2.54 M501.49 48.36 C512.98 30.38, 525.72 15.85, 540.74 -0.09 M501.39 46.67 C519.99 34.49, 531.28 18.02, 547.79 -3.6 M504.86 48.03 C514 34.99, 522.54 26.11, 544.54 -1.21 M509.53 45.52 C522.45 36.4, 529.1 19.42, 552.65 2.74 M508.8 49.13 C521.3 35.64, 529.83 25.33, 551.45 -1.21 M519.4 49.43 C529.33 32.66, 547.36 12.12, 559.48 -0.05 M517.27 46.11 C530.89 31.91, 542.63 14.29, 557.91 1.57 M522.54 46.55 C537.63 32.77, 551.55 15.65, 563.8 -2.7 M519.58 45.77 C535.92 32.12, 548.4 16.2, 563.42 -1.45 M524.71 47.91 C538.14 33.62, 548.43 18.61, 568.42 2.77 M528.11 48.66 C537.02 34.84, 549.84 22.61, 565.16 1.24 M531.63 46.46 C541.15 40.22, 551.08 31.29, 569.11 4.97 M529.57 46.64 C543.92 34.45, 555.27 20.49, 565.1 5.7 M536.58 44.8 C547.91 39.07, 550.48 26.84, 568.12 14.64 M538.08 49.12 C546.03 36.15, 553.28 28.39, 565.07 12.47 M541.46 50.43 C552.75 38.65, 565.61 21.73, 565.33 18.68 M541.73 48.81 C551.69 34.97, 559.28 25.23, 567.39 19.18 M545.77 47.04 C557.85 35.36, 560.28 28.01, 564.59 21.93 M545.08 47.47 C554.58 38.55, 561.9 32.14, 566.7 24.77 M550.23 46.17 C554.87 43.5, 556.17 38.14, 569.32 34.85 M554.28 46.13 C555.15 42.41, 557.97 40.06, 567.08 31.69 M558.27 46.67 C561.71 45.64, 561.69 44.36, 564.51 36.86 M556.7 46.91 C560.18 44.47, 562.74 41.34, 568.02 36.08 M563.86 46.28 C564.04 45.59, 564.38 43.9, 566.12 43.34 M563.63 46.62 C563.91 45.93, 565.07 44.17, 566.31 43.41" stroke="#228be6" stroke-width="0.5" fill="none"></path><path d="M-0.32 -0.03 C227.01 -2.05, 451.65 -1.83, 565.1 1.04 M0.77 -0.79 C158.39 3, 317.04 2.93, 566.17 -0.78 M564.75 0.29 C567.21 8.83, 563.93 27.29, 562.45 42.15 M564.13 -1.46 C566.13 13.07, 565.5 27.32, 566.03 44.26 M565.62 44.78 C390.28 48.43, 214.08 50.24, 1.48 47.43 M566.68 45.71 C379.22 42.64, 192.45 43.69, 0.58 45.26 M-1.58 44.62 C0.54 36.07, -0.42 29.38, -1.88 -1.26 M-0.23 45.2 C0.02 32.79, -1.84 19.45, 1.93 1.9" stroke="#000000" stroke-width="1" fill="none"></path></g><g transform="translate(24 15) rotate(0 269 18)"><text x="269" y="25" font-family="Virgil, Segoe UI Emoji" font-size="28px" fill="#000000" text-anchor="middle" style="white-space: pre;" direction="ltr">Estimating Complexity of a ML Project</text></g><g stroke-linecap="round" transform="translate(12.414414087041223 55.93811414008087) rotate(0 676.3257631366073 597.2404031516126)"><path d="M0.91 0.31 C475.64 0.73, 951.48 1.25, 1352.33 -1.14 M1352.25 0.82 C1361.56 290.82, 1362.18 578.71, 1351.92 1193.83 M1353.28 1193.34 C837.73 1196.82, 322.75 1193.71, 0.25 1193.61 M0.51 1193.31 C8.93 787.61, 8.95 382.14, 0.16 0.51" stroke="#000000" stroke-width="1.5" fill="none" stroke-dasharray="8 9"></path></g><g transform="translate(291.6273210968984 149.48225335345887) rotate(0 521.5 12.5)"><text x="521.5" y="18" font-family="Virgil, Segoe UI Emoji" font-size="20px" fill="#000000" text-anchor="middle" style="white-space: pre;" direction="ltr">other than by comparison with other projects executed by the organization or reported in the literature.</text></g><g transform="translate(47.05356728204697 91.03854362134734) rotate(0 398 12.5)"><text x="0" y="18" font-family="Virgil, Segoe UI Emoji" font-size="20px" fill="#000000" text-anchor="start" style="white-space: pre;" direction="ltr">There is no standard complexity estimation method for machine learning projects</text></g><g stroke-linecap="round"><g transform="translate(181.71056965573098 129.01701089839116) rotate(0 39.41553583706718 17.725238360352705)"><path d="M0.79 0.96 C0.69 6.34, -14.21 28.4, -0.04 33.35 C14.13 38.29, 71.21 30.85, 85.82 30.61 M-0.25 0.41 C-0.52 5.95, -14.94 26.26, -0.77 31.46 C13.39 36.67, 70.44 31.94, 84.72 31.65" stroke="#364fc7" stroke-width="2" fill="none"></path></g><g transform="translate(181.71056965573098 129.01701089839116) rotate(0 39.41553583706718 17.725238360352705)"><path d="M58.65 43.94 C67.31 37.97, 75.25 37.01, 85.95 32.02 M56.5 42.33 C68.63 38.61, 79.13 33.71, 84.21 31.96" stroke="#364fc7" stroke-width="2" fill="none"></path></g><g transform="translate(181.71056965573098 129.01701089839116) rotate(0 39.41553583706718 17.725238360352705)"><path d="M57.66 23.45 C66.84 24.57, 75.13 30.72, 85.95 32.02 M55.5 21.83 C67.99 26.22, 78.89 29.43, 84.21 31.96" stroke="#364fc7" stroke-width="2" fill="none"></path></g></g><mask></mask><g stroke-linecap="round"><g transform="translate(441.5084672481353 176.72403022697654) rotate(0 148.77636920522946 -0.14752369578854996)"><path d="M0.21 -0.57 C49.92 -0.75, 248.69 -1.84, 298.69 -2.04 M-1.14 1.74 C48.33 1.79, 247.29 -0.47, 297.48 -0.88" stroke="#e67700" stroke-width="2" fill="none"></path></g></g><mask></mask><g transform="translate(54.01547309485704 213.82898141652367) rotate(0 93.5 18)"><text x="0" y="25" font-family="Virgil, Segoe UI Emoji" font-size="28px" fill="#c92a2a" text-anchor="start" style="white-space: pre;" direction="ltr">The Unknowns</text></g><g transform="translate(54.24369520859182 262.11685905077866) rotate(0 436 12.5)"><text x="0" y="18" font-family="Virgil, Segoe UI Emoji" font-size="20px" fill="#000000" text-anchor="start" style="white-space: pre;" direction="ltr">There are several major unknowns that are almost impossible to guess with confidence..</text></g><g transform="translate(368.1600612124421 299.9911503455751) rotate(0 407 12.5)"><text x="0" y="18" font-family="Virgil, Segoe UI Emoji" font-size="20px" fill="#000000" text-anchor="start" style="white-space: pre;" direction="ltr">..unless you worked on a similar project in the past or read about such a project</text></g><g stroke-linecap="round"><g transform="translate(254.52525401927232 291.1416817272402) rotate(0 43.21259944868416 17.146726078977736)"><path d="M0.01 -0.86 C-0.03 4.44, -15.29 28.41, 0.37 32.91 C16.03 37.41, 78.59 27.35, 93.99 26.14 M-1.44 1.3 C-1.62 7.33, -15.94 30.67, -0.15 34.46 C15.65 38.25, 77.9 25.32, 93.33 24.03" stroke="#a61e4d" stroke-width="2" fill="none"></path></g><g transform="translate(254.52525401927232 291.1416817272402) rotate(0 43.21259944868416 17.146726078977736)"><path d="M65.51 39.66 C76.15 33.62, 86.15 26.55, 93.2 25.16 M66.2 37.33 C72.27 35.81, 80.37 30.91, 92.71 24.22" stroke="#a61e4d" stroke-width="2" fill="none"></path></g><g transform="translate(254.52525401927232 291.1416817272402) rotate(0 43.21259944868416 17.146726078977736)"><path d="M62.52 19.36 C74.4 20.47, 85.45 20.56, 93.2 25.16 M63.21 17.03 C70.18 20.46, 79 20.49, 92.71 24.22" stroke="#a61e4d" stroke-width="2" fill="none"></path></g></g><mask></mask><g transform="translate(228.2454003176099 459.7108048798036) rotate(0 10 12.5)"><text x="0" y="18" font-family="Virgil, Segoe UI Emoji" font-size="20px" fill="#a61e4d" text-anchor="start" style="white-space: pre;" direction="ltr">??</text></g><g transform="translate(65.07930272832436 367.72302241241414) rotate(0 108 25)"><text x="108" y="18" font-family="Virgil, Segoe UI Emoji" font-size="20px" fill="#000000" text-anchor="middle" style="white-space: pre;" direction="ltr">Required quality</text><text x="108" y="43" font-family="Virgil, Segoe UI Emoji" font-size="20px" fill="#000000" text-anchor="middle" style="white-space: pre;" direction="ltr">attainable in practice</text></g><g transform="translate(292.4872456521225 420.4678478471287) rotate(0 114 37.5)"><text x="114" y="18" font-family="Virgil, Segoe UI Emoji" font-size="20px" fill="#000000" text-anchor="middle" style="white-space: pre;" direction="ltr">How much data we will </text><text x="114" y="43" font-family="Virgil, Segoe UI Emoji" font-size="20px" fill="#000000" text-anchor="middle" style="white-space: pre;" direction="ltr">need to reach </text><text x="114" y="68" font-family="Virgil, Segoe UI Emoji" font-size="20px" fill="#000000" text-anchor="middle" style="white-space: pre;" direction="ltr">the required quality</text></g><g transform="translate(533.6230729043837 367.9794448414068) rotate(0 144 37.5)"><text x="144" y="18" font-family="Virgil, Segoe UI Emoji" font-size="20px" fill="#000000" text-anchor="middle" style="white-space: pre;" direction="ltr">Which and how many features</text><text x="144" y="43" font-family="Virgil, Segoe UI Emoji" font-size="20px" fill="#000000" text-anchor="middle" style="white-space: pre;" direction="ltr">are needed so the model</text><text x="144" y="68" font-family="Virgil, Segoe UI Emoji" font-size="20px" fill="#000000" text-anchor="middle" style="white-space: pre;" direction="ltr">can generalize sufficiently</text></g><g transform="translate(857.6644694266388 430.1903338086686) rotate(0 98 25)"><text x="98" y="18" font-family="Virgil, Segoe UI Emoji" font-size="20px" fill="#000000" text-anchor="middle" style="white-space: pre;" direction="ltr">How large the model</text><text x="98" y="43" font-family="Virgil, Segoe UI Emoji" font-size="20px" fill="#000000" text-anchor="middle" style="white-space: pre;" direction="ltr">should be</text></g><g transform="translate(1080.5724530416473 364.41163972516915) rotate(0 99 25)"><text x="99" y="18" font-family="Virgil, Segoe UI Emoji" font-size="20px" fill="#000000" text-anchor="middle" style="white-space: pre;" direction="ltr">How long it will take</text><text x="99" y="43" font-family="Virgil, Segoe UI Emoji" font-size="20px" fill="#000000" text-anchor="middle" style="white-space: pre;" direction="ltr">to train the model</text></g><g transform="translate(467.3278371504348 362.257985592305) rotate(0 10 12.5)"><text x="0" y="18" font-family="Virgil, Segoe UI Emoji" font-size="20px" fill="#a61e4d" text-anchor="start" style="white-space: pre;" direction="ltr">??</text></g><g transform="translate(644.706297186447 461.94852790621735) rotate(0 10 12.5)"><text x="0" y="18" font-family="Virgil, Segoe UI Emoji" font-size="20px" fill="#a61e4d" text-anchor="start" style="white-space: pre;" direction="ltr">??</text></g><g transform="translate(948.5241627218948 381.7947146184579) rotate(0 10 12.5)"><text x="0" y="18" font-family="Virgil, Segoe UI Emoji" font-size="20px" fill="#a61e4d" text-anchor="start" style="white-space: pre;" direction="ltr">??</text></g><g transform="translate(1169.863925287891 453.26173936896885) rotate(0 10 12.5)"><text x="0" y="18" font-family="Virgil, Segoe UI Emoji" font-size="20px" fill="#a61e4d" text-anchor="start" style="white-space: pre;" direction="ltr">??</text></g><g transform="translate(63.09268346614317 542.6341846144969) rotate(0 151.5 18)"><text x="0" y="25" font-family="Virgil, Segoe UI Emoji" font-size="28px" fill="#087f5b" text-anchor="start" style="white-space: pre;" direction="ltr">Simplifying the Problem</text></g><g transform="translate(61.15748556939798 588.9346404590488) rotate(0 501.5 12.5)"><text x="0" y="18" font-family="Virgil, Segoe UI Emoji" font-size="20px" fill="#000000" text-anchor="start" style="white-space: pre;" direction="ltr">One way to make a more educated guess is to simplify the problem and solve a simpler problem first.</text></g><g stroke-linecap="round"><g transform="translate(783.3458044799572 614.2388072387475) rotate(0 138.16432113633937 0.4113929345667202)"><path d="M0.65 -0.62 C46.7 -0.3, 230.74 0.68, 276.8 0.93 M-0.47 1.67 C45.46 1.73, 230.08 -0.38, 276.29 -0.85" stroke="#087f5b" stroke-width="2" fill="none"></path></g></g><mask></mask><g stroke-linecap="round"><g transform="translate(539.82272252654 615.0644270269622) rotate(0 33.99737979811516 -1.1424242353223235)"><path d="M-0.54 0.56 C10.91 -0.07, 57.22 -2.44, 68.53 -2.85 M1.38 -0.19 C12.71 -0.77, 56.35 -1.71, 67.74 -1.77" stroke="#087f5b" stroke-width="2" fill="none"></path></g></g><mask></mask><g transform="translate(131.6223148019617 641.4534262333982) rotate(0 41.5 12.5)"><text x="0" y="18" font-family="Virgil, Segoe UI Emoji" font-size="20px" fill="#c92a2a" text-anchor="start" style="white-space: pre;" direction="ltr">Example:</text></g><g transform="translate(235.7740794440133 644.2225985742316) rotate(0 241.5 12.5)"><text x="0" y="18" font-family="Virgil, Segoe UI Emoji" font-size="20px" fill="#000000" text-anchor="start" style="white-space: pre;" direction="ltr">Classifying a set of documents into 1000 topics.</text></g><g transform="translate(241.31839216951175 692.2924789420795) rotate(0 113.5 37.5)"><text x="113.5" y="18" font-family="Virgil, Segoe UI Emoji" font-size="20px" fill="#000000" text-anchor="middle" style="white-space: pre;" direction="ltr">Run a pilot project by </text><text x="113.5" y="43" font-family="Virgil, Segoe UI Emoji" font-size="20px" fill="#000000" text-anchor="middle" style="white-space: pre;" direction="ltr">focusing on 10 topics </text><text x="113.5" y="68" font-family="Virgil, Segoe UI Emoji" font-size="20px" fill="#000000" text-anchor="middle" style="white-space: pre;" direction="ltr">first (990 as "other")</text></g><g transform="translate(543.3795510551136 695.3962008312337) rotate(0 139 37.5)"><text x="139" y="18" font-family="Virgil, Segoe UI Emoji" font-size="20px" fill="#000000" text-anchor="middle" style="white-space: pre;" direction="ltr">Manually label the data </text><text x="139" y="43" font-family="Virgil, Segoe UI Emoji" font-size="20px" fill="#000000" text-anchor="middle" style="white-space: pre;" direction="ltr">for these 11 classes </text><text x="139" y="68" font-family="Virgil, Segoe UI Emoji" font-size="20px" fill="#000000" text-anchor="middle" style="white-space: pre;" direction="ltr">(10 real topics, plus "other")</text></g><g transform="translate(218.0492062649455 706.1784621773004) rotate(0 5.5 23)"><text x="5.5" y="32" font-family="Virgil, Segoe UI Emoji" font-size="36px" fill="#e67700" text-anchor="middle" style="white-space: pre;" direction="ltr">1</text></g><g transform="translate(512.5487315341843 705.1090836676831) rotate(0 13.5 23)"><text x="13.5" y="32" font-family="Virgil, Segoe UI Emoji" font-size="36px" fill="#e67700" text-anchor="middle" style="white-space: pre;" direction="ltr">2</text></g><g transform="translate(906.7124661732569 693.8470187245166) rotate(0 115.5 37.5)"><text x="115.5" y="18" font-family="Virgil, Segoe UI Emoji" font-size="20px" fill="#000000" text-anchor="middle" style="white-space: pre;" direction="ltr">Solve the problem for 11</text><text x="115.5" y="43" font-family="Virgil, Segoe UI Emoji" font-size="20px" fill="#000000" text-anchor="middle" style="white-space: pre;" direction="ltr">classes, and measure</text><text x="115.5" y="68" font-family="Virgil, Segoe UI Emoji" font-size="20px" fill="#000000" text-anchor="middle" style="white-space: pre;" direction="ltr">time on every stage</text></g><g transform="translate(872.6695098213577 706.741411476054) rotate(0 13 23)"><text x="13" y="32" font-family="Virgil, Segoe UI Emoji" font-size="36px" fill="#e67700" text-anchor="middle" style="white-space: pre;" direction="ltr">3</text></g><g transform="translate(147.0799847309263 787.98851078794) rotate(0 204 12.5)"><text x="0" y="18" font-family="Virgil, Segoe UI Emoji" font-size="20px" fill="#000000" text-anchor="start" style="white-space: pre;" direction="ltr">If the problem is solvable for 11 classes..</text></g><g transform="translate(307.97742932306573 827.5034715887414) rotate(0 273.5 12.5)"><text x="0" y="18" font-family="Virgil, Segoe UI Emoji" font-size="20px" fill="#000000" text-anchor="start" style="white-space: pre;" direction="ltr">.. we can reasonably hope to solve it for 1000 classes</text></g><g stroke-linecap="round"><g transform="translate(1162.962710320503 789.1353159330974) rotate(0 -10.406516311509222 -16.893634801872395)"><path d="M0.83 0.41 C2.16 -4.49, 12.79 -23.19, 7.7 -28.6 C2.61 -34.01, -23.26 -31.26, -29.71 -32.04 M-0.2 -0.42 C1.04 -5.73, 11.89 -24.77, 6.94 -30.37 C2 -35.97, -23.58 -33.66, -29.89 -34.02" stroke="#000000" stroke-width="2" fill="none"></path></g><g transform="translate(1162.962710320503 789.1353159330974) rotate(0 -10.406516311509222 -16.893634801872395)"><path d="M-11.29 -40.21 C-15.78 -37, -20.65 -37.27, -30.81 -34.44 M-11.32 -41.39 C-16.38 -39.07, -20.15 -38.19, -29.19 -33.16" stroke="#000000" stroke-width="2" fill="none"></path></g><g transform="translate(1162.962710320503 789.1353159330974) rotate(0 -10.406516311509222 -16.893634801872395)"><path d="M-11.14 -27.1 C-15.76 -27.49, -20.67 -31.36, -30.81 -34.44 M-11.17 -28.27 C-16.26 -29.17, -20.07 -31.51, -29.19 -33.16" stroke="#000000" stroke-width="2" fill="none"></path></g></g><mask></mask><g transform="translate(992.1347663116067 809.6135732642979) rotate(0 169 30)"><text x="0" y="14" font-family="Virgil, Segoe UI Emoji" font-size="16px" fill="#000000" text-anchor="start" style="white-space: pre;" direction="ltr">Used to estimate the time </text><text x="0" y="34" font-family="Virgil, Segoe UI Emoji" font-size="16px" fill="#000000" text-anchor="start" style="white-space: pre;" direction="ltr">required to solve the full</text><text x="0" y="54" font-family="Virgil, Segoe UI Emoji" font-size="16px" fill="#000000" text-anchor="start" style="white-space: pre;" direction="ltr">problem (N.B., not by multiplying it by 100!!)</text></g><g stroke-linecap="round"><g transform="translate(199.39554359816975 814.7402058900971) rotate(0 42.82033272078479 17.102811759177712)"><path d="M0.08 0.39 C-0.02 5.81, -16.58 29.28, -1.04 33.61 C14.5 37.94, 77.55 27.57, 93.33 26.38 M-1.33 -0.45 C-1 5.14, -14.25 27.72, 1.36 31.86 C16.97 36, 76.92 25.65, 92.33 24.4" stroke="#a61e4d" stroke-width="2" fill="none"></path></g><g transform="translate(199.39554359816975 814.7402058900971) rotate(0 42.82033272078479 17.102811759177712)"><path d="M66.28 37.1 C73.77 33.72, 80.77 30.64, 93.7 25.97 M66.57 38.13 C72.55 33.88, 80.16 30.14, 92.61 24.22" stroke="#a61e4d" stroke-width="2" fill="none"></path></g><g transform="translate(199.39554359816975 814.7402058900971) rotate(0 42.82033272078479 17.102811759177712)"><path d="M63.73 16.74 C72.07 18.73, 79.75 21.03, 93.7 25.97 M64.02 17.77 C70.5 19.07, 78.8 20.88, 92.61 24.22" stroke="#a61e4d" stroke-width="2" fill="none"></path></g></g><mask></mask><g stroke-linecap="round"><g transform="translate(990.8170849378184 894.2857377652872) rotate(0 18.795144766893372 -4.65680556701318)"><path d="M-1.09 1.12 C5.26 -0.51, 32.26 -8.51, 38.68 -10.43 M0.53 0.66 C6.71 -0.72, 31.39 -7.33, 37.95 -8.97" stroke="#000000" stroke-width="2" fill="none"></path></g><g transform="translate(990.8170849378184 894.2857377652872) rotate(0 18.795144766893372 -4.65680556701318)"><path d="M23.46 2.93 C27.13 -2.92, 32.84 -5.76, 38.65 -9.99 M22.25 1.51 C25.9 -0.21, 29.7 -4.05, 37.56 -9.93" stroke="#000000" stroke-width="2" fill="none"></path></g><g transform="translate(990.8170849378184 894.2857377652872) rotate(0 18.795144766893372 -4.65680556701318)"><path d="M20.06 -10.19 C24.84 -11.44, 31.74 -9.7, 38.65 -9.99 M18.85 -11.61 C23.43 -9.82, 28.14 -10.13, 37.56 -9.93" stroke="#000000" stroke-width="2" fill="none"></path></g></g><mask></mask><g transform="translate(635.4655858325341 888.6136546467151) rotate(0 185.5 30)"><text x="185.5" y="14" font-family="Virgil, Segoe UI Emoji" font-size="16px" fill="#000000" text-anchor="middle" style="white-space: pre;" direction="ltr"> The quantity of data needed to learn </text><text x="185.5" y="34" font-family="Virgil, Segoe UI Emoji" font-size="16px" fill="#000000" text-anchor="middle" style="white-space: pre;" direction="ltr">to distinguish between more classes usually </text><text x="185.5" y="54" font-family="Virgil, Segoe UI Emoji" font-size="16px" fill="#000000" text-anchor="middle" style="white-space: pre;" direction="ltr">grows superlinearly with the number of classes.</text></g><g transform="translate(60.951537073170584 982.7673091621891) rotate(0 126 18)"><text x="0" y="25" font-family="Virgil, Segoe UI Emoji" font-size="28px" fill="#5f3dc4" text-anchor="start" style="white-space: pre;" direction="ltr">Nonlinear Progress</text></g><g transform="translate(63.37228815711387 1028.253440581575) rotate(0 317.5 12.5)"><text x="0" y="18" font-family="Virgil, Segoe UI Emoji" font-size="20px" fill="#000000" text-anchor="start" style="white-space: pre;" direction="ltr">The progress of a Machine Learning Project is usually nonlinear.</text></g><g stroke-linecap="round"><g transform="translate(610.6975077491952 1053.3590680938523) rotate(0 40.97454551659712 0.5777201515174966)"><path d="M0.58 -1.02 C14.1 -0.59, 67.04 1.8, 80.35 2.17 M-0.57 1.06 C13.37 1.22, 68.61 0.37, 82.52 0.64" stroke="#5f3dc4" stroke-width="2" fill="none"></path></g></g><mask></mask><g transform="translate(94.51357146811915 1071.9634301602546) rotate(0 522.5 12.5)"><text x="0" y="18" font-family="Virgil, Segoe UI Emoji" font-size="20px" fill="#000000" text-anchor="start" style="white-space: pre;" direction="ltr">The prediction error usually decreases fast in the beginning, but then the progress gradually slows down </text></g><g stroke-linecap="round"><g transform="translate(381.2816938091937 1099.3241497883992) rotate(0 148.80207068742266 -0.4458106384736311)"><path d="M0.7 -1.17 C50.52 -1.52, 248.23 -1.74, 297.99 -1.73 M-0.39 0.84 C49.34 0.63, 247.04 0.37, 296.96 -0.32" stroke="#5f3dc4" stroke-width="2" fill="none"></path></g></g><mask></mask><g stroke-linecap="round"><g transform="translate(942.0002457561304 1100.4429612096264) rotate(0 89.89066547676202 -3.0953403863095446)"><path d="M0.05 -0.39 C30.44 -1.24, 150.87 -5.14, 181.17 -5.8 M-1.39 -1.63 C28.92 -2.27, 149.59 -3.79, 180.03 -4.57" stroke="#5f3dc4" stroke-width="2" fill="none"></path></g></g><mask></mask><g transform="translate(1007.4224184044651 1134.8570893859905) rotate(0 151.5 40)"><text x="151.5" y="14" font-family="Virgil, Segoe UI Emoji" font-size="16px" fill="#5f3dc4" text-anchor="middle" style="white-space: pre;" direction="ltr">This will help not only in reporting, </text><text x="151.5" y="34" font-family="Virgil, Segoe UI Emoji" font-size="16px" fill="#5f3dc4" text-anchor="middle" style="white-space: pre;" direction="ltr">but also in the estimation</text><text x="151.5" y="54" font-family="Virgil, Segoe UI Emoji" font-size="16px" fill="#5f3dc4" text-anchor="middle" style="white-space: pre;" direction="ltr"> of the complexity of similar projects </text><text x="151.5" y="74" font-family="Virgil, Segoe UI Emoji" font-size="16px" fill="#5f3dc4" text-anchor="middle" style="white-space: pre;" direction="ltr">in the future.</text></g><g transform="translate(308.1417871702806 1136.7105209774782) rotate(0 149.5 37.5)"><text x="149.5" y="18" font-family="Virgil, Segoe UI Emoji" font-size="20px" fill="#000000" text-anchor="middle" style="white-space: pre;" direction="ltr">Make sure the product owner </text><text x="149.5" y="43" font-family="Virgil, Segoe UI Emoji" font-size="20px" fill="#000000" text-anchor="middle" style="white-space: pre;" direction="ltr">(or the client) understands </text><text x="149.5" y="68" font-family="Virgil, Segoe UI Emoji" font-size="20px" fill="#000000" text-anchor="middle" style="white-space: pre;" direction="ltr">the constraints and risks</text></g><g transform="translate(140.5718898947125 1157.3803140398559) rotate(0 62.5 12.5)"><text x="62.5" y="18" font-family="Virgil, Segoe UI Emoji" font-size="20px" fill="#5f3dc4" text-anchor="middle" style="white-space: pre;" direction="ltr">What to do?</text></g><g transform="translate(691.0971988123847 1151.109061992809) rotate(0 134 25)"><text x="134" y="18" font-family="Virgil, Segoe UI Emoji" font-size="20px" fill="#000000" text-anchor="middle" style="white-space: pre;" direction="ltr">Carefully log every activity</text><text x="134" y="43" font-family="Virgil, Segoe UI Emoji" font-size="20px" fill="#000000" text-anchor="middle" style="white-space: pre;" direction="ltr">and track the time it took</text></g><g stroke-linecap="round"><g transform="translate(1006.4781724613404 1174.7028538641753) rotate(0 -17.19348637755911 2.131428289237192)"><path d="M1.07 -0.12 C-4.79 0.41, -28.87 3.34, -34.76 4.09 M0.18 -1.23 C-5.84 -0.59, -29.67 4.34, -35.46 5.5" stroke="#5f3dc4" stroke-width="2" fill="none"></path></g><g transform="translate(1006.4781724613404 1174.7028538641753) rotate(0 -17.19348637755911 2.131428289237192)"><path d="M-20.49 -3.05 C-25.7 0.93, -30.38 1.06, -35.91 5.94 M-20.22 -3.39 C-25.71 -0.46, -31.34 4.19, -35.2 5.97" stroke="#5f3dc4" stroke-width="2" fill="none"></path></g><g transform="translate(1006.4781724613404 1174.7028538641753) rotate(0 -17.19348637755911 2.131428289237192)"><path d="M-18.08 8.86 C-24.19 8.85, -29.68 4.99, -35.91 5.94 M-17.82 8.51 C-24.19 6.81, -30.76 6.84, -35.2 5.97" stroke="#5f3dc4" stroke-width="2" fill="none"></path></g></g><mask></mask></svg>