<svg version="1.1" xmlns="http://www.w3.org/2000/svg" viewBox="0 0 1375.269851642921 2538.982587150045" width="4125.809554928763" height="7616.947761450136">
  <!-- svg-source:excalidraw -->
  
  <defs>
    <style class="style-fonts">
      @font-face {
        font-family: "Virgil";
        src: url("https://excalidraw.com/Virgil.woff2");
      }
      @font-face {
        font-family: "Cascadia";
        src: url("https://excalidraw.com/Cascadia.woff2");
      }
    </style>
  </defs>
  <rect x="0" y="0" width="1375.269851642921" height="2538.982587150045" fill="#ffffff"></rect><g stroke-linecap="round" transform="translate(10 10) rotate(0 130.5 23)"><path d="M0 0 C0 0, 0 0, 0 0 M0 0 C0 0, 0 0, 0 0 M0.44 6.67 C-0.15 3.8, 4.1 3.71, 5.72 1.82 M-0.52 6.41 C1.77 4.01, 2.6 2.02, 5.29 0.42 M-2.29 9.8 C4.42 7.65, 7.73 6.67, 10.78 1.85 M0.34 13.56 C3.17 7.13, 6.85 4.49, 11.9 -0.01 M-1.53 21.14 C3.9 11.9, 10.8 4.33, 12.78 2.19 M0.59 18.24 C3.92 14.12, 10.24 4.85, 16.64 2 M2.78 23.97 C5.95 14.02, 11.36 10.8, 23.44 3.1 M0.39 22.69 C6.23 20.42, 9.86 15.11, 23.25 -0.59 M1.92 33.42 C8.55 20.07, 9.37 14.1, 29.02 -1.67 M1.01 29.08 C7.5 23.54, 10.97 16.19, 24.43 1.92 M1.91 35.7 C6.71 21.4, 19.56 11.1, 35.22 -1.87 M-0.6 35.77 C7.49 27.56, 16.22 19.46, 32.56 1.4 M3.59 43.01 C10.23 27.96, 15.47 24.27, 36.74 1.06 M0.87 43.28 C9.63 29.02, 22.02 15.78, 37.41 1.29 M0.8 43.58 C10.65 37.07, 22.83 26.23, 45.28 1.14 M1.09 46.46 C11.47 36.08, 19.64 26.48, 41.98 -2.04 M7.67 49.59 C20.55 31.11, 26.48 18.17, 51.01 -0.83 M5.29 48.54 C23.48 29.08, 39.69 9.32, 47.92 2.09 M12.25 45.57 C26.68 33.65, 34.39 20.79, 50.62 1.95 M13.78 47.66 C28.48 27.54, 44.68 11.96, 51.39 0.03 M15.03 47.5 C34.82 27.87, 42.88 17.51, 56.77 1.56 M16.3 46.07 C25.29 36.88, 37.17 24.01, 56.4 -0.78 M18.5 46.64 C35.42 33.92, 51.42 14.49, 62.12 -1.46 M21.46 48.1 C28.52 38.87, 39.14 27.49, 62.74 1.49 M31.13 48.73 C42.11 32.73, 55.52 8.58, 64.83 -2.75 M28.65 45.52 C43.53 31.16, 57.74 13.9, 67.32 0.53 M36.88 45.31 C40.96 34.33, 51.93 19.17, 72.54 -3.01 M33.36 46.89 C48.9 28.08, 65.45 11.06, 76.05 -0.84 M39.22 44.88 C48.26 35.98, 59.22 22.44, 79.9 3.38 M39.1 46.96 C46.62 38.11, 54.56 25.26, 81.22 -1.2 M46.59 44.24 C59.85 33.03, 74.88 13.96, 88.52 3.51 M42.77 48.05 C52.49 35.28, 65.67 21.03, 85.38 0.78 M52.43 43.66 C67.24 25.35, 77.4 7.39, 92.53 1.25 M50.49 45.39 C59.41 34.71, 69.71 24.78, 90.71 -0.24 M52.68 50.21 C60.66 35.76, 70.48 22.68, 98.55 0.45 M55.05 48.55 C64.03 36.52, 76.98 23.96, 94.89 1.06 M57.77 44.91 C71.51 30.64, 87.46 12.46, 103.18 0.24 M59.7 46.76 C76.58 28.41, 90.71 12.89, 100.47 -1.93 M62.11 50.1 C79.31 31.05, 89.59 21.06, 105.02 2.26 M63.61 46.32 C76.74 35.84, 84.22 22.72, 106.76 1.61 M71.46 49.34 C89.37 31.69, 103.53 10.82, 114.16 -2.11 M69.03 48.69 C83.98 33.97, 96.14 18.9, 111.21 1.31 M75.69 50.95 C89.47 34.55, 103.84 17.28, 115.52 0.28 M73.95 48.18 C88.66 32.51, 101 13.9, 116.61 -0.25 M77.57 47.53 C93.73 28.92, 111.52 11.65, 121.66 3.84 M80.79 49.5 C93 34.1, 105.75 17.16, 123.75 -1.96 M88.11 47.91 C104.1 32.38, 117.24 10.9, 129.51 -0.27 M87.6 45.93 C95.1 33.83, 106.3 24.06, 128.07 1.49 M88.08 48.45 C101.54 38.5, 114.08 19.01, 131.76 -0.13 M89.42 48.69 C105.54 29.17, 122.16 8.85, 130.92 1.71 M95.95 48.25 C103.96 33.52, 116.92 26.98, 134.33 0.19 M98.17 48.29 C112.16 30.4, 127.78 15.43, 136.88 2.01 M105.48 44.44 C114.36 33.15, 126.95 18.58, 144.39 3.87 M100.03 47.94 C113.49 33.61, 121.25 23.44, 141.66 -1.26 M105.65 47.38 C120.98 26.66, 141.95 9.13, 147.86 0.62 M107.32 48.91 C124.47 30.38, 137.08 12.79, 149.48 -1.3 M114.17 43.96 C122.31 33.24, 133.78 20.07, 153.38 -2.12 M111.85 47.9 C123.38 37.75, 130.17 26.37, 152.93 0.47 M117.52 44.82 C130.96 40.68, 134.7 28.47, 161.85 0.12 M116.8 46.4 C130.04 33.25, 143.44 17.36, 158.38 -0.14 M120.39 47.6 C138.08 32.08, 153.66 13.48, 162.41 0.05 M122.12 48.12 C137.39 31.84, 147.26 16.99, 165.8 -0.81 M125.75 44.21 C146.95 30.81, 163.76 9.53, 165.95 -2.11 M128.39 48.29 C143.52 28.43, 160.63 12.1, 170.17 0.75 M136.29 48.07 C146.91 27.61, 165.6 9.79, 177.07 0.64 M134.18 47.11 C146.9 30.68, 163.58 13.27, 173.36 0.12 M142.43 45.34 C147.89 32.33, 158.86 21.55, 179.64 1.28 M139.95 47.05 C150.52 30.85, 165.05 19.99, 181.48 -0.43 M147.85 46.21 C158.23 32.19, 177.47 11.24, 188.78 2.07 M145.41 46.3 C153.97 38.68, 160.95 25.77, 184.78 1.42 M149.48 44.1 C167.71 28.87, 177.6 10.51, 188.32 1.75 M149.4 48.08 C161.81 30.64, 178.41 16.33, 191 1.44 M154.97 50.98 C168.67 30.86, 180.17 22.11, 198.87 2.85 M155.27 46.08 C162.45 37.92, 171.3 28.26, 197.29 -1.82 M162.73 48.53 C174.46 30.27, 187.22 18.56, 199.25 -1.12 M158.72 45.74 C176.54 31.45, 190.41 12.44, 199.51 -1.58 M163.41 47.47 C176.67 37.53, 178.84 29.91, 210.53 -2.37 M165.25 45.76 C182.14 31.79, 196.09 13.82, 208.19 -1.55 M167.88 46.76 C181.07 34.29, 200.43 14.87, 209.54 0.39 M169.96 47.32 C183.19 32.5, 196.05 19.01, 213.83 1.52 M176.78 44.89 C192.16 35.62, 202.2 19.48, 220.83 1.2 M174.95 47.59 C184.15 34.71, 193.31 26.16, 218.83 -0.82 M184.48 47.09 C188.98 34.81, 202.27 23.98, 222.21 -1.88 M181.22 45.02 C195.05 32.81, 207.12 17, 222.84 0.68 M188.6 44.59 C196.37 32.32, 205.89 22.33, 228.72 0.45 M186 48.76 C202.37 31, 216.91 15.8, 226.64 -1.7 M193.34 46.65 C209.59 31.6, 228.4 8.49, 230.14 0.03 M190.01 48.77 C201.7 35.88, 207.52 26.22, 233.5 0.77 M198.25 48.02 C207.84 38.45, 219.37 26.6, 234.35 3.16 M198.09 45.41 C213.71 30.35, 226.33 13.51, 236.43 -0.61 M203.07 44.47 C217.98 28.51, 229.07 12.62, 240.08 -1.8 M203.88 47.15 C213.4 33.87, 225.6 20.61, 242.82 1.62 M210.99 48.77 C219.77 33.76, 235.29 16.74, 249.73 2.98 M209 48.6 C219.91 31.29, 234.95 19.55, 247.07 0.75 M214.21 45.95 C225 26.77, 247.78 8, 256.67 0.85 M212.46 47.95 C223.36 36.51, 228.44 27.33, 253.87 -2.03 M221.94 48.55 C235.52 28.53, 243.79 14.88, 262.77 -0.07 M218.54 48.32 C230.09 30.9, 242.73 16.68, 259.51 -0.17 M221.84 43.87 C237.04 28.96, 250.21 12.2, 264.44 2.58 M222.12 47.15 C238.25 28.84, 252.36 13.15, 261.82 1.79 M232.11 49.21 C238.49 30.96, 249.53 20.5, 265.36 4.96 M228.6 45.53 C240.71 35.26, 254.67 20.88, 264.84 5.86 M230.9 51.13 C248.3 38.21, 252.62 26.96, 265.21 11.41 M235.26 45.64 C243.15 33.68, 253.34 22.29, 263.32 13.23 M240.38 44.7 C241.92 40.87, 255.05 33.16, 259.79 23.33 M239.14 48.09 C249.07 36.16, 258.53 26.69, 262.78 19.16 M248.2 44.75 C245.93 43.14, 256.67 39.58, 265.77 26.1 M246.38 49.29 C247.87 43.24, 252.75 35.72, 264.15 26.07 M251.46 45.21 C252.51 46.69, 258.05 38.59, 261.57 28.85 M252.09 46.84 C255.13 44.32, 258.86 38.17, 264.31 33.19 M257.33 46.47 C256.74 42.84, 259.59 41.48, 262.76 38.94 M254.67 48.26 C259.42 44.42, 261.44 41.47, 263.59 38.59" stroke="#228be6" stroke-width="0.5" fill="none"></path><path d="M0.12 -0.77 C61.28 -1.48, 128.47 -4.52, 259.3 -1.41 M0.93 0.37 C67.13 2.24, 132.58 3.06, 259.99 0.89 M262.77 3.62 C256.95 12.21, 257.89 24.75, 259.63 49.07 M262.62 -0.95 C258.81 11.31, 259.81 23.63, 259.01 46.88 M263.23 46.49 C173.47 46.69, 80.78 45.18, 1.97 47.03 M260.73 45.01 C172.35 48.06, 84.59 50.96, -1.09 45.6 M1.47 43.94 C0.24 38.6, -3.14 23.21, -2.53 -1.15 M-1.56 47.93 C0.78 33.61, -0.73 16.16, 1.14 0.93" stroke="#000000" stroke-width="1" fill="none"></path></g><g transform="translate(48 15) rotate(0 92.5 18)"><text x="92.5" y="25" font-family="Virgil, Segoe UI Emoji" font-size="28px" fill="#000000" text-anchor="middle" style="white-space: pre;" direction="ltr">Data Storing</text></g><g stroke-linecap="round" transform="translate(12.618325369707236 56.0889493881823) rotate(0 676.3257631366068 1236.4468188809315)"><path d="M-0.32 -0.68 C314.39 -2.53, 627.52 -2.7, 1352.94 -0.39 M1352.88 0.67 C1347.73 941.71, 1346.61 1883.65, 1352.08 2472.21 M1352.85 2472.76 C1022.66 2469.48, 692.44 2469.29, 0.44 2473.19 M-0.32 2473.01 C7.27 1942.6, 8.24 1411.67, 0.2 -0.13" stroke="#000000" stroke-width="1.5" fill="none" stroke-dasharray="8 9"></path></g><g transform="translate(52.246038582165056 98.14512470751652) rotate(0 531.5 12.5)"><text x="0" y="18" font-family="Virgil, Segoe UI Emoji" font-size="20px" fill="#000000" text-anchor="start" style="white-space: pre;" direction="ltr">Before deciding how and where to store the data, it is essential to choose the appropriate storage level.</text></g><g stroke-linecap="round"><g transform="translate(296.4295177695003 124.15172191911734) rotate(0 27.381840470421594 -0.06867177792264556)"><path d="M-1.06 -0.89 C19.26 0.83, 39.05 1.32, 55.38 0.38 M-0.63 0.55 C15.29 -0.28, 30.31 0.27, 55.83 -0.99" stroke="#e67700" stroke-width="2" fill="none"></path></g></g><mask></mask><g transform="translate(94.831503069865 232.66767976495248) rotate(0 147 12.5)"><text x="0" y="18" font-family="Virgil, Segoe UI Emoji" font-size="20px" fill="#000000" text-anchor="start" style="white-space: pre;" direction="ltr">Foundational level of storage</text></g><g stroke-linecap="round"><g transform="translate(211.84585428547143 124.0944905901797) rotate(0 15.521981907319969 0.11872957553714514)"><path d="M-0.67 -0.74 C8.98 1.7, 17.62 -0.55, 31.7 -0.04 M0.51 0.77 C7.83 0.26, 16.45 0.33, 31.71 0.98" stroke="#e67700" stroke-width="2" fill="none"></path></g></g><mask></mask><g stroke-linecap="round"><g transform="translate(981.49251608761 126.77923815661052) rotate(0 64.82556617085447 0.47988069147231727)"><path d="M0.51 -0.86 C49.21 -0.48, 99.6 -2.52, 129.14 1.96 M0.77 0.53 C42.26 0.47, 84.77 1.16, 127 0.85" stroke="#e67700" stroke-width="2" fill="none"></path></g></g><mask></mask><g transform="translate(1187.5506673143373 206.28365615980874) rotate(0 49 12.5)"><text x="0" y="18" font-family="Virgil, Segoe UI Emoji" font-size="20px" fill="#000000" text-anchor="start" style="white-space: pre;" direction="ltr">filesystem</text></g><g transform="translate(1165.233912634565 180.51284222562208) rotate(0 76.5 12.5)"><text x="0" y="18" font-family="Virgil, Segoe UI Emoji" font-size="20px" fill="#000000" text-anchor="start" style="white-space: pre;" direction="ltr">Object Storage</text></g><g transform="translate(1189.564031171105 153.29498852517463) rotate(0 50.5 12.5)"><text x="0" y="18" font-family="Virgil, Segoe UI Emoji" font-size="20px" fill="#000000" text-anchor="start" style="white-space: pre;" direction="ltr">Database</text></g><g transform="translate(1180.866478920725 128.0744305662247) rotate(0 52.5 12.5)"><text x="0" y="18" font-family="Virgil, Segoe UI Emoji" font-size="20px" fill="#000000" text-anchor="start" style="white-space: pre;" direction="ltr">Data lake</text></g><g stroke-linecap="round"><g transform="translate(1126.9334340471269 234.21832477693715) rotate(0 23.279627298959895 -10.150503281205602)"><path d="M0.25 0.93 C0.75 -2.07, -4.64 -15.15, 3.42 -18.49 C11.49 -21.84, 41.09 -18.85, 48.65 -19.15 M-1.08 0.37 C-0.73 -2.42, -5.38 -13.65, 2.74 -17.25 C10.86 -20.85, 39.96 -20.85, 47.65 -21.23" stroke="#000000" stroke-width="1" fill="none"></path></g><g transform="translate(1126.9334340471269 234.21832477693715) rotate(0 23.279627298959895 -10.150503281205602)"><path d="M27.73 -11.83 C32.47 -16.33, 41.45 -18.95, 46.56 -21.01 M26.18 -12.35 C34.38 -17.23, 42.99 -19.84, 46.9 -20.35" stroke="#000000" stroke-width="1" fill="none"></path></g><g transform="translate(1126.9334340471269 234.21832477693715) rotate(0 23.279627298959895 -10.150503281205602)"><path d="M27.25 -27.63 C32.08 -26.84, 41.22 -24.16, 46.56 -21.01 M25.71 -28.15 C34.01 -26.73, 42.8 -23.04, 46.9 -20.35" stroke="#000000" stroke-width="1" fill="none"></path></g></g><mask></mask><g transform="translate(1059.8644435915176 247.1758116196561) rotate(0 59 20)"><text x="59" y="14" font-family="Virgil, Segoe UI Emoji" font-size="16px" fill="#5c940d" text-anchor="middle" style="white-space: pre;" direction="ltr">Lowest level</text><text x="59" y="34" font-family="Virgil, Segoe UI Emoji" font-size="16px" fill="#5c940d" text-anchor="middle" style="white-space: pre;" direction="ltr">of abstraction</text></g><g transform="translate(1233.101211803254 68.76553237128064) rotate(0 59 20)"><text x="59" y="14" font-family="Virgil, Segoe UI Emoji" font-size="16px" fill="#5c940d" text-anchor="middle" style="white-space: pre;" direction="ltr">Highest level</text><text x="59" y="34" font-family="Virgil, Segoe UI Emoji" font-size="16px" fill="#5c940d" text-anchor="middle" style="white-space: pre;" direction="ltr">of abstraction</text></g><g stroke-linecap="round"><g transform="translate(1295.588793873052 141.3724766693449) rotate(181.22906374534608 23.929042703095547 -9.76357226889104)"><path d="M0.53 0.93 C0.87 -2.18, -4.77 -14.82, 3.13 -18.33 C11.04 -21.85, 40.46 -19.86, 47.95 -20.16 M-0.65 0.37 C-0.55 -2.6, -6.18 -13.76, 2.3 -17.01 C10.78 -20.25, 42.66 -18.74, 50.25 -19.11" stroke="#000000" stroke-width="1" fill="none"></path></g><g transform="translate(1295.588793873052 141.3724766693449) rotate(181.22906374534608 23.929042703095547 -9.76357226889104)"><path d="M30.08 -10.83 C36.42 -16.32, 44.81 -19.22, 49.46 -19.18 M28.85 -11.02 C35.46 -13.95, 42.89 -17.3, 50.48 -19.6" stroke="#000000" stroke-width="1" fill="none"></path></g><g transform="translate(1295.588793873052 141.3724766693449) rotate(181.22906374534608 23.929042703095547 -9.76357226889104)"><path d="M30.07 -26.63 C36.45 -25.89, 44.85 -22.54, 49.46 -19.18 M28.84 -26.82 C35.5 -24.59, 42.93 -22.77, 50.48 -19.6" stroke="#000000" stroke-width="1" fill="none"></path></g></g><mask></mask><g transform="translate(52.79700838403005 185.55189772571612) rotate(0 50 12.5)"><text x="0" y="18" font-family="Virgil, Segoe UI Emoji" font-size="20px" fill="#e67700" text-anchor="start" style="white-space: pre;" direction="ltr">Filesystem</text></g><g transform="translate(93.62594639095914 277.1138196533393) rotate(0 151.5 12.5)"><text x="0" y="18" font-family="Virgil, Segoe UI Emoji" font-size="20px" fill="#000000" text-anchor="start" style="white-space: pre;" direction="ltr">Fundamental unit of data: file</text></g><g stroke-linecap="round"><g transform="translate(361.2616523350771 305.0785388764871) rotate(0 16.792995406416594 0.33699638654888986)"><path d="M1.23 1.74 C8 -1.95, 19.07 -1.56, 32.66 0.41 M0.93 0.41 C10.9 -0.53, 22.23 -1.49, 30.5 -0.77" stroke="#e67700" stroke-width="2" fill="none"></path></g></g><mask></mask><g transform="translate(434.4249034195909 254.57980503823455) rotate(0 23.5 12.5)"><text x="0" y="18" font-family="Virgil, Segoe UI Emoji" font-size="20px" fill="#000000" text-anchor="start" style="white-space: pre;" direction="ltr">text</text></g><g transform="translate(433.13023642524786 294.1570967560983) rotate(0 28.5 12.5)"><text x="0" y="18" font-family="Virgil, Segoe UI Emoji" font-size="20px" fill="#000000" text-anchor="start" style="white-space: pre;" direction="ltr">binary</text></g><g stroke-linecap="round"><g transform="translate(404.28536711166817 288.45983406005325) rotate(0 12.584736195844926 -9.22572427418072)"><path d="M0.57 0.56 C4.5 -2.65, 19.5 -15.89, 23.62 -19.01 M-0.59 -0.2 C3.69 -3.22, 21.52 -14.19, 25.76 -17.51" stroke="#5c940d" stroke-width="1" fill="none"></path></g><g transform="translate(404.28536711166817 288.45983406005325) rotate(0 12.584736195844926 -9.22572427418072)"><path d="M17.43 -6.26 C19.37 -8.02, 23.23 -13.42, 24.34 -17.16 M17.35 -4.11 C19.18 -9.3, 23.44 -12.89, 25.54 -17.22" stroke="#5c940d" stroke-width="1" fill="none"></path></g><g transform="translate(404.28536711166817 288.45983406005325) rotate(0 12.584736195844926 -9.22572427418072)"><path d="M11.4 -15.04 C15.2 -14.14, 20.91 -16.86, 24.34 -17.16 M11.33 -12.89 C15.26 -15.13, 21.55 -15.77, 25.54 -17.22" stroke="#5c940d" stroke-width="1" fill="none"></path></g></g><mask></mask><g stroke-linecap="round"><g transform="translate(404.20422904350016 289.76231357536017) rotate(0 11.997582054769737 7.714436998916426)"><path d="M0.98 -0.36 C4.83 2.46, 20.43 12.9, 23.96 15.98 M0.04 -1.59 C3.73 1.43, 19.35 14.02, 23.43 17.02" stroke="#5c940d" stroke-width="1" fill="none"></path></g><g transform="translate(404.20422904350016 289.76231357536017) rotate(0 11.997582054769737 7.714436998916426)"><path d="M9.36 13.61 C13.68 12.97, 21.28 17.13, 23.92 15.97 M9.5 13.24 C14.66 14.81, 19.16 15.67, 23.57 17.54" stroke="#5c940d" stroke-width="1" fill="none"></path></g><g transform="translate(404.20422904350016 289.76231357536017) rotate(0 11.997582054769737 7.714436998916426)"><path d="M15.36 5.86 C17.4 8.14, 22.78 15.16, 23.92 15.97 M15.5 5.49 C18.4 9.86, 20.7 13.56, 23.57 17.54" stroke="#5c940d" stroke-width="1" fill="none"></path></g></g><mask></mask><g stroke-linecap="round"><g transform="translate(491.9027244475601 252.67179133728314) rotate(0 10.70800405240243 34.11388979845924)"><path d="M-0.91 0.05 C3.01 5.76, 21.89 23.09, 22.32 34.47 C22.75 45.85, 5.26 62.62, 1.68 68.33 M0.82 -0.97 C4.73 4.37, 21.6 20.99, 21.65 32.68 C21.69 44.38, 4.58 63.05, 1.1 69.2" stroke="#e67700" stroke-width="2" fill="none"></path></g></g><mask></mask><g transform="translate(524.3201312675919 274.5415480085503) rotate(0 64 12.5)"><text x="0" y="18" font-family="Virgil, Segoe UI Emoji" font-size="20px" fill="#000000" text-anchor="start" style="white-space: pre;" direction="ltr">non-versioned</text></g><g stroke-linecap="round"><g transform="translate(386.37872137883096 317.0897121477701) rotate(0 83.31957873575266 25.675783314208275)"><path d="M0.45 0.23 C2.92 8.54, -13.37 43.33, 14.66 49.68 C42.7 56.03, 143.23 40.52, 168.69 38.33 M-0.77 -0.69 C2.07 7.77, -11.29 44.59, 16.86 50.78 C45 56.96, 143.07 38.69, 168.12 36.4" stroke="#000000" stroke-width="1" fill="none"></path></g><g transform="translate(386.37872137883096 317.0897121477701) rotate(0 83.31957873575266 25.675783314208275)"><path d="M141.97 48.75 C147.85 46.9, 158.2 40.73, 166.39 35.89 M141.61 50.35 C146.43 46.78, 152.33 45.53, 167.13 35.62" stroke="#000000" stroke-width="1" fill="none"></path></g><g transform="translate(386.37872137883096 317.0897121477701) rotate(0 83.31957873575266 25.675783314208275)"><path d="M139.18 28.42 C145.82 32.41, 156.98 32.09, 166.39 35.89 M138.81 30.02 C144.39 30.61, 150.86 33.52, 167.13 35.62" stroke="#000000" stroke-width="1" fill="none"></path></g></g><mask></mask><g transform="translate(572.7520673839444 340.8347222609136) rotate(0 111.5 25)"><text x="111.5" y="18" font-family="Virgil, Segoe UI Emoji" font-size="20px" fill="#a61e4d" text-anchor="middle" style="white-space: pre;" direction="ltr">It can be easily</text><text x="111.5" y="43" font-family="Virgil, Segoe UI Emoji" font-size="20px" fill="#a61e4d" text-anchor="middle" style="white-space: pre;" direction="ltr">erased or overwritten!</text></g><g stroke-linecap="round"><g transform="translate(535.149754894046 306.8908802067781) rotate(0 -1.67400550329603 24.90951845578911)"><path d="M-0.79 -0.09 C-4.94 4.42, -27.51 17.83, -23.79 26.35 C-20.08 34.87, 14.15 46.85, 21.51 51 M1 -1.18 C-3.38 3.08, -27.88 16.47, -24.55 24.81 C-21.21 33.15, 13.53 44.83, 21 48.88" stroke="#000000" stroke-width="1" fill="none"></path></g><g transform="translate(535.149754894046 306.8908802067781) rotate(0 -1.67400550329603 24.90951845578911)"><path d="M-5.02 47.95 C7.18 48.92, 16.22 47.61, 22.17 50 M-4.42 46.52 C2.14 47.03, 7.62 48.1, 21.23 49.04" stroke="#000000" stroke-width="1" fill="none"></path></g><g transform="translate(535.149754894046 306.8908802067781) rotate(0 -1.67400550329603 24.90951845578911)"><path d="M2.02 31.69 C11.34 39.03, 17.61 44.14, 22.17 50 M2.61 30.26 C7.46 34.75, 11.2 39.86, 21.23 49.04" stroke="#000000" stroke-width="1" fill="none"></path></g></g><mask></mask><g transform="translate(94.61793733009472 467.9632618274136) rotate(0 50 12.5)"><text x="0" y="18" font-family="Virgil, Segoe UI Emoji" font-size="20px" fill="#000000" text-anchor="start" style="white-space: pre;" direction="ltr">Filesystem</text></g><g transform="translate(351.7817605034543 428.1634829557588) rotate(0 27 12.5)"><text x="0" y="18" font-family="Virgil, Segoe UI Emoji" font-size="20px" fill="#000000" text-anchor="start" style="white-space: pre;" direction="ltr">Local</text></g><g transform="translate(346.1370084641858 532.6578356724276) rotate(0 50.5 12.5)"><text x="0" y="18" font-family="Virgil, Segoe UI Emoji" font-size="20px" fill="#000000" text-anchor="start" style="white-space: pre;" direction="ltr">Networked</text></g><g transform="translate(608.3985185309903 513.2427074751322) rotate(0 28.5 12.5)"><text x="0" y="18" font-family="Virgil, Segoe UI Emoji" font-size="20px" fill="#000000" text-anchor="start" style="white-space: pre;" direction="ltr">Simple</text></g><g transform="translate(606.7502026372622 571.2950098223937) rotate(0 56 12.5)"><text x="0" y="18" font-family="Virgil, Segoe UI Emoji" font-size="20px" fill="#000000" text-anchor="start" style="white-space: pre;" direction="ltr">Distributed</text></g><g stroke-linecap="round"><g transform="translate(200.01415335454112 479.98583722514195) rotate(0 74.73580538561146 -19.62071911086332)"><path d="M0.78 -0.83 C25.59 -7.52, 124.91 -33.87, 149.74 -40.59 M-0.27 1.35 C24.35 -5.14, 124.11 -32.32, 149.04 -39.29" stroke="#000000" stroke-width="1" fill="none"></path></g><g transform="translate(200.01415335454112 479.98583722514195) rotate(0 74.73580538561146 -19.62071911086332)"><path d="M123.2 -21.14 C133.04 -27.72, 141.17 -36.12, 148.68 -38.19 M125.49 -21.1 C132.7 -26.72, 140.28 -32.3, 149.4 -38.51" stroke="#000000" stroke-width="1" fill="none"></path></g><g transform="translate(200.01415335454112 479.98583722514195) rotate(0 74.73580538561146 -19.62071911086332)"><path d="M117.75 -40.92 C129.55 -40.16, 139.72 -41.17, 148.68 -38.19 M120.04 -40.89 C128.77 -40.34, 138.04 -39.77, 149.4 -38.51" stroke="#000000" stroke-width="1" fill="none"></path></g></g><mask></mask><g stroke-linecap="round"><g transform="translate(200.5816973906949 482.0198307184364) rotate(0 70.70181246703123 34.93984168827319)"><path d="M0.34 -0.96 C24.05 10.7, 118.65 57.71, 142.35 69.46 M-0.95 1.14 C22.67 13.03, 117.93 59.24, 141.81 70.84" stroke="#000000" stroke-width="1" fill="none"></path></g><g transform="translate(200.5816973906949 482.0198307184364) rotate(0 70.70181246703123 34.93984168827319)"><path d="M110.36 69.04 C120.56 70.22, 129.78 69.94, 141.72 70.92 M111.45 67.24 C118.89 68.14, 127.09 70.28, 141.81 70.37" stroke="#000000" stroke-width="1" fill="none"></path></g><g transform="translate(200.5816973906949 482.0198307184364) rotate(0 70.70181246703123 34.93984168827319)"><path d="M119.33 50.58 C126.71 57.41, 133.21 62.74, 141.72 70.92 M120.42 48.78 C125.42 54.5, 131.29 61.44, 141.81 70.37" stroke="#000000" stroke-width="1" fill="none"></path></g></g><mask></mask><g stroke-linecap="round"><g transform="translate(455.4408951192272 547.3481473279571) rotate(0 72.16194053809977 -13.361936753275586)"><path d="M0.39 -0.9 C24.4 -5.55, 121.05 -23.45, 145.19 -27.97 M-0.87 1.25 C22.85 -3.24, 119.82 -21.98, 144 -26.68" stroke="#000000" stroke-width="1" fill="none"></path></g><g transform="translate(455.4408951192272 547.3481473279571) rotate(0 72.16194053809977 -13.361936753275586)"><path d="M116.78 -12.01 C127.57 -18.1, 137.57 -21.64, 145.67 -25.73 M117.89 -11.67 C127.67 -16.68, 134.71 -20.87, 143.5 -26.7" stroke="#000000" stroke-width="1" fill="none"></path></g><g transform="translate(455.4408951192272 547.3481473279571) rotate(0 72.16194053809977 -13.361936753275586)"><path d="M112.88 -32.16 C125.18 -30.36, 136.71 -26.01, 145.67 -25.73 M113.98 -31.82 C124.85 -30.2, 133.18 -27.77, 143.5 -26.7" stroke="#000000" stroke-width="1" fill="none"></path></g></g><mask></mask><g stroke-linecap="round"><g transform="translate(456.251324492403 547.8778137264981) rotate(0 72.38786714869275 23.32303755546127)"><path d="M0.1 0.43 C23.9 8.3, 119.66 39.36, 143.85 47.04 M-1.31 -0.4 C22.78 7.17, 121.75 37.91, 146.09 45.38" stroke="#000000" stroke-width="1" fill="none"></path></g><g transform="translate(456.251324492403 547.8778137264981) rotate(0 72.38786714869275 23.32303755546127)"><path d="M116.84 45.35 C129.09 47.05, 139.74 44.68, 144.52 46.43 M116.81 45.94 C123.54 46.16, 129.35 46.84, 145.8 46.11" stroke="#000000" stroke-width="1" fill="none"></path></g><g transform="translate(456.251324492403 547.8778137264981) rotate(0 72.38786714869275 23.32303755546127)"><path d="M122.89 25.74 C132.78 34.98, 141.11 40.14, 144.52 46.43 M122.86 26.34 C128.07 31.16, 132.45 36.49, 145.8 46.11" stroke="#000000" stroke-width="1" fill="none"></path></g></g><mask></mask><g transform="translate(426.61014654542305 412.8897972667055) rotate(0 118.5 30)"><text x="118.5" y="14" font-family="Virgil, Segoe UI Emoji" font-size="16px" fill="#364fc7" text-anchor="middle" style="white-space: pre;" direction="ltr">e.g., locally mounted disk</text><text x="118.5" y="34" font-family="Virgil, Segoe UI Emoji" font-size="16px" fill="#364fc7" text-anchor="middle" style="white-space: pre;" direction="ltr">containing all the files needed</text><text x="118.5" y="54" font-family="Virgil, Segoe UI Emoji" font-size="16px" fill="#364fc7" text-anchor="middle" style="white-space: pre;" direction="ltr">for the ML project</text></g><g transform="translate(740.8779385031266 561.769211376246) rotate(0 189 30)"><text x="189" y="14" font-family="Virgil, Segoe UI Emoji" font-size="16px" fill="#364fc7" text-anchor="middle" style="white-space: pre;" direction="ltr">e.g., NFS, CephFS, or HDF5. It can be accessed</text><text x="189" y="34" font-family="Virgil, Segoe UI Emoji" font-size="16px" fill="#364fc7" text-anchor="middle" style="white-space: pre;" direction="ltr">over the network by multiple physical</text><text x="189" y="54" font-family="Virgil, Segoe UI Emoji" font-size="16px" fill="#364fc7" text-anchor="middle" style="white-space: pre;" direction="ltr">or virtual machines</text></g><g transform="translate(93.98737474375594 712.4835175652188) rotate(0 487.5 12.5)"><text x="0" y="18" font-family="Virgil, Segoe UI Emoji" font-size="20px" fill="#000000" text-anchor="start" style="white-space: pre;" direction="ltr">Despite its simplicity, filesystem-level storage is appropriate for a variety of use-cases, including:</text></g><g stroke-linecap="round"><g transform="translate(215.05974164573126 742.3435333167618) rotate(0 42.376380571678965 -1.592742969623032)"><path d="M0.14 0.81 C23.42 -1.78, 48.87 -2.54, 84.33 -3.99 M-0.6 0.41 C17.18 -1.84, 34.16 -1.77, 85.36 -3.58" stroke="#087f5b" stroke-width="2" fill="none"></path></g></g><mask></mask><g transform="translate(217.2764915470052 788.3472658807877) rotate(0 56 12.5)"><text x="56" y="18" font-family="Virgil, Segoe UI Emoji" font-size="20px" fill="#087f5b" text-anchor="middle" style="white-space: pre;" direction="ltr">File Sharing</text></g><g transform="translate(657.2679209528087 794.9155380256616) rotate(0 72 12.5)"><text x="72" y="18" font-family="Virgil, Segoe UI Emoji" font-size="20px" fill="#087f5b" text-anchor="middle" style="white-space: pre;" direction="ltr">Local Archiving</text></g><g transform="translate(1047.2893821115613 791.8261894442876) rotate(0 83.5 12.5)"><text x="83.5" y="18" font-family="Virgil, Segoe UI Emoji" font-size="20px" fill="#087f5b" text-anchor="middle" style="white-space: pre;" direction="ltr">Data Protection</text></g><g transform="translate(41.414810068325096 829.7346376629575) rotate(0 232.5 50)"><text x="232.5" y="18" font-family="Virgil, Segoe UI Emoji" font-size="20px" fill="#000000" text-anchor="middle" style="white-space: pre;" direction="ltr">The simplicity of filesystem-level storage </text><text x="232.5" y="43" font-family="Virgil, Segoe UI Emoji" font-size="20px" fill="#000000" text-anchor="middle" style="white-space: pre;" direction="ltr">and support for standard protocols </text><text x="232.5" y="68" font-family="Virgil, Segoe UI Emoji" font-size="20px" fill="#000000" text-anchor="middle" style="white-space: pre;" direction="ltr">allows to store and share data with </text><text x="232.5" y="93" font-family="Virgil, Segoe UI Emoji" font-size="20px" fill="#000000" text-anchor="middle" style="white-space: pre;" direction="ltr">a small group of colleagues with minimal effort</text></g><g transform="translate(508.38636691635656 838.5775977302146) rotate(0 212 37.5)"><text x="212" y="18" font-family="Virgil, Segoe UI Emoji" font-size="20px" fill="#000000" text-anchor="middle" style="white-space: pre;" direction="ltr">Cost-effective option for archiving data, </text><text x="212" y="43" font-family="Virgil, Segoe UI Emoji" font-size="20px" fill="#000000" text-anchor="middle" style="white-space: pre;" direction="ltr">thanks to the availability and accessibility</text><text x="212" y="68" font-family="Virgil, Segoe UI Emoji" font-size="20px" fill="#000000" text-anchor="middle" style="white-space: pre;" direction="ltr">of scale-out NAS solutions</text></g><g transform="translate(954.365069142028 839.7495920038) rotate(0 191 25)"><text x="191" y="18" font-family="Virgil, Segoe UI Emoji" font-size="20px" fill="#000000" text-anchor="middle" style="white-space: pre;" direction="ltr">Viable data protection solution thanks</text><text x="191" y="43" font-family="Virgil, Segoe UI Emoji" font-size="20px" fill="#000000" text-anchor="middle" style="white-space: pre;" direction="ltr">to built-in redundancy and replication</text></g><g transform="translate(87.27820653756135 984.9612048345807) rotate(0 513 12.5)"><text x="0" y="18" font-family="Virgil, Segoe UI Emoji" font-size="20px" fill="#000000" text-anchor="start" style="white-space: pre;" direction="ltr">Parallel access to the data on the filesystem level is fast for retrieval access but slow for storage</text></g><g stroke-linecap="round"><g transform="translate(639.8549011797913 1012.6879444586793) rotate(0 89.0498448565404 0.273948699770699)"><path d="M0.57 -0.52 C34.6 0.7, 72.27 -1.45, 176.84 -1.11 M-0.06 0.75 C37.7 1.88, 74.62 2.31, 178.16 0.19" stroke="#e67700" stroke-width="2" fill="none"></path></g></g><mask></mask><g stroke-linecap="round"><g transform="translate(940.9697010638847 1014.3257656298629) rotate(0 89.41368000691637 0.04870683795797959)"><path d="M-0.14 1.27 C45.71 -0.09, 88.48 -0.73, 178.97 1.04 M0.13 0.48 C48.94 -2.12, 99.25 -1.1, 177.61 -0.17" stroke="#e67700" stroke-width="2" fill="none"></path></g></g><mask></mask><g transform="translate(52.894839062237224 1087.1113953289787) rotate(0 76.5 12.5)"><text x="0" y="18" font-family="Virgil, Segoe UI Emoji" font-size="20px" fill="#e67700" text-anchor="start" style="white-space: pre;" direction="ltr">Object Storage</text></g><g transform="translate(86.0212175807228 1141.5537032086668) rotate(0 327 12.5)"><text x="0" y="18" font-family="Virgil, Segoe UI Emoji" font-size="20px" fill="#000000" text-anchor="start" style="white-space: pre;" direction="ltr">Application Programming Interface (API) defined over a filesystem</text></g><g transform="translate(88.40557259575144 1202.3465406627038) rotate(0 408.5 12.5)"><text x="0" y="18" font-family="Virgil, Segoe UI Emoji" font-size="20px" fill="#000000" text-anchor="start" style="white-space: pre;" direction="ltr">Using an API, you can programmatically execute GET, PUT, or DELETE on files...</text></g><g transform="translate(526.9080100494139 1252.9973401158823) rotate(0 270.5 12.5)"><text x="270.5" y="18" font-family="Virgil, Segoe UI Emoji" font-size="20px" fill="#000000" text-anchor="middle" style="white-space: pre;" direction="ltr">...without worrying where the files are actually stored.</text></g><g stroke-linecap="round"><g transform="translate(467.6028098487841 1244.3139070616617) rotate(0 18.07537522466373 13.141601884480224)"><path d="M0.64 0.44 C-0.01 4.44, -11.33 19.4, -4.46 23.76 C2.41 28.12, 34.01 26.12, 41.86 26.6 M-0.48 -0.37 C-1.29 3.32, -13.1 17.93, -5.65 22.12 C1.81 26.3, 36.18 24.34, 44.25 24.75" stroke="#c92a2a" stroke-width="2" fill="none"></path></g><g transform="translate(467.6028098487841 1244.3139070616617) rotate(0 18.07537522466373 13.141601884480224)"><path d="M22.99 32.07 C29.45 29.06, 35.15 28.28, 45.89 23.18 M21.94 32.51 C28.7 30.84, 34.53 28.71, 45.08 24.66" stroke="#c92a2a" stroke-width="2" fill="none"></path></g><g transform="translate(467.6028098487841 1244.3139070616617) rotate(0 18.07537522466373 13.141601884480224)"><path d="M22.94 16.04 C29.39 17.15, 35.1 20.5, 45.89 23.18 M21.89 16.47 C28.82 19.54, 34.66 22.16, 45.08 24.66" stroke="#c92a2a" stroke-width="2" fill="none"></path></g></g><mask></mask><g transform="translate(94.15347523958917 1310.041443172122) rotate(0 429 12.5)"><text x="0" y="18" font-family="Virgil, Segoe UI Emoji" font-size="20px" fill="#000000" text-anchor="start" style="white-space: pre;" direction="ltr">Typically provided by an API service available on the network and accessible by HTTP</text></g><g transform="translate(491.60751944341064 1355.2907211912607) rotate(0 354 12.5)"><text x="0" y="18" font-family="Virgil, Segoe UI Emoji" font-size="20px" fill="#000000" text-anchor="start" style="white-space: pre;" direction="ltr">or, more generally, TCP/IP or a different communication protocol suite.</text></g><g stroke-linecap="round"><g transform="translate(433.4999459771934 1347.2115180044348) rotate(0 21.198566041290178 13.792761795119986)"><path d="M0.52 0.24 C0.49 4.64, -8.73 21.01, -1.06 25.43 C6.6 29.85, 38.74 26.51, 46.5 26.77 M-0.66 -0.68 C-0.23 3.97, -6.49 22.54, 1.32 26.76 C9.14 30.99, 38.82 24.99, 46.22 24.66" stroke="#c92a2a" stroke-width="2" fill="none"></path></g><g transform="translate(433.4999459771934 1347.2115180044348) rotate(0 21.198566041290178 13.792761795119986)"><path d="M26.11 34.04 C29.83 34.15, 35.93 30.13, 47.33 26.4 M25.83 35.24 C31.52 32.73, 37.41 29.6, 46.5 25.4" stroke="#c92a2a" stroke-width="2" fill="none"></path></g><g transform="translate(433.4999459771934 1347.2115180044348) rotate(0 21.198566041290178 13.792761795119986)"><path d="M24.21 18.42 C28.24 22.09, 34.77 21.64, 47.33 26.4 M23.93 19.61 C30.28 21.8, 36.74 23.38, 46.5 25.4" stroke="#c92a2a" stroke-width="2" fill="none"></path></g></g><mask></mask><g transform="translate(94.4448372843417 1433.7512858852315) rotate(0 166.5 12.5)"><text x="0" y="18" font-family="Virgil, Segoe UI Emoji" font-size="20px" fill="#000000" text-anchor="start" style="white-space: pre;" direction="ltr">Fundamental unit of data: object</text></g><g stroke-linecap="round"><g transform="translate(365.9654843272674 1461.221048670308) rotate(0 27.606083559930084 -1.3066436981098377)"><path d="M-0.54 -1.22 C15.61 0.02, 30.37 1.16, 54.49 -2.58 M0.9 -0.85 C15.36 -0.97, 28.91 -1.28, 55.75 -1.09" stroke="#e67700" stroke-width="2" fill="none"></path></g></g><mask></mask><g transform="translate(444.48128625060053 1396.6459717866128) rotate(0 28.5 12.5)"><text x="28.5" y="18" font-family="Virgil, Segoe UI Emoji" font-size="20px" fill="#000000" text-anchor="middle" style="white-space: pre;" direction="ltr">binary</text></g><g transform="translate(472.53503812060444 1416.8572946033764) rotate(0 26.5 12.5)"><text x="26.5" y="18" font-family="Virgil, Segoe UI Emoji" font-size="20px" fill="#000000" text-anchor="middle" style="white-space: pre;" direction="ltr">image</text></g><g transform="translate(490.71490935222573 1436.9672769477093) rotate(0 28 12.5)"><text x="28" y="18" font-family="Virgil, Segoe UI Emoji" font-size="20px" fill="#000000" text-anchor="middle" style="white-space: pre;" direction="ltr">sound</text></g><g transform="translate(473.8657390655935 1456.4595465237908) rotate(0 25 12.5)"><text x="25" y="18" font-family="Virgil, Segoe UI Emoji" font-size="20px" fill="#000000" text-anchor="middle" style="white-space: pre;" direction="ltr">video</text></g><g transform="translate(444.86879563574075 1470.2093751801567) rotate(0 9 12.5)"><text x="9" y="18" font-family="Virgil, Segoe UI Emoji" font-size="20px" fill="#000000" text-anchor="middle" style="white-space: pre;" direction="ltr">...</text></g><g stroke-linecap="round"><g transform="translate(553.9281300569892 1409.1488055658829) rotate(0 10.369842000353856 34.18131979995724)"><path d="M0.06 0.42 C3.64 5.9, 22.06 21.68, 22.11 32.95 C22.16 44.22, 4 61.9, 0.34 68.05 M-1.37 -0.4 C2.03 5.19, 20.65 22.49, 21.33 34.02 C22.01 45.54, 6.32 63.17, 2.73 68.77" stroke="#e67700" stroke-width="2" fill="none"></path></g></g><mask></mask><g transform="translate(586.2694263902231 1422.265141106951) rotate(0 151 25)"><text x="151" y="18" font-family="Virgil, Segoe UI Emoji" font-size="20px" fill="#000000" text-anchor="middle" style="white-space: pre;" direction="ltr">Versioning and redundancy can </text><text x="151" y="43" font-family="Virgil, Segoe UI Emoji" font-size="20px" fill="#000000" text-anchor="middle" style="white-space: pre;" direction="ltr">be built into the API service</text></g><g stroke-linecap="round"><g transform="translate(586.5934928142724 1446.559174915008) rotate(0 42.8992198166834 -0.47553080146917637)"><path d="M0.69 1.1 C32.07 0.15, 64.02 -1.03, 85.1 -1.44 M0.91 0.89 C23.76 0.68, 48.37 -0.16, 84.98 -2.05" stroke="#a61e4d" stroke-width="2" fill="none"></path></g></g><mask></mask><g stroke-linecap="round"><g transform="translate(726.5247117450672 1447.1099083592053) rotate(0 52.236078764501144 -1.2436256884011527)"><path d="M1.87 -1.32 C30.66 -0.75, 65.01 -1.39, 103.55 -3.37 M0.22 0.88 C34.44 -1.7, 69.7 -2.11, 104.25 -3.05" stroke="#a61e4d" stroke-width="2" fill="none"></path></g></g><mask></mask><g transform="translate(93.37364365375288 1525.811968046999) rotate(0 455 12.5)"><text x="0" y="18" font-family="Virgil, Segoe UI Emoji" font-size="20px" fill="#000000" text-anchor="start" style="white-space: pre;" direction="ltr">The access to the data stored on the object storage level can often be done in parallel..</text></g><g transform="translate(556.3638088478256 1567.8637839905823) rotate(0 298 12.5)"><text x="0" y="18" font-family="Virgil, Segoe UI Emoji" font-size="20px" fill="#000000" text-anchor="start" style="white-space: pre;" direction="ltr">.. but the access is not as fast as on the filesystem level</text></g><g stroke-linecap="round"><g transform="translate(496.93252366198067 1558.378317136685) rotate(0 18.07433700382535 13.096720499678668)"><path d="M-0.07 0.58 C-0.91 4.46, -11.36 17.94, -4.02 22.24 C3.31 26.54, 36.04 25.94, 43.96 26.36 M-1.57 -0.16 C-2.65 3.96, -12.55 19.37, -4.99 23.46 C2.58 27.55, 35.62 24.07, 43.8 24.38" stroke="#c92a2a" stroke-width="2" fill="none"></path></g><g transform="translate(496.93252366198067 1558.378317136685) rotate(0 18.07433700382535 13.096720499678668)"><path d="M23.02 33.11 C29.42 31.75, 39.86 27.63, 42.23 22.59 M22.71 32.88 C28.44 30.92, 34.95 26.92, 43.05 23.83" stroke="#c92a2a" stroke-width="2" fill="none"></path></g><g transform="translate(496.93252366198067 1558.378317136685) rotate(0 18.07433700382535 13.096720499678668)"><path d="M22.47 17.08 C28.94 21.83, 39.59 23.82, 42.23 22.59 M22.16 16.85 C28.12 19.88, 34.8 20.86, 43.05 23.83" stroke="#c92a2a" stroke-width="2" fill="none"></path></g></g><mask></mask><g transform="translate(229.0885888733028 1086.5456180673173) rotate(0 257.5 12.5)"><text x="257.5" y="18" font-family="Virgil, Segoe UI Emoji" font-size="20px" fill="#087f5b" text-anchor="middle" style="white-space: pre;" direction="ltr">e.g., Amazon S3, Google Cloud Storager (GVS), Ceph</text></g><g transform="translate(68.79985233584375 1656.1009285840373) rotate(0 50.5 12.5)"><text x="0" y="18" font-family="Virgil, Segoe UI Emoji" font-size="20px" fill="#e67700" text-anchor="start" style="white-space: pre;" direction="ltr">Database</text></g><g transform="translate(96.63528874046096 1701.5653275531713) rotate(0 520 12.5)"><text x="0" y="18" font-family="Virgil, Segoe UI Emoji" font-size="20px" fill="#000000" text-anchor="start" style="white-space: pre;" direction="ltr">The database level of data storage allows persistent, fast, and scalable storage of structured data</text></g><g transform="translate(373.03478059632107 1755.2940743011604) rotate(0 287.5 12.5)"><text x="0" y="18" font-family="Virgil, Segoe UI Emoji" font-size="20px" fill="#000000" text-anchor="start" style="white-space: pre;" direction="ltr">with fast parallel access for both storage and retrieval!</text></g><g stroke-linecap="round"><g transform="translate(317.64477318574063 1742.8014960840756) rotate(0 18.690231352225055 13.124506138873585)"><path d="M0.24 0.43 C-0.71 4.53, -11.69 19.66, -4.74 23.96 C2.22 28.27, 34 26.03, 41.96 26.26 M-1.1 -0.39 C-1.74 3.45, -10 18.32, -2.41 22.43 C5.17 26.53, 36.78 23.59, 44.41 24.24" stroke="#c92a2a" stroke-width="2" fill="none"></path></g><g transform="translate(317.64477318574063 1742.8014960840756) rotate(0 18.690231352225055 13.124506138873585)"><path d="M23.17 31.21 C32.69 27.88, 40.15 26.55, 43.91 23.59 M22.63 31.82 C28.25 29.35, 34 28.15, 45.3 23.56" stroke="#c92a2a" stroke-width="2" fill="none"></path></g><g transform="translate(317.64477318574063 1742.8014960840756) rotate(0 18.690231352225055 13.124506138873585)"><path d="M23.03 15.17 C32.53 17.93, 40.04 22.68, 43.91 23.59 M22.5 15.79 C28.28 17.69, 34.07 20.86, 45.3 23.56" stroke="#c92a2a" stroke-width="2" fill="none"></path></g></g><mask></mask><g transform="translate(100.07485069343056 1805.765935224972) rotate(0 587.5 12.5)"><text x="0" y="18" font-family="Virgil, Segoe UI Emoji" font-size="20px" fill="#000000" text-anchor="start" style="white-space: pre;" direction="ltr">A modern Database Management System (DBMS) stores data in RAM, but sw ensures that data is persisted to disk</text></g><g transform="translate(100.12049417837625 1864.5458201152705) rotate(0 152.5 12.5)"><text x="0" y="18" font-family="Virgil, Segoe UI Emoji" font-size="20px" fill="#000000" text-anchor="start" style="white-space: pre;" direction="ltr">Fundamental unit of data: row</text></g><g stroke-linecap="round"><g transform="translate(371.3458374495185 1890.8263145429937) rotate(0 17.331375140619457 0.6814172277227044)"><path d="M-1.1 1.77 C10.81 0.69, 21.62 0.65, 35.76 0.45 M0.1 0.77 C10.1 0.39, 22.05 0.78, 33.36 -0.41" stroke="#e67700" stroke-width="2" fill="none"></path></g></g><mask></mask><g transform="translate(168.30330439748104 1910.5116409393977) rotate(0 279 12.5)"><text x="0" y="18" font-family="Virgil, Segoe UI Emoji" font-size="20px" fill="#000000" text-anchor="start" style="white-space: pre;" direction="ltr">- A row has a unique ID and contains values in columns</text></g><g transform="translate(168.09823882816454 1944.678516078142) rotate(0 287 12.5)"><text x="0" y="18" font-family="Virgil, Segoe UI Emoji" font-size="20px" fill="#000000" text-anchor="start" style="white-space: pre;" direction="ltr">- In a relational database, rows are organized in tables.</text></g><g transform="translate(100.2657717077036 1999.0105022857333) rotate(0 614.5 12.5)"><text x="0" y="18" font-family="Virgil, Segoe UI Emoji" font-size="20px" fill="#000000" text-anchor="start" style="white-space: pre;" direction="ltr">Not exceptionally well suited for storing binary data, though rather small binary objects can sometimes be stored as blobs.</text></g><g transform="translate(217.05395413954102 1654.0727319923135) rotate(0 279 12.5)"><text x="279" y="18" font-family="Virgil, Segoe UI Emoji" font-size="20px" fill="#087f5b" text-anchor="middle" style="white-space: pre;" direction="ltr">e.g., Oracle, MySQL, Microsoft SQL Server, PostgresSQL</text></g><g transform="translate(77.80158947102973 2104.4470580784364) rotate(0 56 12.5)"><text x="0" y="18" font-family="Virgil, Segoe UI Emoji" font-size="20px" fill="#e67700" text-anchor="start" style="white-space: pre;" direction="ltr">Data Lake</text></g><g transform="translate(122.53351595077038 2155.470611362005) rotate(0 590.5 12.5)"><text x="0" y="18" font-family="Virgil, Segoe UI Emoji" font-size="20px" fill="#000000" text-anchor="start" style="white-space: pre;" direction="ltr">A data lake is a repository of data stored in its natural or raw format, usually in the form of object blobs or files.</text></g><g transform="translate(123.412326970898 2204.8253409260687) rotate(0 452 12.5)"><text x="0" y="18" font-family="Virgil, Segoe UI Emoji" font-size="20px" fill="#000000" text-anchor="start" style="white-space: pre;" direction="ltr">Typically an unstructured aggregation of data from multiple sources, including DBs, logs, ..</text></g><g transform="translate(319.2891214322244 2254.9412883270998) rotate(0 477.5 12.5)"><text x="0" y="18" font-family="Virgil, Segoe UI Emoji" font-size="20px" fill="#000000" text-anchor="start" style="white-space: pre;" direction="ltr">.. or intermediary data obtained as a result of expensive transformations of the original data.</text></g><g transform="translate(120.68446000684708 2339.992742803508) rotate(0 273 12.5)"><text x="0" y="18" font-family="Virgil, Segoe UI Emoji" font-size="20px" fill="#000000" text-anchor="start" style="white-space: pre;" direction="ltr">The data is saved in the data lake in its raw format</text></g><g transform="translate(118.1998805109306 2404.0448321428394) rotate(0 610.5 12.5)"><text x="0" y="18" font-family="Virgil, Segoe UI Emoji" font-size="20px" fill="#000000" text-anchor="start" style="white-space: pre;" direction="ltr">To read data, the analyst needs to write the programming code that reads and parses the data stored in a file or blob</text></g><g transform="translate(118.79771056034951 2463.119727932778) rotate(0 600 12.5)"><text x="0" y="18" font-family="Virgil, Segoe UI Emoji" font-size="20px" fill="#000000" text-anchor="start" style="white-space: pre;" direction="ltr">Writing a script to parse the data file or a blob is called schema on read, as opposed to the schema on write in DBMS</text></g><g stroke-linecap="round"><g transform="translate(707.7430403050221 2491.0629539246365) rotate(0 80.40444876246602 0.40926287824186147)"><path d="M1.27 0.56 C38.26 -2.95, 76.02 -0.86, 157.78 2.09 M0.92 -0.56 C32.8 -1.42, 66.89 -1.74, 159.88 0.27" stroke="#e67700" stroke-width="2" fill="none"></path></g></g><mask></mask><g stroke-linecap="round"><g transform="translate(1069.8833226515471 2492.425699213616) rotate(0 79.53647209883184 0.7567481990381566)"><path d="M-1.8 -1.54 C38.52 0.24, 78.84 1.05, 160.87 3.05 M0.93 0.4 C36.49 1.75, 71.13 1.83, 158.74 1.11" stroke="#e67700" stroke-width="2" fill="none"></path></g></g><mask></mask></svg>