<svg version="1.1" xmlns="http://www.w3.org/2000/svg" viewBox="0 0 1374.111709821238 1293.8055316622358" width="4122.335129463714" height="3881.4165949867074">
  <!-- svg-source:excalidraw -->
  
  <defs>
    <style class="style-fonts">
      @font-face {
        font-family: "Virgil";
        src: url("https://excalidraw.com/Virgil.woff2");
      }
      @font-face {
        font-family: "Cascadia";
        src: url("https://excalidraw.com/Cascadia.woff2");
      }
    </style>
  </defs>
  <rect x="0" y="0" width="1374.111709821238" height="1293.8055316622358" fill="#ffffff"></rect><g stroke-linecap="round" transform="translate(10 10) rotate(0 251.5 23)"><path d="M0 0 C0 0, 0 0, 0 0 M0 0 C0 0, 0 0, 0 0 M1.1 6.74 C0.23 5.08, 3.16 2.48, 5.89 -0.33 M-0.2 6.24 C1.24 5.09, 2.77 2.16, 5.25 -0.03 M-0.29 11.56 C5.15 9.46, 6.58 4.27, 12.18 1.18 M0.9 11.81 C2.61 7.41, 4.83 6.54, 9.71 0.71 M2.38 17.76 C7.54 9.59, 12.23 5.87, 12.19 -3.57 M-0.77 18.92 C5.51 15.39, 9.32 10.55, 15.06 -0.31 M0.27 27.82 C8.37 19.96, 7.26 11.83, 23.52 2.01 M-0.88 23.83 C6.46 17.88, 13.24 9.17, 23.11 1.37 M0.28 26.94 C1.96 27.7, 11.44 19, 25.17 -2.57 M0.75 31.26 C6.51 23.03, 15.44 10.89, 26.11 -0.5 M-0.76 35.78 C7.39 26.91, 16.99 20.6, 33.22 -2.49 M0.43 36.62 C9.86 22.72, 19.91 13.44, 29.94 1.05 M-3.18 41.68 C5.06 31.11, 15.28 24.51, 38.96 3.78 M1.27 43.76 C7.93 33.28, 14.2 24.01, 37.24 -0.08 M1.88 48.41 C18.62 29.13, 29.66 14.83, 45.15 -0.63 M1.08 49.21 C9.2 35.76, 19.92 26.59, 41.04 -1.57 M4.06 47.83 C23.98 27.73, 34.96 13.66, 43.78 4.12 M5.42 48.38 C22.2 29.91, 39.02 8.97, 48.14 0.83 M15.65 44.05 C27 32.78, 39.41 12.56, 52.3 -2.53 M10.99 46.17 C24.11 34.89, 32.46 18.89, 52.73 -1.23 M14.36 44.28 C25.14 35.9, 33.83 22.77, 59.38 -2.43 M17.88 46.37 C28.29 31.33, 40.19 17.69, 59.75 0.84 M21.1 46.41 C35.88 33.15, 41.75 20.92, 61.16 0.19 M20.9 45.69 C35.49 31.74, 49.97 17.39, 62.57 -1.95 M24.28 49.95 C43.53 34.12, 55.22 14.37, 71 1.77 M27.3 47.26 C37.68 37.19, 45.54 25.87, 70.27 1.33 M29.49 47.11 C42.36 31.15, 58.43 18.91, 75.72 2.41 M32.02 46.13 C43.04 34.71, 54.13 23.09, 73.38 -0.98 M39.81 49.71 C56.93 28.69, 70.3 15.62, 77.38 -3.14 M39.48 46.79 C51.33 35.32, 61.03 21.29, 79.13 -1.59 M41.54 48.28 C49.77 33.05, 63.48 22.92, 81.49 1.52 M42.78 48.63 C54.78 33.04, 68.91 17.77, 85.22 -0.81 M48.44 46.96 C64.27 28.66, 82.19 10.77, 90.77 -2.54 M49.49 47.47 C59.79 34.48, 71.37 26.3, 91.03 -1.03 M55.51 46.56 C70.36 32.93, 82.73 16.68, 93.44 -2.61 M52.87 49.05 C68.27 34.9, 76.68 20.14, 95.41 -1.22 M59.18 47.56 C71.11 30.75, 87.07 18.18, 96.91 -3.29 M61.65 46.53 C72.41 30.26, 85.95 16.92, 99.91 0.61 M67.13 49.09 C74.68 34.93, 86.3 26.03, 108.08 0.42 M63.24 46.01 C75.86 32.36, 84.58 20.76, 106.52 0.81 M69.84 44.67 C80.73 39.34, 89.49 28.79, 111.04 -1.76 M68.86 48.73 C83.4 32.58, 92.38 16.92, 112.96 -0.29 M77.64 49.49 C90.23 31.38, 96.24 19.24, 118.73 0.24 M76.07 48.88 C89.25 29.67, 104.27 13.59, 117.71 -0.23 M77.74 47.65 C97.44 27.32, 113.43 14.11, 121.91 0.18 M79.27 47.31 C95.05 30.68, 107.56 14.27, 122.61 -0.61 M85.8 43.9 C97.09 36.76, 105.57 27.51, 126.21 2.72 M86.82 45.79 C101.19 32.3, 110.32 17.5, 127.36 -1.35 M91.71 46.64 C107.31 30.49, 118.68 11.01, 131.74 3.17 M92.27 48.51 C100.21 34.33, 112.71 21.17, 130.58 1.52 M95.84 46.94 C106.03 27.31, 124.55 13.33, 134.84 2.5 M96.16 47.6 C107.95 34.59, 118.04 21.01, 137.12 1.44 M102.75 49.53 C116.63 30.37, 128.44 10.8, 140.3 2.34 M101.19 48.59 C112.49 34.35, 127.58 19.06, 143.78 -1.27 M109.5 43.77 C123.85 33.27, 137.62 19.47, 147.13 3.97 M106.04 47.94 C121.98 33.71, 132.55 18.22, 146.57 2.16 M115.35 50.69 C123.84 34.77, 128.13 31.11, 152.81 3.32 M112.59 46.54 C129.42 29.32, 140.97 13.63, 154.42 -1.62 M118.03 45.99 C134.72 33.2, 141.41 15.42, 155.06 -2 M119.66 47.18 C127.86 35.14, 136.39 23.8, 160.51 1.53 M123.49 47.02 C132.42 32.86, 151.27 16.96, 164.03 -1.76 M122.28 48.09 C134.6 30.38, 149.19 14.1, 163.94 -1.4 M126.16 43.76 C143.2 28.74, 163.46 6.82, 172.12 1.98 M129.45 48.43 C144.65 30.46, 160.5 9.38, 169.02 -0.94 M134.68 45.88 C145.82 41.5, 152.95 24.11, 174.19 -2.25 M135.34 45.76 C145.75 37.41, 152.34 23.9, 175.03 0.26 M136.14 45.69 C152.21 34.3, 159.83 21.21, 177.31 3.79 M141.1 45.58 C150.92 35.61, 160.19 23.31, 179.42 0.99 M145.89 49.17 C158.95 27.2, 179.3 8.97, 189.03 -1.04 M146.07 46.79 C155.15 39.04, 162.78 24.63, 187.62 -1.03 M147.72 46.94 C167.68 32.3, 180.66 13.8, 187.12 1.81 M149.56 47.23 C157.87 37.18, 169.57 24.73, 192.26 0.33 M151.64 45.27 C168.38 28.69, 183.38 12.75, 195.81 1.52 M154.06 49.17 C168.95 28.45, 184.12 13.48, 194.92 1.11 M158.13 45.11 C173.91 30.26, 184.34 16.75, 199.54 -3.06 M159.02 48.77 C172.7 33.02, 183.94 17.65, 201.37 0.81 M167.9 49.06 C175.93 32.82, 190.91 17.28, 203.25 -0.45 M164.1 45.65 C176.93 33.76, 188.53 20.5, 207.36 -0.2 M170.12 48.36 C177.82 37.07, 194.81 24.63, 210.07 0.54 M170.92 48.31 C184.47 29.55, 197.88 13.62, 213.81 0.93 M176.17 45.93 C189.94 34.98, 204.43 19.46, 217.61 -2.3 M174.27 47.72 C191.82 29.61, 205.58 11.27, 216.63 -1.08 M183.93 43.31 C199.09 33.32, 211.19 18.07, 219.69 2.5 M179.94 46.73 C198.88 27.63, 212.26 12.16, 221.9 1.94 M187.45 47.75 C199.38 37.43, 209.38 21.58, 226.62 3.08 M187.89 45.63 C199.82 34.13, 210.93 18.27, 227.68 1.07 M188.64 43.85 C205.76 29.19, 223.62 5.5, 234.9 3.22 M193.39 48.39 C200.47 37.02, 208.19 25.81, 235.21 -0.17 M194.22 44.91 C213.72 33.81, 222.44 21.09, 238.87 2.1 M197.52 48.38 C209.38 30.67, 224.53 17.98, 238.04 0.39 M204.81 48.11 C219.22 29.25, 229.18 13.08, 243.69 -2.44 M201.75 46.17 C214.57 31.98, 229.26 17.54, 244.54 1.35 M210.48 46.29 C223.45 30.37, 235.89 19.41, 246.42 -2.64 M208.98 47.72 C221.89 29.7, 236.94 9.73, 248.46 -0.5 M216.52 50.96 C228.79 27.6, 244.63 9.8, 255.56 -1.09 M214.82 45.93 C227.96 30.74, 241.66 14.36, 253.97 0 M215.71 47.28 C229.17 29.99, 246.38 18.78, 260.85 4.27 M217.33 46.13 C227.45 36.91, 236.25 25.04, 258.98 2 M222.03 49.06 C236.31 37.36, 244.82 25.44, 261.49 -0.85 M224.28 47.56 C236.58 34.33, 246.4 18.3, 264.82 0.02 M226.92 45.75 C244.46 34.11, 258.07 18.32, 267.9 -0.05 M230.9 48.87 C239.55 33.8, 252.11 20.5, 271.54 1.54 M233.06 49.51 C254.98 26.13, 267.37 12.77, 273.97 0.68 M235.09 45.66 C246.48 36.45, 256.33 21.58, 275.65 0.41 M242.59 50.1 C248.97 39.88, 259.63 27.24, 282.82 4.03 M239.24 47.93 C254.98 28.12, 270.56 13.94, 281.34 -1.53 M242.86 45.97 C261.85 30.57, 275.23 12.68, 287.01 0.36 M245.42 45.62 C256.1 31.44, 270.05 19.97, 286.27 -1.08 M250.71 47.2 C263.91 31.43, 284.23 10.76, 294.34 -1.34 M249.17 46.06 C265.07 29.94, 281.72 11.05, 292.81 -0.08 M258.18 50.56 C270.94 24.27, 287.48 13, 300.08 -2.42 M254.72 47.54 C265.27 37.35, 272.77 25.49, 297.76 0.03 M260.78 50.44 C280.29 24.4, 296.73 9.44, 304.72 0.46 M260.76 48.75 C271.01 35.66, 279.05 26.81, 303.64 -0.24 M267.26 45.91 C284.91 34.05, 298.12 13.35, 310.19 2.23 M267.69 46.31 C280.91 29.96, 294.93 14.28, 308.42 -0.99 M271.8 43.69 C282.06 37.12, 297.69 20.92, 313.68 -3.44 M271.33 48.25 C282.38 35.62, 290.29 24.98, 312.78 -1.39 M279.83 49.16 C291.08 28.1, 304.41 15.71, 319.83 2.69 M278.25 47.54 C289.1 30.16, 302.82 15.12, 317.83 -2.17 M280.24 45.35 C292.02 29.64, 305.24 20.29, 326.48 0.59 M283.45 47.56 C297 31.61, 312.57 14.4, 324.42 -0.15 M287.14 47.95 C301.19 36.06, 314.34 18.07, 328.98 -2.16 M285.62 47.61 C296.43 38.04, 305.14 27.95, 330.81 1.25 M296.11 44.29 C313.09 31.06, 327.89 11.43, 337.86 -3.3 M292.92 48.42 C308.05 32.78, 319.73 15.57, 331.99 1.58 M301.94 48.39 C311.91 29.1, 323.7 19.46, 343.14 -2.93 M298.21 45.63 C310.21 32.95, 325.26 19.9, 341.41 0.77 M302.24 48.66 C316.77 29.75, 329.36 11.71, 348.06 3.51 M304.16 48.08 C315.28 31.84, 330.21 19.17, 346.2 0.69 M310.46 51.14 C316.12 34.91, 326.36 27.68, 348.65 -3 M309.74 47.49 C320.7 31.54, 333.95 19.14, 348.3 -0.62 M312.93 50.82 C322.15 36.04, 330.88 25.03, 354.82 2.16 M312.8 48.28 C325.5 35.48, 334.24 26.85, 354.98 0.8 M320.45 43.31 C337.94 28.82, 350.92 15.71, 363.31 2.52 M319.14 45.78 C331.31 34.61, 337.71 25.19, 361.36 0.58 M322.03 47.91 C336.08 36.6, 344.86 27.7, 369.38 0.27 M325.75 47.77 C332.42 35.78, 343.22 26.4, 367.53 0.27 M329.15 46.55 C335.58 36.2, 353.48 25.82, 368.46 -0.74 M330.59 47.9 C339.3 37.25, 349.83 26.21, 369.75 0.86 M337.51 46.82 C348.6 26.27, 369.21 9.57, 376.48 -0.01 M335.82 47.3 C350.14 32.17, 362.15 16.22, 378.27 0.23 M339.3 44.98 C349.97 30.97, 368.13 16.21, 383.59 -1.39 M341.55 47.96 C349.73 39.49, 356.9 27.32, 380.53 -1.28 M348.89 48.93 C359.26 35.34, 364.87 22.94, 390.38 -2.06 M345.08 46.36 C356.9 33.48, 369.33 20.56, 386.92 0.55 M351.14 49.23 C356.78 36.41, 373.71 20.96, 393.68 -1.55 M350.7 46.84 C366.07 29.61, 385.66 10.12, 390.03 -0.6 M359.14 50.12 C369.61 31.16, 378.71 22.69, 398.8 1.25 M356.86 47.2 C371.5 29.3, 385.81 14.88, 398.4 -0.15 M362.42 48.45 C378.32 29.18, 390.64 12.54, 405.24 -0.85 M361.98 48.14 C377.72 30.99, 389.87 14.29, 403.8 -1.09 M368.76 48.77 C378.9 34.17, 392.82 19.84, 411 3.57 M367.7 46.81 C378.01 36.94, 386.54 25.86, 406.91 -0.5 M376.38 50.26 C385.25 36.8, 397.68 16.78, 414.26 3.61 M372.59 46.25 C388.54 29.25, 403.67 11.28, 412.66 -0.02 M375.74 45.77 C393.46 33.61, 407.19 13.74, 417.71 1.02 M379.44 48.94 C387.63 36.95, 396.12 24.36, 419.89 -0.38 M385.76 48.8 C395.38 32.31, 407.74 22.03, 422.22 1.21 M384.97 46.28 C398.07 28.58, 410.14 12.7, 424.68 0.12 M391.57 44.51 C397.88 31.91, 410.42 23.48, 431.17 0.23 M387.13 48.09 C401.13 32.81, 417.53 14.14, 430.04 -0.92 M396.8 48.7 C398.64 33.62, 416.05 21.32, 436.13 -0.18 M394.81 48.11 C410.41 27.84, 426.61 9.08, 433.18 -0.44 M401.25 50.85 C407.85 38.7, 417.03 22.82, 437.13 2.34 M399.1 45.51 C413.31 30.9, 425.27 12.86, 439.29 -0.49 M405.24 49.09 C423.83 26.02, 435.43 10.73, 444.46 1.84 M403.05 46.36 C413.36 34.69, 427.3 21.36, 444.72 1.32 M411.27 49.19 C421.52 35.39, 434.35 19.9, 450.84 2.99 M408.9 49.18 C419.05 35.32, 431.56 21.34, 450.83 1.27 M412.33 43.6 C430.37 25.16, 443.45 9.9, 457.22 -3.86 M415.87 46.39 C425.24 37.38, 434.84 25.95, 455.13 -0.88 M417.62 50.41 C433.29 30.98, 444.24 24.96, 461.03 0.29 M419.37 45.86 C427.96 36.25, 437.02 27.96, 461.11 -0.51 M424.16 45.12 C439.74 32.3, 450.78 18.17, 465.9 -1.89 M424.08 49.09 C433.89 35.39, 446.84 22.54, 465.45 1.47 M429.79 43.89 C448.5 29.23, 466.13 6.79, 469.28 3.65 M430.55 49.04 C443.11 33.64, 453.04 22.03, 471.16 0.8 M438.27 50.79 C441.3 33.33, 453.62 26.78, 475.48 1.63 M437.67 47.82 C448.64 31.96, 459.36 22.12, 478.02 -0.38 M438.78 45.52 C451.21 36.41, 460.8 25.27, 484.66 -1.32 M439.77 46.96 C450.21 35.27, 459.27 28.52, 481.23 0.29 M447.75 46.47 C454.25 32.32, 465.62 23.83, 488.47 3.08 M445.92 48.94 C463.57 27.89, 479.39 10.16, 488.4 -0.44 M449.08 49.67 C464.18 35.41, 470.29 21.16, 495.75 -0.22 M453.6 46.63 C466.94 28.35, 480.87 11.15, 490.87 2.11 M459.85 43.81 C472.41 31.64, 492.88 12.01, 496.84 1.35 M456.03 48.84 C471.14 30.45, 485.2 11.27, 497.4 -1.97 M462.67 45.23 C474.19 39.06, 478.84 23.46, 505.29 -0.93 M463.85 45.79 C472.46 35.4, 485.52 21.15, 501.5 0.36 M471.31 48.94 C481.85 31.85, 493.91 17.2, 500.2 4.61 M468.44 46.63 C478.19 33.35, 493.37 18.9, 501.19 5.33 M471.05 47.58 C482.41 39.32, 492.82 30.17, 503.03 11.26 M471.59 48.93 C480.54 36.01, 486.92 30.03, 505.33 12 M476.37 46.49 C487.47 33.63, 499.2 25.11, 502.85 15.24 M476.83 48.19 C485.66 38.74, 491.9 30.51, 504.4 18.19 M487.22 50.61 C492.51 36.54, 496.29 33.82, 505.2 21.41 M483.13 47.31 C488.32 40.72, 495.37 33.3, 504.8 24.58 M490.77 47.59 C493.13 38.41, 502.86 35.18, 501.86 34.32 M488.16 46.13 C493.95 42.51, 495.01 37.01, 504.18 32.32 M496.56 49.38 C497.31 45.65, 498.68 39.29, 505.22 37.64 M494.21 46.92 C497.75 43.44, 499.77 40.62, 503.95 37.18 M498.37 48.07 C500.34 46.21, 500.98 43.99, 503.37 43.97 M499.23 47.46 C501.04 45.99, 502.52 44.35, 503.1 42.98" stroke="#228be6" stroke-width="0.5" fill="none"></path><path d="M-0.52 -0.24 C169.4 -3.04, 338.2 -2.64, 503.37 -1.07 M-0.31 -0.29 C170.22 3.37, 338.68 3.46, 503.47 -0.42 M499.65 0.97 C505.95 19.25, 500.91 32.78, 501.35 46.27 M502.29 -1.17 C503.94 17.56, 502.11 31.94, 503.5 44.04 M504.52 45.65 C302.55 46.59, 103.01 46.3, 1.2 46.11 M503.58 46.28 C371.87 47.02, 240.25 47.99, -0.62 46.52 M0.44 42.71 C-2.08 33.84, 0.92 11.63, -3.22 -3.95 M-0.43 46.13 C1.66 30.84, 1.6 16.41, -1.67 -0.22" stroke="#000000" stroke-width="1" fill="none"></path></g><g transform="translate(82.5 15) rotate(0 179 18)"><text x="179" y="25" font-family="Virgil, Segoe UI Emoji" font-size="28px" fill="#000000" text-anchor="middle" style="white-space: pre;" direction="ltr">Data Sampling Strategies</text></g><g stroke-linecap="round" transform="translate(11.46018354802436 56.33642760721705) rotate(0 676.3257631366068 613.7345520275094)"><path d="M0.49 0.41 C521.99 2.39, 1043.58 0.52, 1353.25 0.82 M1353.8 1.39 C1347.59 288.23, 1349.74 572.49, 1354.22 1228.63 M1353.56 1227.85 C920.74 1228.55, 490.38 1230.19, 1.1 1227.51 M0.74 1227.96 C2.77 830.01, 3.91 434.13, 1.56 0.59" stroke="#000000" stroke-width="1.5" fill="none" stroke-dasharray="8 9"></path></g><g transform="translate(51.52912467253191 98.14512470751652) rotate(0 546 12.5)"><text x="0" y="18" font-family="Virgil, Segoe UI Emoji" font-size="20px" fill="#000000" text-anchor="start" style="white-space: pre;" direction="ltr">When we have a large data asset it is not always practical (or necessary) to work with the entire dataset.</text></g><g transform="translate(308.23302905458695 153.3763200801768) rotate(0 451.5 12.5)"><text x="0" y="18" font-family="Virgil, Segoe UI Emoji" font-size="20px" fill="#000000" text-anchor="start" style="white-space: pre;" direction="ltr">Instead, we can draw a smaller data sample that contains enough information for learning</text></g><g stroke-linecap="round"><g transform="translate(247.11173162428895 141.240934913214) rotate(0 22.083703870399404 12.554615508189272)"><path d="M0.29 0.6 C0.29 4.15, -7.69 17.5, 0.34 21.61 C8.36 25.71, 40.63 24.81, 48.45 25.24 M-1.01 -0.13 C-1.19 3.53, -8.62 18.83, -0.46 22.72 C7.69 26.61, 40 22.84, 47.91 23.22" stroke="#a61e4d" stroke-width="2" fill="none"></path></g><g transform="translate(247.11173162428895 141.240934913214) rotate(0 22.083703870399404 12.554615508189272)"><path d="M26.69 32.73 C31.68 29.96, 41.4 24.89, 47.13 22.49 M26.66 32.84 C33.35 30.04, 42.87 25.89, 47.08 23.46" stroke="#a61e4d" stroke-width="2" fill="none"></path></g><g transform="translate(247.11173162428895 141.240934913214) rotate(0 22.083703870399404 12.554615508189272)"><path d="M26.08 16.32 C31.31 18.98, 41.23 19.34, 47.13 22.49 M26.05 16.44 C33.11 19.75, 42.86 21.69, 47.08 23.46" stroke="#a61e4d" stroke-width="2" fill="none"></path></g></g><mask></mask><g stroke-linecap="round"><g transform="translate(821.754270526535 179.99104991386594) rotate(0 132.94779483192633 -0.6030152689481838)"><path d="M0.02 0.64 C68.68 -0.1, 139.59 -0.44, 265.63 -1.29 M-0.08 0.68 C85.2 0.07, 169.3 -0.17, 265.98 -1.89" stroke="#e67700" stroke-width="2" fill="none"></path></g></g><mask></mask><g transform="translate(59.70657411720276 248.17561925076552) rotate(0 95 12.5)"><text x="0" y="18" font-family="Virgil, Segoe UI Emoji" font-size="20px" fill="#e67700" text-anchor="start" style="white-space: pre;" direction="ltr">Probability Sampling</text></g><g transform="translate(61.02323827910732 325.25752095134885) rotate(0 110 12.5)"><text x="0" y="18" font-family="Virgil, Segoe UI Emoji" font-size="20px" fill="#e67700" text-anchor="start" style="white-space: pre;" direction="ltr">Nonprobability Sampling</text></g><g transform="translate(100.48095302628826 278.91793244733526) rotate(0 235 12.5)"><text x="0" y="18" font-family="Virgil, Segoe UI Emoji" font-size="20px" fill="#000000" text-anchor="start" style="white-space: pre;" direction="ltr">All the examples have a chance to be selected</text></g><g transform="translate(106.87315470635076 351.5806880712098) rotate(0 453 12.5)"><text x="0" y="18" font-family="Virgil, Segoe UI Emoji" font-size="20px" fill="#000000" text-anchor="start" style="white-space: pre;" direction="ltr">Some examples do not have a chance to be selected, no matter how many samples we build</text></g><g transform="translate(1018.6516467342717 249.3455377894261) rotate(0 160.5 25)"><text x="160.5" y="18" font-family="Virgil, Segoe UI Emoji" font-size="20px" fill="#000000" text-anchor="middle" style="white-space: pre;" direction="ltr">Historically more manageable to </text><text x="160.5" y="43" font-family="Virgil, Segoe UI Emoji" font-size="20px" fill="#000000" text-anchor="middle" style="white-space: pre;" direction="ltr">be executed manually</text></g><g transform="translate(1159.3607828261265 349.29983848323354) rotate(0 23 12.5)"><text x="0" y="18" font-family="Virgil, Segoe UI Emoji" font-size="20px" fill="#a61e4d" text-anchor="start" style="white-space: pre;" direction="ltr">Cons</text></g><g transform="translate(1037.9470061669854 376.6320048966627) rotate(0 143 50)"><text x="143" y="18" font-family="Virgil, Segoe UI Emoji" font-size="20px" fill="#000000" text-anchor="middle" style="white-space: pre;" direction="ltr">They may include </text><text x="143" y="43" font-family="Virgil, Segoe UI Emoji" font-size="20px" fill="#000000" text-anchor="middle" style="white-space: pre;" direction="ltr">non-representative examples </text><text x="143" y="68" font-family="Virgil, Segoe UI Emoji" font-size="20px" fill="#000000" text-anchor="middle" style="white-space: pre;" direction="ltr">and systematically exclude </text><text x="143" y="93" font-family="Virgil, Segoe UI Emoji" font-size="20px" fill="#000000" text-anchor="middle" style="white-space: pre;" direction="ltr">important examples</text></g><g transform="translate(1157.1050407844032 227.00402620029126) rotate(0 23 12.5)"><text x="0" y="18" font-family="Virgil, Segoe UI Emoji" font-size="20px" fill="#087f5b" text-anchor="start" style="white-space: pre;" direction="ltr">Pros</text></g><g stroke-linecap="round"><g transform="translate(1026.3850372127472 349.46653758617686) rotate(0 18.027500524456627 -21.55639443865857)"><path d="M-0.58 1.89 C11.4 -14.64, 24.65 -28.88, 36.64 -44.64 M0.1 0.24 C14.17 -17.42, 26.27 -32.52, 35.18 -45" stroke="#087f5b" stroke-width="2" fill="none"></path></g><g transform="translate(1026.3850372127472 349.46653758617686) rotate(0 18.027500524456627 -21.55639443865857)"><path d="M26.54 -15.97 C29.53 -26.58, 33.68 -34.86, 37 -44.99 M27.22 -17.63 C31.21 -28.76, 33.35 -37.34, 35.54 -45.36" stroke="#087f5b" stroke-width="2" fill="none"></path></g><g transform="translate(1026.3850372127472 349.46653758617686) rotate(0 18.027500524456627 -21.55639443865857)"><path d="M10.98 -27.5 C19.31 -34.18, 28.75 -38.55, 37 -44.99 M11.66 -29.16 C21.36 -36.01, 29.29 -40.3, 35.54 -45.36" stroke="#087f5b" stroke-width="2" fill="none"></path></g></g><mask></mask><g stroke-linecap="round"><g transform="translate(1031.0253863744947 361.1903010933438) rotate(0 20.995432567054195 13.672389950223078)"><path d="M-1.02 -1.1 C16.4 10.55, 30.02 17.88, 42 26.49 M-0.42 -0.84 C13.8 8.61, 27.53 18.46, 43.01 28.45" stroke="#a61e4d" stroke-width="2" fill="none"></path></g><g transform="translate(1031.0253863744947 361.1903010933438) rotate(0 20.995432567054195 13.672389950223078)"><path d="M16.74 21.29 C28.05 25.74, 35.4 25.74, 41.16 27.1 M17.34 21.55 C25.72 23.94, 33.41 26.7, 42.17 29.06" stroke="#a61e4d" stroke-width="2" fill="none"></path></g><g transform="translate(1031.0253863744947 361.1903010933438) rotate(0 20.995432567054195 13.672389950223078)"><path d="M26.54 6.47 C34.45 15.98, 38.51 20.96, 41.16 27.1 M27.14 6.73 C32.19 13.95, 36.69 21.53, 42.17 29.06" stroke="#a61e4d" stroke-width="2" fill="none"></path></g></g><mask></mask><g transform="translate(69.87384647062936 441.639837427525) rotate(0 178.5 12.5)"><text x="0" y="18" font-family="Virgil, Segoe UI Emoji" font-size="20px" fill="#000000" text-anchor="start" style="white-space: pre;" direction="ltr">We will focus on Probability Sampling</text></g><g stroke-linecap="round"><g transform="translate(233.64742719319293 473.6532586554131) rotate(0 91.76211298929411 -1.1216097813758097)"><path d="M-0.97 0.42 C60.38 0.86, 120.37 -0.78, 183.24 -2.74 M-0.82 -0.86 C44.34 0.04, 87.99 0.73, 184.49 -1.1" stroke="#e67700" stroke-width="2" fill="none"></path></g></g><mask></mask><g transform="translate(287.26629540040267 587.9048708308455) rotate(0 113 12.5)"><text x="0" y="18" font-family="Virgil, Segoe UI Emoji" font-size="20px" fill="#e67700" text-anchor="start" style="white-space: pre;" direction="ltr">Simple Random Sampling</text></g><g transform="translate(216.57009470334742 622.2524218985673) rotate(0 192 50)"><text x="192" y="18" font-family="Virgil, Segoe UI Emoji" font-size="20px" fill="#000000" text-anchor="middle" style="white-space: pre;" direction="ltr">Each example from the entire dataset</text><text x="192" y="43" font-family="Virgil, Segoe UI Emoji" font-size="20px" fill="#000000" text-anchor="middle" style="white-space: pre;" direction="ltr">is chosen purely by chance.</text><text x="192" y="68" font-family="Virgil, Segoe UI Emoji" font-size="20px" fill="#000000" text-anchor="middle" style="white-space: pre;" direction="ltr">Each example has an equal chance</text><text x="192" y="93" font-family="Virgil, Segoe UI Emoji" font-size="20px" fill="#000000" text-anchor="middle" style="white-space: pre;" direction="ltr">to be selected.</text></g><g stroke-linecap="round" transform="translate(206.51857220823877 744.847302217986) rotate(0 97.76393149271098 78.67580210200958)"><path d="M53.42 9.5 C63 4.07, 76.66 1.13, 89.19 0.19 C101.72 -0.75, 116.76 0.79, 128.6 3.89 C140.45 6.98, 151.03 12.35, 160.27 18.75 C169.51 25.15, 178.33 33.25, 184.03 42.29 C189.73 51.32, 193.44 63.01, 194.48 72.96 C195.52 82.91, 193.83 92.6, 190.27 101.98 C186.71 111.36, 181.1 121.36, 173.12 129.25 C165.14 137.14, 153.67 144.65, 142.41 149.31 C131.15 153.98, 117.96 156.41, 105.56 157.24 C93.17 158.07, 79.76 157.28, 68.06 154.31 C56.35 151.34, 44.9 146.1, 35.35 139.45 C25.8 132.79, 16.74 123.53, 10.74 114.4 C4.73 105.27, 0.41 94.7, -0.67 84.65 C-1.74 74.6, 0.3 63.59, 4.29 54.08 C8.27 44.57, 14.27 35.31, 23.26 27.57 C32.24 19.83, 51.41 11.11, 58.19 7.65 C64.97 4.19, 63.41 5.73, 63.93 6.81 M123.91 4.55 C135.75 6.1, 150.66 10.97, 160.36 16.89 C170.06 22.81, 176.44 31.34, 182.09 40.08 C187.75 48.82, 192.59 59.44, 194.27 69.33 C195.94 79.21, 195.31 89.38, 192.14 99.4 C188.97 109.42, 182.9 121.54, 175.23 129.42 C167.56 137.31, 157.17 142.37, 146.11 146.73 C135.05 151.08, 121.51 154.23, 108.88 155.57 C96.25 156.92, 82.64 157.54, 70.34 154.77 C58.04 152.01, 44.73 145.15, 35.06 139 C25.4 132.85, 18.3 126.58, 12.35 117.87 C6.4 109.15, 0.85 96.83, -0.65 86.71 C-2.16 76.6, -0.5 66.52, 3.33 57.18 C7.17 47.85, 14.55 38.42, 22.35 30.69 C30.15 22.97, 39.29 15.8, 50.13 10.82 C60.97 5.84, 74.69 1.91, 87.41 0.81 C100.13 -0.28, 120.11 3.67, 126.44 4.25 C132.77 4.83, 126.15 3.33, 125.38 4.3" stroke="#1864ab" stroke-width="1" fill="none"></path></g><g stroke-linecap="round" transform="translate(268.40470154371724 767.6300738135506) rotate(0 8.617137068579723 9.384165027409836)"><path d="M0 0 L17.23 0 L17.23 18.77 L0 18.77" stroke="none" stroke-width="0" fill="#7950f2"></path><path d="M0 0 C5.68 0, 11.35 0, 17.23 0 M0 0 C5.3 0, 10.61 0, 17.23 0 M17.23 0 C17.23 5.84, 17.23 11.68, 17.23 18.77 M17.23 0 C17.23 5, 17.23 10, 17.23 18.77 M17.23 18.77 C11.09 18.77, 4.94 18.77, 0 18.77 M17.23 18.77 C11.46 18.77, 5.69 18.77, 0 18.77 M0 18.77 C0 14.42, 0 10.07, 0 0 M0 18.77 C0 12.8, 0 6.83, 0 0" stroke="#5f3dc4" stroke-width="1" fill="none"></path></g><g stroke-linecap="round" transform="translate(233.78201367958536 824.9589912531919) rotate(0 8.617137068579723 9.384165027409836)"><path d="M0 0 L17.23 0 L17.23 18.77 L0 18.77" stroke="none" stroke-width="0" fill="#7950f2"></path><path d="M0 0 C3.61 0, 7.22 0, 17.23 0 M0 0 C3.69 0, 7.39 0, 17.23 0 M17.23 0 C17.23 6.76, 17.23 13.51, 17.23 18.77 M17.23 0 C17.23 4.79, 17.23 9.58, 17.23 18.77 M17.23 18.77 C10.75 18.77, 4.27 18.77, 0 18.77 M17.23 18.77 C13.57 18.77, 9.9 18.77, 0 18.77 M0 18.77 C0 12.75, 0 6.74, 0 0 M0 18.77 C0 12.71, 0 6.64, 0 0" stroke="#5f3dc4" stroke-width="1" fill="none"></path></g><g stroke-linecap="round" transform="translate(276.1850808390227 861.7396333746983) rotate(0 8.617137068579723 9.384165027409836)"><path d="M0 0 L17.23 0 L17.23 18.77 L0 18.77" stroke="none" stroke-width="0" fill="#7950f2"></path><path d="M0 0 C5.36 0, 10.72 0, 17.23 0 M0 0 C5.15 0, 10.3 0, 17.23 0 M17.23 0 C17.23 5.55, 17.23 11.1, 17.23 18.77 M17.23 0 C17.23 4.86, 17.23 9.71, 17.23 18.77 M17.23 18.77 C12.91 18.77, 8.59 18.77, 0 18.77 M17.23 18.77 C10.65 18.77, 4.06 18.77, 0 18.77 M0 18.77 C0 11.43, 0 4.1, 0 0 M0 18.77 C0 11.51, 0 4.24, 0 0" stroke="#5f3dc4" stroke-width="1" fill="none"></path></g><g stroke-linecap="round" transform="translate(338.5382149085126 855.2070507588251) rotate(0 8.617137068579723 9.384165027409836)"><path d="M0 0 L17.23 0 L17.23 18.77 L0 18.77" stroke="none" stroke-width="0" fill="#7950f2"></path><path d="M0 0 C3.54 0, 7.08 0, 17.23 0 M0 0 C3.85 0, 7.7 0, 17.23 0 M17.23 0 C17.23 5.9, 17.23 11.8, 17.23 18.77 M17.23 0 C17.23 5.53, 17.23 11.05, 17.23 18.77 M17.23 18.77 C13.48 18.77, 9.72 18.77, 0 18.77 M17.23 18.77 C10.35 18.77, 3.46 18.77, 0 18.77 M0 18.77 C0 14.68, 0 10.59, 0 0 M0 18.77 C0 11.76, 0 4.74, 0 0" stroke="#5f3dc4" stroke-width="1" fill="none"></path></g><g stroke-linecap="round" transform="translate(284.9380075462468 815.787685659332) rotate(0 8.617137068579723 9.384165027409836)"><path d="M0 0 L17.23 0 L17.23 18.77 L0 18.77" stroke="none" stroke-width="0" fill="#7950f2"></path><path d="M0 0 C6.88 0, 13.76 0, 17.23 0 M0 0 C4.23 0, 8.45 0, 17.23 0 M17.23 0 C17.23 6.27, 17.23 12.54, 17.23 18.77 M17.23 0 C17.23 5.42, 17.23 10.84, 17.23 18.77 M17.23 18.77 C10.46 18.77, 3.68 18.77, 0 18.77 M17.23 18.77 C10.52 18.77, 3.81 18.77, 0 18.77 M0 18.77 C0 13.78, 0 8.8, 0 0 M0 18.77 C0 12.15, 0 5.53, 0 0" stroke="#5f3dc4" stroke-width="1" fill="none"></path></g><g stroke-linecap="round" transform="translate(361.1312482077883 813.064552905973) rotate(0 8.617137068579723 9.384165027409836)"><path d="M0 0 L17.23 0 L17.23 18.77 L0 18.77" stroke="none" stroke-width="0" fill="#7950f2"></path><path d="M0 0 C5.16 0, 10.33 0, 17.23 0 M0 0 C3.9 0, 7.81 0, 17.23 0 M17.23 0 C17.23 7.07, 17.23 14.14, 17.23 18.77 M17.23 0 C17.23 5.78, 17.23 11.55, 17.23 18.77 M17.23 18.77 C10.47 18.77, 3.71 18.77, 0 18.77 M17.23 18.77 C13.14 18.77, 9.04 18.77, 0 18.77 M0 18.77 C0 13.86, 0 8.95, 0 0 M0 18.77 C0 13.59, 0 8.41, 0 0" stroke="#5f3dc4" stroke-width="1" fill="none"></path></g><g stroke-linecap="round" transform="translate(309.8688246243473 772.5117342452904) rotate(0 8.617137068579723 9.384165027409836)"><path d="M0 0 L17.23 0 L17.23 18.77 L0 18.77" stroke="none" stroke-width="0" fill="#fd7e14"></path><path d="M0 0 C5.51 0, 11.01 0, 17.23 0 M0 0 C6.2 0, 12.39 0, 17.23 0 M17.23 0 C17.23 7.41, 17.23 14.82, 17.23 18.77 M17.23 0 C17.23 7.29, 17.23 14.59, 17.23 18.77 M17.23 18.77 C12.57 18.77, 7.9 18.77, 0 18.77 M17.23 18.77 C11.5 18.77, 5.77 18.77, 0 18.77 M0 18.77 C0 12.47, 0 6.16, 0 0 M0 18.77 C0 13.87, 0 8.98, 0 0" stroke="#e67700" stroke-width="1" fill="none"></path></g><g stroke-linecap="round" transform="translate(318.97716696323187 816.8189529149859) rotate(0 8.617137068579723 9.384165027409836)"><path d="M0 0 L17.23 0 L17.23 18.77 L0 18.77" stroke="none" stroke-width="0" fill="#fd7e14"></path><path d="M0 0 C6.66 0, 13.32 0, 17.23 0 M0 0 C4.27 0, 8.54 0, 17.23 0 M17.23 0 C17.23 7.24, 17.23 14.47, 17.23 18.77 M17.23 0 C17.23 5.86, 17.23 11.71, 17.23 18.77 M17.23 18.77 C13.66 18.77, 10.09 18.77, 0 18.77 M17.23 18.77 C13.57 18.77, 9.91 18.77, 0 18.77 M0 18.77 C0 12.11, 0 5.46, 0 0 M0 18.77 C0 13.92, 0 9.08, 0 0" stroke="#e67700" stroke-width="1" fill="none"></path></g><g stroke-linecap="round" transform="translate(238.11627214551118 791.3675706447139) rotate(0 8.617137068579723 9.384165027409836)"><path d="M0 0 L17.23 0 L17.23 18.77 L0 18.77" stroke="none" stroke-width="0" fill="#fd7e14"></path><path d="M0 0 C3.91 0, 7.81 0, 17.23 0 M0 0 C3.66 0, 7.32 0, 17.23 0 M17.23 0 C17.23 5.63, 17.23 11.27, 17.23 18.77 M17.23 0 C17.23 6.06, 17.23 12.13, 17.23 18.77 M17.23 18.77 C12.95 18.77, 8.66 18.77, 0 18.77 M17.23 18.77 C12.12 18.77, 7 18.77, 0 18.77 M0 18.77 C0 11.54, 0 4.32, 0 0 M0 18.77 C0 14.25, 0 9.73, 0 0" stroke="#e67700" stroke-width="1" fill="none"></path></g><g stroke-linecap="round" transform="translate(464.5621652806785 772.9344871492594) rotate(0 60.385759401263385 50.806068818570566)"><path d="M59.27 0.6 C68.87 -0.24, 80.71 1.75, 89.73 5.77 C98.75 9.79, 108.2 17.16, 113.4 24.71 C118.59 32.26, 120.98 42.53, 120.88 51.09 C120.79 59.65, 117.77 68.69, 112.83 76.08 C107.89 83.46, 99.77 91.01, 91.25 95.41 C82.73 99.81, 71.83 102.56, 61.71 102.47 C51.59 102.37, 39.59 99.23, 30.52 94.85 C21.45 90.46, 12.46 83.5, 7.3 76.15 C2.14 68.79, -0.54 59.14, -0.45 50.71 C-0.35 42.28, 2.78 32.71, 7.85 25.57 C12.91 18.43, 20.85 12.07, 29.94 7.85 C39.04 3.63, 56.77 1.35, 62.41 0.26 C68.05 -0.84, 63.73 0.37, 63.77 1.3 M47.07 1.09 C56.11 -1.94, 66.22 -1.08, 75.55 1.18 C84.88 3.44, 95.76 8.66, 103.08 14.66 C110.4 20.65, 116.71 28.54, 119.48 37.13 C122.25 45.73, 122.32 58.02, 119.69 66.23 C117.07 74.43, 111.1 80.94, 103.74 86.36 C96.39 91.79, 85.57 96.46, 75.58 98.77 C65.58 101.08, 53.79 102.51, 43.78 100.24 C33.77 97.96, 22.46 91.08, 15.52 85.13 C8.58 79.18, 4.53 72.67, 2.12 64.54 C-0.28 56.41, -1.53 44.64, 1.08 36.36 C3.69 28.08, 10.22 20.45, 17.79 14.85 C25.36 9.26, 41.91 4.67, 46.5 2.8 C51.1 0.93, 45.2 2.98, 45.35 3.64" stroke="#1864ab" stroke-width="1" fill="none"></path></g><g stroke-linecap="round" transform="translate(504.2173991293075 797.571972579668) rotate(0 8.617137068578813 9.384165027409836)"><path d="M0 0 L17.23 0 L17.23 18.77 L0 18.77" stroke="none" stroke-width="0" fill="#fd7e14"></path><path d="M0 0 C6.53 0, 13.07 0, 17.23 0 M0 0 C4.45 0, 8.9 0, 17.23 0 M17.23 0 C17.23 3.79, 17.23 7.58, 17.23 18.77 M17.23 0 C17.23 5.94, 17.23 11.88, 17.23 18.77 M17.23 18.77 C12.98 18.77, 8.73 18.77, 0 18.77 M17.23 18.77 C13.78 18.77, 10.33 18.77, 0 18.77 M0 18.77 C0 11.73, 0 4.68, 0 0 M0 18.77 C0 14.44, 0 10.1, 0 0" stroke="#e67700" stroke-width="1" fill="none"></path></g><g stroke-linecap="round" transform="translate(489.12905381787823 831.6225635787359) rotate(0 8.617137068578813 9.384165027409836)"><path d="M0 0 L17.23 0 L17.23 18.77 L0 18.77" stroke="none" stroke-width="0" fill="#7950f2"></path><path d="M0 0 C5.3 0, 10.61 0, 17.23 0 M0 0 C5.36 0, 10.72 0, 17.23 0 M17.23 0 C17.23 5, 17.23 10, 17.23 18.77 M17.23 0 C17.23 6.7, 17.23 13.39, 17.23 18.77 M17.23 18.77 C11.46 18.77, 5.69 18.77, 0 18.77 M17.23 18.77 C13.24 18.77, 9.24 18.77, 0 18.77 M0 18.77 C0 12.8, 0 6.83, 0 0 M0 18.77 C0 14.67, 0 10.57, 0 0" stroke="#5f3dc4" stroke-width="1" fill="none"></path></g><g stroke-linecap="round" transform="translate(543.8752125959854 821.8434483982874) rotate(0 8.617137068578813 9.384165027409836)"><path d="M0 0 L17.23 0 L17.23 18.77 L0 18.77" stroke="none" stroke-width="0" fill="#fd7e14"></path><path d="M0 0 C3.69 0, 7.39 0, 17.23 0 M0 0 C6.2 0, 12.41 0, 17.23 0 M17.23 0 C17.23 4.79, 17.23 9.58, 17.23 18.77 M17.23 0 C17.23 7.06, 17.23 14.11, 17.23 18.77 M17.23 18.77 C13.57 18.77, 9.9 18.77, 0 18.77 M17.23 18.77 C11.71 18.77, 6.19 18.77, 0 18.77 M0 18.77 C0 12.71, 0 6.64, 0 0 M0 18.77 C0 13.09, 0 7.42, 0 0" stroke="#e67700" stroke-width="1" fill="none"></path></g><g stroke-linecap="round"><g transform="translate(315.01803573451616 900.937126490322) rotate(0 102.08121552082866 -11.964535073934712)"><path d="M-1.31 1.06 C60.56 -7.91, 124.42 -14.44, 205.47 -23.52 M0.68 0.84 C61.45 -7.89, 121.31 -16.04, 204.97 -24.99" stroke="#1864ab" stroke-width="1" fill="none"></path></g></g><mask></mask><g stroke-linecap="round"><g transform="translate(325.0420789614582 745.7884623096797) rotate(0 98.15296621932612 12.353471555495162)"><path d="M1.19 -1.04 C41.46 9.01, 85.74 13.19, 195.36 25.75 M0.95 0.86 C61.13 6.52, 121.19 14.42, 193.71 25.42" stroke="#1864ab" stroke-width="1" fill="none"></path></g></g><mask></mask><g transform="translate(777.3700500507039 580.1000654129621) rotate(0 93.5 12.5)"><text x="0" y="18" font-family="Virgil, Segoe UI Emoji" font-size="20px" fill="#e67700" text-anchor="start" style="white-space: pre;" direction="ltr">Stratified Sampling</text></g><g transform="translate(672.5135286538389 615.2827334388367) rotate(0 209.5 37.5)"><text x="209.5" y="18" font-family="Virgil, Segoe UI Emoji" font-size="20px" fill="#000000" text-anchor="middle" style="white-space: pre;" direction="ltr">Partition the dataset into homogeneous</text><text x="209.5" y="43" font-family="Virgil, Segoe UI Emoji" font-size="20px" fill="#000000" text-anchor="middle" style="white-space: pre;" direction="ltr">subgroups, reflecting the same distribution</text><text x="209.5" y="68" font-family="Virgil, Segoe UI Emoji" font-size="20px" fill="#000000" text-anchor="middle" style="white-space: pre;" direction="ltr">of the main population</text></g><g stroke-linecap="round" transform="translate(679.9620061587302 737.8776137582554) rotate(0 97.76393149271098 78.67580210200958)"><path d="M96.78 -0.42 C108.59 -2.04, 121.34 1.26, 132.82 4.88 C144.31 8.5, 156.5 14.25, 165.7 21.3 C174.91 28.34, 183.06 37.66, 188.04 47.16 C193.03 56.66, 195.44 68.26, 195.62 78.28 C195.81 88.3, 193.81 98.16, 189.15 107.29 C184.49 116.42, 176.58 125.91, 167.67 133.06 C158.75 140.21, 146.97 146.31, 135.67 150.19 C124.37 154.08, 112.2 156.15, 99.87 156.35 C87.54 156.55, 73.39 155.07, 61.7 151.4 C50.01 147.73, 38.68 141.25, 29.73 134.32 C20.78 127.39, 12.86 118.75, 8.01 109.82 C3.16 100.89, 0.9 90.68, 0.62 80.73 C0.35 70.77, 1.84 59.67, 6.39 50.11 C10.95 40.54, 19.16 30.67, 27.96 23.36 C36.76 16.04, 45.93 10.23, 59.2 6.23 C72.46 2.23, 98.06 -0.02, 107.55 -0.65 C117.04 -1.28, 116.38 0.96, 116.16 2.45 M139.98 6.3 C150.93 9.31, 160.92 17.68, 169.47 25.12 C178.01 32.56, 186.98 41.51, 191.25 50.94 C195.51 60.37, 195.69 71.61, 195.06 81.69 C194.43 91.78, 192.8 102.41, 187.47 111.47 C182.15 120.53, 172.76 129.22, 163.12 136.07 C153.48 142.92, 141.28 149.29, 129.62 152.59 C117.96 155.88, 105.45 156.34, 93.16 155.85 C80.88 155.35, 67.23 153.83, 55.89 149.64 C44.55 145.45, 33.66 138.08, 25.12 130.72 C16.58 123.36, 8.64 115.03, 4.64 105.48 C0.64 95.93, 0.27 83.77, 1.12 73.42 C1.98 63.08, 4.41 52.34, 9.78 43.41 C15.15 34.47, 24.07 26.43, 33.36 19.83 C42.66 13.23, 54.18 7.03, 65.53 3.81 C76.88 0.59, 89.08 -0.3, 101.45 0.49 C113.83 1.28, 133.66 7.3, 139.76 8.56 C145.85 9.82, 138.71 6.91, 138.04 8.08" stroke="#1864ab" stroke-width="1" fill="none"></path></g><g stroke-linecap="round" transform="translate(741.8481354942087 760.66038535382) rotate(0 8.617137068579723 9.384165027409836)"><path d="M0 0 L17.23 0 L17.23 18.77 L0 18.77" stroke="none" stroke-width="0" fill="#7950f2"></path><path d="M0 0 C4.26 0, 8.51 0, 17.23 0 M0 0 C3.61 0, 7.22 0, 17.23 0 M17.23 0 C17.23 6.79, 17.23 13.57, 17.23 18.77 M17.23 0 C17.23 6.43, 17.23 12.87, 17.23 18.77 M17.23 18.77 C10.53 18.77, 3.83 18.77, 0 18.77 M17.23 18.77 C10.43 18.77, 3.63 18.77, 0 18.77 M0 18.77 C0 13.97, 0 9.17, 0 0 M0 18.77 C0 14.78, 0 10.8, 0 0" stroke="#5f3dc4" stroke-width="1" fill="none"></path></g><g stroke-linecap="round" transform="translate(707.2254476300768 817.9893027934613) rotate(0 8.617137068579723 9.384165027409836)"><path d="M0 0 L17.23 0 L17.23 18.77 L0 18.77" stroke="none" stroke-width="0" fill="#7950f2"></path><path d="M0 0 C4.48 0, 8.96 0, 17.23 0 M0 0 C6.09 0, 12.19 0, 17.23 0 M17.23 0 C17.23 3.77, 17.23 7.54, 17.23 18.77 M17.23 0 C17.23 6.32, 17.23 12.64, 17.23 18.77 M17.23 18.77 C10.34 18.77, 3.45 18.77, 0 18.77 M17.23 18.77 C13.21 18.77, 9.18 18.77, 0 18.77 M0 18.77 C0 14.39, 0 10.02, 0 0 M0 18.77 C0 12.65, 0 6.53, 0 0" stroke="#5f3dc4" stroke-width="1" fill="none"></path></g><g stroke-linecap="round" transform="translate(749.6285147895142 854.7699449149677) rotate(0 8.617137068579723 9.384165027409836)"><path d="M0 0 L17.23 0 L17.23 18.77 L0 18.77" stroke="none" stroke-width="0" fill="#7950f2"></path><path d="M0 0 C6.7 0, 13.4 0, 17.23 0 M0 0 C4.65 0, 9.3 0, 17.23 0 M17.23 0 C17.23 5.57, 17.23 11.15, 17.23 18.77 M17.23 0 C17.23 4.61, 17.23 9.23, 17.23 18.77 M17.23 18.77 C13.11 18.77, 8.99 18.77, 0 18.77 M17.23 18.77 C12.23 18.77, 7.22 18.77, 0 18.77 M0 18.77 C0 12.56, 0 6.36, 0 0 M0 18.77 C0 13.13, 0 7.5, 0 0" stroke="#5f3dc4" stroke-width="1" fill="none"></path></g><g stroke-linecap="round" transform="translate(811.981648859004 848.2373622990945) rotate(0 8.617137068579723 9.384165027409836)"><path d="M0 0 L17.23 0 L17.23 18.77 L0 18.77" stroke="none" stroke-width="0" fill="#7950f2"></path><path d="M0 0 C5.12 0, 10.24 0, 17.23 0 M0 0 C5.35 0, 10.71 0, 17.23 0 M17.23 0 C17.23 4.85, 17.23 9.7, 17.23 18.77 M17.23 0 C17.23 6.04, 17.23 12.09, 17.23 18.77 M17.23 18.77 C11.81 18.77, 6.38 18.77, 0 18.77 M17.23 18.77 C13.23 18.77, 9.22 18.77, 0 18.77 M0 18.77 C0 11.89, 0 5.02, 0 0 M0 18.77 C0 11.97, 0 5.17, 0 0" stroke="#5f3dc4" stroke-width="1" fill="none"></path></g><g stroke-linecap="round" transform="translate(758.3814414967383 808.8179971996015) rotate(0 8.617137068579723 9.384165027409836)"><path d="M0 0 L17.23 0 L17.23 18.77 L0 18.77" stroke="none" stroke-width="0" fill="#7950f2"></path><path d="M0 0 C3.71 0, 7.43 0, 17.23 0 M0 0 C6.56 0, 13.12 0, 17.23 0 M17.23 0 C17.23 5.69, 17.23 11.38, 17.23 18.77 M17.23 0 C17.23 5.21, 17.23 10.42, 17.23 18.77 M17.23 18.77 C13.59 18.77, 9.95 18.77, 0 18.77 M17.23 18.77 C13.08 18.77, 8.92 18.77, 0 18.77 M0 18.77 C0 14.67, 0 10.57, 0 0 M0 18.77 C0 14.23, 0 9.7, 0 0" stroke="#5f3dc4" stroke-width="1" fill="none"></path></g><g stroke-linecap="round" transform="translate(834.5746821582798 806.0948644462424) rotate(0 8.617137068579723 9.384165027409836)"><path d="M0 0 L17.23 0 L17.23 18.77 L0 18.77" stroke="none" stroke-width="0" fill="#7950f2"></path><path d="M0 0 C6.83 0, 13.65 0, 17.23 0 M0 0 C6.04 0, 12.07 0, 17.23 0 M17.23 0 C17.23 4.07, 17.23 8.13, 17.23 18.77 M17.23 0 C17.23 6.91, 17.23 13.81, 17.23 18.77 M17.23 18.77 C13.07 18.77, 8.91 18.77, 0 18.77 M17.23 18.77 C12.32 18.77, 7.4 18.77, 0 18.77 M0 18.77 C0 12.76, 0 6.75, 0 0 M0 18.77 C0 14.35, 0 9.93, 0 0" stroke="#5f3dc4" stroke-width="1" fill="none"></path></g><g stroke-linecap="round" transform="translate(783.3122585748388 765.5420457855598) rotate(0 8.617137068579723 9.384165027409836)"><path d="M0 0 L17.23 0 L17.23 18.77 L0 18.77" stroke="none" stroke-width="0" fill="#fd7e14"></path><path d="M0 0 C6.05 0, 12.1 0, 17.23 0 M0 0 C4.5 0, 9.01 0, 17.23 0 M17.23 0 C17.23 5.61, 17.23 11.23, 17.23 18.77 M17.23 0 C17.23 3.77, 17.23 7.54, 17.23 18.77 M17.23 18.77 C13.04 18.77, 8.84 18.77, 0 18.77 M17.23 18.77 C11.6 18.77, 5.96 18.77, 0 18.77 M0 18.77 C0 14.99, 0 11.21, 0 0 M0 18.77 C0 12.95, 0 7.14, 0 0" stroke="#e67700" stroke-width="1" fill="none"></path></g><g stroke-linecap="round" transform="translate(792.4206009137233 809.8492644552553) rotate(0 8.617137068579723 9.384165027409836)"><path d="M0 0 L17.23 0 L17.23 18.77 L0 18.77" stroke="none" stroke-width="0" fill="#fd7e14"></path><path d="M0 0 C4.43 0, 8.87 0, 17.23 0 M0 0 C4.7 0, 9.4 0, 17.23 0 M17.23 0 C17.23 5.5, 17.23 11.01, 17.23 18.77 M17.23 0 C17.23 4.12, 17.23 8.25, 17.23 18.77 M17.23 18.77 C10.5 18.77, 3.76 18.77, 0 18.77 M17.23 18.77 C13.68 18.77, 10.12 18.77, 0 18.77 M0 18.77 C0 11.76, 0 4.75, 0 0 M0 18.77 C0 12.12, 0 5.46, 0 0" stroke="#e67700" stroke-width="1" fill="none"></path></g><g stroke-linecap="round" transform="translate(711.5597060960026 784.3978821849832) rotate(0 8.617137068579723 9.384165027409836)"><path d="M0 0 L17.23 0 L17.23 18.77 L0 18.77" stroke="none" stroke-width="0" fill="#fd7e14"></path><path d="M0 0 C3.5 0, 6.99 0, 17.23 0 M0 0 C4.49 0, 8.97 0, 17.23 0 M17.23 0 C17.23 6.78, 17.23 13.56, 17.23 18.77 M17.23 0 C17.23 4.34, 17.23 8.69, 17.23 18.77 M17.23 18.77 C13.66 18.77, 10.09 18.77, 0 18.77 M17.23 18.77 C11.94 18.77, 6.64 18.77, 0 18.77 M0 18.77 C0 13.69, 0 8.61, 0 0 M0 18.77 C0 13.47, 0 8.18, 0 0" stroke="#e67700" stroke-width="1" fill="none"></path></g><g stroke-linecap="round" transform="translate(938.0055992311718 765.9647986895307) rotate(0 60.385759401263385 50.806068818570566)"><path d="M51.79 0.19 C61.05 -1.94, 72.94 0.06, 82.08 3.08 C91.23 6.11, 100.22 11.85, 106.66 18.36 C113.09 24.87, 119.04 33.74, 120.7 42.16 C122.36 50.58, 120.36 60.96, 116.6 68.87 C112.84 76.79, 106 84.29, 98.15 89.64 C90.29 94.99, 79.33 99.41, 69.47 100.97 C59.62 102.52, 48.48 101.98, 39.03 98.98 C29.57 95.98, 19.07 89.82, 12.74 82.98 C6.42 76.13, 2.45 66.4, 1.06 57.92 C-0.34 49.44, 0.64 40.06, 4.36 32.1 C8.07 24.14, 14.73 15.59, 23.34 10.14 C31.95 4.69, 49.47 0.89, 56.02 -0.6 C62.58 -2.09, 62.32 0.06, 62.66 1.19 M41.42 1.49 C50.47 -1.63, 64.97 -1.99, 74.88 -0.17 C84.8 1.64, 93.47 6.58, 100.89 12.38 C108.31 18.17, 116.37 26.51, 119.42 34.59 C122.47 42.67, 121.76 52.45, 119.18 60.85 C116.61 69.24, 110.7 78.78, 103.98 84.95 C97.26 91.12, 88.32 95.32, 78.89 97.88 C69.45 100.44, 57.26 102.03, 47.36 100.31 C37.46 98.59, 27.07 93.2, 19.47 87.56 C11.87 81.92, 4.61 74.66, 1.77 66.49 C-1.07 58.32, 0.03 47.12, 2.44 38.53 C4.85 29.94, 9.39 21.07, 16.21 14.96 C23.04 8.85, 38.9 3.96, 43.39 1.89 C47.88 -0.17, 43.26 1.62, 43.16 2.57" stroke="#1864ab" stroke-width="1" fill="none"></path></g><g stroke-linecap="round" transform="translate(977.6608330798008 790.6022841199392) rotate(0 8.617137068579723 9.384165027409836)"><path d="M0 0 L17.23 0 L17.23 18.77 L0 18.77" stroke="none" stroke-width="0" fill="#fd7e14"></path><path d="M0 0 C4.95 0, 9.9 0, 17.23 0 M0 0 C3.96 0, 7.92 0, 17.23 0 M17.23 0 C17.23 4.71, 17.23 9.42, 17.23 18.77 M17.23 0 C17.23 5.91, 17.23 11.81, 17.23 18.77 M17.23 18.77 C13.22 18.77, 9.21 18.77, 0 18.77 M17.23 18.77 C12.14 18.77, 7.05 18.77, 0 18.77 M0 18.77 C0 14.06, 0 9.34, 0 0 M0 18.77 C0 12.86, 0 6.96, 0 0" stroke="#e67700" stroke-width="1" fill="none"></path></g><g stroke-linecap="round" transform="translate(962.5724877683715 824.6528751190071) rotate(0 8.617137068579723 9.384165027409836)"><path d="M0 0 L17.23 0 L17.23 18.77 L0 18.77" stroke="none" stroke-width="0" fill="#7950f2"></path><path d="M0 0 C3.61 0, 7.22 0, 17.23 0 M0 0 C6.23 0, 12.46 0, 17.23 0 M17.23 0 C17.23 6.43, 17.23 12.87, 17.23 18.77 M17.23 0 C17.23 7.3, 17.23 14.59, 17.23 18.77 M17.23 18.77 C10.43 18.77, 3.63 18.77, 0 18.77 M17.23 18.77 C12.83 18.77, 8.42 18.77, 0 18.77 M0 18.77 C0 14.78, 0 10.8, 0 0 M0 18.77 C0 11.54, 0 4.31, 0 0" stroke="#5f3dc4" stroke-width="1" fill="none"></path></g><g stroke-linecap="round" transform="translate(1017.3186465464787 814.8737599385586) rotate(0 8.617137068579723 9.384165027409836)"><path d="M0 0 L17.23 0 L17.23 18.77 L0 18.77" stroke="none" stroke-width="0" fill="#7950f2"></path><path d="M0 0 C6.09 0, 12.19 0, 17.23 0 M0 0 C3.46 0, 6.92 0, 17.23 0 M17.23 0 C17.23 6.32, 17.23 12.64, 17.23 18.77 M17.23 0 C17.23 7.51, 17.23 15.01, 17.23 18.77 M17.23 18.77 C13.21 18.77, 9.18 18.77, 0 18.77 M17.23 18.77 C13.22 18.77, 9.2 18.77, 0 18.77 M0 18.77 C0 12.65, 0 6.53, 0 0 M0 18.77 C0 14.69, 0 10.61, 0 0" stroke="#5f3dc4" stroke-width="1" fill="none"></path></g><g stroke-linecap="round"><g transform="translate(788.4614696850076 893.9674380305933) rotate(0 102.81233301479097 -13.180197940735525)"><path d="M0.89 -0.69 C54.86 -8.81, 109.16 -15.98, 206.37 -26.35 M-0.74 -0.01 C60.98 -6.82, 122.75 -15.1, 205.65 -24.26" stroke="#1864ab" stroke-width="1" fill="none"></path></g></g><mask></mask><g stroke-linecap="round"><g transform="translate(798.4855129119496 738.8187738499491) rotate(0 96.87677698894367 12.61304605820169)"><path d="M-0.77 -0.55 C59.74 5.3, 119.45 16.31, 192.18 25.77 M-0.01 -0.07 C50.8 9.15, 99.88 15.4, 194.53 25.29" stroke="#1864ab" stroke-width="1" fill="none"></path></g></g><mask></mask><g transform="translate(644.8608168833562 919.5876743754707) rotate(0 35.5 12.5)"><text x="35.5" y="18" font-family="Virgil, Segoe UI Emoji" font-size="20px" fill="#5f3dc4" text-anchor="middle" style="white-space: pre;" direction="ltr">#Violet</text></g><g transform="translate(736.067186311886 919.2729313638138) rotate(0 42.5 12.5)"><text x="42.5" y="18" font-family="Virgil, Segoe UI Emoji" font-size="20px" fill="#e67700" text-anchor="middle" style="white-space: pre;" direction="ltr">#Orange</text></g><g transform="translate(718.5447813113569 922.5316322565286) rotate(0 6 12.5)"><text x="6" y="18" font-family="Virgil, Segoe UI Emoji" font-size="20px" fill="#000000" text-anchor="middle" style="white-space: pre;" direction="ltr">/</text></g><g transform="translate(829.8585920801197 924.1960220043529) rotate(0 7 12.5)"><text x="7" y="18" font-family="Virgil, Segoe UI Emoji" font-size="20px" fill="#000000" text-anchor="middle" style="white-space: pre;" direction="ltr">=</text></g><g transform="translate(673.3188094167126 948.6346832255185) rotate(0 7.5 12.5)"><text x="7.5" y="18" font-family="Virgil, Segoe UI Emoji" font-size="20px" fill="#5f3dc4" text-anchor="middle" style="white-space: pre;" direction="ltr">6</text></g><g transform="translate(770.8239204228321 948.3199402138634) rotate(0 8 12.5)"><text x="8" y="18" font-family="Virgil, Segoe UI Emoji" font-size="20px" fill="#e67700" text-anchor="middle" style="white-space: pre;" direction="ltr">3</text></g><g transform="translate(718.8015154223049 951.5786411065783) rotate(0 6 12.5)"><text x="6" y="18" font-family="Virgil, Segoe UI Emoji" font-size="20px" fill="#000000" text-anchor="middle" style="white-space: pre;" direction="ltr">/</text></g><g transform="translate(830.1153261910677 953.243030854399) rotate(0 7 12.5)"><text x="7" y="18" font-family="Virgil, Segoe UI Emoji" font-size="20px" fill="#000000" text-anchor="middle" style="white-space: pre;" direction="ltr">=</text></g><g transform="translate(853.4353417400544 953.2894751057283) rotate(0 8 12.5)"><text x="8" y="18" font-family="Virgil, Segoe UI Emoji" font-size="20px" fill="#000000" text-anchor="middle" style="white-space: pre;" direction="ltr">2</text></g><g transform="translate(900.1615624977385 918.0608196131343) rotate(0 35.5 12.5)"><text x="35.5" y="18" font-family="Virgil, Segoe UI Emoji" font-size="20px" fill="#5f3dc4" text-anchor="middle" style="white-space: pre;" direction="ltr">#Violet</text></g><g transform="translate(991.3679319262701 917.7460766014756) rotate(0 42.5 12.5)"><text x="42.5" y="18" font-family="Virgil, Segoe UI Emoji" font-size="20px" fill="#e67700" text-anchor="middle" style="white-space: pre;" direction="ltr">#Orange</text></g><g transform="translate(973.8455269257429 921.0047774941904) rotate(0 6 12.5)"><text x="6" y="18" font-family="Virgil, Segoe UI Emoji" font-size="20px" fill="#000000" text-anchor="middle" style="white-space: pre;" direction="ltr">/</text></g><g transform="translate(1085.1593376945057 922.6691672420147) rotate(0 7 12.5)"><text x="7" y="18" font-family="Virgil, Segoe UI Emoji" font-size="20px" fill="#000000" text-anchor="middle" style="white-space: pre;" direction="ltr">=</text></g><g transform="translate(928.1195550310986 947.1078284631785) rotate(0 8 12.5)"><text x="8" y="18" font-family="Virgil, Segoe UI Emoji" font-size="20px" fill="#5f3dc4" text-anchor="middle" style="white-space: pre;" direction="ltr">2</text></g><g transform="translate(1030.6246660372162 946.7930854515271) rotate(0 3.5 12.5)"><text x="3.5" y="18" font-family="Virgil, Segoe UI Emoji" font-size="20px" fill="#e67700" text-anchor="middle" style="white-space: pre;" direction="ltr">1</text></g><g transform="translate(974.102261036689 950.0517863442419) rotate(0 6 12.5)"><text x="6" y="18" font-family="Virgil, Segoe UI Emoji" font-size="20px" fill="#000000" text-anchor="middle" style="white-space: pre;" direction="ltr">/</text></g><g transform="translate(1085.4160718054518 951.7161760920626) rotate(0 7 12.5)"><text x="7" y="18" font-family="Virgil, Segoe UI Emoji" font-size="20px" fill="#000000" text-anchor="middle" style="white-space: pre;" direction="ltr">=</text></g><g transform="translate(1108.7360873544385 951.7626203433883) rotate(0 8 12.5)"><text x="8" y="18" font-family="Virgil, Segoe UI Emoji" font-size="20px" fill="#000000" text-anchor="middle" style="white-space: pre;" direction="ltr">2</text></g><g stroke-linecap="round" transform="translate(847.428529611032 949.6539681242739) rotate(0 14.69186483608064 14.821521704364386)"><path d="M18.71 1.39 C21.52 1.8, 24.39 2.72, 26.02 5.31 C27.64 7.9, 28.63 13.6, 28.45 16.93 C28.27 20.27, 26.91 23.08, 24.95 25.33 C22.99 27.58, 19.69 30.28, 16.68 30.44 C13.67 30.6, 9.73 28.16, 6.9 26.3 C4.07 24.44, 0.74 22.21, -0.31 19.29 C-1.36 16.36, -0.8 11.89, 0.6 8.77 C2.01 5.65, 4.59 1.82, 8.11 0.56 C11.63 -0.7, 19.07 0.78, 21.71 1.19 C24.35 1.6, 24.06 2.79, 23.94 3 M11.19 0.36 C14.02 -0.6, 18.75 0.09, 21.86 1.73 C24.96 3.37, 28.95 7.05, 29.83 10.22 C30.71 13.38, 28.44 18.05, 27.16 20.72 C25.87 23.4, 24.78 24.66, 22.12 26.26 C19.46 27.86, 14.29 30.41, 11.19 30.31 C8.09 30.22, 5.44 28.39, 3.52 25.69 C1.6 22.99, -0.33 17.35, -0.33 14.1 C-0.33 10.84, 1.57 8.59, 3.52 6.18 C5.48 3.77, 10.2 0.51, 11.39 -0.37 C12.59 -1.24, 10.8 0.41, 10.7 0.94" stroke="#a61e4d" stroke-width="2" fill="none"></path></g><g stroke-linecap="round" transform="translate(1102.407469390002 948.6767036692927) rotate(0 14.69186483608064 14.821521704364386)"><path d="M9.91 1.47 C12.68 0.38, 16.45 -0.18, 19.48 0.87 C22.5 1.91, 26.55 4.96, 28.07 7.71 C29.6 10.47, 29.37 14.27, 28.62 17.41 C27.87 20.54, 26 24.38, 23.59 26.52 C21.18 28.65, 17.1 30.39, 14.15 30.22 C11.2 30.05, 8.34 27.67, 5.89 25.49 C3.43 23.31, 0.22 20.01, -0.56 17.14 C-1.34 14.28, -0.79 10.98, 1.21 8.32 C3.2 5.66, 9.29 2.42, 11.41 1.18 C13.53 -0.06, 13.93 0.81, 13.92 0.86 M9.53 0.28 C12.22 -1.21, 15.33 -1.2, 18.05 -0.32 C20.77 0.56, 23.83 3.02, 25.87 5.56 C27.91 8.1, 30.62 11.71, 30.3 14.93 C29.97 18.16, 26.47 22.41, 23.93 24.92 C21.39 27.43, 17.78 29.47, 15.07 30.01 C12.36 30.55, 9.97 29.85, 7.65 28.17 C5.32 26.5, 2.02 23.15, 1.1 19.94 C0.19 16.73, 1.1 12.06, 2.15 8.92 C3.19 5.77, 6.49 2.27, 7.37 1.07 C8.25 -0.12, 6.93 1.41, 7.45 1.75" stroke="#a61e4d" stroke-width="2" fill="none"></path></g><g stroke-linecap="round"><g transform="translate(870.1972969116105 978.7895552634) rotate(0 121.01400679970538 9.830047582828229)"><path d="M-0.63 -0.22 C19.86 3.25, 82.87 20.89, 123.42 21.04 C163.97 21.19, 222.91 4.11, 242.66 0.7 M1.23 -1.38 C21.63 1.75, 82.95 19.42, 123.06 19.43 C163.17 19.44, 222.09 2.22, 241.87 -1.31" stroke="#a61e4d" stroke-width="2" fill="none"></path></g></g><mask></mask><g transform="translate(352.3849931229761 1074.4873428362334) rotate(0 80 12.5)"><text x="80" y="18" font-family="Virgil, Segoe UI Emoji" font-size="20px" fill="#087f5b" text-anchor="middle" style="white-space: pre;" direction="ltr">Extremely simple</text></g><g transform="translate(231.93270231642055 1150.7122121910397) rotate(0 188.5 25)"><text x="188.5" y="18" font-family="Virgil, Segoe UI Emoji" font-size="20px" fill="#a61e4d" text-anchor="middle" style="white-space: pre;" direction="ltr">We may not select enough examples</text><text x="188.5" y="43" font-family="Virgil, Segoe UI Emoji" font-size="20px" fill="#a61e4d" text-anchor="middle" style="white-space: pre;" direction="ltr">with a particular property of interest</text></g><g transform="translate(682.3584664132122 1067.5738134735093) rotate(0 234 25)"><text x="234" y="18" font-family="Virgil, Segoe UI Emoji" font-size="20px" fill="#087f5b" text-anchor="middle" style="white-space: pre;" direction="ltr">Improves the representativeness of the sample</text><text x="234" y="43" font-family="Virgil, Segoe UI Emoji" font-size="20px" fill="#087f5b" text-anchor="middle" style="white-space: pre;" direction="ltr">by reducing its bias</text></g><g transform="translate(689.5017826653311 1165.189320150428) rotate(0 221.5 12.5)"><text x="221.5" y="18" font-family="Virgil, Segoe UI Emoji" font-size="20px" fill="#a61e4d" text-anchor="middle" style="white-space: pre;" direction="ltr">Properties of the dataset have to be clear</text></g><g transform="translate(126.87074179471165 1080.565861797415) rotate(0 23 12.5)"><text x="23" y="18" font-family="Virgil, Segoe UI Emoji" font-size="20px" fill="#087f5b" text-anchor="middle" style="white-space: pre;" direction="ltr">Pros</text></g><g transform="translate(125.64026339015436 1164.3692801252291) rotate(0 23 12.5)"><text x="23" y="18" font-family="Virgil, Segoe UI Emoji" font-size="20px" fill="#a61e4d" text-anchor="middle" style="white-space: pre;" direction="ltr">Cons</text></g><g stroke-linecap="round"><g transform="translate(635.7401407336274 1051.5968547324355) rotate(0 -0.9999060374193505 86.25210241493005)"><path d="M-0.17 -0.17 C-0.17 28.67, -0.55 144.83, -0.35 173.81 M-1.72 -1.3 C-1.88 27.14, -1.91 143.3, -1.48 172.15" stroke="#000000" stroke-width="1" fill="none"></path></g></g><mask></mask><g stroke-linecap="round"><g transform="translate(105.66165821686991 1137.2174662793823) rotate(0 531.864037573856 -0.44079519539445755)"><path d="M0.42 0.8 C177.53 0.91, 885.12 0.45, 1062.22 0.29 M-0.82 0.17 C176.72 -0.07, 887.37 -1.82, 1064.55 -1.69" stroke="#000000" stroke-width="1" fill="none"></path></g></g><mask></mask><g stroke-linecap="round"><g transform="translate(208.4889926333235 1046.846294506835) rotate(0 0.24869156801923964 86.16638379175856)"><path d="M-0.64 -0.94 C-0.53 28.09, 0.04 144.15, 0.14 173.28 M1.23 1.18 C1.23 29.92, -0.39 142.88, -0.73 171.33" stroke="#000000" stroke-width="1" fill="none"></path></g></g><mask></mask></svg>