<svg version="1.1" xmlns="http://www.w3.org/2000/svg" viewBox="0 0 1374.8385409262755 1170.0398435349916" width="4124.515622778827" height="3510.119530604975">
  <!-- svg-source:excalidraw -->
  
  <defs>
    <style class="style-fonts">
      @font-face {
        font-family: "Virgil";
        src: url("https://excalidraw.com/Virgil.woff2");
      }
      @font-face {
        font-family: "Cascadia";
        src: url("https://excalidraw.com/Cascadia.woff2");
      }
    </style>
  </defs>
  <rect x="0" y="0" width="1374.8385409262755" height="1170.0398435349916" fill="#ffffff"></rect><g stroke-linecap="round" transform="translate(10 10) rotate(0 130.5 23)"><path d="M0 0 C0 0, 0 0, 0 0 M0 0 C0 0, 0 0, 0 0 M1.32 7.03 C2.52 6.17, 3.81 2.2, 5.37 0.11 M0.53 6.97 C1.3 5.58, 2.28 3.22, 5.12 -0.4 M-2.37 10.01 C3.11 8.46, 5.52 2.1, 12.44 -0.03 M-0.99 12.04 C4.38 8.86, 6.53 2.57, 10.9 -0.3 M-0.12 18.34 C5.06 10.1, 6.73 9.1, 15.77 -3.23 M0.33 17.24 C6.48 9.44, 12.12 5.41, 14.13 0.86 M-0.91 24.71 C8.01 11.46, 15.33 4.67, 21.17 -3.57 M1.9 23.83 C7.63 13.86, 15.98 6.33, 20.57 -0.82 M-3.6 29.08 C10.17 22.98, 13.92 8.95, 23.41 -1.26 M-0.85 28.79 C4.19 25.39, 10.75 17.29, 28.04 -1.4 M-4.1 34.17 C8.93 24.38, 14.67 17.56, 32.53 -3.76 M-0.59 35.76 C8.99 29.16, 17.29 18.15, 30.19 -0.59 M0.81 44.47 C16.26 26.68, 25.71 6.67, 35.85 1.49 M-1.74 40.69 C11.77 29.83, 18.92 22.29, 37.92 -0.38 M3.56 48.2 C14.64 38.87, 18.39 21.81, 41.91 -1.71 M1.51 47.98 C9.47 36.58, 22.64 24.51, 43.26 0.24 M5.13 49.35 C17.79 34.3, 30.94 19.39, 50 0.98 M8.41 48.56 C24.73 27.24, 41.21 9.45, 48.73 -1.21 M8.68 47.96 C27.02 31.37, 35.91 15.08, 54.13 -2.39 M13.13 46.33 C24.98 33.19, 39.29 16.81, 51.25 -1.48 M18.04 43.29 C23.47 39.73, 34.5 25.17, 60.59 1.29 M19.19 47.5 C23.79 37.25, 32.42 28.41, 59.48 1.93 M19.31 49.61 C40.19 31.22, 50.41 11.34, 59.88 1.35 M20.84 46.44 C38.69 29.78, 55.73 10.23, 65.71 0.03 M24.81 47.45 C41.14 32.02, 49.99 18.8, 68.27 -1.35 M26.97 47.08 C39.52 33.67, 50.6 19.14, 67.24 1.8 M34.6 50.85 C45.21 24.88, 60.15 10.64, 75.74 -3.21 M34.47 48.3 C44.67 32.82, 56.8 18.84, 74.25 -0.51 M40.49 50.61 C45 36.71, 55.64 20.56, 79.53 -2.61 M40.11 45.27 C53.56 33.44, 63.05 16.48, 79.16 2.08 M43.55 49.53 C52.32 35.4, 62.44 23, 88.13 -0.68 M41.91 46.86 C55.19 36.15, 65.9 25.57, 84.53 0.56 M50.05 45.67 C58.19 32.05, 71.07 15.93, 90.76 1.98 M51.02 44.99 C66.77 29.42, 80.51 12.3, 88.43 1.4 M57.03 43.6 C66.14 28.47, 77.89 16.37, 93.39 -3.52 M53.09 48 C70.61 28.72, 86.32 8.98, 96.29 -0.16 M56.28 45.65 C74.19 26.12, 94.16 6.1, 104.22 0.99 M60.18 46.07 C70.8 34.39, 80.11 20.89, 102.31 1.33 M67.81 47.16 C75.78 36.57, 90.64 19.42, 105.71 -4.09 M64.05 48.54 C75.97 35.03, 85.02 24.25, 105.32 -1.14 M71.23 44.47 C78.55 32.34, 99.14 21.87, 112.03 -0.85 M71.48 46.06 C83.97 29.97, 98.21 16.88, 110.14 -1.63 M74.52 50.42 C82.19 36.48, 93.18 22.11, 116.49 2.14 M76.85 48.21 C83.7 35.33, 97.35 23.47, 114.82 0.84 M78.79 45.89 C94.96 30.84, 114.26 9.91, 120.21 1.29 M78.84 49.16 C92.35 37.35, 101.54 24.54, 123.29 -0.04 M89.66 43.72 C98.23 41.15, 102.62 29.83, 128.99 -2.44 M87.63 45.73 C101.61 27.51, 117.7 11.46, 126.02 -0.3 M94.73 44.05 C103.76 34.91, 108.47 26.17, 132.63 -3.63 M90.28 46.8 C102.41 35.14, 114.42 20.28, 131.22 0.48 M99.61 49.51 C116.29 27.61, 127.19 7.22, 138.39 2.95 M98.59 46.71 C104.85 34.93, 114.95 26.17, 138.25 0.53 M105.38 44.5 C108.93 38.39, 115.14 30.06, 143.04 -2.51 M102.51 46.57 C119.15 28.16, 134.95 9.71, 141.45 1.24 M104.63 50.4 C119.59 35.63, 129.76 22.73, 150.36 2.47 M105.99 47.71 C117.37 36.14, 123.5 26.2, 147.55 0.6 M114.93 48.87 C122.64 30.01, 143.58 17.99, 151.09 1.85 M112.35 49.01 C126.76 30.95, 140.05 13.45, 155.54 -1.5 M118.85 45.08 C133.57 32.56, 144.25 13.44, 156.48 0.39 M116.17 48.25 C128.38 35.29, 138.41 24.39, 158.02 2.16 M121.45 46.95 C137.49 33.71, 151.24 15.66, 162.27 -1.2 M124.65 47.58 C132.31 37.65, 141.75 29.99, 165.13 -0.55 M130.27 48.4 C134.84 34.34, 143.31 30.32, 166.19 -2.9 M129.5 46.77 C137.31 37.34, 144.96 25.47, 169.85 0.35 M132.87 48.63 C140.58 39.77, 154.62 28.76, 171.96 1.79 M132.31 48.69 C144.23 34.08, 153.65 23.73, 175.93 -1.78 M140.78 43.32 C153.84 32.24, 174.1 10.07, 182.81 -2.86 M140.43 48.63 C153.38 29.84, 166.16 15.88, 179.25 -0.73 M143.03 43.93 C149.86 33.7, 161.3 25.25, 189.43 0.42 M144.33 47.69 C159.36 31.86, 173.16 11.7, 187.69 -0.14 M150.14 44.93 C164.05 32.18, 174.25 18.72, 187.53 1.16 M149.49 46.16 C159.63 37.19, 170.45 26.13, 190.52 -0.05 M155.61 51.02 C165.83 33.01, 177.46 21.71, 197.8 0.39 M153.75 48.87 C169.3 29.96, 184.1 15.53, 198.25 0.39 M163.96 44.44 C173.04 37.97, 184.18 22.57, 203.43 -2.08 M159.24 46.61 C175.41 31.91, 186.94 13.91, 200.02 0.37 M168.18 44.17 C178.94 34.11, 182.9 31.76, 210.08 -0.45 M165.68 45.45 C176.73 34.99, 185.59 26.77, 207.48 -1.25 M169.77 49.19 C183.68 35.37, 195.57 15.12, 215.43 -3.66 M170.32 48.17 C183.27 34.12, 191.23 26.41, 212.17 -0.56 M180.19 49.77 C186.97 33.59, 197.58 25.26, 221.15 -4.15 M177.28 47.58 C187.8 33.2, 200.44 22.87, 217.35 0.8 M184.93 50.64 C192.26 29.17, 213.55 14.07, 226.37 1.43 M181.43 47.96 C192.43 36.81, 201.97 26.76, 223.44 1 M184.95 50.35 C201.66 35.93, 215.14 14.06, 231.76 3.39 M185.78 46.37 C194.71 36.53, 204.6 27.24, 227.86 -0.63 M192.05 49.14 C204.15 34.26, 208.55 26.95, 232.94 -1.65 M192.69 46.81 C207.3 29.82, 224.97 12.47, 234.39 1.84 M193.66 48.56 C210.95 34.51, 221.22 15.79, 239.89 -2.86 M196.49 45.84 C213.01 29.76, 225.94 15.7, 236.43 -1.03 M205.58 50.89 C212.05 38.49, 222.37 19.84, 241.7 0.37 M204.22 46.22 C212.94 35.43, 225.46 17.65, 245.62 -0.33 M211.38 43.17 C224.66 31.77, 240.41 14.02, 251.36 -2.09 M206.75 46.98 C223.26 28.82, 236.86 16.17, 248.51 0.78 M211.86 48.48 C228.24 35.96, 240.61 19.17, 253.1 0.89 M212.25 48.87 C229.94 30.69, 241.49 13.12, 253.79 1.17 M221.06 45.1 C235.84 27.27, 247.83 8.17, 259.9 -3.06 M217.99 47.68 C226.59 37.37, 238.19 25.8, 257.65 -0.83 M219.77 49.87 C238.56 35.05, 249.82 22.39, 259.49 -0.3 M223.75 47.64 C234.07 36.19, 240.73 27, 261.68 0.18 M231.52 45.35 C236.56 33.94, 248.06 20.12, 267.19 8.35 M227.68 46.79 C239.23 34.61, 251.87 22.05, 261.55 6.27 M236.07 47.15 C237.93 35.96, 248.88 30.42, 266.5 14.01 M235.71 46.36 C244.86 36.11, 256.5 20.89, 263.51 12.79 M237.44 47.09 C244.75 37.82, 257.02 25.39, 265.34 20.59 M241.38 48.11 C247.86 37.96, 255.94 26.02, 264.49 19.31 M241.39 48.54 C254.81 38.92, 260.09 30.03, 264.73 23.76 M243.23 47.76 C247.73 45.1, 253.91 37.79, 264.67 26.67 M251.37 49.46 C252.47 38.42, 260.05 35.87, 263.57 34.37 M248.78 48.27 C254.7 43.54, 259.26 36.35, 264.08 30.78 M254.8 46.76 C255.88 44.87, 260.51 40.97, 262.68 38.64 M255.52 46.27 C258.91 44.61, 259.34 41.74, 262.66 39.44" stroke="#228be6" stroke-width="0.5" fill="none"></path><path d="M-2.91 1.13 C82.74 -4.3, 158.44 -3.5, 262.97 -0.45 M1.58 0.89 C54.31 2.79, 110.56 3.16, 259.67 0.04 M260.93 1.58 C259.62 15.88, 257.66 23.92, 258.36 43.35 M262.49 0.85 C259.4 16.7, 262.37 30.78, 262.98 44.16 M262.96 45.1 C199.9 41.83, 137.55 40.23, -1.76 47.64 M262 46.42 C205.81 46.52, 147.82 47.2, 0.89 45.71 M2.53 49.48 C-0.92 31.5, -1.24 23.41, -1.55 3.55 M-0.35 46.89 C-1.68 34.21, -0.31 23.61, -1.59 2" stroke="#000000" stroke-width="1" fill="none"></path></g><g transform="translate(32.5 15) rotate(0 108 18)"><text x="108" y="25" font-family="Virgil, Segoe UI Emoji" font-size="28px" fill="#000000" text-anchor="middle" style="white-space: pre;" direction="ltr">Data Versioning</text></g><g stroke-linecap="round" transform="translate(12.187014653061851 56.08894938818412) rotate(0 676.3257631366068 551.9754470734038)"><path d="M0.58 -0.29 C507 -2, 1015.7 -2.02, 1351.94 0.58 M1352.21 0.14 C1357.12 265.1, 1356.36 529.56, 1352.54 1104.34 M1352.29 1104.49 C1011.27 1105.59, 670.88 1105.55, 0.18 1104 M-0.66 1104.71 C-2.76 709.34, -2.49 313.07, -0.5 -0.34" stroke="#000000" stroke-width="1.5" fill="none" stroke-dasharray="8 9"></path></g><g transform="translate(52.246038582168694 98.14512470751652) rotate(0 441 12.5)"><text x="0" y="18" font-family="Virgil, Segoe UI Emoji" font-size="20px" fill="#000000" text-anchor="start" style="white-space: pre;" direction="ltr">If data is held and updated in multiple places, we might need to keep track of versions.</text></g><g stroke-linecap="round"><g transform="translate(851.5704514086228 125.89767146413305) rotate(0 38.16204935312453 0.1587807662922387)"><path d="M-1.51 -0.23 C27.48 -0.27, 50.74 1.18, 77.11 1.16 M0.12 0.41 C27.03 -0.41, 55.58 -0.24, 77.83 -0.84" stroke="#e67700" stroke-width="2" fill="none"></path></g></g><mask></mask><g transform="translate(54.03871484552292 155.66486405319665) rotate(0 554 12.5)"><text x="0" y="18" font-family="Virgil, Segoe UI Emoji" font-size="20px" fill="#000000" text-anchor="start" style="white-space: pre;" direction="ltr">Data versioning can be implemented in several levels of complexity, from the most basic to the most elaborate.</text></g><g transform="translate(60.43789532385017 235.81096940249154) rotate(0 145.5 12.5)"><text x="0" y="18" font-family="Virgil, Segoe UI Emoji" font-size="20px" fill="#a61e4d" text-anchor="start" style="white-space: pre;" direction="ltr">Level 0: Data is Unversioned</text></g><g transform="translate(93.15162407679782 287.6757827283027) rotate(0 356 12.5)"><text x="0" y="18" font-family="Virgil, Segoe UI Emoji" font-size="20px" fill="#000000" text-anchor="start" style="white-space: pre;" direction="ltr">Data resides on a local file system, object storage, or in a database.</text></g><g transform="translate(95.607091469632 334.25825138880646) rotate(0 316 12.5)"><text x="0" y="18" font-family="Virgil, Segoe UI Emoji" font-size="20px" fill="#000000" text-anchor="start" style="white-space: pre;" direction="ltr">Simple but not effective, inability to make versioned deployment.</text></g><g stroke-linecap="round"><g transform="translate(353.08272463680987 365.94782644111456) rotate(0 179.59303863952937 -2.4312888715448935)"><path d="M-1.1 -0.88 C137.01 -1.37, 276.5 -3.36, 360.29 -3.69 M-0.58 0.32 C117.9 -3.84, 235.68 -4.9, 359.59 -5.18" stroke="#e67700" stroke-width="2" fill="none"></path></g></g><mask></mask><g transform="translate(68.39184662245498 427.19782601672523) rotate(0 294 12.5)"><text x="0" y="18" font-family="Virgil, Segoe UI Emoji" font-size="20px" fill="#a61e4d" text-anchor="start" style="white-space: pre;" direction="ltr">Level 1: Data is Versioned as a Snapshot at Training Time</text></g><g transform="translate(104.08961807075138 482.55188014527266) rotate(0 484.5 12.5)"><text x="0" y="18" font-family="Virgil, Segoe UI Emoji" font-size="20px" fill="#000000" text-anchor="start" style="white-space: pre;" direction="ltr">Data is versioned by storing, at training time, a snapshot of everything needed to train a model.</text></g><g transform="translate(107.09854664217892 535.8331301452699) rotate(0 360.5 12.5)"><text x="0" y="18" font-family="Virgil, Segoe UI Emoji" font-size="20px" fill="#000000" text-anchor="start" style="white-space: pre;" direction="ltr">It allows to version deployed models and get back to past performance.</text></g><g transform="translate(107.66662699932203 587.0273265738424) rotate(0 436 12.5)"><text x="0" y="18" font-family="Virgil, Segoe UI Emoji" font-size="20px" fill="#000000" text-anchor="start" style="white-space: pre;" direction="ltr">We should keep track of each version in some document, typically an Excel spreadsheet.</text></g><g transform="translate(995.8998859278945 543.3833533595553) rotate(0 106 12.5)"><text x="106" y="18" font-family="Virgil, Segoe UI Emoji" font-size="20px" fill="#000000" text-anchor="middle" style="white-space: pre;" direction="ltr">Location of snapshot</text></g><g transform="translate(1061.7414037850376 574.6891569309837) rotate(0 117 12.5)"><text x="117" y="18" font-family="Virgil, Segoe UI Emoji" font-size="20px" fill="#000000" text-anchor="middle" style="white-space: pre;" direction="ltr">Hyperparameters values</text></g><g transform="translate(1103.5282341421807 612.8476390738406) rotate(0 88.5 12.5)"><text x="88.5" y="18" font-family="Virgil, Segoe UI Emoji" font-size="20px" fill="#000000" text-anchor="middle" style="white-space: pre;" direction="ltr">Metadata needed</text></g><g stroke-linecap="round"><g transform="translate(987.0393948564652 592.473755145269) rotate(0 27.080036476148052 -10.382920572906642)"><path d="M-0.79 0.98 C8.32 -2.49, 45.81 -18.12, 54.95 -21.74 M1 0.44 C9.98 -2.72, 45.61 -16.29, 54.29 -20.11" stroke="#087f5b" stroke-width="1" fill="none"></path></g><g transform="translate(987.0393948564652 592.473755145269) rotate(0 27.080036476148052 -10.382920572906642)"><path d="M34.15 0.45 C40.02 -7.3, 48.7 -14.63, 53.61 -21.5 M31.85 0.27 C38.54 -7.66, 47.52 -13.13, 55.13 -20.56" stroke="#087f5b" stroke-width="1" fill="none"></path></g><g transform="translate(987.0393948564652 592.473755145269) rotate(0 27.080036476148052 -10.382920572906642)"><path d="M26.61 -18.13 C34.78 -19.81, 45.91 -21.12, 53.61 -21.5 M24.32 -18.32 C33.55 -20.14, 44.97 -19.56, 55.13 -20.56" stroke="#087f5b" stroke-width="1" fill="none"></path></g></g><mask></mask><g stroke-linecap="round"><g transform="translate(985.627564499322 603.3108087166984) rotate(0 34.08124583261451 -3.8675815034875995)"><path d="M-0.11 -0.63 C11.35 -2.17, 56.29 -7.86, 67.62 -9.39 M-1.62 1.65 C10.29 0.28, 57.79 -6.37, 69.78 -8.14" stroke="#087f5b" stroke-width="1" fill="none"></path></g><g transform="translate(985.627564499322 603.3108087166984) rotate(0 34.08124583261451 -3.8675815034875995)"><path d="M42.28 4.27 C47.96 1.75, 52.82 -1.6, 70.5 -7.87 M43.81 6.25 C50.82 1.39, 57.79 -2.88, 70.15 -7.51" stroke="#087f5b" stroke-width="1" fill="none"></path></g><g transform="translate(985.627564499322 603.3108087166984) rotate(0 34.08124583261451 -3.8675815034875995)"><path d="M39.37 -16.04 C45.64 -14.31, 51.11 -13.41, 70.5 -7.87 M40.9 -14.07 C48.67 -13.44, 56.42 -12.2, 70.15 -7.51" stroke="#087f5b" stroke-width="1" fill="none"></path></g></g><mask></mask><g stroke-linecap="round"><g transform="translate(991.2246627136083 610.4815676452699) rotate(0 49.61396608640007 5.679178560018499)"><path d="M-0.54 0.33 C15.89 2, 83.1 8.82, 99.77 10.62 M1.38 -0.54 C17.62 1.23, 82.95 9.74, 99.22 11.89" stroke="#087f5b" stroke-width="1" fill="none"></path></g><g transform="translate(991.2246627136083 610.4815676452699) rotate(0 49.61396608640007 5.679178560018499)"><path d="M70.5 19.69 C80.71 16.77, 93.12 15.17, 100.87 12.1 M70.54 17.55 C79.61 15.43, 89.92 13.18, 98.61 12.79" stroke="#087f5b" stroke-width="1" fill="none"></path></g><g transform="translate(991.2246627136083 610.4815676452699) rotate(0 49.61396608640007 5.679178560018499)"><path d="M73.16 -0.66 C82.42 4.49, 93.77 10.97, 100.87 12.1 M73.2 -2.8 C81.4 1.75, 90.84 6.15, 98.61 12.79" stroke="#087f5b" stroke-width="1" fill="none"></path></g></g><mask></mask><g transform="translate(108.39988592790542 642.4458533595562) rotate(0 418.5 12.5)"><text x="0" y="18" font-family="Virgil, Segoe UI Emoji" font-size="20px" fill="#000000" text-anchor="start" style="white-space: pre;" direction="ltr">Effective when we do not have many models and do not update them too frequently</text></g><g transform="translate(950.5583680707605 642.0273265738424) rotate(0 7 12.5)"><text x="7" y="18" font-family="Virgil, Segoe UI Emoji" font-size="20px" fill="#a61e4d" text-anchor="middle" style="white-space: pre;" direction="ltr">!!</text></g><g transform="translate(80.53381449933113 728.3442908595598) rotate(0 292.5 12.5)"><text x="0" y="18" font-family="Virgil, Segoe UI Emoji" font-size="20px" fill="#a61e4d" text-anchor="start" style="white-space: pre;" direction="ltr">Level 2: Both Data and Code are Versioned as one Asset</text></g><g transform="translate(120.03939485647606 783.0820140738451) rotate(0 534 12.5)"><text x="0" y="18" font-family="Virgil, Segoe UI Emoji" font-size="20px" fill="#000000" text-anchor="start" style="white-space: pre;" direction="ltr">Small data assets, such as dictionaries, gazetteers, and small datasets are stored jointly with the code.</text></g><g transform="translate(121.05278771361736 840.4871480024167) rotate(0 352.5 12.5)"><text x="0" y="18" font-family="Virgil, Segoe UI Emoji" font-size="20px" fill="#000000" text-anchor="start" style="white-space: pre;" direction="ltr">Large files are stored in object storage (S3 or GCS) with unique IDs.</text></g><g transform="translate(122.13984128504853 897.9201837167029) rotate(0 596 12.5)"><text x="0" y="18" font-family="Virgil, Segoe UI Emoji" font-size="20px" fill="#000000" text-anchor="start" style="white-space: pre;" direction="ltr">Tools like Git Large File Storage automatically replace large files while storing the file contents on the remote server.</text></g><g transform="translate(122.56841271357916 954.398978359568) rotate(0 459.5 12.5)"><text x="0" y="18" font-family="Virgil, Segoe UI Emoji" font-size="20px" fill="#000000" text-anchor="start" style="white-space: pre;" direction="ltr">The version of the dataset is defined by the git signatures of the code and the data file.</text></g><g stroke-linecap="round"><g transform="translate(580.8503740740471 983.1416511596835) rotate(0 73.63348449563364 -1.5300522496413578)"><path d="M1.85 0.8 C49.82 -3.04, 101.09 -0.58, 147.52 -3.86 M-0.25 0.19 C55.32 -2.01, 111.82 -1.83, 146.39 -3.05" stroke="#e67700" stroke-width="2" fill="none"></path></g></g><mask></mask><g transform="translate(88.11082342786176 1026.7204069309964) rotate(0 318 12.5)"><text x="0" y="18" font-family="Virgil, Segoe UI Emoji" font-size="20px" fill="#a61e4d" text-anchor="start" style="white-space: pre;" direction="ltr">Level 3: Using or Building a Specialized Data Versioning Solution</text></g><g transform="translate(129.04943949929475 1080.01281764528) rotate(0 498.5 12.5)"><text x="0" y="18" font-family="Virgil, Segoe UI Emoji" font-size="20px" fill="#000000" text-anchor="start" style="white-space: pre;" direction="ltr">Data versioning software, such as DVC and Pachyderm, provide additional tools for data versioning.</text></g><g transform="translate(693.101894856407 726.4413890738606) rotate(0 155.5 12.5)"><text x="155.5" y="18" font-family="Virgil, Segoe UI Emoji" font-size="20px" fill="#087f5b" text-anchor="middle" style="white-space: pre;" direction="ltr">Recommended for most projects</text></g><g transform="translate(758.1420734278345 1023.422415859578) rotate(0 217 12.5)"><text x="217" y="18" font-family="Virgil, Segoe UI Emoji" font-size="20px" fill="#087f5b" text-anchor="middle" style="white-space: pre;" direction="ltr">.. if Level 2 is not sufficient for our needs</text></g></svg>