<svg version="1.1" xmlns="http://www.w3.org/2000/svg" viewBox="0 0 1375.0659403602576 1000.8862148572407" width="4125.197821080773" height="3002.658644571722">
  <!-- svg-source:excalidraw -->
  
  <defs>
    <style class="style-fonts">
      @font-face {
        font-family: "Virgil";
        src: url("https://excalidraw.com/Virgil.woff2");
      }
      @font-face {
        font-family: "Cascadia";
        src: url("https://excalidraw.com/Cascadia.woff2");
      }
    </style>
  </defs>
  <rect x="0" y="0" width="1375.0659403602576" height="1000.8862148572407" fill="#ffffff"></rect><g stroke-linecap="round" transform="translate(10 208.31229128854102) rotate(0 154.5 23)"><path d="M0 0 C0 0, 0 0, 0 0 M0 0 C0 0, 0 0, 0 0 M-0.18 6.31 C0.8 5.95, 2.04 3.78, 5.45 1.86 M-0.41 5.65 C1.27 4.21, 3.59 3.56, 5.3 -0.01 M-2.5 15.18 C4.7 10.85, 9.81 3.64, 10.86 0.84 M0.12 12.39 C5.19 8.5, 8.62 2.63, 10.74 -0.68 M3.79 16.59 C2.78 13.93, 11.18 6.23, 19.3 -2.63 M-1.74 16.73 C4.78 13.62, 12.24 7.26, 17.06 1.23 M2.84 22.9 C9.4 17.51, 12.33 9.95, 20.6 -3.32 M1.91 25.4 C6.09 17.55, 12.39 9.8, 23.14 1.38 M2.69 27.52 C12.16 22.46, 13.23 14.26, 22.78 -3.64 M-0.06 32.25 C4.98 23.46, 15.16 16.65, 28.24 0.99 M3.26 35.56 C7.44 27.35, 20.46 12.39, 33.66 -2.48 M-1.44 35.41 C10.04 24.68, 24.48 11.05, 33.63 1.06 M1.72 42.9 C15.78 31.48, 23.86 14.07, 39.68 3.03 M-0.65 43.61 C11.48 27.94, 22.96 14.77, 37.28 0.23 M-0.19 44.89 C19.19 29.23, 32.62 13.99, 43.15 3.5 M2.64 49.01 C15.79 31.75, 30.47 13.86, 43.21 0.74 M8.48 47.13 C18.4 25.89, 38.96 15.21, 49.03 -0.69 M8.04 45.8 C20.71 28.8, 35.53 12.72, 48.14 -1.52 M10.75 48.52 C25.46 36.77, 33.26 18.34, 54.14 2.56 M13.37 45.43 C23 30.49, 38.34 17.74, 54.84 0.95 M17.44 47.16 C31.11 32.13, 36.43 22.45, 57.92 3.13 M18.35 46.37 C34.1 31.77, 44.28 14.73, 58.79 1.28 M25.98 50.94 C33.24 33.28, 52.72 14.74, 67.69 2.64 M23.5 48.77 C31.36 37, 39.17 27.04, 65.5 0.22 M25.7 47.47 C45.74 30.49, 59.47 10.66, 69.39 -3.55 M27.31 48.37 C38.15 34.75, 47.03 23, 69.2 0.15 M32.55 50.11 C43.83 37.89, 51.78 25.06, 72.86 -0.33 M33.02 46.57 C43.39 36.3, 51.65 30.14, 74.15 -0.92 M38.34 43.97 C49.23 34.17, 52.71 29.84, 82.52 -2.81 M37.89 48.34 C48.78 37.99, 57.87 26.86, 81.34 0.64 M45.52 47.94 C52.47 29.99, 70.07 22.12, 86.71 1.6 M43.9 48.35 C61.11 27.48, 74.08 8.73, 85.77 0.07 M48.41 44.63 C62.09 33.35, 70.9 16.83, 92.37 3.29 M51.05 48.81 C61.07 32.33, 73.94 18.93, 91.17 -1.74 M51.95 50.39 C72.55 31.91, 88.71 13.46, 98.31 -3.64 M56.09 45.64 C64.13 33.05, 77.46 21.21, 95.31 -0.29 M60.97 45.36 C67.5 31.59, 78.92 20, 97.99 0.69 M61.77 46.31 C77.21 28.13, 91.44 11.97, 100.67 -1.45 M66.91 43.39 C78.67 35.56, 85.93 20.94, 108.73 -0.11 M63.58 47.98 C76.62 36.93, 86.51 24.6, 107.76 0.53 M68.44 46.86 C87.28 33.8, 100.95 16, 110.46 3.33 M70.36 48.13 C83.42 31.73, 98.78 15.19, 109.81 1.05 M77.47 48.88 C84.83 36.62, 100.05 21.15, 114.35 0.88 M74.32 46.89 C90.98 30.07, 105.58 13.46, 117.42 -0.17 M77.19 43.57 C93.15 36.13, 97.81 22.45, 120.82 -2.85 M81.1 49.28 C90.86 36.79, 100.75 23.92, 120.55 -0.73 M82.68 44.79 C101.82 34.56, 113.83 19.1, 125.57 -2.24 M86.3 47.91 C100.94 29.36, 116.57 9.82, 126.57 -1.37 M87.62 44.17 C101.65 29.14, 120.81 15.99, 132.16 -3.93 M90.3 49.05 C106.45 29.08, 122.91 11.85, 132.85 0.77 M93.6 45.07 C115.34 32.81, 128.79 10.12, 138.79 3.22 M95.47 46.57 C106.75 37.44, 115.58 25.27, 137.53 2.2 M104.8 44.6 C117.37 35.78, 123.94 16.68, 143.52 2.05 M100.93 47.98 C113.47 37.32, 121.95 25.2, 144.7 -0.95 M109.3 43.64 C121.96 32.97, 137.41 8.23, 147.06 1.19 M107.8 48.41 C116.13 37.82, 126.64 24.7, 147.26 1.08 M113.79 44.8 C118.71 39.39, 127.67 29.18, 149.97 -2.99 M113.96 48.6 C123.72 35.64, 132.33 24.83, 152.06 1.67 M116.84 46.45 C131.54 30.3, 149.52 8.42, 155.46 3.63 M119.27 48.94 C129.76 30.59, 142.4 16.97, 158.74 -0.19 M119.65 48.71 C133.16 34.44, 141.69 24.51, 166.58 -1.1 M124.36 47.43 C135.11 32.09, 145.9 17.27, 164.9 -1.86 M131.29 47.44 C146.79 32.78, 155.73 15.08, 173.04 2.45 M127.85 45.71 C136.81 36.97, 147.95 28.76, 168.92 0.91 M131.45 48.26 C146.85 28.1, 161.95 8.69, 172.4 -2.35 M133.1 47.02 C146.26 32.64, 159.11 19.75, 175.18 0 M139.7 44.53 C155.44 29.29, 167.73 16.82, 180.87 1.61 M137.49 46.24 C146.24 39.06, 156.49 28.23, 180.79 0.91 M146.24 47.39 C156.64 27.49, 174.96 16.42, 182.5 3.2 M143.14 47.88 C157.61 31.82, 170.65 15.77, 184.88 0.78 M149.14 47.68 C162.08 34.18, 178.01 16.42, 188 1.04 M150.18 48.06 C163.35 31.1, 173.39 17.72, 191.32 -1.64 M157.09 46.04 C163.04 39.97, 175.3 28.36, 199.94 -2.51 M155.46 48.55 C164 37.95, 173.18 28.91, 197.97 0.01 M162.67 46.82 C166.67 37.96, 178.53 28.1, 199.51 -3.33 M161.87 46.72 C174.71 28.43, 189.17 13.34, 199.45 1.76 M169.07 48.14 C179.42 35.96, 190.55 23.52, 207.79 -1.55 M165.03 45.57 C179.65 36.06, 191.42 19.66, 208.4 -0.77 M171.36 43.88 C181.94 28, 202.03 18.3, 208.46 -3.55 M170.55 47.73 C185.87 28.4, 201.45 12.53, 210.18 1.67 M175.23 45.64 C191.94 30.68, 200.66 15.92, 217.1 -3.97 M176.8 45.46 C189.67 30.46, 208.32 11.58, 216.16 -2.04 M178.26 44.8 C195.35 37.52, 203.68 22.68, 219.9 -3.69 M180.16 46.63 C197.4 28.99, 214.9 8.7, 222.46 -1.39 M188.64 50.47 C193.63 39.23, 204.35 24.27, 226.94 0.15 M185.76 48.75 C195.51 38.71, 203.01 26.24, 227.21 -2.27 M189.78 44.28 C199.52 32.33, 212.47 24.55, 234.9 -3.82 M192.04 45.7 C206.46 28.9, 222.98 12.36, 233.27 -0.9 M194.35 46.57 C206.79 35.66, 218.04 18.64, 239.71 1.52 M196.86 45.98 C212.98 30.68, 229.94 11, 236.86 -1.16 M202.3 46.74 C216.93 31.92, 234.35 12.86, 242.52 0.01 M203.46 46.97 C214.21 36.11, 222.23 24.93, 245.57 -0.31 M205.44 45.88 C214.97 32.99, 231.36 23.18, 247.79 0.55 M209.09 45.68 C221.65 33.33, 230.47 19.18, 248.4 1.3 M214.22 46.87 C223.83 35.24, 241.61 14.86, 251.83 -0.26 M211.74 48.73 C226.3 27.96, 243.15 12.56, 256.33 -1.09 M214.96 48.33 C232.13 37.16, 244.09 17.42, 261.59 3.95 M219.4 46.37 C230.86 34.22, 244.11 17.51, 261.13 1.4 M220.61 50.62 C240 32.78, 254.02 20.72, 267.89 -0.7 M224.83 46.5 C230.57 37.31, 240.91 28, 264.53 1.27 M227.98 49.86 C245.47 29.79, 257.41 17.03, 272.17 -2.35 M230.77 48.6 C242.54 29.31, 258.84 12.41, 269.03 0.67 M236.53 43.91 C244.11 32.59, 254.13 26.94, 275.75 -1.38 M232.71 45.81 C249.35 30.56, 262.69 17.24, 275.12 1.33 M237.56 50.4 C255.35 34, 265.5 19.89, 282.58 3.59 M240.16 46.88 C249.74 32.45, 261.63 20.83, 280.06 -1.36 M241.03 48.7 C256.19 28.32, 278.24 9.37, 288.49 1.65 M243.36 46.2 C254.47 34.92, 263.67 23.38, 287.09 -0.4 M248.76 45.91 C256.98 33.01, 269.54 27.31, 291.9 -0.3 M250.55 45.76 C258.27 39, 268.46 27.2, 292.2 0.84 M257.19 50.91 C262.39 37.41, 275.82 24.91, 299.16 0.33 M254.73 49.2 C269.91 31.28, 280.41 16.4, 297.39 -1.38 M262.65 44.3 C272.59 29.6, 293.89 14.1, 303.19 -0.08 M262.9 47.76 C277.72 29.69, 291.12 12.67, 301.4 -1.19 M264.07 48.48 C275 32.95, 291.72 19.33, 304.83 -1.42 M266.8 46.34 C284.21 27.82, 297.33 9.35, 308.99 -1.08 M268.28 49.53 C284.99 32.58, 294.6 18.31, 314.19 -0.3 M272.18 45.42 C283.27 33.99, 294.18 24.26, 312.34 3.58 M276.72 43.35 C284.52 37.85, 293.99 23.84, 307.34 4.66 M277.53 47.15 C286.58 36.84, 297.43 26.44, 311.66 7.33 M282.72 45.53 C296.82 34.35, 305 16.39, 312.1 14.04 M283.36 45.26 C291.04 35.91, 304.89 20.73, 313.1 11.75 M290.22 49.46 C297.81 42.42, 299.05 34.65, 307.69 17.97 M286.9 47.16 C291.59 41.71, 297.33 35.04, 312.29 19.86 M295.04 44.23 C301.12 42.17, 300 34.95, 312.51 27.05 M291.41 47.82 C300.8 38.12, 304.48 32.42, 310.18 27.03 M295.62 44.74 C305.71 37.61, 307.09 32.89, 310.23 34.67 M296.87 47.9 C300.32 41.33, 305.53 38.84, 311.13 31.26 M304.64 46.82 C302.89 44.85, 308.87 42.16, 311.49 36.51 M304.05 48.05 C306.08 45.08, 307.74 42.41, 312.13 39.06" stroke="#228be6" stroke-width="0.5" fill="none"></path><path d="M2.2 1.31 C120.04 3.77, 241.63 1.49, 309.53 1.4 M-1.16 -1.13 C114.1 3.96, 229.32 3.34, 308.95 1.39 M310.72 0.85 C308.62 15.83, 312.2 28.45, 307.9 44.64 M309.55 -0.41 C308.71 11.06, 307.98 26.19, 310.21 47.12 M310.45 46.98 C228.53 49.85, 150.63 51.3, -2.84 44.3 M309.95 45.66 C202.02 47.51, 96.34 48.37, 0.81 45.26 M-1.51 47.99 C0.06 30.17, -0.78 19.35, 1.92 2.27 M-1.33 44.73 C0.78 34.2, -0.47 25.27, 0.02 -0.35" stroke="#000000" stroke-width="1" fill="none"></path></g><g transform="translate(32 213.31229128854102) rotate(0 132.5 18)"><text x="132.5" y="25" font-family="Virgil, Segoe UI Emoji" font-size="28px" fill="#000000" text-anchor="middle" style="white-space: pre;" direction="ltr">Supervised Learning</text></g><g stroke-linecap="round" transform="translate(12.414414087043042 254.71266382129033) rotate(0 676.3257631366073 368.0867755179752)"><path d="M-0.73 1.02 C346.34 -5.17, 694.18 -4.14, 1353.79 -0.52 M1351.89 -0.44 C1347.63 147.58, 1347.85 298.97, 1353.41 736.37 M1352.45 736.11 C868.76 737.06, 381.96 737.93, -0.53 736.59 M-0.43 735.2 C-2.61 528.38, -0.64 318.86, -0.74 -0.93" stroke="#000000" stroke-width="1.5" fill="none" stroke-dasharray="8 9"></path></g><g stroke-linecap="round" transform="translate(13.85714706739418 10) rotate(0 217 53)"><path d="M0 0 C0 0, 0 0, 0 0 M0 0 C0 0, 0 0, 0 0 M0.19 6.86 C2.66 4.59, 2 2.57, 4.69 -1.14 M0.43 6.71 C0.97 5.14, 2.89 2.01, 4.33 1.15 M0.61 12.27 C4.12 10.78, 6.07 2.02, 10.61 0.66 M-0.13 12.15 C3.14 7.71, 7.38 4.51, 12.2 -0.77 M-1.05 22.12 C0.76 16.07, 10.99 6.25, 12.4 -3.1 M1.43 19.88 C4.9 11.85, 6.7 9.56, 16.9 -0.27 M-2.26 23.42 C5.39 14.64, 20.58 6.7, 24.55 2.57 M1.04 25.96 C7.55 17.69, 13.06 9.28, 22.6 -1.55 M3.37 27.02 C6.19 17.37, 20.92 3.7, 26.11 3.83 M1.31 32.48 C6.2 24.03, 10.21 16.71, 28.01 -0.37 M-1.11 38.65 C4.21 31.24, 14.41 23.33, 29.51 -3.05 M1.53 38.61 C7.63 28.28, 13.35 18.2, 32.68 0.09 M-1.94 45.32 C16.98 26.66, 30.32 9.89, 35.31 2.44 M-0.38 42.93 C11.35 31.9, 21.16 18.12, 36.19 -1 M3.44 49.55 C17.8 34.15, 28.59 13.97, 45.43 3.05 M-1.86 49.6 C14.8 33.61, 29.1 15.45, 43.35 -0.08 M2.96 56.09 C11.07 44.64, 21.47 30.03, 49.93 -2.2 M0.9 55.2 C9.48 42.84, 22.08 29.18, 46.98 0.79 M-3.34 61.95 C21.13 39.58, 37.35 21.16, 56.24 -4.06 M-0.28 62.65 C14.83 45.39, 27.62 29.21, 53.14 -0.08 M1.34 67.14 C24.7 45.56, 39.07 18.52, 59.92 -1.03 M-0.98 68.01 C23.66 42.64, 45.45 15.52, 59.9 1.99 M0.5 76.91 C15.46 54.26, 28.38 42.36, 65.89 2.66 M1.82 74.72 C19.07 53.51, 39.36 31.85, 62.59 0.05 M-1.54 80.02 C22.45 45.68, 54.05 20.21, 67.2 3.01 M-0.17 79.83 C21.24 54.13, 42.51 32.16, 68.5 1.55 M0.89 83.49 C23.3 53.65, 44.59 28.65, 74.3 -1.72 M1.97 84.78 C28.18 50.97, 57.65 20.67, 74.22 -1.71 M1.59 94.56 C28.5 54.95, 63.22 24.05, 77.73 2.99 M1.19 93.38 C28.08 56.86, 57.79 24.41, 80.3 0.46 M3.1 99.51 C22.36 78.21, 42 54.96, 85.42 1.87 M-0.96 98.56 C33.58 61.29, 64.94 24.72, 84.57 -1.4 M-1.31 105.82 C29.73 74.03, 52.11 40.52, 93.42 3.96 M-0.35 104.63 C23.03 77.91, 46.48 50.43, 88.83 1.66 M4.37 110.26 C29.03 68.69, 63.96 30.1, 99.18 -3.51 M1.83 107.25 C22.81 84.43, 42.83 64.47, 96.17 -1.05 M4.24 105.31 C31.39 86.62, 56.18 54.51, 104.23 -1.01 M8.3 107.99 C43.37 63.63, 81.2 24.35, 101.63 -1.85 M8.53 110 C50.22 61.14, 86.34 16.94, 103.52 1.2 M11.8 109.03 C48.42 66.59, 83.67 22.99, 105.54 -0.69 M19.55 107.11 C53.93 68.9, 84.31 27.01, 112.09 1.14 M17.03 106.46 C43.38 78.39, 66.37 51.15, 112.22 0.87 M24.98 105.62 C42.41 85.43, 61.14 60.02, 113.73 -0.18 M21.94 108.68 C55.67 67.6, 87.04 33.11, 114.58 -1.6 M24.63 106.81 C59.92 67.35, 95.9 28.01, 122.94 3.48 M28.46 106.53 C51.62 80.34, 75.97 49.79, 120.14 -1.19 M35.68 106.17 C61.64 74.11, 96 32.81, 127.04 1.9 M31.78 107.17 C56.67 80.83, 82.46 52.59, 125.11 -1.32 M39.42 107.48 C55.73 87.42, 81.12 63.51, 130.71 3.07 M39.09 108.18 C68.76 74.88, 96.14 41.64, 130.92 -1.07 M42.55 108.73 C80.54 63.01, 114.5 25.46, 134.75 -0.74 M42.85 107.47 C80.41 66.34, 112.84 28.17, 139.01 -1.12 M47.86 108.18 C84.79 65.74, 114.12 24.73, 141.35 0.96 M47.48 109.36 C84.37 67.73, 119.31 25.58, 144.08 -1.8 M51.53 106.34 C78.37 77.36, 99.08 53.07, 148.79 2.96 M54.68 106.53 C74.79 81.99, 95.01 59.08, 148.82 -1.04 M61.87 103.97 C78.16 80.55, 101.46 55.15, 156.78 2.23 M58.15 106.05 C99.13 68.05, 131.61 26.72, 153.17 -0.41 M64.56 104.07 C88.23 84.65, 105.92 64.86, 161.1 4.06 M64.82 107.35 C91.99 78.12, 117.9 48.61, 157.07 0.9 M73.4 109.91 C95.27 80.72, 125.28 50.23, 166.95 -0.07 M69.63 108.23 C98.6 77.82, 129.47 44.23, 165.71 0.06 M79.58 110.98 C111.72 64.69, 142.42 25.06, 167.62 -2.38 M76.77 106.87 C101.94 79.69, 127.05 49.68, 168.28 0.65 M78.39 105.06 C104.04 81.05, 126.56 54.9, 173.8 -0.87 M82.45 107.85 C106.21 80.83, 132.56 52.26, 175.23 -1.4 M90.52 108.15 C122.31 65.26, 157.27 27.48, 176.28 -1.28 M88.09 108.08 C107.27 83.1, 128.57 58.5, 180.99 0.2 M92.78 104.5 C122.73 77.85, 140.7 47.18, 183.25 0.89 M91.14 106.88 C115.87 82.83, 137.63 57.74, 185.26 0.15 M95.33 104.62 C125.34 74.16, 153.59 44.36, 191.02 2.41 M98.29 107.93 C128.35 70.71, 163.66 34.53, 191.73 -0.49 M104.49 111.28 C125.69 71.84, 157.89 44.32, 197.26 2.27 M104.24 109.3 C134.67 67.63, 168.01 30.85, 197.34 -0.3 M111.93 105.47 C123.54 87.78, 146.58 59.23, 203.78 -0.25 M108.92 105.41 C133.95 82.33, 155.36 56.24, 203.04 0.55 M113.47 108.46 C147.8 63.57, 182.18 20.63, 205.76 -3.66 M112.28 109.07 C145.75 66.53, 182.93 25.65, 207 -1.78 M121.62 104.5 C138.32 83.29, 163.61 57.53, 210.5 1.8 M118.84 106.22 C146.02 79.17, 169.24 48.3, 211.43 -0.72 M123.66 107.1 C152.68 75.34, 190.22 36.51, 218.68 -3.85 M123.78 106.16 C141.77 80.7, 164.53 59.25, 215.77 -1.34 M127.64 105.28 C160.61 67.56, 199.87 25.52, 219.11 -0.36 M126.9 107.84 C153.5 74.21, 182.77 45.33, 223.45 1.68 M134.99 106.28 C154.23 79.95, 173.1 62.49, 225.96 2.77 M133.28 106.55 C157.84 76.93, 188.29 44.47, 227.17 -2 M143.27 109.61 C156.25 89.92, 178.92 61.46, 233.55 -3.69 M139.97 107.98 C161.33 83.35, 183.22 57.63, 231.62 -0.29 M143.4 109.04 C166.4 88.69, 187.19 57, 236.89 -1.98 M145.31 106.19 C167.68 78.41, 194.46 46.23, 238.09 -0.03 M146.45 106.57 C179.35 70.73, 207.65 40.1, 245.75 -1.11 M151.59 109.62 C182.31 70.15, 217.69 30.93, 242.48 -0.66 M156.83 106.46 C176.64 83.4, 194.66 60.82, 250.7 -2.55 M154.4 107.06 C192.22 68.94, 225.88 27.59, 249.37 0.02 M159.12 105.22 C179.62 85.98, 201.37 62.51, 251.67 2.43 M161.29 109.72 C180.66 85.34, 203.04 61.69, 252.56 0.55 M163.22 109.59 C201.86 67.46, 230.72 32.6, 260.7 -1.13 M165.08 109.13 C192.78 75.53, 218.6 45.09, 257.88 1.88 M175.21 110.61 C205.37 61.62, 242.39 22.61, 267.23 -1.99 M170.59 107.25 C195.93 82.4, 215.9 56.01, 264.38 1.3 M178.5 109.5 C207.55 72.11, 240.73 36.24, 272.81 3.36 M175.89 106.37 C198.47 82.43, 219.18 58.71, 271.15 -1.49 M184.66 107.81 C209.99 77.89, 241.7 41.74, 272.37 -3.33 M183.04 107.18 C221.57 64.89, 255.87 24.01, 274.49 1.55 M190.61 109.26 C222.48 69.13, 255.91 30.58, 280.96 -0.04 M187.35 106.73 C212.04 81.3, 238.59 50.55, 278.72 0.88 M189.42 109.88 C214.41 82.32, 235.46 64.98, 283.02 -2.51 M192.15 108.48 C222.39 72.63, 253.78 40.44, 285.4 -0.71 M199.49 107.91 C222.78 76.32, 242.88 52.67, 291.11 -2.25 M198 108.2 C216.48 83.79, 236 62.89, 292.11 1.97 M203.41 109.88 C224.61 82.4, 243.55 60.14, 295.14 3.52 M201.47 108.11 C237.35 70.26, 272.29 29.35, 297.66 -1.53 M209.08 108.54 C229.21 85.19, 248.87 57.08, 305.17 1.79 M208.37 106.75 C242.33 67.86, 276.78 26.69, 300.87 0.74 M212.57 104.89 C232.62 88.58, 251.71 62.42, 308.64 -2.17 M212.52 109.05 C250.03 68.01, 287.75 26.32, 305.79 1.07 M219.31 110.19 C248.24 71.81, 281.46 33.7, 313.1 -2.86 M220.98 108.33 C253.64 70.6, 282.56 35.09, 312.51 -1.84 M222.85 103.95 C243.8 80.59, 271.2 51.87, 319.48 -0.52 M224.83 108.27 C253.56 73.68, 283.45 37.72, 318.33 -0.95 M226.12 107.93 C263.95 71.13, 297.93 31.4, 324.84 -3.14 M228.37 108.92 C245.49 83.41, 264.58 61.91, 324.57 1.19 M236.18 104.14 C268.94 63.31, 309.27 20.51, 327.59 -0.47 M235.94 108.73 C254.6 83.44, 273.59 63.48, 329.8 -1.62 M236.8 109.58 C278.13 67.68, 317.45 24.22, 330.3 2.02 M240.42 107.25 C277.18 69.84, 310.53 28.75, 332.59 -1.18 M242.5 106.51 C284.51 67.63, 318.76 26.73, 336.9 1.06 M245.37 107.4 C269.34 80.01, 291.31 55.31, 340.74 -0.96 M248.58 108.69 C267.52 83.33, 289.3 64.71, 347.45 1.67 M250.97 109.77 C284.09 69.18, 315.53 30.21, 346.08 2 M259.74 108.12 C290.85 64.89, 331.01 23.72, 346.7 3.86 M254.66 107.26 C280.89 81.53, 300.34 56.88, 349.02 -0.26 M260.76 105.08 C283.14 79.2, 311.47 52.29, 358.2 -3.12 M261.89 107.2 C290.65 70.43, 321.77 34.74, 356.6 -0.3 M269.84 110.05 C304.04 68.06, 341.69 29.79, 362.24 1.5 M267.34 109.26 C293.42 73.45, 325.99 42.35, 360.49 -1.05 M269.27 109.81 C301.56 70.58, 341.54 32.36, 364.51 0.71 M273.72 107.52 C289.52 86.22, 307.4 62.92, 365.65 -1.1 M274.74 109.35 C314.25 70.07, 353.25 25.3, 366.8 1.79 M276.95 108.39 C315.31 66.87, 349.39 28.23, 369.02 -0.62 M282.05 105.94 C313.62 66.87, 344.79 33.65, 380.3 -1.77 M280.98 108.69 C315.82 64.12, 351.88 24.32, 376.79 0.56 M288.38 107.08 C320.49 76.43, 351.81 37.63, 380.31 -0.2 M287 105.6 C323.16 68.76, 353.32 36.04, 383.14 1.01 M295.04 104.54 C314.64 85.29, 340.33 57.9, 383.51 2.5 M292.21 106.68 C328.67 71.7, 358.31 33.64, 387.53 -0.35 M296.69 108.31 C321.19 83.51, 340.31 66.31, 394.72 2.59 M299.04 107.86 C323.56 80.06, 347.9 50.52, 393.39 1.81 M300.16 104.66 C332.99 76.55, 352.47 47.97, 396.09 -1.43 M301.93 107.46 C332.42 77.84, 360.64 43.36, 397.41 1.15 M305.62 106.1 C348.89 66.24, 383.71 25.26, 405.95 -2.78 M308.59 108.15 C336.33 78.87, 361.75 46.86, 404.29 1.74 M317.37 109.38 C340.91 83.2, 358.5 52.54, 411.97 -0.48 M314.69 107 C350.5 70.11, 382.54 31.41, 407.96 0.01 M317.1 105.51 C341.85 77.28, 368.84 50.6, 413.96 -1.25 M321.18 105.44 C345.73 79.57, 372.02 52.68, 414.37 -1.23 M322.6 109.75 C348.64 85.55, 369.84 57.64, 421.09 -1.6 M325.01 107.27 C353.72 75.82, 382.9 43.86, 418.71 1.21 M329.06 107.61 C371.54 65.85, 410.21 25.12, 422.67 2.24 M332.36 108.68 C362.97 72.24, 394.77 31.16, 424.17 0.88 M335.79 108.84 C354.55 84.82, 376.65 65.02, 433.38 0.28 M337.42 108.24 C357.82 82.79, 381.72 54.89, 431.2 -0.29 M343.45 109.45 C374.55 67.46, 411.65 22.35, 432.02 -1.23 M339.64 108.86 C376.62 67, 415.43 25.65, 436.23 2.02 M348.86 105.71 C367.98 82.7, 388.06 59.75, 432.88 5.01 M346.45 107.87 C380.95 73.56, 412.6 33.12, 435.04 7.28 M349.55 104.86 C384.98 70.92, 417.41 35.7, 435.46 11.46 M349.9 107.7 C379.48 79.66, 405.84 46.13, 436.56 10.25 M357.77 111.41 C382.25 76.92, 404.22 49.19, 430.83 16.14 M356.64 106.14 C385.18 75.09, 412.64 38.67, 433.09 17.38 M358.6 105.38 C389.25 79.86, 413.61 52.24, 434.77 28.06 M361.99 106.64 C376.75 91.91, 391.91 76.13, 433.55 24.22 M370.45 109.02 C387.84 86.63, 408.97 60.41, 437.78 29.46 M366.52 109.01 C388.63 86.84, 403.54 66.74, 433.47 29.69 M375.88 104.84 C392.64 82.31, 411.18 63.02, 435.18 34.12 M370.78 107.43 C394.17 79.54, 418.11 53.13, 433.04 38.37 M374.83 109.6 C390.84 96.85, 403.66 83, 431.65 42.03 M376.61 108.45 C398.68 85.16, 416.14 63.14, 433.7 43.18 M379.35 108.3 C394.14 96.89, 406.01 81.32, 435.99 45.46 M381.81 109.02 C398.67 89.42, 412.62 72.43, 432.9 47.44 M386.86 104.2 C399.35 94.31, 414.24 83.45, 433.72 55.66 M389.45 106.43 C397.73 97.32, 407.5 88.16, 432.67 55.58 M390.92 108.82 C400.87 98.23, 413.3 88.78, 433.12 57.14 M394.6 108.38 C407.86 93.18, 418.21 77.15, 433.66 59.4 M402.47 103.89 C410.12 95.82, 418.53 83.45, 431.25 65.91 M397.57 106.92 C409.43 92.26, 424.96 79.3, 433.21 68.34 M404.55 111.45 C412.54 98.59, 424.51 82.24, 434.53 76.22 M402.68 108.49 C413.26 97.03, 421.93 87.12, 433.87 72.21 M413.59 107.74 C416.93 102.26, 423.64 94.03, 437.52 82.59 M411.5 107.89 C416.85 96.36, 427.81 85.56, 434.2 79.19 M418.16 109.28 C420.91 101.23, 423.93 89.87, 435.49 82.53 M413.59 106.31 C422.65 102.06, 427.07 91.24, 433.38 86.59 M424.18 110.81 C426.03 100.14, 428.77 92.93, 438.46 94.78 M419.77 109.31 C426.91 101.4, 431.15 97.78, 433.18 91.09 M425.71 107.49 C429.49 101.99, 432.44 97.55, 436.21 97.72 M425.17 108.44 C427.53 105.16, 431.65 100.51, 435.43 98.63 M432.08 106.55 C431.82 105.47, 433.95 106.06, 434.01 103.56 M431.77 107.8 C432.51 106.52, 433.08 104.78, 434.42 103.94" stroke="#228be6" stroke-width="0.5" fill="none"></path><path d="M-0.32 0.37 C111.35 3.13, 220.04 -0.33, 432.35 -1.6 M-0.72 -0.03 C110.48 1.24, 219.1 1.35, 434.44 0.22 M430.46 -1.1 C432.56 29.17, 434.96 60.35, 435.09 105.18 M435.64 1.21 C433.83 28.04, 431.55 59.84, 435.01 106.68 M434.76 103.98 C334.88 104.26, 236.55 104.1, 1.35 105.51 M434.57 106.58 C329.11 104.35, 226.28 103.98, -0.38 106.51 M-2.43 107.92 C4.24 69.17, 3.53 40.72, -2.67 -2.54 M1.26 106.02 C0.5 68.14, 2.57 29.93, -0.56 0.05" stroke="#000000" stroke-width="1" fill="none"></path></g><g transform="translate(71.85714706739418 40) rotate(0 159 23)"><text x="159" y="32" font-family="Virgil, Segoe UI Emoji" font-size="36px" fill="#000000" text-anchor="middle" style="white-space: pre;" direction="ltr">Types of Learning</text></g><g transform="translate(58.952826425385865 289.29017575816397) rotate(0 233 12.5)"><text x="0" y="18" font-family="Virgil, Segoe UI Emoji" font-size="20px" fill="#000000" text-anchor="start" style="white-space: pre;" direction="ltr">We work with a collection of labeled examples: </text></g><g stroke-linecap="round"><g transform="translate(351.4761199674422 318.6930156124399) rotate(0 76.52297797993833 -1.9476948567789805)"><path d="M0.59 0.86 C26.22 0.03, 128.2 -3.86, 153.61 -4.75 M-0.56 0.26 C24.89 -0.48, 126.46 -3.17, 152.46 -3.83" stroke="#364fc7" stroke-width="1" fill="none"></path></g></g><mask></mask><g transform="translate(699.346338688325 295.2091522658702) rotate(0 151 12.5)"><text x="0" y="18" font-family="Virgil, Segoe UI Emoji" font-size="20px" fill="#000000" text-anchor="start" style="white-space: pre;" direction="ltr">{(x1, y1), (x2, y2), ..., (xN, yN)}</text></g><g stroke-linecap="round"><g transform="translate(824.156756963901 376.60628985586663) rotate(0 -47.47725380810243 -23.408876647616125)"><path d="M-0.39 -1.18 C-14.97 -2.41, -71.06 1.17, -86.89 -6.57 C-102.72 -14.32, -94.02 -40.71, -95.37 -47.64 M1.61 0.82 C-12.66 -0.37, -68.35 2.35, -84.69 -5.53 C-101.03 -13.42, -94.74 -39.5, -96.43 -46.49" stroke="#364fc7" stroke-width="1" fill="none"></path></g><g transform="translate(824.156756963901 376.60628985586663) rotate(0 -47.47725380810243 -23.408876647616125)"><path d="M-90.73 -28.23 C-93.16 -34.53, -94.81 -40.85, -97.85 -46.56 M-88.19 -26.19 C-91.7 -34.62, -94.99 -41.62, -97.32 -46.77" stroke="#364fc7" stroke-width="1" fill="none"></path></g><g transform="translate(824.156756963901 376.60628985586663) rotate(0 -47.47725380810243 -23.408876647616125)"><path d="M-105.3 -27.95 C-102.65 -34.3, -99.21 -40.72, -97.85 -46.56 M-102.76 -25.91 C-100.48 -34.48, -97.99 -41.58, -97.32 -46.77" stroke="#364fc7" stroke-width="1" fill="none"></path></g></g><mask></mask><g stroke-linecap="round"><g transform="translate(826.1178441316333 378.5952786702983) rotate(0 -9.33682759475596 -26.513859001992387)"><path d="M-1.18 -0.97 C-4.16 -3.88, -14.21 -8.97, -17.04 -17.84 C-19.87 -26.71, -17.87 -48.14, -18.14 -54.17 M0.41 1.14 C-2.28 -1.58, -11.58 -7.59, -14.82 -16.6 C-18.07 -25.62, -18.41 -46.9, -19.08 -52.96" stroke="#364fc7" stroke-width="1" fill="none"></path></g><g transform="translate(826.1178441316333 378.5952786702983) rotate(0 -9.33682759475596 -26.513859001992387)"><path d="M-13.12 -37.61 C-15.22 -42.98, -17.43 -50.01, -19.14 -51.17 M-11.24 -35.97 C-14.36 -42, -16.13 -48.61, -19.33 -53.27" stroke="#364fc7" stroke-width="1" fill="none"></path></g><g transform="translate(826.1178441316333 378.5952786702983) rotate(0 -9.33682759475596 -26.513859001992387)"><path d="M-25.65 -36.75 C-23.1 -42.32, -20.65 -49.67, -19.14 -51.17 M-23.78 -35.11 C-22.54 -41.51, -19.95 -48.42, -19.33 -53.27" stroke="#364fc7" stroke-width="1" fill="none"></path></g></g><mask></mask><g stroke-linecap="round"><g transform="translate(826.6679051664869 375.8768610922598) rotate(0 52.418773789403076 -26.64714984064085)"><path d="M-0.97 -0.94 C11.98 -5.23, 59.5 -17.97, 77.3 -26.89 C95.09 -35.81, 101.03 -50.21, 105.81 -54.47 M0.72 1.18 C13.5 -2.83, 58.68 -16.39, 76.05 -25.52 C93.42 -34.65, 99.91 -48.79, 104.93 -53.6" stroke="#364fc7" stroke-width="1" fill="none"></path></g><g transform="translate(826.6679051664869 375.8768610922598) rotate(0 52.418773789403076 -26.64714984064085)"><path d="M97.15 -36.04 C100 -40.33, 100.83 -45.01, 106.83 -52.67 M98.89 -35.23 C100.48 -40.16, 101.61 -46.95, 104.6 -53.92" stroke="#364fc7" stroke-width="1" fill="none"></path></g><g transform="translate(826.6679051664869 375.8768610922598) rotate(0 52.418773789403076 -26.64714984064085)"><path d="M86.72 -44.38 C92.28 -46.36, 95.9 -48.81, 106.83 -52.67 M88.46 -43.57 C93.37 -45.94, 97.75 -50.13, 104.6 -53.92" stroke="#364fc7" stroke-width="1" fill="none"></path></g></g><mask></mask><g transform="translate(766.9862828850291 388.2774241076295) rotate(0 75.5 12.5)"><text x="0" y="18" font-family="Virgil, Segoe UI Emoji" font-size="20px" fill="#364fc7" text-anchor="start" style="white-space: pre;" direction="ltr">Feature Vector</text></g><g stroke-linecap="round"><g transform="translate(1031.6652893871087 380.18567253193396) rotate(0 -47.32759983108417 6.987379712412803)"><path d="M-0.33 -0.2 C-13.36 0.53, -63.15 1.23, -79.12 3.82 C-95.1 6.41, -93.18 13.39, -96.2 15.33 M1.7 -1.36 C-10.87 -0.37, -60.52 2.9, -76.86 5.34 C-93.2 7.78, -93.01 11.97, -96.35 13.29" stroke="#364fc7" stroke-width="1" fill="none"></path></g><g transform="translate(1031.6652893871087 380.18567253193396) rotate(0 -47.32759983108417 6.987379712412803)"><path d="M-90.29 3.48 C-91.56 7.3, -92.39 8.37, -95.71 13.76 M-89.68 3.77 C-92.27 6.97, -94.31 10.2, -96.44 13.44" stroke="#364fc7" stroke-width="1" fill="none"></path></g><g transform="translate(1031.6652893871087 380.18567253193396) rotate(0 -47.32759983108417 6.987379712412803)"><path d="M-85.94 9.61 C-88.15 12.07, -89.94 11.78, -95.71 13.76 M-85.33 9.9 C-89.31 11.13, -92.75 12.39, -96.44 13.44" stroke="#364fc7" stroke-width="1" fill="none"></path></g></g><mask></mask><g transform="translate(1043.4695418970114 333.2111950650069) rotate(0 90 25)"><text x="0" y="18" font-family="Virgil, Segoe UI Emoji" font-size="20px" fill="#364fc7" text-anchor="start" style="white-space: pre;" direction="ltr">1-dimensional array</text><text x="0" y="43" font-family="Virgil, Segoe UI Emoji" font-size="20px" fill="#364fc7" text-anchor="start" style="white-space: pre;" direction="ltr">with D values</text></g><g stroke-linecap="round" transform="translate(1084.8418420390099 359.06014003399105) rotate(0 14.225853865125373 12.05151839764767)"><path d="M21.45 1.82 C24.05 2.79, 26.57 4.93, 27.61 7.38 C28.66 9.83, 28.84 14.08, 27.73 16.51 C26.61 18.94, 23.55 20.79, 20.92 21.98 C18.29 23.17, 14.78 23.99, 11.95 23.66 C9.12 23.33, 5.89 21.88, 3.95 19.98 C2 18.09, 0.49 14.96, 0.28 12.3 C0.08 9.65, 1 5.93, 2.72 4.06 C4.44 2.19, 7.27 1.34, 10.6 1.09 C13.92 0.84, 20.7 2.36, 22.7 2.57 C24.7 2.78, 22.67 2.17, 22.6 2.33 M15.76 0.73 C18.58 0.88, 21.39 1.7, 23.61 3.38 C25.83 5.06, 28.76 7.91, 29.1 10.81 C29.45 13.71, 27.81 18.73, 25.69 20.76 C23.57 22.8, 19.48 22.8, 16.38 23.02 C13.28 23.24, 9.53 23.07, 7.09 22.08 C4.64 21.09, 2.88 19.51, 1.71 17.06 C0.54 14.62, -1.07 10.17, 0.07 7.42 C1.22 4.66, 5.89 1.61, 8.56 0.53 C11.23 -0.55, 14.68 1.18, 16.08 0.92 C17.48 0.67, 16.9 -0.9, 16.97 -0.98" stroke="#d9480f" stroke-width="1" fill="none"></path></g><g stroke-linecap="round"><g transform="translate(1197.592396335116 409.74102840521664) rotate(0 -45.217947286591425 -4.801723833557844)"><path d="M-0.04 1.17 C-6.96 3.42, -26.72 16.65, -41.71 12.7 C-56.7 8.74, -81.88 -16.59, -90 -22.58 M-1.52 0.73 C-8.53 3.28, -27.55 18.54, -42.36 14.31 C-57.17 10.08, -82.45 -18.56, -90.4 -24.65" stroke="#d9480f" stroke-width="1" fill="none"></path></g><g transform="translate(1197.592396335116 409.74102840521664) rotate(0 -45.217947286591425 -4.801723833557844)"><path d="M-60.82 -12.02 C-70.25 -15.12, -77.46 -19.17, -90.64 -24.74 M-63.1 -13.31 C-72.82 -17.61, -83.23 -22.06, -90.66 -25.26" stroke="#d9480f" stroke-width="1" fill="none"></path></g><g transform="translate(1197.592396335116 409.74102840521664) rotate(0 -45.217947286591425 -4.801723833557844)"><path d="M-74.79 3.01 C-80.16 -4.33, -83.42 -12.64, -90.64 -24.74 M-77.07 1.72 C-81.39 -8.21, -86.53 -18.33, -90.66 -25.26" stroke="#d9480f" stroke-width="1" fill="none"></path></g></g><mask></mask><g transform="translate(1211.6216930641476 382.0828599462984) rotate(0 66.5 25)"><text x="66.5" y="18" font-family="Virgil, Segoe UI Emoji" font-size="20px" fill="#e67700" text-anchor="middle" style="white-space: pre;" direction="ltr">Vector</text><text x="66.5" y="43" font-family="Virgil, Segoe UI Emoji" font-size="20px" fill="#e67700" text-anchor="middle" style="white-space: pre;" direction="ltr">Dimensionality</text></g><g transform="translate(51.9953916519753 370.1619677235103) rotate(0 91.5 12.5)"><text x="0" y="18" font-family="Virgil, Segoe UI Emoji" font-size="20px" fill="#000000" text-anchor="start" style="white-space: pre;" direction="ltr">Feature vector: x1</text></g><g stroke-linecap="round" transform="translate(250.09450052889224 366.72938119766695) rotate(0 143.609835493809 15.536824972388786)"><path d="M7.77 0 M7.77 0 C116.57 0.41, 223.87 -0.45, 279.45 0 M7.77 0 C87.93 1.61, 168.26 2.08, 279.45 0 M279.45 0 C284.31 0.55, 286.81 2.05, 287.22 7.77 M279.45 0 C283.24 -1.45, 289.1 3.98, 287.22 7.77 M287.22 7.77 C288.63 14.08, 287.68 17.67, 287.22 23.31 M287.22 7.77 C286.36 11.76, 287.47 16.04, 287.22 23.31 M287.22 23.31 C287.93 29.81, 284.15 29.88, 279.45 31.07 M287.22 23.31 C287.12 27.82, 285.91 32.38, 279.45 31.07 M279.45 31.07 C210.7 32.59, 145.04 33.56, 7.77 31.07 M279.45 31.07 C223.6 30.23, 166.52 30.09, 7.77 31.07 M7.77 31.07 C4.34 29.74, -1.27 29.62, 0 23.31 M7.77 31.07 C1.67 30.95, 1.45 28.5, 0 23.31 M0 23.31 C-0.33 18.49, 0.04 15.65, 0 7.77 M0 23.31 C-0.16 18.42, 0.1 13.59, 0 7.77 M0 7.77 C-1.94 4.46, 2.93 1.88, 7.77 0 M0 7.77 C-0.4 4.55, 3.7 1.77, 7.77 0" stroke="#e67700" stroke-width="1" fill="none"></path></g><g stroke-linecap="round"><g transform="translate(282.6922921545156 366.99807831765065) rotate(0 0.07231388237823921 15.992076604712565)"><path d="M0.7 0.51 C0.65 5.62, 0.38 25.56, 0.26 30.79 M-0.39 -0.26 C-0.62 5.02, -0.48 27.2, -0.56 32.24" stroke="#e67700" stroke-width="1" fill="none"></path></g></g><mask></mask><g stroke-linecap="round"><g transform="translate(311.97550788654917 366.87306667197845) rotate(0 -0.35719624788453075 15.989047691011365)"><path d="M0.51 0.26 C0.47 5.32, -0.22 26.15, -0.15 31.12 M-0.67 -0.66 C-0.91 4.55, -1.39 27.38, -1.17 32.63" stroke="#e67700" stroke-width="1" fill="none"></path></g></g><mask></mask><g stroke-linecap="round"><g transform="translate(337.1882224729907 366.76330034895363) rotate(0 -0.5351281136345278 15.836118275843546)"><path d="M0.26 -0.15 C0.13 5.26, 0.17 27.64, -0.05 32.94 M-1.07 -1.27 C-1.42 3.76, -1.42 25.62, -1.02 31.31" stroke="#e67700" stroke-width="1" fill="none"></path></g></g><mask></mask><g stroke-linecap="round" transform="translate(360.44191309984853 379.9337345799504) rotate(0 3.3890352234648162 3.3890352234648162)"><path d="M6.78 3.39 C6.78 3.59, 6.76 3.78, 6.73 3.98 C6.69 4.17, 6.64 4.36, 6.57 4.55 C6.51 4.73, 6.42 4.91, 6.32 5.08 C6.23 5.25, 6.11 5.42, 5.99 5.57 C5.86 5.72, 5.72 5.86, 5.57 5.99 C5.42 6.11, 5.25 6.23, 5.08 6.32 C4.91 6.42, 4.73 6.51, 4.55 6.57 C4.36 6.64, 4.17 6.69, 3.98 6.73 C3.78 6.76, 3.59 6.78, 3.39 6.78 C3.19 6.78, 2.99 6.76, 2.8 6.73 C2.61 6.69, 2.41 6.64, 2.23 6.57 C2.05 6.51, 1.86 6.42, 1.69 6.32 C1.52 6.23, 1.36 6.11, 1.21 5.99 C1.06 5.86, 0.92 5.72, 0.79 5.57 C0.67 5.42, 0.55 5.25, 0.45 5.08 C0.36 4.91, 0.27 4.73, 0.2 4.55 C0.14 4.36, 0.09 4.17, 0.05 3.98 C0.02 3.78, 0 3.59, 0 3.39 C0 3.19, 0.02 2.99, 0.05 2.8 C0.09 2.61, 0.14 2.41, 0.2 2.23 C0.27 2.05, 0.36 1.86, 0.45 1.69 C0.55 1.52, 0.67 1.36, 0.79 1.21 C0.92 1.06, 1.06 0.92, 1.21 0.79 C1.36 0.67, 1.52 0.55, 1.69 0.45 C1.86 0.36, 2.05 0.27, 2.23 0.2 C2.41 0.14, 2.61 0.09, 2.8 0.05 C2.99 0.02, 3.19 0, 3.39 0 C3.59 0, 3.78 0.02, 3.98 0.05 C4.17 0.09, 4.36 0.14, 4.55 0.2 C4.73 0.27, 4.91 0.36, 5.08 0.45 C5.25 0.55, 5.42 0.67, 5.57 0.79 C5.72 0.92, 5.86 1.06, 5.99 1.21 C6.11 1.36, 6.23 1.52, 6.32 1.69 C6.42 1.86, 6.51 2.05, 6.57 2.23 C6.64 2.41, 6.69 2.61, 6.73 2.8 C6.76 2.99, 6.77 3.29, 6.78 3.39 C6.79 3.49, 6.79 3.29, 6.78 3.39" stroke="none" stroke-width="0" fill="#fd7e14"></path><path d="M6.78 3.39 C6.78 3.59, 6.76 3.78, 6.73 3.98 C6.69 4.17, 6.64 4.36, 6.57 4.55 C6.51 4.73, 6.42 4.91, 6.32 5.08 C6.23 5.25, 6.11 5.42, 5.99 5.57 C5.86 5.72, 5.72 5.86, 5.57 5.99 C5.42 6.11, 5.25 6.23, 5.08 6.32 C4.91 6.42, 4.73 6.51, 4.55 6.57 C4.36 6.64, 4.17 6.69, 3.98 6.73 C3.78 6.76, 3.59 6.78, 3.39 6.78 C3.19 6.78, 2.99 6.76, 2.8 6.73 C2.61 6.69, 2.41 6.64, 2.23 6.57 C2.05 6.51, 1.86 6.42, 1.69 6.32 C1.52 6.23, 1.36 6.11, 1.21 5.99 C1.06 5.86, 0.92 5.72, 0.79 5.57 C0.67 5.42, 0.55 5.25, 0.45 5.08 C0.36 4.91, 0.27 4.73, 0.2 4.55 C0.14 4.36, 0.09 4.17, 0.05 3.98 C0.02 3.78, 0 3.59, 0 3.39 C0 3.19, 0.02 2.99, 0.05 2.8 C0.09 2.61, 0.14 2.41, 0.2 2.23 C0.27 2.05, 0.36 1.86, 0.45 1.69 C0.55 1.52, 0.67 1.36, 0.79 1.21 C0.92 1.06, 1.06 0.92, 1.21 0.79 C1.36 0.67, 1.52 0.55, 1.69 0.45 C1.86 0.36, 2.05 0.27, 2.23 0.2 C2.41 0.14, 2.61 0.09, 2.8 0.05 C2.99 0.02, 3.19 0, 3.39 0 C3.59 0, 3.78 0.02, 3.98 0.05 C4.17 0.09, 4.36 0.14, 4.55 0.2 C4.73 0.27, 4.91 0.36, 5.08 0.45 C5.25 0.55, 5.42 0.67, 5.57 0.79 C5.72 0.92, 5.86 1.06, 5.99 1.21 C6.11 1.36, 6.23 1.52, 6.32 1.69 C6.42 1.86, 6.51 2.05, 6.57 2.23 C6.64 2.41, 6.69 2.61, 6.73 2.8 C6.76 2.99, 6.77 3.29, 6.78 3.39 C6.79 3.49, 6.79 3.29, 6.78 3.39" stroke="#e67700" stroke-width="1" fill="none"></path></g><g stroke-linecap="round" transform="translate(374.67201780501455 380.250790840073) rotate(0 3.3890352234648162 3.3890352234648162)"><path d="M6.78 3.39 C6.78 3.59, 6.76 3.78, 6.73 3.98 C6.69 4.17, 6.64 4.36, 6.57 4.55 C6.51 4.73, 6.42 4.91, 6.32 5.08 C6.23 5.25, 6.11 5.42, 5.99 5.57 C5.86 5.72, 5.72 5.86, 5.57 5.99 C5.42 6.11, 5.25 6.23, 5.08 6.32 C4.91 6.42, 4.73 6.51, 4.55 6.57 C4.36 6.64, 4.17 6.69, 3.98 6.73 C3.78 6.76, 3.59 6.78, 3.39 6.78 C3.19 6.78, 2.99 6.76, 2.8 6.73 C2.61 6.69, 2.41 6.64, 2.23 6.57 C2.05 6.51, 1.86 6.42, 1.69 6.32 C1.52 6.23, 1.36 6.11, 1.21 5.99 C1.06 5.86, 0.92 5.72, 0.79 5.57 C0.67 5.42, 0.55 5.25, 0.45 5.08 C0.36 4.91, 0.27 4.73, 0.2 4.55 C0.14 4.36, 0.09 4.17, 0.05 3.98 C0.02 3.78, 0 3.59, 0 3.39 C0 3.19, 0.02 2.99, 0.05 2.8 C0.09 2.61, 0.14 2.41, 0.2 2.23 C0.27 2.05, 0.36 1.86, 0.45 1.69 C0.55 1.52, 0.67 1.36, 0.79 1.21 C0.92 1.06, 1.06 0.92, 1.21 0.79 C1.36 0.67, 1.52 0.55, 1.69 0.45 C1.86 0.36, 2.05 0.27, 2.23 0.2 C2.41 0.14, 2.61 0.09, 2.8 0.05 C2.99 0.02, 3.19 0, 3.39 0 C3.59 0, 3.78 0.02, 3.98 0.05 C4.17 0.09, 4.36 0.14, 4.55 0.2 C4.73 0.27, 4.91 0.36, 5.08 0.45 C5.25 0.55, 5.42 0.67, 5.57 0.79 C5.72 0.92, 5.86 1.06, 5.99 1.21 C6.11 1.36, 6.23 1.52, 6.32 1.69 C6.42 1.86, 6.51 2.05, 6.57 2.23 C6.64 2.41, 6.69 2.61, 6.73 2.8 C6.76 2.99, 6.77 3.29, 6.78 3.39 C6.79 3.49, 6.79 3.29, 6.78 3.39" stroke="none" stroke-width="0" fill="#fd7e14"></path><path d="M6.78 3.39 C6.78 3.59, 6.76 3.78, 6.73 3.98 C6.69 4.17, 6.64 4.36, 6.57 4.55 C6.51 4.73, 6.42 4.91, 6.32 5.08 C6.23 5.25, 6.11 5.42, 5.99 5.57 C5.86 5.72, 5.72 5.86, 5.57 5.99 C5.42 6.11, 5.25 6.23, 5.08 6.32 C4.91 6.42, 4.73 6.51, 4.55 6.57 C4.36 6.64, 4.17 6.69, 3.98 6.73 C3.78 6.76, 3.59 6.78, 3.39 6.78 C3.19 6.78, 2.99 6.76, 2.8 6.73 C2.61 6.69, 2.41 6.64, 2.23 6.57 C2.05 6.51, 1.86 6.42, 1.69 6.32 C1.52 6.23, 1.36 6.11, 1.21 5.99 C1.06 5.86, 0.92 5.72, 0.79 5.57 C0.67 5.42, 0.55 5.25, 0.45 5.08 C0.36 4.91, 0.27 4.73, 0.2 4.55 C0.14 4.36, 0.09 4.17, 0.05 3.98 C0.02 3.78, 0 3.59, 0 3.39 C0 3.19, 0.02 2.99, 0.05 2.8 C0.09 2.61, 0.14 2.41, 0.2 2.23 C0.27 2.05, 0.36 1.86, 0.45 1.69 C0.55 1.52, 0.67 1.36, 0.79 1.21 C0.92 1.06, 1.06 0.92, 1.21 0.79 C1.36 0.67, 1.52 0.55, 1.69 0.45 C1.86 0.36, 2.05 0.27, 2.23 0.2 C2.41 0.14, 2.61 0.09, 2.8 0.05 C2.99 0.02, 3.19 0, 3.39 0 C3.59 0, 3.78 0.02, 3.98 0.05 C4.17 0.09, 4.36 0.14, 4.55 0.2 C4.73 0.27, 4.91 0.36, 5.08 0.45 C5.25 0.55, 5.42 0.67, 5.57 0.79 C5.72 0.92, 5.86 1.06, 5.99 1.21 C6.11 1.36, 6.23 1.52, 6.32 1.69 C6.42 1.86, 6.51 2.05, 6.57 2.23 C6.64 2.41, 6.69 2.61, 6.73 2.8 C6.76 2.99, 6.77 3.29, 6.78 3.39 C6.79 3.49, 6.79 3.29, 6.78 3.39" stroke="#e67700" stroke-width="1" fill="none"></path></g><g stroke-linecap="round" transform="translate(389.32108565346425 380.4327661819043) rotate(0 3.3890352234648162 3.3890352234648162)"><path d="M6.78 3.39 C6.78 3.59, 6.76 3.78, 6.73 3.98 C6.69 4.17, 6.64 4.36, 6.57 4.55 C6.51 4.73, 6.42 4.91, 6.32 5.08 C6.23 5.25, 6.11 5.42, 5.99 5.57 C5.86 5.72, 5.72 5.86, 5.57 5.99 C5.42 6.11, 5.25 6.23, 5.08 6.32 C4.91 6.42, 4.73 6.51, 4.55 6.57 C4.36 6.64, 4.17 6.69, 3.98 6.73 C3.78 6.76, 3.59 6.78, 3.39 6.78 C3.19 6.78, 2.99 6.76, 2.8 6.73 C2.61 6.69, 2.41 6.64, 2.23 6.57 C2.05 6.51, 1.86 6.42, 1.69 6.32 C1.52 6.23, 1.36 6.11, 1.21 5.99 C1.06 5.86, 0.92 5.72, 0.79 5.57 C0.67 5.42, 0.55 5.25, 0.45 5.08 C0.36 4.91, 0.27 4.73, 0.2 4.55 C0.14 4.36, 0.09 4.17, 0.05 3.98 C0.02 3.78, 0 3.59, 0 3.39 C0 3.19, 0.02 2.99, 0.05 2.8 C0.09 2.61, 0.14 2.41, 0.2 2.23 C0.27 2.05, 0.36 1.86, 0.45 1.69 C0.55 1.52, 0.67 1.36, 0.79 1.21 C0.92 1.06, 1.06 0.92, 1.21 0.79 C1.36 0.67, 1.52 0.55, 1.69 0.45 C1.86 0.36, 2.05 0.27, 2.23 0.2 C2.41 0.14, 2.61 0.09, 2.8 0.05 C2.99 0.02, 3.19 0, 3.39 0 C3.59 0, 3.78 0.02, 3.98 0.05 C4.17 0.09, 4.36 0.14, 4.55 0.2 C4.73 0.27, 4.91 0.36, 5.08 0.45 C5.25 0.55, 5.42 0.67, 5.57 0.79 C5.72 0.92, 5.86 1.06, 5.99 1.21 C6.11 1.36, 6.23 1.52, 6.32 1.69 C6.42 1.86, 6.51 2.05, 6.57 2.23 C6.64 2.41, 6.69 2.61, 6.73 2.8 C6.76 2.99, 6.77 3.29, 6.78 3.39 C6.79 3.49, 6.79 3.29, 6.78 3.39" stroke="none" stroke-width="0" fill="#fd7e14"></path><path d="M6.78 3.39 C6.78 3.59, 6.76 3.78, 6.73 3.98 C6.69 4.17, 6.64 4.36, 6.57 4.55 C6.51 4.73, 6.42 4.91, 6.32 5.08 C6.23 5.25, 6.11 5.42, 5.99 5.57 C5.86 5.72, 5.72 5.86, 5.57 5.99 C5.42 6.11, 5.25 6.23, 5.08 6.32 C4.91 6.42, 4.73 6.51, 4.55 6.57 C4.36 6.64, 4.17 6.69, 3.98 6.73 C3.78 6.76, 3.59 6.78, 3.39 6.78 C3.19 6.78, 2.99 6.76, 2.8 6.73 C2.61 6.69, 2.41 6.64, 2.23 6.57 C2.05 6.51, 1.86 6.42, 1.69 6.32 C1.52 6.23, 1.36 6.11, 1.21 5.99 C1.06 5.86, 0.92 5.72, 0.79 5.57 C0.67 5.42, 0.55 5.25, 0.45 5.08 C0.36 4.91, 0.27 4.73, 0.2 4.55 C0.14 4.36, 0.09 4.17, 0.05 3.98 C0.02 3.78, 0 3.59, 0 3.39 C0 3.19, 0.02 2.99, 0.05 2.8 C0.09 2.61, 0.14 2.41, 0.2 2.23 C0.27 2.05, 0.36 1.86, 0.45 1.69 C0.55 1.52, 0.67 1.36, 0.79 1.21 C0.92 1.06, 1.06 0.92, 1.21 0.79 C1.36 0.67, 1.52 0.55, 1.69 0.45 C1.86 0.36, 2.05 0.27, 2.23 0.2 C2.41 0.14, 2.61 0.09, 2.8 0.05 C2.99 0.02, 3.19 0, 3.39 0 C3.59 0, 3.78 0.02, 3.98 0.05 C4.17 0.09, 4.36 0.14, 4.55 0.2 C4.73 0.27, 4.91 0.36, 5.08 0.45 C5.25 0.55, 5.42 0.67, 5.57 0.79 C5.72 0.92, 5.86 1.06, 5.99 1.21 C6.11 1.36, 6.23 1.52, 6.32 1.69 C6.42 1.86, 6.51 2.05, 6.57 2.23 C6.64 2.41, 6.69 2.61, 6.73 2.8 C6.76 2.99, 6.77 3.29, 6.78 3.39 C6.79 3.49, 6.79 3.29, 6.78 3.39" stroke="#e67700" stroke-width="1" fill="none"></path></g><g stroke-linecap="round"><g transform="translate(505.15526313534974 366.06965504820255) rotate(0 -0.49356920055106457 15.70023350311385)"><path d="M-1.06 -0.33 C-1.12 4.79, -0.64 26.26, -0.41 31.62 M0.58 -1.55 C0.33 3.66, -1.42 27.18, -1.57 32.95" stroke="#e67700" stroke-width="1" fill="none"></path></g></g><mask></mask><g transform="translate(264.39513541486485 339.06338759545906) rotate(0 3 12.5)"><text x="3" y="18" font-family="Virgil, Segoe UI Emoji" font-size="20px" fill="#e67700" text-anchor="middle" style="white-space: pre;" direction="ltr">1</text></g><g transform="translate(289.1234679853842 338.19473028358334) rotate(0 7.5 12.5)"><text x="7.5" y="18" font-family="Virgil, Segoe UI Emoji" font-size="20px" fill="#e67700" text-anchor="middle" style="white-space: pre;" direction="ltr">2</text></g><g transform="translate(513.1474792556619 337.9508051212979) rotate(0 8.5 12.5)"><text x="8.5" y="18" font-family="Virgil, Segoe UI Emoji" font-size="20px" fill="#e67700" text-anchor="middle" style="white-space: pre;" direction="ltr">D</text></g><g stroke-linecap="round"><g transform="translate(263.7880920776115 385.10952161713794) rotate(0 -2.3673066679275507 21.773128066808567)"><path d="M0.31 -0.19 C-1.34 5.84, -11.36 28.42, -10.33 35.78 C-9.31 43.14, 3.73 42.3, 6.46 43.95 M-0.98 -1.34 C-2.73 4.91, -12.19 29.48, -11.11 37.19 C-10.02 44.89, 2.7 43.81, 5.53 44.88" stroke="#e67700" stroke-width="1" fill="none"></path></g><g transform="translate(263.7880920776115 385.10952161713794) rotate(0 -2.3673066679275507 21.773128066808567)"><path d="M-4.16 47.12 C-1.66 46.04, 0.48 45.17, 6.32 45.47 M-3.54 47.1 C-0.44 45.85, 2.72 45.22, 5.71 44.4" stroke="#e67700" stroke-width="1" fill="none"></path></g><g transform="translate(263.7880920776115 385.10952161713794) rotate(0 -2.3673066679275507 21.773128066808567)"><path d="M-3.2 40.53 C-0.98 41.21, 0.91 42.09, 6.32 45.47 M-2.58 40.51 C0.15 41.6, 2.97 43.31, 5.71 44.4" stroke="#e67700" stroke-width="1" fill="none"></path></g></g><mask></mask><g transform="translate(282.6688354938269 415.7136810302145) rotate(0 77.5 20)"><text x="0" y="14" font-family="Virgil, Segoe UI Emoji" font-size="16px" fill="#364fc7" text-anchor="start" style="white-space: pre;" direction="ltr">Value that describe</text><text x="0" y="34" font-family="Virgil, Segoe UI Emoji" font-size="16px" fill="#364fc7" text-anchor="start" style="white-space: pre;" direction="ltr">the example</text></g><g stroke-linecap="round"><g transform="translate(454.57415775698973 438.02908557435876) rotate(0 12.374397773168312 -0.45066219633554283)"><path d="M0.33 -0.25 C4.56 -0.32, 21.55 -0.85, 25.71 -0.63 M-0.96 -1.42 C3.06 -1.34, 19.8 0.41, 24.59 0.52" stroke="#e67700" stroke-width="1" fill="none"></path></g><g transform="translate(454.57415775698973 438.02908557435876) rotate(0 12.374397773168312 -0.45066219633554283)"><path d="M11.83 3.81 C15.39 2.12, 21.32 2.54, 25.32 -0.08 M12.32 3.67 C14.99 2.83, 18.34 1.69, 24.21 0.8" stroke="#e67700" stroke-width="1" fill="none"></path></g><g transform="translate(454.57415775698973 438.02908557435876) rotate(0 12.374397773168312 -0.45066219633554283)"><path d="M12.41 -5.07 C15.77 -3.86, 21.51 -0.55, 25.32 -0.08 M12.9 -5.21 C15.52 -3.9, 18.73 -2.89, 24.21 0.8" stroke="#e67700" stroke-width="1" fill="none"></path></g></g><mask></mask><g transform="translate(496.2771491692765 424.91317453959346) rotate(0 42.5 12.5)"><text x="0" y="18" font-family="Virgil, Segoe UI Emoji" font-size="20px" fill="#e67700" text-anchor="start" style="white-space: pre;" direction="ltr">Feature!</text></g><g transform="translate(47.870632723926974 612.3635767960841) rotate(0 39 12.5)"><text x="39" y="18" font-family="Virgil, Segoe UI Emoji" font-size="20px" fill="#a61e4d" text-anchor="middle" style="white-space: pre;" direction="ltr">Example</text></g><g transform="translate(47.10877924900342 656.7410593578388) rotate(0 358.5 12.5)"><text x="0" y="18" font-family="Virgil, Segoe UI Emoji" font-size="20px" fill="#000000" text-anchor="start" style="white-space: pre;" direction="ltr">If x represents a person in our collection, the features could represent</text></g><g stroke-linecap="round" transform="translate(796.4490423397847 652.2954958706923) rotate(0 143.60983549380944 15.536824972388786)"><path d="M7.77 0 M7.77 0 C83.29 2.28, 157.13 0.61, 279.45 0 M7.77 0 C73.67 -1.65, 138.93 -1.54, 279.45 0 M279.45 0 C285.37 -1.98, 286.03 3.46, 287.22 7.77 M279.45 0 C282.79 0.81, 288.75 2.04, 287.22 7.77 M287.22 7.77 C288.08 12.38, 286.42 14.67, 287.22 23.31 M287.22 7.77 C287.49 14.16, 286.38 20.2, 287.22 23.31 M287.22 23.31 C286 29.45, 285.77 29.85, 279.45 31.07 M287.22 23.31 C288.11 30.5, 283.1 29.61, 279.45 31.07 M279.45 31.07 C183.49 30.97, 85.29 30.93, 7.77 31.07 M279.45 31.07 C174.67 31.04, 69.85 30.85, 7.77 31.07 M7.77 31.07 C1.88 30.85, -0.65 28.93, 0 23.31 M7.77 31.07 C1.26 28.84, 2.15 28.88, 0 23.31 M0 23.31 C0.77 18.38, 1.49 10.28, 0 7.77 M0 23.31 C-0.12 18.04, 0.46 12.85, 0 7.77 M0 7.77 C0.56 3.17, 4.47 -0.12, 7.77 0 M0 7.77 C-0.96 2.04, 2.16 -2.16, 7.77 0" stroke="#e67700" stroke-width="1" fill="none"></path></g><g stroke-linecap="round"><g transform="translate(871.3726436100615 651.4672624165996) rotate(0 0.5217109552431793 15.839708732712097)"><path d="M0.98 0.73 C1.22 5.91, 0.95 25.15, 0.67 30.37 M0.04 0.06 C0.24 5.47, -0.22 26.57, 0.07 31.62" stroke="#e67700" stroke-width="1" fill="none"></path></g></g><mask></mask><g stroke-linecap="round"><g transform="translate(1018.5626114374745 650.7576641721589) rotate(0 -0.547487283603914 16.231793828736954)"><path d="M0.73 0.67 C0.76 5.73, -0.63 25.99, -0.56 31.32 M-0.35 -0.02 C-0.46 5.09, -2.02 27.38, -1.8 32.49" stroke="#e67700" stroke-width="1" fill="none"></path></g></g><mask></mask><g transform="translate(805.2758345780921 654.2489498844607) rotate(0 30 12.5)"><text x="30" y="18" font-family="Virgil, Segoe UI Emoji" font-size="20px" fill="#000000" text-anchor="middle" style="white-space: pre;" direction="ltr">weight</text></g><g transform="translate(880.441315432422 653.7731044636985) rotate(0 28.5 12.5)"><text x="28.5" y="18" font-family="Virgil, Segoe UI Emoji" font-size="20px" fill="#000000" text-anchor="middle" style="white-space: pre;" direction="ltr">height</text></g><g stroke-linecap="round"><g transform="translate(943.7388098368474 652.5402129165104) rotate(0 0.21542669962036598 16.022652785717582)"><path d="M-0.7 1.15 C-0.71 6.46, 0.64 26.41, 0.61 31.34 M1.13 0.7 C0.96 5.7, -0.09 24.22, -0.02 29.44" stroke="#e67700" stroke-width="1" fill="none"></path></g></g><mask></mask><g transform="translate(948.5011642010732 651.9933688574656) rotate(0 31 12.5)"><text x="31" y="18" font-family="Virgil, Segoe UI Emoji" font-size="20px" fill="#000000" text-anchor="middle" style="white-space: pre;" direction="ltr">gender</text></g><g stroke-linecap="round" transform="translate(1031.3458695732688 664.1887722066185) rotate(0 3.3890352234648162 3.3890352234648162)"><path d="M6.78 3.39 C6.78 3.59, 6.76 3.78, 6.73 3.98 C6.69 4.17, 6.64 4.36, 6.57 4.55 C6.51 4.73, 6.42 4.91, 6.32 5.08 C6.23 5.25, 6.11 5.42, 5.99 5.57 C5.86 5.72, 5.72 5.86, 5.57 5.99 C5.42 6.11, 5.25 6.23, 5.08 6.32 C4.91 6.42, 4.73 6.51, 4.55 6.57 C4.36 6.64, 4.17 6.69, 3.98 6.73 C3.78 6.76, 3.59 6.78, 3.39 6.78 C3.19 6.78, 2.99 6.76, 2.8 6.73 C2.61 6.69, 2.41 6.64, 2.23 6.57 C2.05 6.51, 1.86 6.42, 1.69 6.32 C1.52 6.23, 1.36 6.11, 1.21 5.99 C1.06 5.86, 0.92 5.72, 0.79 5.57 C0.67 5.42, 0.55 5.25, 0.45 5.08 C0.36 4.91, 0.27 4.73, 0.2 4.55 C0.14 4.36, 0.09 4.17, 0.05 3.98 C0.02 3.78, 0 3.59, 0 3.39 C0 3.19, 0.02 2.99, 0.05 2.8 C0.09 2.61, 0.14 2.41, 0.2 2.23 C0.27 2.05, 0.36 1.86, 0.45 1.69 C0.55 1.52, 0.67 1.36, 0.79 1.21 C0.92 1.06, 1.06 0.92, 1.21 0.79 C1.36 0.67, 1.52 0.55, 1.69 0.45 C1.86 0.36, 2.05 0.27, 2.23 0.2 C2.41 0.14, 2.61 0.09, 2.8 0.05 C2.99 0.02, 3.19 0, 3.39 0 C3.59 0, 3.78 0.02, 3.98 0.05 C4.17 0.09, 4.36 0.14, 4.55 0.2 C4.73 0.27, 4.91 0.36, 5.08 0.45 C5.25 0.55, 5.42 0.67, 5.57 0.79 C5.72 0.92, 5.86 1.06, 5.99 1.21 C6.11 1.36, 6.23 1.52, 6.32 1.69 C6.42 1.86, 6.51 2.05, 6.57 2.23 C6.64 2.41, 6.69 2.61, 6.73 2.8 C6.76 2.99, 6.77 3.29, 6.78 3.39 C6.79 3.49, 6.79 3.29, 6.78 3.39" stroke="none" stroke-width="0" fill="#fd7e14"></path><path d="M6.78 3.39 C6.78 3.59, 6.76 3.78, 6.73 3.98 C6.69 4.17, 6.64 4.36, 6.57 4.55 C6.51 4.73, 6.42 4.91, 6.32 5.08 C6.23 5.25, 6.11 5.42, 5.99 5.57 C5.86 5.72, 5.72 5.86, 5.57 5.99 C5.42 6.11, 5.25 6.23, 5.08 6.32 C4.91 6.42, 4.73 6.51, 4.55 6.57 C4.36 6.64, 4.17 6.69, 3.98 6.73 C3.78 6.76, 3.59 6.78, 3.39 6.78 C3.19 6.78, 2.99 6.76, 2.8 6.73 C2.61 6.69, 2.41 6.64, 2.23 6.57 C2.05 6.51, 1.86 6.42, 1.69 6.32 C1.52 6.23, 1.36 6.11, 1.21 5.99 C1.06 5.86, 0.92 5.72, 0.79 5.57 C0.67 5.42, 0.55 5.25, 0.45 5.08 C0.36 4.91, 0.27 4.73, 0.2 4.55 C0.14 4.36, 0.09 4.17, 0.05 3.98 C0.02 3.78, 0 3.59, 0 3.39 C0 3.19, 0.02 2.99, 0.05 2.8 C0.09 2.61, 0.14 2.41, 0.2 2.23 C0.27 2.05, 0.36 1.86, 0.45 1.69 C0.55 1.52, 0.67 1.36, 0.79 1.21 C0.92 1.06, 1.06 0.92, 1.21 0.79 C1.36 0.67, 1.52 0.55, 1.69 0.45 C1.86 0.36, 2.05 0.27, 2.23 0.2 C2.41 0.14, 2.61 0.09, 2.8 0.05 C2.99 0.02, 3.19 0, 3.39 0 C3.59 0, 3.78 0.02, 3.98 0.05 C4.17 0.09, 4.36 0.14, 4.55 0.2 C4.73 0.27, 4.91 0.36, 5.08 0.45 C5.25 0.55, 5.42 0.67, 5.57 0.79 C5.72 0.92, 5.86 1.06, 5.99 1.21 C6.11 1.36, 6.23 1.52, 6.32 1.69 C6.42 1.86, 6.51 2.05, 6.57 2.23 C6.64 2.41, 6.69 2.61, 6.73 2.8 C6.76 2.99, 6.77 3.29, 6.78 3.39 C6.79 3.49, 6.79 3.29, 6.78 3.39" stroke="#e67700" stroke-width="1" fill="none"></path></g><g stroke-linecap="round" transform="translate(1045.5759742784367 664.5058284667375) rotate(0 3.3890352234648162 3.3890352234648162)"><path d="M6.78 3.39 C6.78 3.59, 6.76 3.78, 6.73 3.98 C6.69 4.17, 6.64 4.36, 6.57 4.55 C6.51 4.73, 6.42 4.91, 6.32 5.08 C6.23 5.25, 6.11 5.42, 5.99 5.57 C5.86 5.72, 5.72 5.86, 5.57 5.99 C5.42 6.11, 5.25 6.23, 5.08 6.32 C4.91 6.42, 4.73 6.51, 4.55 6.57 C4.36 6.64, 4.17 6.69, 3.98 6.73 C3.78 6.76, 3.59 6.78, 3.39 6.78 C3.19 6.78, 2.99 6.76, 2.8 6.73 C2.61 6.69, 2.41 6.64, 2.23 6.57 C2.05 6.51, 1.86 6.42, 1.69 6.32 C1.52 6.23, 1.36 6.11, 1.21 5.99 C1.06 5.86, 0.92 5.72, 0.79 5.57 C0.67 5.42, 0.55 5.25, 0.45 5.08 C0.36 4.91, 0.27 4.73, 0.2 4.55 C0.14 4.36, 0.09 4.17, 0.05 3.98 C0.02 3.78, 0 3.59, 0 3.39 C0 3.19, 0.02 2.99, 0.05 2.8 C0.09 2.61, 0.14 2.41, 0.2 2.23 C0.27 2.05, 0.36 1.86, 0.45 1.69 C0.55 1.52, 0.67 1.36, 0.79 1.21 C0.92 1.06, 1.06 0.92, 1.21 0.79 C1.36 0.67, 1.52 0.55, 1.69 0.45 C1.86 0.36, 2.05 0.27, 2.23 0.2 C2.41 0.14, 2.61 0.09, 2.8 0.05 C2.99 0.02, 3.19 0, 3.39 0 C3.59 0, 3.78 0.02, 3.98 0.05 C4.17 0.09, 4.36 0.14, 4.55 0.2 C4.73 0.27, 4.91 0.36, 5.08 0.45 C5.25 0.55, 5.42 0.67, 5.57 0.79 C5.72 0.92, 5.86 1.06, 5.99 1.21 C6.11 1.36, 6.23 1.52, 6.32 1.69 C6.42 1.86, 6.51 2.05, 6.57 2.23 C6.64 2.41, 6.69 2.61, 6.73 2.8 C6.76 2.99, 6.77 3.29, 6.78 3.39 C6.79 3.49, 6.79 3.29, 6.78 3.39" stroke="none" stroke-width="0" fill="#fd7e14"></path><path d="M6.78 3.39 C6.78 3.59, 6.76 3.78, 6.73 3.98 C6.69 4.17, 6.64 4.36, 6.57 4.55 C6.51 4.73, 6.42 4.91, 6.32 5.08 C6.23 5.25, 6.11 5.42, 5.99 5.57 C5.86 5.72, 5.72 5.86, 5.57 5.99 C5.42 6.11, 5.25 6.23, 5.08 6.32 C4.91 6.42, 4.73 6.51, 4.55 6.57 C4.36 6.64, 4.17 6.69, 3.98 6.73 C3.78 6.76, 3.59 6.78, 3.39 6.78 C3.19 6.78, 2.99 6.76, 2.8 6.73 C2.61 6.69, 2.41 6.64, 2.23 6.57 C2.05 6.51, 1.86 6.42, 1.69 6.32 C1.52 6.23, 1.36 6.11, 1.21 5.99 C1.06 5.86, 0.92 5.72, 0.79 5.57 C0.67 5.42, 0.55 5.25, 0.45 5.08 C0.36 4.91, 0.27 4.73, 0.2 4.55 C0.14 4.36, 0.09 4.17, 0.05 3.98 C0.02 3.78, 0 3.59, 0 3.39 C0 3.19, 0.02 2.99, 0.05 2.8 C0.09 2.61, 0.14 2.41, 0.2 2.23 C0.27 2.05, 0.36 1.86, 0.45 1.69 C0.55 1.52, 0.67 1.36, 0.79 1.21 C0.92 1.06, 1.06 0.92, 1.21 0.79 C1.36 0.67, 1.52 0.55, 1.69 0.45 C1.86 0.36, 2.05 0.27, 2.23 0.2 C2.41 0.14, 2.61 0.09, 2.8 0.05 C2.99 0.02, 3.19 0, 3.39 0 C3.59 0, 3.78 0.02, 3.98 0.05 C4.17 0.09, 4.36 0.14, 4.55 0.2 C4.73 0.27, 4.91 0.36, 5.08 0.45 C5.25 0.55, 5.42 0.67, 5.57 0.79 C5.72 0.92, 5.86 1.06, 5.99 1.21 C6.11 1.36, 6.23 1.52, 6.32 1.69 C6.42 1.86, 6.51 2.05, 6.57 2.23 C6.64 2.41, 6.69 2.61, 6.73 2.8 C6.76 2.99, 6.77 3.29, 6.78 3.39 C6.79 3.49, 6.79 3.29, 6.78 3.39" stroke="#e67700" stroke-width="1" fill="none"></path></g><g stroke-linecap="round" transform="translate(1060.2250421268864 664.6878038085688) rotate(0 3.3890352234648162 3.3890352234648162)"><path d="M6.78 3.39 C6.78 3.59, 6.76 3.78, 6.73 3.98 C6.69 4.17, 6.64 4.36, 6.57 4.55 C6.51 4.73, 6.42 4.91, 6.32 5.08 C6.23 5.25, 6.11 5.42, 5.99 5.57 C5.86 5.72, 5.72 5.86, 5.57 5.99 C5.42 6.11, 5.25 6.23, 5.08 6.32 C4.91 6.42, 4.73 6.51, 4.55 6.57 C4.36 6.64, 4.17 6.69, 3.98 6.73 C3.78 6.76, 3.59 6.78, 3.39 6.78 C3.19 6.78, 2.99 6.76, 2.8 6.73 C2.61 6.69, 2.41 6.64, 2.23 6.57 C2.05 6.51, 1.86 6.42, 1.69 6.32 C1.52 6.23, 1.36 6.11, 1.21 5.99 C1.06 5.86, 0.92 5.72, 0.79 5.57 C0.67 5.42, 0.55 5.25, 0.45 5.08 C0.36 4.91, 0.27 4.73, 0.2 4.55 C0.14 4.36, 0.09 4.17, 0.05 3.98 C0.02 3.78, 0 3.59, 0 3.39 C0 3.19, 0.02 2.99, 0.05 2.8 C0.09 2.61, 0.14 2.41, 0.2 2.23 C0.27 2.05, 0.36 1.86, 0.45 1.69 C0.55 1.52, 0.67 1.36, 0.79 1.21 C0.92 1.06, 1.06 0.92, 1.21 0.79 C1.36 0.67, 1.52 0.55, 1.69 0.45 C1.86 0.36, 2.05 0.27, 2.23 0.2 C2.41 0.14, 2.61 0.09, 2.8 0.05 C2.99 0.02, 3.19 0, 3.39 0 C3.59 0, 3.78 0.02, 3.98 0.05 C4.17 0.09, 4.36 0.14, 4.55 0.2 C4.73 0.27, 4.91 0.36, 5.08 0.45 C5.25 0.55, 5.42 0.67, 5.57 0.79 C5.72 0.92, 5.86 1.06, 5.99 1.21 C6.11 1.36, 6.23 1.52, 6.32 1.69 C6.42 1.86, 6.51 2.05, 6.57 2.23 C6.64 2.41, 6.69 2.61, 6.73 2.8 C6.76 2.99, 6.77 3.29, 6.78 3.39 C6.79 3.49, 6.79 3.29, 6.78 3.39" stroke="none" stroke-width="0" fill="#fd7e14"></path><path d="M6.78 3.39 C6.78 3.59, 6.76 3.78, 6.73 3.98 C6.69 4.17, 6.64 4.36, 6.57 4.55 C6.51 4.73, 6.42 4.91, 6.32 5.08 C6.23 5.25, 6.11 5.42, 5.99 5.57 C5.86 5.72, 5.72 5.86, 5.57 5.99 C5.42 6.11, 5.25 6.23, 5.08 6.32 C4.91 6.42, 4.73 6.51, 4.55 6.57 C4.36 6.64, 4.17 6.69, 3.98 6.73 C3.78 6.76, 3.59 6.78, 3.39 6.78 C3.19 6.78, 2.99 6.76, 2.8 6.73 C2.61 6.69, 2.41 6.64, 2.23 6.57 C2.05 6.51, 1.86 6.42, 1.69 6.32 C1.52 6.23, 1.36 6.11, 1.21 5.99 C1.06 5.86, 0.92 5.72, 0.79 5.57 C0.67 5.42, 0.55 5.25, 0.45 5.08 C0.36 4.91, 0.27 4.73, 0.2 4.55 C0.14 4.36, 0.09 4.17, 0.05 3.98 C0.02 3.78, 0 3.59, 0 3.39 C0 3.19, 0.02 2.99, 0.05 2.8 C0.09 2.61, 0.14 2.41, 0.2 2.23 C0.27 2.05, 0.36 1.86, 0.45 1.69 C0.55 1.52, 0.67 1.36, 0.79 1.21 C0.92 1.06, 1.06 0.92, 1.21 0.79 C1.36 0.67, 1.52 0.55, 1.69 0.45 C1.86 0.36, 2.05 0.27, 2.23 0.2 C2.41 0.14, 2.61 0.09, 2.8 0.05 C2.99 0.02, 3.19 0, 3.39 0 C3.59 0, 3.78 0.02, 3.98 0.05 C4.17 0.09, 4.36 0.14, 4.55 0.2 C4.73 0.27, 4.91 0.36, 5.08 0.45 C5.25 0.55, 5.42 0.67, 5.57 0.79 C5.72 0.92, 5.86 1.06, 5.99 1.21 C6.11 1.36, 6.23 1.52, 6.32 1.69 C6.42 1.86, 6.51 2.05, 6.57 2.23 C6.64 2.41, 6.69 2.61, 6.73 2.8 C6.76 2.99, 6.77 3.29, 6.78 3.39 C6.79 3.49, 6.79 3.29, 6.78 3.39" stroke="#e67700" stroke-width="1" fill="none"></path></g><g transform="translate(832.5757146528149 620.2889138484406) rotate(0 3 12.5)"><text x="3" y="18" font-family="Virgil, Segoe UI Emoji" font-size="20px" fill="#e67700" text-anchor="middle" style="white-space: pre;" direction="ltr">1</text></g><g transform="translate(899.468590272877 620.2334415286114) rotate(0 7.5 12.5)"><text x="7.5" y="18" font-family="Virgil, Segoe UI Emoji" font-size="20px" fill="#e67700" text-anchor="middle" style="white-space: pre;" direction="ltr">2</text></g><g transform="translate(970.5212356646543 620.3406880136154) rotate(0 7.5 12.5)"><text x="7.5" y="18" font-family="Virgil, Segoe UI Emoji" font-size="20px" fill="#e67700" text-anchor="middle" style="white-space: pre;" direction="ltr">3</text></g><g transform="translate(247.0111325092148 716.4687927633095) rotate(0 131 12.5)"><text x="0" y="18" font-family="Virgil, Segoe UI Emoji" font-size="20px" fill="#000000" text-anchor="start" style="white-space: pre;" direction="ltr">and some examples may be</text></g><g transform="translate(553.8622956826384 715.903111462092) rotate(0 21.5 12.5)"><text x="0" y="18" font-family="Virgil, Segoe UI Emoji" font-size="20px" fill="#000000" text-anchor="start" style="white-space: pre;" direction="ltr">x1 : </text></g><g stroke-linecap="round" transform="translate(598.5837121447876 713.247121431079) rotate(0 143.609835493809 15.536824972388786)"><path d="M7.77 0 M7.77 0 C61.16 -0.37, 118.1 -1.3, 279.45 0 M7.77 0 C73.54 1.05, 138.04 0.32, 279.45 0 M279.45 0 C286.62 -1.48, 286.47 3.59, 287.22 7.77 M279.45 0 C285.19 -2.14, 287.3 1.19, 287.22 7.77 M287.22 7.77 C287.91 14.54, 286.27 17.6, 287.22 23.31 M287.22 7.77 C287.65 13.32, 287.02 18.84, 287.22 23.31 M287.22 23.31 C288.93 28.06, 284.07 31.12, 279.45 31.07 M287.22 23.31 C288.87 28.44, 285.7 30.25, 279.45 31.07 M279.45 31.07 C200.15 30.04, 124.1 31.82, 7.77 31.07 M279.45 31.07 C172.79 33.48, 66.11 32.48, 7.77 31.07 M7.77 31.07 C3.24 32.07, 0.1 28.37, 0 23.31 M7.77 31.07 C2.29 32.67, -0.4 29.13, 0 23.31 M0 23.31 C-0.8 17.82, -0.44 11.62, 0 7.77 M0 23.31 C0.75 19.06, -0.28 14.81, 0 7.77 M0 7.77 C0.03 0.68, 0.95 1.96, 7.77 0 M0 7.77 C0.45 4.85, 3.88 0.34, 7.77 0" stroke="#e67700" stroke-width="1" fill="none"></path></g><g stroke-linecap="round"><g transform="translate(673.3017917209309 712.0078445887193) rotate(0 -0.08233373165148805 15.816660650121776)"><path d="M-0.96 0.42 C-0.71 5.45, 0.76 25.57, 0.8 30.64 M0.73 -0.4 C0.96 4.76, 0.09 26.6, 0.27 32.03" stroke="#e67700" stroke-width="1" fill="none"></path></g></g><mask></mask><g stroke-linecap="round"><g transform="translate(820.4917595483439 711.2982463442786) rotate(0 -0.48115426692629626 16.3177991218663)"><path d="M0.42 0.8 C0.29 6.17, -0.21 26.16, -0.29 31.3 M-0.81 0.17 C-1.18 5.77, -1.38 27.03, -1.39 32.47" stroke="#e67700" stroke-width="1" fill="none"></path></g></g><mask></mask><g transform="translate(625.3478838173141 717.366072319619) rotate(0 13 12.5)"><text x="13" y="18" font-family="Virgil, Segoe UI Emoji" font-size="20px" fill="#000000" text-anchor="middle" style="white-space: pre;" direction="ltr">65</text></g><g transform="translate(696.2476902865455 716.0681401223228) rotate(0 15.5 12.5)"><text x="15.5" y="18" font-family="Virgil, Segoe UI Emoji" font-size="20px" fill="#000000" text-anchor="middle" style="white-space: pre;" direction="ltr">172</text></g><g stroke-linecap="round"><g transform="translate(745.6679579477186 713.0807950886265) rotate(0 -0.18101005366997924 15.236331614792107)"><path d="M-0.71 -0.05 C-0.9 5.26, -0.58 26.54, -0.34 31.6 M1.11 -1.13 C0.66 3.87, -1.33 24.42, -1.47 29.83" stroke="#e67700" stroke-width="1" fill="none"></path></g></g><mask></mask><g transform="translate(778.0344225583431 717.1682145960804) rotate(0 6 12.5)"><text x="6" y="18" font-family="Virgil, Segoe UI Emoji" font-size="20px" fill="#000000" text-anchor="middle" style="white-space: pre;" direction="ltr">F</text></g><g stroke-linecap="round" transform="translate(833.27501768414 724.7293543787346) rotate(0 3.3890352234648162 3.3890352234648162)"><path d="M6.78 3.39 C6.78 3.59, 6.76 3.78, 6.73 3.98 C6.69 4.17, 6.64 4.36, 6.57 4.55 C6.51 4.73, 6.42 4.91, 6.32 5.08 C6.23 5.25, 6.11 5.42, 5.99 5.57 C5.86 5.72, 5.72 5.86, 5.57 5.99 C5.42 6.11, 5.25 6.23, 5.08 6.32 C4.91 6.42, 4.73 6.51, 4.55 6.57 C4.36 6.64, 4.17 6.69, 3.98 6.73 C3.78 6.76, 3.59 6.78, 3.39 6.78 C3.19 6.78, 2.99 6.76, 2.8 6.73 C2.61 6.69, 2.41 6.64, 2.23 6.57 C2.05 6.51, 1.86 6.42, 1.69 6.32 C1.52 6.23, 1.36 6.11, 1.21 5.99 C1.06 5.86, 0.92 5.72, 0.79 5.57 C0.67 5.42, 0.55 5.25, 0.45 5.08 C0.36 4.91, 0.27 4.73, 0.2 4.55 C0.14 4.36, 0.09 4.17, 0.05 3.98 C0.02 3.78, 0 3.59, 0 3.39 C0 3.19, 0.02 2.99, 0.05 2.8 C0.09 2.61, 0.14 2.41, 0.2 2.23 C0.27 2.05, 0.36 1.86, 0.45 1.69 C0.55 1.52, 0.67 1.36, 0.79 1.21 C0.92 1.06, 1.06 0.92, 1.21 0.79 C1.36 0.67, 1.52 0.55, 1.69 0.45 C1.86 0.36, 2.05 0.27, 2.23 0.2 C2.41 0.14, 2.61 0.09, 2.8 0.05 C2.99 0.02, 3.19 0, 3.39 0 C3.59 0, 3.78 0.02, 3.98 0.05 C4.17 0.09, 4.36 0.14, 4.55 0.2 C4.73 0.27, 4.91 0.36, 5.08 0.45 C5.25 0.55, 5.42 0.67, 5.57 0.79 C5.72 0.92, 5.86 1.06, 5.99 1.21 C6.11 1.36, 6.23 1.52, 6.32 1.69 C6.42 1.86, 6.51 2.05, 6.57 2.23 C6.64 2.41, 6.69 2.61, 6.73 2.8 C6.76 2.99, 6.77 3.29, 6.78 3.39 C6.79 3.49, 6.79 3.29, 6.78 3.39" stroke="none" stroke-width="0" fill="#fd7e14"></path><path d="M6.78 3.39 C6.78 3.59, 6.76 3.78, 6.73 3.98 C6.69 4.17, 6.64 4.36, 6.57 4.55 C6.51 4.73, 6.42 4.91, 6.32 5.08 C6.23 5.25, 6.11 5.42, 5.99 5.57 C5.86 5.72, 5.72 5.86, 5.57 5.99 C5.42 6.11, 5.25 6.23, 5.08 6.32 C4.91 6.42, 4.73 6.51, 4.55 6.57 C4.36 6.64, 4.17 6.69, 3.98 6.73 C3.78 6.76, 3.59 6.78, 3.39 6.78 C3.19 6.78, 2.99 6.76, 2.8 6.73 C2.61 6.69, 2.41 6.64, 2.23 6.57 C2.05 6.51, 1.86 6.42, 1.69 6.32 C1.52 6.23, 1.36 6.11, 1.21 5.99 C1.06 5.86, 0.92 5.72, 0.79 5.57 C0.67 5.42, 0.55 5.25, 0.45 5.08 C0.36 4.91, 0.27 4.73, 0.2 4.55 C0.14 4.36, 0.09 4.17, 0.05 3.98 C0.02 3.78, 0 3.59, 0 3.39 C0 3.19, 0.02 2.99, 0.05 2.8 C0.09 2.61, 0.14 2.41, 0.2 2.23 C0.27 2.05, 0.36 1.86, 0.45 1.69 C0.55 1.52, 0.67 1.36, 0.79 1.21 C0.92 1.06, 1.06 0.92, 1.21 0.79 C1.36 0.67, 1.52 0.55, 1.69 0.45 C1.86 0.36, 2.05 0.27, 2.23 0.2 C2.41 0.14, 2.61 0.09, 2.8 0.05 C2.99 0.02, 3.19 0, 3.39 0 C3.59 0, 3.78 0.02, 3.98 0.05 C4.17 0.09, 4.36 0.14, 4.55 0.2 C4.73 0.27, 4.91 0.36, 5.08 0.45 C5.25 0.55, 5.42 0.67, 5.57 0.79 C5.72 0.92, 5.86 1.06, 5.99 1.21 C6.11 1.36, 6.23 1.52, 6.32 1.69 C6.42 1.86, 6.51 2.05, 6.57 2.23 C6.64 2.41, 6.69 2.61, 6.73 2.8 C6.76 2.99, 6.77 3.29, 6.78 3.39 C6.79 3.49, 6.79 3.29, 6.78 3.39" stroke="#e67700" stroke-width="1" fill="none"></path></g><g stroke-linecap="round" transform="translate(847.505122389306 725.0464106388572) rotate(0 3.3890352234648162 3.3890352234648162)"><path d="M6.78 3.39 C6.78 3.59, 6.76 3.78, 6.73 3.98 C6.69 4.17, 6.64 4.36, 6.57 4.55 C6.51 4.73, 6.42 4.91, 6.32 5.08 C6.23 5.25, 6.11 5.42, 5.99 5.57 C5.86 5.72, 5.72 5.86, 5.57 5.99 C5.42 6.11, 5.25 6.23, 5.08 6.32 C4.91 6.42, 4.73 6.51, 4.55 6.57 C4.36 6.64, 4.17 6.69, 3.98 6.73 C3.78 6.76, 3.59 6.78, 3.39 6.78 C3.19 6.78, 2.99 6.76, 2.8 6.73 C2.61 6.69, 2.41 6.64, 2.23 6.57 C2.05 6.51, 1.86 6.42, 1.69 6.32 C1.52 6.23, 1.36 6.11, 1.21 5.99 C1.06 5.86, 0.92 5.72, 0.79 5.57 C0.67 5.42, 0.55 5.25, 0.45 5.08 C0.36 4.91, 0.27 4.73, 0.2 4.55 C0.14 4.36, 0.09 4.17, 0.05 3.98 C0.02 3.78, 0 3.59, 0 3.39 C0 3.19, 0.02 2.99, 0.05 2.8 C0.09 2.61, 0.14 2.41, 0.2 2.23 C0.27 2.05, 0.36 1.86, 0.45 1.69 C0.55 1.52, 0.67 1.36, 0.79 1.21 C0.92 1.06, 1.06 0.92, 1.21 0.79 C1.36 0.67, 1.52 0.55, 1.69 0.45 C1.86 0.36, 2.05 0.27, 2.23 0.2 C2.41 0.14, 2.61 0.09, 2.8 0.05 C2.99 0.02, 3.19 0, 3.39 0 C3.59 0, 3.78 0.02, 3.98 0.05 C4.17 0.09, 4.36 0.14, 4.55 0.2 C4.73 0.27, 4.91 0.36, 5.08 0.45 C5.25 0.55, 5.42 0.67, 5.57 0.79 C5.72 0.92, 5.86 1.06, 5.99 1.21 C6.11 1.36, 6.23 1.52, 6.32 1.69 C6.42 1.86, 6.51 2.05, 6.57 2.23 C6.64 2.41, 6.69 2.61, 6.73 2.8 C6.76 2.99, 6.77 3.29, 6.78 3.39 C6.79 3.49, 6.79 3.29, 6.78 3.39" stroke="none" stroke-width="0" fill="#fd7e14"></path><path d="M6.78 3.39 C6.78 3.59, 6.76 3.78, 6.73 3.98 C6.69 4.17, 6.64 4.36, 6.57 4.55 C6.51 4.73, 6.42 4.91, 6.32 5.08 C6.23 5.25, 6.11 5.42, 5.99 5.57 C5.86 5.72, 5.72 5.86, 5.57 5.99 C5.42 6.11, 5.25 6.23, 5.08 6.32 C4.91 6.42, 4.73 6.51, 4.55 6.57 C4.36 6.64, 4.17 6.69, 3.98 6.73 C3.78 6.76, 3.59 6.78, 3.39 6.78 C3.19 6.78, 2.99 6.76, 2.8 6.73 C2.61 6.69, 2.41 6.64, 2.23 6.57 C2.05 6.51, 1.86 6.42, 1.69 6.32 C1.52 6.23, 1.36 6.11, 1.21 5.99 C1.06 5.86, 0.92 5.72, 0.79 5.57 C0.67 5.42, 0.55 5.25, 0.45 5.08 C0.36 4.91, 0.27 4.73, 0.2 4.55 C0.14 4.36, 0.09 4.17, 0.05 3.98 C0.02 3.78, 0 3.59, 0 3.39 C0 3.19, 0.02 2.99, 0.05 2.8 C0.09 2.61, 0.14 2.41, 0.2 2.23 C0.27 2.05, 0.36 1.86, 0.45 1.69 C0.55 1.52, 0.67 1.36, 0.79 1.21 C0.92 1.06, 1.06 0.92, 1.21 0.79 C1.36 0.67, 1.52 0.55, 1.69 0.45 C1.86 0.36, 2.05 0.27, 2.23 0.2 C2.41 0.14, 2.61 0.09, 2.8 0.05 C2.99 0.02, 3.19 0, 3.39 0 C3.59 0, 3.78 0.02, 3.98 0.05 C4.17 0.09, 4.36 0.14, 4.55 0.2 C4.73 0.27, 4.91 0.36, 5.08 0.45 C5.25 0.55, 5.42 0.67, 5.57 0.79 C5.72 0.92, 5.86 1.06, 5.99 1.21 C6.11 1.36, 6.23 1.52, 6.32 1.69 C6.42 1.86, 6.51 2.05, 6.57 2.23 C6.64 2.41, 6.69 2.61, 6.73 2.8 C6.76 2.99, 6.77 3.29, 6.78 3.39 C6.79 3.49, 6.79 3.29, 6.78 3.39" stroke="#e67700" stroke-width="1" fill="none"></path></g><g stroke-linecap="round" transform="translate(862.1541902377558 725.2283859806885) rotate(0 3.3890352234648162 3.3890352234648162)"><path d="M6.78 3.39 C6.78 3.59, 6.76 3.78, 6.73 3.98 C6.69 4.17, 6.64 4.36, 6.57 4.55 C6.51 4.73, 6.42 4.91, 6.32 5.08 C6.23 5.25, 6.11 5.42, 5.99 5.57 C5.86 5.72, 5.72 5.86, 5.57 5.99 C5.42 6.11, 5.25 6.23, 5.08 6.32 C4.91 6.42, 4.73 6.51, 4.55 6.57 C4.36 6.64, 4.17 6.69, 3.98 6.73 C3.78 6.76, 3.59 6.78, 3.39 6.78 C3.19 6.78, 2.99 6.76, 2.8 6.73 C2.61 6.69, 2.41 6.64, 2.23 6.57 C2.05 6.51, 1.86 6.42, 1.69 6.32 C1.52 6.23, 1.36 6.11, 1.21 5.99 C1.06 5.86, 0.92 5.72, 0.79 5.57 C0.67 5.42, 0.55 5.25, 0.45 5.08 C0.36 4.91, 0.27 4.73, 0.2 4.55 C0.14 4.36, 0.09 4.17, 0.05 3.98 C0.02 3.78, 0 3.59, 0 3.39 C0 3.19, 0.02 2.99, 0.05 2.8 C0.09 2.61, 0.14 2.41, 0.2 2.23 C0.27 2.05, 0.36 1.86, 0.45 1.69 C0.55 1.52, 0.67 1.36, 0.79 1.21 C0.92 1.06, 1.06 0.92, 1.21 0.79 C1.36 0.67, 1.52 0.55, 1.69 0.45 C1.86 0.36, 2.05 0.27, 2.23 0.2 C2.41 0.14, 2.61 0.09, 2.8 0.05 C2.99 0.02, 3.19 0, 3.39 0 C3.59 0, 3.78 0.02, 3.98 0.05 C4.17 0.09, 4.36 0.14, 4.55 0.2 C4.73 0.27, 4.91 0.36, 5.08 0.45 C5.25 0.55, 5.42 0.67, 5.57 0.79 C5.72 0.92, 5.86 1.06, 5.99 1.21 C6.11 1.36, 6.23 1.52, 6.32 1.69 C6.42 1.86, 6.51 2.05, 6.57 2.23 C6.64 2.41, 6.69 2.61, 6.73 2.8 C6.76 2.99, 6.77 3.29, 6.78 3.39 C6.79 3.49, 6.79 3.29, 6.78 3.39" stroke="none" stroke-width="0" fill="#fd7e14"></path><path d="M6.78 3.39 C6.78 3.59, 6.76 3.78, 6.73 3.98 C6.69 4.17, 6.64 4.36, 6.57 4.55 C6.51 4.73, 6.42 4.91, 6.32 5.08 C6.23 5.25, 6.11 5.42, 5.99 5.57 C5.86 5.72, 5.72 5.86, 5.57 5.99 C5.42 6.11, 5.25 6.23, 5.08 6.32 C4.91 6.42, 4.73 6.51, 4.55 6.57 C4.36 6.64, 4.17 6.69, 3.98 6.73 C3.78 6.76, 3.59 6.78, 3.39 6.78 C3.19 6.78, 2.99 6.76, 2.8 6.73 C2.61 6.69, 2.41 6.64, 2.23 6.57 C2.05 6.51, 1.86 6.42, 1.69 6.32 C1.52 6.23, 1.36 6.11, 1.21 5.99 C1.06 5.86, 0.92 5.72, 0.79 5.57 C0.67 5.42, 0.55 5.25, 0.45 5.08 C0.36 4.91, 0.27 4.73, 0.2 4.55 C0.14 4.36, 0.09 4.17, 0.05 3.98 C0.02 3.78, 0 3.59, 0 3.39 C0 3.19, 0.02 2.99, 0.05 2.8 C0.09 2.61, 0.14 2.41, 0.2 2.23 C0.27 2.05, 0.36 1.86, 0.45 1.69 C0.55 1.52, 0.67 1.36, 0.79 1.21 C0.92 1.06, 1.06 0.92, 1.21 0.79 C1.36 0.67, 1.52 0.55, 1.69 0.45 C1.86 0.36, 2.05 0.27, 2.23 0.2 C2.41 0.14, 2.61 0.09, 2.8 0.05 C2.99 0.02, 3.19 0, 3.39 0 C3.59 0, 3.78 0.02, 3.98 0.05 C4.17 0.09, 4.36 0.14, 4.55 0.2 C4.73 0.27, 4.91 0.36, 5.08 0.45 C5.25 0.55, 5.42 0.67, 5.57 0.79 C5.72 0.92, 5.86 1.06, 5.99 1.21 C6.11 1.36, 6.23 1.52, 6.32 1.69 C6.42 1.86, 6.51 2.05, 6.57 2.23 C6.64 2.41, 6.69 2.61, 6.73 2.8 C6.76 2.99, 6.77 3.29, 6.78 3.39 C6.79 3.49, 6.79 3.29, 6.78 3.39" stroke="#e67700" stroke-width="1" fill="none"></path></g><g transform="translate(931.6091883873487 717.9601253397377) rotate(0 25.5 12.5)"><text x="0" y="18" font-family="Virgil, Segoe UI Emoji" font-size="20px" fill="#000000" text-anchor="start" style="white-space: pre;" direction="ltr">x2 : </text></g><g stroke-linecap="round" transform="translate(986.995917903092 715.0333465150325) rotate(0 143.609835493809 15.536824972388786)"><path d="M7.77 0 M7.77 0 C106.21 -0.37, 200.97 1.56, 279.45 0 M7.77 0 C95.43 0.3, 184.49 -0.55, 279.45 0 M279.45 0 C285.41 1.75, 285.89 1.32, 287.22 7.77 M279.45 0 C285.94 -0.92, 287.1 4.04, 287.22 7.77 M287.22 7.77 C288.52 12.11, 286.76 17.15, 287.22 23.31 M287.22 7.77 C286.94 13.46, 286.96 19.5, 287.22 23.31 M287.22 23.31 C286.07 26.55, 286.5 31.42, 279.45 31.07 M287.22 23.31 C289.38 28.08, 286.59 32.18, 279.45 31.07 M279.45 31.07 C177.48 30.78, 74.59 29.92, 7.77 31.07 M279.45 31.07 C201.74 30.93, 124.32 30.66, 7.77 31.07 M7.77 31.07 C1.75 30.6, -0.37 26.6, 0 23.31 M7.77 31.07 C2.41 29.81, 2.05 30.47, 0 23.31 M0 23.31 C0.1 16.56, -1.2 14.31, 0 7.77 M0 23.31 C-0.04 18.4, 0.06 14.03, 0 7.77 M0 7.77 C-0.34 1.22, 2.58 0.43, 7.77 0 M0 7.77 C1.41 3.97, 3.11 -0.38, 7.77 0" stroke="#e67700" stroke-width="1" fill="none"></path></g><g stroke-linecap="round"><g transform="translate(1061.7139974792372 713.7940696726728) rotate(0 -0.22259386096811795 15.322664558571887)"><path d="M1.19 -0.89 C1.22 4.44, -0.3 26.41, -0.45 31.53 M0.36 1.26 C0.24 6.28, -1.52 24.84, -1.64 29.72" stroke="#e67700" stroke-width="1" fill="none"></path></g></g><mask></mask><g stroke-linecap="round"><g transform="translate(1208.9039653066502 713.0844714282321) rotate(0 -0.013862057495316549 15.288246199808782)"><path d="M-0.89 -0.45 C-0.71 4.73, 0.64 26.89, 0.6 32.31 M0.85 -1.73 C0.96 3.58, -0.09 24.49, -0.04 30.34" stroke="#e67700" stroke-width="1" fill="none"></path></g></g><mask></mask><g transform="translate(1012.2600895756186 719.1522974035761) rotate(0 14.5 12.5)"><text x="14.5" y="18" font-family="Virgil, Segoe UI Emoji" font-size="20px" fill="#000000" text-anchor="middle" style="white-space: pre;" direction="ltr">85</text></g><g transform="translate(1086.65989604485 719.7485278026143) rotate(0 13.5 12.5)"><text x="13.5" y="18" font-family="Virgil, Segoe UI Emoji" font-size="20px" fill="#000000" text-anchor="middle" style="white-space: pre;" direction="ltr">181</text></g><g stroke-linecap="round"><g transform="translate(1134.080163706025 714.8670201725836) rotate(0 -0.36598388095262635 15.12004241833074)"><path d="M0.29 -1.12 C0.38 3.82, -0.01 24.75, 0.04 30.2 M-1.01 0.91 C-1.05 5.93, -1.07 26.57, -0.89 31.36" stroke="#e67700" stroke-width="1" fill="none"></path></g></g><mask></mask><g transform="translate(1164.4466283166475 718.9544396800375) rotate(0 8 12.5)"><text x="8" y="18" font-family="Virgil, Segoe UI Emoji" font-size="20px" fill="#000000" text-anchor="middle" style="white-space: pre;" direction="ltr">M</text></g><g stroke-linecap="round" transform="translate(1221.6872234424445 726.5155794626917) rotate(0 3.3890352234648162 3.3890352234648162)"><path d="M6.78 3.39 C6.78 3.59, 6.76 3.78, 6.73 3.98 C6.69 4.17, 6.64 4.36, 6.57 4.55 C6.51 4.73, 6.42 4.91, 6.32 5.08 C6.23 5.25, 6.11 5.42, 5.99 5.57 C5.86 5.72, 5.72 5.86, 5.57 5.99 C5.42 6.11, 5.25 6.23, 5.08 6.32 C4.91 6.42, 4.73 6.51, 4.55 6.57 C4.36 6.64, 4.17 6.69, 3.98 6.73 C3.78 6.76, 3.59 6.78, 3.39 6.78 C3.19 6.78, 2.99 6.76, 2.8 6.73 C2.61 6.69, 2.41 6.64, 2.23 6.57 C2.05 6.51, 1.86 6.42, 1.69 6.32 C1.52 6.23, 1.36 6.11, 1.21 5.99 C1.06 5.86, 0.92 5.72, 0.79 5.57 C0.67 5.42, 0.55 5.25, 0.45 5.08 C0.36 4.91, 0.27 4.73, 0.2 4.55 C0.14 4.36, 0.09 4.17, 0.05 3.98 C0.02 3.78, 0 3.59, 0 3.39 C0 3.19, 0.02 2.99, 0.05 2.8 C0.09 2.61, 0.14 2.41, 0.2 2.23 C0.27 2.05, 0.36 1.86, 0.45 1.69 C0.55 1.52, 0.67 1.36, 0.79 1.21 C0.92 1.06, 1.06 0.92, 1.21 0.79 C1.36 0.67, 1.52 0.55, 1.69 0.45 C1.86 0.36, 2.05 0.27, 2.23 0.2 C2.41 0.14, 2.61 0.09, 2.8 0.05 C2.99 0.02, 3.19 0, 3.39 0 C3.59 0, 3.78 0.02, 3.98 0.05 C4.17 0.09, 4.36 0.14, 4.55 0.2 C4.73 0.27, 4.91 0.36, 5.08 0.45 C5.25 0.55, 5.42 0.67, 5.57 0.79 C5.72 0.92, 5.86 1.06, 5.99 1.21 C6.11 1.36, 6.23 1.52, 6.32 1.69 C6.42 1.86, 6.51 2.05, 6.57 2.23 C6.64 2.41, 6.69 2.61, 6.73 2.8 C6.76 2.99, 6.77 3.29, 6.78 3.39 C6.79 3.49, 6.79 3.29, 6.78 3.39" stroke="none" stroke-width="0" fill="#fd7e14"></path><path d="M6.78 3.39 C6.78 3.59, 6.76 3.78, 6.73 3.98 C6.69 4.17, 6.64 4.36, 6.57 4.55 C6.51 4.73, 6.42 4.91, 6.32 5.08 C6.23 5.25, 6.11 5.42, 5.99 5.57 C5.86 5.72, 5.72 5.86, 5.57 5.99 C5.42 6.11, 5.25 6.23, 5.08 6.32 C4.91 6.42, 4.73 6.51, 4.55 6.57 C4.36 6.64, 4.17 6.69, 3.98 6.73 C3.78 6.76, 3.59 6.78, 3.39 6.78 C3.19 6.78, 2.99 6.76, 2.8 6.73 C2.61 6.69, 2.41 6.64, 2.23 6.57 C2.05 6.51, 1.86 6.42, 1.69 6.32 C1.52 6.23, 1.36 6.11, 1.21 5.99 C1.06 5.86, 0.92 5.72, 0.79 5.57 C0.67 5.42, 0.55 5.25, 0.45 5.08 C0.36 4.91, 0.27 4.73, 0.2 4.55 C0.14 4.36, 0.09 4.17, 0.05 3.98 C0.02 3.78, 0 3.59, 0 3.39 C0 3.19, 0.02 2.99, 0.05 2.8 C0.09 2.61, 0.14 2.41, 0.2 2.23 C0.27 2.05, 0.36 1.86, 0.45 1.69 C0.55 1.52, 0.67 1.36, 0.79 1.21 C0.92 1.06, 1.06 0.92, 1.21 0.79 C1.36 0.67, 1.52 0.55, 1.69 0.45 C1.86 0.36, 2.05 0.27, 2.23 0.2 C2.41 0.14, 2.61 0.09, 2.8 0.05 C2.99 0.02, 3.19 0, 3.39 0 C3.59 0, 3.78 0.02, 3.98 0.05 C4.17 0.09, 4.36 0.14, 4.55 0.2 C4.73 0.27, 4.91 0.36, 5.08 0.45 C5.25 0.55, 5.42 0.67, 5.57 0.79 C5.72 0.92, 5.86 1.06, 5.99 1.21 C6.11 1.36, 6.23 1.52, 6.32 1.69 C6.42 1.86, 6.51 2.05, 6.57 2.23 C6.64 2.41, 6.69 2.61, 6.73 2.8 C6.76 2.99, 6.77 3.29, 6.78 3.39 C6.79 3.49, 6.79 3.29, 6.78 3.39" stroke="#e67700" stroke-width="1" fill="none"></path></g><g stroke-linecap="round" transform="translate(1235.9173281476105 726.8326357228143) rotate(0 3.3890352234648162 3.3890352234648162)"><path d="M6.78 3.39 C6.78 3.59, 6.76 3.78, 6.73 3.98 C6.69 4.17, 6.64 4.36, 6.57 4.55 C6.51 4.73, 6.42 4.91, 6.32 5.08 C6.23 5.25, 6.11 5.42, 5.99 5.57 C5.86 5.72, 5.72 5.86, 5.57 5.99 C5.42 6.11, 5.25 6.23, 5.08 6.32 C4.91 6.42, 4.73 6.51, 4.55 6.57 C4.36 6.64, 4.17 6.69, 3.98 6.73 C3.78 6.76, 3.59 6.78, 3.39 6.78 C3.19 6.78, 2.99 6.76, 2.8 6.73 C2.61 6.69, 2.41 6.64, 2.23 6.57 C2.05 6.51, 1.86 6.42, 1.69 6.32 C1.52 6.23, 1.36 6.11, 1.21 5.99 C1.06 5.86, 0.92 5.72, 0.79 5.57 C0.67 5.42, 0.55 5.25, 0.45 5.08 C0.36 4.91, 0.27 4.73, 0.2 4.55 C0.14 4.36, 0.09 4.17, 0.05 3.98 C0.02 3.78, 0 3.59, 0 3.39 C0 3.19, 0.02 2.99, 0.05 2.8 C0.09 2.61, 0.14 2.41, 0.2 2.23 C0.27 2.05, 0.36 1.86, 0.45 1.69 C0.55 1.52, 0.67 1.36, 0.79 1.21 C0.92 1.06, 1.06 0.92, 1.21 0.79 C1.36 0.67, 1.52 0.55, 1.69 0.45 C1.86 0.36, 2.05 0.27, 2.23 0.2 C2.41 0.14, 2.61 0.09, 2.8 0.05 C2.99 0.02, 3.19 0, 3.39 0 C3.59 0, 3.78 0.02, 3.98 0.05 C4.17 0.09, 4.36 0.14, 4.55 0.2 C4.73 0.27, 4.91 0.36, 5.08 0.45 C5.25 0.55, 5.42 0.67, 5.57 0.79 C5.72 0.92, 5.86 1.06, 5.99 1.21 C6.11 1.36, 6.23 1.52, 6.32 1.69 C6.42 1.86, 6.51 2.05, 6.57 2.23 C6.64 2.41, 6.69 2.61, 6.73 2.8 C6.76 2.99, 6.77 3.29, 6.78 3.39 C6.79 3.49, 6.79 3.29, 6.78 3.39" stroke="none" stroke-width="0" fill="#fd7e14"></path><path d="M6.78 3.39 C6.78 3.59, 6.76 3.78, 6.73 3.98 C6.69 4.17, 6.64 4.36, 6.57 4.55 C6.51 4.73, 6.42 4.91, 6.32 5.08 C6.23 5.25, 6.11 5.42, 5.99 5.57 C5.86 5.72, 5.72 5.86, 5.57 5.99 C5.42 6.11, 5.25 6.23, 5.08 6.32 C4.91 6.42, 4.73 6.51, 4.55 6.57 C4.36 6.64, 4.17 6.69, 3.98 6.73 C3.78 6.76, 3.59 6.78, 3.39 6.78 C3.19 6.78, 2.99 6.76, 2.8 6.73 C2.61 6.69, 2.41 6.64, 2.23 6.57 C2.05 6.51, 1.86 6.42, 1.69 6.32 C1.52 6.23, 1.36 6.11, 1.21 5.99 C1.06 5.86, 0.92 5.72, 0.79 5.57 C0.67 5.42, 0.55 5.25, 0.45 5.08 C0.36 4.91, 0.27 4.73, 0.2 4.55 C0.14 4.36, 0.09 4.17, 0.05 3.98 C0.02 3.78, 0 3.59, 0 3.39 C0 3.19, 0.02 2.99, 0.05 2.8 C0.09 2.61, 0.14 2.41, 0.2 2.23 C0.27 2.05, 0.36 1.86, 0.45 1.69 C0.55 1.52, 0.67 1.36, 0.79 1.21 C0.92 1.06, 1.06 0.92, 1.21 0.79 C1.36 0.67, 1.52 0.55, 1.69 0.45 C1.86 0.36, 2.05 0.27, 2.23 0.2 C2.41 0.14, 2.61 0.09, 2.8 0.05 C2.99 0.02, 3.19 0, 3.39 0 C3.59 0, 3.78 0.02, 3.98 0.05 C4.17 0.09, 4.36 0.14, 4.55 0.2 C4.73 0.27, 4.91 0.36, 5.08 0.45 C5.25 0.55, 5.42 0.67, 5.57 0.79 C5.72 0.92, 5.86 1.06, 5.99 1.21 C6.11 1.36, 6.23 1.52, 6.32 1.69 C6.42 1.86, 6.51 2.05, 6.57 2.23 C6.64 2.41, 6.69 2.61, 6.73 2.8 C6.76 2.99, 6.77 3.29, 6.78 3.39 C6.79 3.49, 6.79 3.29, 6.78 3.39" stroke="#e67700" stroke-width="1" fill="none"></path></g><g stroke-linecap="round" transform="translate(1250.566395996062 727.0146110646456) rotate(0 3.3890352234648162 3.3890352234648162)"><path d="M6.78 3.39 C6.78 3.59, 6.76 3.78, 6.73 3.98 C6.69 4.17, 6.64 4.36, 6.57 4.55 C6.51 4.73, 6.42 4.91, 6.32 5.08 C6.23 5.25, 6.11 5.42, 5.99 5.57 C5.86 5.72, 5.72 5.86, 5.57 5.99 C5.42 6.11, 5.25 6.23, 5.08 6.32 C4.91 6.42, 4.73 6.51, 4.55 6.57 C4.36 6.64, 4.17 6.69, 3.98 6.73 C3.78 6.76, 3.59 6.78, 3.39 6.78 C3.19 6.78, 2.99 6.76, 2.8 6.73 C2.61 6.69, 2.41 6.64, 2.23 6.57 C2.05 6.51, 1.86 6.42, 1.69 6.32 C1.52 6.23, 1.36 6.11, 1.21 5.99 C1.06 5.86, 0.92 5.72, 0.79 5.57 C0.67 5.42, 0.55 5.25, 0.45 5.08 C0.36 4.91, 0.27 4.73, 0.2 4.55 C0.14 4.36, 0.09 4.17, 0.05 3.98 C0.02 3.78, 0 3.59, 0 3.39 C0 3.19, 0.02 2.99, 0.05 2.8 C0.09 2.61, 0.14 2.41, 0.2 2.23 C0.27 2.05, 0.36 1.86, 0.45 1.69 C0.55 1.52, 0.67 1.36, 0.79 1.21 C0.92 1.06, 1.06 0.92, 1.21 0.79 C1.36 0.67, 1.52 0.55, 1.69 0.45 C1.86 0.36, 2.05 0.27, 2.23 0.2 C2.41 0.14, 2.61 0.09, 2.8 0.05 C2.99 0.02, 3.19 0, 3.39 0 C3.59 0, 3.78 0.02, 3.98 0.05 C4.17 0.09, 4.36 0.14, 4.55 0.2 C4.73 0.27, 4.91 0.36, 5.08 0.45 C5.25 0.55, 5.42 0.67, 5.57 0.79 C5.72 0.92, 5.86 1.06, 5.99 1.21 C6.11 1.36, 6.23 1.52, 6.32 1.69 C6.42 1.86, 6.51 2.05, 6.57 2.23 C6.64 2.41, 6.69 2.61, 6.73 2.8 C6.76 2.99, 6.77 3.29, 6.78 3.39 C6.79 3.49, 6.79 3.29, 6.78 3.39" stroke="none" stroke-width="0" fill="#fd7e14"></path><path d="M6.78 3.39 C6.78 3.59, 6.76 3.78, 6.73 3.98 C6.69 4.17, 6.64 4.36, 6.57 4.55 C6.51 4.73, 6.42 4.91, 6.32 5.08 C6.23 5.25, 6.11 5.42, 5.99 5.57 C5.86 5.72, 5.72 5.86, 5.57 5.99 C5.42 6.11, 5.25 6.23, 5.08 6.32 C4.91 6.42, 4.73 6.51, 4.55 6.57 C4.36 6.64, 4.17 6.69, 3.98 6.73 C3.78 6.76, 3.59 6.78, 3.39 6.78 C3.19 6.78, 2.99 6.76, 2.8 6.73 C2.61 6.69, 2.41 6.64, 2.23 6.57 C2.05 6.51, 1.86 6.42, 1.69 6.32 C1.52 6.23, 1.36 6.11, 1.21 5.99 C1.06 5.86, 0.92 5.72, 0.79 5.57 C0.67 5.42, 0.55 5.25, 0.45 5.08 C0.36 4.91, 0.27 4.73, 0.2 4.55 C0.14 4.36, 0.09 4.17, 0.05 3.98 C0.02 3.78, 0 3.59, 0 3.39 C0 3.19, 0.02 2.99, 0.05 2.8 C0.09 2.61, 0.14 2.41, 0.2 2.23 C0.27 2.05, 0.36 1.86, 0.45 1.69 C0.55 1.52, 0.67 1.36, 0.79 1.21 C0.92 1.06, 1.06 0.92, 1.21 0.79 C1.36 0.67, 1.52 0.55, 1.69 0.45 C1.86 0.36, 2.05 0.27, 2.23 0.2 C2.41 0.14, 2.61 0.09, 2.8 0.05 C2.99 0.02, 3.19 0, 3.39 0 C3.59 0, 3.78 0.02, 3.98 0.05 C4.17 0.09, 4.36 0.14, 4.55 0.2 C4.73 0.27, 4.91 0.36, 5.08 0.45 C5.25 0.55, 5.42 0.67, 5.57 0.79 C5.72 0.92, 5.86 1.06, 5.99 1.21 C6.11 1.36, 6.23 1.52, 6.32 1.69 C6.42 1.86, 6.51 2.05, 6.57 2.23 C6.64 2.41, 6.69 2.61, 6.73 2.8 C6.76 2.99, 6.77 3.29, 6.78 3.39 C6.79 3.49, 6.79 3.29, 6.78 3.39" stroke="#e67700" stroke-width="1" fill="none"></path></g><g transform="translate(1073.7434590610865 276.2810325469691) rotate(0 32 12.5)"><text x="0" y="18" font-family="Virgil, Segoe UI Emoji" font-size="20px" fill="#a61e4d" text-anchor="start" style="white-space: pre;" direction="ltr">Labels</text></g><g stroke-linecap="round"><g transform="translate(1067.3663318605359 285.71762699137616) rotate(0 -153.3640305151971 -13.286318249718533)"><path d="M-0.73 0.47 C-44.72 -4.15, -212.15 -26.82, -263.33 -27.04 C-314.51 -27.25, -300.45 -5.06, -307.81 -0.81 M1.08 -0.33 C-43.02 -4.88, -212.66 -25.51, -263.73 -25.92 C-314.8 -26.33, -298.02 -7.04, -305.32 -2.8" stroke="#a61e4d" stroke-width="1" fill="none"></path></g><g transform="translate(1067.3663318605359 285.71762699137616) rotate(0 -153.3640305151971 -13.286318249718533)"><path d="M-304.46 -25.71 C-306.46 -20.14, -304.02 -11.09, -305.43 -1.54 M-304.38 -27.67 C-305.59 -20.02, -304.61 -12.64, -304.85 -3.15" stroke="#a61e4d" stroke-width="1" fill="none"></path></g><g transform="translate(1067.3663318605359 285.71762699137616) rotate(0 -153.3640305151971 -13.286318249718533)"><path d="M-288.63 -19.89 C-296.17 -16.45, -299.24 -9.42, -305.43 -1.54 M-288.55 -21.85 C-294.51 -15.95, -298.3 -10.32, -304.85 -3.15" stroke="#a61e4d" stroke-width="1" fill="none"></path></g></g><mask></mask><g stroke-linecap="round"><g transform="translate(1068.795921119814 287.878134067425) rotate(0 -108.23371063561126 -3.564345493723522)"><path d="M0.47 1.05 C-30.91 -0.95, -151.42 -13.32, -187.59 -12.74 C-223.75 -12.15, -211.58 1.47, -216.53 4.56 M-0.75 0.56 C-31.8 -1.24, -149.27 -12.44, -185.3 -11.6 C-221.33 -10.75, -211.64 3.09, -216.93 5.63" stroke="#a61e4d" stroke-width="1" fill="none"></path></g><g transform="translate(1068.795921119814 287.878134067425) rotate(0 -108.23371063561126 -3.564345493723522)"><path d="M-213.36 -12.84 C-216.83 -4.51, -217.15 0.58, -215.84 5.64 M-215.07 -11.92 C-215.45 -6.15, -216.06 -1.48, -217.24 5.53" stroke="#a61e4d" stroke-width="1" fill="none"></path></g><g transform="translate(1068.795921119814 287.878134067425) rotate(0 -108.23371063561126 -3.564345493723522)"><path d="M-202.72 -7.48 C-209.95 -1.02, -214.07 2.16, -215.84 5.64 M-204.43 -6.56 C-207.81 -2.21, -211.43 0.94, -217.24 5.53" stroke="#a61e4d" stroke-width="1" fill="none"></path></g></g><mask></mask><g stroke-linecap="round"><g transform="translate(1066.2842868572734 294.01569397003914) rotate(0 -46.14912715118135 23.961902115963312)"><path d="M1.05 -0.8 C-10.85 7.13, -56.56 43.21, -72.12 48.02 C-87.68 52.84, -89.17 31.39, -92.33 28.08 M0.14 1.39 C-11.31 8.93, -54.23 41.6, -69.81 46.26 C-85.39 50.92, -89.91 32.19, -93.35 29.36" stroke="#a61e4d" stroke-width="1" fill="none"></path></g><g transform="translate(1066.2842868572734 294.01569397003914) rotate(0 -46.14912715118135 23.961902115963312)"><path d="M-83.17 37.05 C-84.13 35.42, -87.66 34.82, -93.34 29.11 M-82.43 37.96 C-85.12 35.35, -88.61 32.55, -93.43 29.13" stroke="#a61e4d" stroke-width="1" fill="none"></path></g><g transform="translate(1066.2842868572734 294.01569397003914) rotate(0 -46.14912715118135 23.961902115963312)"><path d="M-91.29 42.18 C-90.32 39.26, -91.91 37.43, -93.34 29.11 M-90.55 43.09 C-90.86 38.97, -91.93 34.64, -93.43 29.13" stroke="#a61e4d" stroke-width="1" fill="none"></path></g></g><mask></mask><g transform="translate(50.773633470076675 554.2528893790623) rotate(0 41 12.5)"><text x="0" y="18" font-family="Virgil, Segoe UI Emoji" font-size="20px" fill="#000000" text-anchor="start" style="white-space: pre;" direction="ltr">Label: y1</text></g><g transform="translate(171.01292261257913 556.4116945820824) rotate(0 53.5 12.5)"><text x="0" y="18" font-family="Virgil, Segoe UI Emoji" font-size="20px" fill="#000000" text-anchor="start" style="white-space: pre;" direction="ltr">It can be </text></g><g transform="translate(305.69129543626696 490.05309847659737) rotate(0 266.5 12.5)"><text x="0" y="18" font-family="Virgil, Segoe UI Emoji" font-size="20px" fill="#000000" text-anchor="start" style="white-space: pre;" direction="ltr">an element belonging to a set of classes {1, 2, ..., C}</text></g><g transform="translate(351.44175775089025 518.174680182372) rotate(0 68 12.5)"><text x="0" y="18" font-family="Virgil, Segoe UI Emoji" font-size="20px" fill="#000000" text-anchor="start" style="white-space: pre;" direction="ltr">a real number</text></g><g transform="translate(396.11943832565703 542.5602573207252) rotate(0 43.5 12.5)"><text x="0" y="18" font-family="Virgil, Segoe UI Emoji" font-size="20px" fill="#000000" text-anchor="start" style="white-space: pre;" direction="ltr">a vector</text></g><g transform="translate(396.70148885585695 564.6895997312786) rotate(0 43 12.5)"><text x="0" y="18" font-family="Virgil, Segoe UI Emoji" font-size="20px" fill="#000000" text-anchor="start" style="white-space: pre;" direction="ltr">a matrix</text></g><g transform="translate(353.96692954611717 587.8242103784614) rotate(0 33 12.5)"><text x="0" y="18" font-family="Virgil, Segoe UI Emoji" font-size="20px" fill="#000000" text-anchor="start" style="white-space: pre;" direction="ltr">a tree</text></g><g transform="translate(307.957823267363 607.4526146231474) rotate(0 38 12.5)"><text x="0" y="18" font-family="Virgil, Segoe UI Emoji" font-size="20px" fill="#000000" text-anchor="start" style="white-space: pre;" direction="ltr">a graph</text></g><g stroke-linecap="round"><g transform="translate(274.03274922365745 566.7128776305872) rotate(0 11.234126282477064 -24.953181775694247)"><path d="M-0.02 1.03 C3.97 -7.43, 19.91 -42.47, 23.96 -50.94 M-1.49 0.52 C2.32 -7.74, 18.71 -40.88, 22.88 -49.57" stroke="#e67700" stroke-width="1" fill="none"></path></g><g transform="translate(274.03274922365745 566.7128776305872) rotate(0 11.234126282477064 -24.953181775694247)"><path d="M21.67 -22.1 C20.33 -30.02, 23.2 -38.5, 23.8 -50.29 M19.38 -22.65 C21.83 -29.56, 22.67 -37.96, 23.73 -49.09" stroke="#e67700" stroke-width="1" fill="none"></path></g><g transform="translate(274.03274922365745 566.7128776305872) rotate(0 11.234126282477064 -24.953181775694247)"><path d="M4.42 -30.51 C8.25 -35.9, 16.31 -41.84, 23.8 -50.29 M2.13 -31.05 C9.53 -35.58, 15.35 -41.55, 23.73 -49.09" stroke="#e67700" stroke-width="1" fill="none"></path></g></g><mask></mask><g stroke-linecap="round"><g transform="translate(277.9080533896067 566.0851889793666) rotate(0 32.37590896797292 -16.796174432811313)"><path d="M1.03 -0.26 C11.84 -5.81, 53.84 -27.82, 64.64 -33.34 M0.11 -1.44 C10.75 -6.78, 52.62 -26.68, 63.52 -31.78" stroke="#e67700" stroke-width="1" fill="none"></path></g><g transform="translate(277.9080533896067 566.0851889793666) rotate(0 32.37590896797292 -16.796174432811313)"><path d="M41.99 -11.02 C48.43 -15.22, 54.3 -21.75, 62.81 -32.01 M41.45 -9.52 C48.18 -15.1, 53.48 -20.89, 64 -31.01" stroke="#e67700" stroke-width="1" fill="none"></path></g><g transform="translate(277.9080533896067 566.0851889793666) rotate(0 32.37590896797292 -16.796174432811313)"><path d="M33.22 -29.57 C42.13 -28.61, 50.48 -29.91, 62.81 -32.01 M32.68 -28.08 C41.8 -28.64, 49.43 -29.47, 64 -31.01" stroke="#e67700" stroke-width="1" fill="none"></path></g></g><mask></mask><g stroke-linecap="round"><g transform="translate(279.2280883219064 572.7249325685952) rotate(0 53.766252819107194 -9.447831350395063)"><path d="M-0.26 -0.33 C17.71 -3.32, 89.79 -14.08, 107.79 -16.89 M1.81 -1.56 C19.63 -4.35, 89.33 -15.61, 106.85 -18.56" stroke="#e67700" stroke-width="1" fill="none"></path></g><g transform="translate(279.2280883219064 572.7249325685952) rotate(0 53.766252819107194 -9.447831350395063)"><path d="M80.14 -3.82 C89.81 -8.23, 97.11 -13.29, 106.63 -19.22 M81.64 -3.69 C90.16 -8.52, 98.5 -12.61, 107.63 -17.62" stroke="#e67700" stroke-width="1" fill="none"></path></g><g transform="translate(279.2280883219064 572.7249325685952) rotate(0 53.766252819107194 -9.447831350395063)"><path d="M76.82 -24.07 C87.65 -22.43, 95.94 -21.45, 106.63 -19.22 M78.31 -23.94 C87.79 -22.21, 97.2 -19.77, 107.63 -17.62" stroke="#e67700" stroke-width="1" fill="none"></path></g></g><mask></mask><g stroke-linecap="round"><g transform="translate(281.90297136824483 575.1891058608089) rotate(0 56.132562009402136 1.2462558031475055)"><path d="M-0.33 0.03 C18.26 0.4, 93.83 1.71, 112.6 1.97 M1.69 -1 C20.11 -0.41, 93.75 2.89, 112.1 3.5" stroke="#e67700" stroke-width="1" fill="none"></path></g><g transform="translate(281.90297136824483 575.1891058608089) rotate(0 56.132562009402136 1.2462558031475055)"><path d="M83.58 14.07 C94.54 10.12, 104.88 5.44, 111.45 3.94 M83.7 13.57 C90.37 11, 97.95 8.71, 113.05 2.99" stroke="#e67700" stroke-width="1" fill="none"></path></g><g transform="translate(281.90297136824483 575.1891058608089) rotate(0 56.132562009402136 1.2462558031475055)"><path d="M84.39 -6.44 C94.99 -2.48, 105.02 0.75, 111.45 3.94 M84.51 -6.93 C90.78 -4.53, 98.17 -1.85, 113.05 2.99" stroke="#e67700" stroke-width="1" fill="none"></path></g></g><mask></mask><g stroke-linecap="round"><g transform="translate(278.0357672859718 581.6681206850735) rotate(0 32.396354692649766 8.07397005722487)"><path d="M0.03 0.86 C11.11 3.56, 55.25 13.49, 66.21 15.88 M-1.42 0.27 C9.52 2.64, 54.21 11.35, 65.25 14.05" stroke="#e67700" stroke-width="1" fill="none"></path></g><g transform="translate(278.0357672859718 581.6681206850735) rotate(0 32.396354692649766 8.07397005722487)"><path d="M36.97 18.09 C44.75 16.27, 51.88 15.19, 65.7 12.89 M36.47 17.95 C42.38 17.73, 48.34 17.36, 64.74 14.37" stroke="#e67700" stroke-width="1" fill="none"></path></g><g transform="translate(278.0357672859718 581.6681206850735) rotate(0 32.396354692649766 8.07397005722487)"><path d="M41.3 -1.97 C47.82 1.8, 53.74 6.31, 65.7 12.89 M40.8 -2.11 C46.02 1.75, 51.1 5.46, 64.74 14.37" stroke="#e67700" stroke-width="1" fill="none"></path></g></g><mask></mask><g stroke-linecap="round"><g transform="translate(269.6997763000054 584.8020942222138) rotate(0 14.112528925099923 16.065136476475345)"><path d="M0.86 -0.02 C5.65 5.29, 23.9 26.57, 28.37 31.89 M-0.14 -1.08 C4.56 4.4, 23.22 27.52, 27.71 33.21" stroke="#e67700" stroke-width="1" fill="none"></path></g><g transform="translate(269.6997763000054 584.8020942222138) rotate(0 14.112528925099923 16.065136476475345)"><path d="M9.46 23.06 C13.74 24.79, 18.76 28.48, 26.56 31.27 M9.32 22.98 C17.17 27.09, 24.8 30.17, 28.04 33.7" stroke="#e67700" stroke-width="1" fill="none"></path></g><g transform="translate(269.6997763000054 584.8020942222138) rotate(0 14.112528925099923 16.065136476475345)"><path d="M20.85 13.94 C22.03 18.23, 23.95 24.4, 26.56 31.27 M20.71 13.86 C24.09 21.67, 27.24 28.34, 28.04 33.7" stroke="#e67700" stroke-width="1" fill="none"></path></g></g><mask></mask><g transform="translate(540.6979264264519 943.7375909783404) rotate(0 389 12.5)"><text x="0" y="18" font-family="Virgil, Segoe UI Emoji" font-size="20px" fill="#000000" text-anchor="start" style="white-space: pre;" direction="ltr">and outputs information that allows deducing a label for this feature vector.</text></g><g transform="translate(50.83113510019757 792.3389711309101) rotate(0 23 12.5)"><text x="0" y="18" font-family="Virgil, Segoe UI Emoji" font-size="20px" fill="#364fc7" text-anchor="start" style="white-space: pre;" direction="ltr">Goal</text></g><g transform="translate(52.05733619932107 825.6107166835463) rotate(0 176.5 12.5)"><text x="0" y="18" font-family="Virgil, Segoe UI Emoji" font-size="20px" fill="#000000" text-anchor="start" style="white-space: pre;" direction="ltr">Use a dataset to produce a model</text></g><g transform="translate(380.1963552951711 886.0444004631463) rotate(0 203.5 12.5)"><text x="0" y="18" font-family="Virgil, Segoe UI Emoji" font-size="20px" fill="#000000" text-anchor="start" style="white-space: pre;" direction="ltr">that takes a feature vector x as input</text></g><g stroke-linecap="round"><g transform="translate(277.52279647371506 859.5073066841906) rotate(0 42.28565689549487 21.439097648700226)"><path d="M-0.39 0.27 C-1.1 6.6, -20.66 30.91, -4.68 37.83 C11.31 44.75, 78.81 41.19, 95.51 41.78 M1.6 -0.64 C1.32 5.81, -17.95 31.45, -2.33 38.76 C13.29 46.07, 79.5 42.61, 95.34 43.21" stroke="#364fc7" stroke-width="1" fill="none"></path></g><g transform="translate(277.52279647371506 859.5073066841906) rotate(0 42.28565689549487 21.439097648700226)"><path d="M67.66 52.49 C72.72 52.85, 82.44 50.1, 94.99 44.91 M66.7 53.97 C77.42 49.8, 86.66 45.98, 96.03 43.04" stroke="#364fc7" stroke-width="1" fill="none"></path></g><g transform="translate(277.52279647371506 859.5073066841906) rotate(0 42.28565689549487 21.439097648700226)"><path d="M67.53 31.97 C72.6 37.75, 82.36 40.43, 94.99 44.91 M66.58 33.45 C77.49 36.42, 86.78 39.75, 96.03 43.04" stroke="#364fc7" stroke-width="1" fill="none"></path></g></g><mask></mask><g stroke-linecap="round"><g transform="translate(431.5936942327098 919.5144604667912) rotate(0 41.74876792063651 21.675445495441636)"><path d="M0.27 -0.69 C-0.57 6.06, -20.87 32.89, -5.15 40.12 C10.57 47.35, 78.04 42.29, 94.6 42.7 M-1.05 1.56 C-1.52 8.04, -18.88 32.02, -3.05 38.59 C12.79 45.15, 77.71 40.62, 93.94 40.95" stroke="#364fc7" stroke-width="1" fill="none"></path></g><g transform="translate(431.5936942327098 919.5144604667912) rotate(0 41.74876792063651 21.675445495441636)"><path d="M64.84 49.93 C75.97 49, 84.04 45.16, 95.64 41.92 M66.32 52.36 C76.48 47.84, 86.84 44.47, 93.77 41.24" stroke="#364fc7" stroke-width="1" fill="none"></path></g><g transform="translate(431.5936942327098 919.5144604667912) rotate(0 41.74876792063651 21.675445495441636)"><path d="M64.36 29.41 C75.56 34.4, 83.77 36.48, 95.64 41.92 M65.84 31.85 C76.38 35.06, 86.92 39.43, 93.77 41.24" stroke="#364fc7" stroke-width="1" fill="none"></path></g></g><mask></mask><g transform="translate(59.89536485615827 135.68379464978352) rotate(0 173.5 12.5)"><text x="0" y="18" font-family="Virgil, Segoe UI Emoji" font-size="20px" fill="#000000" text-anchor="start" style="white-space: pre;" direction="ltr">illustrated-machine-learning.github.io</text></g></svg>