<svg xmlns="http://www.w3.org/2000/svg" viewBox="0 0 500 500"><g id="freepik--background-simple--inject-42"><path d="M432,247c-36.39,68.29-106.38,117.14-203.15,111.63-1.76-.1-3.52-.22-5.28-.35C144,352.25,65.64,312,41.69,240.63c-13.94-41.53,5.94-90.26,46.5-114,44.57-26.08,103.4-21.26,152.64-39.41C269,76.85,293.73,59,323.26,52.33c31-7,66.36-6.44,93.91,9.62C486.45,102.3,461.39,191.91,432,247Z" style="fill:#3C75DB"></path><path d="M432,247c-36.39,68.29-106.38,117.14-203.15,111.63-1.76-.1-3.52-.22-5.28-.35C144,352.25,65.64,312,41.69,240.63c-13.94-41.53,5.94-90.26,46.5-114,44.57-26.08,103.4-21.26,152.64-39.41C269,76.85,293.73,59,323.26,52.33c31-7,66.36-6.44,93.91,9.62C486.45,102.3,461.39,191.91,432,247Z" style="fill:#fff;opacity:0.7000000000000001"></path></g><g id="freepik--Graphics--inject-42"><path d="M396.49,95a.49.49,0,0,0,.15-.35V53.11l-1-.31V94.45l-11.32,11.32a.51.51,0,0,0-.14.36v10.08a2.49,2.49,0,1,0,1,0v-9.88Z" style="fill:#3C75DB"></path><path d="M418.56,62.79v88.05a2.48,2.48,0,0,0-2.09,2.44v0a2.5,2.5,0,1,0,3.09-2.43V63.39Z" style="fill:#3C75DB"></path><path d="M391.46,155.33V134l15.26-15.27a.47.47,0,0,0,.15-.35V56.8l-1-.42v61.79l-15.26,15.27a.49.49,0,0,0-.15.35v21.6a2.48,2.48,0,1,0,1-.06Z" style="fill:#3C75DB"></path><g style="opacity:0.3"><path d="M396.49,95a.49.49,0,0,0,.15-.35V53.11l-1-.31V94.45l-11.32,11.32a.51.51,0,0,0-.14.36v10.08a2.49,2.49,0,1,0,1,0v-9.88Z"></path><path d="M418.56,62.79v88.05a2.48,2.48,0,0,0-2.09,2.44v0a2.5,2.5,0,1,0,3.09-2.43V63.39Z"></path><path d="M391.46,155.33V134l15.26-15.27a.47.47,0,0,0,.15-.35V56.8l-1-.42v61.79l-15.26,15.27a.49.49,0,0,0-.15.35v21.6a2.48,2.48,0,1,0,1-.06Z"></path></g><path d="M256.86,307.48l15.26-15.27a.51.51,0,0,0,.15-.35v-21.6a2.51,2.51,0,1,0-1,.05v21.34L256,306.92a.47.47,0,0,0-.15.35v51.5l1-.06Z" style="fill:#3C75DB"></path><path d="M267.09,331.2l11.32-11.32a.54.54,0,0,0,.14-.36V309.44a2.49,2.49,0,1,0-1,0v9.88l-11.31,11.31a.47.47,0,0,0-.15.35V358l1-.1Z" style="fill:#3C75DB"></path><path d="M243.17,359.07h1V274.81a2.48,2.48,0,0,0,2.09-2.44v0a2.5,2.5,0,1,0-3.09,2.42Z" style="fill:#3C75DB"></path><g style="opacity:0.3"><path d="M256.86,307.48l15.26-15.27a.51.51,0,0,0,.15-.35v-21.6a2.51,2.51,0,1,0-1,.05v21.34L256,306.92a.47.47,0,0,0-.15.35v51.5l1-.06Z"></path><path d="M267.09,331.2l11.32-11.32a.54.54,0,0,0,.14-.36V309.44a2.49,2.49,0,1,0-1,0v9.88l-11.31,11.31a.47.47,0,0,0-.15.35V358l1-.1Z"></path><path d="M243.17,359.07h1V274.81a2.48,2.48,0,0,0,2.09-2.44v0a2.5,2.5,0,1,0-3.09,2.42Z"></path></g><path d="M305.4,84.52a15.13,15.13,0,1,0,10.69,18.54h0A15.15,15.15,0,0,0,305.4,84.52Zm10.16,18.39a14.58,14.58,0,0,1-28.16-7.56h0a14.58,14.58,0,1,1,28.16,7.56Z" style="fill:#3C75DB"></path><path d="M320,84.07l2.22-4.66a.26.26,0,0,0-.07-.33l-4.56-3.82a.26.26,0,0,0-.33,0l-4.2,3a23.24,23.24,0,0,0-5.14-2.1L307.09,71a.27.27,0,0,0-.25-.23l-5.92-.54a.28.28,0,0,0-.29.18l-1.73,4.93a24.08,24.08,0,0,0-5.36,1.22l-3.73-3.77a.27.27,0,0,0-.33,0l-5.15,3a.27.27,0,0,0-.13.32l1.44,5.11a23.77,23.77,0,0,0-5.76,7.58l-5.39-.08a.27.27,0,0,0-.26.2l-1.55,5.75a.29.29,0,0,0,.13.31l4.74,2.65a23.68,23.68,0,0,0,.24,5.32l-4.5,3.06a.27.27,0,0,0-.09.32l2,5.59a.26.26,0,0,0,.29.18l5.43-.55a23.56,23.56,0,0,0,3.22,4.22l-1.95,5.09a.29.29,0,0,0,.1.33l4.87,3.41a.29.29,0,0,0,.34,0l4.11-3.55a25,25,0,0,0,3.61,1.29c.46.12.93.23,1.48.34l1.33,5.25a.28.28,0,0,0,.26.21h5.95a.26.26,0,0,0,.27-.2l1.32-5.18a24.49,24.49,0,0,0,5.16-1.6l4,3.47a.27.27,0,0,0,.33,0l4.88-3.43a.26.26,0,0,0,.09-.32l-1.84-4.92a23.38,23.38,0,0,0,3.38-4.35l5.24.49a.28.28,0,0,0,.29-.18l2-5.59a.25.25,0,0,0-.12-.25l-4.26-2.94a23.9,23.9,0,0,0,.27-5.54L329.83,95a.26.26,0,0,0,.13-.3L328.42,89a.27.27,0,0,0-.27-.21l-5.13,0A24.41,24.41,0,0,0,320,84.07Zm9.37,10.51-4.46,2.52a.3.3,0,0,0-.14.27,23.17,23.17,0,0,1-.28,5.76.26.26,0,0,0,.11.27l4.24,2.91-1.89,5.2-5.15-.52a.28.28,0,0,0-.27.14,23.75,23.75,0,0,1-3.5,4.5.28.28,0,0,0-.08.29l1.84,4.89L315.28,124l-4-3.45a.26.26,0,0,0-.29,0,23.58,23.58,0,0,1-5.38,1.65.28.28,0,0,0-.22.2l-1.28,5.17h-5.53l-1.31-5.21a.32.32,0,0,0-.21-.21,15.12,15.12,0,0,1-1.61-.36,23.86,23.86,0,0,1-3.69-1.33.26.26,0,0,0-.29,0l-4.1,3.52-4.53-3.17,1.94-5.06a.31.31,0,0,0-.06-.29,23.52,23.52,0,0,1-3.36-4.4.28.28,0,0,0-.26-.13l-5.41.55-1.88-5.19,4.49-3a.29.29,0,0,0,.12-.27,22.84,22.84,0,0,1-.25-5.54.27.27,0,0,0-.14-.26l-4.71-2.63,1.44-5.34,5.35.07a.26.26,0,0,0,.25-.15,23.31,23.31,0,0,1,5.82-7.67.29.29,0,0,0,.08-.29l-1.43-5.08,4.79-2.76,3.66,3.74a.28.28,0,0,0,.29.08,22.92,22.92,0,0,1,5.55-1.26.26.26,0,0,0,.23-.18l1.73-4.9,5.5.49.85,5.08a.3.3,0,0,0,.2.22A23.42,23.42,0,0,1,313,78.76a.27.27,0,0,0,.3,0l4.16-3,4.23,3.55L319.46,84a.28.28,0,0,0,0,.29,24.25,24.25,0,0,1,3.11,4.89.26.26,0,0,0,.24.16l5.11,0Z" style="fill:#3C75DB"></path><path d="M356.13,125.42,358.4,122a.29.29,0,0,0,0-.36l-4.72-4a.29.29,0,0,0-.37,0l-3,2.83a19.54,19.54,0,0,0-4.18-1.71l-.11-4.14a.27.27,0,0,0-.25-.27l-6.16-.54a.27.27,0,0,0-.3.22l-.84,4.09a19.73,19.73,0,0,0-4.35,1l-2.51-3.39a.28.28,0,0,0-.35-.09l-5.36,3.09a.27.27,0,0,0-.1.35l1.69,3.91a19.92,19.92,0,0,0-4.73,6.23l-4.27-.63a.29.29,0,0,0-.31.2l-1.6,6a.28.28,0,0,0,.16.33l4,1.61a20,20,0,0,0,.19,4.31L317,143a.27.27,0,0,0-.14.34l2.12,5.83a.26.26,0,0,0,.32.17l4.26-1a19.41,19.41,0,0,0,2.61,3.43l-2.08,3.84a.29.29,0,0,0,.08.36l5.07,3.56a.27.27,0,0,0,.36-.05l2.89-3.26a19.66,19.66,0,0,0,3,1.05c.36.1.74.19,1.18.28l.5,4.3a.27.27,0,0,0,.27.25h6.19a.29.29,0,0,0,.28-.25l.49-4.25a20.08,20.08,0,0,0,4.21-1.29l2.82,3.18a.28.28,0,0,0,.37.05l5.07-3.55a.28.28,0,0,0,.09-.35l-2-3.7a19.51,19.51,0,0,0,2.75-3.52l4.06,1a.27.27,0,0,0,.32-.17l2.09-5.82v0A.26.26,0,0,0,364,143l-3.7-1.86a20,20,0,0,0,.22-4.51l3.83-1.51a.27.27,0,0,0,.16-.33l-1.59-6a.29.29,0,0,0-.31-.2l-4.06.6A20.06,20.06,0,0,0,356.13,125.42Zm7.83,9.32-3.79,1.49a.28.28,0,0,0-.17.28,19.62,19.62,0,0,1-.23,4.78.27.27,0,0,0,.14.3l3.66,1.83-2,5.35-4-1a.25.25,0,0,0-.29.13,19.15,19.15,0,0,1-2.92,3.73.27.27,0,0,0,0,.32l2,3.69L351.63,159l-2.79-3.15a.28.28,0,0,0-.32-.09,19.37,19.37,0,0,1-4.46,1.38.28.28,0,0,0-.23.24l-.49,4.21h-5.69l-.49-4.26a.29.29,0,0,0-.22-.24,11.3,11.3,0,0,1-1.34-.3,19.58,19.58,0,0,1-3.06-1.1.27.27,0,0,0-.32.06l-2.86,3.22-4.66-3.27,2.07-3.8a.27.27,0,0,0,0-.32,19.72,19.72,0,0,1-2.79-3.65.26.26,0,0,0-.3-.13l-4.21,1-1.95-5.35,3.87-1.94a.28.28,0,0,0,.15-.29,18.65,18.65,0,0,1-.21-4.6.26.26,0,0,0-.18-.27l-4-1.6,1.47-5.47,4.24.62a.29.29,0,0,0,.29-.16,19.06,19.06,0,0,1,4.83-6.36A.28.28,0,0,0,328,123l-1.67-3.86,4.91-2.86,2.49,3.35a.28.28,0,0,0,.31.08,19.23,19.23,0,0,1,4.62-1,.27.27,0,0,0,.24-.22l.83-4,5.68.49.11,4.1a.27.27,0,0,0,.2.26,19.41,19.41,0,0,1,4.43,1.82.27.27,0,0,0,.32,0l3-2.8,4.37,3.66-2.25,3.4a.29.29,0,0,0,0,.33,19.35,19.35,0,0,1,2.59,4,.29.29,0,0,0,.29.16l4-.6Z" style="fill:#3C75DB"></path><path d="M343.92,125.77a12.63,12.63,0,1,0,8.92,15.48h0A12.65,12.65,0,0,0,343.92,125.77Zm8.39,15.35A12.09,12.09,0,1,1,329,134.84h0a12.09,12.09,0,0,1,14.79-8.53h0A12.09,12.09,0,0,1,352.31,141.12Z" style="fill:#3C75DB"></path><path d="M300.89,139.91l-.94-3.52a.14.14,0,0,0-.17-.11l-2.39.35a11.71,11.71,0,0,0-1.44-2.24l1.34-2a.18.18,0,0,0,0-.22l-2.78-2.33a.15.15,0,0,0-.21,0l-1.76,1.66a11.69,11.69,0,0,0-2.46-1L290,128a.15.15,0,0,0-.14-.15l-3.63-.32a.16.16,0,0,0-.17.13l-.5,2.4a11.66,11.66,0,0,0-2.55.59l-1.48-2a.16.16,0,0,0-.21-.06l-3.15,1.82a.15.15,0,0,0,0,.2l1,2.3a11.58,11.58,0,0,0-2.78,3.66l-2.51-.36a.17.17,0,0,0-.18.11l-.95,3.52a.16.16,0,0,0,.1.19l2.37.95a12,12,0,0,0,.12,2.54l-2.3,1.14a.16.16,0,0,0-.08.2l1.24,3.43a.16.16,0,0,0,.19.1l2.51-.59a11.47,11.47,0,0,0,1.53,2l-1.22,2.26a.16.16,0,0,0,.05.21l3,2.09a.15.15,0,0,0,.21,0l1.7-1.92a12,12,0,0,0,1.74.62c.21.05.43.11.7.16l.29,2.53a.16.16,0,0,0,.16.15h3.64a.16.16,0,0,0,.16-.14l.29-2.5a11.8,11.8,0,0,0,2.47-.77l1.66,1.88a.18.18,0,0,0,.22,0l3-2.09a.18.18,0,0,0,.06-.21L295.26,150a12,12,0,0,0,1.61-2.07l2.39.57a.17.17,0,0,0,.19-.1l1.23-3.42v0a.16.16,0,0,0-.09-.2l-2.18-1.09a11.17,11.17,0,0,0,.13-2.65l2.26-.89A.14.14,0,0,0,300.89,139.91Zm-2.56.83a.16.16,0,0,0-.1.17,11.5,11.5,0,0,1-.14,2.81.15.15,0,0,0,.09.17l2.15,1.08-1.15,3.15-2.37-.57a.18.18,0,0,0-.18.08,11.39,11.39,0,0,1-1.71,2.2.17.17,0,0,0,0,.19l1.16,2.16-2.74,1.92-1.65-1.85a.14.14,0,0,0-.18-.05,12,12,0,0,1-2.63.81.16.16,0,0,0-.13.14l-.29,2.47h-3.34l-.29-2.51a.17.17,0,0,0-.13-.14,6,6,0,0,1-.79-.17,12.45,12.45,0,0,1-1.8-.65.16.16,0,0,0-.19,0l-1.68,1.89-2.74-1.92,1.22-2.24a.17.17,0,0,0,0-.19,11,11,0,0,1-1.63-2.15.16.16,0,0,0-.18-.07l-2.48.59L273.23,145l2.27-1.14a.17.17,0,0,0,.09-.17,11.62,11.62,0,0,1-.13-2.7.14.14,0,0,0-.1-.16l-2.35-.94.86-3.22,2.5.36a.14.14,0,0,0,.16-.09,11.36,11.36,0,0,1,2.85-3.74.18.18,0,0,0,.05-.19l-1-2.27,2.89-1.68,1.46,2a.19.19,0,0,0,.19.05,11.35,11.35,0,0,1,2.71-.62.15.15,0,0,0,.14-.13l.49-2.38,3.34.3.07,2.41a.15.15,0,0,0,.11.15,10.79,10.79,0,0,1,2.61,1.07.17.17,0,0,0,.19,0l1.74-1.64,2.56,2.15-1.32,2a.18.18,0,0,0,0,.19,11.3,11.3,0,0,1,1.53,2.39.17.17,0,0,0,.17.09l2.36-.35.87,3.23Z" style="fill:#3C75DB"></path><path d="M288.77,134.59a7.43,7.43,0,1,0,5.25,9.1h0A7.44,7.44,0,0,0,288.77,134.59Zm4.94,9A7.11,7.11,0,0,1,280,139.92h0a7.11,7.11,0,0,1,8.7-5h0A7.1,7.1,0,0,1,293.71,143.61Z" style="fill:#3C75DB"></path><path d="M197.19,148.9a.32.32,0,0,0-.29-.27l-6-.46a28,28,0,0,0-3-5.62l3.09-5.29a.33.33,0,0,0-.05-.39L186.09,132a.3.3,0,0,0-.39,0l-5.28,3.14a27.37,27.37,0,0,0-10.2-4.16l-1.52-6a.32.32,0,0,0-.31-.24h-6.88a.32.32,0,0,0-.31.24L159.66,131a28,28,0,0,0-5.87,1.86L149,128.73a.33.33,0,0,0-.4,0l-5.63,4a.31.31,0,0,0-.12.37l2.25,5.9a28.18,28.18,0,0,0-3.75,4.87l-6.27-.65a.33.33,0,0,0-.34.21l-2.35,6.46a.31.31,0,0,0,.12.37l5.2,3.53a27.26,27.26,0,0,0-.36,4.42c0,.55,0,1.11.06,1.76L132,163a.31.31,0,0,0-.15.36l1.76,6.64a.31.31,0,0,0,.32.24l6.18-.08a28.2,28.2,0,0,0,3.33,5.29L140.74,181a.31.31,0,0,0,.09.38l5.28,4.43a.32.32,0,0,0,.39,0l4.95-3.53a27.55,27.55,0,0,0,5.87,2.47l1,6a.34.34,0,0,0,.29.27l6.85.58a.32.32,0,0,0,.25-.21l2-5.64a27.62,27.62,0,0,0,6.28-1.36l4.19,4.25a.33.33,0,0,0,.38.06l6-3.45a.34.34,0,0,0,.15-.36l-1.58-5.73a28.41,28.41,0,0,0,4.35-4.75l5.88,1.08a.31.31,0,0,0,.34-.18l2.91-6.24a.33.33,0,0,0-.09-.38l-4.59-3.79a27.39,27.39,0,0,0,.81-6.37l5.46-2.49a.33.33,0,0,0,.19-.34Zm-32.11,26.15a16.86,16.86,0,0,1,0-33.72h0a16.87,16.87,0,0,1,0,33.73Z" style="fill:#3C75DB;stroke:#263238;stroke-linecap:round;stroke-linejoin:round"></path><path d="M160.09,205.14a.33.33,0,0,0-.34-.26l-4.82.29a22.72,22.72,0,0,0-2.42-4.57l3-3.82a.33.33,0,0,0,0-.42l-5.06-5.06a.31.31,0,0,0-.42,0l-3.86,3.06a22.66,22.66,0,0,0-8.38-3.41l-.59-5a.31.31,0,0,0-.31-.28h-7.16a.32.32,0,0,0-.32.28l-.58,5a22.79,22.79,0,0,0-4.77,1.5l-3.34-3.77a.31.31,0,0,0-.43-.05l-5.87,4.11a.32.32,0,0,0-.1.41l2.41,4.45a22.88,22.88,0,0,0-3,4l-4.92-1.17a.31.31,0,0,0-.37.2L106,207.33a.31.31,0,0,0,.16.4l4.51,2.25a23.15,23.15,0,0,0-.29,3.62c0,.43,0,.88,0,1.4l-4.67,1.84a.32.32,0,0,0-.19.38l1.85,6.92a.31.31,0,0,0,.35.24l4.9-.73a23,23,0,0,0,2.71,4.31l-2.72,4.11a.34.34,0,0,0,.06.43l5.49,4.6a.33.33,0,0,0,.42,0l3.53-3.35a22.67,22.67,0,0,0,4.76,2l.13,4.84a.31.31,0,0,0,.29.3l7.13.59h0a.32.32,0,0,0,.33-.27l1-4.7a22.75,22.75,0,0,0,5.1-1.1l2.85,3.83a.31.31,0,0,0,.41.08l6.2-3.58a.32.32,0,0,0,.13-.4L148.57,231a23.49,23.49,0,0,0,3.53-3.86l4.51,1.5a.32.32,0,0,0,.39-.17l3-6.46a.32.32,0,0,0-.13-.4l-4.05-2.5a23.12,23.12,0,0,0,.66-5.18l4.59-1.37a.31.31,0,0,0,.23-.36Zm-12.69,8.45a14,14,0,1,1-14-14v0a14,14,0,0,1,14,14Z" style="fill:#3C75DB;stroke:#263238;stroke-linecap:round;stroke-linejoin:round"></path></g><g id="freepik--Shadow--inject-42"><ellipse cx="248.07" cy="406.4" rx="192.12" ry="39.56" style="fill:#3C75DB"></ellipse><ellipse cx="248.07" cy="406.4" rx="192.12" ry="39.56" style="fill:#fff;opacity:0.5"></ellipse></g><g id="freepik--Platform--inject-42"><polygon points="259.28 406.98 110.16 406.98 135.91 333.9 233.31 333.9 259.28 406.98" style="fill:#263238"></polygon><rect x="109.74" y="406.98" width="149.97" height="6.14" style="fill:#263238"></rect><polygon points="259.28 406.98 110.16 406.98 135.91 333.9 233.31 333.9 259.28 406.98" style="fill:#fff;stroke:#263238;stroke-linecap:round;stroke-linejoin:round"></polygon><polygon points="259.28 406.98 110.16 406.98 135.91 333.9 233.31 333.9 259.28 406.98" style="fill:none;stroke:#263238;stroke-linecap:round;stroke-linejoin:round"></polygon><line x1="141.97" y1="388.93" x2="252.87" y2="388.93" style="fill:none;stroke:#263238;stroke-linecap:round;stroke-linejoin:round"></line><line x1="116.52" y1="388.93" x2="137.1" y2="388.93" style="fill:none;stroke:#263238;stroke-linecap:round;stroke-linejoin:round"></line><line x1="224.35" y1="370.89" x2="246.46" y2="370.89" style="fill:none;stroke:#263238;stroke-linecap:round;stroke-linejoin:round"></line><line x1="122.88" y1="370.89" x2="210.58" y2="370.89" style="fill:none;stroke:#263238;stroke-linecap:round;stroke-linejoin:round"></line><line x1="129.24" y1="352.84" x2="240.04" y2="352.84" style="fill:none;stroke:#263238;stroke-linecap:round;stroke-linejoin:round"></line></g><g id="freepik--robot-head--inject-42"><path d="M194.13,294.25a1,1,0,0,0,.17-.4A3,3,0,0,1,194.13,294.25Z" style="fill:#3C75DB"></path><path d="M194.16,291.09a25.16,25.16,0,0,0-1-3.48C193.51,288.8,193.9,290,194.16,291.09Z" style="fill:#3C75DB"></path><path d="M167.41,301.29a18.23,18.23,0,0,1-1.36,1.61l.29-.24a3.91,3.91,0,0,0,1.43-3.51c-.11-.93-.25-2.12-.4-3.48h0A20.68,20.68,0,0,1,167.41,301.29Z" style="fill:#3C75DB"></path><path d="M196.82,263.15a2.48,2.48,0,0,1,.32-.91A1.81,1.81,0,0,0,196.82,263.15Z" style="fill:#3C75DB"></path><path d="M190.3,297c.64-.43,1.56-.95,2.35-1.48A5.59,5.59,0,0,0,190.3,297Z" style="fill:#3C75DB"></path><path d="M192,308c-.24-.81-.51-1.67-.78-2.54C191.47,306.36,191.74,307.22,192,308Z" style="fill:#3C75DB"></path><path d="M165.77,277.34c0,.08,0,.17,0,.27a43.74,43.74,0,0,1,.11-7.81,7,7,0,0,1,1.78-3.35h0C164.66,269,165.69,275.14,165.77,277.34Z" style="fill:#3C75DB"></path><path d="M197.62,277.38c-.52,1.2-2.34,1.9-3.72,3C195.51,279.31,197.1,279,197.62,277.38Z" style="fill:#3C75DB"></path><path d="M197.77,275.57h0a9,9,0,0,1,0,1.18A5.1,5.1,0,0,0,197.77,275.57Z" style="fill:#3C75DB"></path><path d="M180.83,258.3c.85-.36,1.37-.55,1.4-.56l-.78-.1Z" style="fill:#3C75DB"></path><path d="M198.86,261.66h-.21l.42.07Z" style="fill:#3C75DB"></path><path d="M193.93,313.54l11.28,3.34.09,0C201.48,315.77,194.54,313.72,193.93,313.54Z" style="fill:#3C75DB"></path><path d="M235,362.54a34,34,0,0,0-8.46,2.37c-.66.27-1.3.58-1.94.9-3.27,1.66-6.25,3.83-9.56,5.43-15.2,7.38-33.62,1.36-50,5.44-4.89,1.22-9.56,3.32-14.53,4-8.33,1.18-16.56-1.62-24.42-4.78.26-10.25.9-22.59,2.35-27.05,2.07-4.74,6.2-6.78,10.17-8.53,1.86-.71,4.11-.91,5.49-2A48,48,0,0,0,164,326.79l30.25,6.83L205.48,328c4.28.89,8.56,1,12.46,2.05,8.44,2.59,10.64,8.1,12.81,12.71.38,1,.73,2,1,3C232.88,349.83,234.09,356.8,235,362.54Z" style="fill:#3C75DB"></path><path d="M194.08,324.39a5.8,5.8,0,0,1,.09-1.2,4.64,4.64,0,0,1,2.71-3.74h0a24.32,24.32,0,0,1,6.46-2l1.85-.52-11.28-3.34-.05,0A46.13,46.13,0,0,1,192,308h0c-.26-.82-.53-1.68-.78-2.54-1.13-3.61-2.3-7.41-1.5-8.1a5,5,0,0,1,.58-.41,5.59,5.59,0,0,1,2.35-1.48,5.42,5.42,0,0,0,1.48-1.26,3,3,0,0,0,.17-.4,13.48,13.48,0,0,0,0-1.45,12.51,12.51,0,0,0-.19-1.31c-.26-1.08-.65-2.29-1-3.48v0c-1.71-4.66-1.35-5.77.75-7.19h0c1.38-1.11,3.2-1.81,3.72-3a2.79,2.79,0,0,0,.14-.63,9,9,0,0,0,0-1.18c-.26-2.89-1.52-9.58-1-12.42a1.81,1.81,0,0,1,.32-.91,1.52,1.52,0,0,1,1.51-.57h.21a83,83,0,0,0-16.63-3.92s-.55.2-1.4.56a67.24,67.24,0,0,0-13.16,8.15,7,7,0,0,0-1.78,3.35,43.74,43.74,0,0,0-.11,7.81c.15,2.84,1.26,15.12,1.59,18.06.15,1.36.29,2.55.4,3.48a3.91,3.91,0,0,1-1.43,3.51l-.29.24-.92,1,0,0a13.34,13.34,0,0,1,.52,3c.15,1,.29,2.22.39,3.7h0a50.18,50.18,0,0,1,0,14.22s-.81.79-2,1.95l30.25,6.82s10.49-3.65,10.38-3.68l.89-1.94A56,56,0,0,1,194.08,324.39ZM181.16,300.6l-4.39-.2.16-3.49a9.73,9.73,0,0,1-6.94-9.32,9.54,9.54,0,0,1,.13-1.52l-2.87-1.13,1.4-3.56,2.81,1.1a9.7,9.7,0,0,1,7.14-4.55l.12-2.61,4.39.21-.14,2.9a9.71,9.71,0,0,1-1.65,18.75Z" style="fill:#3C75DB"></path><path d="M164.79,303.34a17.82,17.82,0,0,1,.84,3.58,13.34,13.34,0,0,0-.52-3A6.08,6.08,0,0,0,164.79,303.34Z" style="fill:#3C75DB"></path><path d="M166,310.63a116.08,116.08,0,0,1,0,14.22A50.18,50.18,0,0,0,166,310.63Z" style="fill:#3C75DB"></path><path d="M164,258.46l-.08,0a11.77,11.77,0,0,1,1.43-.43A8.76,8.76,0,0,0,164,258.46Z" style="fill:#fff"></path><path d="M165.37,258.05c.35-.08.73-.14,1.09-.21C166.07,257.9,165.71,258,165.37,258.05Z" style="fill:#fff"></path><path d="M152.53,271.62h0c.24-.6.49-1.21.77-1.81A13.41,13.41,0,0,0,152.53,271.62Z" style="fill:#fff"></path><path d="M153.55,297.62c3,1.74,7.24,2.52,9,3.34-2.33-1.3-5.6-1.84-7.74-2.75A11.53,11.53,0,0,1,153.55,297.62Z" style="fill:#fff"></path><path d="M151.67,296.24a8,8,0,0,1-1.71-2.36A6.89,6.89,0,0,0,151.67,296.24Z" style="fill:#fff"></path><path d="M160.74,278.7s7-19.82,16.48-21.43h0a70.09,70.09,0,0,0-10.73.57c-.36.07-.74.13-1.09.21h0a11.77,11.77,0,0,0-1.43.43c-3.7,1.53-8.48,7-10.63,11.32-.28.6-.53,1.21-.77,1.81-.69,2.05-1.53,4.68-2.22,7.34-.26,1.2-.45,2.26-.57,3.11-.26,1.76-.58,3.66-.7,5.53.15,2.6.18,4.58.92,6.28a8,8,0,0,0,1.71,2.36c.18.17.37.33.57.49l.17.13a6.87,6.87,0,0,0,.68.48l.29.18.17.1a11.53,11.53,0,0,0,1.22.59c2.14.91,5.41,1.45,7.74,2.75a2.65,2.65,0,0,1,.55.33l0,0a5.92,5.92,0,0,1,1.22,1.05Z" style="fill:#fff"></path><path d="M152.24,296.73c-.2-.16-.39-.32-.57-.49C151.85,296.41,152,296.57,152.24,296.73Z" style="fill:#fff"></path><path d="M152.54,297c.17.13.36.26.55.38a6.87,6.87,0,0,1-.68-.48Z" style="fill:#fff"></path><path d="M165.36,258.06Z" style="fill:#fff"></path><path d="M164.3,302.36a5.92,5.92,0,0,0-1.22-1.05,9.88,9.88,0,0,1,1.71,2,4.76,4.76,0,0,0-.38-.82A1.53,1.53,0,0,0,164.3,302.36Z" style="fill:#fff"></path><path d="M164.41,302.52l-.11-.16A1.53,1.53,0,0,1,164.41,302.52Z" style="fill:#fff"></path><path d="M177.23,257.27h0Z" style="fill:#fff"></path><path d="M164.41,302.52a4.76,4.76,0,0,1,.38.82,6.08,6.08,0,0,1,.32.54A4.39,4.39,0,0,0,164.41,302.52Z" style="fill:#fff"></path><path d="M165.78,277.61c.28,5.82,1,13.11,1.59,18.06C167,292.73,165.93,280.45,165.78,277.61Z" style="fill:#fff"></path><path d="M167.67,266.45a67.24,67.24,0,0,1,13.16-8.15C177.85,259.53,171,262.65,167.67,266.45Z" style="fill:#fff"></path><path d="M177.22,257.27c-9.43,1.61-16.48,21.43-16.48,21.43l3.56,23.66.11.16a4.39,4.39,0,0,1,.7,1.36l0,0,.92-1-1,.8,1-.8a18.23,18.23,0,0,0,1.36-1.61,20.68,20.68,0,0,0,0-5.61h0c-.56-4.95-1.31-12.24-1.59-18.06,0-.1,0-.19,0-.27-.08-2.2-1.11-8.34,1.89-10.88h0c3.3-3.8,10.18-6.92,13.16-8.15l.62-.66C180,257.47,178.63,257.35,177.22,257.27Z" style="fill:#fff"></path><path d="M217.28,289.68a2.5,2.5,0,0,1,.82,1.34h0c.43-2.14-1.85-2.22-4.72-5A41.75,41.75,0,0,0,217.28,289.68Z" style="fill:#fff"></path><path d="M212,284.31a12.91,12.91,0,0,1-1.67-4.38c.11.67.2,1.26.3,1.72A7.77,7.77,0,0,0,212,284.31Z" style="fill:#fff"></path><path d="M216.85,301.29l.13.77h0l1.13,6.89c-.28-2.63-2.21-13.46-2.21-13.46l.95,5.8Z" style="fill:#fff"></path><path d="M211.81,315.36h0Z" style="fill:#fff"></path><path d="M203.35,263.75l-.52-.34c.28.18.55.38.81.58Z" style="fill:#fff"></path><path d="M202.53,263.23a13.55,13.55,0,0,0-3.18-1.43c1.18.46,1.87.76,1.87.76A12.37,12.37,0,0,1,202.53,263.23Z" style="fill:#fff"></path><path d="M209.2,273.67a16.41,16.41,0,0,0-1.9-5.16,24.21,24.21,0,0,1,1.91,5.21Z" style="fill:#fff"></path><path d="M209.83,317c2-1.12,5.36-3.45,5.36-3.45l-5.28,3.34Z" style="fill:#fff"></path><path d="M197.14,262.24a2.07,2.07,0,0,1,1.51-.57A1.52,1.52,0,0,0,197.14,262.24Z" style="fill:#fff"></path><polygon points="213.48 313.11 213.48 313.11 213.48 313.11 213.48 313.11" style="fill:#fff"></polygon><path d="M196.82,263.15c-.57,2.84.69,9.53,1,12.42C197.63,272.24,196.41,265.75,196.82,263.15Z" style="fill:#fff"></path><path d="M197.76,276.75a2.79,2.79,0,0,1-.14.63l0,0A2.14,2.14,0,0,0,197.76,276.75Z" style="fill:#fff"></path><path d="M192.32,282.79a3.94,3.94,0,0,1,1.58-2.4h0c-2.1,1.42-2.46,2.53-.75,7.19v0A11.78,11.78,0,0,1,192.32,282.79Z" style="fill:#fff"></path><path d="M201.22,262.56s-.69-.3-1.87-.76l-.28-.06C199.83,262,200.56,262.29,201.22,262.56Z" style="fill:#fff"></path><path d="M194.16,291.09a12.51,12.51,0,0,1,.19,1.31c0-.12,0-.24,0-.36C194.3,291.74,194.23,291.42,194.16,291.09Z" style="fill:#fff"></path><path d="M218.11,309,217,302.06l-3.06.76V302l2.93-.7-.95-5.8a13.76,13.76,0,0,0,2.2-4.47,2.5,2.5,0,0,0-.82-1.34,41.75,41.75,0,0,1-3.89-3.7h0a9.5,9.5,0,0,1-1.37-1.66,7.77,7.77,0,0,1-1.37-2.66c-.1-.46-.19-1-.3-1.72-.37-1.69-.68-3.7-1.14-6.21a24.21,24.21,0,0,0-1.91-5.21,17.91,17.91,0,0,0-3.66-4.52c-.26-.2-.53-.4-.81-.58l-.3-.18a12.37,12.37,0,0,0-1.31-.67c-.66-.27-1.39-.55-2.15-.82l-.42-.07a2.07,2.07,0,0,0-1.51.57,2.48,2.48,0,0,0-.32.91c-.41,2.6.81,9.09,1,12.42h0a5.1,5.1,0,0,1,0,1.18,2.14,2.14,0,0,1-.11.59l0,0c-.52,1.58-2.11,1.93-3.72,3a3.94,3.94,0,0,0-1.58,2.4,11.78,11.78,0,0,0,.82,4.82,25.16,25.16,0,0,1,1,3.48c.07.33.14.65.18,1,0-.59,0-1,0-1s8.65,1.55,12.17,3.4a4,4,0,0,1,1.28,1c1.37,1.89,2,15.91,2.12,20.23h0c0,.8,0,1.27,0,1.27l5.28-3.34h0l.05,0C215.63,313.25,218.38,311.4,218.11,309Zm-10.59-22.36-2.39-.51-3.34-.72h6.61Z" style="fill:#fff"></path><path d="M171.34,286.54l-1.22-.47a9.54,9.54,0,0,0-.13,1.52,9.73,9.73,0,0,0,6.94,9.32l0-.34,4.39.21,0,.4A9.71,9.71,0,0,0,183,278.43l0,.92-4.39-.2.06-1.22a9.7,9.7,0,0,0-7.14,4.55l1.28.5Zm8.39-5.62a6.68,6.68,0,1,1-6.68,6.67A6.67,6.67,0,0,1,179.73,280.92Z" style="fill:#263238"></path><polygon points="207.52 286.59 208.4 285.36 206.8 285.36 206.93 285.98 206.8 285.36 205.01 285.36 205.13 286.08 207.52 286.59" style="fill:#263238"></polygon><polygon points="205.13 286.08 205.01 285.36 201.78 285.36 205.13 286.08" style="fill:#263238"></polygon><path d="M213.44,314.68a5.35,5.35,0,0,1-1.53.67A1.93,1.93,0,0,0,213.44,314.68Z" style="fill:#263238"></path><path d="M194.3,293.85a1.3,1.3,0,0,0,0-.19C194.32,293.72,194.32,293.79,194.3,293.85Z" style="fill:#263238"></path><path d="M194.13,294.25a5.42,5.42,0,0,1-1.48,1.26A2.93,2.93,0,0,0,194.13,294.25Z" style="fill:#263238"></path><path d="M207,316.37c-3.2-3.27-10.71-12.08-10.71-12.08l-2-10.44a1,1,0,0,1-.17.4,2.93,2.93,0,0,1-1.48,1.26c-.79.53-1.71,1.05-2.35,1.48a3.1,3.1,0,0,0-.58,1.32,29.93,29.93,0,0,0,1.5,7.19c.27.87.54,1.73.78,2.54,1,3,1.88,5.48,1.88,5.48l.05,0c.61.18,7.55,2.23,11.37,3.31Z" style="fill:#263238"></path><path d="M192,308a46.13,46.13,0,0,0,1.88,5.48S193,311.06,192,308Z" style="fill:#263238"></path><path d="M194.37,293.39a7,7,0,0,0,0-1,13.48,13.48,0,0,1,0,1.45c0-.06,0-.13,0-.19A2.23,2.23,0,0,0,194.37,293.39Z" style="fill:#263238"></path><path d="M190.3,297a5,5,0,0,0-.58.41c-.8.69.37,4.49,1.5,8.1a29.93,29.93,0,0,1-1.5-7.19A3.1,3.1,0,0,1,190.3,297Z" style="fill:#263238"></path><path d="M207.75,295.37a4,4,0,0,0-1.28-1l3.4,21.19C209.71,311.28,209.12,297.26,207.75,295.37Z" style="fill:#263238"></path><path d="M194.37,293.39a4.77,4.77,0,0,0,0-1.35c0,.12,0,.24,0,.36A7,7,0,0,1,194.37,293.39Z" style="fill:#263238"></path><path d="M206.87,317.74l2.29-.63c.71.84.9-.26.9-.26l-3.59-22.44C203,292.56,194.3,291,194.3,291s0,.44,0,1a4.77,4.77,0,0,1,0,1.35q0,.17,0,.27a1.3,1.3,0,0,1,0,.19l2,10.44S203.67,314.47,206.87,317.74Z" style="fill:#263238"></path><path d="M194.37,293.39a2.23,2.23,0,0,1,0,.27Q194.36,293.55,194.37,293.39Z" style="fill:#263238"></path><polygon points="213.92 301.99 213.92 302.82 216.98 302.06 216.85 301.29 213.92 301.99" style="fill:#263238"></polygon><polygon points="216.85 301.29 216.85 301.29 216.98 302.06 216.98 302.06 216.85 301.29" style="fill:#263238"></polygon><path d="M179.73,294.27a6.68,6.68,0,1,0-6.68-6.68A6.68,6.68,0,0,0,179.73,294.27Zm0-11.09a4.41,4.41,0,1,1-4.42,4.41A4.42,4.42,0,0,1,179.73,283.18Z" style="fill:#fff;stroke:#263238;stroke-miterlimit:10"></path><path d="M179.73,292a4.41,4.41,0,1,0-4.42-4.41A4.41,4.41,0,0,0,179.73,292Z" style="fill:#fff;stroke:#263238;stroke-miterlimit:10"></path><path d="M183,278.43l.14-2.9-4.39-.21-.12,2.61a10.39,10.39,0,0,1,1.13-.07A9.64,9.64,0,0,1,183,278.43Z" style="fill:#263238"></path><path d="M182.93,279.35l0-.92a9.64,9.64,0,0,0-3.24-.57,10.39,10.39,0,0,0-1.13.07l-.06,1.22Z" style="fill:#263238"></path><path d="M176.93,296.91l-.16,3.49,4.39.2.16-3.42a9.31,9.31,0,0,1-1.59.15A9.58,9.58,0,0,1,176.93,296.91Z" style="fill:#263238"></path><path d="M177,296.57l0,.34a9.58,9.58,0,0,0,2.8.42,9.31,9.31,0,0,0,1.59-.15l0-.4Z" style="fill:#263238"></path><path d="M171.46,282.48l-2.81-1.1-1.4,3.56,2.87,1.13A9.67,9.67,0,0,1,171.46,282.48Z" style="fill:#263238"></path><path d="M171.34,286.54l1.4-3.56-1.28-.5a9.67,9.67,0,0,0-1.34,3.59Z" style="fill:#263238"></path><path d="M165.11,303.88l2.3-2.59s-3.21-29-1.36-32.78,13.72-9,15.11-10.56" style="fill:none;stroke:#263238;stroke-linecap:round;stroke-linejoin:round"></path><path d="M127.12,361l-1,14.91s11.66,5.56,21.09,5a64,64,0,0,0,18.47-4.27s-.27-5.3-2-7.21-3.93-4.39-8.8-3.93-14.47,1.19-19.81-1S127.12,361,127.12,361Z" style="fill:#fff"></path><path d="M193.88,313.52s-5.19-14.08-4.16-16.12,3.65-.5,4.62-3.74-2.71-7.71-2-10.87,4.79-3.39,5.3-4.75-.92-8.92-1-13.06,2-3.31,2-3.31" style="fill:none;stroke:#263238;stroke-linecap:round;stroke-linejoin:round"></path><path d="M181.82,304.19l9.51,8.15c1.8,1.54,14.72,5.57,16.84,5.1s8.88-4.58,9.78-6.66-2-15.29-2-15.29a8.09,8.09,0,0,0,2.26-3.59c.71-2.32-.88-2.22-3.23-4.34a16.09,16.09,0,0,1-5.1-10.34c-.62-5-2.36-10.71-8.61-14.66S179,257.4,171.1,257.45s-12.44,3.23-16,9-7.67,21.94-5.1,27.43,10.64,5.26,13.12,7.43a8.45,8.45,0,0,1,2.55,5.61s1.44,12.43.42,17A34.22,34.22,0,0,1,150,336.31c-10.5,3.68-17.56,5.73-20.14,9.77s-3.74,29.83-3.74,29.83,13.83,6.71,24.42,4.78,15.78-5.54,26.72-5.53,25,2.28,34.34-2.48,17.71-10.15,23.44-10.14c0,0-1.73-25.78-13.51-31.06s-15.42-.46-26.63-6.72" style="fill:none;stroke:#263238;stroke-linecap:round;stroke-linejoin:round"></path><line x1="207.3" y1="285.72" x2="207" y2="283.06" style="fill:none;stroke:#263238;stroke-linecap:round;stroke-linejoin:round"></line><path d="M204.55,317s-8.38,1.81-9.3,3.67a22.44,22.44,0,0,0-1.37,5.6" style="fill:none;stroke:#263238;stroke-linecap:round;stroke-linejoin:round"></path><path d="M127.12,361s12.8,7.24,25.63,4.89c10.52-1.92,12.94,6.76,13.64,10.48" style="fill:none;stroke:#263238;stroke-linecap:round;stroke-linejoin:round"></path><circle cx="129.4" cy="365.82" r="0.42" style="fill:#263238"></circle><path d="M157.38,368.68a.42.42,0,1,1-.42-.42A.42.42,0,0,1,157.38,368.68Z" style="fill:#263238"></path><path d="M164.3,289.27a.42.42,0,0,1-.42.42.42.42,0,1,1,0-.84A.42.42,0,0,1,164.3,289.27Z" style="fill:#263238"></path><path d="M163.55,279.81a.42.42,0,0,1-.84,0,.42.42,0,1,1,.84,0Z" style="fill:#263238"></path><circle cx="164.3" cy="294.41" r="0.42" style="fill:#263238"></circle><path d="M163.88,284.51a.42.42,0,1,1-.42-.42A.42.42,0,0,1,163.88,284.51Z" style="fill:#263238"></path><circle cx="163.04" cy="275.29" r="0.42" style="fill:#263238"></circle><path d="M162.38,374a.42.42,0,0,1-.42.42.43.43,0,0,1,0-.85A.42.42,0,0,1,162.38,374Z" style="fill:#263238"></path><path d="M160.54,371a.42.42,0,1,1-.42-.43A.42.42,0,0,1,160.54,371Z" style="fill:#263238"></path></g><g id="freepik--robot-hand--inject-42"><circle cx="395.87" cy="221.04" r="46.03" style="fill:#263238"></circle><polygon points="458.75 253.2 442.62 297.4 371.38 280.65 362.19 276.38 362.26 276.22 389.6 214.43 402.25 221.52 458.75 253.2" style="fill:#fff"></polygon><path d="M402.25,221.52,375.2,278.37c-6.35.28-10.39-.68-12.94-2.15l27.34-61.79Z" style="fill:#3C75DB"></path><polygon points="458.75 253.2 442.62 297.4 371.38 280.64 362.19 276.37 389.6 214.43 458.75 253.2" style="fill:none;stroke:#263238;stroke-linecap:round;stroke-linejoin:round"></polygon><path d="M380.05,243.9s14,25.79,35.84,30.08,36.93-16.59,36.93-16.59l-58.67-27.73Z" style="fill:#3C75DB"></path><path d="M183.85,254.15l14.8-17.2-7.85-3.29L189.24,237Z" style="fill:#fff"></path><polygon points="234.59 266.07 224.84 281.96 239.99 271.11 242.35 268.56 235.1 263.68 234.59 266.07" style="fill:#fff"></polygon><path d="M366,268.83l1.47-4.33-2.21,9.36,10,4.51s17.91-4.13,35.3,2.48-12.89,21.35-12.89,21.35l-22.41,7.47-24.84-.81,4-18.78S357.55,273,366,268.83Z" style="fill:#263238"></path><path d="M439.72,389.15c-4.37,10.47-9.53,20.36-20.45,25.19-10,4.42-30.87,7.69-47.54,4.46a47.74,47.74,0,0,1-8.65-2.45c-11.36-4.49-31.4-18.7-44.39-30.66-6.8-6.26-11.66-11.9-12.35-15.22-1.38-6.65,8.87-30.09,20-50.35A230.36,230.36,0,0,1,341,296.43c14.08-19.32,24.33-27,24.33-27s-14.27,20.2-5.4,26.23,27.35-14.48,46.26-15c8.46-.22,18.61,3.4,27.24,7.46a153.37,153.37,0,0,1,19,10.73C456.66,328.9,451.37,361.24,439.72,389.15Z" style="fill:#fff"></path><path d="M398,306c-1.16,2-2.25,4-3.28,6.07a270.81,270.81,0,0,0-28.43,100.54" style="fill:none;stroke:#263238;stroke-linecap:round;stroke-linejoin:round"></path><path d="M417.88,286.82c-5.66,2-10.22,5.9-14,10.58" style="fill:none;stroke:#263238;stroke-linecap:round;stroke-linejoin:round"></path><path d="M439.72,389.15c-4.37,10.47-9.53,20.36-20.45,25.19-10,4.42-30.87,7.69-47.54,4.46-2.57-26.72,20.66-100.42,33.87-116.42,13.56-16.42,27.75-14.28,27.75-14.28h0a153.37,153.37,0,0,1,19,10.73C456.66,328.9,451.37,361.24,439.72,389.15Z" style="fill:#3C75DB"></path><path d="M280.23,170.94c-9.7-6.77-20.91-7.45-25-1.52L233,204.54l26.12,19s30.53-28.7,31.18-29.64C294.44,188,289.93,177.71,280.23,170.94Z" style="fill:#263238"></path><path d="M259.16,222.79c-3.08,4.42-11.43,3.91-18.66-1.13S229.92,209,233,204.54s11.43-3.91,18.66,1.13S262.24,218.38,259.16,222.79Z" style="fill:#fff;stroke:#263238;stroke-linecap:round;stroke-linejoin:round"></path><polyline points="238.8 236.95 241.53 232.97 225.33 221.96 222.42 225.61" style="fill:#fff;stroke:#263238;stroke-linecap:round;stroke-linejoin:round"></polyline><polyline points="234.9 265.57 224.24 282.39 240.74 270.58" style="fill:none;stroke:#263238;stroke-linecap:round;stroke-linejoin:round"></polyline><polyline points="196.98 238.84 183.38 254.7 190.02 235.36" style="fill:none;stroke:#263238;stroke-linecap:round;stroke-linejoin:round"></polyline><path d="M248,209c-5.21-3.63-11.5-3.76-13.72-.58l-2.9,2.44,2.73,2.34a15.07,15.07,0,0,0,5.85,7.31,16.54,16.54,0,0,0,6.59,2.81l2.94,2.82s3.65-4.44,3.91-4.81C255.57,218.18,253.15,212.66,248,209Z" style="fill:#263238"></path><path d="M250.51,224.42c-2.22,3.18-8.23,2.82-13.43-.81s-7.63-9.15-5.41-12.33,8.24-2.81,13.44.82S252.73,221.24,250.51,224.42Z" style="fill:#fff;stroke:#263238;stroke-linecap:round;stroke-linejoin:round"></path><path d="M244.15,218.66l-7.68,11-5.93-4.13L238,214.87a5.25,5.25,0,0,1,3.45.53A5,5,0,0,1,244.15,218.66Z" style="fill:#263238"></path><path d="M238,243.83l3.69-4.9-22.24-15.4-3.36,5.12-23.93,2.86-2.2,3.55,7,3.77c7.39-.2,14.65,2.44,21,6.11,6.06,3.52,11.44,7.91,14.62,14.28a27.61,27.61,0,0,1,1.26,2.9c.26.67.5,2.66,1,3.1l5.93,5.36,2.6-3.26Z" style="fill:#fff;stroke:#263238;stroke-linecap:round;stroke-linejoin:round"></path><polygon points="220.87 229.47 214.57 238.32 228.85 248.52 235.1 239.64 220.87 229.47" style="fill:#3C75DB;stroke:#263238;stroke-linecap:round;stroke-linejoin:round"></polygon><path d="M405.36,209.72a108.78,108.78,0,0,1-9.65,17.67c-12.34,18.52-27.29,30.24-33.4,26.17L322.36,227,361,168.88l2.54-3.81L406,186a5.59,5.59,0,0,1,.95.47C411.1,189.21,410.16,198.38,405.36,209.72Z" style="fill:#fff"></path><path d="M405.36,209.72l-4.22-2.17-21.81-13.07-1.61-11.15-13.23-7.58L361,168.88l2.54-3.81L406,186a5.59,5.59,0,0,1,.95.47C411.1,189.21,410.16,198.38,405.36,209.72Z" style="fill:#3C75DB"></path><path d="M345.22,242.18c11.08-7.84,37.76-30.34,40-66.43" style="fill:none;stroke:#263238;stroke-linecap:round;stroke-linejoin:round"></path><path d="M407,186.47A4.94,4.94,0,0,0,406,186l-42.46-20.93L322.36,227l39.95,26.6c6.11,4.07,21.06-7.65,33.4-26.18S413.1,190.54,407,186.47Z" style="fill:none;stroke:#263238;stroke-linecap:round;stroke-linejoin:round"></path><path d="M353.17,202.81C341.79,219.9,328,230.71,322.36,227s-1-20.65,10.4-37.74S358,161,363.67,164.74,364.56,185.72,353.17,202.81Z" style="fill:#263238"></path><path d="M357.66,184.71A73.92,73.92,0,0,1,350.11,199c-8.69,13-19.23,21.31-23.53,18.44-.56-.36-27.87-19.15-27.87-19.15l28.09-42.95.24.11,30.34,14.4a3.21,3.21,0,0,1,.67.33C360.71,172,360.37,177.6,357.66,184.71Z" style="fill:#fff"></path><path d="M357.66,184.71l-12.44-6.66-4.55-7.86L328.53,164,327,155.47l30.34,14.4a3.21,3.21,0,0,1,.67.33C360.71,172,360.37,177.6,357.66,184.71Z" style="fill:#3C75DB"></path><path d="M313.71,208.28c6.24-4,27.37-18.49,27.59-45.68" style="fill:none;stroke:#263238;stroke-linecap:round;stroke-linejoin:round"></path><path d="M335,215.73l-9.08-6.17s4.2-3.81,8-7.49l9.1,6Z" style="fill:#3C75DB"></path><path d="M357.66,184.71A73.92,73.92,0,0,1,350.11,199c-8.69,13-19.23,21.31-23.53,18.44-.56-.36-27.87-19.15-27.87-19.15l28.09-42.95.24.11,30.34,14.4a3.21,3.21,0,0,1,.67.33C360.71,172,360.37,177.6,357.66,184.71Z" style="fill:none;stroke:#263238;stroke-linecap:round;stroke-linejoin:round"></path><ellipse cx="312.95" cy="176.92" rx="26.19" ry="8.64" transform="translate(-7.77 339.34) rotate(-56.34)" style="fill:#263238"></ellipse><ellipse cx="311.19" cy="175.75" rx="20.98" ry="6.92" transform="matrix(0.55, -0.83, 0.83, 0.55, -7.58, 337.35)" style="fill:#fff;stroke:#263238;stroke-linecap:round;stroke-linejoin:round"></ellipse><circle cx="421.43" cy="223.11" r="39.37" style="fill:#263238"></circle><circle cx="428.97" cy="227.44" r="39.37" style="fill:#fff;stroke:#263238;stroke-linecap:round;stroke-linejoin:round"></circle><circle cx="431.72" cy="224.39" r="22.15" transform="translate(114.97 593.71) rotate(-76.84)" style="fill:#3C75DB"></circle><circle cx="428.97" cy="227.44" r="21.32" style="fill:#fff;stroke:#263238;stroke-linecap:round;stroke-linejoin:round"></circle><path d="M438.67,227.44a9.7,9.7,0,1,1-9.7-9.69A9.7,9.7,0,0,1,438.67,227.44Z" style="fill:#263238"></path><path d="M321.4,344.75,326.2,356s-5.7,16.73-7.51,29.73c-6.8-6.26-11.66-11.9-12.35-15.22-1.38-6.65,8.87-30.09,20-50.35l4.67,3.12S324.22,336.52,321.4,344.75Z" style="fill:#3C75DB"></path><path d="M433,227.44a9.72,9.72,0,0,1-6.87,9.29,9.7,9.7,0,0,1,0-18.56A9.69,9.69,0,0,1,433,227.44Z" style="fill:#fff;stroke:#263238;stroke-linecap:round;stroke-linejoin:round"></path><path d="M452.42,298.84s-27.37-18.68-46.28-18.2-37.39,21-46.26,15,5.4-26.23,5.4-26.23-10.25,7.72-24.33,27-36.63,64.39-34.61,74.05,39.43,39,56.74,45.88,44.37,3.22,56.19-2c10.92-4.84,16.07-14.72,20.45-25.19C451.37,361.24,456.66,328.89,452.42,298.84Z" style="fill:none;stroke:#263238;stroke-linecap:round;stroke-linejoin:round"></path><path d="M313,175.75a14.17,14.17,0,0,1-7,5.59l-24.15-14.2a7.73,7.73,0,0,1-3.66-8.95c1.55-4.77,8.12-7.82,12.21-5.45l24,15.69.24.15C315.09,170.26,315.21,172.15,313,175.75Z" style="fill:#263238"></path><path d="M294.61,161.68c.18,4.95,2.14,11.91-1.77,14.38-1.95,1.23-8.29,0-11.19-.46-7.34-1.18-13.66-5.54-13.92-13a13.45,13.45,0,0,1,13-13.92c5.53-.19,17.27-.67,19.5,4C301,154.34,294.54,159.78,294.61,161.68Z" style="fill:#263238"></path><circle cx="291.06" cy="162.61" r="13.45" transform="translate(99.21 435.29) rotate(-84.06)" style="fill:#fff;stroke:#263238;stroke-linecap:round;stroke-linejoin:round"></circle><path d="M292.48,172a1.09,1.09,0,1,1-1.12-1A1.08,1.08,0,0,1,292.48,172Z" style="fill:#263238"></path><path d="M291.83,153.78a1.08,1.08,0,0,1-1,1.13,1.09,1.09,0,1,1-.08-2.17A1.08,1.08,0,0,1,291.83,153.78Z" style="fill:#263238"></path><path d="M301.76,161.63a1.09,1.09,0,1,1-1.13-1A1.08,1.08,0,0,1,301.76,161.63Z" style="fill:#263238"></path><path d="M283.34,162.28a1.09,1.09,0,1,1-1.12-1A1.08,1.08,0,0,1,283.34,162.28Z" style="fill:#263238"></path><path d="M295.16,162.47a4.1,4.1,0,1,1-4.24-4A4.1,4.1,0,0,1,295.16,162.47Z" style="fill:#263238"></path></g></svg>