<svg version="1.1" xmlns="http://www.w3.org/2000/svg" viewBox="0 0 1356.8571440710402 617.3344345716378" width="4070.5714322131207" height="1852.0033037149133">
  <!-- svg-source:excalidraw -->
  
  <defs>
    <style class="style-fonts">
      @font-face {
        font-family: "Virgil";
        src: url("https://excalidraw.com/Virgil.woff2");
      }
      @font-face {
        font-family: "Cascadia";
        src: url("https://excalidraw.com/Cascadia.woff2");
      }
    </style>
  </defs>
  <rect x="0" y="0" width="1356.8571440710402" height="617.3344345716378" fill="#ffffff"></rect><g stroke-linecap="round" transform="translate(10 10) rotate(0 218 23)"><path d="M0 0 C0 0, 0 0, 0 0 M0 0 C0 0, 0 0, 0 0 M-0.96 7.31 C0.7 5.66, 4.69 3.35, 4.34 1.4 M-0.03 6.53 C1.79 4.89, 2.52 3.29, 4.75 -0.43 M1.59 12.93 C2.38 8.99, 6.36 6.74, 11.18 1.51 M0.92 11.91 C3.12 8.82, 7.5 4.14, 9.14 -0.92 M1.37 18.21 C3.05 17.12, 3.72 11.33, 11.9 2.16 M-1.05 19.11 C3.85 12.86, 8.03 10.65, 16.57 1.73 M-2 27.77 C4.06 15.42, 14.79 10.83, 23.71 -3.04 M-0.5 24.55 C6.42 14.86, 13.62 8.98, 19.77 0.85 M0.99 31.9 C5.01 18.5, 14.01 17.14, 23.96 2.43 M-0.03 31.66 C7.16 22.5, 11.55 16.23, 28.22 0.92 M-3.27 40.27 C10.1 29.59, 14.84 15.4, 31.01 2.29 M1.12 36.49 C10.21 24.03, 19.13 15.38, 30.37 -1.84 M0.08 43.18 C9.74 30.77, 21.96 24.96, 40.33 0.64 M0.62 40.57 C11.37 28.48, 20.48 15.89, 35.33 0.92 M3.05 51.02 C14.41 35.59, 23.33 24.95, 43.05 -1.3 M-0.18 46.36 C12.77 36.25, 19.93 24.92, 41.52 -1.72 M8.54 47.81 C19.83 29.34, 40.2 10.1, 49.92 -0.44 M7.66 46.51 C19.98 29.12, 37.62 11.69, 46.8 0.73 M14.56 44.98 C22.12 33.36, 40.93 14.51, 53.81 0.9 M10.98 45.63 C23.28 33.27, 30.32 23.89, 53.09 0.74 M19.19 46.03 C29.65 41.98, 34.68 26.73, 61.74 -0.19 M17.6 48.79 C31.07 29.86, 49.76 11.5, 56.48 1.43 M24.62 47.84 C35.03 33.15, 54.45 12.96, 65.36 1.45 M22.52 46.69 C35.49 35.44, 43.96 19.56, 63.9 1.15 M31.7 49.41 C37.76 37.55, 45.91 25.3, 64.95 -0.1 M28.55 48.29 C35.48 35.25, 48.06 26.41, 67.16 -1.85 M31.88 48.61 C43.89 31.7, 63.17 11.62, 71.93 2.8 M32.46 45.43 C43.87 35.59, 54.6 24.07, 75.69 -0.82 M41.77 42.91 C45.97 37.6, 58.08 25.35, 76.83 -3.79 M37.53 45.45 C45.69 37.73, 54.57 27.91, 78.56 0.11 M47.1 50.17 C55.92 28.56, 68.93 9.59, 83.84 1.26 M43.77 47.81 C56.27 33, 67.65 21.09, 85.17 -1.44 M53.25 45.35 C57.57 32.7, 70.85 23.84, 86.77 -1.01 M48.48 48.73 C58.53 36.1, 69.57 22.37, 91.33 -1.45 M53.2 45.28 C67.57 33.47, 80.34 16.2, 95.57 3.02 M52.38 45.83 C72.19 30.62, 86.15 12.59, 95.95 -0.91 M62.09 45.41 C72.39 33.65, 86.39 15.81, 104.3 0.37 M60.27 46.69 C69.57 35.69, 82.19 24.55, 99.08 -1.19 M61.19 48.56 C77.65 36.34, 86.43 25.99, 109.69 0.16 M63.12 45.56 C74.32 38.53, 82.07 27.76, 106.6 0.61 M71.73 50.41 C82.84 34.49, 97.23 23.83, 111.08 -1.63 M70.06 48.68 C84.61 30.92, 98.28 14.55, 112.33 0.28 M78.22 48.52 C90.95 36.12, 100.12 23.76, 120.27 3.37 M73.77 47.15 C89.85 30.52, 106.92 10.89, 117.98 -0.18 M79.69 51.31 C96.28 26.1, 116.68 9.59, 124.86 -3.14 M79.91 45.86 C90.76 33.91, 102.13 23.58, 122.57 0.39 M83.57 47.55 C100.53 30.43, 116.59 8.44, 123.46 -1.04 M87.07 48.79 C94.55 35.44, 106.14 27.93, 127.83 -0.83 M89.66 51.15 C104.56 29.96, 116.21 20.32, 135.57 -2.4 M92.87 47.72 C107.36 30.04, 117.66 16.88, 134.19 -1.33 M100.65 45.89 C112.47 30.92, 129.5 7.95, 137.57 1.38 M98.66 46.76 C108.86 32.82, 120.46 20.92, 138.87 -0.54 M98.1 46.15 C111.96 36.27, 126.2 21.47, 145.22 0.22 M103.56 47.06 C114.01 34.68, 122.24 20.23, 144.54 0.7 M108.97 49.68 C121.7 27.68, 139.47 17.61, 149.67 2.2 M109.15 47.37 C119.76 32.78, 130.87 18.29, 149.43 0.81 M109.59 50.37 C127.28 32.67, 138.96 20.71, 151.95 2.23 M113.55 48.72 C121.2 37.23, 130.78 28.28, 151.92 -1.9 M116.19 46.93 C134.84 26.19, 152.83 13.23, 154.99 2.86 M120.07 47.01 C130.28 34.54, 140.7 17.4, 160.74 -0.62 M120.86 47.74 C136.5 31.72, 154.19 10.91, 166.06 -1 M123.33 45.63 C134.32 32.18, 147.22 18.61, 163.54 0.58 M126.08 47.52 C140.18 37.11, 151.08 25.04, 172.86 -1.32 M129.89 48.13 C145.19 29.28, 157.23 12.71, 169.01 -0.59 M136.73 48.1 C142.06 33.9, 153.19 27.15, 177.93 -0.21 M132.35 46.78 C146.65 34.07, 156.98 21.74, 175.55 -0.09 M138.54 43.19 C152.74 32.78, 168.89 13.97, 182.74 2.85 M138.01 47.24 C152.65 31.74, 165.05 18.16, 181.36 1.18 M146.16 47.13 C154.08 36.11, 163.91 24.66, 182.1 3.73 M142.99 49.2 C154.73 32.46, 167.43 18.02, 185.07 -2.1 M149.6 47.59 C158.55 36.58, 173.19 19.93, 188.23 -1.56 M148.8 46.93 C162.41 32.14, 172.68 18.97, 191.86 1.05 M154.26 50.4 C161.15 34.03, 173.71 29.28, 193.21 -0.17 M156.55 45.99 C165.16 36.16, 177.82 22.45, 198.11 -1.55 M159.41 48.22 C168.36 35.04, 173.91 24.39, 201.03 2.4 M159.53 47.82 C173.89 34.01, 184.35 20.22, 201.5 -0.56 M166.23 49.36 C183.28 24.57, 200.04 9.29, 206.04 -1.03 M165.31 46.34 C179.71 28.85, 193 13.19, 205.66 -0.5 M172.25 46.46 C176.73 33.06, 190.62 25.64, 208.99 1.54 M172.42 48.62 C182.22 36.71, 190.09 25.34, 210.24 0.84 M179.4 45.31 C186.32 41.93, 194.82 27.59, 219.49 1.91 M176.44 47.47 C188.06 32.64, 203.31 15.74, 215.61 1.07 M180.5 49.56 C195.9 29.86, 214.4 6.84, 224.06 0.55 M182.63 46.09 C191.8 39.55, 199.36 26.89, 220.94 1.79 M183.25 49.47 C196.89 38.36, 210.3 17.87, 228.58 -0.73 M188.07 46.67 C201.03 30.97, 214.89 15.75, 228.83 1.23 M188.05 47.41 C199.54 35.18, 215.52 18.61, 234.34 -1.99 M193.6 47.81 C204.57 35.23, 217.56 19.77, 231.43 -1.11 M199.35 50.89 C208.97 35.64, 222.45 16.88, 239.82 4.32 M197.27 45.31 C209.57 30.13, 223.68 17.31, 238.43 0.88 M204.86 49.52 C209.22 39.74, 221.93 30.29, 244.03 2.36 M203.68 49.15 C217.11 34.35, 230.11 17.31, 242.45 0.81 M209.43 48.52 C216.46 35.04, 230.04 24.34, 249.78 1.93 M208.04 48.79 C220.08 32.66, 227.86 21.85, 248.46 0.7 M211.04 49.5 C226.99 32.99, 236.51 25, 257.48 -0.08 M214.19 45.83 C224.15 37.2, 231.24 23.18, 253.71 0.29 M219.31 43.17 C231.94 37.93, 239.98 25.26, 257.21 1.1 M219.32 46.61 C232.69 32.85, 244.94 19.82, 257.9 1.72 M223.5 46.12 C240.78 31.83, 249.26 21.59, 263.15 2.87 M224.03 46.86 C235 34.06, 248.13 18.77, 263.81 -1.89 M226.97 45.55 C244.87 28.62, 258.02 14.49, 273.63 -0.02 M228.99 48.3 C240.35 37.3, 251.33 22.25, 271.37 -1.75 M231.26 44.02 C246.94 34.96, 260.71 17.75, 273.62 1.29 M233.05 47.31 C243.98 36.24, 254.43 24.14, 274.34 -0.86 M238.49 44.21 C257.65 27.25, 268.57 9.9, 282.71 2.56 M241.87 47.48 C248.64 35.82, 262.48 22.56, 282.39 -1.31 M243.47 45.69 C259.83 35.56, 275.43 18.7, 285.62 3.13 M246.04 48.31 C259.33 32.14, 272.54 18.51, 285.78 0.3 M252.09 45.61 C261.73 30.82, 275.06 16.03, 288.2 2.73 M249.71 45.8 C263.91 35.04, 272.57 22.19, 289.44 1.49 M257.4 43.51 C265.51 30.72, 279.26 17.55, 295.97 2.19 M256.71 49.08 C266.73 36.14, 275.71 20.74, 297.59 -1.44 M258.09 50.05 C271.64 29.59, 286 15.13, 298.02 0.24 M263.19 45.01 C272.85 32.31, 286.3 19.14, 303.92 -0.84 M266.47 43.75 C276.02 39.3, 286.08 26.25, 309.63 2.18 M267.73 46.87 C279.66 32.43, 295.84 17.51, 308.15 -1.04 M270.97 43.74 C290.85 28.81, 304.63 7.57, 316.19 0.72 M271.95 46.9 C284.93 31.65, 297.22 19.96, 314.19 -1.73 M276.18 50.53 C287.88 39.4, 296.31 28.95, 315.71 0.65 M278.69 49 C288.82 33.52, 303.48 17.5, 318.76 -1.37 M281.31 46.74 C289.48 35.78, 298.47 24.35, 326.85 -0.32 M284.55 45.31 C293.98 34.2, 305.41 22.13, 321.52 -0.53 M288.2 49.86 C299.01 35.56, 305.33 20.33, 327.41 -2.93 M286.12 48.87 C298.8 36.86, 305.6 25.91, 329.68 -1.28 M295.83 48.99 C301.14 35.61, 312.99 22.61, 334.29 -1.5 M292.5 46.18 C304.58 35.77, 311.8 27.71, 332.13 1.44 M300.3 49.62 C313.53 31.55, 332.77 15.27, 342.06 0.73 M299.5 45.92 C307.96 35.74, 321.22 20.85, 340.09 0.46 M304.7 51.08 C315.5 36.37, 323.25 21.49, 346.9 -3.57 M301.58 48.24 C315.73 34.81, 326.21 21.64, 345.2 0.97 M306.38 47.57 C323.03 30.58, 339.05 12.43, 348.48 -0.4 M309.24 45.67 C317.69 34.75, 329.93 24.07, 347.49 1.91 M316.21 45.17 C328.86 28.03, 340.46 15.1, 353.22 -1.39 M314.48 48.02 C325.83 32.84, 339.13 21.15, 356.81 0.86 M320.46 47.33 C336.14 29.67, 352.65 14.97, 361.57 -2.77 M318.69 47.69 C327.49 36.03, 336.24 27.32, 358.23 -1.09 M320.78 43.6 C336.65 39.77, 341.15 23.45, 361.88 0.05 M322.85 48.38 C334.7 35.85, 345.29 23.85, 363.99 -1.99 M328.69 50.41 C342.48 28.87, 359.95 13.84, 370.38 1.31 M328.12 45.63 C346.49 27.45, 360.11 8.53, 371.66 1.63 M333.62 43.81 C344.65 37.31, 358.47 26.01, 377.67 1.61 M333.96 47.5 C349.66 33.01, 361.12 15.06, 376.73 -0.63 M337.36 48.2 C352.11 33.8, 361.96 26.43, 380.74 -3.33 M338.76 47.17 C356.67 31.72, 372.16 14.83, 382.74 -0.43 M346.08 45.12 C358.94 30.12, 375.34 10.82, 385.48 2.07 M345.98 47.6 C359.83 32.65, 374.48 16.09, 385.92 -2.05 M348.86 45.95 C365.15 30.35, 375.77 15.52, 390.63 2.01 M352.77 46.09 C358.31 36.03, 367.79 28.34, 393.33 -1.75 M357.62 48.71 C370.26 28.61, 380.95 18.11, 398.34 -1.96 M356.06 46.97 C367.61 33.94, 380.88 19.46, 399.42 0.82 M361.71 46.79 C375.14 33.47, 381.44 22.15, 406.13 -2.12 M361.24 46.2 C373.33 33.44, 386.35 16.83, 404.24 -0.71 M367.82 49.67 C378.87 37.74, 388.26 26.96, 409.41 0.05 M368.26 47.99 C373.51 35.45, 384.11 26.93, 410.01 1.13 M370.57 43.72 C379.95 33.75, 389.45 26.75, 409.46 -1.27 M372.22 45.4 C384.87 28.89, 402.08 14.58, 415.25 0.35 M376.41 44.93 C394.2 36.12, 401.56 22.3, 415.95 0.45 M377.57 49.05 C391.15 33.93, 399.42 22.78, 419.41 -1.93 M382.2 43.63 C395.78 29.28, 414.6 14.41, 422.94 -3.12 M382.67 47.64 C397.69 30.67, 409.15 15.03, 425.02 -0.82 M391.2 49.3 C405.95 30.24, 418.58 15.32, 427.37 -2.48 M389.94 48.65 C398.41 31.6, 411.96 17.63, 430.28 0.91 M391.53 43.27 C408.09 30.94, 418.39 17.56, 437.05 2.53 M394.49 46.93 C406.31 32.8, 417.72 14.52, 435.2 1.55 M396.18 47.49 C408.73 36.02, 415.75 27.33, 439.22 5.65 M398.25 45.33 C410.94 33.59, 426.34 18.14, 436.25 3.24 M405.55 45.28 C409.26 38.57, 418 29.67, 435.16 12.03 M402.55 47.34 C414.35 33.47, 426.68 18.85, 439.13 9.64 M407.42 50.07 C412.93 41.61, 422.19 29.56, 438.6 10.39 M410.3 45.69 C420.96 34.81, 431.75 21.03, 439.29 13.98 M411.44 50.15 C420.06 43.33, 430.24 31.26, 435.91 18.82 M414.61 47.01 C419.81 38.58, 428.48 34.21, 436.24 20.82 M417.15 45.46 C427.48 37.69, 426.49 36.62, 439.81 25.8 M420.87 48.41 C426.76 43.04, 430.36 36.86, 437.41 26.79 M423.8 49.03 C432.38 43.59, 437.28 34.44, 441.42 34.93 M426.75 46.9 C427.45 43.56, 432.24 37.16, 436.27 33.31 M432.35 47.62 C432.14 45.5, 435.75 39.14, 436.92 40.81 M431.22 47.73 C433.21 45.31, 433.64 44.04, 437.06 39.44" stroke="#228be6" stroke-width="0.5" fill="none"></path><path d="M0.64 -0.75 C124.08 0.45, 246.13 1.93, 434.16 1.13 M-0.28 -0.55 C99.32 -0.7, 200.23 -0.49, 436.65 -0.59 M436.3 -0.68 C438.73 8.75, 436.45 23.26, 434.74 47.16 M436.42 -0.19 C434.18 12.37, 434.43 24.53, 435.59 47.35 M435.77 47.64 C277.02 48.01, 115.56 50.1, -0.42 46.34 M435.99 46.81 C328.98 42.38, 220.5 40.7, -0.45 45.58 M-3.82 47.36 C3.35 31.07, 3.27 20.83, -0.61 -2.59 M-1.84 46.06 C-2.5 34.15, -1.6 21.25, -1.67 -0.38" stroke="#000000" stroke-width="1" fill="none"></path></g><g transform="translate(36.5 15) rotate(0 191.5 18)"><text x="191.5" y="25" font-family="Virgil, Segoe UI Emoji" font-size="28px" fill="#000000" text-anchor="middle" style="white-space: pre;" direction="ltr">Classification vs Regression</text></g><g stroke-linecap="round" transform="translate(12.18595949550945 56.719983540519024) rotate(0 667.3355922877654 275.30722551555937)"><path d="M0.57 0.4 C401.49 5.49, 802.44 4.82, 1333.54 -0.94 M1333.83 -0.1 C1334.29 173.32, 1334.49 345.25, 1334.11 551.93 M1335.46 549.23 C1015.72 548.35, 696.51 549.27, -0.79 550.53 M-1.42 551.28 C-2.14 361.12, -1.25 170.37, 1.09 0.18" stroke="#000000" stroke-width="1.5" fill="none" stroke-dasharray="8 9"></path></g><g transform="translate(51.83820086482319 92.9271627722519) rotate(0 73.5 12.5)"><text x="0" y="18" font-family="Virgil, Segoe UI Emoji" font-size="20px" fill="#e67700" text-anchor="start" style="white-space: pre;" direction="ltr">Classification: </text></g><g transform="translate(212.50109276250896 94.44744407675353) rotate(0 384.5 12.5)"><text x="0" y="18" font-family="Virgil, Segoe UI Emoji" font-size="20px" fill="#000000" text-anchor="start" style="white-space: pre;" direction="ltr">Problem of automatically assigning a label (or class) to an unlabeled example</text></g><g transform="translate(1041.1647873031561 94.92020387010234) rotate(0 46.5 12.5)"><text x="46.5" y="18" font-family="Virgil, Segoe UI Emoji" font-size="20px" fill="#c92a2a" text-anchor="middle" style="white-space: pre;" direction="ltr">Example: </text></g><g transform="translate(1141.9185530013438 96.13072541710608) rotate(0 77 12.5)"><text x="0" y="18" font-family="Virgil, Segoe UI Emoji" font-size="20px" fill="#000000" text-anchor="start" style="white-space: pre;" direction="ltr">Spam Detection</text></g><g transform="translate(54.89776215843085 145.3028188464741) rotate(0 359.5 12.5)"><text x="0" y="18" font-family="Virgil, Segoe UI Emoji" font-size="20px" fill="#000000" text-anchor="start" style="white-space: pre;" direction="ltr">The classification problem is solved by a classification learning algorithm</text></g><g transform="translate(207.2544139446727 194.3517688564134) rotate(0 264.5 12.5)"><text x="0" y="18" font-family="Virgil, Segoe UI Emoji" font-size="20px" fill="#000000" text-anchor="start" style="white-space: pre;" direction="ltr">that takes a collection of labeled examples as input</text></g><g transform="translate(367.62803965159674 241.08480258550844) rotate(0 336.5 12.5)"><text x="0" y="18" font-family="Virgil, Segoe UI Emoji" font-size="20px" fill="#000000" text-anchor="start" style="white-space: pre;" direction="ltr">and produces a model that can take an unlabeled example as input</text></g><g transform="translate(477.03179873586487 288.92785977503263) rotate(0 423 12.5)"><text x="0" y="18" font-family="Virgil, Segoe UI Emoji" font-size="20px" fill="#000000" text-anchor="start" style="white-space: pre;" direction="ltr">and either directly output a label or an output that can be used to deduce a label</text></g><g stroke-linecap="round"><g transform="translate(925.2382150544054 290.95534693686204) rotate(0 97.94560407850213 -23.700643298735486)"><path d="M0.59 -0.37 C8.54 -2.88, 23.42 -13.1, 48.81 -15.22 C74.2 -17.33, 128.34 -7.76, 152.94 -13.06 C177.55 -18.37, 189.27 -41.46, 196.45 -47.03 M-0.56 -1.61 C7.14 -3.9, 22.29 -11.45, 47.84 -13.66 C73.4 -15.87, 128.01 -9.53, 152.75 -14.89 C177.5 -20.25, 188.86 -40.67, 196.34 -45.8" stroke="#000000" stroke-width="1" fill="none"></path></g><g transform="translate(925.2382150544054 290.95534693686204) rotate(0 97.94560407850213 -23.700643298735486)"><path d="M183.68 -20.49 C189.12 -28.6, 195.4 -41.51, 196.72 -47.64 M183.36 -19.94 C189.01 -28.79, 193.49 -38.22, 196.73 -45.04" stroke="#000000" stroke-width="1" fill="none"></path></g><g transform="translate(925.2382150544054 290.95534693686204) rotate(0 97.94560407850213 -23.700643298735486)"><path d="M170.19 -34.16 C180.9 -36.98, 192.47 -44.53, 196.72 -47.64 M169.86 -33.61 C180.39 -37.63, 189.77 -42.1, 196.73 -45.04" stroke="#000000" stroke-width="1" fill="none"></path></g></g><mask></mask><g transform="translate(1088.1124585482312 191.78107782061124) rotate(0 116.5 30)"><text x="116.5" y="14" font-family="Virgil, Segoe UI Emoji" font-size="16px" fill="#364fc7" text-anchor="middle" style="white-space: pre;" direction="ltr">E.g., probability of an</text><text x="116.5" y="34" font-family="Virgil, Segoe UI Emoji" font-size="16px" fill="#364fc7" text-anchor="middle" style="white-space: pre;" direction="ltr">input to have a specific label</text><text x="116.5" y="54" font-family="Virgil, Segoe UI Emoji" font-size="16px" fill="#364fc7" text-anchor="middle" style="white-space: pre;" direction="ltr"></text></g><g stroke-linecap="round"><g transform="translate(410.42072457694576 270.03901603808663) rotate(0 83.87122783926452 -1.3789599272486157)"><path d="M0.06 0.42 C28.11 0.22, 140.76 -0.84, 169.12 -1.41 M-1.37 -0.41 C26.41 -0.94, 139.37 -2.87, 167.89 -3.17" stroke="#364fc7" stroke-width="1" fill="none"></path></g></g><mask></mask><g stroke-linecap="round"><g transform="translate(688.2378773100518 267.6576985265201) rotate(0 132.0093500349144 -1.079558565966181)"><path d="M-0.41 -0.44 C43.68 -0.58, 220.42 -1.76, 264.43 -1.65 M1.58 -1.72 C45.58 -1.69, 220.32 -0.73, 263.85 -0.73" stroke="#364fc7" stroke-width="1" fill="none"></path></g></g><mask></mask><g stroke-linecap="round"><g transform="translate(580.080283392891 317.6295258276241) rotate(0 117.39297238906511 -0.68726180466183)"><path d="M0.36 -0.35 C39.78 -0.49, 196.51 0.06, 235.69 0.27 M-0.91 -1.57 C38.51 -1.57, 195.94 -1.72, 235.27 -1.59" stroke="#364fc7" stroke-width="1" fill="none"></path></g></g><mask></mask><g stroke-linecap="round"><g transform="translate(464.46639562175733 174.1305398456243) rotate(0 154.88427080006204 -1.8889993912780483)"><path d="M0.67 -0.17 C52.47 -0.84, 258.64 -2.93, 310.2 -3.61 M-0.43 -1.31 C51.31 -1.83, 257.95 -1.87, 309.6 -2.21" stroke="#364fc7" stroke-width="1" fill="none"></path></g></g><mask></mask><g stroke-linecap="round"><g transform="translate(478.3112523259515 218.77335909391877) rotate(0 85.6584675599488 0.8211178553265199)"><path d="M0.21 0.88 C28.85 0.79, 143.83 0.03, 172.46 0.01 M-1.14 0.29 C27.36 0.38, 143.18 1.85, 171.94 1.61" stroke="#364fc7" stroke-width="1" fill="none"></path></g></g><mask></mask><g transform="translate(57.25759025186926 360.98354812664365) rotate(0 58 12.5)"><text x="0" y="18" font-family="Virgil, Segoe UI Emoji" font-size="20px" fill="#e67700" text-anchor="start" style="white-space: pre;" direction="ltr">Regression: </text></g><g transform="translate(217.92048214955503 362.5038294311471) rotate(0 354 12.5)"><text x="0" y="18" font-family="Virgil, Segoe UI Emoji" font-size="20px" fill="#000000" text-anchor="start" style="white-space: pre;" direction="ltr">Problem of predicting a real-valued quantity given an unlabeled example</text></g><g transform="translate(971.7240897217534 362.7970588757744) rotate(0 46.5 12.5)"><text x="46.5" y="18" font-family="Virgil, Segoe UI Emoji" font-size="20px" fill="#c92a2a" text-anchor="middle" style="white-space: pre;" direction="ltr">Example: </text></g><g transform="translate(1072.477855419941 364.0075804227781) rotate(0 110.5 12.5)"><text x="0" y="18" font-family="Virgil, Segoe UI Emoji" font-size="20px" fill="#000000" text-anchor="start" style="white-space: pre;" direction="ltr">House price evaluation</text></g><g transform="translate(60.17985246603621 413.3937035201834) rotate(0 327 12.5)"><text x="0" y="18" font-family="Virgil, Segoe UI Emoji" font-size="20px" fill="#000000" text-anchor="start" style="white-space: pre;" direction="ltr">The regression problem is solved by a regression learning algorithm</text></g><g transform="translate(212.53650425227806 462.44265353012634) rotate(0 264.5 12.5)"><text x="0" y="18" font-family="Virgil, Segoe UI Emoji" font-size="20px" fill="#000000" text-anchor="start" style="white-space: pre;" direction="ltr">that takes a collection of labeled examples as input</text></g><g transform="translate(373.246401733094 509.17568725921774) rotate(0 336.5 12.5)"><text x="0" y="18" font-family="Virgil, Segoe UI Emoji" font-size="20px" fill="#000000" text-anchor="start" style="white-space: pre;" direction="ltr">and produces a model that can take an unlabeled example as input</text></g><g transform="translate(503.0618574925311 553.4494597630201) rotate(0 105 12.5)"><text x="0" y="18" font-family="Virgil, Segoe UI Emoji" font-size="20px" fill="#000000" text-anchor="start" style="white-space: pre;" direction="ltr">and output a target</text></g><g stroke-linecap="round"><g transform="translate(415.702814884552 538.1299007117977) rotate(0 85.19980471476538 -1.1370178376992044)"><path d="M-0.27 0.81 C28.06 0.11, 142.44 -2.64, 170.67 -3.08 M1.79 0.18 C29.98 0.12, 142.54 -1.97, 170.26 -2.06" stroke="#364fc7" stroke-width="1" fill="none"></path></g></g><mask></mask><g stroke-linecap="round"><g transform="translate(693.519967617659 535.7485832002294) rotate(0 132.35004395970464 0.011997626196716737)"><path d="M0.81 1.02 C44.41 0.9, 218.87 -0.62, 262.73 -1 M-0.23 0.51 C43.65 0.58, 221 0.41, 264.93 0.26" stroke="#364fc7" stroke-width="1" fill="none"></path></g></g><mask></mask><g stroke-linecap="round"><g transform="translate(499.7571878328763 582.1319102856723) rotate(0 117.1347430657379 -0.3963450199316867)"><path d="M1.02 -0.98 C40.1 -1.1, 195.36 -0.2, 234.17 0.06 M0.1 1.12 C38.99 0.54, 193.57 -1.5, 232.95 -1.91" stroke="#364fc7" stroke-width="1" fill="none"></path></g></g><mask></mask><g stroke-linecap="round"><g transform="translate(435.54003875970557 444.96444141778557) rotate(0 138.30782740900622 -1.4714891232115406)"><path d="M-0.98 -0.52 C45.15 -1.49, 231.08 -4.06, 277.6 -4.76 M0.71 1.82 C46.63 1.51, 230.62 -2.7, 276.8 -3.64" stroke="#364fc7" stroke-width="1" fill="none"></path></g></g><mask></mask><g stroke-linecap="round"><g transform="translate(483.59334263355686 486.8642437676299) rotate(0 86.30455279021044 -0.1370498042088002)"><path d="M-0.52 0.28 C27.78 0.56, 142.28 0.9, 170.84 0.69 M1.4 -0.61 C30 -0.59, 144.48 -1.1, 173.13 -1.02" stroke="#364fc7" stroke-width="1" fill="none"></path></g></g><mask></mask><g stroke-linecap="round"><g transform="translate(131.8203130609145 181.00114738788216) rotate(0 31.721312695430242 15.924928100633224)"><path d="M-0.55 -0.93 C1.43 4.05, 0.3 24.25, 11.06 29.73 C21.81 35.22, 55.23 31.55, 63.99 31.96 M1.36 1.19 C3.81 5.84, 3.13 23.14, 13.4 27.94 C23.68 32.74, 54.68 29.63, 63.03 29.98" stroke="#364fc7" stroke-width="1" fill="none"></path></g><g transform="translate(131.8203130609145 181.00114738788216) rotate(0 31.721312695430242 15.924928100633224)"><path d="M36.97 38.45 C45.21 36.9, 50.95 34.11, 64.52 31.61 M38.05 39.55 C47.93 35.98, 57.55 32.75, 63.25 29.1" stroke="#364fc7" stroke-width="1" fill="none"></path></g><g transform="translate(131.8203130609145 181.00114738788216) rotate(0 31.721312695430242 15.924928100633224)"><path d="M36.52 20.44 C44.84 23.03, 50.68 24.37, 64.52 31.61 M37.61 21.54 C47.72 24.98, 57.52 28.76, 63.25 29.1" stroke="#364fc7" stroke-width="1" fill="none"></path></g></g><mask></mask><g stroke-linecap="round"><g transform="translate(288.4184057233633 227.4088551579025) rotate(0 31.057178909891263 15.181548591275714)"><path d="M-0.09 -0.41 C1.88 4.67, 1.02 24.65, 11.65 29.75 C22.28 34.86, 54.83 29.77, 63.7 30.22 M-1.59 -1.68 C0.22 3.13, -0.05 22.52, 10.65 27.97 C21.35 33.41, 53.47 30.57, 62.6 30.99" stroke="#364fc7" stroke-width="1" fill="none"></path></g><g transform="translate(288.4184057233633 227.4088551579025) rotate(0 31.057178909891263 15.181548591275714)"><path d="M37.3 40.18 C46.24 36.57, 50.55 35.85, 64.56 29.34 M37.18 39.61 C47.19 37.06, 57.07 32.47, 63.18 31.3" stroke="#364fc7" stroke-width="1" fill="none"></path></g><g transform="translate(288.4184057233633 227.4088551579025) rotate(0 31.057178909891263 15.181548591275714)"><path d="M37.04 22.18 C45.94 23.77, 50.32 28.26, 64.56 29.34 M36.92 21.6 C47.1 26.21, 57.08 28.77, 63.18 31.3" stroke="#364fc7" stroke-width="1" fill="none"></path></g></g><mask></mask><g stroke-linecap="round"><g transform="translate(399.51419005462867 277.7283019037259) rotate(0 31.21475686634085 15.470307199163472)"><path d="M-0.24 0.12 C1.55 5.05, 0.61 24.33, 11.36 29.35 C22.11 34.37, 55.27 30.07, 64.25 30.24 M-1.82 -0.86 C-0.28 3.7, -0.67 22.05, 10.21 27.36 C21.08 32.68, 54.14 30.42, 63.43 31.03" stroke="#364fc7" stroke-width="1" fill="none"></path></g><g transform="translate(399.51419005462867 277.7283019037259) rotate(0 31.21475686634085 15.470307199163472)"><path d="M38.86 39.28 C47.83 36.65, 54.49 35.14, 61.97 30.56 M38.35 40.6 C45.9 38.21, 55.12 34.19, 63.54 31.74" stroke="#364fc7" stroke-width="1" fill="none"></path></g><g transform="translate(399.51419005462867 277.7283019037259) rotate(0 31.21475686634085 15.470307199163472)"><path d="M38.93 21.28 C47.86 25.01, 54.49 29.87, 61.97 30.56 M38.42 22.59 C46.13 26.02, 55.33 27.81, 63.54 31.74" stroke="#364fc7" stroke-width="1" fill="none"></path></g></g><mask></mask><g stroke-linecap="round"><g transform="translate(131.5572309682875 444.3014471335464) rotate(0 32.22379550617279 16.685213759175895)"><path d="M0.78 1.03 C2.98 5.96, 2.27 24.57, 12.93 29.64 C23.58 34.71, 56.02 31.06, 64.72 31.44 M-0.27 0.52 C1.9 5.09, 1.86 22.41, 12.6 27.8 C23.33 33.19, 55.28 32.53, 64.14 32.85" stroke="#364fc7" stroke-width="1" fill="none"></path></g><g transform="translate(131.5572309682875 444.3014471335464) rotate(0 32.22379550617279 16.685213759175895)"><path d="M40.97 43.41 C47.06 39.5, 53.38 37.77, 65.24 33.96 M39.98 41.11 C47.21 38.5, 55.18 36.46, 63.91 32.68" stroke="#364fc7" stroke-width="1" fill="none"></path></g><g transform="translate(131.5572309682875 444.3014471335464) rotate(0 32.22379550617279 16.685213759175895)"><path d="M41.26 25.41 C47.28 26.5, 53.52 29.77, 65.24 33.96 M40.27 23.1 C47.28 26.57, 55.15 30.6, 63.91 32.68" stroke="#364fc7" stroke-width="1" fill="none"></path></g></g><mask></mask><g stroke-linecap="round"><g transform="translate(293.6085236563422 496.84984540165897) rotate(0 31.27519979918452 16.12914425098279)"><path d="M-0.14 0.16 C1.67 5.04, 0.23 24.43, 10.95 29.8 C21.68 35.17, 55.39 32.24, 64.23 32.38 M-1.68 -0.79 C0.5 3.7, 2.4 22.8, 13.25 28.04 C24.1 33.27, 54.93 30.07, 63.4 30.64" stroke="#364fc7" stroke-width="1" fill="none"></path></g><g transform="translate(293.6085236563422 496.84984540165897) rotate(0 31.27519979918452 16.12914425098279)"><path d="M39.06 38.67 C47.49 36.92, 55.81 33.65, 62.38 31.77 M39.46 40.06 C45.4 36.92, 51.07 35.32, 63.96 31.17" stroke="#364fc7" stroke-width="1" fill="none"></path></g><g transform="translate(293.6085236563422 496.84984540165897) rotate(0 31.27519979918452 16.12914425098279)"><path d="M38.81 20.66 C47.39 24.47, 55.78 26.75, 62.38 31.77 M39.21 22.05 C45.37 23.62, 51.11 26.72, 63.96 31.17" stroke="#364fc7" stroke-width="1" fill="none"></path></g></g><mask></mask><g stroke-linecap="round"><g transform="translate(422.095395435128 544.7385690262181) rotate(0 32.11281838845571 15.416504450611683)"><path d="M1.1 -0.85 C3 3.94, 1.1 22.72, 11.59 27.91 C22.07 33.1, 55.4 29.85, 64 30.28 M0.23 1.32 C1.92 6.29, 0.08 23.86, 10.55 28.82 C21.02 33.78, 54.33 30.69, 63.05 31.09" stroke="#364fc7" stroke-width="1" fill="none"></path></g><g transform="translate(422.095395435128 544.7385690262181) rotate(0 32.11281838845571 15.416504450611683)"><path d="M37.09 40.33 C44.43 36.73, 52.65 32.36, 61.79 32.04 M38.95 41.23 C48.5 37.7, 57.86 34.23, 63.13 32.05" stroke="#364fc7" stroke-width="1" fill="none"></path></g><g transform="translate(422.095395435128 544.7385690262181) rotate(0 32.11281838845571 15.416504450611683)"><path d="M36.72 22.33 C44.06 24.49, 52.4 25.88, 61.79 32.04 M38.57 23.23 C48.39 26.54, 57.89 29.91, 63.13 32.05" stroke="#364fc7" stroke-width="1" fill="none"></path></g></g><mask></mask></svg>