<svg version="1.1" xmlns="http://www.w3.org/2000/svg" viewBox="0 0 1374.198263753202 596.5892543622558" width="4122.594791259606" height="1789.7677630867674">
  <!-- svg-source:excalidraw -->
  
  <defs>
    <style class="style-fonts">
      @font-face {
        font-family: "Virgil";
        src: url("https://excalidraw.com/Virgil.woff2");
      }
      @font-face {
        font-family: "Cascadia";
        src: url("https://excalidraw.com/Cascadia.woff2");
      }
    </style>
  </defs>
  <rect x="0" y="0" width="1374.198263753202" height="596.5892543622558" fill="#ffffff"></rect><g stroke-linecap="round" transform="translate(10 10) rotate(0 175.5 24.5)"><path d="M0 0 C0 0, 0 0, 0 0 M0 0 C0 0, 0 0, 0 0 M-0.14 7.29 C3.07 4.89, 2.45 0.95, 4 -1.03 M0.42 7.03 C1.36 4.23, 3.49 2.47, 4.25 0.78 M-0.54 9.23 C5.29 7.49, 8.9 2.46, 10.26 2.21 M1.18 12.09 C2.41 7.2, 5.47 4.91, 9.1 -0.84 M0.19 22.08 C7.22 15.1, 6.72 5.5, 12.9 3.43 M0.74 18.75 C5.87 12.2, 10 8.67, 14.3 -0.25 M1.7 23.65 C3.87 15.5, 13.64 12.8, 18.72 -1.69 M1.34 22.92 C6.54 16.9, 17.41 5.13, 22.07 0.57 M0.37 27.54 C6.28 20.27, 21.35 6.19, 24.5 -0.51 M-0.31 29.99 C6.01 24.09, 14.57 14.15, 26.99 0.21 M0.23 33.37 C14.3 26, 24.25 7.06, 34.52 0.41 M-1.35 37.11 C9.37 25.83, 17.81 14.8, 33.49 0.08 M0.1 43.14 C12.49 34.6, 17.73 14.98, 36.42 -3.36 M0.87 42.04 C13.3 28.04, 25.66 12.57, 37.54 0.87 M-3.21 46.24 C8.94 39.89, 19.56 24.32, 43.73 2.58 M-1.75 48.04 C10.83 37.37, 21.72 24.33, 43.28 -0.88 M5.66 49.87 C13.29 42.15, 25.05 25.1, 47.86 0.31 M2.46 50.25 C20.18 32.77, 34.06 14.23, 49.19 -0.09 M7.31 49.9 C17.09 42.78, 34.54 21.37, 52.62 -3.79 M9.87 50.32 C23.96 31.56, 36.67 17.53, 52.66 1.4 M14.09 47.56 C26.54 41.8, 34.18 33.41, 58.17 1.83 M14.16 53.04 C25.24 39.81, 32.79 25.28, 56.14 -0.44 M19.36 48.21 C31.19 41.69, 38.86 32.48, 63.58 2.55 M17.69 52.96 C37.11 33.5, 52.26 13.63, 63.77 0.68 M21.39 49.03 C38.92 32.24, 50.05 14.02, 66.81 2.39 M25.51 49.98 C40.28 35.63, 50.55 19.21, 67.51 2.11 M31.3 51.88 C40.91 38.41, 52.83 30.68, 75.16 0.73 M27.48 50.04 C45.73 31.5, 63.44 11.51, 75.73 0.78 M35.61 47.92 C50.59 32.14, 64.65 14.77, 81.36 -2.94 M34.87 49.65 C51.2 28.78, 71.09 10.45, 79.38 1.92 M36.21 54.47 C55.98 36.89, 65.3 19.82, 81.99 -0.25 M38.54 52.65 C48.99 42.21, 61.32 31.46, 84.56 -0.41 M44.89 51.72 C57.22 40.23, 68.93 25.82, 93.54 -1.22 M45.51 50.69 C55.24 38.6, 67.19 27.16, 90.73 1.41 M51.31 51.44 C58.21 37.63, 74.29 20.23, 98.85 -1.5 M49.12 51.96 C65.63 34.58, 81.87 16.62, 95.24 1.07 M57.51 49.81 C65.21 34.98, 83.11 21.46, 103.18 -1.63 M57.66 49.78 C64.22 38.62, 75.54 25.61, 99.52 -0.94 M61.92 48.1 C71.86 42.59, 79.41 28.9, 104.65 1.73 M60.43 51.22 C80.84 31.43, 97.45 11.52, 105.68 -0.78 M69.86 53.46 C79.6 36.83, 94.79 19.03, 110.25 -3.47 M68.47 49.71 C83.55 31.86, 98.3 15.1, 110.62 1.41 M69.52 51.65 C86.08 33.95, 99.08 16.82, 113.74 -3.17 M72.59 49.7 C83.4 40.49, 95.03 29.21, 118.06 -1.13 M74.47 47.79 C93.3 36.66, 105.06 12.94, 122.84 3.82 M76.04 51.28 C93.51 33.96, 110.15 12.47, 123.85 -0.93 M83.68 55.15 C101.76 33.83, 120.13 16.58, 130.6 -1.2 M80.65 50.78 C98.13 32.95, 111.35 16.29, 125.48 0.65 M84 47.82 C103.84 33.45, 114.17 18.25, 133.17 0.68 M87.41 49.39 C100.62 39.71, 110.62 22.44, 133.96 -1.29 M90.14 53.54 C109.46 31, 125.61 11.23, 137.84 -1.24 M94.63 49.86 C106.14 36.36, 121.07 19.59, 136.01 1.52 M99.21 50.41 C108.51 40.18, 123.76 22.68, 141.55 1.44 M98.55 53 C108.4 36.37, 123.74 24.65, 142.64 -0.93 M106.71 51.65 C116.21 43.38, 120.39 32.68, 146.87 0.98 M103.47 50.42 C115.04 38.43, 129.58 23.07, 147.31 -0.26 M109.01 50.33 C119.04 37.06, 136.48 17.7, 156.47 -1.72 M110.37 53.1 C122.49 36.28, 136.47 21.04, 154.52 -1.08 M111.37 48.16 C128.97 35.35, 150.11 14.09, 157.2 -0.41 M115.04 52.02 C129.24 36.26, 141.25 17.96, 157.97 -0.36 M122.43 48.21 C132.26 35.67, 140.78 27.08, 162.51 1.28 M120.71 50.78 C131.73 38.98, 140.59 23.73, 165.16 1.14 M122.21 51.65 C140.39 35.94, 150.66 16.46, 172.49 2.59 M124.16 50.26 C134.69 39.13, 147.16 27.76, 167.53 -0.4 M127.95 51.3 C142.95 37.61, 149.74 28.96, 176.38 -1.62 M131.7 49.94 C139.44 40.66, 150.05 27.79, 173.07 0.64 M133.43 48.56 C147.84 41.5, 152.44 28.62, 176.52 -0.13 M136.58 52.8 C147.86 33.64, 164.9 18.58, 180.46 0.07 M144.17 54.48 C154.1 38.37, 170.87 16.21, 182.92 3.39 M140.38 50.25 C151.72 37.13, 162.87 23.29, 187.69 0.4 M147.37 51.21 C162.07 36.34, 173.3 20.99, 189.19 3.17 M145 51.39 C161.11 37.29, 171.35 20.09, 190.17 -0.44 M151.83 52.77 C166.96 34.37, 177.9 25.67, 199.09 0.02 M150.75 51.74 C166.09 32.82, 182.55 15.48, 197.39 -0.54 M158.5 49.79 C168.12 29.71, 184.72 13.28, 202.51 -1.86 M157.03 49.8 C165.13 40.47, 177.7 28.16, 203 -1.34 M160.45 54.28 C182.05 30.07, 196.44 13.94, 209.98 -2.17 M160.4 51.73 C177.79 33.07, 191.75 13.74, 205.49 0.94 M169.4 52.36 C179.25 37.88, 193.43 23.59, 212.64 0.27 M167.25 51.91 C184.24 31.86, 199.8 16.51, 210.25 0 M175.69 49.03 C187.47 33.54, 207.14 8.81, 216.8 0.25 M171.88 53.62 C187.08 30.68, 205.89 13.14, 218.24 0 M174.8 52.88 C192.67 29.9, 213.08 14.09, 219.86 -1.05 M177.16 49.62 C185.61 42.19, 194.84 31.8, 224.12 0.27 M183.32 48.9 C191.97 37.89, 205.97 19.5, 228.89 -3.38 M184.64 50.84 C198.54 32.53, 213.26 16.28, 228.84 -0.13 M185.51 55.16 C207.03 36.62, 223.06 14.92, 236.57 -2.57 M187.19 50.93 C201.73 35.82, 212.05 24.87, 233.79 -1.75 M197.25 55.64 C201.18 42.59, 212.29 34.04, 239.06 2.88 M195.11 50.92 C213.37 30.04, 230.21 12.82, 236.75 0.6 M196.52 48.9 C210.17 41.3, 221.98 26.17, 247.29 -3.16 M200.74 51.86 C205.89 40.53, 215.92 28.86, 245.34 -1.25 M203.48 52.89 C223.51 34.33, 235.2 15.72, 250.21 2.58 M204.62 51.43 C214.83 41.33, 223.61 29.93, 250.36 0.04 M210.9 49.66 C222.95 36.36, 241.46 14.19, 256.67 -3.8 M208.11 52.54 C222.83 31.14, 239.31 14.98, 253.82 0.66 M216.19 54.14 C233.82 33.63, 248.54 15.79, 263.4 -0.57 M215.47 52 C231.22 34.94, 246.99 17.63, 259.01 -1.64 M223.88 50.88 C227.72 41.45, 244.99 23.23, 265.49 0.37 M218.55 53.12 C239.14 32.96, 256.29 13.59, 263.18 0.94 M221.64 54.79 C239.79 37.73, 255.64 21.9, 272.45 -1.75 M226.87 50.34 C239.59 39.46, 251.88 24.03, 271.64 -0.96 M230.77 47.89 C247.69 31.13, 262.68 12.92, 278.65 -3.88 M232.25 49.85 C240.86 41.08, 251.45 32.39, 274.35 -1.4 M234.23 48.08 C248.71 30.27, 269 14.85, 279.34 -2.28 M234.98 50.21 C252.84 31.41, 272.02 12.78, 280.12 1.63 M242.41 54.63 C252.15 35.74, 264.44 19.44, 289.17 0.08 M239.7 51.76 C255.04 34.23, 271.47 17.52, 285.17 -1.29 M248.49 49.15 C262.8 35.12, 280.8 16.67, 294.16 -1.58 M244.9 53.44 C262.12 32.86, 278.24 10.89, 291.28 1.73 M255.67 52.66 C262.75 37.12, 273.67 23.63, 294.21 2.76 M252.26 53.71 C261.91 36.57, 273.12 26.51, 298.43 0.41 M255.06 55.01 C266.74 38.08, 276.21 31.74, 303.11 2.78 M258.66 51.91 C267.69 40.17, 274.07 30.07, 302.87 -0.99 M265.63 51.68 C271.06 35.12, 288.65 21.75, 311.03 0.52 M262.28 52.87 C277.05 36.73, 291.11 21.22, 305.83 0.9 M264.73 52.53 C282.92 30.81, 297.58 16.55, 316.53 -0.86 M267.24 51.57 C285.69 32.34, 303.3 12.87, 311.58 1.21 M276.12 54.51 C292.35 33.04, 305.16 7.37, 321.04 3.64 M273.71 53.72 C290.87 32.94, 306.9 11.88, 320.05 -0.55 M276.4 50.46 C296.68 29.31, 309.1 13.4, 320.89 1.67 M278.54 52.43 C290.69 36.68, 305.27 20.43, 325.03 0.12 M283.09 49.84 C292.75 36.73, 305.9 22.98, 325.77 -3.77 M285.41 52.81 C293.31 42.39, 302.55 32, 330.69 1.37 M293.09 47.45 C304.84 37.64, 313.89 22.89, 334.78 2.45 M289.42 52.58 C299.19 41.78, 307.52 30.83, 333.79 -0.41 M290.65 52.24 C305.17 41.49, 317.6 30.84, 338.87 0.32 M295.21 50.73 C309.36 38, 321.55 18.94, 340.26 -1.95 M297.94 48 C317.01 31.59, 330.43 13.8, 344.9 3.43 M301.64 52.14 C314.67 31.42, 330.24 16.31, 343.36 -0.46 M303 54.16 C313.23 40.97, 329.57 22.14, 353.45 -3.48 M303.86 52.17 C321.88 33.01, 342.91 10.23, 347.6 -0.29 M310.24 54.48 C322.05 42.37, 331.82 30.02, 352.13 2.68 M309.95 49.32 C320.72 39.95, 328.22 29.92, 352.22 2.23 M316.48 49.9 C325.76 34.78, 344.57 21.77, 354.16 8.64 M315.05 49.85 C322.01 42.35, 331.54 31.49, 351.86 7.89 M321.39 51.16 C329.74 40.92, 346.42 24.32, 352.87 13.45 M321.99 52.38 C325.85 43.84, 334.63 35.48, 353.18 15.23 M327.55 51.67 C340.14 36.25, 344.86 30.11, 352.35 18.8 M327.41 52.57 C334.7 42.36, 343.93 34.62, 351.7 22.66 M334.91 52.16 C338.2 44.62, 342.51 41.75, 350.74 25.49 M330.37 51.65 C338.18 46.81, 340.52 40.7, 353.09 24.84 M332.8 49.53 C340.48 46.77, 343.68 38.13, 351.42 34.46 M338.5 53.17 C344.05 43.23, 348.47 37.62, 354.65 33.61 M342.44 53.15 C343.29 44.99, 348.52 41.52, 356.43 39.96 M340.88 51.47 C346.37 48.17, 349.57 44.51, 353.26 39.11 M346.29 51.5 C350.16 47.97, 353.25 46.38, 353.15 44.31 M348.03 52.02 C350.08 49.93, 351.11 47.45, 354.19 44.06" stroke="#228be6" stroke-width="0.5" fill="none"></path><path d="M0.65 -1.49 C114.14 1.59, 227.1 3.9, 352.09 0.36 M-0.72 -0.07 C119.04 -2.61, 236.92 -2.54, 352.06 0 M349.93 -3.75 C353.53 12.54, 346.98 28.86, 348.99 52.02 M351.58 -1.44 C350.03 11.5, 351.22 25.77, 350.16 47.46 M350.49 47.01 C259.48 51.85, 170.58 49.48, -1.63 48.17 M351.29 48.54 C249.33 52.82, 146.79 53.8, -1.01 49.75 M-3.06 45.55 C-1.69 32.38, 1.22 18.25, 0.05 1.77 M0.51 50.07 C1.51 34.06, 1.51 14.89, 1.8 -1.29" stroke="#000000" stroke-width="1" fill="none"></path></g><g transform="translate(46.5 16.5) rotate(0 139 18)"><text x="139" y="25" font-family="Virgil, Segoe UI Emoji" font-size="28px" fill="#000000" text-anchor="middle" style="white-space: pre;" direction="ltr">Raw and Tidy Data</text></g><g stroke-linecap="round" transform="translate(11.546737479987314 56.400372532752954) rotate(0 676.3257631366073 265.09444091475143)"><path d="M0.89 -0.29 C345.78 7.37, 690.13 6.45, 1353.26 0.43 M1353.07 0.55 C1349.68 195.29, 1351.59 389.3, 1351.93 529.09 M1353.93 530.2 C939.73 521.59, 528.68 521.26, -0.88 528.63 M-0.01 529.78 C-0.29 341.84, -1.9 149.46, -0.64 -0.04" stroke="#000000" stroke-width="1.5" fill="none" stroke-dasharray="8 9"></path></g><g transform="translate(59.32328576956843 93.29419897466505) rotate(0 477.5 12.5)"><text x="0" y="18" font-family="Virgil, Segoe UI Emoji" font-size="20px" fill="#000000" text-anchor="start" style="white-space: pre;" direction="ltr">Directly used data represents a collection of entities that constitute the basis of a dataset</text></g><g transform="translate(454.1552652378796 171.8396243883053) rotate(0 364.5 12.5)"><text x="0" y="18" font-family="Virgil, Segoe UI Emoji" font-size="20px" fill="#000000" text-anchor="start" style="white-space: pre;" direction="ltr">Each entity in that collection can be transformed into a training example</text></g><g stroke-linecap="round"><g transform="translate(386.7900080488962 132.051401194527) rotate(0 20.91409234123512 27.318613833999734)"><path d="M0.17 -1.18 C0.03 7.43, -8.4 41.74, -0.67 50.87 C7.05 60, 38.73 53.48, 46.5 53.59 M-1.2 0.82 C-1.43 9.64, -8.96 43.63, -1.11 52.12 C6.73 60.62, 38 51.79, 45.87 51.8" stroke="#364fc7" stroke-width="1" fill="none"></path></g><g transform="translate(386.7900080488962 132.051401194527) rotate(0 20.91409234123512 27.318613833999734)"><path d="M22.73 64.6 C30.52 59.86, 39.78 55.48, 44.22 52.55 M24.42 62.28 C30.97 59.46, 37.69 56.6, 45.69 52.56" stroke="#364fc7" stroke-width="1" fill="none"></path></g><g transform="translate(386.7900080488962 132.051401194527) rotate(0 20.91409234123512 27.318613833999734)"><path d="M20.49 48.37 C28.88 48.72, 38.85 49.43, 44.22 52.55 M22.18 46.05 C29.47 48.12, 36.86 50.13, 45.69 52.56" stroke="#364fc7" stroke-width="1" fill="none"></path></g></g><mask></mask><g transform="translate(298.8729144560557 297.97127489295417) rotate(0 52 12.5)"><text x="0" y="18" font-family="Virgil, Segoe UI Emoji" font-size="20px" fill="#e67700" text-anchor="start" style="white-space: pre;" direction="ltr">Raw Data</text></g><g transform="translate(918.5279759562654 295.67812957431124) rotate(0 53 12.5)"><text x="0" y="18" font-family="Virgil, Segoe UI Emoji" font-size="20px" fill="#e67700" text-anchor="start" style="white-space: pre;" direction="ltr">Tidy Data</text></g><g transform="translate(151.27645093353476 344.60889252207744) rotate(0 210 12.5)"><text x="210" y="18" font-family="Virgil, Segoe UI Emoji" font-size="20px" fill="#000000" text-anchor="middle" style="white-space: pre;" direction="ltr">Collection of entities in their natural form</text></g><g transform="translate(145.34430750847423 410.8064199502114) rotate(0 219 12.5)"><text x="219" y="18" font-family="Virgil, Segoe UI Emoji" font-size="20px" fill="#000000" text-anchor="middle" style="white-space: pre;" direction="ltr">Not directly employable for machine learning </text></g><g transform="translate(232.16224358731688 479.7619194507661) rotate(0 134.5 12.5)"><text x="134.5" y="18" font-family="Virgil, Segoe UI Emoji" font-size="20px" fill="#000000" text-anchor="middle" style="white-space: pre;" direction="ltr">E.g., Word Document, JPEG</text></g><g transform="translate(852.8257830942994 340.58039398933033) rotate(0 115 12.5)"><text x="115" y="18" font-family="Virgil, Segoe UI Emoji" font-size="20px" fill="#000000" text-anchor="middle" style="white-space: pre;" direction="ltr">Spreadsheets-like data</text></g><g transform="translate(706.3201344288263 483.33212504126277) rotate(0 285.5 12.5)"><text x="285.5" y="18" font-family="Virgil, Segoe UI Emoji" font-size="20px" fill="#000000" text-anchor="middle" style="white-space: pre;" direction="ltr">Row representing samples, columns representing attributes</text></g><g stroke-linecap="round"><g transform="translate(658.5151134283269 287.2722291980135) rotate(0 0.06785608040991065 122.70340019939431)"><path d="M0.36 -0.31 C0.5 40.64, -0.08 204.51, -0.25 245.71" stroke="#364fc7" stroke-width="1.5" fill="none" stroke-dasharray="8 9"></path></g></g><mask></mask><g stroke-linecap="round"><g transform="translate(429.70725570265586 313.0590319238745) rotate(0 232.4972798399781 -29.17578309174769)"><path d="M-0.64 0.72 C24.28 0.97, 119.26 9.96, 149.31 1.04 C179.36 -7.89, 154.71 -42.78, 179.67 -52.84 C204.64 -62.9, 278.73 -67.05, 299.09 -59.32 C319.45 -51.59, 274.29 -15.5, 301.85 -6.44 C329.41 2.62, 437.47 -5.52, 464.44 -4.97 M1.22 0.05 C26.07 -0.04, 119.12 7.73, 148.71 -0.96 C178.3 -9.65, 153.73 -42.57, 178.75 -52.09 C203.78 -61.62, 278.51 -65.72, 298.86 -58.09 C319.21 -50.46, 273.06 -15.53, 300.85 -6.3 C328.65 2.93, 438.5 -3.1, 465.64 -2.69" stroke="#364fc7" stroke-width="1" fill="none"></path></g><g transform="translate(429.70725570265586 313.0590319238745) rotate(0 232.4972798399781 -29.17578309174769)"><path d="M438.84 9.2 C445.91 4.73, 451.53 0.69, 466.04 -1.18 M436.66 9.09 C444.58 4.83, 452.31 3.35, 466.51 -1.78" stroke="#364fc7" stroke-width="1" fill="none"></path></g><g transform="translate(429.70725570265586 313.0590319238745) rotate(0 232.4972798399781 -29.17578309174769)"><path d="M438.46 -11.32 C445.55 -10.05, 451.27 -8.36, 466.04 -1.18 M436.28 -11.43 C444.23 -10.36, 452.06 -6.5, 466.51 -1.78" stroke="#364fc7" stroke-width="1" fill="none"></path></g></g><mask></mask><g transform="translate(558.4532059947596 215.76435018649317) rotate(0 95 12.5)"><text x="95" y="18" font-family="Virgil, Segoe UI Emoji" font-size="20px" fill="#364fc7" text-anchor="middle" style="white-space: pre;" direction="ltr">Feature Engineering</text></g><g transform="translate(779.8030845613011 408.74886680397685) rotate(0 193.5 12.5)"><text x="193.5" y="18" font-family="Virgil, Segoe UI Emoji" font-size="20px" fill="#000000" text-anchor="middle" style="white-space: pre;" direction="ltr">Directly employable for machine learning</text></g></svg>