<svg version="1.1" xmlns="http://www.w3.org/2000/svg" viewBox="0 0 1356.8571440710402 345.2309155287894" width="4070.5714322131207" height="1035.6927465863682">
  <!-- svg-source:excalidraw -->
  
  <defs>
    <style class="style-fonts">
      @font-face {
        font-family: "Virgil";
        src: url("https://excalidraw.com/Virgil.woff2");
      }
      @font-face {
        font-family: "Cascadia";
        src: url("https://excalidraw.com/Cascadia.woff2");
      }
    </style>
  </defs>
  <rect x="0" y="0" width="1356.8571440710402" height="345.2309155287894" fill="#ffffff"></rect><g stroke-linecap="round" transform="translate(10 10) rotate(0 152.5 23.5)"><path d="M0 0 C0 0, 0 0, 0 0 M0 0 C0 0, 0 0, 0 0 M0.32 6.05 C0.54 5.6, 4.41 1.94, 4.63 -0.22 M0.24 6.37 C1.47 5.47, 3.3 2.91, 5.18 0.94 M-0.73 9.99 C2.82 9.73, 10.89 1.09, 13.67 -3.02 M0.93 12.34 C3.59 7.91, 4.93 6.71, 11.44 -0.96 M-0.44 17.73 C1.48 12.18, 6.71 7.17, 13.89 -2.84 M1.09 18.85 C8.26 10.96, 12.63 4.3, 13.71 1.91 M3.59 27.97 C9.78 14.24, 15.85 5.9, 24.95 -4.06 M-1.19 22.09 C7.56 19.28, 9.15 12.77, 19.5 -0.39 M2.16 29.27 C5.58 21.24, 13.41 13.94, 27.43 -1.06 M-1.62 29.26 C6.54 25.12, 10.7 17.69, 25.4 -1.31 M2.27 35.57 C10.78 21.58, 18.79 16.17, 33.06 1.4 M-1.93 35.47 C5.89 29.32, 13.26 20.01, 32.95 0.78 M-1.84 38.65 C11.99 29.55, 19.11 27.41, 37.43 0.19 M-0.33 40.71 C11.42 31.31, 19.89 19.29, 35.04 -0.94 M-0.07 47.7 C9.22 37.82, 17.27 31.73, 38.52 2.52 M-0.71 49.21 C16.42 31.87, 26.97 16.62, 44.46 -1.21 M2.73 51.46 C14.94 36.51, 28.75 23.64, 44.72 -1.26 M6.59 47.58 C15.76 37.46, 24.92 25.17, 48.07 2.01 M13.47 45.13 C23.11 32.17, 33.39 19.36, 53.25 3.04 M9.72 47.49 C28.12 29.98, 43.9 12.39, 51.43 0.13 M19.95 47.46 C28.87 28.8, 46.72 17.63, 58.26 2.27 M18.47 46.67 C28.62 37.4, 36.5 21.18, 56.88 -1.43 M21.48 51.11 C39.53 30.3, 52.44 9.66, 61.27 -3.4 M21.11 47.15 C35.01 31.24, 47.53 16.48, 64.22 1.38 M30.76 48.07 C43.08 25.35, 62.91 7.43, 71.16 -3.65 M28.33 48.57 C34.09 39.9, 43.92 30.05, 68.78 -0.14 M33.89 50.47 C47.01 27.67, 64.27 17.27, 74.71 -1.3 M31.37 48.82 C50.22 29.65, 66.02 12.55, 74.1 1.19 M40.82 51.29 C44.55 37.01, 57.59 22.76, 76.61 0.43 M38.69 48.67 C48.01 36.46, 53.56 26.29, 78.02 1.05 M45.41 45.14 C56.23 32.9, 71.46 12.59, 85.87 -1.28 M42.02 48.41 C54.62 32.72, 67.98 20.84, 85.3 0.25 M51.89 45 C62.99 32.58, 80.68 11.78, 91.95 3.83 M49.03 48.43 C63.58 31.97, 79.13 12.34, 89.79 1.36 M50.88 46.95 C64.25 39.26, 76.16 27.71, 99.15 -0.09 M53.47 49.9 C67 33.71, 79.27 20.21, 94.98 1.32 M61.87 46.95 C72.88 32.44, 87.31 12.3, 102.65 -2.26 M59.76 47.35 C75.25 27.07, 93.33 10.59, 100.22 0.08 M61.26 45.59 C77.86 28.14, 97.03 17.26, 107.05 3.42 M65.13 49.34 C77.99 34.25, 90.92 15.07, 105.24 1.22 M72.8 48.79 C77.12 35.75, 87.64 26.9, 110.31 -0.78 M68.23 47.02 C81.01 37.59, 86.66 27.64, 112.37 0.58 M71.64 48.63 C87.66 31.94, 109.02 9.89, 113.59 1 M75.29 46.83 C86.39 37.2, 96.1 25.08, 114.45 -0.38 M82.82 48.01 C93.41 31.36, 108.97 11.37, 124.62 3.22 M80.71 47.06 C95.72 28.25, 109.54 11.61, 120.25 -1.72 M85.24 49.51 C104.3 31.49, 114.33 13.86, 128.85 4.01 M85.21 46.54 C103.17 30.03, 119.52 8.58, 127.89 -0.07 M94.21 48 C102.03 27.83, 117.9 17.78, 131.42 -1.43 M92.44 49.19 C107.97 31.33, 122.8 12.28, 132.8 0.65 M97.39 51.54 C110.74 30.29, 124.62 14.74, 141.08 -0.02 M95.09 48.7 C107.82 34.38, 118.74 22.72, 137.83 1.93 M105.36 50.01 C112.01 36.5, 120.42 30.95, 140.69 -0.06 M103.56 49.15 C115.24 30.35, 131.21 15.29, 141.89 -0.76 M103.56 43.93 C115.19 37.15, 126.69 30.42, 151.29 -2.47 M108.05 49.61 C118.34 30.82, 133.58 17.64, 150.1 -1.3 M110.81 45.17 C124.47 32.62, 132.65 28.64, 154.51 -0.08 M111.19 48.78 C128.35 31.17, 142.89 11.19, 154.35 1.66 M115.33 49.74 C124.95 36.31, 136.94 20.95, 156.64 3.17 M118.16 49.63 C131.91 34.34, 144.07 21.77, 159.49 1.37 M125.2 46.5 C142.37 30.85, 158.09 12.09, 167.08 0.94 M121.34 47.97 C137.09 32.13, 150.65 19.12, 163.92 -0.43 M128.41 45.92 C144.05 30.26, 149.61 18.97, 166.4 -2.72 M126.41 49.16 C141.14 34.64, 152.34 17.12, 169.73 -0.86 M134.66 49.61 C145.3 37.27, 146.29 31.29, 172.76 -0.68 M132.34 49.42 C151.51 27.45, 166.59 11.92, 175.3 0.7 M138.65 51.28 C157.43 28.76, 170.06 8.64, 177.98 -1.89 M136.76 48.7 C148.72 35.31, 160.46 22.92, 181.46 -0.72 M147.39 45.77 C160.13 31.89, 177.19 12, 182 1.26 M145.41 47.63 C153.13 35.96, 162.63 27.17, 184.11 0.86 M150 46.51 C160.97 32.82, 180.25 16.64, 192.9 -2.2 M148.07 48.79 C162.42 31.5, 173.98 18.31, 192.3 -0.89 M157.76 50.35 C168.09 32.39, 181.31 21.19, 197.38 -1.17 M152.73 49.43 C165.58 33.87, 177.27 21.54, 196.91 -0.1 M158.56 46.19 C171.87 28.39, 189.7 14.85, 200.81 2.35 M158.17 46.03 C176.06 30.58, 186.34 18.01, 200.76 2.01 M164.93 51.86 C182.66 31.06, 196.95 11.01, 205.63 1.96 M164.1 46.96 C181.03 31.2, 194.09 13.45, 207.22 -2.27 M168.54 50.76 C182.09 32.64, 196.32 17.66, 211.48 -0.36 M171.8 49.09 C180.48 32.97, 190.17 23.65, 210.33 1.45 M172.17 44.69 C185.85 33.89, 199.5 22.82, 217.59 -1.52 M174.23 46.43 C191.58 29.04, 210.9 9.36, 219.47 -1.67 M184.27 46.53 C192.43 31.53, 212.82 18.02, 222.82 -0.57 M180.66 46.71 C192.91 37.96, 198.86 28.06, 221.42 0.92 M186.89 45.08 C199.03 33.26, 214.66 13.98, 228.2 2.07 M186.79 48.08 C201.1 28.54, 215.66 12.85, 229.04 -2.24 M194.22 45.71 C202.84 40.63, 208.71 25.77, 236.86 1.35 M191.38 47.68 C207.61 30.6, 220.95 11.69, 231.36 -1.98 M196.59 51.17 C214.19 29.19, 223.54 15.64, 239.91 -2.93 M198.37 46.26 C214.92 29.2, 227.84 11.13, 237.58 0.87 M202.97 46.35 C210.46 31.86, 221.19 21.85, 243.73 2.9 M201.51 48.85 C212.34 36.81, 219.85 26.25, 242.45 0.36 M208.95 50.97 C214.3 35.91, 225.1 29.19, 249.24 -0.59 M206.5 49.34 C218.37 37.58, 229.27 21.86, 247.68 2.32 M215.25 48.4 C224.73 35.16, 240.88 19.51, 253.72 -0.53 M211.57 47.14 C224.85 33.71, 236.36 20.93, 253.9 1.66 M219.73 46.36 C234.14 36.1, 247.77 20.82, 258.87 -2.85 M217.65 47.78 C230.2 31.51, 245.32 16.85, 258.84 -0.9 M219.88 45.68 C232.62 31.98, 242.15 23.8, 265.23 0.32 M224.99 47.54 C238.62 31.85, 252.12 14.24, 265.88 1.68 M228.83 45.09 C241.84 31.77, 254.5 26.83, 272.26 3.5 M227.24 46.09 C244.33 31.52, 258.21 15.98, 270.22 -0.5 M237.83 49.89 C248.18 28.73, 264.63 8.97, 272.79 -3.44 M236.15 47.09 C247.6 32.63, 259.63 19.91, 275.48 -1.76 M240.27 44.79 C252.19 35.71, 257.56 24.31, 277.01 1.52 M239.62 46.84 C252.46 31.64, 262.22 21.66, 279.87 -0.12 M241.53 51.34 C255.06 37.5, 266.58 26.56, 283.03 1.21 M245.71 47.65 C260.57 31.85, 276.83 14.12, 284.74 -0.77 M246.22 48.97 C265.44 32.57, 272.21 18.26, 292.83 0.15 M248.06 46.68 C264.38 31.48, 280.26 13.57, 292.79 0.65 M253.51 47.97 C266.58 33.48, 282.82 13.97, 298.75 1.16 M255.24 48.88 C265.38 37.02, 273.57 26.53, 296.63 -1.4 M258.94 51 C274.31 28.83, 292.21 8.48, 299.55 2.21 M258.79 48.3 C274.68 34.35, 285.45 20.61, 300.93 -1.69 M262.44 49.85 C276.01 35.9, 292.54 18.05, 309.52 -1.35 M267.27 48.76 C275.97 36.65, 285.34 24.39, 305.73 1.87 M270.83 50.16 C277.38 36.35, 285.03 27.44, 302.57 3.95 M270.96 48.46 C282.41 37.73, 292.34 26.19, 304.59 8.93 M273.8 44.19 C288.63 39.58, 291.85 28.67, 302.51 9.39 M275.93 48.6 C289.44 33.63, 300.53 18.65, 305.04 12.18 M278.43 51.56 C291.09 36.09, 302.29 28.59, 308.61 16.91 M280.68 45.99 C289.77 37.49, 298.59 29.56, 304.24 18.11 M285.17 44.03 C290.77 43.64, 300.84 38.4, 310.04 27.31 M286.28 49.74 C291.12 42.65, 296.8 35.77, 305.52 27.09 M290.37 50.21 C295.26 40.39, 299.03 38.76, 309.82 29.01 M292.97 45.78 C298.54 41.07, 302.98 35.49, 304.54 29.99 M295.4 48.2 C298.2 43.86, 303.42 42.97, 303.89 39.06 M298.04 49.02 C299.47 45.04, 303.65 41.63, 305.51 37.76 M303.23 47.42 C304.35 46.79, 306.2 43.57, 305.47 43.48 M302.83 47.36 C303.9 47.03, 304.57 46.06, 306.13 44.16" stroke="#228be6" stroke-width="0.5" fill="none"></path><path d="M-1.28 -0.09 C88.05 -0.92, 178.6 2.57, 303.36 -2.18 M0.21 1.03 C76.51 1.84, 153.42 3.94, 305.12 0.73 M306.71 0.13 C302.18 17.73, 303.72 35.49, 306.78 45.18 M303.55 -1.61 C303.88 15.34, 306.38 28.36, 305.3 46.81 M303.75 44.96 C223.95 47.43, 138.66 47.08, 1.66 49.87 M305.2 46.71 C200.6 43.42, 94.04 42.75, -1.38 46.13 M-1.57 44.65 C-3.16 32.66, 1.69 22.67, 3.1 1.73 M0.68 47.26 C0.09 36.69, 1.1 24.52, -1.23 -0.89" stroke="#000000" stroke-width="1" fill="none"></path></g><g transform="translate(34.5 15.5) rotate(0 128 18)"><text x="128" y="25" font-family="Virgil, Segoe UI Emoji" font-size="28px" fill="#000000" text-anchor="middle" style="white-space: pre;" direction="ltr">Training vs Scoring</text></g><g stroke-linecap="round" transform="translate(12.18595949550945 56.719983540519024) rotate(0 667.3355922877654 139.2554659941352)"><path d="M-0.74 -0.5 C400.6 1.77, 800.49 -0.86, 1333.86 0.68 M1335.49 -2.6 C1337.82 66.09, 1335.56 130.03, 1336.69 280.71 M1333.27 278.73 C999.53 279.29, 666.67 278.12, -0.19 278.04 M-1.29 281.27 C5.66 202.15, 3.58 121.59, -0.96 2.84" stroke="#000000" stroke-width="1.5" fill="none" stroke-dasharray="8 9"></path></g><g transform="translate(32.066027972916345 88.51018442381246) rotate(0 40.5 12.5)"><text x="0" y="18" font-family="Virgil, Segoe UI Emoji" font-size="20px" fill="#e67700" text-anchor="start" style="white-space: pre;" direction="ltr">Training:</text></g><g transform="translate(134.68700739274846 89.63542126121138) rotate(0 238.5 25)"><text x="0" y="18" font-family="Virgil, Segoe UI Emoji" font-size="20px" fill="#000000" text-anchor="start" style="white-space: pre;" direction="ltr">Apply a machine learning algorithm to a dataset</text><text x="0" y="43" font-family="Virgil, Segoe UI Emoji" font-size="20px" fill="#000000" text-anchor="start" style="white-space: pre;" direction="ltr">in order to obtain a model </text></g><g transform="translate(115.56480580056632 186.29996066571402) rotate(0 46.5 12.5)"><text x="46.5" y="18" font-family="Virgil, Segoe UI Emoji" font-size="20px" fill="#c92a2a" text-anchor="middle" style="white-space: pre;" direction="ltr">Example: </text></g><g transform="translate(194.39487130462385 235.4565476412372) rotate(0 44 12.5)"><text x="44" y="18" font-family="Virgil, Segoe UI Emoji" font-size="20px" fill="#000000" text-anchor="middle" style="white-space: pre;" direction="ltr">Dataset</text></g><g stroke-linecap="round" transform="translate(349.1268484035718 216.47642613270727) rotate(0 39 30.220706269139555)"><path d="M15.11 0 M15.11 0 C24.46 0.09, 38.01 0.33, 62.89 0 M15.11 0 C25.48 0.22, 36.34 0.43, 62.89 0 M62.89 0 C71.97 0.86, 78.06 3.29, 78 15.11 M62.89 0 C73.27 -1.12, 78.64 6.06, 78 15.11 M78 15.11 C77.59 21.35, 76.35 29.65, 78 45.33 M78 15.11 C78.4 26.79, 77.94 39.59, 78 45.33 M78 45.33 C79.26 54.54, 71.55 61.06, 62.89 60.44 M78 45.33 C76.14 53.45, 70.82 61.75, 62.89 60.44 M62.89 60.44 C41.88 60.9, 24.37 61.84, 15.11 60.44 M62.89 60.44 C45.18 59.86, 29.18 61.05, 15.11 60.44 M15.11 60.44 C7.04 59.65, -1.18 54.1, 0 45.33 M15.11 60.44 C4.39 61.73, 1.21 57.19, 0 45.33 M0 45.33 C-0.06 35.63, 0.49 24.77, 0 15.11 M0 45.33 C-0.8 35.53, 0.17 26.83, 0 15.11 M0 15.11 C-0.32 6.65, 6.42 0.15, 15.11 0 M0 15.11 C0.69 7.23, 6.63 -1.24, 15.11 0" stroke="#000000" stroke-width="1" fill="none"></path></g><g transform="translate(367.7075613330953 221.69713240184683) rotate(0 20 25)"><text x="20" y="18" font-family="Virgil, Segoe UI Emoji" font-size="20px" fill="#000000" text-anchor="middle" style="white-space: pre;" direction="ltr">ML</text><text x="20" y="43" font-family="Virgil, Segoe UI Emoji" font-size="20px" fill="#000000" text-anchor="middle" style="white-space: pre;" direction="ltr">Algo</text></g><g stroke-linecap="round"><g transform="translate(430.3379483036142 247.51272141845948) rotate(0 30.98627208848984 -0.1876303804519921)"><path d="M-1.02 0.98 C9.34 0.7, 52.34 -1.08, 62.99 -1.36 M0.65 0.45 C10.84 0.36, 52.12 0.74, 62.42 0.23" stroke="#000000" stroke-width="1" fill="none"></path></g><g transform="translate(430.3379483036142 247.51272141845948) rotate(0 30.98627208848984 -0.1876303804519921)"><path d="M36.03 12.15 C44.94 8.22, 56.49 4.66, 61.43 1.09 M33.91 11.22 C43.43 7.2, 51.36 4.11, 62.23 -0.49" stroke="#000000" stroke-width="1" fill="none"></path></g><g transform="translate(430.3379483036142 247.51272141845948) rotate(0 30.98627208848984 -0.1876303804519921)"><path d="M35.71 -8.37 C44.79 -4.68, 56.46 -0.62, 61.43 1.09 M33.58 -9.3 C43.02 -7.1, 51.05 -3.96, 62.23 -0.49" stroke="#000000" stroke-width="1" fill="none"></path></g></g><mask></mask><g transform="translate(506.5358706266361 221.31443286356443) rotate(0 37 25)"><text x="37" y="18" font-family="Virgil, Segoe UI Emoji" font-size="20px" fill="#364fc7" text-anchor="middle" style="white-space: pre;" direction="ltr">Trained</text><text x="37" y="43" font-family="Virgil, Segoe UI Emoji" font-size="20px" fill="#364fc7" text-anchor="middle" style="white-space: pre;" direction="ltr">Model</text></g><g transform="translate(722.0001731459233 86.92418208175513) rotate(0 35.5 12.5)"><text x="0" y="18" font-family="Virgil, Segoe UI Emoji" font-size="20px" fill="#e67700" text-anchor="start" style="white-space: pre;" direction="ltr">Scoring:</text></g><g transform="translate(814.562178391112 86.61179301945413) rotate(0 209 25)"><text x="0" y="18" font-family="Virgil, Segoe UI Emoji" font-size="20px" fill="#000000" text-anchor="start" style="white-space: pre;" direction="ltr">Apply a training model to an input example</text><text x="0" y="43" font-family="Virgil, Segoe UI Emoji" font-size="20px" fill="#000000" text-anchor="start" style="white-space: pre;" direction="ltr">in order to obtain a prediction</text></g><g transform="translate(769.7736414222236 185.50710213225466) rotate(0 46.5 12.5)"><text x="46.5" y="18" font-family="Virgil, Segoe UI Emoji" font-size="20px" fill="#c92a2a" text-anchor="middle" style="white-space: pre;" direction="ltr">Example: </text></g><g stroke-linecap="round"><g transform="translate(294.93169023688824 251.25545678406706) rotate(0 19.946798928308 -1.3974160242933067)"><path d="M0.43 -0.46 C7.08 -0.34, 33.97 -0.53, 40.69 -0.48 M-0.8 -1.74 C5.67 -1.89, 33.23 -2.31, 40.09 -2.38" stroke="#000000" stroke-width="1" fill="none"></path></g><g transform="translate(294.93169023688824 251.25545678406706) rotate(0 19.946798928308 -1.3974160242933067)"><path d="M20.59 5.8 C29.09 3.21, 36.56 -0.26, 40.5 -3.77 M21.94 5.2 C26.59 2.57, 33.92 -0.84, 39.38 -3.34" stroke="#000000" stroke-width="1" fill="none"></path></g><g transform="translate(294.93169023688824 251.25545678406706) rotate(0 19.946798928308 -1.3974160242933067)"><path d="M20.42 -7.9 C28.85 -5.42, 36.38 -3.82, 40.5 -3.77 M21.77 -8.5 C26.53 -6.7, 33.92 -5.7, 39.38 -3.34" stroke="#000000" stroke-width="1" fill="none"></path></g></g><mask></mask><g transform="translate(874.0816801154924 224.32621477959947) rotate(0 39 25)"><text x="39" y="18" font-family="Virgil, Segoe UI Emoji" font-size="20px" fill="#000000" text-anchor="middle" style="white-space: pre;" direction="ltr">Input</text><text x="39" y="43" font-family="Virgil, Segoe UI Emoji" font-size="20px" fill="#000000" text-anchor="middle" style="white-space: pre;" direction="ltr">Example</text></g><g stroke-linecap="round"><g transform="translate(957.302096197257 250.93290315142076) rotate(0 21.43773819661692 0.15065268453690805)"><path d="M0.74 0.56 C7.6 0.28, 34.22 -0.29, 40.92 -0.49 M-0.33 -0.19 C6.94 0.2, 35.91 0.7, 43.2 0.79" stroke="#000000" stroke-width="1" fill="none"></path></g><g transform="translate(957.302096197257 250.93290315142076) rotate(0 21.43773819661692 0.15065268453690805)"><path d="M24.41 6.25 C28.11 4.28, 33.38 3.71, 41.5 -0.37 M23.8 7.36 C29.14 5.72, 34.11 4.33, 42.74 -0.2" stroke="#000000" stroke-width="1" fill="none"></path></g><g transform="translate(957.302096197257 250.93290315142076) rotate(0 21.43773819661692 0.15065268453690805)"><path d="M24.64 -8.03 C28.41 -6.01, 33.62 -2.58, 41.5 -0.37 M24.03 -6.91 C29.21 -4.75, 34.12 -2.34, 42.74 -0.2" stroke="#000000" stroke-width="1" fill="none"></path></g></g><mask></mask><g stroke-linecap="round" transform="translate(1017.9755266761349 219.7524015338604) rotate(0 44.5 31)"><path d="M15.5 0 M15.5 0 C38.31 -0.2, 58.81 -1.06, 73.5 0 M15.5 0 C27.83 1.29, 39.63 1.45, 73.5 0 M73.5 0 C84.28 1.32, 87.77 6.42, 89 15.5 M73.5 0 C82 -0.7, 90.98 5.34, 89 15.5 M89 15.5 C88.24 20.95, 89.03 26.79, 89 46.5 M89 15.5 C89.55 25.94, 88.95 35.25, 89 46.5 M89 46.5 C88.32 57.06, 85.74 60.09, 73.5 62 M89 46.5 C90.44 57.1, 83.34 60.87, 73.5 62 M73.5 62 C57.07 62.55, 40.43 60.01, 15.5 62 M73.5 62 C53.98 62.55, 33.56 62.46, 15.5 62 M15.5 62 C6.06 62.52, -0.67 57.82, 0 46.5 M15.5 62 C4.89 64.22, -0.76 55.23, 0 46.5 M0 46.5 C-1.61 35.17, -0.07 24.91, 0 15.5 M0 46.5 C0.01 34.11, 0.22 21.88, 0 15.5 M0 15.5 C-1.95 3.8, 4.52 0.24, 15.5 0 M0 15.5 C0.05 5.55, 4.4 -0.14, 15.5 0" stroke="#364fc7" stroke-width="1" fill="none"></path></g><g transform="translate(1024.975526676135 225.7524015338604) rotate(0 37.5 25)"><text x="37.5" y="18" font-family="Virgil, Segoe UI Emoji" font-size="20px" fill="#364fc7" text-anchor="middle" style="white-space: pre;" direction="ltr">Trained</text><text x="37.5" y="43" font-family="Virgil, Segoe UI Emoji" font-size="20px" fill="#364fc7" text-anchor="middle" style="white-space: pre;" direction="ltr">Model</text></g><g stroke-linecap="round"><g transform="translate(1109.504173217906 254.0557397808352) rotate(0 30.24583563271017 -0.6963469133897888)"><path d="M-0.21 0.59 C10 0.43, 52.04 0.08, 62.28 -0.41 M-1.79 -0.14 C8.18 -0.67, 50.45 -1.76, 61.34 -1.99" stroke="#000000" stroke-width="1" fill="none"></path></g><g transform="translate(1109.504173217906 254.0557397808352) rotate(0 30.24583563271017 -0.6963469133897888)"><path d="M34.39 8.97 C45.84 3.01, 53.37 0.35, 63.3 -1.58 M32.42 8.77 C41.17 5.82, 49.38 2.34, 60.74 -2" stroke="#000000" stroke-width="1" fill="none"></path></g><g transform="translate(1109.504173217906 254.0557397808352) rotate(0 30.24583563271017 -0.6963469133897888)"><path d="M33.9 -11.55 C45.63 -9.61, 53.36 -4.38, 63.3 -1.58 M31.92 -11.74 C40.64 -8.65, 49 -6.09, 60.74 -2" stroke="#000000" stroke-width="1" fill="none"></path></g></g><mask></mask><g transform="translate(1188.3516415702752 238.03929075104134) rotate(0 48 12.5)"><text x="48" y="18" font-family="Virgil, Segoe UI Emoji" font-size="20px" fill="#000000" text-anchor="middle" style="white-space: pre;" direction="ltr">Prediction</text></g></svg>