<svg version="1.1" xmlns="http://www.w3.org/2000/svg" viewBox="0 0 1356.8571440710402 475.47049218503344" width="4070.5714322131207" height="1426.4114765551003">
  <!-- svg-source:excalidraw -->
  
  <defs>
    <style class="style-fonts">
      @font-face {
        font-family: "Virgil";
        src: url("https://excalidraw.com/Virgil.woff2");
      }
      @font-face {
        font-family: "Cascadia";
        src: url("https://excalidraw.com/Cascadia.woff2");
      }
    </style>
  </defs>
  <rect x="0" y="0" width="1356.8571440710402" height="475.47049218503344" fill="#ffffff"></rect><g stroke-linecap="round" transform="translate(10 10) rotate(0 242.5 23)"><path d="M0 0 C0 0, 0 0, 0 0 M0 0 C0 0, 0 0, 0 0 M0.81 5.56 C2.03 4.29, 1.77 4.03, 3.51 1.14 M-0.97 5.69 C1.78 3.34, 4.5 2.42, 5.57 0.09 M0.94 13.17 C0.92 10.45, 10.1 6.87, 10.21 1.08 M-1.29 10.56 C4.82 9.05, 6.24 2.86, 9.08 -1.53 M-1.88 20.33 C5.31 15.41, 5.99 6.75, 12.32 0.89 M0.85 19.12 C2.52 15.16, 7.38 10.23, 13.97 1.8 M2.28 21.23 C11.17 14.77, 15.78 10.01, 23.16 2.76 M-0.88 25.37 C4.16 18.26, 11.88 11.93, 21.08 -1.34 M-3.97 32.26 C3.23 22.07, 8.94 18.64, 28.09 3.88 M-0.05 30.75 C8.52 20.66, 13.05 12.53, 25.6 -1.23 M2.6 33.23 C5.1 26.37, 13.69 14.23, 34.8 3.4 M-1.52 34.97 C13.32 22.26, 23.25 8.62, 31.72 -0.26 M2.84 39.23 C6.79 33.2, 19.05 23.1, 34.74 -2.01 M-1.16 41.3 C10.27 33.54, 17.01 23.52, 37.65 0.12 M-2.66 50.62 C13.96 33.14, 22.67 17.75, 39.1 -2.94 M0.14 48.71 C13.25 30.94, 27.62 19, 43.48 0.79 M9.69 44.98 C20.27 37.81, 28.09 19.32, 48.29 2.04 M7.68 45.94 C19.67 30.4, 34.9 16.32, 48.52 -1.71 M8.22 45.46 C28.99 32.17, 43.45 13.18, 55.99 -2.37 M10.45 45.99 C20.69 38.23, 28.59 27.03, 51.26 -1.77 M16.4 43.92 C25.61 38.27, 36.93 27.88, 58.62 3.01 M15.51 47.36 C31.18 32.36, 45.76 14.34, 58.65 0.65 M22.45 48.76 C42.63 32.2, 52.63 6.99, 67.31 -0.86 M21.42 48 C35.47 30.99, 49.97 15.35, 62.05 1.41 M31.35 44.11 C41.28 30.87, 52.04 21.42, 69.47 3.98 M26.13 46.66 C38.63 34.69, 51.4 18.31, 70.56 1.53 M34.29 49.12 C42.24 32.94, 55.58 17.83, 72.73 -0.25 M32.32 48.3 C46.32 26.91, 64.26 9, 74.9 0.6 M36.72 45.2 C50.67 34.05, 59.88 20.44, 82.48 0.17 M39.33 45.4 C55.93 28.93, 72.91 8.63, 80.82 -1.84 M43.85 51.25 C54.66 34.08, 69.59 18.65, 81.83 1.72 M44.48 47.4 C54 36.53, 64.04 24.93, 84.92 -0.96 M48.6 42.95 C57.99 35.63, 67.79 23.3, 89.16 2.9 M50.97 46.04 C61.44 31.87, 75.36 18.85, 88.07 -1.25 M57.15 43.99 C63.98 35.07, 72.76 21.05, 98.06 3.46 M53.27 48.74 C69.88 29.64, 85.12 11.32, 95.26 0.87 M60.91 45.28 C70.14 31.72, 86.15 18.51, 102.88 -0.35 M60.97 47.99 C75.06 27.8, 93.67 9.7, 101 -1.58 M62.06 48.29 C76.18 33.85, 93.76 11.95, 102.72 -0.51 M64.16 46.7 C76.22 33.13, 88.9 16.04, 105.17 -0.79 M68.84 48.97 C79.87 37.83, 95.3 23.64, 110.91 2.01 M68.65 48.35 C80.28 37.81, 89.81 27.85, 110.39 -0.76 M76.35 45.26 C88.11 30.08, 107.47 11.14, 118.37 -2.77 M76.65 46.59 C85.57 35.93, 95.56 25.11, 117.27 0.82 M79.37 44.64 C89.99 35.9, 101.21 22.51, 122.37 -2.32 M79.37 46.9 C98.13 28.21, 111.64 10.53, 121.05 -1.8 M83.64 48.09 C101.08 27.45, 114.39 11.95, 123.37 -2.08 M84.31 48.66 C99.24 30.49, 114.45 14.73, 128.24 -0.81 M91.42 45.34 C108.33 27, 123.77 16.56, 136.28 -1.5 M92.58 46.6 C105.75 28.81, 122.25 10.31, 131.88 -0.74 M97.45 46.13 C117.25 28.74, 127.22 11.47, 136.02 1.24 M98.8 48.11 C109.09 33.02, 124.31 18.11, 136.85 -1.03 M98.44 43.47 C115.63 32.51, 123.28 21.8, 141.5 0.44 M100.45 46.64 C116.46 32.89, 129.41 14.81, 143.82 1.28 M105.14 44.84 C116.4 36.21, 124.53 27.25, 145.13 2.2 M105.8 47.06 C121.7 33.77, 131.07 18.61, 146.57 1 M111.75 43.54 C121.42 35.21, 129.36 29.29, 156.8 -0.41 M111.22 47.09 C128.54 29.89, 145.77 11.57, 151.89 -1.91 M115.98 49.81 C128.31 32.09, 147.42 16.56, 157.4 -0.05 M117.08 46.58 C127.26 37.72, 135.95 28.23, 156.94 -0.92 M120.53 46.21 C137.88 34.03, 150.57 13.3, 166.8 0.15 M121.16 48.99 C140.62 29.46, 155.77 11.13, 165.16 -1.57 M129.1 50.76 C139.5 32.67, 157.31 20.02, 173.39 -2.22 M130.47 46.67 C139.97 32.56, 152.31 19.42, 167.58 -0.07 M131.86 48.26 C147.04 29.29, 156.75 17.14, 178.02 -1.54 M134.65 46.31 C148.94 29.83, 161.61 14.86, 174.77 -1.99 M141.5 45.51 C150.6 37.15, 158.14 22.32, 179.56 3.08 M137.84 46.27 C154.04 28.62, 169.07 10.47, 178.15 -0.81 M146.68 50.58 C155.92 32.39, 167.29 20.74, 186.84 -1 M144.09 45.97 C160.16 28.44, 175.89 7.14, 185.92 -0.57 M148.07 48.04 C165.81 36.91, 177.65 18.81, 188.21 3.37 M149.17 47.27 C159.15 36.04, 166.45 27.97, 192.39 1.48 M151.81 50.21 C172.56 32.65, 187.11 11.61, 195.5 -1.66 M153.98 47.82 C165.72 32.84, 179.38 21.22, 197.87 0.27 M157.55 48.42 C168.33 38.54, 178.36 27.98, 197.54 -1.69 M160.44 46.46 C171.63 34.53, 183.76 19.14, 202.08 0.32 M167.93 48.29 C184.47 28.4, 199.8 7.35, 204.14 1.2 M164.85 48.62 C172.6 36.45, 180.87 28.97, 207.95 1.04 M168.59 44.88 C187.77 28.82, 197.79 14.93, 215.62 -0.33 M169.75 47.62 C180.93 37.18, 188.65 26.49, 211.08 -1.81 M177.63 50.09 C188.46 34.38, 207.04 14.05, 218.77 -3.59 M177.31 46.11 C184.26 38.62, 193.28 29.51, 219.55 1.17 M185.68 43.76 C190.07 36.37, 197.31 29.24, 220.39 -0.64 M181.22 45.42 C190.99 35.16, 203.56 23.03, 223.32 -1.51 M189.34 49.02 C201.57 31.45, 206.76 20.55, 227.27 -3.05 M188.03 46.95 C201.27 28.56, 218.6 11.57, 230.11 -0.95 M194.56 44.26 C201.3 38.85, 211.33 26.44, 231.68 1.39 M192.41 46.26 C204.94 33.43, 218 17.13, 234.78 1.57 M197.38 50.6 C215.49 29.55, 227.54 12.11, 238.74 0.65 M197.75 46.73 C208.14 34.34, 217.71 23.2, 238.5 0.73 M204.78 51.47 C214.02 33.73, 220.07 22.27, 247.17 -2.08 M200.88 49.18 C214.99 31.25, 229.79 16.74, 245.49 0.72 M205.95 48.49 C226.58 31.39, 239.04 16.14, 246.11 3.21 M207.25 45.98 C218 35.87, 229.64 21.48, 247.6 0.97 M213.83 48.85 C225.13 28.36, 236.79 12.33, 258.43 1.23 M212.31 46.45 C220.34 38.32, 232.29 26.63, 255.56 -1.84 M221.11 48.45 C231.36 32.25, 242.79 20.32, 262.25 2.73 M217.39 46.19 C233.86 30.92, 250.1 12.82, 260.38 -0.29 M225.71 51.24 C239.05 32.72, 254.01 16.37, 266.91 3.71 M223.08 48.5 C232.45 34.09, 247.07 20.52, 265.18 1.05 M226.81 44.4 C245.25 29.1, 259.68 19.69, 266.52 -3.33 M229.1 45.74 C243.35 34.32, 255.29 18.93, 270.56 -0.93 M234.3 49.62 C252.14 29.46, 268.57 13.14, 275.92 1.89 M235.65 48.72 C252.38 31.53, 264.82 11.71, 274.55 1.47 M240.86 50.35 C245.81 37.54, 256.58 23.14, 284.19 -1.37 M239.34 48.01 C255.87 30.89, 267.48 11.26, 281.9 0.13 M247.36 51.05 C254.05 33.15, 266.46 18.7, 282.66 -3.58 M246.53 47.41 C253.05 36.9, 263.61 28.81, 287.99 0.48 M250.95 44.45 C259.59 36.83, 273.79 23.68, 290.39 -1.7 M249.18 45.26 C262.91 29.07, 278.56 12.75, 292.21 -1.11 M254.52 46.76 C268.5 36.13, 280.43 19.69, 294.2 0.07 M254.28 47.84 C272.24 29.64, 287.54 10.59, 297.84 0.04 M262.67 48.98 C279.16 33.12, 293.54 19.09, 298.13 1.53 M259.7 46.72 C271.37 35.5, 279.84 22.98, 301.39 -1.71 M267.28 44.09 C282.16 28.89, 293.75 15.77, 311.47 -2.25 M267.56 48.19 C278.07 34.99, 293.24 19.18, 308.52 -0.95 M275.44 50.34 C282.18 33.91, 299.24 17.07, 310.28 -1.71 M272.09 46.55 C287.01 28.64, 301.57 11.81, 311.39 0.19 M279.02 50.5 C285.15 38.69, 297.27 23.22, 321.31 2.48 M277.05 45.58 C289.85 36.03, 297.65 23.59, 316.52 1.37 M282.6 47.06 C298.35 24.64, 318.67 9.05, 319.59 2.66 M283.57 47.85 C298.2 28.18, 316.07 10.22, 322.22 1.43 M289 49.57 C305.87 27.22, 316.81 17.62, 328.39 -0.59 M287.53 48.1 C300.43 34.12, 314.82 17.08, 330.39 -0.22 M295.32 49.78 C304.2 31.99, 326.33 13.58, 332.71 -3.15 M291.44 46.64 C306.58 36.03, 317 21.83, 331.95 1.75 M294.36 49.01 C311.41 31.18, 320.16 17.87, 339.3 1.82 M297.82 46.73 C308.26 35.17, 319.91 23.54, 338.71 0 M302.03 50.05 C315.94 35.23, 320.78 24.81, 346.14 3.2 M304.4 48.66 C314.06 34.46, 322.47 24.9, 344.73 -0.15 M306.09 48.68 C322.76 30.1, 341.73 9.36, 345.81 3.86 M308.8 47.42 C321.94 33.41, 334.38 16.88, 349.52 1.44 M310.97 49.23 C322.48 39.45, 337.13 21.07, 354.25 -3.82 M313.18 46.31 C330.96 28.14, 346.4 13.73, 354.75 1.35 M317.08 48.52 C326.63 35.92, 345.79 17.34, 359.56 1.55 M319.43 47.05 C332.26 32.59, 342.02 17.92, 360.85 2.2 M322.32 47.13 C341.34 31.74, 351.59 11.95, 365.31 -1.63 M322.6 47.18 C336.81 32.33, 351.74 15.49, 366.28 -1.19 M326.09 48.63 C346.99 28.24, 353.81 19.12, 368.08 -2.71 M330.71 45.42 C341.35 30.73, 353.41 17.43, 368.84 -0.44 M338.77 46.88 C344.58 32.22, 358.34 18.49, 377.44 0.48 M334.2 47.07 C344.67 33.55, 355.29 21.51, 377.63 -0.26 M337.74 49.22 C357.5 33.94, 373.06 13.63, 377.45 -3.14 M341.73 45.31 C353.66 31.07, 369.48 15.7, 382.35 -1.01 M348.87 47.77 C361.8 32.38, 370.2 19.64, 386.65 1.36 M345.61 46.68 C360.9 31.44, 379.09 12.06, 385.21 -1.41 M354.54 50.63 C361.17 33.41, 380.22 21.17, 395.6 2.16 M349.62 48.39 C367.27 31.14, 380.6 15.78, 390.3 -1.1 M359.09 45.19 C374.54 33.11, 391.37 7.39, 394.82 -0.04 M354.47 47.69 C370.11 30.38, 382.55 16.42, 399.45 0.72 M360.87 45.32 C372.54 36.06, 383.83 21.56, 400.36 3.21 M361.59 47.29 C378.5 28.52, 391.4 11.93, 401.66 -1.36 M369.73 46.66 C378.52 30.31, 392.26 17.37, 409.71 3.37 M366.53 48.69 C377.93 36.16, 386.6 26.05, 408.88 -1.55 M370.99 49.87 C387.98 32.09, 402.35 11.25, 411.41 2.17 M370.88 45.58 C387.03 30.82, 401.54 18.27, 413.48 -1.5 M374.98 47.85 C390.92 39.4, 397.5 20.75, 420.95 2.82 M375.58 49.22 C391.8 31.87, 406.15 15.98, 420.07 -0.95 M381.03 49.01 C399.06 31.92, 413.3 13.5, 426.33 -2.69 M384.84 45.77 C395.21 32.37, 409.46 17.36, 422.87 -0.31 M386.93 48.52 C402.85 30.69, 413.4 17.77, 432.04 -2.37 M387.48 45.73 C400.72 33.2, 412.54 19.6, 429.64 0.69 M392.99 43.57 C401 40.01, 410.25 30.74, 436.57 -0.97 M392.84 45.28 C410.6 31.12, 422.54 13.31, 435 0.37 M395.5 44.58 C411.98 28.86, 428.81 15.6, 436.37 3.26 M400.14 47.65 C411.58 35.03, 423.79 20.81, 440.32 0.5 M406.75 50.5 C414.76 33.88, 432.77 16.93, 443.42 -2.15 M406.34 48.51 C413.01 34.45, 424.23 24.08, 447.1 -0.35 M408.52 44.05 C418.63 37.76, 435.51 23.7, 449.19 3.31 M407.54 45.32 C419.49 33.82, 429.48 23.81, 448.85 -1.45 M412.08 46.91 C422.3 34.71, 437.03 19.03, 458.11 -3.57 M414.85 46.76 C424.15 35.71, 435.98 23.39, 456.46 1.54 M419.69 51.08 C429.57 32.48, 447.98 21.85, 459.62 -2.51 M419.74 46.03 C431.21 34.62, 443.09 23.69, 462.06 -2.15 M427.94 50.76 C439.22 38.1, 449.66 24.59, 469.68 1.54 M425.29 47.04 C439.29 33.12, 452.74 15.44, 464.44 -0.96 M432.56 49.94 C447.97 31.39, 460.86 10.02, 470.03 2.39 M430.83 45.99 C441.61 30.76, 457.64 17.33, 472.19 1.09 M433.16 45.87 C443.86 30.93, 455.4 19.62, 477.08 0.08 M436.6 49.04 C442.28 38.27, 453.01 24.45, 476.45 -1.96 M444.59 45.04 C456.16 28.09, 472.65 11.16, 482.61 0.46 M442.98 46.37 C450.99 38.41, 459.96 24.94, 483.5 -0.37 M442.45 50.47 C456.15 34.25, 468.82 27.99, 487.82 0.59 M447.84 45.63 C462.16 30.95, 477.35 13.37, 484.67 2.9 M455.09 44.91 C462.43 36.68, 473.48 22.85, 489.54 7.34 M450.44 45.26 C461.24 36.71, 468.68 29.04, 486.43 8.84 M453.08 50.14 C464.27 36.11, 474.68 29.77, 488.73 15.28 M456.77 47.89 C462.79 39.22, 466.96 34.17, 486.78 14.46 M465.26 46.18 C471.46 38.62, 476.16 30.76, 488.12 22.49 M463.48 45.7 C469.61 40.58, 474.41 33.34, 484.72 18.72 M468.18 46.59 C470.89 40.02, 480.33 28.96, 485.55 24.85 M467.21 45.81 C472.87 40.17, 477.99 34.6, 485.55 26.89 M470.15 49.65 C476.35 41.46, 479.44 42.13, 486.75 31.46 M472.47 47.65 C476.81 42.36, 481.39 36.14, 485.42 32.17 M479.86 48.86 C479.37 41.91, 482.24 40.48, 485.43 39.6 M477.46 48 C480.34 45.02, 482.92 40.94, 486.69 37.73 M483.64 46.42 C484.71 45.51, 485.07 44.71, 486.23 43.85 M483.86 47.18 C485.06 46.13, 485.91 45.1, 486.61 43.67" stroke="#228be6" stroke-width="0.5" fill="none"></path><path d="M-0.53 1.13 C182.04 2.82, 366.6 4.87, 484.65 -1.42 M0.01 -0.34 C155.67 2.68, 311.25 3.43, 484.44 -0.54 M485.81 1.61 C485.7 15.79, 485.95 36.7, 483.67 45.66 M484.62 -1.75 C484.27 12.6, 486.12 27.28, 485.96 46.35 M485.56 44.32 C367.51 44.9, 253.74 44.2, -0.22 46.76 M485.31 46.22 C328.06 45.85, 171.61 45.28, -0.77 46.53 M-3.48 48.77 C1.79 28.56, -0.13 6.71, -3.56 -2.88 M0.26 46.05 C0.74 36.86, -1.02 27.38, -1.62 1.5" stroke="#000000" stroke-width="1" fill="none"></path></g><g transform="translate(34 15) rotate(0 218.5 18)"><text x="218.5" y="25" font-family="Virgil, Segoe UI Emoji" font-size="28px" fill="#000000" text-anchor="middle" style="white-space: pre;" direction="ltr">Model-based vs Instance-based</text></g><g stroke-linecap="round" transform="translate(12.18595949550945 56.719983540519024) rotate(0 667.3355922877654 204.3752543222572)"><path d="M-1.53 -0.76 C282.44 -5.89, 565.96 -8.41, 1335.01 0.74 M1334.29 -0.51 C1333.72 95.58, 1333.26 186.84, 1336.5 407.16 M1335.21 408.02 C927.55 413.64, 518.61 412.92, 0.05 409.29 M-1.15 407.27 C1.74 282.45, 1.91 157.88, -1.34 -0.62" stroke="#000000" stroke-width="1.5" fill="none" stroke-dasharray="8 9"></path></g><g transform="translate(51.838200864822284 92.92716277225554) rotate(0 67.5 12.5)"><text x="0" y="18" font-family="Virgil, Segoe UI Emoji" font-size="20px" fill="#e67700" text-anchor="start" style="white-space: pre;" direction="ltr">Model-based: </text></g><g transform="translate(212.50109276250805 94.44744407675535) rotate(0 447 12.5)"><text x="0" y="18" font-family="Virgil, Segoe UI Emoji" font-size="20px" fill="#000000" text-anchor="start" style="white-space: pre;" direction="ltr">Use the training data to create a model with parameters learned from the training data</text></g><g transform="translate(222.00493764874227 145.53277662617984) rotate(0 46.5 12.5)"><text x="46.5" y="18" font-family="Virgil, Segoe UI Emoji" font-size="20px" fill="#c92a2a" text-anchor="middle" style="white-space: pre;" direction="ltr">Example: </text></g><g transform="translate(328.5648757570734 148.28379669296737) rotate(0 19.5 12.5)"><text x="0" y="18" font-family="Virgil, Segoe UI Emoji" font-size="20px" fill="#000000" text-anchor="start" style="white-space: pre;" direction="ltr">SVM</text></g><g transform="translate(419.53955969842536 157.31636779784276) rotate(0 22 10)"><text x="0" y="14" font-family="Virgil, Segoe UI Emoji" font-size="16px" fill="#000000" text-anchor="start" style="white-space: pre;" direction="ltr">Data</text></g><g stroke-linecap="round"><g transform="translate(476.19055553582984 167.35968960186437) rotate(0 14.5378369250393 -0.3490548200361445)"><path d="M0.36 0.06 C5.24 0.12, 24.93 0.68, 29.99 0.58 M-0.91 -0.95 C3.74 -1.25, 23.75 -1.42, 28.95 -1.16" stroke="#e67700" stroke-width="1" fill="none"></path></g><g transform="translate(476.19055553582984 167.35968960186437) rotate(0 14.5378369250393 -0.3490548200361445)"><path d="M14.77 3.55 C20.68 2.68, 24.37 0.56, 29.01 -2.65 M14.44 3.56 C18.66 2.24, 22.17 2.01, 29.47 -1.73" stroke="#e67700" stroke-width="1" fill="none"></path></g><g transform="translate(476.19055553582984 167.35968960186437) rotate(0 14.5378369250393 -0.3490548200361445)"><path d="M14.93 -6.77 C20.81 -3.97, 24.43 -2.41, 29.01 -2.65 M14.6 -6.76 C18.73 -5.56, 22.2 -3.29, 29.47 -1.73" stroke="#e67700" stroke-width="1" fill="none"></path></g></g><mask></mask><g stroke-linecap="round" transform="translate(514.623481921939 146.48760911377576) rotate(0 26 18.5)"><path d="M9.25 0 M9.25 0 C19.01 -1.92, 32.72 -0.71, 42.75 0 M9.25 0 C22.08 -0.49, 35.94 0.87, 42.75 0 M42.75 0 C50.32 0.32, 51.1 3.49, 52 9.25 M42.75 0 C50.74 2.02, 50.53 3.89, 52 9.25 M52 9.25 C50.32 14.59, 52.46 18.46, 52 27.75 M52 9.25 C51.28 14.11, 52.12 20.54, 52 27.75 M52 27.75 C50.71 35.25, 48.74 35.96, 42.75 37 M52 27.75 C50.28 32.06, 51.02 37.63, 42.75 37 M42.75 37 C31.86 35.79, 18.36 36.19, 9.25 37 M42.75 37 C30.42 36.51, 16.94 36.09, 9.25 37 M9.25 37 C4.61 35.91, -0.07 34.32, 0 27.75 M9.25 37 C4.9 38.44, 2.18 36.09, 0 27.75 M0 27.75 C0.11 25.44, -0.25 21.86, 0 9.25 M0 27.75 C0.74 22.51, 0.34 19.17, 0 9.25 M0 9.25 C-0.31 4.95, 2.13 -0.95, 9.25 0 M0 9.25 C-1.59 5.18, 4.54 1.12, 9.25 0" stroke="#e67700" stroke-width="1" fill="none"></path></g><g transform="translate(525.123481921939 154.98760911377576) rotate(0 15.5 10)"><text x="15.5" y="14" font-family="Virgil, Segoe UI Emoji" font-size="16px" fill="#000000" text-anchor="middle" style="white-space: pre;" direction="ltr">SVM</text></g><g stroke-linecap="round"><g transform="translate(570.5921373823767 166.2922245949503) rotate(0 19.513987991262184 -10.243332714355347)"><path d="M1.04 -0.33 C7.22 -3.74, 30.64 -17.17, 36.72 -20.15 M0.13 -1.55 C6.7 -4.85, 32.81 -15.96, 38.9 -19.04" stroke="#000000" stroke-width="1" fill="none"></path></g><g transform="translate(570.5921373823767 166.2922245949503) rotate(0 19.513987991262184 -10.243332714355347)"><path d="M23.27 -5.83 C26.5 -8.62, 33.74 -11.08, 40.2 -19.63 M24.4 -3.73 C28.08 -7.64, 33.15 -13.44, 39.06 -19.39" stroke="#000000" stroke-width="1" fill="none"></path></g><g transform="translate(570.5921373823767 166.2922245949503) rotate(0 19.513987991262184 -10.243332714355347)"><path d="M17.21 -19.01 C22.11 -18.31, 30.97 -17.21, 40.2 -19.63 M18.34 -16.91 C23.78 -16.97, 30.62 -18.92, 39.06 -19.39" stroke="#000000" stroke-width="1" fill="none"></path></g></g><mask></mask><g stroke-linecap="round"><g transform="translate(572.4214793746141 166.39269188971775) rotate(0 17.476956169456116 13.816970774127185)"><path d="M1.13 -1.12 C6.86 3.63, 29.01 23.75, 34.68 28.75 M0.27 0.91 C5.81 5.28, 28.01 22.64, 33.75 26.98" stroke="#000000" stroke-width="1" fill="none"></path></g><g transform="translate(572.4214793746141 166.39269188971775) rotate(0 17.476956169456116 13.816970774127185)"><path d="M10.63 20.27 C20.63 23.13, 27.82 22.83, 33.61 25.65 M11.79 20.7 C20.65 23.26, 27.79 24.54, 34.14 26.23" stroke="#000000" stroke-width="1" fill="none"></path></g><g transform="translate(572.4214793746141 166.39269188971775) rotate(0 17.476956169456116 13.816970774127185)"><path d="M19.94 8.19 C26.9 15.12, 31.02 18.81, 33.61 25.65 M21.1 8.62 C26.63 15.47, 30.41 21.11, 34.14 26.23" stroke="#000000" stroke-width="1" fill="none"></path></g></g><mask></mask><g transform="translate(621.4285885350737 131.11864464440077) rotate(0 6.5 12.5)"><text x="0" y="18" font-family="Virgil, Segoe UI Emoji" font-size="20px" fill="#000000" text-anchor="start" style="white-space: pre;" direction="ltr">w</text></g><g transform="translate(620.5380124929634 177.10063698116392) rotate(0 5.5 12.5)"><text x="0" y="18" font-family="Virgil, Segoe UI Emoji" font-size="20px" fill="#000000" text-anchor="start" style="white-space: pre;" direction="ltr">b</text></g><g transform="translate(693.8193856628459 145.2357599905281) rotate(0 201 25)"><text x="201" y="18" font-family="Virgil, Segoe UI Emoji" font-size="20px" fill="#000000" text-anchor="middle" style="white-space: pre;" direction="ltr">W and b should be kept, </text><text x="201" y="43" font-family="Virgil, Segoe UI Emoji" font-size="20px" fill="#000000" text-anchor="middle" style="white-space: pre;" direction="ltr">while the training data can be discarded</text></g><g transform="translate(52.39585305234232 238.92569849913343) rotate(0 83.5 12.5)"><text x="0" y="18" font-family="Virgil, Segoe UI Emoji" font-size="20px" fill="#e67700" text-anchor="start" style="white-space: pre;" direction="ltr">Instance-based: </text></g><g transform="translate(244.67615826443853 235.75260643937509) rotate(0 184.5 12.5)"><text x="0" y="18" font-family="Virgil, Segoe UI Emoji" font-size="20px" fill="#000000" text-anchor="start" style="white-space: pre;" direction="ltr">Use the whole dataset as the model</text></g><g transform="translate(218.2242454002253 296.3570450033785) rotate(0 46.5 12.5)"><text x="46.5" y="18" font-family="Virgil, Segoe UI Emoji" font-size="20px" fill="#c92a2a" text-anchor="middle" style="white-space: pre;" direction="ltr">Example: </text></g><g transform="translate(323.93491370168977 294.0124462289623) rotate(0 98.5 12.5)"><text x="0" y="18" font-family="Virgil, Segoe UI Emoji" font-size="20px" fill="#000000" text-anchor="start" style="white-space: pre;" direction="ltr">k-Nearest Neighbors</text></g><g stroke-linecap="round" transform="translate(605.7899245763247 344.47322094597985) rotate(0 8.005612791980184 8.262025503789118)"><path d="M2.79 0.68 L14.23 2.81 L14.38 5.46 L15.52 16.99 L10.73 16.9 L1.78 17.14 L-0.74 3.88 L4.2 1.94" stroke="none" stroke-width="0" fill="#82c91e"></path><path d="M4 0 M4 0 C6.19 0.59, 8.21 0.3, 12.01 0 M4 0 C6.42 0.32, 8.31 -0.04, 12.01 0 M12.01 0 C14.97 -1.84, 16.12 3.05, 16.01 4 M12.01 0 C16.35 -2.05, 17.97 3.39, 16.01 4 M16.01 4 C16.01 5.85, 16.17 8.36, 16.01 12.52 M16.01 4 C16.26 6.6, 15.98 9.14, 16.01 12.52 M16.01 12.52 C15.59 14.14, 13.09 16.19, 12.01 16.52 M16.01 12.52 C15.05 16.94, 15.47 14.63, 12.01 16.52 M12.01 16.52 C10.01 17.01, 8.39 15.7, 4 16.52 M12.01 16.52 C10.16 16.45, 8.08 16.56, 4 16.52 M4 16.52 C1.05 17.59, -1.66 15.13, 0 12.52 M4 16.52 C3.55 17.17, 1.93 14.74, 0 12.52 M0 12.52 C-0.56 9.66, -0.29 7.78, 0 4 M0 12.52 C0.2 9.69, 0.09 7.5, 0 4 M0 4 C1.84 2.71, 1.75 -0.27, 4 0 M0 4 C1.46 0.43, 0.02 -1.78, 4 0" stroke="#2b8a3e" stroke-width="1" fill="none"></path></g><g stroke-linecap="round" transform="translate(622.6446897065189 376.20283714189463) rotate(0 8.005612791980184 8.262025503789118)"><path d="M4.69 -0.79 L16.82 -0.63 L17.47 4.52 L16.48 14.25 L12.38 17.3 L2.62 14.53 L1.87 2.45 L5.94 -0.57" stroke="none" stroke-width="0" fill="#4c6ef5"></path><path d="M4 0 M4 0 C7.46 -0.14, 10.11 -0.22, 12.01 0 M4 0 C6.3 -0.11, 7.9 0.01, 12.01 0 M12.01 0 C12.83 0.11, 17.73 2.79, 16.01 4 M12.01 0 C12.63 1.96, 18.06 0.41, 16.01 4 M16.01 4 C15.61 7.16, 15.9 9.97, 16.01 12.52 M16.01 4 C16.13 7.29, 16.25 10.72, 16.01 12.52 M16.01 12.52 C14.96 13.61, 14.34 15.69, 12.01 16.52 M16.01 12.52 C17.76 15.98, 12.78 15.85, 12.01 16.52 M12.01 16.52 C10.13 17.25, 6.41 16.02, 4 16.52 M12.01 16.52 C10.07 16.36, 8.24 16.47, 4 16.52 M4 16.52 C2.4 14.87, -0.06 17.12, 0 12.52 M4 16.52 C1.98 18.46, -0.45 14.06, 0 12.52 M0 12.52 C-0.69 10.02, -0.44 8.14, 0 4 M0 12.52 C-0.37 10.75, -0.03 9.36, 0 4 M0 4 C1.38 1.75, 1.06 1.27, 4 0 M0 4 C-0.91 0.02, -0.45 -1.79, 4 0" stroke="#364fc7" stroke-width="1" fill="none"></path></g><g stroke-linecap="round" transform="translate(584.5324366331424 379.93539036719994) rotate(0 8.005612791980184 8.262025503789118)"><path d="M3.22 1.81 L13.38 2.46 L16.53 5.47 L13.74 15.9 L12.79 18.14 L0.01 17.15 L0.44 4.19 L3.44 1.35" stroke="none" stroke-width="0" fill="#4c6ef5"></path><path d="M4 0 M4 0 C5.47 0.16, 7 -0.49, 12.01 0 M4 0 C6.54 -0.09, 9.27 -0.44, 12.01 0 M12.01 0 C14.79 1.72, 17.46 -0.45, 16.01 4 M12.01 0 C16.64 2.05, 15.09 2.68, 16.01 4 M16.01 4 C16.11 6.09, 15.87 9.16, 16.01 12.52 M16.01 4 C15.93 6.28, 15.95 7.72, 16.01 12.52 M16.01 12.52 C14.43 14.85, 13.84 18.04, 12.01 16.52 M16.01 12.52 C16.8 13.3, 14 16.52, 12.01 16.52 M12.01 16.52 C10.63 15.78, 7.31 16.11, 4 16.52 M12.01 16.52 C10.15 16.63, 8.59 16.74, 4 16.52 M4 16.52 C-0.32 16.47, 1.93 15.76, 0 12.52 M4 16.52 C3.27 16.07, -1.13 14.16, 0 12.52 M0 12.52 C-0.26 9.75, 0.03 7.12, 0 4 M0 12.52 C-0.02 9.38, 0.37 6.47, 0 4 M0 4 C0.42 1.06, 2.6 -0.79, 4 0 M0 4 C-1.31 -0.45, -0.45 -1.35, 4 0" stroke="#364fc7" stroke-width="1" fill="none"></path></g><g stroke-linecap="round" transform="translate(666.0804203307407 376.2734963266812) rotate(0 8.005612791980184 8.262025503789118)"><path d="M5.81 -1.63 L16.47 1.51 L17.48 2.73 L15.38 16.3 L13.63 15.53 L2.62 15.72 L2.19 1.68 L5.36 -1.99" stroke="none" stroke-width="0" fill="#82c91e"></path><path d="M4 0 M4 0 C6.63 -0.2, 8.39 0.22, 12.01 0 M4 0 C6.85 0.07, 9.36 0.03, 12.01 0 M12.01 0 C16.4 1.45, 14.23 3.04, 16.01 4 M12.01 0 C16.73 -0.93, 17.36 0.26, 16.01 4 M16.01 4 C15.91 6.36, 16.82 8.42, 16.01 12.52 M16.01 4 C16.35 6.79, 15.82 9.42, 16.01 12.52 M16.01 12.52 C15.67 14.35, 16.2 17.21, 12.01 16.52 M16.01 12.52 C14.12 14.52, 14.68 15.63, 12.01 16.52 M12.01 16.52 C8.65 16.07, 6.41 15.88, 4 16.52 M12.01 16.52 C9.65 16.43, 7.3 16.16, 4 16.52 M4 16.52 C1.28 18.45, 0.57 16.87, 0 12.52 M4 16.52 C0.88 15.4, -1.03 14.53, 0 12.52 M0 12.52 C-0.39 10.53, -0.71 9.22, 0 4 M0 12.52 C0.1 10.12, 0.35 7.01, 0 4 M0 4 C-0.27 2.6, 0.54 -1.14, 4 0 M0 4 C-1.78 -0.45, -0.02 2.29, 4 0" stroke="#2b8a3e" stroke-width="1" fill="none"></path></g><g stroke-linecap="round" transform="translate(644.4645373471894 420.24973329227396) rotate(0 8.005612791980184 8.262025503789118)"><path d="M2.37 1.46 L15.52 2.47 L14.74 4.38 L15.79 17.14 L11.02 18.15 L1.2 17.46 L-0.32 3.61 L2.01 0.04" stroke="none" stroke-width="0" fill="#82c91e"></path><path d="M4 0 M4 0 C6.7 -0.46, 10.04 0.44, 12.01 0 M4 0 C7.14 -0.36, 10.18 0.35, 12.01 0 M12.01 0 C16.13 -1.78, 17.72 3.12, 16.01 4 M12.01 0 C13.75 1.35, 14.93 1.18, 16.01 4 M16.01 4 C15.88 7.04, 15.44 8.71, 16.01 12.52 M16.01 4 C15.9 6.69, 15.65 9.76, 16.01 12.52 M16.01 12.52 C15.18 16.71, 15.36 14.88, 12.01 16.52 M16.01 12.52 C15.34 15.19, 13.78 16.99, 12.01 16.52 M12.01 16.52 C8.56 15.98, 5.45 16.5, 4 16.52 M12.01 16.52 C9.55 16.76, 6.87 16.53, 4 16.52 M4 16.52 C3.26 17.09, 1.68 14.8, 0 12.52 M4 16.52 C0.21 15.5, -0.66 13.58, 0 12.52 M0 12.52 C0 9.91, 0.65 9.09, 0 4 M0 12.52 C0.39 10.87, 0.09 8.58, 0 4 M0 4 C1.27 0.54, 0.19 -1.55, 4 0 M0 4 C-1.79 -0.02, 3.62 0.66, 4 0" stroke="#2b8a3e" stroke-width="1" fill="none"></path></g><g stroke-linecap="round" transform="translate(605.4329864263646 416.4567191150363) rotate(0 8.005612791980184 8.262025503789118)"><path d="M5.46 0.51 L16.48 -0.27 L16.38 4.78 L16.63 14.53 L13.63 16.72 L2.94 14.96 L1.6 0.26 L4.04 1.28" stroke="none" stroke-width="0" fill="#82c91e"></path><path d="M4 0 M4 0 C5.82 0.23, 8.98 0.7, 12.01 0 M4 0 C5.91 0.01, 8.9 0.28, 12.01 0 M12.01 0 C12.9 1.71, 17.8 0.53, 16.01 4 M12.01 0 C16.02 -1.08, 15.86 0.35, 16.01 4 M16.01 4 C16.85 6.08, 16.32 9.68, 16.01 12.52 M16.01 4 C15.85 6, 16 8.49, 16.01 12.52 M16.01 12.52 C17.53 15.88, 13.03 15.94, 12.01 16.52 M16.01 12.52 C16.01 14.29, 15.15 18.01, 12.01 16.52 M12.01 16.52 C8.43 15.75, 5.83 16.47, 4 16.52 M12.01 16.52 C10.17 16.18, 7.88 16.9, 4 16.52 M4 16.52 C1.9 18.2, -0.39 14.21, 0 12.52 M4 16.52 C0.31 15.86, -1.61 13.25, 0 12.52 M0 12.52 C-0.73 10.91, 0.29 7.44, 0 4 M0 12.52 C0.29 10.04, -0.06 7.65, 0 4 M0 4 C-0.79 0.19, -0.21 -1.55, 4 0 M0 4 C-1.35 3.62, 1.99 -2.27, 4 0" stroke="#2b8a3e" stroke-width="1" fill="none"></path></g><g stroke-linecap="round" transform="translate(648.6734937359133 334.44253048687824) rotate(0 8.005612791980184 8.262025503789118)"><path d="M4.52 1.46 L13.74 1.37 L16.79 5.62 L14.02 17.15 L12.2 18.46 L0.43 16.88 L-1.74 2.29 L5.28 -0.36" stroke="none" stroke-width="0" fill="#82c91e"></path><path d="M4 0 M4 0 C6.82 0.51, 9.92 -0.08, 12.01 0 M4 0 C6.39 0.42, 9.02 -0.28, 12.01 0 M12.01 0 C16.38 1.79, 15.21 2.5, 16.01 4 M12.01 0 C13.6 -0.15, 15.03 1.62, 16.01 4 M16.01 4 C15.41 6.81, 16.36 8.75, 16.01 12.52 M16.01 4 C15.66 7.09, 15.82 10.64, 16.01 12.52 M16.01 12.52 C16.7 13.54, 14.09 16.52, 12.01 16.52 M16.01 12.52 C15.12 15.66, 16.17 18.58, 12.01 16.52 M12.01 16.52 C9.68 16.53, 8.79 16.13, 4 16.52 M12.01 16.52 C9.07 16.55, 7.17 16.68, 4 16.52 M4 16.52 C3.01 16.13, -0.98 14.3, 0 12.52 M4 16.52 C0.67 14.91, -1.94 14.32, 0 12.52 M0 12.52 C0.62 10.67, -0.61 8.35, 0 4 M0 12.52 C0.01 9.84, 0.19 7.11, 0 4 M0 4 C-1.14 -0.21, -0.22 -1.17, 4 0 M0 4 C2.29 1.99, -0.94 -1.23, 4 0" stroke="#2b8a3e" stroke-width="1" fill="none"></path></g><g stroke-linecap="round" transform="translate(682.8492289268615 408.8983716783114) rotate(0 8.005612791980184 8.262025503789118)"><path d="M5.47 -1.27 L15.38 1.78 L17.63 3.01 L16.63 15.72 L13.95 15.96 L2.35 13.53 L0.29 3.53 L3.65 0.54" stroke="none" stroke-width="0" fill="#4c6ef5"></path><path d="M4 0 M4 0 C6.65 0.66, 8.25 -0.06, 12.01 0 M4 0 C6.87 0.29, 8.68 0.34, 12.01 0 M12.01 0 C16.46 -0.8, 17.18 0.4, 16.01 4 M12.01 0 C14.53 -0.98, 16.3 1.15, 16.01 4 M16.01 4 C16.42 6.78, 15.87 9.44, 16.01 12.52 M16.01 4 C15.89 6.2, 16.29 8.9, 16.01 12.52 M16.01 12.52 C14.36 14.6, 14.68 15.74, 12.01 16.52 M16.01 12.52 C16.48 16.68, 16.73 14.25, 12.01 16.52 M12.01 16.52 C10.19 16.45, 7.91 16.66, 4 16.52 M12.01 16.52 C9.71 16.84, 7.55 16.79, 4 16.52 M4 16.52 C0.94 15.54, -0.89 14.61, 0 12.52 M4 16.52 C-0.28 14.58, -0.87 13.95, 0 12.52 M0 12.52 C0.32 9.38, 0.1 7.53, 0 4 M0 12.52 C-0.12 9.45, -0.23 5.6, 0 4 M0 4 C-1.55 -0.22, 0.16 1.99, 4 0 M0 4 C0.66 -0.94, 0.1 -0.57, 4 0" stroke="#364fc7" stroke-width="1" fill="none"></path></g><g stroke-linecap="round" transform="translate(627.0182747113467 306.7616127348083) rotate(0 9.211185031939749 9.846439172073588)"><path d="M0.13 2.77 C0.13 2.77, 0.13 2.77, 0.13 2.77 M0.13 2.77 C0.13 2.77, 0.13 2.77, 0.13 2.77 M0.53 8.41 C2.71 6.74, 5.17 3.86, 6.43 1.62 M0.53 8.41 C2.29 6.85, 4.33 4.05, 6.43 1.62 M0.92 14.05 C5.8 8.69, 8.8 4.11, 11.42 1.98 M0.92 14.05 C5.01 9.75, 7.79 6.86, 11.42 1.98 M1.97 18.94 C4.93 12.64, 9.78 8.63, 17.06 1.58 M1.97 18.94 C7.29 12.54, 12.87 6.22, 17.06 1.58 M6.96 19.3 C10.14 13.09, 14.22 9.1, 19.43 4.96 M6.96 19.3 C10.63 15.47, 13.72 10.64, 19.43 4.96 M11.95 19.66 C14.33 16.13, 16.68 13.34, 18.51 12.11 M11.95 19.66 C13.25 17.93, 14.57 16.58, 18.51 12.11" stroke="#868e96" stroke-width="0.5" fill="none"></path><path d="M4.61 0 M4.61 0 C7.7 0.85, 11.29 0.19, 13.82 0 M4.61 0 C6.98 -0.32, 9.52 -0.23, 13.82 0 M13.82 0 C18.88 0.57, 16.44 0.46, 18.42 4.61 M13.82 0 C16.32 0.29, 20.4 -0.59, 18.42 4.61 M18.42 4.61 C18.03 7.68, 17.82 11.91, 18.42 15.09 M18.42 4.61 C18.13 7.91, 18.02 11.66, 18.42 15.09 M18.42 15.09 C19.67 19.16, 17.03 21.52, 13.82 19.69 M18.42 15.09 C19 19.67, 15.55 20.88, 13.82 19.69 M13.82 19.69 C10.49 19.01, 8.36 18.94, 4.61 19.69 M13.82 19.69 C11.51 20.07, 10.36 19.95, 4.61 19.69 M4.61 19.69 C-0.32 18.21, -1.12 17.14, 0 15.09 M4.61 19.69 C2.69 20.79, 1.32 19.42, 0 15.09 M0 15.09 C0.7 11.6, 0.87 7.39, 0 4.61 M0 15.09 C0.22 11, 0.46 8.17, 0 4.61 M0 4.61 C-1.1 0.59, 3.12 -1.13, 4.61 0 M0 4.61 C1.3 2.22, 2.83 -1.09, 4.61 0" stroke="#000000" stroke-width="1" fill="none"></path></g><g transform="translate(634.2294597432865 312.1080519068819) rotate(0 2 4.5)"><text x="2" y="7" font-family="Virgil, Segoe UI Emoji" font-size="7.092522159056102px" fill="#000000" text-anchor="middle" style="white-space: pre;" direction="ltr">?</text></g><g stroke-linecap="round" transform="translate(589.3168647330258 305.40379087454676) rotate(0 8.005612791980184 8.262025503789118)"><path d="M5.62 -0.99 L16.63 1.2 L17.95 3.44 L16.36 13.53 L12.04 17.81 L0.64 16.06 L-0.29 1.15 L4.51 1.16" stroke="none" stroke-width="0" fill="#4c6ef5"></path><path d="M4 0 M4 0 C7.2 -0.73, 10.2 0.69, 12.01 0 M4 0 C7.34 -0.23, 10.2 -0.26, 12.01 0 M12.01 0 C14.55 -0.85, 16.26 1.17, 16.01 4 M12.01 0 C14.3 2.29, 14.43 2.2, 16.01 4 M16.01 4 C15.81 6.47, 15.31 9.69, 16.01 12.52 M16.01 4 C15.73 6.08, 16.08 8.24, 16.01 12.52 M16.01 12.52 C16.42 16.49, 16.46 14.54, 12.01 16.52 M16.01 12.52 C14.51 13.85, 12.61 16.69, 12.01 16.52 M12.01 16.52 C9.49 16.97, 6.54 16.52, 4 16.52 M12.01 16.52 C8.76 16.4, 5.49 16.48, 4 16.52 M4 16.52 C-0.07 14.83, -0.76 14.11, 0 12.52 M4 16.52 C1.26 14.42, 1.67 15.84, 0 12.52 M0 12.52 C0.78 11.17, 0.18 8.52, 0 4 M0 12.52 C-0.3 9.09, -0.22 6.75, 0 4 M0 4 C0.57 -0.64, 0.26 -0.5, 4 0 M0 4 C0.29 3.31, -0.79 0.16, 4 0" stroke="#364fc7" stroke-width="1" fill="none"></path></g><g stroke-linecap="round" transform="translate(567.2843110927879 285.8566922703649) rotate(0 60.13169469994364 43.05111155650775)"><path d="M51.66 1.07 C60.82 -0.29, 73.11 0.9, 82.36 3.37 C91.61 5.85, 100.91 10.23, 107.17 15.92 C113.43 21.62, 118.31 30.38, 119.91 37.55 C121.52 44.72, 120.56 52.35, 116.78 58.94 C112.99 65.52, 105.38 72.6, 97.2 77.07 C89.02 81.53, 77.48 84.62, 67.7 85.73 C57.93 86.84, 47.88 86.27, 38.58 83.73 C29.29 81.19, 18.12 76.31, 11.93 70.48 C5.75 64.65, 2.67 56.05, 1.5 48.73 C0.33 41.41, 1.34 33.2, 4.92 26.54 C8.49 19.88, 13.26 13.18, 22.95 8.75 C32.64 4.33, 54.6 0.92, 63.06 -0.03 C71.52 -0.99, 73.87 2.22, 73.69 3.01 M72.37 0.16 C81.73 0.76, 91.83 5.7, 99.22 10.83 C106.61 15.96, 113.34 24.26, 116.71 30.92 C120.08 37.58, 121.51 43.98, 119.45 50.8 C117.39 57.63, 111.24 66.3, 104.34 71.88 C97.45 77.47, 87.38 81.88, 78.08 84.31 C68.78 86.75, 58.5 88.2, 48.55 86.49 C38.6 84.78, 26.12 79.29, 18.37 74.04 C10.62 68.79, 4.88 61.63, 2.06 54.97 C-0.77 48.31, -0.7 40.79, 1.43 34.06 C3.56 27.34, 8.17 19.8, 14.83 14.61 C21.49 9.41, 31.95 5.18, 41.39 2.9 C50.82 0.61, 66.03 1.02, 71.44 0.9 C76.86 0.79, 73.67 1.55, 73.88 2.21" stroke="#000000" stroke-width="1" fill="none"></path></g><g transform="translate(720.5288129460905 285.21994401039046) rotate(0 250 37.5)"><text x="250" y="18" font-family="Virgil, Segoe UI Emoji" font-size="20px" fill="#000000" text-anchor="middle" style="white-space: pre;" direction="ltr">The kNN algorithm looks at the close neighborhood</text><text x="250" y="43" font-family="Virgil, Segoe UI Emoji" font-size="20px" fill="#000000" text-anchor="middle" style="white-space: pre;" direction="ltr">of the input example and outputs the </text><text x="250" y="68" font-family="Virgil, Segoe UI Emoji" font-size="20px" fill="#000000" text-anchor="middle" style="white-space: pre;" direction="ltr">label that it saw most often</text></g><g stroke-linecap="round"><g transform="translate(824.4544061648749 377.55747045772296) rotate(0 36.01286065851809 19.62958702155538)"><path d="M0.73 0.02 C0.43 5.67, -7.01 28.01, -0.67 34.27 C5.67 40.52, 26.12 38.99, 38.77 37.56 C51.42 36.12, 68.78 27.76, 75.25 25.68 M-0.34 -1.02 C-0.39 4.74, -4.9 28.81, 1.43 35.42 C7.77 42.03, 25.42 40.61, 37.66 38.62 C49.91 36.63, 68.39 25.69, 74.89 23.5" stroke="#364fc7" stroke-width="1" fill="none"></path></g><g transform="translate(824.4544061648749 377.55747045772296) rotate(0 36.01286065851809 19.62958702155538)"><path d="M60.85 35.26 C65.16 30.6, 71.14 24.39, 76.08 25.41 M61.67 36.67 C64.83 32.71, 70.24 28.02, 75.08 23.92" stroke="#364fc7" stroke-width="1" fill="none"></path></g><g transform="translate(824.4544061648749 377.55747045772296) rotate(0 36.01286065851809 19.62958702155538)"><path d="M55.37 23.02 C61.88 23.17, 70.03 21.81, 76.08 25.41 M56.18 24.43 C61.1 24.24, 68.21 23.33, 75.08 23.92" stroke="#364fc7" stroke-width="1" fill="none"></path></g></g><mask></mask><g transform="translate(914.337940513522 380.6551433638051) rotate(0 102.5 25)"><text x="102.5" y="18" font-family="Virgil, Segoe UI Emoji" font-size="20px" fill="#e67700" text-anchor="middle" style="white-space: pre;" direction="ltr">The training data</text><text x="102.5" y="43" font-family="Virgil, Segoe UI Emoji" font-size="20px" fill="#e67700" text-anchor="middle" style="white-space: pre;" direction="ltr">cannot be discarded!</text></g></svg>