<svg version="1.1" xmlns="http://www.w3.org/2000/svg" viewBox="0 0 1354.6711845755308 595.5733781388599" width="4064.0135537265924" height="1786.7201344165796">
  <!-- svg-source:excalidraw -->
  
  <defs>
    <style class="style-fonts">
      @font-face {
        font-family: "Virgil";
        src: url("https://excalidraw.com/Virgil.woff2");
      }
      @font-face {
        font-family: "Cascadia";
        src: url("https://excalidraw.com/Cascadia.woff2");
      }
    </style>
  </defs>
  <rect x="0" y="0" width="1354.6711845755308" height="595.5733781388599" fill="#ffffff"></rect><g stroke-linecap="round" transform="translate(10.887373832611956 10) rotate(0 267.5 23)"><path d="M0 0 C0 0, 0 0, 0 0 M0 0 C0 0, 0 0, 0 0 M0.33 6.19 C0.66 5.29, 3.38 2.36, 6.41 1.77 M-0.54 6.26 C0.8 5.26, 2.75 3.93, 5.7 0.48 M1.77 9.04 C1.43 11.08, 8.49 4.94, 13.43 -2.83 M-1.26 12.8 C3.53 9.2, 6.34 4.11, 10.21 -0.2 M2.52 15.63 C2.85 13.33, 10.42 10.63, 14.95 0.31 M-1.27 19.86 C4.15 12.28, 11.29 4.67, 14.88 0.95 M-2.96 25.06 C11.89 14.12, 18.07 9.45, 21.08 3.39 M-0.42 25.82 C7.4 16.76, 14.33 7.96, 19.65 0.31 M-1.62 33.38 C11.14 17.29, 16.51 15.4, 27.76 -1.92 M-1.23 30.57 C7.48 20.26, 16.22 11.73, 27.66 2.08 M-1.05 38.51 C3.41 29.45, 18 16.68, 33.86 -2.19 M0.43 35.66 C11.95 21.67, 23.54 8.68, 31.45 -0.78 M-1.86 40.45 C10.69 28.74, 25.91 12.46, 33.88 1.95 M0.34 41.41 C8 33.66, 16.87 23.35, 35.01 2.08 M-1.06 48.86 C13.78 31.53, 30.47 9.87, 44.45 -3.57 M0.72 46.25 C14.14 36.89, 24.86 24.86, 42.38 -0.98 M9.81 44.48 C15.82 35.25, 21.95 24.29, 48.33 -1.44 M6.13 48.12 C18.69 31.5, 31.41 18.67, 47.78 1.02 M12.76 48.96 C22.66 35.33, 36.24 16.93, 52.93 1.79 M13.77 46.11 C27.91 28.19, 43.7 11.22, 52.24 -1.69 M16.37 49.56 C34.42 32.32, 48.14 11.32, 58.27 -3.58 M16.58 45.07 C28.94 33.53, 36.16 22.78, 57.74 1.03 M19.86 48.38 C32.32 33.89, 42.56 27.13, 67.51 2.36 M21.43 48.7 C31.99 32.66, 43.01 21.52, 63.8 -0.23 M31.58 47.15 C33.89 33.72, 41.22 24.23, 70.96 1.91 M29.76 48.22 C42.64 33.57, 55.37 17.95, 69.62 -1.69 M37.02 43.99 C42.25 36.85, 53.34 24.82, 72.54 -3.55 M31.67 46.97 C49.24 27.41, 61.68 12.59, 74.73 -1.87 M41.3 50.09 C50.26 33.04, 59.96 25.97, 81.81 3.27 M38.6 45.04 C53.24 28.89, 67.87 11.36, 81.08 -0.87 M45.15 46.55 C55.82 32.62, 62.43 18.12, 84.47 0.25 M45.41 47.92 C54.99 37.15, 63.97 25.57, 85.68 0.18 M47.47 49.06 C65.87 28.82, 82.87 14.32, 90.35 2.65 M51 47.09 C62.58 32.19, 71.04 19.51, 90.72 -0.18 M53.27 48.7 C64.1 34.17, 76.95 15.75, 95.9 -0.17 M52.47 48.65 C65.52 34.74, 78.44 20.8, 96.21 0.78 M60.19 44.63 C72.22 26.69, 87.47 13.32, 100.22 0.04 M61.75 45.96 C73.36 31.44, 85.52 17.26, 102.07 -1.25 M66.52 48.93 C80.36 28.28, 96.25 13.24, 107.53 -0.87 M63.66 48.27 C75.59 33.53, 89.33 18.19, 104.81 -1.15 M73.02 48 C79.17 33.97, 91.79 24.93, 111.19 1.33 M67.96 46.07 C84.5 33.28, 98.2 18.51, 111.61 0.38 M78.19 43.63 C83.31 34.51, 94.52 23.16, 119.55 -3.27 M74.69 47.99 C89.8 32.69, 101.03 19.34, 116.28 2.12 M81.6 45.98 C93.39 28.67, 108.26 14.83, 119.18 2.28 M79.63 45.66 C90.35 38.33, 96.86 25.78, 120.73 -0.77 M85.68 51.06 C98.91 39.5, 104.3 26.53, 126.23 -1.19 M86.23 47.08 C94.94 35.35, 102.76 23.69, 128.3 0.13 M87.75 45.51 C102.47 33.89, 112.08 23.25, 132.21 -3.49 M91.74 49.27 C101.16 35.73, 112.44 24.26, 131.79 -0.13 M98.5 47.34 C108.19 31.28, 122.12 14.56, 136.01 -0.3 M95.86 46.87 C110.84 31.13, 126.5 13.66, 135.54 0.74 M102.04 46.67 C109.94 31.94, 124.63 24.64, 146.42 -0.47 M102.84 48.76 C115.88 28.53, 129.99 14.13, 144.07 0.93 M106.32 46.48 C119.76 36.26, 133.88 17.74, 150.1 2.83 M106.12 46.73 C120.64 34.85, 129.4 19.24, 148.24 -0.88 M111.2 51.39 C122.24 34.44, 135.87 18.06, 154.09 0.73 M114.45 48.04 C125.92 29.82, 141.11 15.45, 153.8 -0.89 M118.9 44.37 C133.2 36.29, 142.84 15.07, 161.83 -2.47 M116.49 48.11 C125.87 37.33, 137.6 23.54, 159.6 -1.51 M126.05 47.5 C136.53 39.58, 140.13 24.41, 167.62 3.35 M122.99 47.1 C139.53 29.61, 152.69 13.59, 166.13 1.19 M126.15 50.75 C145.23 31.05, 158.98 12.55, 172.67 -1.02 M127.37 46.54 C143.05 28.33, 158.29 11.13, 169.74 2.16 M133.57 48.69 C151.38 27.3, 163.65 13.11, 171.55 0.54 M131.86 45.98 C145.36 36.76, 157.85 20.06, 175.16 -0.02 M138.09 49.26 C152.9 29.05, 170.45 15.52, 176.21 0.27 M140.11 47.59 C154.57 29.66, 170.33 11.88, 181.73 1.48 M144.84 46.53 C153.38 30.98, 169.56 22.81, 186.5 -0.72 M143.36 48.79 C159.09 29.2, 175.4 10.35, 183.93 -1.63 M152.87 45.41 C169.34 27.21, 183.56 5.5, 190.16 -3.68 M149 46.89 C160.19 35.47, 168.25 27.83, 189.57 -0.13 M155.08 50.46 C173.37 29.08, 180.23 16.97, 197.27 -3.52 M154.75 47.7 C162.06 38.58, 170.88 25.51, 196.4 1.32 M156.77 50.58 C175.22 37.27, 181.77 20.02, 200.35 -0.03 M161.25 46.14 C173.72 31.54, 191.12 11.09, 202.21 0.81 M167.62 47.8 C184.38 26.33, 197.34 7.64, 208.76 2.87 M166.21 46.93 C175.46 37.1, 185.16 25.45, 205.48 -0.18 M172.19 50.01 C177.78 38.72, 193.34 26.78, 208.75 1.89 M173.02 45.11 C179.76 35, 190.18 26.46, 211.52 -0.16 M177.92 43.74 C186.21 33.21, 199.31 22.37, 213.98 3.1 M176.88 46.78 C192.31 27.53, 204.24 11.03, 217.03 -1.03 M185.65 42.85 C185.71 40.29, 201.51 31.92, 225.46 2.67 M181.42 45.63 C193.37 37.04, 201.99 23.17, 224.31 0.58 M189.57 45.35 C192.41 40.13, 208.52 28.93, 226.09 -4.34 M188.83 47.61 C197.97 31.17, 212.35 17.02, 229.82 -2.1 M195.14 50.85 C205.41 33.24, 213.6 19.65, 236.67 -3.26 M191.82 48.32 C202.28 35.71, 209.6 27.75, 234.34 -1.32 M198.3 45.58 C214.9 32.5, 227.37 16.1, 237.71 1.7 M199.05 45.84 C214.78 30.18, 229.34 12.63, 238.93 -1.44 M204.77 51.39 C212.68 33.19, 223.24 24.46, 244.73 -3.57 M204.5 45.65 C211.33 36.21, 223.05 22.2, 242.31 1.89 M207.92 47.24 C218.78 30.55, 233.37 12.95, 247.55 -2.04 M207.48 45.95 C218.15 35.37, 230.32 21.21, 250.31 -1.3 M212.76 45.97 C227.98 31.48, 239.72 18.11, 252.11 -0.08 M214.72 46.36 C223.52 32.68, 237.05 19.48, 255.83 -2.01 M222.41 47.02 C232.13 26.25, 248.89 10.5, 256.48 1.32 M217.01 48.48 C233.36 30.49, 246.17 13.45, 260.92 0.41 M222.14 49.22 C231.67 37.05, 241.11 25.15, 261.38 -0.72 M223.32 48.55 C235.69 32.71, 250 16.79, 265.47 -1.16 M229.86 43.5 C241.7 37.12, 252.62 23, 270.15 1.8 M229.44 46.04 C242.36 30.57, 254.42 17.03, 269.29 -0.93 M232.08 49.66 C248.81 37.47, 253.01 25.32, 275.27 -3.54 M236.09 48.34 C244.6 36, 254.43 24.55, 276.74 0.36 M242.47 45.12 C255.73 31.21, 275.06 12.97, 282.34 3.26 M241.54 47.3 C249.85 32.25, 261.71 20.4, 278.89 0.14 M245.83 49.67 C262.22 35.65, 276.08 15.16, 288.61 3.28 M243.75 47.93 C258.94 28.56, 277.39 11.07, 286.08 -1.46 M248.59 46.19 C262.98 29.21, 276.57 18.86, 290.94 -0.52 M248.99 44.98 C265.44 29.27, 281.74 14.91, 290.12 -0.88 M254.8 49.49 C268.21 30.22, 286.28 17.52, 296.36 1.43 M253.95 47.59 C271.79 28.88, 287.47 12.25, 296.86 1.41 M260.67 50.92 C277.41 37.52, 289.08 22.48, 297.99 -1.92 M262.41 47.89 C272.69 33.51, 287.99 18.68, 300.34 1.59 M262.52 47.26 C281.46 28.94, 295.99 21.35, 309.61 -1.53 M267.31 45.65 C278.94 33.89, 294.79 16.57, 307.4 1.08 M275.31 49.36 C283.91 35.71, 297.03 23.39, 309.62 -3.44 M271.38 48.88 C282.19 32.1, 291.4 20.18, 311.83 -0.81 M276.64 46.98 C288.92 29.11, 307.94 10.2, 315.57 -4.14 M277.34 46.49 C291.67 28.38, 311.23 9.41, 318.96 -2.27 M281.22 49.46 C290.33 39.48, 297.75 27.06, 320.13 -1.7 M284.4 48.87 C295.04 31.63, 311.52 13.19, 323.81 1.63 M284.93 50.54 C296.59 33.68, 305.2 22.76, 325.59 -3.1 M286.52 48.56 C300.2 31.4, 317.04 16.04, 327.72 -0.43 M291.24 45.05 C305.44 33.66, 319.53 16.56, 335.9 -3.43 M292.91 48.84 C306.8 32.11, 320.24 17.51, 332.44 0.65 M295.29 49.69 C305.4 40.11, 316.33 30.3, 343.12 -1.2 M298.26 48.37 C312.86 29.14, 329.4 10.99, 340.8 -1.08 M301.67 48.56 C314.41 39.1, 316.7 24.69, 343.47 -1.51 M302.63 46.58 C313.45 34.07, 324.44 20.37, 342.82 -1.91 M311.75 50.07 C313.74 38.87, 328.81 29.23, 347.1 1.38 M308.91 48.51 C315.28 38.94, 324.12 29.66, 347.63 0.87 M310.92 48.05 C321.19 39.69, 332.28 29.48, 357.47 1.07 M312.19 45.71 C322.51 39.63, 331.93 26.48, 356.97 1.84 M318.46 47.17 C326.34 39.94, 338.6 25.56, 358.55 4.06 M319.75 45.6 C329.29 35.36, 340.64 20.87, 358.52 0.34 M323.53 43.74 C334.91 32.56, 348.51 18.24, 364.7 -0.81 M325.18 48.13 C335.31 34.63, 343.3 23.96, 365.88 1.84 M327.69 50.39 C347.5 30.76, 358.88 16.3, 372.66 2.43 M329 46.35 C339.79 33.05, 350.34 20.97, 368.74 -1.44 M336.85 44.92 C352.3 25.03, 365.02 14.47, 380.05 1.6 M336.8 47.08 C349.79 31.67, 361.43 15.26, 377.45 -1.89 M339.84 50.97 C353.57 31.16, 368.72 14.55, 377.38 1.17 M339.83 47.51 C351.16 36.95, 358.68 24.14, 381.18 0.08 M348.35 46.8 C362.73 33.05, 379.7 13.57, 390.54 -1.06 M345.17 47.86 C356.24 33.21, 367.41 24.08, 388.53 0.72 M351.45 46.05 C368.86 30, 381.11 7.56, 392.81 -1.14 M352.32 47.93 C365.81 33.58, 375.36 19.35, 393.66 1.51 M355.6 46.45 C365.11 33.49, 382.22 20.14, 395.33 3.71 M355.35 47.82 C368.46 30.26, 384.75 11.99, 396.91 1.81 M363.15 46.62 C373.73 36.1, 382.93 25.03, 399.15 3.93 M363.52 48.48 C375.37 29.02, 389.19 14.98, 402.92 -0.5 M364.33 50.81 C379.04 26.62, 396.86 15.94, 405.69 2.29 M367.36 48.38 C381.79 27.42, 399.86 12.49, 409.29 -0.42 M371.73 45.58 C386.75 32.44, 393.4 26.57, 416.75 2.71 M371.39 48.1 C385 34.2, 392.71 21.45, 412.66 -1.2 M380.36 44.69 C386.77 32.5, 399.94 15.3, 421.02 2.95 M376.13 47.02 C390.76 30.48, 404.7 16.68, 417.35 -1.7 M386.09 49.68 C394.03 34.16, 400.81 29.18, 426.06 -0.61 M382.84 47.83 C396.09 34.64, 409.06 19.57, 425.5 0.2 M385.67 46.79 C400.16 33.93, 419.9 18.06, 428.84 -4.2 M387.55 45.28 C400.48 30.46, 416.21 17.17, 429.68 0.28 M395.25 47.55 C411.88 30.58, 425.8 11.79, 431.69 0.04 M393.72 46.73 C411.05 30.66, 424.26 12.88, 435.02 0.56 M402.34 45.68 C411.61 33.48, 431.1 8.61, 436.81 0.85 M398.41 48.78 C412.59 27.27, 429.77 10.84, 439.82 -2.08 M408.35 49.7 C420.4 32.05, 438.34 7.59, 446.33 -3.4 M404.82 45.93 C413.74 38.01, 423.76 28.21, 445.7 0.79 M412.58 47.8 C422.43 33.12, 430.74 20.53, 448.71 -4 M408.49 47.18 C419.04 36.36, 428.87 25.51, 450.23 -2.33 M414.69 48.5 C429.9 31.11, 440.73 19.68, 458.83 -1.11 M413.86 48.65 C426.36 31.11, 438.05 18.8, 457 1.87 M422.73 45.47 C431.25 34.1, 443.56 22.9, 464.43 -3.02 M420.46 46.21 C432.95 34.43, 445.14 19.5, 460.32 0.04 M423 50.97 C434.01 34.31, 444.59 23.52, 466.14 2.6 M426.83 48.89 C437.55 34.91, 449.81 20.17, 467.29 0.85 M431.26 48.89 C449.29 27.54, 464.31 10.27, 471.33 2.2 M431.96 47.67 C445.37 31.27, 457.26 18.89, 469.79 0.35 M432.11 43.73 C448.02 36.31, 460.71 20.31, 473.37 -2.69 M436.65 48.47 C449.32 29.91, 464.97 14.48, 477.89 -1.16 M444.75 46.11 C455.21 25.35, 469.58 8.43, 478.9 -2.37 M439.55 45.41 C452.71 33.9, 464.26 18.6, 481.24 1.75 M443.03 45.53 C463.34 34.18, 478.19 12.98, 485.71 -1.55 M447.2 45.54 C463.41 31.63, 479.61 10.25, 489.05 1 M453.92 43.09 C467.9 37.8, 473.48 19.99, 490.73 1.43 M450.73 45.36 C463.1 35.99, 470.46 26.73, 492.22 -0.33 M453.53 48.27 C472.01 34.85, 480.3 21.1, 500.52 -0.66 M455.95 47.54 C468.04 34.83, 482.31 20.61, 499.96 0.57 M465.6 47.65 C480.27 33.12, 494.57 12.38, 507.25 -3.16 M463.96 45.48 C474.14 33.08, 484.07 21.55, 501.9 -1.1 M465.5 49.69 C478.21 34.92, 496.8 17.43, 507.24 3.18 M469.3 47.99 C485.28 28.9, 498.07 12.87, 508.74 -1.16 M470.75 45.47 C485.01 35.43, 492.51 24.18, 516.96 -3 M472.59 47.84 C483.27 34.88, 495.02 24.04, 514.37 -1.76 M476.98 45.43 C485.76 36.64, 494.39 29.89, 519.48 -0.97 M478.61 46.46 C492.12 29.91, 508.25 10.67, 520.47 1.16 M484.47 48.13 C490.65 40.17, 497.14 22.99, 528.52 -3.09 M484.95 46.52 C498.96 27.96, 514.66 15.22, 522.67 -1.41 M490.11 44.99 C494.91 36.79, 510.78 26.98, 526.93 1.85 M488.15 48.59 C499.16 38.73, 506.08 27.52, 531.15 0.96 M497.96 45.06 C506.41 30.6, 520.75 15.44, 538.7 -2.55 M496.3 47.71 C508.17 27.45, 526.67 13.19, 536.77 -1.11 M503.18 47.76 C506.18 37.7, 511.91 25.75, 537.54 3.23 M499.16 46.09 C508.43 35.6, 513.71 27.93, 533.8 6.51 M502.57 43.6 C517.02 39.03, 521.42 25.54, 537.92 9.46 M504.81 45.64 C515.2 37.69, 523.02 25.63, 537.08 12.25 M510.57 50.98 C518.97 34.01, 527.76 24.46, 534.58 20.36 M509.78 48.7 C516.76 39.43, 526.03 32.09, 535.63 17.84 M513.76 44.92 C517.64 42.14, 522.78 35.74, 533.68 25.49 M515.63 46.59 C521.72 38.04, 532.45 29.78, 533.94 25.65 M518.82 49.8 C523.11 39.98, 526.28 39.9, 536.74 28.53 M519.12 48.27 C524.48 44.51, 525.19 39.64, 534.04 31.28 M524.26 45.06 C530.26 45.93, 531.8 44.81, 534.64 39.47 M525.37 45.59 C529.01 43.35, 532.87 39.18, 535.29 37 M531.14 46.6 C532.53 46.53, 533.82 44.7, 534.99 42.52 M531.33 47.04 C531.88 46.72, 533.01 44.55, 535.76 43.21" stroke="#228be6" stroke-width="0.5" fill="none"></path><path d="M0.8 -1.13 C208.11 -2.45, 417.47 -1.27, 536.54 0.71 M-0.2 -0.25 C137.4 1.87, 273.37 1.35, 534.79 -0.16 M537.09 0.15 C536.66 18.42, 537.15 32.9, 535.24 47.04 M534.12 -1.85 C533.6 9.67, 536.22 20.05, 536.81 46.46 M534.5 45.57 C408.71 43.87, 283.84 43.59, -1.13 45.87 M535.47 45.75 C343.4 44.52, 150.24 44.51, -0.18 45.91 M1.66 44.32 C-1.14 28.02, -2.51 12.59, -0.59 1.55 M1.82 45.59 C-0.64 34.49, 1.95 25.04, -0.03 0.87" stroke="#000000" stroke-width="1" fill="none"></path></g><g transform="translate(28.387373832611956 15) rotate(0 250 18)"><text x="250" y="25" font-family="Virgil, Segoe UI Emoji" font-size="28px" fill="#000000" text-anchor="middle" style="white-space: pre;" direction="ltr">What is Machine Learning Engineering</text></g><g stroke-linecap="round" transform="translate(10 57.126858401783466) rotate(0 667.3355922877654 264.2232598685382)"><path d="M-0.83 0.06 C478.29 8.78, 958.96 8.26, 1333.96 -1.5 M1336 0.15 C1333.39 135.39, 1333.18 272.26, 1335.75 527.79 M1335.49 529.05 C883.88 528.47, 431.16 529.26, -1.59 527.89 M-0.87 528.8 C3.09 389.61, 3.31 248.61, -1.04 1.01" stroke="#000000" stroke-width="1.5" fill="none" stroke-dasharray="8 9"></path></g><g transform="translate(45.245043994868865 82.18417330906868) rotate(0 341.5 12.5)"><text x="0" y="18" font-family="Virgil, Segoe UI Emoji" font-size="20px" fill="#000000" text-anchor="start" style="white-space: pre;" direction="ltr">Machine Learning Engineering is the use of scientific principles, tools, </text></g><g transform="translate(636.133658579507 194.6423731175082) rotate(0 227.5 12.5)"><text x="227.5" y="18" font-family="Virgil, Segoe UI Emoji" font-size="20px" fill="#000000" text-anchor="middle" style="white-space: pre;" direction="ltr">to design and build complex computing systems</text></g><g transform="translate(351.92706653616096 136.79469471460834) rotate(0 291 12.5)"><text x="291" y="18" font-family="Virgil, Segoe UI Emoji" font-size="20px" fill="#000000" text-anchor="middle" style="white-space: pre;" direction="ltr">and machine learning / traditional sw engineering techniques</text></g><g stroke-linecap="round"><g transform="translate(264.0494420291743 128.6154058227221) rotate(0 38.22718199450446 12.995055863637845)"><path d="M0.02 -0.49 C1.24 3.36, 1.52 17.49, 7.67 21.97 C13.83 26.45, 25.36 25.81, 36.95 26.38 C48.54 26.96, 70.65 25.71, 77.21 25.41 M-1.43 -1.79 C-0.39 1.8, 0.37 15.3, 6.73 20.16 C13.1 25.01, 24.88 26.24, 36.74 27.34 C48.6 28.44, 71.55 27.18, 77.88 26.75" stroke="#364fc7" stroke-width="1" fill="none"></path></g><g transform="translate(264.0494420291743 128.6154058227221) rotate(0 38.22718199450446 12.995055863637845)"><path d="M58.43 34.77 C66.4 33.87, 70.4 30.85, 78.64 26.53 M59.36 35.72 C64.8 32.65, 68.42 30.31, 78.4 26.3" stroke="#364fc7" stroke-width="1" fill="none"></path></g><g transform="translate(264.0494420291743 128.6154058227221) rotate(0 38.22718199450446 12.995055863637845)"><path d="M57.66 20.92 C65.76 24.57, 70.01 26.09, 78.64 26.53 M58.59 21.87 C64.28 22.52, 68.11 23.91, 78.4 26.3" stroke="#364fc7" stroke-width="1" fill="none"></path></g></g><mask></mask><g stroke-linecap="round"><g transform="translate(543.9822719041304 178.85867099498955) rotate(0 38.00063621241543 14.271860773964363)"><path d="M0.34 0.6 C1.89 4.36, 2.49 17.38, 8.39 21.8 C14.29 26.22, 24.38 26.59, 35.74 27.12 C47.11 27.64, 69.61 25.31, 76.58 24.96 M-0.93 -0.13 C0.6 3.32, 1.86 15.13, 7.84 19.9 C13.81 24.66, 23.38 27.43, 34.9 28.46 C46.42 29.49, 69.96 26.57, 76.93 26.07" stroke="#364fc7" stroke-width="1" fill="none"></path></g><g transform="translate(543.9822719041304 178.85867099498955) rotate(0 38.00063621241543 14.271860773964363)"><path d="M59.6 35.98 C63.48 32.49, 66.98 31.11, 76.95 28.04 M59.53 35.7 C64.77 33.01, 69.42 28.53, 77.55 25.21" stroke="#364fc7" stroke-width="1" fill="none"></path></g><g transform="translate(543.9822719041304 178.85867099498955) rotate(0 38.00063621241543 14.271860773964363)"><path d="M58.32 22.17 C62.39 21.79, 66.19 23.51, 76.95 28.04 M58.25 21.89 C63.9 23.45, 68.95 23.21, 77.55 25.21" stroke="#364fc7" stroke-width="1" fill="none"></path></g></g><mask></mask><g transform="translate(161.05391492446688 335.7083286423531) rotate(0 46.5 25)"><text x="46.5" y="18" font-family="Virgil, Segoe UI Emoji" font-size="20px" fill="#000000" text-anchor="middle" style="white-space: pre;" direction="ltr">Business </text><text x="46.5" y="43" font-family="Virgil, Segoe UI Emoji" font-size="20px" fill="#000000" text-anchor="middle" style="white-space: pre;" direction="ltr">Problem</text></g><g stroke-linecap="round" transform="translate(314.636332435065 324.3923559881441) rotate(0 62 32)"><path d="M0 0 C0 0, 0 0, 0 0 M0 0 C0 0, 0 0, 0 0 M-0.85 5.81 C1.38 5.32, 2.91 2.31, 5.44 -0.31 M0.02 6.61 C1.11 4.67, 1.82 3.47, 4.61 0.39 M1.35 12.87 C2.84 8.02, 5.6 5.89, 10.97 0.54 M0.63 12.19 C3.67 8.78, 7.4 4.72, 10.54 0.53 M-0.96 17.42 C2.21 14.19, 6.38 8.52, 14.24 1.18 M-0.31 19.02 C5.51 12.59, 12.12 5.51, 14.93 -0.33 M1.08 24.69 C6.91 16.66, 13.19 11.6, 20.99 -0.66 M-0.37 23.44 C8.8 15.69, 16 5.68, 21.68 -0.5 M1.01 31.95 C5.05 21.87, 12.26 13.78, 26.84 -1 M-0.7 30.89 C6.99 23.51, 12.4 17.18, 26.67 -0.66 M-2.02 36.69 C9.78 26.09, 18.42 12.63, 33.49 -1.96 M0.03 36.05 C9.41 27.3, 18.33 16.67, 32.29 0.71 M1.59 42.43 C11.95 27.75, 28.07 11.11, 38.12 1.78 M-0.49 42.51 C9.77 29.87, 20.46 18.8, 37.83 0.84 M0.62 48.42 C16.32 31.22, 33.09 10.38, 41.3 0.36 M-0.53 48.3 C15.12 30.78, 31.32 13.42, 42.42 -0.06 M2.24 55.7 C15.69 36.96, 27.71 19.55, 48.35 2.09 M0.01 53.92 C11.48 41.27, 22.15 30.22, 47.47 0.57 M1.36 60.48 C19.78 40.23, 34.77 19.15, 53.21 -1.15 M-0.03 61.73 C14.36 43.27, 30.82 24.65, 53.6 -1.13 M1.83 66.03 C11.76 51.07, 26.82 37.67, 59.84 -0.56 M1.25 65.66 C21.82 40.64, 43.85 16.98, 59.1 -0.03 M5.82 64.05 C29.64 37.65, 52.27 12.62, 62.07 -1.03 M7.22 64.61 C20.12 50.48, 34.52 33.9, 62.83 -0.79 M13.83 65.09 C29.03 49.45, 43.7 31.41, 68.99 0.26 M11.76 64.76 C34.45 39.67, 55.93 13.95, 68.7 -0.48 M16.54 63.85 C36.46 46.92, 49.57 28.3, 72.81 -0.86 M18.22 64.82 C34.09 45.23, 51.2 27.23, 74.58 0.7 M22.74 65.1 C41.76 41.94, 60.15 21.49, 78.25 1.92 M22.43 65.89 C44.89 39.61, 67.24 13.13, 78.74 0.74 M28.76 65.04 C44.92 44.28, 61.86 22.72, 86.4 -1.3 M27.1 64.77 C41.93 51.29, 52.96 34.95, 84.8 -0.89 M34.28 64.67 C49.28 47.86, 68.83 28.33, 88.12 0.76 M32.82 65.22 C50.94 44.86, 68.68 25.87, 90.14 0.14 M39.75 67.18 C56.33 45.94, 75.79 25.66, 95.89 -2.07 M38.42 65.35 C56.02 45.1, 75.22 25.28, 94.88 0.25 M42.25 63.32 C62.24 44.1, 77.66 27.9, 101.19 0.01 M43.98 64.9 C57.33 51.07, 68.56 38.58, 100.28 -0.69 M48.85 64.78 C61.86 46.6, 78.24 29.73, 106.39 -1.93 M49.2 64.53 C68.84 41.42, 90.16 18.4, 105.7 -0.05 M55.84 66.29 C68.96 46.92, 85.8 27.24, 110.09 1.87 M53.74 65.92 C67.93 49.85, 81.66 34.23, 111.03 0.85 M61.42 67.27 C74.18 45.91, 91.77 29.08, 114.4 2.01 M58.91 65.28 C73.09 49.88, 84.88 35.75, 116.96 0.82 M66.29 65.46 C81.78 45.46, 104.49 21.89, 121.53 -0.53 M65.39 64.99 C81.21 47.67, 98.79 26.96, 122.72 0.38 M68.93 67.03 C83.8 47.95, 100.56 28.67, 125.16 0.86 M69.52 65.59 C89.94 43.97, 106.66 22.66, 126.47 2.78 M74.93 63.95 C90.36 47.19, 106.24 31.29, 125.7 8.42 M75.71 65.15 C91.08 47.67, 105.85 30.15, 125.59 8.11 M80.89 63.38 C94.05 50.88, 105.89 38.32, 127.44 12.46 M81.44 64.52 C96.16 48, 110.93 29.04, 124.98 13.55 M87.79 65.04 C96.48 54.06, 110.18 40.37, 128.05 20.71 M85.61 64.7 C99.98 49.44, 115.2 31.74, 125.52 18.72 M92.87 66.57 C103.73 49.07, 120.05 35.06, 127.78 27.22 M91.57 66.12 C102.16 54.77, 110.58 41.8, 126.43 26.53 M94.99 64.94 C104.8 55.64, 115.49 45.83, 124.75 30.49 M97.47 65.97 C103.55 58.02, 109.67 50.25, 125.54 33.17 M102.51 65.79 C108.71 59.66, 113.14 53.76, 127.59 39.05 M103.27 65.5 C108.87 58.35, 114.51 51.55, 125.03 37.71 M106.69 64.82 C114.37 59.34, 119.13 50.65, 124.07 45.15 M107.13 65.33 C111.46 60.57, 115.43 57.6, 125.16 43.69 M113.51 65.17 C119.44 61.46, 123.1 52.39, 124.36 50.8 M112.37 64.79 C116.3 61.67, 118.11 59.13, 126.49 49.12 M117.47 66.26 C119.64 63.62, 123.74 59, 126.16 56.91 M117.94 65.3 C120.15 63.5, 121.31 60.68, 126.18 56.07" stroke="#fab005" stroke-width="0.5" fill="none"></path><path d="M1.87 -0.69 C32.25 -1.13, 62.9 0.28, 123.58 -1.09 M0.42 0.42 C33.42 0.6, 68.37 1.05, 124.41 0.35 M123.39 0.76 C124.99 15.24, 123.44 25.63, 125.11 63.49 M124.09 -0.05 C123.32 21.15, 123.61 40.41, 123.11 64.47 M123.84 63.92 C93.82 62.52, 66.34 62.82, -1.08 65.72 M123.18 63.9 C90.42 64.11, 56.95 64.11, 0.28 63.66 M1.69 63.12 C-1.23 50.28, -1.46 36.99, -0.01 0.47 M-0.77 64.3 C0.76 44.59, -0.11 25.18, -0.46 0.89" stroke="#000000" stroke-width="1" fill="none"></path></g><g transform="translate(331.136332435065 329.3923559881441) rotate(0 45.5 25)"><text x="45.5" y="18" font-family="Virgil, Segoe UI Emoji" font-size="20px" fill="#000000" text-anchor="middle" style="white-space: pre;" direction="ltr">Goal </text><text x="45.5" y="43" font-family="Virgil, Segoe UI Emoji" font-size="20px" fill="#000000" text-anchor="middle" style="white-space: pre;" direction="ltr">Definition</text></g><g stroke-linecap="round"><g transform="translate(262.99956823885805 362.55940676791033) rotate(0 24.8589613729323 0.5214035240537669)"><path d="M-0.41 0.82 C7.71 0.87, 39.8 1.48, 48.02 1.42 M1.57 0.2 C10.11 0.42, 42.4 -0.59, 50.13 -0.34" stroke="#000000" stroke-width="1" fill="none"></path></g><g transform="translate(262.99956823885805 362.55940676791033) rotate(0 24.8589613729323 0.5214035240537669)"><path d="M28.44 6.27 C33.62 5.73, 37.56 3.1, 49.67 -1.57 M26.17 7.63 C31.57 6.21, 37.06 4.87, 49.27 -1.14" stroke="#000000" stroke-width="1" fill="none"></path></g><g transform="translate(262.99956823885805 362.55940676791033) rotate(0 24.8589613729323 0.5214035240537669)"><path d="M28.37 -10.55 C33.73 -7.07, 37.68 -5.7, 49.67 -1.57 M26.1 -9.19 C31.58 -7.1, 37.09 -4.93, 49.27 -1.14" stroke="#000000" stroke-width="1" fill="none"></path></g></g><mask></mask><g stroke-linecap="round" transform="translate(509.69884130693663 326.19344638512666) rotate(0 88.5 32.5)"><path d="M0 0 C0 0, 0 0, 0 0 M0 0 C0 0, 0 0, 0 0 M0.45 6.33 C0.5 5.49, 1.49 3.08, 4.56 0.38 M-0.62 6.07 C1.46 3.76, 3.63 1.6, 5.18 0.51 M-1.13 12.85 C3.34 7.81, 8.53 3.22, 10.6 0.34 M0.73 12.64 C4.29 7.56, 8.27 2.86, 11.03 -0.56 M-0.01 17.25 C2.97 12.49, 8.96 10.61, 15.68 1.7 M0.86 19 C4.83 12.69, 7.97 8.24, 16.61 -0.53 M-0.18 24.8 C8.99 15.51, 13.9 9.43, 20.73 -1.44 M1.22 23.25 C5.82 18.74, 9.92 12.13, 21.73 -0.61 M-1.17 29.69 C7.31 20.68, 16.88 8.03, 24.43 1.05 M-0.02 30.71 C6.39 23.77, 10.98 16.55, 25.72 0.54 M0.59 35.27 C5.52 30.68, 11.53 20.95, 31.27 -0.58 M0.63 37.03 C11.41 24.98, 22.02 13.13, 31.75 -0.63 M0.85 43.14 C13.58 28.37, 29.04 11.01, 37.69 0.83 M-0.53 42.35 C9 33.64, 18.16 23.43, 36.98 0.96 M0.95 50.07 C13.08 31.07, 29.25 16.95, 40.69 -2.07 M-1.02 49.23 C10.64 36.31, 22.41 23.75, 43.14 0.73 M-0.21 53.28 C17.61 33.47, 39.46 9.54, 47.95 1.5 M-0.33 55.02 C14.27 39.4, 26.79 24.97, 46.59 0.16 M-0.04 59.15 C19.25 38.24, 38.21 15.47, 54.45 1.08 M0.2 61.66 C14.37 43.59, 30.03 24.15, 52.88 0.42 M1.01 67.07 C18.38 48.05, 34.88 27.55, 56.61 1.57 M0.56 66.52 C14.58 50.64, 29.44 33.97, 58.8 0.08 M4.19 67 C20.41 47.27, 35.26 30.76, 64.92 -0.09 M6.8 67.11 C26.78 41.81, 46.64 19.13, 62.97 -1.17 M13.31 65.75 C34.4 41.25, 54.52 18.15, 70.03 1.62 M11.73 66.32 C24.98 49.48, 38.78 33.63, 67.88 1.11 M17.93 64.45 C34.05 46.75, 46.63 30.91, 75.41 1.52 M16.13 67.08 C40.11 40.29, 62.88 14.72, 74.45 -0.16 M21.42 64.49 C39.53 45.82, 57.01 29.99, 79.48 0.29 M22.74 65.24 C35.45 49.32, 50.32 34.08, 80.13 0.11 M27.1 64.16 C46.19 45.14, 65.64 19.68, 84.18 1.09 M28.27 65.35 C39.37 51.14, 51.81 37.19, 85.39 -1.19 M34.85 67.22 C54.02 42.23, 71.84 22.29, 89.18 -1.74 M32.03 66.25 C45.25 51.37, 58.13 36.84, 89.88 0.4 M39.2 67.59 C59.47 42.59, 76.92 18.92, 96.43 -2.15 M37.93 66.87 C55.23 46.73, 71.17 28.63, 94.89 0.54 M42.03 65.91 C56.63 52.74, 66.98 37.31, 100.3 -1.69 M43.09 65.8 C60.14 46.82, 74.16 28.78, 101.5 -0.21 M46.62 66.24 C63.07 47.92, 79.62 30.27, 108.26 -0.91 M47.85 67.07 C65.86 45.74, 83.71 26.5, 107.08 -0.69 M54.34 64.61 C75.32 39.8, 99.43 14.71, 110.94 1.27 M54.41 65.78 C68.72 48.82, 83.75 32.34, 111.39 0.54 M58.71 65.7 C81.42 39.82, 103.37 15.43, 118.11 0.92 M58.8 65.83 C71.26 52.7, 83.12 38.85, 116.47 -0.36 M66.1 67.42 C85.71 41.33, 106.94 17.1, 120.12 -1.99 M65.53 65.57 C84.73 43.67, 106.18 19.34, 121.98 -0.6 M69.76 65.6 C80.15 51.52, 93.64 37.9, 125.27 1.25 M69.59 65.53 C80.42 53.04, 93.72 38.76, 126.56 1.23 M74.56 66.52 C91.83 47.43, 108.1 29.69, 131.81 1.49 M75.03 66.03 C93.42 43.62, 113.39 22.28, 131.73 -0.45 M78.99 67.64 C96.56 48.39, 112.6 28.64, 138.04 0.32 M81.04 64.98 C99.3 43.56, 118.51 22.45, 137.93 -0.48 M87.91 66.14 C109.96 42.62, 131.35 16.73, 142.94 -1.28 M86.5 65.46 C100.49 48.91, 114.55 33.91, 143.12 0.68 M90.56 67.59 C111.74 44.84, 132.59 19.19, 148.3 1.68 M92.03 65.49 C105.66 47.51, 123.31 28.5, 148.82 0.68 M97.27 66.56 C110.14 50.92, 119.38 36.32, 155.34 -1.22 M96.57 65.65 C117.39 40.62, 139.98 15.16, 154.67 -1.07 M101.56 67.26 C118.49 46.85, 137.61 23.86, 158.85 0.92 M101.45 66.83 C123.1 38.85, 145.69 14.79, 158.52 0.33 M108.07 64.9 C122.49 46.8, 138.45 28.94, 163.8 0.81 M106.26 66.6 C123.79 47.18, 138.1 29.99, 164.95 -1.09 M114.03 66.56 C128.96 42.23, 150.25 20.9, 167.46 1.72 M112.23 65.22 C126.63 50.5, 138.66 34.55, 169.36 -0.43 M118.61 68.08 C129.72 50.02, 147.32 31.3, 176.03 -2 M117.56 65.53 C133.47 47.12, 150.56 27.01, 174.54 -0.3 M122.94 67.42 C138.55 48.49, 157.05 28.24, 177.49 1.31 M123.33 65.38 C136.96 48.78, 151.92 32.23, 179.38 2.47 M128.18 65.32 C141.5 48.96, 159.4 29.83, 178.15 9.17 M127.55 65.37 C142.33 49.1, 158.83 31.38, 179.48 6.4 M132.19 65.86 C145.39 55.27, 154.11 44.34, 180.71 12.56 M133.74 66.48 C147.73 49.1, 163.14 33.42, 179.08 14.11 M139.65 65.17 C148.95 51.76, 162.36 39.26, 177.71 21.37 M138.99 65.79 C150.67 52.12, 164.21 37.59, 178.41 20.75 M142.65 63.96 C156.16 51.73, 172.88 33.81, 180.87 24.74 M144.49 66.15 C155.6 52.27, 167.83 37.14, 179.05 25.44 M150.84 64.23 C154.55 60.65, 161.64 53.37, 178.49 31.96 M149.65 65.91 C157.92 54.85, 168.67 44.49, 179.23 31.21 M156.08 65.85 C165.13 53.12, 174.17 42.51, 179.46 37.79 M154.62 66.52 C163.25 55.88, 170.68 47.67, 179.75 37.42 M158.51 67.18 C165.39 58.37, 170.68 53.62, 179.32 43.14 M160.36 66.32 C164.65 62.01, 168.74 55.78, 178.02 43.49 M167.22 65.73 C171.59 60.7, 173.39 57.14, 180.28 52.42 M165.22 66.16 C168.71 61.41, 172.47 58.21, 177.99 51.26 M170.39 66.51 C173.19 62.07, 178.12 58.9, 180.04 55.06 M170.8 65.43 C172.85 63.41, 175.81 59.93, 179.33 56.73 M176.05 65.3 C176.29 65.17, 177.01 64.45, 179 62.75 M175.98 65.75 C176.86 64.97, 177.08 64.2, 178.92 62.78" stroke="#ced4da" stroke-width="0.5" fill="none"></path><path d="M-1.89 1.13 C69.21 -1.63, 138.3 -1.67, 175.78 -1.83 M-0.53 -0.28 C60.42 2.01, 121.35 0.73, 176.2 -0.18 M178.57 -0.05 C175.54 18.61, 176.73 35.43, 175.22 65.29 M177.59 0.18 C176.25 19.17, 177.44 39.49, 177.78 65.32 M175.13 66.19 C123.71 63.26, 75.28 63.7, -1.23 66.01 M176.48 64.46 C137.98 64.71, 99.65 63.56, 0.24 65.33 M-0.1 63.7 C0.51 40.01, 0.75 15.12, 0.21 0.44 M0.04 64.96 C-0.13 50.06, 0.69 36.47, -0.22 -0.54" stroke="#000000" stroke-width="1" fill="none"></path></g><g transform="translate(515.1988413069366 333.69344638512666) rotate(0 83 25)"><text x="83" y="18" font-family="Virgil, Segoe UI Emoji" font-size="20px" fill="#000000" text-anchor="middle" style="white-space: pre;" direction="ltr">Data Collection </text><text x="83" y="43" font-family="Virgil, Segoe UI Emoji" font-size="20px" fill="#000000" text-anchor="middle" style="white-space: pre;" direction="ltr">and Preparation</text></g><g stroke-linecap="round" transform="translate(732.5251919482689 328.38443707465467) rotate(0 60.5 32)"><path d="M0 0 C0 0, 0 0, 0 0 M0 0 C0 0, 0 0, 0 0 M-0.73 6.85 C0.59 4.01, 2.4 2.82, 5.55 0.79 M-0.46 6.02 C1.6 4.1, 3.53 2.51, 5.29 0.57 M-0.55 12.38 C4.21 8.34, 7.02 4.51, 11.62 0.27 M0.51 11.95 C4.02 7.61, 7.27 3.59, 10.3 -0.44 M-1.19 17.06 C4.29 15.85, 7.08 11.68, 15.24 1.5 M0.5 17.75 C3.43 13.25, 9.48 7.37, 16.02 0.63 M1.92 23.81 C6.72 17.82, 13.78 6.54, 19.99 -1.35 M0.7 24.5 C6.36 16, 14.01 8.17, 21.77 0.67 M-1.66 31.07 C4.91 22.18, 10.41 17.48, 24.84 1.1 M0.49 30.9 C8.95 19.18, 19.25 7.94, 25.36 0.2 M-1.32 38.48 C7.04 26.12, 17.59 15.23, 32.47 -1.76 M0.53 37.28 C11.15 24.97, 21.11 11.18, 32.61 -0.15 M-0.12 43.77 C9.09 33.31, 15.96 25.54, 35.62 0.24 M0.28 43.47 C10.09 32.9, 18.69 22.38, 37.25 0.01 M-1.42 47.7 C13.84 34.07, 25.25 15.15, 41.71 -1.38 M-0.74 48.82 C10.84 36.85, 21.82 25.64, 43.5 0.43 M-0.9 55.4 C19.33 33.8, 34.96 16.9, 46.98 -1.06 M1.01 54.52 C17.75 35.4, 33.29 15.63, 48.18 -0.02 M-0.42 61.02 C18.2 39.14, 39.63 18.62, 53.07 1.37 M-0.88 61.41 C12.22 44.41, 26.18 30.63, 53.21 0.29 M1.9 66.8 C12.32 52.97, 22.88 40.06, 57.21 1.32 M1.12 66.05 C13.83 51.86, 26.72 36.98, 57.7 -0.51 M5.82 63.74 C25.81 41.78, 47.09 20.89, 64.82 -1.89 M6.57 64.5 C23.56 44.04, 41.27 22.71, 64.52 -0.19 M13.69 65.28 C30.86 45, 50.96 22.97, 67.59 -0.45 M11.68 64.99 C32.95 40.25, 53.94 16.83, 68.37 -0.63 M19.16 63.82 C38.72 39.96, 62.75 16.11, 76.18 -1.43 M17.94 65.59 C38.29 42.7, 57.05 19.76, 74.29 -0.2 M23.76 63.87 C40.79 49.25, 54.78 29.4, 78.29 1.86 M22.7 64.37 C37.55 49.15, 51.89 32.59, 79.8 -0.05 M27.11 66.74 C42 47.17, 57.16 32.82, 83.32 -1.51 M27.26 65.14 C49.19 40, 72.62 13.22, 85.38 -0.44 M35.51 63.08 C47.53 48.7, 59.88 30.84, 88.46 0.54 M33.42 65.1 C50.67 45.95, 66.87 27.27, 90.61 1 M40.06 65.57 C53.05 46.12, 72.19 24.82, 95.33 -0.3 M39.55 64.56 C54.12 47.6, 67.74 31.34, 94.68 -1.13 M45.3 65.49 C64.83 40.02, 84.65 16.84, 100.14 -0.06 M45.12 64.58 C65.9 39.08, 89.57 13.84, 100.47 -0.22 M47.32 65.4 C61.1 51.62, 77.47 35.19, 106.25 -1.91 M48.83 64.72 C66.92 45.17, 84.35 25.44, 107.12 -0.04 M53.74 64.48 C69.39 49.38, 80.54 36.49, 110.34 0.5 M54.45 65.42 C71.99 45.83, 88.35 26.85, 112.07 1.01 M61.13 63.41 C73.59 50.21, 85.73 38.44, 114.39 0.37 M60.19 65.97 C82.65 40.31, 104.48 13.84, 117 0.29 M64.38 65.25 C75.39 51.8, 85.57 36.78, 122.36 -0.57 M64.04 66.45 C76.45 52.03, 87.78 38.26, 120.49 1.63 M68.69 64.82 C79.98 53.86, 89.81 42.17, 119.72 7.07 M69.71 66.12 C91.36 42.63, 109.9 20.8, 121.39 5.55 M75.71 65.31 C90.1 49.8, 101.9 35.97, 121.88 11.86 M74.62 65.21 C92.53 46.3, 107.31 27.71, 121.28 11.86 M80.13 66.93 C94.62 49.02, 111.15 31.32, 122.44 17.03 M80.53 64.47 C91.54 52.88, 103.3 39.44, 122.63 18.15 M87.84 67.5 C95.25 57.16, 102.18 45.09, 120.55 23.07 M85.57 64.97 C93.07 57.37, 101.77 48.1, 122.09 25.51 M92.52 67.1 C99.99 56.7, 105.69 50.55, 120.92 33.1 M90.81 65.75 C103.2 52.56, 114.43 40.01, 120.39 30.92 M97.8 64.69 C101.43 56.33, 111.42 49.09, 123.14 37.73 M96.33 65.48 C106.43 54.41, 115.26 44.29, 121.73 37.18 M101.85 66.74 C110.85 55.28, 117.19 48.73, 123.19 43.97 M101.75 64.18 C109.6 56.98, 117.01 47.98, 121.06 42.92 M107.55 63.84 C112.66 58.44, 115.87 55.91, 121.33 48.56 M108.35 64.93 C111.38 60.75, 117.2 53.89, 122.05 48.93 M111.75 63.96 C116.75 60.14, 118.27 58.44, 120.71 54.88 M113.38 65.34 C115.29 61.84, 118.68 58.19, 121.25 55.72 M117.5 65.59 C118.97 64.22, 119.81 63.15, 121.23 61.55 M117.78 65.6 C118.99 64.1, 120.16 62.81, 121.27 61.53" stroke="#fa5252" stroke-width="0.5" fill="none"></path><path d="M-0.48 -0.42 C43.48 -1.15, 87.91 -2.51, 121.84 0.83 M-0.08 0.41 C25.73 -0.53, 49.96 0.15, 120.69 0.38 M119.29 1.11 C120.99 24.43, 119.72 48.31, 121.17 63.91 M120.27 -0.89 C121.85 17.89, 122.16 37.36, 120.92 63.96 M119.43 62.92 C90.98 64.09, 56.29 65.73, -1.65 63.79 M120.49 64.28 C88.26 62.48, 56.43 63.68, 0.84 63.56 M0.23 63.99 C0.5 48.34, 0.24 32.97, -1.55 0.61 M0.07 63.54 C0.86 39.92, -0.25 14.47, -0.26 -0.43" stroke="#000000" stroke-width="1" fill="none"></path></g><g transform="translate(742.0251919482689 333.88443707465467) rotate(0 51 25)"><text x="51" y="18" font-family="Virgil, Segoe UI Emoji" font-size="20px" fill="#000000" text-anchor="middle" style="white-space: pre;" direction="ltr">Feature </text><text x="51" y="43" font-family="Virgil, Segoe UI Emoji" font-size="20px" fill="#000000" text-anchor="middle" style="white-space: pre;" direction="ltr">Engineering</text></g><g stroke-linecap="round" transform="translate(913.1671571668667 329.010084986332) rotate(0 52 32)"><path d="M0 0 C0 0, 0 0, 0 0 M0 0 C0 0, 0 0, 0 0 M-0.93 5.81 C0.88 4.63, 3.4 3.28, 5.29 -0.36 M-0.23 6.1 C1.1 5.28, 2.37 4.02, 5.09 0.04 M0.7 12.33 C3.83 8.17, 8.52 3.86, 11.03 1.17 M0.7 11.62 C4.41 7.01, 7.61 2.6, 10.05 0.01 M0.73 19.87 C3.83 15.56, 7.18 11, 15.2 2.3 M-0.79 18.4 C6.35 11.24, 11.36 5.96, 15.95 0.1 M-0.32 25.94 C6.6 14.62, 12.91 6.6, 21.69 1.84 M-0.16 23.59 C5.19 18.2, 9.79 14.24, 20.56 -0.65 M-1.29 29.01 C5.27 23.29, 12.52 15.48, 27.78 0.24 M-0.94 30.6 C7.81 20.87, 15.94 10.76, 26.14 0.72 M-2.12 36.58 C6.37 28.02, 14.63 18.73, 32.68 1.67 M0.56 37.59 C9.46 24.55, 20.47 13.36, 30.95 0.25 M1.66 42.14 C13.17 28.87, 23.26 14.29, 35.82 -1.07 M0.72 43.29 C10.59 30.89, 21.27 17.97, 37.1 0.79 M0.37 50.11 C13.61 29.71, 29.87 12.87, 41.42 -1.93 M-0.04 48.99 C14.9 33.61, 29.37 17.08, 43.13 -0.38 M2.14 53.12 C12.17 42.83, 22.33 27.47, 48.62 -0.98 M0.62 54.95 C15.3 35.72, 33.23 16.74, 48.11 0.2 M-0.97 60.7 C12.59 49.37, 22.36 36.83, 52.15 0.2 M-0.95 60.06 C19.97 38.66, 39.99 15.89, 52.16 -0.2 M0.97 66.35 C20.5 42.57, 41.47 18.88, 56.39 -0.8 M1.5 66.05 C23.49 40.61, 43.11 16.17, 58.52 -0.74 M5.88 64.23 C27.53 43.74, 46.83 19.63, 64.07 1.31 M6.12 65.19 C28.23 39.43, 52.04 14.82, 64.14 0.6 M12.45 66.77 C29.91 47.2, 44.22 25.87, 70.3 0.23 M11.72 64.98 C31.68 43.29, 51.95 18.79, 69.69 0.78 M16.71 65.25 C29.94 53.6, 42.91 36.61, 75.3 -1.33 M18.28 65.83 C39.26 39.77, 61.38 14.1, 74.2 -0.69 M24.78 66.97 C36.1 50.22, 48.21 36.5, 78.44 0.96 M23.59 65.21 C37.78 49.4, 51.33 33.27, 79.02 0.02 M26.94 63.85 C38.86 53.16, 49.47 37.36, 86.91 1.66 M27.35 65.39 C41.38 50.12, 53.96 36.38, 84.5 0.67 M34.28 65.07 C53.23 39.45, 73.59 17.46, 89.84 -1.75 M33.67 65.11 C53.37 42.47, 73.9 20.3, 89.94 0.72 M36.84 65.68 C60.22 38.88, 80.47 16.17, 94.91 -0.32 M39.15 65.25 C58.67 41.94, 79.94 15.56, 96.24 -1.09 M44.2 63.23 C61.03 42.94, 78.36 24.45, 102.49 -0.94 M43.5 64.53 C61.92 44.88, 78.3 24.83, 99.9 -0.92 M47.63 66.42 C69 44.93, 84.2 24.14, 104.92 -0.27 M49.52 65.22 C72.54 39.67, 94.86 14.68, 104.33 1.23 M56.07 64.45 C66.62 52.71, 78.66 37.41, 105.37 7.2 M55.04 65.54 C70.06 48.07, 86.61 30.27, 104.5 6.57 M61.49 63.86 C74.17 51.5, 83.27 36.2, 106.95 12.41 M60.3 65.61 C72.54 49.67, 85.73 35.75, 104.15 13.83 M64.33 65.5 C78.72 45.83, 97.2 28.58, 102.99 20.98 M65.24 65.41 C77.01 51.23, 87.92 39.19, 103.91 19.57 M69.49 65.8 C78.94 55.03, 88.37 43.62, 107 24.76 M71.41 65.18 C79.24 55.72, 88.09 43.9, 105.19 24.79 M76.4 65.49 C84.91 55.45, 96.33 41.24, 106.05 30.76 M76.09 65.15 C85.05 53.69, 95.87 41.54, 105.58 30.91 M79.69 66.14 C91.07 54.3, 100.53 42.18, 104.81 38.45 M80.77 65.17 C86.56 58.98, 91.9 53.87, 104.74 38.19 M87.28 66.86 C91.92 57.02, 97.43 49.27, 103.61 44.48 M85.29 66.47 C91.66 60.13, 97.78 53.72, 104.45 43.42 M93.04 64.84 C96.84 60.68, 101.38 55.38, 106.44 51.97 M92.34 65.29 C95.89 61.65, 97.73 57.08, 104.52 50.35 M95.54 64.58 C100.67 61.42, 103.63 59.25, 105.95 55.52 M97.28 64.91 C99.99 61.87, 102.13 59.64, 105.83 55.67 M102.59 64.89 C103.36 64.15, 104.67 63.04, 105.36 62.02 M102.32 65.25 C103.37 64, 104.39 62.73, 105.04 62.26" stroke="#e64980" stroke-width="0.5" fill="none"></path><path d="M-1.09 -0.46 C35.87 -1.61, 75.03 1.05, 102.19 -1.07 M0.35 -0.86 C27.54 -0.61, 56.37 -0.05, 104.75 0.79 M103.49 0.43 C101.67 19.33, 103.63 37.99, 103.79 65.17 M104.47 -0.63 C104.32 20.69, 103.46 40.71, 103.62 63.07 M105.72 63.36 C65.36 64.45, 27.54 63.23, -0.64 62.97 M103.66 63.13 C78.65 64.62, 53.67 63.85, -0.54 63.95 M0.47 64.08 C0.14 49.41, -1.62 34.55, 1.65 0.07 M0.89 64.42 C-0.27 44.53, -0.31 25.72, 0.42 -0.21" stroke="#000000" stroke-width="1" fill="none"></path></g><g transform="translate(927.1671571668667 334.510084986332) rotate(0 38 25)"><text x="38" y="18" font-family="Virgil, Segoe UI Emoji" font-size="20px" fill="#000000" text-anchor="middle" style="white-space: pre;" direction="ltr">Model </text><text x="38" y="43" font-family="Virgil, Segoe UI Emoji" font-size="20px" fill="#000000" text-anchor="middle" style="white-space: pre;" direction="ltr">Training</text></g><g stroke-linecap="round" transform="translate(1099.1589690440533 330.9376088268209) rotate(0 58.5 32)"><path d="M0 0 C0 0, 0 0, 0 0 M0 0 C0 0, 0 0, 0 0 M-0.68 6.41 C2.23 4.71, 3.84 1.41, 4.34 -0.03 M-0.07 6.55 C1.12 5.4, 2 3.64, 5.19 0.19 M0.1 12.42 C4.45 8.45, 7.24 5.47, 11.82 0.73 M0.54 11.52 C2.75 8.2, 5.53 5.17, 10.16 -0.46 M-0.06 19.81 C3.06 15.31, 6.66 11.93, 16.73 1.59 M0.86 17.58 C4.04 14.55, 7.62 9.83, 15.98 1.15 M-0.26 22.71 C5.08 15.7, 12.79 11.96, 19.6 0.8 M0.73 23.54 C8.05 16.67, 14.01 7.09, 20.87 -0.9 M-1.82 31.23 C7.44 21.53, 19.04 10.71, 26.71 1.25 M-0.52 30.73 C8.39 20.02, 18.15 10.21, 25.44 -0.24 M-0.88 36.4 C12.88 21.22, 25.32 10.59, 32.2 1.48 M-0.4 36.35 C11.1 24.03, 20.36 11.86, 32.2 -0.23 M0.95 43.09 C11.87 27.26, 25.38 10.64, 36.55 0.55 M0.24 43.22 C14.79 25.28, 29.16 9.36, 37.45 -0.39 M-1.95 46.98 C9.14 35.7, 19.04 23.42, 43.13 -1.36 M0.5 49.79 C13.19 35.23, 25.18 20.2, 41.88 -0.72 M0.71 55.84 C15.38 35.04, 33.18 16.53, 48.43 1.7 M-0.64 54.5 C14.74 38.05, 28.66 22.18, 46.61 0.01 M1.31 62.21 C16.32 44.05, 31.5 24.37, 54.56 -1.96 M-0.26 61.55 C18.98 40.82, 36.26 19.24, 53.76 -0.08 M0.19 66.48 C22.76 40.88, 43.67 13.75, 59.48 -1 M2.38 64.99 C23.76 38.15, 46.92 12.22, 58.54 -0.26 M7.84 65.56 C20.25 50.04, 31.75 39.14, 65.58 -0.48 M5.89 64.49 C19.53 52.15, 30.85 39.48, 63.75 0.47 M13.61 66.53 C28.69 43.78, 48.95 24.27, 69.78 -1.18 M11.46 66.02 C28.92 45.26, 46.82 27.61, 67.91 1.07 M18.34 67.18 C31.86 49.84, 43.52 35.51, 76.22 0.97 M17.38 65.5 C34.71 44.39, 52.72 23.07, 73.77 0.15 M23.06 65.19 C34.96 50.48, 48.79 33.85, 78.32 -0.44 M23.71 65.01 C36.21 49.52, 48.67 34.37, 78.41 -0.31 M27.11 66.75 C47.58 40.43, 72.18 19.44, 83.46 -1.68 M28.32 64.47 C44.43 47.12, 59.28 30.13, 85.78 0.68 M32.76 63.17 C43.36 52.14, 56.3 36.56, 91.05 -0.29 M33.46 65.31 C51.7 45.65, 68.58 25.17, 90.77 0.82 M39.35 63.51 C56.58 44.85, 73.91 24.41, 97.2 1.59 M37.82 66.2 C49.83 50.1, 63.99 35.64, 95.77 0.22 M43.88 63.22 C62.16 44.13, 82.94 22.05, 100.83 1.82 M45.08 64.7 C59.33 47.9, 73.57 30.17, 100.74 -0.9 M51.19 64.75 C67.06 43.46, 84.41 23.61, 108.29 -1.13 M50.01 64.97 C63.57 49.89, 75.81 33.87, 105.77 -0.58 M53.86 66.93 C66.37 50.73, 81.01 34.87, 111.49 0.49 M54.32 66.2 C70.12 48.72, 84.12 29.46, 111.12 0.65 M61.69 65.82 C69.07 52.29, 84.43 38.11, 115.87 1.04 M60.05 64.54 C81.1 41.06, 100.22 17.84, 117.17 0.14 M63.04 63.67 C81.56 46.6, 94.05 31.5, 119.82 0.65 M64.91 65.06 C84.78 42.54, 105.57 17.49, 119.75 1.35 M68.85 66.16 C82.54 50.03, 99.92 33.09, 118.74 7.09 M70.14 66.13 C88.77 42.5, 108.06 20.91, 120.15 8.76 M74.74 67.15 C88.45 50.07, 101.76 35.45, 120.93 12.58 M74.65 65.21 C86.65 51.54, 98.95 38.38, 120.92 13.8 M81.62 65.23 C97.02 46.46, 110.73 31.83, 117.85 19.51 M81.5 64.43 C90.84 54.92, 98.08 46.05, 120.1 21.55 M85.86 64.38 C98.16 48.35, 110.89 35.64, 119.34 26.02 M86.04 66.34 C95.01 56.72, 101.81 46.52, 120.39 27.47 M91.88 66.58 C102.36 54.26, 115.45 41.4, 119.07 30.86 M92.4 65.59 C100.75 53.26, 111.34 42.25, 120.47 33.26 M98.26 64.44 C104.37 59.77, 109.88 51.77, 119.92 38.32 M97.6 64.59 C103.33 58.31, 110.89 50.14, 120.38 38.86 M102.43 65.82 C110.78 58.22, 117.53 49.24, 121.95 43.53 M102.1 65.24 C105.71 60.54, 109.87 57.41, 119.41 44.86 M106.75 66.42 C109.57 62.18, 113.1 58.55, 120.48 53.05 M107.85 64.62 C110.72 61.98, 114.34 59.27, 120.16 50.24 M112.02 65.86 C113.73 63.25, 116.1 61.85, 118.92 58.13 M112.97 64.79 C115.06 62.9, 117.2 60.36, 120.03 57.07" stroke="#be4bdb" stroke-width="0.5" fill="none"></path><path d="M-1.22 -1.83 C33.46 1.1, 63.44 -0.8, 116.45 -0.17 M-0.8 -0.18 C39.59 1.39, 80.55 1.8, 116.97 -0.85 M115.22 0.29 C117.01 22.66, 116.62 46.67, 117.37 62.55 M117.78 0.32 C117.22 13.44, 116.92 26.03, 117.6 63.22 M115.77 65.01 C86.55 63.42, 58.75 62.59, -1.08 62.97 M117.24 64.33 C79.51 62.54, 39.79 62.93, -0.65 64.12 M0.21 64.44 C-1.7 45.45, 1.51 25.75, -0.09 0.13 M-0.22 63.46 C-0.83 47.34, -0.15 31.34, -0.92 -0.66" stroke="#000000" stroke-width="1" fill="none"></path></g><g transform="translate(1105.6589690440533 335.9376088268209) rotate(0 52 25)"><text x="52" y="18" font-family="Virgil, Segoe UI Emoji" font-size="20px" fill="#000000" text-anchor="middle" style="white-space: pre;" direction="ltr">Model </text><text x="52" y="43" font-family="Virgil, Segoe UI Emoji" font-size="20px" fill="#000000" text-anchor="middle" style="white-space: pre;" direction="ltr">Evaluation</text></g><g stroke-linecap="round" transform="translate(1100.2603501667445 453.8353726978912) rotate(0 59 32)"><path d="M0 0 C0 0, 0 0, 0 0 M0 0 C0 0, 0 0, 0 0 M0.3 6.83 C1.26 4.31, 1.49 3.28, 4.23 0.42 M0.04 6.6 C0.99 4.7, 2.27 3.49, 5.07 0.5 M1.12 12.35 C3.88 9.38, 8 5.1, 10.45 1.09 M-0.2 11.63 C2.08 9.17, 4.79 5.71, 10.08 0.31 M-0.5 19.61 C5.3 13.58, 12.68 6.14, 14.25 -0.99 M0.28 18.74 C4.69 12.99, 9.39 8.66, 15.48 0.03 M-1.01 22.81 C9.02 16.64, 15.18 6.12, 22.09 -0.92 M0.77 24.82 C4.72 17.54, 10.31 11.23, 21.56 -0.72 M-1.4 31.29 C7.76 23.49, 12.63 17.66, 27.09 -1.6 M-0.88 30.38 C8.26 21.4, 15.76 11.02, 27.05 -0.64 M0.32 35.22 C9.81 28.19, 18.49 17.46, 32.69 1.53 M0.47 36.83 C10.78 23.69, 23.95 9.49, 32.51 0.66 M-1.12 42.5 C9.24 29.21, 20.29 18.94, 38.78 1.42 M0.51 42.27 C14.15 26.89, 28.34 9.79, 36.27 0.51 M-0.93 47.68 C14.56 29.89, 31.62 12.81, 42.32 0.02 M0.86 49.49 C13.3 33.22, 25.16 17.78, 42.94 0.8 M-0.26 53.28 C12.03 40.66, 22.61 30.96, 47.43 0.91 M0.94 54.32 C17.37 36.16, 31.87 17.56, 47.54 -0.27 M-0.07 62.5 C13.86 43.46, 31.52 23.76, 54.05 -2.08 M0.07 61.43 C10.35 47.78, 23.11 35.05, 54 -0.55 M0.79 66.23 C20.95 40.15, 44.53 16.39, 60.06 -0.25 M1.28 64.39 C24.01 38.52, 46.37 13.3, 57.28 -0.22 M7.74 63.77 C20.26 51.24, 35.41 33.76, 61.88 -1.37 M7.45 65.47 C23.22 48.83, 38.46 30.72, 63.89 -0.16 M11.17 64.46 C35.22 39.71, 56.44 13.28, 68.64 -1.1 M11.95 64.28 C30.35 46.17, 45.05 27.48, 67.97 -0.16 M19.1 64.23 C34.54 44.68, 52.1 27.83, 74.76 1.64 M17.22 65.46 C36.56 42.52, 55.6 20.97, 73.83 0.66 M21.87 66.76 C44.41 40.03, 66.7 12.85, 78.09 1.35 M23.38 64.85 C40.1 44.26, 57.45 23.26, 80.08 -0.39 M26.24 64.15 C42.87 52.26, 52.16 34.25, 84.55 -1.5 M28.3 65.22 C44.37 47.08, 62.84 27.32, 84.09 0.06 M32.03 65.44 C50.84 43.94, 69.19 25.69, 90.25 0.2 M34.19 65.91 C51.22 45.19, 69.65 25.04, 90.14 -0.79 M38.25 65.36 C55.65 45.09, 75.99 26.23, 94.09 0.81 M37.6 64.53 C56.22 45.05, 72.3 27.32, 95.94 -0.33 M43.72 64.85 C58.24 50.58, 68.65 39.47, 99.9 -1.42 M44.05 64.69 C57.47 47.41, 72.84 30.71, 100.7 -0.75 M49.17 63.75 C68.8 40.7, 91.15 18.01, 105.11 0.24 M50.04 65.62 C64.64 46.49, 81.35 27.12, 105.7 0.58 M53.27 66.16 C67.92 50.05, 81.76 34.47, 110.78 1.68 M54.99 66.67 C69.61 46.32, 86.67 28.4, 110.35 0.83 M57.97 65.27 C74 49.48, 84.68 36.08, 117.65 1.27 M60.58 65.19 C77.54 44.72, 98.18 22.26, 116.08 0.12 M65.94 64.34 C79.68 49, 97.55 27.47, 121.56 3.04 M64.06 66.53 C79.11 48.38, 95.12 29.96, 119.74 1.75 M68.55 65.94 C89.04 45.73, 102.69 25.86, 122.1 9.74 M70.21 64.42 C85.24 47.51, 100.41 31.26, 120.2 8.35 M75.95 64.69 C89.85 49.27, 102.77 33.34, 119.29 15.52 M75.36 64.69 C87.82 52, 99.41 39.2, 120.94 13.57 M81.76 63.82 C94.07 50.68, 106.32 32.64, 118.99 19.25 M81.96 64.94 C91.94 53.02, 104.53 39.58, 121.44 20.52 M85.13 63.83 C97.06 52.28, 110.78 36.13, 119.02 24.71 M86.66 66.27 C98.76 49.73, 113.58 35.07, 121.18 26.97 M91.39 67.06 C101.28 57.68, 106.81 44.75, 121.09 33.92 M90.87 64.88 C99.96 55.24, 109.59 45.41, 119.53 31.81 M98.21 66.41 C102.94 59.2, 107.45 52.56, 120.23 40.05 M96.8 65.86 C102.19 60.14, 106.82 54.41, 121.15 38.91 M104.16 65.85 C108.38 59.71, 112.63 54.17, 118.17 44.25 M102.04 64.8 C108.94 58.56, 114.35 50.73, 119.26 45.15 M106.9 65.17 C110.55 61.41, 113.57 61.13, 119.33 49.05 M107.61 65.53 C112.91 61.01, 117.11 53.75, 119.6 50.8 M112.31 64.76 C115.01 63.15, 115.46 62.14, 120.62 55.82 M112.76 65.47 C114.82 63.06, 117.77 59.73, 120.36 57.03" stroke="#7950f2" stroke-width="0.5" fill="none"></path><path d="M0.84 0.83 C30.86 0.01, 64.78 0.91, 118.82 0.7 M-0.31 0.38 C25.95 1, 50.38 -0.64, 118.55 -0.26 M118.17 -0.09 C117.22 21.74, 117.8 39.68, 116.21 64.94 M117.92 -0.04 C118.12 14.25, 119.1 29.59, 117.46 64.86 M116.35 63.79 C85.71 63.56, 53.63 63.57, 0.55 63.33 M118.84 63.56 C92.35 64.34, 67.12 64.5, -0.01 64.23 M-1.55 64.61 C1.59 44.63, -0.15 25.24, -0.93 1.77 M-0.26 63.57 C0.56 41.92, -0.77 19.6, -0.49 -0.31" stroke="#000000" stroke-width="1" fill="none"></path></g><g transform="translate(1105.7603501667445 458.8353726978912) rotate(0 53.5 25)"><text x="53.5" y="18" font-family="Virgil, Segoe UI Emoji" font-size="20px" fill="#000000" text-anchor="middle" style="white-space: pre;" direction="ltr">Model </text><text x="53.5" y="43" font-family="Virgil, Segoe UI Emoji" font-size="20px" fill="#000000" text-anchor="middle" style="white-space: pre;" direction="ltr">Deployment</text></g><g stroke-linecap="round" transform="translate(909.8992518785481 451.9078488574014) rotate(0 59 32)"><path d="M0 0 C0 0, 0 0, 0 0 M0 0 C0 0, 0 0, 0 0 M0.04 5.67 C0.63 4.15, 2.11 2.78, 4.39 0.74 M-0.16 6.08 C1.67 4.16, 3.33 2.43, 5.06 0.35 M0.54 13.24 C4.65 8.87, 6.67 5.33, 9.78 0.77 M-0.45 12.09 C2.17 8.83, 4.56 6.77, 11.2 -0.01 M-0.54 20.42 C6.83 12.93, 10.15 3.68, 15.54 2.3 M0.2 18.22 C3.53 15.34, 6.41 10.34, 16.55 0.06 M0.7 25.99 C3.62 19.5, 10.97 12.18, 20.29 0.86 M-0.44 23.5 C4.9 17.17, 10.75 11.43, 20.53 -0.98 M1.54 30.43 C9.54 21.14, 18.79 8.09, 26.5 -0.76 M-0.1 30.9 C8 20.15, 18.14 9.93, 26.1 -0.02 M0.54 38.65 C8.82 28.52, 18.18 18.36, 33.31 -0.39 M-1.19 37.23 C7.73 27.62, 15.99 19.37, 31.7 0.3 M-0.92 41.19 C12.15 28.92, 26.46 15.91, 38.41 0.46 M0.36 43.06 C14.15 26.32, 26.57 11.57, 37.47 -0.66 M-1.23 47.12 C9.36 37.98, 17.22 29.39, 42.67 1.1 M0.49 48.68 C15.26 29.1, 32.83 11.63, 41.8 0.08 M1.38 53.35 C18.53 36.56, 34.73 15.99, 48.28 -1.61 M0.88 54.54 C12.9 38.48, 27.72 22.22, 47.38 0.87 M-0.99 61.33 C20.71 36.61, 39.46 14.32, 51.35 -0.71 M-0.98 60.93 C19.66 38.86, 38.97 16.45, 53.78 -0.93 M-0.03 64.1 C24.2 39.61, 45.61 16.39, 60.06 1.52 M2.1 64.16 C18.74 46.25, 33.83 27.48, 57.53 0.76 M6.99 66.97 C25.6 45.6, 39.35 24.64, 63.26 -1.82 M7.06 66.26 C17.8 52.75, 29.56 38.77, 64.63 0.42 M13.88 65.14 C34.82 39.65, 54.75 15.49, 68.61 -1.62 M13.27 65.68 C34.08 40.72, 56.48 13.8, 68.68 0.65 M18.22 64.33 C40.71 41.48, 61.4 16.68, 75.23 -0.16 M17.12 64.97 C34.38 45.53, 52.06 25.78, 75.38 -0.2 M22.02 65.86 C39.65 43.96, 56.82 25.75, 79.77 1.58 M22.6 64.92 C38.59 45.29, 57.13 25.8, 78.63 -0.31 M29.84 67.32 C47.97 40.14, 70.09 16.14, 85.06 0.43 M27.42 66.33 C40.38 52.74, 50.59 38.43, 85.08 -0.7 M33.42 63.15 C46.92 50.94, 57.9 37.87, 90.27 -0.21 M33.52 65.62 C52.69 43.67, 70.77 20.53, 90.19 0.46 M37.84 65.34 C52.1 53.59, 60.86 39.15, 95.47 -1.86 M39.16 64.57 C61.31 41.08, 83.44 15.27, 94.81 -0.49 M46.06 63.97 C56.6 52.92, 67.7 35.85, 99.81 1.74 M43.48 63.98 C59.91 46.36, 75.34 28.72, 101.21 1.03 M49.16 63.88 C66.74 47.14, 79.06 30.67, 106.11 1.22 M48.56 65.38 C63.32 47.46, 78.41 31.19, 105.69 -0.52 M54.2 66.07 C75.42 42.21, 95.39 19.6, 111.02 0.23 M53.33 65.43 C73.67 42.58, 93.04 19.58, 110.58 0.93 M61.68 64.49 C78.52 44.71, 98.77 23.7, 116.93 0.77 M58.89 65.91 C73.04 50.41, 84.72 35.71, 116.2 -0.53 M62.97 67.02 C75.46 51.64, 88.3 41.26, 119.49 2.37 M63.89 65.61 C78.44 48.94, 91.74 34.03, 120.23 1.43 M72.23 64.76 C87.32 43.7, 107.26 27.28, 120.21 7.2 M70.41 64.79 C90.47 43.49, 109.25 21.54, 120.29 7.52 M76.53 64.72 C93.02 44.75, 108.2 28.33, 119.17 12.64 M76.06 64.87 C87.99 52.16, 99.63 38.57, 120.55 14.54 M80.54 66.38 C90.84 50.69, 103.17 37.55, 120.4 20.71 M80.47 66.11 C89.74 56.15, 99.14 45.83, 121.12 19.81 M84.59 66.37 C94.28 55.37, 101.51 45.37, 122.02 26.2 M85.43 65.31 C99.57 50.92, 112.57 36.38, 120.05 26.39 M93.31 67.06 C101.37 51.03, 113.83 42.08, 120.17 34.03 M91.4 65.45 C102.16 54.72, 110.85 42.2, 119.22 33.49 M97.8 65.22 C102.55 57.96, 108 53.78, 118.43 40.1 M97.61 65.46 C102.25 59.61, 107.23 54.83, 119.72 38.39 M104.18 64.61 C109.97 57.03, 112.11 50.95, 121.2 44.22 M102.58 65.83 C107.25 58.99, 112.58 52.97, 119.17 44.44 M107.77 64.61 C112.66 62.25, 115.39 53.65, 121.71 51.44 M108.25 66.34 C110.39 61.4, 111.88 59.64, 119.62 49.42 M113.38 64.98 C115.06 62.64, 118.88 57.91, 120.16 56.74 M112.69 65.46 C115.26 62.55, 116.6 61.36, 119.89 57.07" stroke="#4c6ef5" stroke-width="0.5" fill="none"></path><path d="M-1.81 -1.07 C24.06 -0.66, 50.04 0.21, 116.27 -1.59 M0.75 0.79 C33.25 -1.3, 67.1 -0.7, 118.21 -0.89 M117.79 1.17 C118.42 18.68, 116.27 41.21, 116.75 65.57 M117.62 -0.93 C118.55 20.45, 117.41 43.32, 117.68 63.38 M117.36 62.97 C75.58 62.85, 35.86 63.2, -1.74 64.47 M117.46 63.95 C78.07 63.6, 39.45 63.72, 0.04 64.11 M1.65 64.07 C0.41 43.54, -0.43 24.58, 0.83 -0.45 M0.42 63.79 C-0.75 47.62, -0.32 32.25, 0.96 0.63" stroke="#000000" stroke-width="1" fill="none"></path></g><g transform="translate(935.3992518785481 456.9078488574014) rotate(0 33.5 25)"><text x="33.5" y="18" font-family="Virgil, Segoe UI Emoji" font-size="20px" fill="#000000" text-anchor="middle" style="white-space: pre;" direction="ltr">Model </text><text x="33.5" y="43" font-family="Virgil, Segoe UI Emoji" font-size="20px" fill="#000000" text-anchor="middle" style="white-space: pre;" direction="ltr">Serving</text></g><g stroke-linecap="round" transform="translate(736.4221062345123 452.8716107776463) rotate(0 59 32)"><path d="M0 0 C0 0, 0 0, 0 0 M0 0 C0 0, 0 0, 0 0 M-0.91 6.01 C0.82 4.37, 2.83 2.55, 5.29 0.97 M-0.06 6.23 C1.65 4.46, 3.49 2.18, 5.08 0.61 M1.33 12.8 C3.27 9.24, 5.95 5.06, 9.59 -0.7 M-0.34 11.61 C2.28 9.37, 6.02 6.05, 11.18 -0.18 M0.99 19.7 C4.19 10.47, 11.13 7.27, 13.9 1.13 M0.23 19.26 C4.88 12.19, 11.15 6.24, 14.93 -0.31 M-1.39 24.96 C6.01 17.32, 9.16 13.41, 20.17 0.94 M-0.13 23.25 C8.58 14.53, 15.39 5.24, 21.64 -0.77 M0.47 31.44 C9.56 18.31, 17.9 8.86, 26.75 -1.47 M-0.8 29.95 C8.46 20.67, 15.13 12.52, 26.01 0.58 M0.06 38.46 C7.38 30.19, 14.98 20.24, 30.83 1.34 M0.05 36.75 C10.21 26.6, 18.9 15.32, 32.18 -0.73 M-0.19 42.81 C13.26 31.29, 23.87 17.69, 38.28 1 M0.71 41.87 C9.55 30.94, 20.87 18.14, 35.91 -0.15 M0.49 47.69 C10.09 37.79, 20.59 27.2, 44.26 1.83 M-0.77 48.33 C15.21 32.45, 29.28 14.24, 43.16 -0.4 M1.19 56.04 C11.04 42.71, 23.04 27.37, 47.39 1.57 M-0.63 54.35 C13 39.09, 25.88 25.24, 48.13 0.18 M1.42 59.18 C21.24 35.91, 38.58 14.24, 54.33 -0.06 M0.62 61.05 C19.89 39.4, 38.1 17.82, 53.84 -0.63 M3.06 63.91 C24.34 41.78, 44.47 20.38, 57.93 -0.69 M2.11 64.65 C13.58 50.28, 26.8 36.34, 58.19 0.71 M8.5 65.18 C17.04 49.67, 30.75 35.03, 61.85 1.28 M6.67 66.13 C23.79 45.25, 41.74 26.03, 64.52 -0.8 M13.36 63.72 C26.95 46.25, 42.16 28.21, 70.69 -0.64 M11.48 65.97 C23.46 50, 36.69 36.42, 69.65 1.04 M19.14 66.63 C31.11 51.82, 45.31 34.24, 74.58 -0.48 M16.69 65.81 C34.25 46.62, 53.15 25.8, 74.49 -0.79 M21.9 64.47 C43.82 40.9, 67.33 16.01, 79.38 0.92 M21.99 64.6 C39.86 46.2, 54.38 27.92, 80.08 -0.74 M26.38 63.98 C40.46 47.97, 54.56 34.26, 83.21 0.4 M28.7 66.34 C43.58 46.53, 60.78 27.12, 84.13 -1.06 M34.62 64.62 C52.09 44.68, 70.32 23.33, 90.66 1.25 M34.35 65.72 C55.87 38.33, 78.02 14.17, 89.11 -0.09 M40.12 67.25 C54.41 46.74, 72.95 24.33, 97.37 -2.3 M38.69 65.88 C50.95 51.44, 62.28 36.94, 94.8 -0.57 M44.41 66.73 C59.52 44.63, 76.05 28.67, 100.14 -0.33 M44.32 64 C60.18 46.98, 76.1 31.03, 100.37 0.02 M51.22 64.53 C60.71 51.74, 74.38 38.16, 105.61 1.29 M48.69 65.08 C67.92 44.51, 86.77 21.7, 106.93 -0.82 M54.42 66.15 C72.2 45.95, 90.94 23.22, 112.35 1.58 M54.04 66.31 C76.64 40.41, 99.66 14.29, 111.56 -0.93 M59.45 65.94 C77.55 46.95, 93.74 27, 114.8 1.83 M60.75 65.05 C76.71 45.78, 93.25 26.25, 115.29 0.92 M64.71 64.04 C79.99 51.16, 90.86 35.61, 118.78 0.69 M64.64 64.74 C86.67 40.5, 108.61 15.51, 120.41 1.28 M69.54 63.69 C88.43 48.03, 103.23 26.29, 122.12 7.35 M70.94 65.37 C81.21 53.48, 92.13 40.19, 121.12 8.13 M76.32 63.9 C85.75 53.99, 96.97 38.06, 119.29 14.06 M76.31 65.12 C85.32 54.53, 94.22 44.81, 120.09 14.61 M79.14 64.04 C88.83 53.86, 99.31 44.89, 118.91 21.62 M81.4 66.08 C93.13 53.07, 103.56 39.99, 119.88 19.44 M85.88 64.51 C92.46 55.47, 102.71 48.62, 121.76 27.45 M86.93 65.96 C99.93 51.81, 111.41 36.72, 120.92 26.15 M90.86 63.32 C103.75 53.32, 113.95 40.63, 120.78 30.98 M92.26 65.71 C99.06 55.41, 106.37 48.33, 119.41 33.46 M96.96 64.73 C104.58 57.92, 110.89 48.64, 118.46 38.5 M97.41 65.28 C105.14 57.07, 111.57 47.52, 120.69 39.26 M104.23 63.9 C106.22 57.83, 115.19 50.97, 120.28 44.09 M101.7 65.24 C106.22 59.99, 110.84 53.86, 120.57 44.53 M108.05 67.49 C109.9 59.93, 115.99 58.04, 118.63 50.92 M107.71 64.54 C110.32 61.21, 114.32 55.26, 121.24 49.77 M112.3 65.74 C115.31 61.91, 116.78 60.6, 119.53 56.33 M113.51 64.56 C115.83 62.25, 118 59.26, 119.72 56.76" stroke="#40c057" stroke-width="0.5" fill="none"></path><path d="M-0.55 -0.17 C41.13 1.33, 78.88 -0.96, 117.64 -0.61 M-0.03 -0.85 C40.41 -1.19, 79.93 -1.82, 118.15 0.09 M118.37 -1.45 C116.15 19.85, 116.68 39.38, 118.63 63.84 M118.6 -0.78 C117.22 19.8, 117.44 37.26, 118.5 63.18 M116.92 62.97 C84.39 62.72, 47.93 63.86, 0.66 65.69 M117.35 64.12 C87.76 64.18, 57.57 64.05, 0.22 63.23 M-0.09 64.13 C-1.46 44.63, 0.3 21.27, -1.09 -0.53 M-0.92 63.34 C-0.76 47.26, 0.69 31.76, -0.9 0.31" stroke="#000000" stroke-width="1" fill="none"></path></g><g transform="translate(747.4221062345123 457.8716107776463) rotate(0 48 25)"><text x="48" y="18" font-family="Virgil, Segoe UI Emoji" font-size="20px" fill="#000000" text-anchor="middle" style="white-space: pre;" direction="ltr">Model </text><text x="48" y="43" font-family="Virgil, Segoe UI Emoji" font-size="20px" fill="#000000" text-anchor="middle" style="white-space: pre;" direction="ltr">Monitoring</text></g><g stroke-linecap="round" transform="translate(530.7867484986618 451.3551526667088) rotate(0 66 32)"><path d="M0 0 C0 0, 0 0, 0 0 M0 0 C0 0, 0 0, 0 0 M-1.02 6.45 C0.29 5.54, 2.29 4.5, 5.4 0.56 M-0.18 6.54 C0.94 5.08, 2.12 4, 5.06 0.46 M-0.05 13.17 C3.13 8.27, 6.87 2.27, 9.81 -1.2 M-0.42 12.38 C3.99 8.43, 7.18 4.56, 11.1 -0.2 M-1.5 17.12 C5.98 13.09, 10.62 4.7, 16.23 0.99 M-0.27 18.14 C5.11 13.01, 7.87 7.61, 14.98 0.54 M1.1 23.23 C7.79 15.38, 15.97 5.91, 22.73 -1.48 M0.56 23.44 C4.7 17.51, 10.88 11.89, 21.67 0.7 M0.85 28.59 C7.99 20.32, 16.05 10.63, 26.06 0.09 M0.81 29.55 C9.08 19.97, 17.98 10.23, 25.42 0.69 M0.54 38.51 C13.59 21.97, 23.61 9.33, 31.8 -1.98 M0.37 37.64 C10.23 24.92, 21.49 11.47, 31.88 -0.63 M2.05 43.69 C10.32 32.8, 18.78 23.46, 36.38 0.7 M-0.47 42.77 C13.49 26.9, 24.91 12.46, 36.26 -0.3 M-0.32 49.08 C8.84 40.11, 19.39 30.52, 43.66 1.08 M0.3 49.85 C11.24 35.85, 24.37 21.82, 41.88 0.42 M0.19 55.25 C12.12 39.36, 22.55 29.51, 47.03 1.43 M0.3 54.07 C14.69 39.14, 29.5 22.28, 48.28 -0.28 M0.91 59.05 C14.72 41.41, 34.63 22.58, 54.09 -2.15 M0.86 60.58 C16.07 41.97, 31.93 24.09, 53.72 -1.04 M3.64 64.66 C17.33 50.5, 29.33 32.04, 56.74 0.96 M0.86 64.68 C12.54 52.46, 24.9 38.96, 57.3 0.33 M4.8 64.29 C27.03 39.25, 47.07 17.69, 63.81 0.51 M6.81 65.5 C29.32 40.69, 50.94 14.46, 63.48 0.56 M12.22 63.8 C29.02 43.92, 48.25 25.17, 67.2 2.01 M11.55 64.75 C33.27 41.52, 54.68 18.38, 68.17 0.6 M17.68 67.3 C31.59 49.03, 44.96 32.57, 74.49 -0.67 M16.76 66.32 C33.28 48.49, 46.95 31.16, 75.28 -0.72 M21.67 66.26 C42.98 44.45, 61.88 21.6, 79.06 -0.63 M23.66 64.51 C39.21 46.02, 57.01 26.78, 78.78 1.06 M27.48 64.16 C51.15 40.45, 71.94 14.37, 84.72 -1.36 M27.01 65.72 C50.05 38.5, 71.63 12.21, 85.27 -0.37 M33.83 65.11 C45.26 51.28, 57.4 39.23, 91.86 -0.09 M33.72 64.11 C53.78 41.39, 73.18 17.27, 90.03 -0.29 M37.01 66.47 C54.99 43.58, 73.99 23.48, 94.04 0.83 M38.86 65.33 C50.35 50.28, 63.03 35.6, 95.62 0.6 M43.48 63.48 C57.47 49.88, 71.93 31.56, 100.12 -1.46 M44.28 64.16 C56.17 53.32, 66.77 39.16, 99.88 0.02 M48.03 65.9 C61.42 52.11, 73.96 37.18, 106.91 -1.66 M48.63 66.24 C66.44 45.16, 85.17 24.75, 106.54 -0.35 M53.7 67.34 C72.11 44.77, 91.68 25.15, 113.27 -1.75 M53.27 66.49 C69.35 48.12, 86.08 28.15, 111.28 0.93 M61.23 66.18 C75.34 48.59, 87.9 32.74, 116.1 -1.56 M59.66 65.03 C79.67 40.96, 99.23 18.87, 115.62 -0.56 M66.45 66.43 C85.48 42, 105.84 16.09, 123.7 -1.93 M64.63 65.14 C82.19 45.85, 99.31 26.2, 122.26 0.85 M72.24 67.1 C86.23 47.09, 103.7 29.33, 125.25 0.2 M70.34 65.71 C84.47 48.31, 99.65 32.41, 126.45 0.87 M74.67 66.84 C88.87 47.66, 103.59 32.29, 130.71 1.12 M76.33 64.89 C88.33 51.25, 100.82 36.43, 131.85 -0.34 M79.62 64.53 C99.95 45.2, 116.8 25.02, 131.75 5.05 M82.08 65.8 C101.56 41.67, 120.29 18.33, 131.41 5.59 M84.9 63.95 C103.57 47.74, 118.91 31.04, 133.42 11.39 M87.06 66.22 C98.06 51.01, 111.49 36.31, 132.97 13.53 M92.88 66.38 C108.2 48.41, 124.84 26.92, 131.82 17.69 M91.32 64.26 C104.08 50.42, 117.58 35.08, 132.85 18.92 M96.61 67.22 C104.84 55.82, 114.94 42.64, 132.81 26.53 M97.53 66.08 C106.17 53.75, 117.49 42.72, 132.51 25.68 M100.46 64.62 C111.41 55.3, 118.74 45.68, 131.87 30.85 M101.55 65.53 C112.81 52.01, 125.32 39.31, 132.39 30.63 M106.21 64.15 C114.86 58.95, 118.15 51.1, 132.35 38.59 M106.48 65.9 C115.97 53.75, 127.16 43.08, 131.97 37.17 M113.73 63.32 C118.52 58.57, 122.85 51.5, 133.34 42.09 M113.25 65.52 C119.12 57.82, 125.74 49.28, 131.75 43.74 M119.04 64.32 C122.26 59.17, 127.22 54.87, 131.13 46.93 M118.68 65.56 C122.34 60.01, 126.28 55.22, 132.5 49.73 M123.23 66.04 C125.73 62.62, 130.43 58.47, 132.43 56.27 M123.86 65.42 C126.03 61.77, 129.58 59.01, 132.5 55.4 M128.85 66.02 C129.7 64.49, 130.14 62.64, 132.13 60.32 M128.71 65.44 C129.71 64.64, 130.25 63.38, 132.48 60.81" stroke="#fd7e14" stroke-width="0.5" fill="none"></path><path d="M0.82 0.7 C30.82 -1.48, 64.75 -0.5, 132.76 1.5 M0.55 -0.26 C50.2 0.23, 100.13 1.21, 131.95 -0.11 M130.21 0.94 C130.86 24.52, 132.75 45.75, 131.92 63.25 M131.46 0.86 C132.06 12.6, 132.89 25.61, 131.9 63.68 M132.55 63.33 C97.49 63.8, 67.12 65.01, -0.88 62.92 M131.99 64.23 C93.08 64.26, 54.3 63.38, 0.3 64.83 M-0.93 65.77 C0.86 44.12, -1.06 24.61, -0.86 0.84 M-0.49 63.69 C1.55 46.79, -0.31 28.62, 0.93 -0.69" stroke="#000000" stroke-width="1" fill="none"></path></g><g transform="translate(537.2867484986618 457.3551526667088) rotate(0 59.5 25)"><text x="59.5" y="18" font-family="Virgil, Segoe UI Emoji" font-size="20px" fill="#000000" text-anchor="middle" style="white-space: pre;" direction="ltr">Model </text><text x="59.5" y="43" font-family="Virgil, Segoe UI Emoji" font-size="20px" fill="#000000" text-anchor="middle" style="white-space: pre;" direction="ltr">Maintenance</text></g><g stroke-linecap="round"><g transform="translate(446.11433308534106 355.6059070984793) rotate(0 27.352742370792384 -0.3037863031386223)"><path d="M0.42 -1.04 C9.32 -1.39, 44.4 -1.65, 53.31 -1.64 M-0.82 1.03 C8.46 0.82, 46.56 0.47, 55.52 -0.22" stroke="#000000" stroke-width="1" fill="none"></path></g><g transform="translate(446.11433308534106 355.6059070984793) rotate(0 27.352742370792384 -0.3037863031386223)"><path d="M28.65 8.41 C37.31 6.32, 45.75 5.46, 57.1 -0.27 M30.59 9.11 C35.87 7.96, 41.07 5.57, 56.11 -0.03" stroke="#000000" stroke-width="1" fill="none"></path></g><g transform="translate(446.11433308534106 355.6059070984793) rotate(0 27.352742370792384 -0.3037863031386223)"><path d="M27.96 -10.14 C36.9 -6.83, 45.54 -2.28, 57.1 -0.27 M29.9 -9.44 C35.43 -6.61, 40.78 -5.01, 56.11 -0.03" stroke="#000000" stroke-width="1" fill="none"></path></g></g><mask></mask><g stroke-linecap="round"><g transform="translate(692.1690813375171 364.1962268309144) rotate(0 15.131203776628354 -0.29753428805770454)"><path d="M-1.04 -0.95 C4.1 -1.32, 25.8 -1.83, 31.3 -1.75 M0.62 1.16 C5.53 0.93, 25.1 0.18, 30.24 -0.4" stroke="#000000" stroke-width="1" fill="none"></path></g><g transform="translate(692.1690813375171 364.1962268309144) rotate(0 15.131203776628354 -0.29753428805770454)"><path d="M14.58 5.75 C20.24 4.56, 26.82 3.01, 30.2 -1.75 M15.13 6.15 C21.04 3.68, 26.01 1.89, 30.38 -0.97" stroke="#000000" stroke-width="1" fill="none"></path></g><g transform="translate(692.1690813375171 364.1962268309144) rotate(0 15.131203776628354 -0.29753428805770454)"><path d="M13.82 -5.01 C19.77 -2.53, 26.61 -0.4, 30.2 -1.75 M14.37 -4.61 C20.52 -3.26, 25.76 -1.22, 30.38 -0.97" stroke="#000000" stroke-width="1" fill="none"></path></g></g><mask></mask><g stroke-linecap="round"><g transform="translate(861.503192598544 360.6469131467693) rotate(0 25.569103293980334 -0.06585774277482415)"><path d="M-0.95 -0.22 C7.66 0.16, 43.04 0.92, 52.09 1.24 M0.75 -1.38 C9.13 -1.27, 42.23 -0.85, 50.95 -0.64" stroke="#000000" stroke-width="1" fill="none"></path></g><g transform="translate(861.503192598544 360.6469131467693) rotate(0 25.569103293980334 -0.06585774277482415)"><path d="M25.78 7.28 C35.29 6.73, 44.42 2.32, 49.25 0.47 M26.29 7.98 C32.88 5.67, 40.32 3.62, 50.23 -1.53" stroke="#000000" stroke-width="1" fill="none"></path></g><g transform="translate(861.503192598544 360.6469131467693) rotate(0 25.569103293980334 -0.06585774277482415)"><path d="M26.1 -10.66 C35.34 -5.2, 44.37 -3.6, 49.25 0.47 M26.61 -9.96 C33.15 -7.35, 40.5 -4.48, 50.23 -1.53" stroke="#000000" stroke-width="1" fill="none"></path></g></g><mask></mask><g stroke-linecap="round"><g transform="translate(1028.6524909337168 364.37239598361157) rotate(0 31.1905275129061 2.1967356796285458)"><path d="M-0.22 -0.37 C10.65 0.79, 53.36 5.1, 64.17 6 M-1.79 -1.61 C9.05 -0.69, 52.43 3.02, 63.46 4.35" stroke="#000000" stroke-width="1" fill="none"></path></g><g transform="translate(1028.6524909337168 364.37239598361157) rotate(0 31.1905275129061 2.1967356796285458)"><path d="M33.77 12.5 C42.15 11.79, 46.81 6.93, 64.57 3.84 M34.47 11.69 C43.69 9.91, 53.32 6.22, 62.57 4.82" stroke="#000000" stroke-width="1" fill="none"></path></g><g transform="translate(1028.6524909337168 364.37239598361157) rotate(0 31.1905275129061 2.1967356796285458)"><path d="M35.82 -7.92 C43.61 -4.27, 47.83 -4.77, 64.57 3.84 M36.52 -8.72 C44.9 -3.94, 53.87 -1.07, 62.57 4.82" stroke="#000000" stroke-width="1" fill="none"></path></g></g><mask></mask><g stroke-linecap="round"><g transform="translate(1157.6589860811118 403.91560947709604) rotate(0 0.6651480772784453 20.01608685881547)"><path d="M-0.37 0.45 C-0.05 7.22, 0.91 34.06, 0.98 40.39 M1.64 -0.35 C1.96 6.11, 0.9 32.17, 0.5 38.76" stroke="#000000" stroke-width="1" fill="none"></path></g><g transform="translate(1157.6589860811118 403.91560947709604) rotate(0 0.6651480772784453 20.01608685881547)"><path d="M-4.61 21.41 C-2.55 24.05, -4.49 29.34, -0.01 39.18 M-5.4 19.82 C-3.52 24.07, -3.57 26.98, 0.96 38.14" stroke="#000000" stroke-width="1" fill="none"></path></g><g transform="translate(1157.6589860811118 403.91560947709604) rotate(0 0.6651480772784453 20.01608685881547)"><path d="M8.86 22.05 C7.96 24.51, 3.04 29.66, -0.01 39.18 M8.07 20.46 C7.12 24.59, 4.22 27.36, 0.96 38.14" stroke="#000000" stroke-width="1" fill="none"></path></g></g><mask></mask><g stroke-linecap="round"><g transform="translate(1093.2245395901082 486.726658458625) rotate(0 -26.994301041703693 -0.528097431124479)"><path d="M0.45 0.9 C-8.51 0.64, -44.59 -1.6, -53.99 -1.96 M-0.77 0.33 C-9.79 0.3, -45.64 0.16, -54.44 -0.44" stroke="#000000" stroke-width="1" fill="none"></path></g><g transform="translate(1093.2245395901082 486.726658458625) rotate(0 -26.994301041703693 -0.528097431124479)"><path d="M-26.84 -7.46 C-35.78 -8.22, -41.98 -4.6, -54.02 -2.22 M-28.45 -8.45 C-36.36 -7.07, -45.65 -3.17, -55.07 0.35" stroke="#000000" stroke-width="1" fill="none"></path></g><g transform="translate(1093.2245395901082 486.726658458625) rotate(0 -26.994301041703693 -0.528097431124479)"><path d="M-27.41 11.33 C-36.13 5.27, -42.17 3.59, -54.02 -2.22 M-29.02 10.34 C-36.77 5.81, -45.88 3.8, -55.07 0.35" stroke="#000000" stroke-width="1" fill="none"></path></g></g><mask></mask><g stroke-linecap="round"><g transform="translate(903.3634413019126 483.8353726978912) rotate(0 -20.76711503618162 1.1495179162875502)"><path d="M0.9 0.94 C-5.95 1.02, -34.53 0.79, -41.47 0.9 M-0.08 0.39 C-7.06 0.55, -35.58 1.51, -42.44 1.9" stroke="#000000" stroke-width="1" fill="none"></path></g><g transform="translate(903.3634413019126 483.8353726978912) rotate(0 -20.76711503618162 1.1495179162875502)"><path d="M-21.7 -6.08 C-30.11 -2.64, -34.07 -1.19, -44.22 2.2 M-22.68 -5.85 C-29.91 -4.5, -34.63 -1.78, -41.65 2.22" stroke="#000000" stroke-width="1" fill="none"></path></g><g transform="translate(903.3634413019126 483.8353726978912) rotate(0 -20.76711503618162 1.1495179162875502)"><path d="M-21.08 8.09 C-29.71 7.72, -33.84 5.36, -44.22 2.2 M-22.07 8.33 C-29.48 5.3, -34.39 3.64, -41.65 2.22" stroke="#000000" stroke-width="1" fill="none"></path></g></g><mask></mask><g stroke-linecap="round"><g transform="translate(727.9587718173871 478.1790923654162) rotate(0 -26.002504366720586 0.4733781775225907)"><path d="M0.94 -0.03 C-7.96 0.17, -44.09 1.79, -52.95 2.07 M-0.02 -1.09 C-8.6 -1.32, -41.92 -0.4, -50.77 0.3" stroke="#000000" stroke-width="1" fill="none"></path></g><g transform="translate(727.9587718173871 478.1790923654162) rotate(0 -26.002504366720586 0.4733781775225907)"><path d="M-26.89 -11.48 C-33.74 -6.7, -42.51 -4.56, -50.48 0.47 M-26.65 -10.5 C-34.81 -6.19, -41.62 -2.9, -50.46 0.22" stroke="#000000" stroke-width="1" fill="none"></path></g><g transform="translate(727.9587718173871 478.1790923654162) rotate(0 -26.002504366720586 0.4733781775225907)"><path d="M-26.01 6.26 C-33.29 5.06, -42.36 1.2, -50.48 0.47 M-25.78 7.25 C-34.18 6.32, -41.24 4.37, -50.46 0.22" stroke="#000000" stroke-width="1" fill="none"></path></g></g><mask></mask><g stroke-linecap="round"><g transform="translate(596.6124150598334 445.6959616176573) rotate(0 0.5925355923491225 -22.286902197168274)"><path d="M-0.03 -1.02 C0.02 -8.44, 1.08 -36.34, 1.22 -43.55" stroke="#000000" stroke-width="1.5" fill="none" stroke-dasharray="8 9"></path></g><g transform="translate(596.6124150598334 445.6959616176573) rotate(0 0.5925355923491225 -22.286902197168274)"><path d="M6.31 -21.92 C4.79 -30.3, 0.97 -38.13, 1.39 -43.64" stroke="#000000" stroke-width="1.5" fill="none"></path></g><g transform="translate(596.6124150598334 445.6959616176573) rotate(0 0.5925355923491225 -22.286902197168274)"><path d="M-8.48 -22.35 C-4.45 -30.57, -2.72 -38.24, 1.39 -43.64" stroke="#000000" stroke-width="1.5" fill="none"></path></g></g><mask></mask><g stroke-linecap="round" transform="translate(497.8157571601887 265.0614168023567) rotate(0 365.1640901744631 131.5535021133942)"><path d="M0.44 -0.21 C276.76 1.78, 553.29 2.56, 730.29 -0.08 M728.91 0.75 C729.72 95.62, 731.22 188.61, 730.26 262.51 M729.9 263.79 C579.23 260.32, 429.05 260.15, -0.08 262.85 M0.44 262.57 C-0.26 198.17, 1.65 133.81, -0.7 -0.86" stroke="#000000" stroke-width="1.5" fill="none" stroke-dasharray="8 9"></path></g><g transform="translate(509.8606647430197 277.4159889287648) rotate(0 191 18)"><text x="191" y="25" font-family="Virgil, Segoe UI Emoji" font-size="28px" fill="#000000" text-anchor="middle" style="white-space: pre;" direction="ltr">Machine Learning Engineering</text></g><g transform="translate(126.39128150271154 412.0079758408656) rotate(0 170.5 60)"><text x="0" y="14" font-family="Virgil, Segoe UI Emoji" font-size="16px" fill="#000000" text-anchor="start" style="white-space: pre;" direction="ltr">- Understand the business objective</text><text x="0" y="34" font-family="Virgil, Segoe UI Emoji" font-size="16px" fill="#000000" text-anchor="start" style="white-space: pre;" direction="ltr">- Transform business problem </text><text x="0" y="54" font-family="Virgil, Segoe UI Emoji" font-size="16px" fill="#000000" text-anchor="start" style="white-space: pre;" direction="ltr">  into engineering problem</text><text x="0" y="74" font-family="Virgil, Segoe UI Emoji" font-size="16px" fill="#000000" text-anchor="start" style="white-space: pre;" direction="ltr">- Need for continuous feedback from the</text><text x="0" y="94" font-family="Virgil, Segoe UI Emoji" font-size="16px" fill="#000000" text-anchor="start" style="white-space: pre;" direction="ltr">  business team on the achievement of the</text><text x="0" y="114" font-family="Virgil, Segoe UI Emoji" font-size="16px" fill="#000000" text-anchor="start" style="white-space: pre;" direction="ltr">  business objective</text></g><g stroke-linecap="round" transform="translate(159.8634616950094 282.710088201884) rotate(0 117 16)"><path d="M-1.5 0.25 C83.32 -0.5, 166.18 0.57, 234.31 -1.22 M235.57 0.63 C233.99 6.66, 233.4 11.61, 235.19 30.43 M232.96 32.85 C175 31.2, 118.24 30.5, -0.91 31.13 M0.47 32.66 C1.79 20.64, -0.98 10.93, -1.3 0.23" stroke="#000000" stroke-width="1.5" fill="none" stroke-dasharray="8 9"></path></g><g transform="translate(166.8634616950094 288.710088201884) rotate(0 110 10)"><text x="110" y="14" font-family="Virgil, Segoe UI Emoji" font-size="16px" fill="#000000" text-anchor="middle" style="white-space: pre;" direction="ltr">Business and Data Analyst</text></g></svg>