<svg version="1.1" xmlns="http://www.w3.org/2000/svg" viewBox="0 0 1370.7357560858418 377.8583548361348" width="4112.207268257525" height="1133.5750645084045">
  <!-- svg-source:excalidraw -->
  
  <defs>
    <style class="style-fonts">
      @font-face {
        font-family: "Virgil";
        src: url("https://excalidraw.com/Virgil.woff2");
      }
      @font-face {
        font-family: "Cascadia";
        src: url("https://excalidraw.com/Cascadia.woff2");
      }
    </style>
  </defs>
  <rect x="0" y="0" width="1370.7357560858418" height="377.8583548361348" fill="#ffffff"></rect><g stroke-linecap="round" transform="translate(10 10) rotate(0 109 25)"><path d="M0 0 C0 0, 0 0, 0 0 M0 0 C0 0, 0 0, 0 0 M-0.02 5.36 C0.32 4.72, 3.16 0.01, 5.47 1.27 M-0.82 6.48 C1.63 4.19, 2.95 2.93, 5.6 0.8 M3.09 13.47 C6.88 9.23, 7.7 2.16, 8.82 1.53 M-0.39 10.87 C3.04 6.14, 6.96 2.62, 11.98 -0.61 M1.26 14.83 C3.55 9.06, 12.79 3.43, 16.09 -2.98 M0.44 18.76 C5.63 10.55, 13.17 6.33, 14.89 1.8 M0.55 27.08 C4.41 16.17, 14.55 3.12, 23.08 -3.49 M-0.45 23.39 C4.57 17.38, 10.41 13.9, 22.36 -0.48 M2.01 31.99 C2.8 20.18, 13.1 18.57, 22.72 -1.15 M-1.78 28.49 C8.92 20, 18.08 10.42, 24.26 2.2 M0.16 37.59 C8.62 25.73, 23.17 15.44, 34.52 1.11 M0.87 35.18 C9.9 25.48, 18.58 14.73, 32.2 -0.36 M3.04 39.49 C12.58 26.5, 28.68 14.97, 40.11 3.74 M0.33 42.6 C9.52 32.87, 17.83 20.72, 37.96 2.25 M3.47 45.98 C17.81 27.42, 30.95 14.67, 41.77 3.29 M-0.68 48.76 C10.41 37.76, 19.45 27.93, 42.14 1.72 M-1.1 53.14 C16.16 35.14, 26.82 20.38, 46.41 -2.8 M0.3 53.68 C12.58 37.22, 24.42 23.71, 48.26 -0.41 M5.37 51.95 C18.09 34.99, 33.46 17.33, 52.05 0.5 M9.67 50.23 C23.58 35.47, 35.83 18.55, 51.43 -0.08 M12.87 53.32 C24.72 41.56, 32.12 28.14, 55.88 2.62 M11.19 53.1 C26.62 35.87, 40.55 19.58, 56.41 1.91 M16.38 51.44 C36.7 30.73, 50.03 14.93, 64.7 0.06 M19.14 50.07 C35.12 33.11, 52.91 13.04, 62.27 0.49 M21.27 55.66 C42.12 35.36, 52.39 16.38, 70.94 1.25 M21.91 53.67 C39.8 31.13, 57.06 13.88, 68.54 -1.02 M29.78 51.2 C44.1 35.59, 58.11 17.99, 71.17 3.16 M30.52 53.8 C41.64 36.61, 56.01 19.63, 75.79 1.71 M33.04 51.87 C42.64 39.22, 48.8 34.94, 82.1 -3.79 M32.83 50.41 C48.44 36.88, 60.06 22.26, 79.77 -1.37 M37.58 52.87 C52.51 39.65, 63.62 25.19, 87.06 -3.13 M38.14 50.02 C59.3 29.83, 73.13 11.33, 84.05 -2.06 M41.29 51.51 C58.27 40.67, 66.56 26.39, 92.01 -3.48 M43.29 50.44 C59.89 35.51, 74.94 17.9, 90.12 -1.27 M51.95 47.96 C63.48 43.41, 71.46 28.38, 96.07 2.13 M49.3 53.34 C62.83 38.14, 74.35 22.56, 94.05 -0.4 M55.22 50.02 C68.75 35.81, 85.62 14.7, 99.46 1.06 M55.52 52.92 C73.74 32.66, 91.35 15.89, 100.57 -0.75 M57.15 49.84 C74.54 43.56, 84.04 30.39, 106.05 1.76 M60.22 52.48 C69.6 39.33, 81.14 27.94, 107.74 1.16 M68.17 52.72 C83.35 37.02, 97.55 17.67, 107.34 -1.42 M66.72 53.1 C74.15 39.29, 85.7 30.48, 113.03 -1.81 M72.93 54.54 C85.1 33.17, 100.35 18.77, 116.31 -2.79 M71.39 50.95 C89.13 32.62, 104.77 14.61, 117.33 1.94 M73.6 50.8 C89.38 34.21, 111.16 13.76, 122.68 -0.28 M77.02 50.25 C89.22 35.34, 103.59 19.49, 122.33 -0.37 M85.13 53.66 C94.23 36.1, 110.49 15.46, 128.23 -2.46 M82.24 52.07 C93.94 36.9, 107 21.2, 127.95 -0.98 M89.1 53.34 C95.31 38.4, 112.41 24.96, 132.62 -3.03 M85.48 51.74 C103.42 33.94, 120.93 13.43, 132.27 1.71 M89.74 54.97 C100.88 39.67, 108.19 31.79, 141.39 -0.06 M91.13 51.48 C111.98 32.73, 126.86 13.43, 137.7 -0.17 M100.39 55.27 C112.02 32.52, 130.99 15.46, 144.45 -3.27 M98.11 52.99 C106.86 42.38, 118.48 32.41, 143.57 0.62 M103.54 55.35 C118.41 32.38, 137.23 10.22, 148.11 2.74 M102.04 54.12 C117.71 36.62, 128.31 23.24, 148.28 -0.9 M109.3 53.42 C120.39 38.44, 135.4 26.02, 153.56 3.24 M107.84 53.47 C121.25 33.68, 137.88 16.83, 153.89 -1.36 M115.43 49.56 C125.44 33.69, 140.08 20.58, 156.87 -1.88 M111.87 51.02 C126.82 36.12, 142.43 19.01, 160.3 -0.37 M117.8 54.47 C132.59 37.71, 143.79 25.01, 167.48 2.64 M118.56 52.74 C135.06 32.93, 149.48 14.67, 165.82 0.07 M126.43 54.23 C134.86 36.17, 155.27 22.93, 168.24 4.16 M122.49 51.25 C136.19 38.5, 152.93 20.7, 169.34 0.26 M127.97 51 C141.94 41.02, 151.48 24.29, 173.86 2.93 M129.07 50.39 C145.08 31.92, 164.18 13.62, 174.9 -0.67 M133.7 51.86 C140.87 43.25, 154.13 31.77, 182.95 0.8 M136.65 53.94 C144.58 40.27, 156.12 30.14, 181.89 -0.07 M142.02 53.45 C153.2 32.77, 171.33 19.02, 188.48 1.99 M141.14 50.11 C154.03 37.42, 163.91 24.6, 185.6 0.84 M146.5 54.83 C164.62 31.34, 179.69 18.11, 193.82 1.85 M146.1 52.29 C162.07 35.61, 175.32 21.07, 191.4 1.6 M154.3 50.14 C166.89 32.08, 185.05 11.03, 199.22 3.58 M151.44 51.61 C167 36.35, 181.22 15.71, 195.33 -0.87 M154.25 49.4 C164.71 40.51, 177.84 25.07, 201.82 -0.98 M155.49 53.57 C169.64 36.99, 184.28 17.36, 202.24 0.34 M159.27 55.25 C173.05 41.6, 186 27.25, 206.13 1.34 M163.62 50.69 C168.76 41.3, 179.3 29.74, 206.43 -1.23 M166.45 51.7 C175.74 41.41, 192.23 23.43, 208.05 1.86 M166.41 51.11 C183.74 33.13, 195.92 17.38, 213.74 -0.77 M175.51 52.87 C182.92 35.44, 196.93 22.8, 221.35 2.76 M172.24 51.22 C179.84 41.1, 190.43 32.4, 218.2 -1.6 M180.78 51.74 C192.25 42.15, 202.5 23.22, 219.74 0.09 M177.41 52.29 C188.92 38.1, 200.35 24.49, 222.17 3.72 M181.08 53.68 C192.68 43.84, 193.94 29.92, 221.29 6.28 M182.13 53.85 C190.96 44.48, 199.64 33.57, 218.97 7.77 M191 53.4 C200.87 36.58, 204.43 28.74, 223.67 14.57 M187.94 50.56 C197.37 41.94, 205.29 35.44, 222.17 12.58 M196.14 52 C203.08 43.27, 215.24 27.86, 223.58 17.13 M191.06 53.07 C201.82 41.7, 208.83 35.31, 219.16 19.61 M195 50.43 C204.66 46.93, 210.18 40.14, 221.84 26.69 M198.43 53.43 C205.72 42.79, 213.57 31.75, 222.38 27.3 M206.98 54.28 C213.04 46.43, 218.77 35.71, 223.39 33.41 M201.75 53.68 C207.86 43.49, 214.38 38.51, 219.48 31.74 M210.58 50.7 C214.8 48.93, 217.85 41.13, 222.75 38.4 M210.06 50.71 C212.52 48.64, 216.06 44.96, 221.1 39.87 M215.44 52.22 C216.93 48.93, 218.26 47.47, 219.05 45.47 M213.35 52.07 C216.75 50.58, 218.75 47.97, 219.86 43.92" stroke="#228be6" stroke-width="0.5" fill="none"></path><path d="M-1.97 -3.46 C56.67 -0.41, 122.15 -6.39, 218.73 -1.17 M-0.9 1.09 C81.95 0.48, 165.46 0.72, 217.19 1.18 M215.23 2.48 C218.02 11.14, 214.23 25.9, 215.35 52.59 M219.96 1.9 C215.98 15.25, 217.9 32.86, 218.26 50.6 M221.16 51.52 C165.21 49.31, 104.95 48.39, 0.02 48.15 M217.51 50.59 C153.01 47.39, 88.38 49.22, -0.31 48.36 M-0.72 48.26 C-0.92 33.66, 3.68 15.32, -3.25 1.53 M-1.34 48.96 C1.07 34.37, -0.56 21.34, -1.66 -0.7" stroke="#000000" stroke-width="1" fill="none"></path></g><g transform="translate(63 17) rotate(0 56 18)"><text x="56" y="25" font-family="Virgil, Segoe UI Emoji" font-size="28px" fill="#000000" text-anchor="middle" style="white-space: pre;" direction="ltr">Baseline</text></g><g stroke-linecap="round" transform="translate(11.541616655445068 56.40037253275659) rotate(0 674.5970697151984 155.72899115168912)"><path d="M-1.24 1.51 C537.78 9.5, 1072.75 10.2, 1350.42 -0.8 M1348.96 -0.54 C1348.99 86.62, 1345.57 175.48, 1348.31 310.38 M1349.35 310.53 C893.04 317.76, 438.55 319.19, 0.31 310.3 M-1.84 310.44 C-3.46 193.1, -3.98 72.95, -1.37 0.91" stroke="#000000" stroke-width="1.5" fill="none" stroke-dasharray="8 9"></path></g><g transform="translate(58.05656027816258 136.34800673245445) rotate(0 272.5 12.5)"><text x="0" y="18" font-family="Virgil, Segoe UI Emoji" font-size="20px" fill="#000000" text-anchor="start" style="white-space: pre;" direction="ltr">Simple algorithm for solving a problem, usually based on</text></g><g transform="translate(279.37285068648725 291.0951667361569) rotate(0 335.5 25)"><text x="0" y="18" font-family="Virgil, Segoe UI Emoji" font-size="20px" fill="#000000" text-anchor="start" style="white-space: pre;" direction="ltr">The baseline performance will become what you compare any future </text><text x="0" y="43" font-family="Virgil, Segoe UI Emoji" font-size="20px" fill="#000000" text-anchor="start" style="white-space: pre;" direction="ltr">model to (usually, built using a more sophisticated approach).</text></g><g transform="translate(672.7945226764414 90.2002001863184) rotate(0 53 12.5)"><text x="0" y="18" font-family="Virgil, Segoe UI Emoji" font-size="20px" fill="#000000" text-anchor="start" style="white-space: pre;" direction="ltr">A heuristic</text></g><g transform="translate(747.4234744671367 117.33635770751243) rotate(0 127 12.5)"><text x="0" y="18" font-family="Virgil, Segoe UI Emoji" font-size="20px" fill="#000000" text-anchor="start" style="white-space: pre;" direction="ltr">Simple summary statistics</text></g><g transform="translate(746.0094454410028 145.46435014426606) rotate(0 69 12.5)"><text x="0" y="18" font-family="Virgil, Segoe UI Emoji" font-size="20px" fill="#000000" text-anchor="start" style="white-space: pre;" direction="ltr">Randomization</text></g><g transform="translate(673.2841176753254 168.45857534018614) rotate(0 183.5 12.5)"><text x="0" y="18" font-family="Virgil, Segoe UI Emoji" font-size="20px" fill="#000000" text-anchor="start" style="white-space: pre;" direction="ltr">Very basic Machine Learning algorithm</text></g><g stroke-linecap="round"><g transform="translate(611.432488834258 147.9754209759485) rotate(0 29.778274251120365 -21.53301211869166)"><path d="M0.86 -0.03 C10.65 -6.78, 49.85 -34.3, 59.71 -41.13 M-0.15 -1.09 C9.47 -8.16, 49.16 -36.04, 59.15 -43.04" stroke="#364fc7" stroke-width="1" fill="none"></path></g><g transform="translate(611.432488834258 147.9754209759485) rotate(0 29.778274251120365 -21.53301211869166)"><path d="M41.93 -17.2 C49.28 -26.14, 55.98 -35.5, 58.93 -43.25 M42.24 -18.5 C47.8 -26.1, 52.46 -33.83, 58.71 -43.99" stroke="#364fc7" stroke-width="1" fill="none"></path></g><g transform="translate(611.432488834258 147.9754209759485) rotate(0 29.778274251120365 -21.53301211869166)"><path d="M30.13 -34 C41.86 -36.67, 53.01 -39.68, 58.93 -43.25 M30.44 -35.3 C39.72 -37.73, 48.03 -40.25, 58.71 -43.99" stroke="#364fc7" stroke-width="1" fill="none"></path></g></g><mask></mask><g stroke-linecap="round"><g transform="translate(611.87082786061 147.20647031107728) rotate(0 64.31758336502071 -9.692563204993348)"><path d="M0.24 -0.73 C21.86 -4.03, 108.27 -17.7, 129.72 -20.88 M-1.09 1.49 C20.37 -1.59, 107.31 -16.61, 128.8 -19.94" stroke="#364fc7" stroke-width="1" fill="none"></path></g><g transform="translate(611.87082786061 147.20647031107728) rotate(0 64.31758336502071 -9.692563204993348)"><path d="M101.43 -5.16 C108.83 -10.91, 118.58 -15.38, 127.85 -19.22 M103.55 -5.77 C109.67 -9.48, 117.7 -13.54, 128.06 -20.41" stroke="#364fc7" stroke-width="1" fill="none"></path></g><g transform="translate(611.87082786061 147.20647031107728) rotate(0 64.31758336502071 -9.692563204993348)"><path d="M98.09 -25.41 C106.32 -25.01, 117.08 -23.32, 127.85 -19.22 M100.21 -26.02 C107.21 -24.25, 116.13 -22.84, 128.06 -20.41" stroke="#364fc7" stroke-width="1" fill="none"></path></g></g><mask></mask><g stroke-linecap="round"><g transform="translate(614.6308778316225 148.17601680156804) rotate(0 63.63955474896284 3.8027823483707834)"><path d="M0.79 -0.65 C21.85 0.66, 106.38 6.93, 127.54 8.26 M-0.26 1.62 C20.57 2.59, 105.52 5.54, 126.78 6.72" stroke="#364fc7" stroke-width="1" fill="none"></path></g><g transform="translate(614.6308778316225 148.17601680156804) rotate(0 63.63955474896284 3.8027823483707834)"><path d="M97.08 16.34 C111.38 12.9, 121.17 6.59, 128.36 5.87 M97.22 15.4 C106.98 12.06, 115.74 11.04, 126.58 6.68" stroke="#364fc7" stroke-width="1" fill="none"></path></g><g transform="translate(614.6308778316225 148.17601680156804) rotate(0 63.63955474896284 3.8027823483707834)"><path d="M97.98 -4.16 C111.99 0.57, 121.42 2.4, 128.36 5.87 M98.12 -5.1 C107.77 -2.46, 116.27 2.49, 126.58 6.68" stroke="#364fc7" stroke-width="1" fill="none"></path></g></g><mask></mask><g stroke-linecap="round"><g transform="translate(613.9325071794692 147.49250509945887) rotate(0 26.426665463999598 17.15511249913925)"><path d="M-0.8 -0.07 C8.06 5.7, 44.58 29.74, 53.65 35.46 M0.99 -1.15 C9.6 4.2, 43.86 27.6, 52.46 33.67" stroke="#364fc7" stroke-width="1" fill="none"></path></g><g transform="translate(613.9325071794692 147.49250509945887) rotate(0 26.426665463999598 17.15511249913925)"><path d="M23.32 25.31 C34.47 28.04, 42.37 29.54, 52.82 32.35 M23.6 26.45 C29.03 27.49, 35.68 28.99, 53.12 34.26" stroke="#364fc7" stroke-width="1" fill="none"></path></g><g transform="translate(613.9325071794692 147.49250509945887) rotate(0 26.426665463999598 17.15511249913925)"><path d="M34.99 8.43 C42.26 16.86, 46.16 24.14, 52.82 32.35 M35.28 9.57 C38.27 14.08, 42.56 18.98, 53.12 34.26" stroke="#364fc7" stroke-width="1" fill="none"></path></g></g><mask></mask><g transform="translate(55.40710912005761 225.21175804866107) rotate(0 183 12.5)"><text x="0" y="18" font-family="Virgil, Segoe UI Emoji" font-size="20px" fill="#000000" text-anchor="start" style="white-space: pre;" direction="ltr">Choosing a baseline is a crucial task</text></g><g stroke-linecap="round"><g transform="translate(201.32511509675078 263.67440577198795) rotate(0 31.10040070684454 24.637456816673875)"><path d="M0.75 -1.17 C1.21 6.51, -9.36 36.83, 1.63 45.03 C12.61 53.22, 55.89 47.31, 66.64 47.99 M-0.31 0.83 C0.08 8.77, -10.4 38.29, 0.61 46.29 C11.61 54.29, 54.84 48.15, 65.74 48.82" stroke="#364fc7" stroke-width="1" fill="none"></path></g><g transform="translate(201.32511509675078 263.67440577198795) rotate(0 31.10040070684454 24.637456816673875)"><path d="M36.03 59.97 C42.93 57.26, 47.94 54.1, 66.09 50.28 M37.86 59.28 C46.68 57.39, 56.67 52.99, 65.18 49.65" stroke="#364fc7" stroke-width="1" fill="none"></path></g><g transform="translate(201.32511509675078 263.67440577198795) rotate(0 31.10040070684454 24.637456816673875)"><path d="M35.22 39.46 C42.09 40.95, 47.27 42, 66.09 50.28 M37.05 38.77 C46.11 43.72, 56.38 46.14, 65.18 49.65" stroke="#364fc7" stroke-width="1" fill="none"></path></g></g><mask></mask></svg>