<svg version="1.1" xmlns="http://www.w3.org/2000/svg" viewBox="0 0 1375.5269536657343 998.2102454159412" width="4126.580860997203" height="2994.6307362478237">
  <!-- svg-source:excalidraw -->
  
  <defs>
    <style class="style-fonts">
      @font-face {
        font-family: "Virgil";
        src: url("https://excalidraw.com/Virgil.woff2");
      }
      @font-face {
        font-family: "Cascadia";
        src: url("https://excalidraw.com/Cascadia.woff2");
      }
    </style>
  </defs>
  <rect x="0" y="0" width="1375.5269536657343" height="998.2102454159412" fill="#ffffff"></rect><g stroke-linecap="round" transform="translate(10 10) rotate(0 283 23)"><path d="M0 0 C0 0, 0 0, 0 0 M0 0 C0 0, 0 0, 0 0 M-0.55 5.61 C2.22 4.04, 2.33 2.67, 5.24 0.39 M0.45 6.06 C1.89 3.71, 3.23 2.42, 4.98 -0.38 M3.23 9.86 C3 11.54, 5.8 7.73, 12.58 2.7 M0.3 13.04 C2.22 9.32, 5.28 4.57, 10.85 0.74 M-3.35 16.69 C4.14 15.99, 13.81 6.8, 17.96 0.42 M1.58 17.78 C5.19 13.58, 9.83 8.96, 16.73 0.58 M2.57 23.72 C4.45 18.15, 8.35 9.67, 18.26 1.86 M0.69 25.5 C2.46 18.12, 8.69 14.63, 19.96 1.11 M3.39 29.51 C8.14 18.05, 16.99 16.83, 22.92 -3.07 M1.44 32.26 C9.6 22.1, 16.64 12.02, 26.95 -0.98 M-3.74 38.75 C5.42 29.33, 20.11 20.64, 32.1 -3.24 M1.02 37.41 C12.34 23.32, 25.08 9.71, 30.62 1.05 M-1.06 41.1 C15.58 29.24, 22.91 20.31, 38.93 1.39 M0.57 41.58 C11.26 28.7, 23.21 14.24, 37.72 1.78 M0.11 44.82 C10.21 31.58, 27.13 16.71, 41.76 2.78 M1.04 46.96 C14.53 31.27, 25.64 15.17, 42.6 1.07 M3.02 48.6 C14.52 36.32, 22.43 30.35, 45.91 -0.23 M8.26 47.51 C17.66 35, 29.81 23.06, 46.4 1.59 M11.28 49.58 C30.26 33.06, 38.23 13.4, 51.92 1.11 M12.33 47.57 C20.7 35.32, 32.22 24.01, 54.88 -1.71 M19.69 50.25 C30.28 24.96, 51.65 7.31, 57.3 0.49 M15.86 47.19 C31.35 27.61, 48.46 12.35, 57.59 -0.09 M20.01 46.03 C30.02 32.77, 41.17 22.85, 60.76 3.46 M21.29 48.26 C36.9 32.73, 51.81 16.7, 65.68 -1.48 M29.21 44.24 C36.83 33.53, 45.78 28.12, 72.01 2.51 M28.64 47.96 C38.32 35.82, 48.19 24.42, 67.12 -1.04 M35.23 47.12 C46.74 33.53, 53.22 22.37, 75.96 -3.98 M34.77 48.26 C45.27 32.38, 56.91 19.97, 72.47 0.37 M41.24 46.79 C57.55 29.1, 75.62 12.02, 82.49 3.28 M39.09 45.43 C55.1 31.14, 69.41 14.03, 78.1 1.7 M43.37 48.3 C62.9 33.9, 75.05 12.35, 82.71 3.48 M42.87 47.53 C56.02 33.56, 70.4 16.65, 83.97 -0.83 M50.97 48.59 C60.36 40.05, 66.04 22.86, 90.67 -1.27 M50.93 47.93 C60.78 38.51, 67.95 26.45, 88.87 -0.16 M56.35 43.51 C72.5 29.58, 85.05 17.6, 99.67 1.04 M54.94 46.78 C71.97 29.93, 84.8 13.19, 96.17 -0.98 M63.07 46.82 C71.62 34.58, 87.79 16.51, 99.96 -0.68 M59.13 48.55 C76.29 27.58, 87.64 11.08, 101.04 1.85 M63.62 49.2 C81.48 36.47, 88.5 17.89, 107.03 2.39 M63.57 47.48 C74.94 36.01, 84.92 24.59, 108.27 0.75 M67.07 45.95 C82.3 35.12, 94.2 19.45, 107.31 -2.02 M69.25 45.88 C86.33 30.03, 101.19 12.13, 111.45 0.95 M72.09 48.31 C85.25 32.67, 102.42 21.21, 117.82 -3.52 M76.62 47.84 C90.19 32.94, 101.15 18.43, 118.1 -1.29 M79.97 46.66 C94.7 31.89, 104.27 16.19, 119.14 2.17 M80.09 49.02 C92.51 36.06, 103.24 20.77, 120.2 -0.91 M90.2 46.29 C97.15 32.97, 104.59 18.78, 124.52 0.51 M85.17 46.83 C96.16 37.54, 102.24 25.41, 128.7 1.72 M94.28 50.4 C107.26 36.09, 115.99 14.81, 135.38 1.83 M91.7 46.04 C104.52 32.89, 115.1 20.98, 130.63 -1 M95.88 47.08 C113.81 34.57, 126.3 15.9, 135.16 0.41 M95.58 48.17 C106.35 36.27, 113.49 28.52, 136.37 1.64 M104.68 48.35 C116.41 30.46, 131.88 11.4, 141.47 1.41 M100.06 49.05 C115.37 28, 130.18 14.48, 141.35 0.14 M108.56 45.13 C117.3 36.12, 134.66 15.54, 151.91 3.89 M109.45 48.31 C119.01 35.14, 126.42 27.08, 149.34 -1.69 M115.37 46.23 C126.33 26.89, 144.35 10.49, 156.32 3.84 M112.4 46.87 C128.91 31.77, 142.31 12.14, 154.19 -1.27 M117.17 49.38 C133.85 32.48, 147.67 15.96, 162.47 1.14 M119.62 48.47 C126.02 37.27, 135.67 27.76, 159.09 0.3 M124 48.22 C140.66 34.94, 152.01 14.57, 168.37 2.58 M123.18 49.11 C134.39 31.35, 148.23 15.8, 166.27 -0.28 M128.13 43.28 C136.89 30.05, 152.9 22.05, 172.01 -3.14 M130.2 46.62 C142.14 30.34, 156.43 18.65, 168.33 0.97 M129.77 49.02 C142.81 38.85, 147.72 26.6, 175.56 -2.43 M134.13 46.1 C152.33 27.27, 165.82 9.4, 173.92 0.83 M141.37 48.78 C149.51 34.45, 162.19 22.31, 179.2 2.23 M140.52 45.47 C147.12 35.17, 158 27.35, 179.04 -1.6 M141.35 49.83 C158.26 28.73, 173.31 14.14, 185.3 3.25 M146.22 48.93 C153.96 35.96, 164.34 23.52, 184.75 0.54 M150.34 46.32 C162.94 32.59, 169.95 20.3, 192.23 2.96 M149.18 48.48 C164.24 31.46, 179.27 13.12, 192.44 -0.57 M152.93 50.33 C162.98 36.32, 178.56 18.23, 198.54 0.58 M155.67 45.44 C168.29 32.12, 181.53 15.17, 197.6 -1.95 M157.95 46.84 C171.23 32.83, 179.94 26.77, 204.77 -0.75 M162.04 47.88 C167.35 34.79, 178.57 28.12, 201.01 -0.34 M168.18 48.73 C171.7 33.59, 183.52 23.88, 209.69 0.99 M165.97 48.22 C172.57 39, 179.55 27.7, 206.57 1.32 M168.63 43.79 C184.74 29.83, 202.81 7.2, 212.02 -2.22 M172.19 48.63 C184.11 31.85, 198.22 15.14, 212.47 -0.59 M176.28 49.72 C188.2 32.95, 195.44 27.84, 214.69 -1.56 M175.81 46.61 C192.24 26.26, 207.62 9.54, 217 -0.92 M180.32 45.12 C190.9 32.55, 200.35 27.15, 218.63 3.75 M179.99 48.43 C194.64 33.22, 205.85 17.82, 221.78 -0.21 M183.92 48.5 C197.95 31.43, 217.71 13.22, 226.97 1.36 M187.2 46.7 C198.61 33.63, 208.79 18.43, 229.5 0.79 M191.79 50.02 C204.92 26.79, 225.67 10.38, 230.81 -3.14 M192.36 46.52 C206.25 32.62, 218.43 16.91, 235.18 -1.37 M199.26 46.76 C203.9 36.28, 213.27 24.86, 236.81 1.46 M197.33 47.33 C213.02 29.85, 226.82 16.1, 239.26 1.41 M205.28 45.94 C212.35 34.45, 227.11 15.52, 240.22 3.3 M201.47 48.59 C212.18 35.63, 223.43 26.77, 242.13 -1.48 M208 44.69 C221.16 34.4, 228.87 20.01, 245.93 2.67 M206.69 48.08 C215.77 36.19, 225.65 28.14, 250.68 -1.59 M214.57 45.06 C221.33 38.81, 231.4 26.01, 256.05 -0.23 M212.76 47.37 C226.38 30.78, 239.69 15.23, 255.36 -1.19 M221.32 48.99 C230.09 32.7, 242.02 21.2, 255.63 1.7 M219 45.31 C236.6 28.69, 252.23 12.33, 257.46 0.25 M223.57 49.35 C232.49 34.22, 248.09 22.29, 264.97 1.46 M223.58 47.57 C237.1 29.22, 252.89 15.74, 266.84 -0.43 M227.88 48.87 C240.65 27.44, 258.64 8.45, 269.32 0.98 M229.24 48.1 C239.34 36.38, 248.49 25.61, 269.2 -0.6 M237.74 51.23 C247.04 34.64, 253.2 25.19, 279.16 -1.93 M234.53 46.66 C242.63 36.94, 252.56 29.25, 275.79 1.65 M241.87 48 C254.29 34.43, 266.5 16.44, 283.94 1.47 M239.62 46.29 C250.03 34.79, 264.93 21.54, 278.73 1.07 M247.98 49.66 C257.07 29.37, 268.91 20.18, 288.32 1.8 M245.46 46.84 C260.44 32.22, 273.53 12.27, 284.69 -1.35 M246.98 48.59 C262.46 30.43, 274.13 15.88, 289.92 2.61 M251.61 46.46 C261.03 36.99, 271.2 24.22, 290.17 -0.78 M254.74 50.09 C271.23 33.72, 283.86 15.49, 299.6 -0.67 M255.46 47.09 C274.4 29.37, 289.46 9.53, 295.26 0.9 M260.37 43.34 C274.01 32.66, 281.75 20.98, 303.18 2.34 M261.95 47.97 C272.63 36.25, 282.8 24.13, 302.86 0.58 M267.94 48.45 C276.08 34.58, 287.06 24.77, 305.7 -0.13 M266.87 47.12 C275.87 39.85, 283.38 27.64, 308.47 -0.52 M268.74 47.43 C281.52 36.61, 295.96 16.68, 309.16 -2.89 M270.6 46.89 C285.44 33.63, 296.85 16.53, 311.39 0.61 M275.01 47.2 C290.55 31.21, 299.13 15.25, 316.79 3.11 M277.31 47.4 C291.92 31.57, 304.31 19.37, 316.54 -1.75 M284.25 50.57 C295.06 30.36, 315.31 14.24, 326.79 -2.14 M280.78 48.07 C293.72 32.14, 305.59 20.85, 321.62 -0.49 M288.89 47.27 C299.99 34.05, 312.76 19.67, 328.56 -0.75 M287.61 49.13 C299.69 36.32, 307.62 23.09, 326.95 -2.21 M296.59 48.94 C306.21 38.89, 310.07 26.3, 336.49 -1.95 M294.97 45.1 C308.73 30.49, 319.98 13.1, 334.64 -1.73 M300 48.12 C312.36 33.75, 326.23 17.73, 338.18 0.97 M297.88 46.29 C308.2 37.67, 314.88 26.68, 338.41 -0.57 M304.29 46.01 C312.5 31.83, 327.82 12.84, 344.19 -2.39 M302.24 49.07 C316.27 31.69, 326.92 18.33, 342.8 -1.42 M308.27 47.69 C326.56 29.79, 342.98 16.06, 351.67 4.23 M307.45 45.59 C319.24 37.85, 325.55 28.55, 348.25 2.04 M317.33 49.45 C329.14 32.67, 342.96 21.04, 357.33 3 M312.87 45.57 C322.59 35.48, 334.79 23.98, 353.69 -1.08 M323.13 50.43 C337.81 32.35, 345.7 18.36, 362.53 1.23 M318.93 46.5 C334.16 31, 344.6 16.83, 359.01 -1.08 M321.24 43.71 C334.71 37.23, 340.78 27.34, 368.84 3.14 M326.42 47.18 C340.43 30.57, 352.97 14.34, 366.17 -1.5 M331.51 43.27 C336.24 40.37, 350 26.22, 371.79 0.89 M330.17 45.22 C338.83 35.48, 350.36 25.28, 370.49 -1.56 M335.7 51 C349.64 33.49, 363.01 16.73, 373.14 1.5 M334.37 46.5 C344.73 34.57, 357.32 23.09, 378.33 1.29 M337.84 43.67 C350.2 32.82, 368.67 20.03, 382.62 1.93 M342.27 46.72 C350.64 33.74, 362.75 21.77, 382.41 0.93 M341.89 44 C363.47 30.52, 370.16 17.66, 390.16 0.02 M347.44 48.87 C352.86 38.63, 364.74 25.69, 387.52 0 M348.05 43.57 C369.13 33.26, 381.65 14.63, 391.69 1.54 M351.56 48.73 C359.98 36.6, 371.8 24.87, 393.77 -0.53 M354.48 49.91 C371.83 30.18, 384.04 8.58, 401.34 -0.86 M355.61 48.38 C366.82 33.97, 377.76 18.82, 398.34 0.09 M361.57 49.42 C370.49 38.85, 379.5 22.84, 405.2 3.41 M361.66 45.7 C376.47 33.27, 388.59 15.03, 402.76 -0.09 M365.67 46.42 C381.88 31.72, 396.21 8.63, 405.6 -2.19 M368.1 47.86 C375.39 35.24, 387.01 22.41, 406.63 -0.22 M371.33 50.15 C385.38 28.86, 405.32 13.27, 414.82 1.74 M371.4 48.84 C388.76 30.32, 404.47 11.07, 414.87 0.85 M377.11 49.74 C394.27 31.68, 406.14 20.03, 419.37 1.47 M377.37 46.91 C386.89 35.66, 396.43 27.57, 419.5 -1.96 M379.76 49.23 C395.97 26.91, 411.2 14.07, 421.73 -2.79 M382.88 46.13 C392.46 32.3, 407.27 19.98, 422.83 1.61 M392.01 50.56 C401.5 35.35, 411.9 22.02, 428.59 -1.93 M387.15 45.87 C398.97 35.35, 408.89 22.61, 431.28 -1.42 M390.79 48.58 C410.88 29.13, 422.56 15.58, 436.61 -2.96 M393.46 46.28 C406.72 30.82, 422.17 11.4, 434.59 -1.71 M399.03 46.06 C411.95 31.07, 434.13 9.18, 436.68 -1.95 M400.42 45.83 C411.9 31.99, 427.1 13.09, 439.58 -2.14 M401.85 48.66 C421.66 33.54, 430.11 13.15, 447.64 -1.09 M403.73 46.75 C411.28 38.53, 419.92 27.64, 445.39 -0.27 M412.36 47.96 C426.69 26.69, 443.81 9.88, 448.57 2.36 M411.4 48.62 C419 34.04, 428.18 23.07, 449.25 1.11 M411.87 48.42 C423.92 35.76, 443.2 16.1, 452.5 -0.98 M413.53 45.76 C429.8 27.95, 445.39 14.36, 457.7 -0.48 M423.67 50.44 C439.17 32.44, 451.57 12.15, 462.69 2.44 M421.56 48.83 C435.59 28.79, 449.53 13.14, 460.38 -1.73 M428.62 46.05 C438.31 27.7, 454.93 15.59, 466.37 0.07 M425.32 47.03 C437.57 31.72, 451.97 19.49, 465.25 -0.01 M434.15 46.19 C441.95 32.22, 457.11 13.21, 470.32 -3 M431.62 45.82 C444.82 32.46, 456.7 13.35, 471.67 0.83 M439.34 43.98 C444.31 35.24, 454.86 16.62, 473.93 3.24 M434.74 48.75 C447.24 35.07, 459.93 21.09, 476.99 0.25 M438.47 50.42 C456.38 36.94, 464.29 20.83, 482.2 -3.03 M441.55 47.66 C452.24 33.79, 468.36 16.62, 483.02 -1.26 M446.81 45.43 C457.85 33.99, 468.53 20.09, 485.36 0.24 M446.74 48.17 C456.83 34.94, 464.69 25.17, 489.16 0.12 M448.82 44.81 C464.03 28.61, 482.91 16.47, 492.6 -1.95 M450.59 47.19 C465.9 27.44, 482.48 8.95, 491.63 0.97 M455.96 51.32 C464.92 37.85, 481.57 20.68, 496.33 -2.74 M458.18 46.47 C468.11 32.23, 479.02 18.72, 497.23 0.2 M462.88 49.58 C478.73 37.21, 489.63 16.42, 505.94 1.68 M461.19 46.02 C476.77 30.09, 489.45 15.04, 502.59 0.49 M465.21 45.12 C479.19 32.5, 497.95 17.14, 512.03 -1.01 M469.13 45.64 C477.56 38.23, 487.44 24.32, 507.92 1.82 M471.81 43.39 C484.08 34.59, 501.61 17.86, 512.17 -0.19 M475.09 46.46 C489.26 29.5, 502.84 14.24, 512.25 -1 M474.5 48.76 C487.48 34.53, 492.74 27.91, 523.14 0.64 M478.96 48.39 C489.46 33.49, 504.31 17.07, 519.2 -0.91 M484.31 43.47 C498.9 28.12, 513.56 8.61, 526.71 -1.11 M485.25 47.63 C495 34.12, 504.74 23.48, 524.21 -1.02 M485.26 50.69 C497.09 40.75, 508.99 23.41, 529.84 -4.11 M490.26 46.18 C504.71 33.23, 517.65 15.91, 528.3 -1.17 M494.56 49.49 C507.76 28.86, 524.47 13.92, 534.48 3.86 M495.9 45.34 C504.49 36.1, 509.77 28.33, 533.32 -0.37 M500.41 45.86 C510.28 38.46, 518.39 26.86, 541.8 0.94 M500.88 47.22 C511.25 35.04, 520.09 24.39, 539.69 0.64 M506.23 43.66 C519.01 27.96, 531.64 15.55, 545.93 2.17 M506.51 48.21 C515.49 37.5, 525.32 26.5, 545.67 0.93 M508.39 43.7 C525.26 35.16, 535.54 16.45, 554.21 -1.51 M511.92 48.49 C524.84 28.42, 542.12 13.18, 553.1 0.85 M516.5 46.67 C530.72 29.87, 544.64 18.28, 556.98 3.76 M515.81 45.56 C531.02 29.23, 545.42 16.15, 554.62 -0.42 M523.12 44.18 C529.4 35.35, 538.11 20.16, 563.75 1.73 M519.72 47.69 C531.4 34.6, 544.91 20.93, 563.48 0.57 M524.05 45.72 C538.02 30.22, 552.28 12.15, 564.39 1.83 M525.76 47.48 C536.49 32.06, 551.7 17.17, 568.1 1.82 M528.04 45.72 C544.46 36.79, 551.74 26.43, 570.69 5.15 M531.88 47.3 C544.64 33.19, 557.85 19.32, 567.17 8.41 M536.41 51.25 C546.45 33.88, 557.62 25.2, 565.93 13.9 M536.94 45.57 C547.04 34.31, 558.26 19.96, 564.77 12.41 M540.07 45.28 C548.27 37.88, 558.63 34.16, 568.02 17.44 M543.25 46.52 C548.79 38.74, 556.98 31.09, 566.95 17.46 M548.57 45.95 C553.58 44.45, 554.54 36.42, 563.85 26.08 M547.12 45.91 C556.18 39.57, 561.11 32, 565.58 23 M553.65 46.3 C560.32 44.67, 562.38 36.43, 568.86 34.76 M551.93 45.32 C559.27 41.2, 564.66 35.7, 567.47 30.53 M555.82 45.94 C562.41 42.35, 563.26 43.19, 567.71 35.1 M558.86 46.17 C559.57 45.97, 561.62 40.78, 565.46 37.2 M563.63 48 C565.2 44.79, 565.03 43.61, 567.22 44.19 M563.27 47.42 C564.26 46.42, 565.26 45.33, 566.42 43.04" stroke="#228be6" stroke-width="0.5" fill="none"></path><path d="M0.56 0.14 C153.33 -1.52, 303.45 -1.39, 564.92 0.4 M0.44 0.01 C207.99 4.4, 415.05 3.03, 565.25 -0.51 M566.43 -0.92 C566.06 21.64, 569.74 37.45, 562.81 46.3 M565.7 -1.13 C568.16 13.04, 564.88 27.16, 566.96 44.93 M566.04 47.13 C350.76 45.08, 138.5 45.73, 0.81 46.56 M566.61 46.66 C380 49.05, 192.84 48.79, 0.64 45.28 M0.73 44.72 C2.01 29.73, -2.18 21.36, -1.41 -0.38 M1.44 47.35 C0.43 35.71, 2.08 23.13, -1.54 1.2" stroke="#000000" stroke-width="1" fill="none"></path></g><g transform="translate(55.5 15) rotate(0 237.5 18)"><text x="237.5" y="25" font-family="Virgil, Segoe UI Emoji" font-size="28px" fill="#000000" text-anchor="middle" style="white-space: pre;" direction="ltr">Defining the goal of a ML Project</text></g><g stroke-linecap="round" transform="translate(12.875427392519669 55.93811414008087) rotate(0 676.3257631366073 466.1360656379302)"><path d="M1.02 -0.05 C448.35 -0.89, 897.97 -0.56, 1353.72 -1.4 M1353.5 1.35 C1356.61 201.64, 1355.3 405.02, 1354.04 932.68 M1352.58 933.81 C1057.97 930.51, 759.22 929.89, -0.3 933 M1.4 932.37 C-0.11 715.81, 1.89 496.39, 1.26 1.19" stroke="#000000" stroke-width="1.5" fill="none" stroke-dasharray="8 9"></path></g><g transform="translate(47.05356728204606 91.03854362134734) rotate(0 390 12.5)"><text x="0" y="18" font-family="Virgil, Segoe UI Emoji" font-size="20px" fill="#000000" text-anchor="start" style="white-space: pre;" direction="ltr">The model is typically used as a part of a system that serves some purpose.</text></g><g stroke-linecap="round" transform="translate(51.25304978836539 268.4920604200088) rotate(0 88.5 32.5)"><path d="M2.48 6.13 C2.48 6.13, 2.48 6.13, 2.48 6.13 M2.48 6.13 C2.48 6.13, 2.48 6.13, 2.48 6.13 M1.56 13.28 C3.97 11.13, 6.96 7.17, 8.78 4.98 M1.56 13.28 C3.14 11.85, 4.71 9.98, 8.78 4.98 M1.3 19.68 C3.17 14.96, 9.46 12.23, 17.7 0.81 M1.3 19.68 C5.9 14.46, 11.87 7.99, 17.7 0.81 M1.69 25.32 C9.89 14.8, 16.41 7.64, 22.69 1.17 M1.69 25.32 C6.87 17.4, 14.13 11.65, 22.69 1.17 M1.43 31.72 C7.15 26.73, 13.61 20.29, 28.33 0.78 M1.43 31.72 C7.01 24.95, 13.38 19.62, 28.33 0.78 M1.17 38.12 C10.54 26.52, 16.69 16.95, 33.32 1.14 M1.17 38.12 C8.51 28.14, 18.87 18.76, 33.32 1.14 M1.56 43.76 C10.42 33.86, 17.54 25.83, 38.3 1.5 M1.56 43.76 C11.2 31.58, 20.77 21.8, 38.3 1.5 M1.3 50.16 C16.43 32.64, 33.05 10.59, 43.95 1.1 M1.3 50.16 C15.41 32.57, 31.53 16.68, 43.95 1.1 M3.01 54.29 C17.74 34.24, 36.37 17.95, 48.93 1.46 M3.01 54.29 C15.98 38.21, 30.35 23.27, 48.93 1.46 M3.4 59.93 C18.91 43.88, 30.67 26.1, 54.58 1.07 M3.4 59.93 C19.35 41.88, 33.83 25.04, 54.58 1.07 M6.42 62.56 C18.31 46.89, 30.29 37.14, 59.56 1.43 M6.42 62.56 C20.42 46.56, 32.56 31.97, 59.56 1.43 M10.1 64.43 C29.27 43.19, 44.12 22.73, 65.21 1.03 M10.1 64.43 C25.89 47.66, 40.6 30.59, 65.21 1.03 M15.08 64.79 C34.59 41.96, 52.72 21.05, 70.19 1.39 M15.08 64.79 C28.56 50, 41.18 35.87, 70.19 1.39 M20.73 64.39 C40.3 44.12, 57.05 22.48, 75.18 1.75 M20.73 64.39 C38.66 43.29, 56.52 23.74, 75.18 1.75 M25.71 64.75 C38.85 48.82, 55.83 32.64, 80.82 1.36 M25.71 64.75 C45.33 42.76, 61.87 22.65, 80.82 1.36 M30.7 65.11 C52.37 43.62, 70.18 19.17, 85.81 1.72 M30.7 65.11 C48.8 43.5, 68.02 19.89, 85.81 1.72 M36.34 64.72 C55.49 42.62, 76.65 21.29, 91.45 1.32 M36.34 64.72 C56.76 40.73, 75.61 17.52, 91.45 1.32 M41.33 65.08 C57.33 46.52, 76.36 23.63, 96.44 1.68 M41.33 65.08 C60.19 42.12, 78.76 20.01, 96.44 1.68 M46.97 64.68 C61.23 48.52, 74.01 35.2, 102.08 1.29 M46.97 64.68 C66.55 42.27, 85.43 20.49, 102.08 1.29 M51.96 65.04 C70.51 44.44, 89.84 21.38, 107.07 1.65 M51.96 65.04 C68.21 46.25, 84.64 25.79, 107.07 1.65 M57.6 64.65 C75.65 42.7, 95.57 20.78, 112.06 2.01 M57.6 64.65 C72.46 48.19, 86.24 32.56, 112.06 2.01 M62.59 65.01 C83.47 41.54, 103.98 13.05, 117.7 1.61 M62.59 65.01 C82.5 41.81, 102.6 19.64, 117.7 1.61 M67.58 65.37 C87.83 41.54, 109.36 15.93, 122.69 1.97 M67.58 65.37 C88.42 40.3, 109.75 15.98, 122.69 1.97 M73.22 64.98 C87.78 46.61, 103.14 30.21, 128.33 1.58 M73.22 64.98 C87.99 50.49, 100.74 33.53, 128.33 1.58 M78.21 65.34 C93.54 49.51, 109.83 29.14, 133.32 1.94 M78.21 65.34 C93.08 48.96, 107.21 31.79, 133.32 1.94 M83.85 64.94 C97.12 50.35, 109.94 34.6, 138.96 1.55 M83.85 64.94 C106.5 38.38, 128.09 13.42, 138.96 1.55 M88.84 65.3 C101.5 52.66, 110.38 38.39, 143.95 1.91 M88.84 65.3 C105.18 45.9, 121.72 26.66, 143.95 1.91 M94.48 64.91 C116.94 41.5, 133.56 16.57, 148.93 2.27 M94.48 64.91 C109.18 48.45, 123.64 30.21, 148.93 2.27 M99.47 65.27 C116.97 44.96, 138.76 23.46, 154.58 1.87 M99.47 65.27 C118.74 43.67, 136.32 22.62, 154.58 1.87 M104.46 65.63 C124.53 43.25, 148.02 18.77, 159.56 2.23 M104.46 65.63 C117.88 50.26, 130.83 33.48, 159.56 2.23 M110.1 65.23 C129.66 42.34, 148.24 21.75, 165.21 1.84 M110.1 65.23 C129.11 43.01, 146.34 21.64, 165.21 1.84 M115.09 65.59 C130.09 48.57, 139.68 36.49, 169.54 2.95 M115.09 65.59 C130.97 47.2, 146.27 29.85, 169.54 2.95 M120.73 65.2 C134.93 47.5, 149.05 30.51, 173.21 4.82 M120.73 65.2 C134.09 50.04, 146.88 36.17, 173.21 4.82 M125.72 65.56 C143.95 43.71, 163.22 26.53, 176.23 7.45 M125.72 65.56 C142.41 46.02, 158.1 27.69, 176.23 7.45 M131.36 65.16 C142.06 48.82, 155.92 37.8, 177.28 12.33 M131.36 65.16 C147.11 46.05, 163.92 27.62, 177.28 12.33 M136.35 65.52 C150.09 50.57, 161.37 33.06, 177.02 18.73 M136.35 65.52 C145.43 56.25, 155.05 44.88, 177.02 18.73 M141.33 65.88 C149.51 54.98, 160.04 45.93, 176.76 25.13 M141.33 65.88 C152.05 52.75, 165.34 37.32, 176.76 25.13 M146.98 65.49 C154.29 56.34, 162.33 49.83, 176.5 31.53 M146.98 65.49 C153.22 57.94, 160.51 50.34, 176.5 31.53 M151.96 65.85 C157.57 60.95, 165.59 51.93, 176.24 37.92 M151.96 65.85 C157.54 59.6, 162.67 54, 176.24 37.92 M157.61 65.45 C163.27 61.85, 164.62 55.22, 176.63 43.57 M157.61 65.45 C165.32 58.35, 170.35 50.45, 176.63 43.57 M161.94 66.57 C167.65 63.91, 170.4 58.39, 176.37 49.97 M161.94 66.57 C167.58 59.9, 172.52 53.93, 176.37 49.97 M168.89 64.67 C170.37 62.76, 171.01 61.86, 176.11 56.36 M168.89 64.67 C171.73 61.61, 173.93 58.4, 176.11 56.36" stroke="#fab005" stroke-width="0.5" fill="none"></path><path d="M16.25 0 M16.25 0 C69.41 2.02, 121.08 0.8, 160.75 0 M16.25 0 C69.4 0.89, 124.51 0.55, 160.75 0 M160.75 0 C172.82 -1.06, 175.18 6.03, 177 16.25 M160.75 0 C170.2 1.18, 177.84 3.46, 177 16.25 M177 16.25 C177.87 26.21, 177.07 33.66, 177 48.75 M177 16.25 C177.75 24.68, 175.98 32.09, 177 48.75 M177 48.75 C177.86 60.3, 171.48 65.82, 160.75 65 M177 48.75 C179.17 61.08, 172.15 63.31, 160.75 65 M160.75 65 C125.29 64.29, 90.82 66.51, 16.25 65 M160.75 65 C118.48 65.13, 75.23 66.55, 16.25 65 M16.25 65 C6.97 66.51, 1.14 59.14, 0 48.75 M16.25 65 C4.98 64.68, 1.37 57.38, 0 48.75 M0 48.75 C-0.2 41.48, -2.06 31.44, 0 16.25 M0 48.75 C0.53 40.95, 0.19 33.52, 0 16.25 M0 16.25 C-0.3 5.33, 4.58 -1.19, 16.25 0 M0 16.25 C1.91 3.24, 5.85 -0.96, 16.25 0" stroke="#000000" stroke-width="1" fill="none"></path></g><g transform="translate(67.25304978836539 275.9920604200088) rotate(0 72.5 25)"><text x="72.5" y="18" font-family="Virgil, Segoe UI Emoji" font-size="20px" fill="#000000" text-anchor="middle" style="white-space: pre;" direction="ltr">What a model </text><text x="72.5" y="43" font-family="Virgil, Segoe UI Emoji" font-size="20px" fill="#000000" text-anchor="middle" style="white-space: pre;" direction="ltr">can do?</text></g><g transform="translate(161.48236776846898 224.53215535946765) rotate(0 48 12.5)"><text x="48" y="18" font-family="Virgil, Segoe UI Emoji" font-size="20px" fill="#000000" text-anchor="middle" style="white-space: pre;" direction="ltr">Automate</text></g><g transform="translate(236.5454597977223 189.02385485423838) rotate(0 63.5 12.5)"><text x="63.5" y="18" font-family="Virgil, Segoe UI Emoji" font-size="20px" fill="#000000" text-anchor="middle" style="white-space: pre;" direction="ltr">Alert/Prompt</text></g><g transform="translate(287.6590237610235 237.1149089842893) rotate(0 42 12.5)"><text x="42" y="18" font-family="Virgil, Segoe UI Emoji" font-size="20px" fill="#000000" text-anchor="middle" style="white-space: pre;" direction="ltr">Organize</text></g><g transform="translate(285.2732939417301 288.75060301508165) rotate(0 45.5 12.5)"><text x="45.5" y="18" font-family="Virgil, Segoe UI Emoji" font-size="20px" fill="#000000" text-anchor="middle" style="white-space: pre;" direction="ltr">Annotate</text></g><g transform="translate(279.9329021663789 333.5672173671628) rotate(0 40 12.5)"><text x="40" y="18" font-family="Virgil, Segoe UI Emoji" font-size="20px" fill="#000000" text-anchor="middle" style="white-space: pre;" direction="ltr">Extract</text></g><g transform="translate(154.80889069812474 354.12077189208685) rotate(0 52 12.5)"><text x="52" y="18" font-family="Virgil, Segoe UI Emoji" font-size="20px" fill="#000000" text-anchor="middle" style="white-space: pre;" direction="ltr">Recommend</text></g><g transform="translate(282.9157907611316 379.39681535728414) rotate(0 39 12.5)"><text x="39" y="18" font-family="Virgil, Segoe UI Emoji" font-size="20px" fill="#000000" text-anchor="middle" style="white-space: pre;" direction="ltr">Classify</text></g><g transform="translate(408.3891928116909 348.12468197993985) rotate(0 42 12.5)"><text x="42" y="18" font-family="Virgil, Segoe UI Emoji" font-size="20px" fill="#000000" text-anchor="middle" style="white-space: pre;" direction="ltr">Quantify</text></g><g transform="translate(396.827206584735 223.7421016838125) rotate(0 51 12.5)"><text x="51" y="18" font-family="Virgil, Segoe UI Emoji" font-size="20px" fill="#000000" text-anchor="middle" style="white-space: pre;" direction="ltr">Synthesize</text></g><g transform="translate(395.0818917547258 151.11865190779827) rotate(0 49 25)"><text x="49" y="18" font-family="Virgil, Segoe UI Emoji" font-size="20px" fill="#000000" text-anchor="middle" style="white-space: pre;" direction="ltr">Answer a </text><text x="49" y="43" font-family="Virgil, Segoe UI Emoji" font-size="20px" fill="#000000" text-anchor="middle" style="white-space: pre;" direction="ltr">question</text></g><g transform="translate(390.10650557351255 396.35394714520226) rotate(0 50 25)"><text x="50" y="18" font-family="Virgil, Segoe UI Emoji" font-size="20px" fill="#000000" text-anchor="middle" style="white-space: pre;" direction="ltr">Transform</text><text x="50" y="43" font-family="Virgil, Segoe UI Emoji" font-size="20px" fill="#000000" text-anchor="middle" style="white-space: pre;" direction="ltr">Input</text></g><g transform="translate(423.39385852342 270.27235117510463) rotate(0 40 25)"><text x="40" y="18" font-family="Virgil, Segoe UI Emoji" font-size="20px" fill="#000000" text-anchor="middle" style="white-space: pre;" direction="ltr">Detect </text><text x="40" y="43" font-family="Virgil, Segoe UI Emoji" font-size="20px" fill="#000000" text-anchor="middle" style="white-space: pre;" direction="ltr">anomaly</text></g><g transform="translate(149.5762612302742 219.98652198144373) rotate(0 4.5 18)"><text x="4.5" y="25" font-family="Virgil, Segoe UI Emoji" font-size="28px" fill="#e67700" text-anchor="middle" style="white-space: pre;" direction="ltr">1</text></g><g transform="translate(215.70482356272987 183.62696558407515) rotate(0 10.5 18)"><text x="10.5" y="25" font-family="Virgil, Segoe UI Emoji" font-size="28px" fill="#e67700" text-anchor="middle" style="white-space: pre;" direction="ltr">2</text></g><g transform="translate(268.72299254685277 232.8513896668701) rotate(0 10 18)"><text x="10" y="25" font-family="Virgil, Segoe UI Emoji" font-size="28px" fill="#e67700" text-anchor="middle" style="white-space: pre;" direction="ltr">3</text></g><g transform="translate(266.2853281753996 284.38662802165345) rotate(0 9.5 18)"><text x="9.5" y="25" font-family="Virgil, Segoe UI Emoji" font-size="28px" fill="#e67700" text-anchor="middle" style="white-space: pre;" direction="ltr">4</text></g><g transform="translate(260.6985766178768 327.68750412312147) rotate(0 9 18)"><text x="9" y="25" font-family="Virgil, Segoe UI Emoji" font-size="28px" fill="#e67700" text-anchor="middle" style="white-space: pre;" direction="ltr">5</text></g><g transform="translate(265.6377174796007 375.6656463513573) rotate(0 8 18)"><text x="8" y="25" font-family="Virgil, Segoe UI Emoji" font-size="28px" fill="#e67700" text-anchor="middle" style="white-space: pre;" direction="ltr">7</text></g><g transform="translate(134.39458357921103 349.45517714005473) rotate(0 9.5 18)"><text x="9.5" y="25" font-family="Virgil, Segoe UI Emoji" font-size="28px" fill="#e67700" text-anchor="middle" style="white-space: pre;" direction="ltr">6</text></g><g transform="translate(383.69397011995716 343.09169621232286) rotate(0 11 18)"><text x="11" y="25" font-family="Virgil, Segoe UI Emoji" font-size="28px" fill="#e67700" text-anchor="middle" style="white-space: pre;" direction="ltr">8</text></g><g transform="translate(377.44848035007817 218.9827948627426) rotate(0 9 18)"><text x="9" y="25" font-family="Virgil, Segoe UI Emoji" font-size="28px" fill="#e67700" text-anchor="middle" style="white-space: pre;" direction="ltr">9</text></g><g transform="translate(364.82613150747784 162.28067965260925) rotate(0 14 18)"><text x="14" y="25" font-family="Virgil, Segoe UI Emoji" font-size="28px" fill="#e67700" text-anchor="middle" style="white-space: pre;" direction="ltr">10</text></g><g transform="translate(395.23466333491433 280.94080706069326) rotate(0 14.5 18)"><text x="14.5" y="25" font-family="Virgil, Segoe UI Emoji" font-size="28px" fill="#e67700" text-anchor="middle" style="white-space: pre;" direction="ltr">12</text></g><g transform="translate(369.91738432186503 403.0452968859827) rotate(0 8 18)"><text x="8" y="25" font-family="Virgil, Segoe UI Emoji" font-size="28px" fill="#e67700" text-anchor="middle" style="white-space: pre;" direction="ltr">11</text></g><g transform="translate(888.8472477157839 126.82470272491628) rotate(0 62 18)"><text x="62" y="25" font-family="Virgil, Segoe UI Emoji" font-size="28px" fill="#c92a2a" text-anchor="middle" style="white-space: pre;" direction="ltr">Examples</text></g><g transform="translate(667.206824528671 201.37030084925573) rotate(0 86.5 25)"><text x="86.5" y="18" font-family="Virgil, Segoe UI Emoji" font-size="20px" fill="#000000" text-anchor="middle" style="white-space: pre;" direction="ltr">Taking action on </text><text x="86.5" y="43" font-family="Virgil, Segoe UI Emoji" font-size="20px" fill="#000000" text-anchor="middle" style="white-space: pre;" direction="ltr">the user’s behalf</text></g><g transform="translate(697.1546807598888 176.78590759926192) rotate(0 58.5 12.5)"><text x="0" y="18" font-family="Virgil, Segoe UI Emoji" font-size="20px" fill="#e67700" text-anchor="start" style="white-space: pre;" direction="ltr">1. Automate</text></g><g transform="translate(1064.139098208545 177.4977116354912) rotate(0 78.5 12.5)"><text x="0" y="18" font-family="Virgil, Segoe UI Emoji" font-size="20px" fill="#e67700" text-anchor="start" style="white-space: pre;" direction="ltr">2. Alert/Prompt</text></g><g transform="translate(985.0049888453086 203.40264196982935) rotate(0 165.5 25)"><text x="165.5" y="18" font-family="Virgil, Segoe UI Emoji" font-size="20px" fill="#000000" text-anchor="middle" style="white-space: pre;" direction="ltr">Asking a system administrator if </text><text x="165.5" y="43" font-family="Virgil, Segoe UI Emoji" font-size="20px" fill="#000000" text-anchor="middle" style="white-space: pre;" direction="ltr">the traffic seems suspicious</text></g><g transform="translate(700.7583813875808 275.8529742414921) rotate(0 56.5 12.5)"><text x="0" y="18" font-family="Virgil, Segoe UI Emoji" font-size="20px" fill="#e67700" text-anchor="start" style="white-space: pre;" direction="ltr">3. Organize</text></g><g transform="translate(580.7791778769451 303.40409262090725) rotate(0 175 37.5)"><text x="175" y="18" font-family="Virgil, Segoe UI Emoji" font-size="20px" fill="#000000" text-anchor="middle" style="white-space: pre;" direction="ltr">Sorting pictures or documents </text><text x="175" y="43" font-family="Virgil, Segoe UI Emoji" font-size="20px" fill="#000000" text-anchor="middle" style="white-space: pre;" direction="ltr">in the order of similarity according </text><text x="175" y="68" font-family="Virgil, Segoe UI Emoji" font-size="20px" fill="#000000" text-anchor="middle" style="white-space: pre;" direction="ltr">to the user’s preferences</text></g><g transform="translate(1086.4521144614919 285.29165260001355) rotate(0 59.5 12.5)"><text x="0" y="18" font-family="Virgil, Segoe UI Emoji" font-size="20px" fill="#e67700" text-anchor="start" style="white-space: pre;" direction="ltr">4. Annotate</text></g><g transform="translate(1007.3926779739413 314.63500349745664) rotate(0 148 25)"><text x="148" y="18" font-family="Virgil, Segoe UI Emoji" font-size="20px" fill="#000000" text-anchor="middle" style="white-space: pre;" direction="ltr">Highlighting in a text phrases </text><text x="148" y="43" font-family="Virgil, Segoe UI Emoji" font-size="20px" fill="#000000" text-anchor="middle" style="white-space: pre;" direction="ltr">relevant to the user's task</text></g><g transform="translate(699.7779422801459 407.5883796709968) rotate(0 54 12.5)"><text x="0" y="18" font-family="Virgil, Segoe UI Emoji" font-size="20px" fill="#e67700" text-anchor="start" style="white-space: pre;" direction="ltr">5. Extract</text></g><g transform="translate(619.786080923137 432.67704087317) rotate(0 139.5 25)"><text x="139.5" y="18" font-family="Virgil, Segoe UI Emoji" font-size="20px" fill="#000000" text-anchor="middle" style="white-space: pre;" direction="ltr">Detecting names, companies </text><text x="139.5" y="43" font-family="Virgil, Segoe UI Emoji" font-size="20px" fill="#000000" text-anchor="middle" style="white-space: pre;" direction="ltr">or locations in a text</text></g><g transform="translate(1083.0968876019106 392.38665393289375) rotate(0 66 12.5)"><text x="0" y="18" font-family="Virgil, Segoe UI Emoji" font-size="20px" fill="#e67700" text-anchor="start" style="white-space: pre;" direction="ltr">6. Recommend</text></g><g transform="translate(974.393495751202 419.9236379756676) rotate(0 180.5 50)"><text x="180.5" y="18" font-family="Virgil, Segoe UI Emoji" font-size="20px" fill="#000000" text-anchor="middle" style="white-space: pre;" direction="ltr">Showing to a user highly relevant </text><text x="180.5" y="43" font-family="Virgil, Segoe UI Emoji" font-size="20px" fill="#000000" text-anchor="middle" style="white-space: pre;" direction="ltr">items in a large collection based on </text><text x="180.5" y="68" font-family="Virgil, Segoe UI Emoji" font-size="20px" fill="#000000" text-anchor="middle" style="white-space: pre;" direction="ltr">user's reactions to the </text><text x="180.5" y="93" font-family="Virgil, Segoe UI Emoji" font-size="20px" fill="#000000" text-anchor="middle" style="white-space: pre;" direction="ltr">past recommendations</text></g><g transform="translate(173.57985558899418 523.4639908156732) rotate(0 52 12.5)"><text x="0" y="18" font-family="Virgil, Segoe UI Emoji" font-size="20px" fill="#e67700" text-anchor="start" style="white-space: pre;" direction="ltr">7. Classify</text></g><g transform="translate(46.48109399385794 558.5604003163517) rotate(0 181.5 37.5)"><text x="181.5" y="18" font-family="Virgil, Segoe UI Emoji" font-size="20px" fill="#000000" text-anchor="middle" style="white-space: pre;" direction="ltr">Dispatching input examples into one, </text><text x="181.5" y="43" font-family="Virgil, Segoe UI Emoji" font-size="20px" fill="#000000" text-anchor="middle" style="white-space: pre;" direction="ltr">or several, of a predefined set </text><text x="181.5" y="68" font-family="Virgil, Segoe UI Emoji" font-size="20px" fill="#000000" text-anchor="middle" style="white-space: pre;" direction="ltr">of distinctly-named groups</text></g><g transform="translate(512.3225993085707 527.4202400189151) rotate(0 57.5 12.5)"><text x="0" y="18" font-family="Virgil, Segoe UI Emoji" font-size="20px" fill="#e67700" text-anchor="start" style="white-space: pre;" direction="ltr">8. Quantify</text></g><g transform="translate(488.4604941793541 561.6898397243112) rotate(0 79.5 25)"><text x="79.5" y="18" font-family="Virgil, Segoe UI Emoji" font-size="20px" fill="#000000" text-anchor="middle" style="white-space: pre;" direction="ltr">Assigning a price</text><text x="79.5" y="43" font-family="Virgil, Segoe UI Emoji" font-size="20px" fill="#000000" text-anchor="middle" style="white-space: pre;" direction="ltr">to a house</text></g><g transform="translate(771.4325277115568 536.8807165890285) rotate(0 64.5 12.5)"><text x="0" y="18" font-family="Virgil, Segoe UI Emoji" font-size="20px" fill="#e67700" text-anchor="start" style="white-space: pre;" direction="ltr">9. Synthesize</text></g><g transform="translate(729.8981627718013 570.2355789584144) rotate(0 109.5 37.5)"><text x="109.5" y="18" font-family="Virgil, Segoe UI Emoji" font-size="20px" fill="#000000" text-anchor="middle" style="white-space: pre;" direction="ltr">Generating new images</text><text x="109.5" y="43" font-family="Virgil, Segoe UI Emoji" font-size="20px" fill="#000000" text-anchor="middle" style="white-space: pre;" direction="ltr">similar to the images</text><text x="109.5" y="68" font-family="Virgil, Segoe UI Emoji" font-size="20px" fill="#000000" text-anchor="middle" style="white-space: pre;" direction="ltr">in a collection</text></g><g transform="translate(1062.7568054355788 551.7582435708846) rotate(0 97 12.5)"><text x="0" y="18" font-family="Virgil, Segoe UI Emoji" font-size="20px" fill="#e67700" text-anchor="start" style="white-space: pre;" direction="ltr">10. Answer Question</text></g><g transform="translate(1083.3770419954799 589.5202328188261) rotate(0 74.5 25)"><text x="74.5" y="18" font-family="Virgil, Segoe UI Emoji" font-size="20px" fill="#000000" text-anchor="middle" style="white-space: pre;" direction="ltr">"Are these two</text><text x="74.5" y="43" font-family="Virgil, Segoe UI Emoji" font-size="20px" fill="#000000" text-anchor="middle" style="white-space: pre;" direction="ltr">images similar?"</text></g><g transform="translate(416.19482267249623 659.6691255017922) rotate(0 95 12.5)"><text x="0" y="18" font-family="Virgil, Segoe UI Emoji" font-size="20px" fill="#e67700" text-anchor="start" style="white-space: pre;" direction="ltr">11. Transform Input</text></g><g transform="translate(380.13105923277817 699.1897491583786) rotate(0 134 25)"><text x="134" y="18" font-family="Virgil, Segoe UI Emoji" font-size="20px" fill="#000000" text-anchor="middle" style="white-space: pre;" direction="ltr">Reducing dimensionality for </text><text x="134" y="43" font-family="Virgil, Segoe UI Emoji" font-size="20px" fill="#000000" text-anchor="middle" style="white-space: pre;" direction="ltr">visualization purposes</text></g><g transform="translate(785.9121813167221 659.099992864938) rotate(0 95 12.5)"><text x="0" y="18" font-family="Virgil, Segoe UI Emoji" font-size="20px" fill="#e67700" text-anchor="start" style="white-space: pre;" direction="ltr">12. Detect Anomaly</text></g><g transform="translate(761.4829770155984 696.3796810375989) rotate(0 117.5 25)"><text x="117.5" y="18" font-family="Virgil, Segoe UI Emoji" font-size="20px" fill="#000000" text-anchor="middle" style="white-space: pre;" direction="ltr">Ransomware automatic </text><text x="117.5" y="43" font-family="Virgil, Segoe UI Emoji" font-size="20px" fill="#000000" text-anchor="middle" style="white-space: pre;" direction="ltr">detection in personal pc</text></g><g stroke-linecap="round" transform="translate(15.043764612806626 128.6803691305504) rotate(0 259.2574661374565 175.6047529457628)"><path d="M32 0 M32 0 C190.56 2.84, 347.53 1.21, 486.51 0 M486.51 0 C507.51 -1.47, 519.22 10.82, 518.51 32 M518.51 32 C519.86 101.18, 519.85 170.03, 518.51 319.21 M518.51 319.21 C520.28 340.99, 508.92 349.82, 486.51 351.21 M486.51 351.21 C375.25 352.27, 262.19 350.82, 32 351.21 M32 351.21 C12.34 350.75, 1.31 340.08, 0 319.21 M0 319.21 C-2.59 244.15, -2.58 169.41, 0 32 M0 32 C0.65 12.34, 10.33 1.43, 32 0" stroke="#000000" stroke-width="2.5" fill="none" stroke-dasharray="1.5 8"></path></g><g stroke-linecap="round" transform="translate(275.6029978041406 841.9141154155841) rotate(0 88.5 37.5)"><path d="M4.99 4.34 C4.99 4.34, 4.99 4.34, 4.99 4.34 M4.99 4.34 C4.99 4.34, 4.99 4.34, 4.99 4.34 M0.79 15.26 C3.44 12.68, 6.94 9.68, 11.95 2.43 M0.79 15.26 C4.48 11.25, 8.28 6.79, 11.95 2.43 M1.19 20.91 C4.7 16.6, 7.62 11.31, 18.9 0.53 M1.19 20.91 C6.48 14.17, 12.77 9.3, 18.9 0.53 M0.93 27.31 C10.54 15.75, 19.04 4.52, 24.54 0.14 M0.93 27.31 C6.09 20.35, 13.16 14.77, 24.54 0.14 M1.32 32.95 C12.2 21.67, 20 11.32, 29.53 0.5 M1.32 32.95 C8.44 25.17, 13.55 18.92, 29.53 0.5 M1.06 39.35 C10.18 30.51, 17.77 17.57, 35.17 0.1 M1.06 39.35 C8.39 31.26, 16 20.67, 35.17 0.1 M0.8 45.74 C15.9 26.27, 30.94 11.47, 40.16 0.46 M0.8 45.74 C10.38 34.2, 22.53 21.65, 40.16 0.46 M1.19 51.39 C10.3 40.83, 21.28 27.64, 45.8 0.07 M1.19 51.39 C12.8 38.06, 26.01 23.4, 45.8 0.07 M0.93 57.78 C18.19 37.96, 36.16 16.23, 50.79 0.43 M0.93 57.78 C12.6 43.38, 24.65 30.97, 50.79 0.43 M1.98 62.67 C23.03 38.38, 43.06 13.52, 56.43 0.03 M1.98 62.67 C20.88 41.25, 39.88 19.37, 56.43 0.03 M4.34 66.05 C21.92 45.11, 43 23.37, 61.42 0.39 M4.34 66.05 C19.12 48.64, 35.01 29.86, 61.42 0.39 M5.4 70.94 C26.4 46.6, 47.33 21.65, 67.06 0 M5.4 70.94 C27.55 44.9, 51.36 17.46, 67.06 0 M9.07 72.81 C19.68 58.44, 34.17 44.24, 72.05 0.36 M9.07 72.81 C26.53 50.11, 45.97 28.23, 72.05 0.36 M12.09 75.43 C34.63 49.58, 54.05 26.85, 77.69 -0.04 M12.09 75.43 C27.61 57.12, 44.28 39.01, 77.69 -0.04 M17.08 75.79 C37.62 51.43, 60.33 26.68, 82.68 0.32 M17.08 75.79 C41.61 46.31, 65.62 17.67, 82.68 0.32 M21.41 76.91 C46.03 46.64, 73.38 17.89, 88.32 -0.07 M21.41 76.91 C36.49 58.69, 52.06 41.31, 88.32 -0.07 M26.39 77.27 C45.74 56.35, 60.63 35.72, 93.31 0.29 M26.39 77.27 C49.39 49.7, 74.19 21.96, 93.31 0.29 M32.04 76.87 C47.05 61.3, 63.18 43.87, 98.3 0.65 M32.04 76.87 C54.76 51.01, 76.66 25.05, 98.3 0.65 M37.02 77.23 C53.47 59.2, 69.76 40.01, 103.94 0.25 M37.02 77.23 C53.26 58.79, 68.13 41.59, 103.94 0.25 M42.67 76.84 C69.05 47.41, 90.51 19.5, 108.93 0.61 M42.67 76.84 C66.27 49.67, 89.41 23.45, 108.93 0.61 M47.65 77.2 C65.96 52.69, 88.17 30.38, 114.57 0.22 M47.65 77.2 C71.97 49.34, 96.34 21.47, 114.57 0.22 M53.3 76.81 C80.7 48.62, 106.74 16.04, 119.56 0.58 M53.3 76.81 C68.75 59.14, 83.53 41.01, 119.56 0.58 M58.28 77.17 C82.52 48.23, 103.16 21.36, 125.2 0.19 M58.28 77.17 C77.16 54.5, 98.02 30.91, 125.2 0.19 M63.93 76.77 C82.9 51.45, 104.69 30.02, 130.19 0.55 M63.93 76.77 C81.7 57.27, 98.21 35.87, 130.19 0.55 M68.91 77.13 C86.36 54.84, 108.44 30.21, 135.83 0.15 M68.91 77.13 C87.56 54.61, 108.53 31.75, 135.83 0.15 M73.9 77.49 C97.48 50.64, 118.09 23.77, 140.82 0.51 M73.9 77.49 C95.31 52.3, 118.51 25.64, 140.82 0.51 M79.54 77.1 C100.72 53.08, 121.64 31.43, 146.46 0.12 M79.54 77.1 C95.8 59.57, 109.85 43.02, 146.46 0.12 M84.53 77.46 C110.56 47.53, 140.28 14.63, 151.45 0.48 M84.53 77.46 C102.62 57.1, 119.21 38.21, 151.45 0.48 M90.17 77.06 C116 44.51, 144.66 17.05, 157.09 0.08 M90.17 77.06 C108.68 54.57, 128.37 31.19, 157.09 0.08 M95.16 77.42 C118.81 49.96, 145.72 19.54, 160.77 1.95 M95.16 77.42 C111.27 58.5, 128.12 39.3, 160.77 1.95 M100.8 77.03 C126.08 45.65, 151.54 15.16, 166.41 1.56 M100.8 77.03 C119.17 56.78, 137.01 34.78, 166.41 1.56 M105.79 77.39 C124.81 58.72, 142.37 36.15, 170.09 3.43 M105.79 77.39 C123.73 58.2, 138.49 39.22, 170.09 3.43 M111.43 76.99 C134.81 48.22, 158.43 22.4, 173.76 5.3 M111.43 76.99 C131.42 54.05, 152.12 31.09, 173.76 5.3 M116.42 77.35 C131.37 57.99, 148.16 41.78, 175.47 9.43 M116.42 77.35 C129.66 63.74, 141.37 49.99, 175.47 9.43 M122.06 76.96 C136.19 58.73, 153.5 41.9, 177.17 13.56 M122.06 76.96 C140.22 55.78, 158.73 35.37, 177.17 13.56 M127.05 77.32 C145.96 57.48, 163.37 35.13, 179.54 16.94 M127.05 77.32 C145.73 56.27, 165.48 33.2, 179.54 16.94 M132.69 76.92 C142.49 63.48, 155.18 54.19, 179.93 22.59 M132.69 76.92 C148.33 58.12, 163.79 39.84, 179.93 22.59 M137.68 77.28 C147.55 63.6, 160.11 54.18, 179.67 28.98 M137.68 77.28 C153.99 59.41, 170.43 39.2, 179.67 28.98 M143.32 76.89 C149.91 68.35, 156.9 58.22, 179.41 35.38 M143.32 76.89 C151.09 67.63, 158.16 59.7, 179.41 35.38 M148.31 77.25 C155.08 68.04, 165.89 57.49, 179.8 41.02 M148.31 77.25 C157.13 67.32, 165.56 57.67, 179.8 41.02 M153.95 76.86 C160.04 68.47, 167.9 59.47, 179.54 47.42 M153.95 76.86 C160.7 69.06, 169.48 58.85, 179.54 47.42 M159.6 76.46 C163.95 69.41, 170.06 64.53, 177.31 56.08 M159.6 76.46 C162.44 73.03, 166.49 67.28, 177.31 56.08 M166.55 74.56 C168.45 72.34, 172.43 68.45, 175.74 63.99 M166.55 74.56 C170.25 70.37, 174.29 66.52, 175.74 63.99" stroke="#fab005" stroke-width="0.5" fill="none"></path><path d="M18.75 0 M18.75 0 C73.64 -1.5, 128.01 -0.01, 158.25 0 M18.75 0 C60.24 0.94, 104.08 1.33, 158.25 0 M158.25 0 C171.01 -0.63, 176.58 5.4, 177 18.75 M158.25 0 C169.46 1.87, 175.44 7.78, 177 18.75 M177 18.75 C177.23 29.77, 175.53 37.9, 177 56.25 M177 18.75 C177.35 29.42, 178.11 38.4, 177 56.25 M177 56.25 C178.1 69.21, 171.8 76.88, 158.25 75 M177 56.25 C179.16 70.79, 171.43 75.5, 158.25 75 M158.25 75 C107.18 74.58, 58.11 77.2, 18.75 75 M158.25 75 C104.41 74.58, 52.44 75.69, 18.75 75 M18.75 75 C4.25 74.15, -1.75 70.53, 0 56.25 M18.75 75 C4.44 76.45, -1.65 70.02, 0 56.25 M0 56.25 C-1.69 42.76, -2.07 29.76, 0 18.75 M0 56.25 C-0.71 42.59, -0.14 28.59, 0 18.75 M0 18.75 C-0.92 6.32, 6.91 -1.65, 18.75 0 M0 18.75 C-1.26 5, 5.51 -2.26, 18.75 0" stroke="#000000" stroke-width="1" fill="none"></path></g><g transform="translate(282.1029978041406 854.4141154155841) rotate(0 82 25)"><text x="82" y="18" font-family="Virgil, Segoe UI Emoji" font-size="20px" fill="#000000" text-anchor="middle" style="white-space: pre;" direction="ltr">Properties of </text><text x="82" y="43" font-family="Virgil, Segoe UI Emoji" font-size="20px" fill="#000000" text-anchor="middle" style="white-space: pre;" direction="ltr">successful model</text></g><g transform="translate(429.42326585312276 808.1737253564752) rotate(0 181 12.5)"><text x="181" y="18" font-family="Virgil, Segoe UI Emoji" font-size="20px" fill="#000000" text-anchor="middle" style="white-space: pre;" direction="ltr">Respects input/output specifications</text></g><g transform="translate(472.32865118742484 852.5156949857101) rotate(0 293 12.5)"><text x="293" y="18" font-family="Virgil, Segoe UI Emoji" font-size="20px" fill="#000000" text-anchor="middle" style="white-space: pre;" direction="ltr">Benefits the organization (cost reduction, increased sales)</text></g><g transform="translate(472.77990345541275 885.1988005876847) rotate(0 256 12.5)"><text x="0" y="18" font-family="Virgil, Segoe UI Emoji" font-size="20px" fill="#000000" text-anchor="start" style="white-space: pre;" direction="ltr">Helps the user (productivity, engagement, sentiment)</text></g><g transform="translate(434.5593184198433 927.4353298632359) rotate(0 261 12.5)"><text x="0" y="18" font-family="Virgil, Segoe UI Emoji" font-size="20px" fill="#000000" text-anchor="start" style="white-space: pre;" direction="ltr">It is scientifically rigorous (predictable, reproducible)</text></g><g stroke-linecap="round" transform="translate(260.7498681526913 795.408934099798) rotate(0 414.48118445534874 86.64305796951612)"><path d="M32 0 M32 0 C196.61 -1.16, 362.11 -0.11, 796.96 0 M796.96 0 C816.72 1.26, 827.52 11.77, 828.96 32 M828.96 32 C828.03 71.42, 827.65 111.33, 828.96 141.29 M828.96 141.29 C830.21 163.91, 817.7 172.35, 796.96 173.29 M796.96 173.29 C572.95 171.81, 349.94 171.12, 32 173.29 M32 173.29 C9.57 172.2, -0.64 160.65, 0 141.29 M0 141.29 C1.6 98.76, 0.44 60.32, 0 32 M0 32 C1.26 10.12, 8.77 -1.14, 32 0" stroke="#000000" stroke-width="2.5" fill="none" stroke-dasharray="1.5 8"></path></g></svg>