<svg version="1.1" xmlns="http://www.w3.org/2000/svg" viewBox="0 0 829.1769821107755 289.43080126732093" width="2487.5309463323265" height="868.2924038019628">
  <!-- svg-source:excalidraw -->
  
  <defs>
    <style class="style-fonts">
      @font-face {
        font-family: "Virgil";
        src: url("https://excalidraw.com/Virgil.woff2");
      }
      @font-face {
        font-family: "Cascadia";
        src: url("https://excalidraw.com/Cascadia.woff2");
      }
    </style>
  </defs>
  <g stroke-linecap="round" transform="translate(474.27288989243243 11.714419954811092) rotate(0 172.45204610917153 132.7474325989151)"><path d="M-1.95 -0.1 L342.97 0.42 L343.78 263.97 L1.34 265.19" stroke="none" stroke-width="0" fill="#333333"></path><path d="M0.07 1.16 C87.31 2.56, 174.78 3.52, 345.86 -0.12 M0.44 -0.61 C93.22 -1.28, 185.6 -0.91, 344.31 0.32 M345.5 -0.1 C344.29 54.29, 345.88 107.34, 344.99 264.71 M345.22 -0.69 C344.49 78.07, 344.76 156.16, 345.64 264.81 M344.25 266.38 C230.2 263.11, 113.32 263.4, 0.29 266.7 M345.05 265.05 C227.28 265.03, 110.58 265.55, -0.18 265.19 M0.33 266.62 C1.18 202.91, 2.19 141.51, -0.47 -0.18 M0.41 265.2 C-0.75 189.51, 0.76 112.08, -0.39 -0.06" stroke="#333333" stroke-width="2" fill="none"></path></g><g stroke-linecap="round" transform="translate(474.9924886962308 12.329917952001779) rotate(0 168.7584067278931 11.348408258974814)"><path d="M-0.1 -1.93 L337.94 -1.12 L336 24.04 L-0.31 24.38" stroke="none" stroke-width="0" fill="#343a40"></path><path d="M1.18 -0.13 C110.92 -0.2, 222.5 0.86, 337.4 -0.41 M-0.62 0.27 C103.16 -1.82, 206.98 -2.11, 337.85 -0.67 M337.39 -1.53 C338.78 7.94, 338.64 15.01, 336.53 22.57 M336.64 -0.21 C337.67 6.67, 337.85 14.03, 336.65 23.05 M338.42 23.75 C241.96 21.46, 147.54 21.87, 1.23 23.24 M337.06 22.56 C252.53 23.88, 168.39 23.03, -0.31 22.23 M1.43 22.75 C-1.48 18.45, -1.58 10.94, -0.23 -0.24 M-0.38 21.74 C0.78 16.85, -0.38 8.6, -0.08 -0.97" stroke="#343a40" stroke-width="2" fill="none"></path></g><g stroke-linecap="round" transform="translate(491.3805651895327 18.859770304961785) rotate(0 6.326561551668419 6.1591532640259175)"><path d="M8.87 0.05 C9.9 0.54, 11.06 1.92, 11.67 3.38 C12.28 4.85, 12.87 7.61, 12.54 8.81 C12.2 10.02, 10.75 10.17, 9.67 10.6 C8.59 11.04, 7.47 11.48, 6.07 11.41 C4.68 11.33, 2.33 10.98, 1.3 10.14 C0.27 9.29, -0.04 7.55, -0.12 6.33 C-0.19 5.12, 0.04 4.04, 0.84 2.85 C1.64 1.66, 3.07 -0.68, 4.68 -0.83 C6.28 -0.97, 9.64 1.68, 10.47 1.97 C11.3 2.27, 9.85 1.17, 9.67 0.93 M5.33 -1.14 C7.03 -1.34, 9.87 -0.01, 11.28 1.12 C12.69 2.25, 13.72 4.43, 13.79 5.63 C13.87 6.83, 12.4 7.12, 11.74 8.29 C11.08 9.47, 11.17 12.32, 9.84 12.69 C8.51 13.05, 5.05 11.25, 3.77 10.5 C2.48 9.74, 2.96 8.85, 2.15 8.16 C1.33 7.48, -0.95 7.48, -1.13 6.39 C-1.31 5.29, 0.02 2.57, 1.07 1.6 C2.12 0.63, 4.19 0.94, 5.18 0.56 C6.16 0.18, 7.03 -0.62, 7 -0.67" stroke="none" stroke-width="0" fill="#c92a2a"></path><path d="M7.79 -0.05 C9.04 -0.13, 9.74 0.91, 10.62 2 C11.51 3.08, 13.11 5.1, 13.08 6.47 C13.06 7.84, 11.43 9.37, 10.47 10.24 C9.52 11.11, 8.5 11.61, 7.36 11.69 C6.22 11.78, 4.68 11.45, 3.62 10.77 C2.56 10.08, 1.52 8.79, 1.01 7.6 C0.5 6.41, 0.18 4.72, 0.55 3.61 C0.92 2.5, 2.09 1.39, 3.23 0.95 C4.36 0.51, 6.34 0.9, 7.36 0.97 C8.38 1.05, 9.21 1.51, 9.32 1.4 M6.72 -1.31 C7.98 -1.43, 8.92 0.4, 9.92 1.51 C10.91 2.63, 12.14 4.31, 12.7 5.35 C13.27 6.4, 13.88 6.74, 13.3 7.77 C12.72 8.81, 10.87 11, 9.21 11.59 C7.55 12.17, 4.54 11.43, 3.33 11.26 C2.12 11.1, 2.66 11.6, 1.96 10.58 C1.26 9.56, -0.81 6.61, -0.89 5.16 C-0.97 3.71, 0.08 2.66, 1.48 1.9 C2.88 1.14, 6.84 0.93, 7.5 0.61 C8.15 0.3, 5.56 0.19, 5.39 0.02" stroke="#c92a2a" stroke-width="2" fill="none"></path></g><g stroke-linecap="round" transform="translate(516.535959972176 18.125749351454942) rotate(0 6.326561551668419 6.1591532640259175)"><path d="M6.69 -0.45 C7.93 -0.21, 9.53 1.27, 10.64 2.37 C11.75 3.47, 13.41 4.75, 13.37 6.14 C13.33 7.54, 11.53 9.79, 10.4 10.75 C9.28 11.72, 7.84 11.81, 6.62 11.92 C5.4 12.03, 4.13 12.09, 3.09 11.4 C2.05 10.71, 0.76 9.06, 0.4 7.78 C0.03 6.5, 0.58 4.76, 0.88 3.72 C1.18 2.67, 0.73 2.15, 2.17 1.51 C3.61 0.88, 8.38 -0.01, 9.53 -0.1 C10.69 -0.19, 9.49 0.79, 9.13 0.96 M2.25 1.71 C3.26 1.41, 5.82 1.32, 7.45 1.41 C9.08 1.5, 11.29 1.22, 12.02 2.25 C12.75 3.29, 11.87 6.36, 11.83 7.62 C11.8 8.87, 12.82 8.79, 11.8 9.77 C10.77 10.74, 7.35 13.42, 5.67 13.49 C4 13.55, 2.44 11.25, 1.74 10.16 C1.03 9.08, 1.65 8.18, 1.45 6.96 C1.25 5.73, 0.12 3.73, 0.54 2.82 C0.95 1.92, 3.59 2.06, 3.94 1.53 C4.29 0.99, 2.75 -0.29, 2.65 -0.37" stroke="none" stroke-width="0" fill="#fab005"></path><path d="M6.03 -0.3 C7.17 -0.47, 9.11 1.04, 10.3 1.75 C11.49 2.47, 12.85 2.82, 13.19 3.97 C13.52 5.11, 13.13 7.3, 12.31 8.64 C11.48 9.98, 9.7 11.37, 8.22 12.01 C6.75 12.65, 4.84 12.89, 3.46 12.5 C2.08 12.12, 0.65 10.83, -0.05 9.69 C-0.74 8.55, -1.07 7.14, -0.72 5.66 C-0.37 4.18, 0.61 1.7, 2.04 0.81 C3.47 -0.09, 6.73 0.36, 7.84 0.29 C8.95 0.23, 8.93 0.37, 8.71 0.42 M4.65 -0.31 C5.93 -0.53, 8.92 0.33, 10.31 1.41 C11.69 2.48, 12.88 4.8, 12.94 6.14 C13 7.48, 11.42 8.69, 10.68 9.46 C9.95 10.24, 9.69 10.19, 8.54 10.79 C7.38 11.39, 4.81 13.44, 3.76 13.07 C2.71 12.7, 2.85 9.96, 2.21 8.59 C1.57 7.21, -0.1 5.74, -0.08 4.81 C-0.06 3.89, 1.21 3.97, 2.32 3.05 C3.43 2.12, 5.98 -0.3, 6.57 -0.73 C7.16 -1.16, 6.13 0.3, 5.86 0.47" stroke="#fab005" stroke-width="2" fill="none"></path></g><g stroke-linecap="round" transform="translate(543.3286446009934 17.514985049283496) rotate(0 6.326561551668419 6.1591532640259175)"><path d="M4.95 -0.45 C6.32 -0.46, 8.68 1.01, 9.92 1.67 C11.16 2.33, 11.9 2.5, 12.38 3.49 C12.87 4.49, 13.42 6.32, 12.85 7.65 C12.28 8.99, 10.3 10.75, 8.97 11.5 C7.63 12.26, 6.22 12.35, 4.85 12.17 C3.49 12, 1.66 11.64, 0.79 10.43 C-0.08 9.23, -0.63 6.2, -0.37 4.95 C-0.12 3.71, 1.17 3.87, 2.32 2.97 C3.47 2.07, 5.51 0.12, 6.53 -0.45 C7.54 -1.02, 8.33 -0.5, 8.4 -0.47 M8 -0.19 C9.64 0.16, 11.4 1.72, 12.15 2.57 C12.9 3.43, 12.41 3.59, 12.5 4.92 C12.58 6.26, 13.51 9.62, 12.65 10.58 C11.78 11.53, 8.62 10.65, 7.31 10.64 C6 10.62, 6.1 10.62, 4.77 10.49 C3.44 10.35, 0.28 10.8, -0.66 9.81 C-1.59 8.81, -1.23 5.88, -0.83 4.52 C-0.42 3.15, 0.36 2.48, 1.8 1.6 C3.24 0.72, 7.15 -0.46, 7.82 -0.77 C8.48 -1.07, 5.98 -0.37, 5.8 -0.21" stroke="none" stroke-width="0" fill="#5c940d"></path><path d="M8.94 0.76 C10.07 1.4, 12.19 3.19, 12.61 4.47 C13.02 5.74, 11.98 7.34, 11.43 8.41 C10.88 9.48, 10.27 10.4, 9.3 10.9 C8.34 11.39, 6.83 11.63, 5.64 11.37 C4.45 11.11, 3.05 10.28, 2.16 9.32 C1.26 8.37, 0.37 6.81, 0.29 5.65 C0.21 4.48, 1.03 3.14, 1.68 2.35 C2.34 1.55, 2.76 0.95, 4.19 0.87 C5.62 0.78, 9.19 1.74, 10.27 1.81 C11.35 1.89, 10.8 1.37, 10.69 1.32 M6.37 0.21 C7.6 0.5, 9.58 1.48, 10.85 2.14 C12.13 2.79, 13.79 2.97, 14.01 4.15 C14.22 5.34, 13.29 8.06, 12.15 9.25 C11 10.45, 8.34 10.69, 7.12 11.31 C5.9 11.94, 6.06 13.41, 4.83 12.99 C3.6 12.57, 0.6 10.12, -0.28 8.8 C-1.16 7.48, -1.16 6.23, -0.46 5.07 C0.24 3.91, 2.85 2.69, 3.92 1.83 C4.99 0.97, 5.44 0.35, 5.96 -0.1 C6.48 -0.55, 6.96 -0.89, 7.03 -0.89" stroke="#5c940d" stroke-width="2" fill="none"></path></g><g transform="translate(524.1936817797396 61.79628688229968) rotate(0 94.5 95)"><text x="0" y="15" font-family="Cascadia, Segoe UI Emoji" font-size="16px" fill="#ffff" text-anchor="start" style="white-space: pre;" direction="ltr">if condition1:</text><text x="0" y="34" font-family="Cascadia, Segoe UI Emoji" font-size="16px" fill="#ffff" text-anchor="start" style="white-space: pre;" direction="ltr">    do statement1</text><text x="0" y="53" font-family="Cascadia, Segoe UI Emoji" font-size="16px" fill="#ffff" text-anchor="start" style="white-space: pre;" direction="ltr"></text><text x="0" y="72" font-family="Cascadia, Segoe UI Emoji" font-size="16px" fill="#ffff" text-anchor="start" style="white-space: pre;" direction="ltr">elif condition2:</text><text x="0" y="91" font-family="Cascadia, Segoe UI Emoji" font-size="16px" fill="#ffff" text-anchor="start" style="white-space: pre;" direction="ltr">    do statement2</text><text x="0" y="110" font-family="Cascadia, Segoe UI Emoji" font-size="16px" fill="#ffff" text-anchor="start" style="white-space: pre;" direction="ltr"></text><text x="0" y="129" font-family="Cascadia, Segoe UI Emoji" font-size="16px" fill="#ffff" text-anchor="start" style="white-space: pre;" direction="ltr">...</text><text x="0" y="148" font-family="Cascadia, Segoe UI Emoji" font-size="16px" fill="#ffff" text-anchor="start" style="white-space: pre;" direction="ltr"></text><text x="0" y="167" font-family="Cascadia, Segoe UI Emoji" font-size="16px" fill="#ffff" text-anchor="start" style="white-space: pre;" direction="ltr">else </text><text x="0" y="186" font-family="Cascadia, Segoe UI Emoji" font-size="16px" fill="#ffff" text-anchor="start" style="white-space: pre;" direction="ltr">    return Rick Roll</text></g><g stroke-linecap="round" transform="translate(10 90.23895052320768) rotate(0 126.72132830500959 61.42056213826254)"><path d="M4.46 11.83 C4.46 11.83, 4.46 11.83, 4.46 11.83 M4.46 11.83 C4.46 11.83, 4.46 11.83, 4.46 11.83 M0.92 22 C3.29 19.22, 10.47 13.39, 17.98 2.38 M0.92 22 C8.31 15.49, 14.65 6.24, 17.98 2.38 M3.28 25.38 C11.57 18.03, 18.58 10.26, 24.28 1.23 M3.28 25.38 C11.94 16.93, 20.08 6.93, 24.28 1.23 M3.02 31.78 C12.04 21.84, 24.28 7.76, 29.92 0.83 M3.02 31.78 C12.22 20.76, 20.14 11.31, 29.92 0.83 M2.76 38.18 C8.72 29.54, 14.74 23.46, 33.6 2.7 M2.76 38.18 C13.73 25.99, 24.32 15.55, 33.6 2.7 M3.16 43.82 C14.02 32.28, 20.84 21.7, 39.24 2.31 M3.16 43.82 C13.94 30.9, 24.74 19.52, 39.24 2.31 M2.89 50.22 C19.5 31.2, 34.16 14.53, 44.23 2.67 M2.89 50.22 C16.09 36.38, 27.83 21.92, 44.23 2.67 M3.29 55.86 C20.73 36.87, 33.89 18.35, 49.87 2.28 M3.29 55.86 C16.42 40.26, 32.19 23.47, 49.87 2.28 M3.03 62.26 C15.5 49.25, 30.82 32.08, 54.86 2.64 M3.03 62.26 C20.72 40.11, 39.32 19.88, 54.86 2.64 M2.77 68.66 C17.23 50.58, 32.43 36.43, 60.5 2.24 M2.77 68.66 C19.4 48.85, 39.41 27.49, 60.5 2.24 M3.16 74.3 C23.44 51.01, 42.33 30.24, 65.49 2.6 M3.16 74.3 C18.53 57.28, 35.61 38.94, 65.49 2.6 M2.9 80.7 C31.83 48.54, 57.03 20.68, 70.47 2.96 M2.9 80.7 C25.71 52.95, 48.91 27.59, 70.47 2.96 M3.29 86.34 C18.78 64.85, 36.43 45.27, 76.12 2.57 M3.29 86.34 C25.42 59.57, 48.62 33.21, 76.12 2.57 M3.03 92.74 C31.62 59.24, 55.39 28.07, 81.1 2.93 M3.03 92.74 C28.5 62.76, 54.02 33.58, 81.1 2.93 M1.46 100.64 C20.58 77.26, 39.17 55.85, 86.75 2.53 M1.46 100.64 C35.03 61.62, 68.23 23.59, 86.75 2.53 M3.17 104.78 C31.72 71.12, 57.4 39.87, 91.73 2.89 M3.17 104.78 C26.64 77.45, 50.07 51.89, 91.73 2.89 M4.87 108.91 C39.46 67.37, 76.98 25.02, 97.38 2.5 M4.87 108.91 C32.56 76.89, 60.17 45.22, 97.38 2.5 M6.58 113.05 C27.91 88.88, 47.82 66.12, 102.36 2.86 M6.58 113.05 C33.03 79.57, 60.94 47.84, 102.36 2.86 M9.6 115.67 C31.11 89.09, 53.76 66.8, 108.01 2.46 M9.6 115.67 C44.88 75.83, 79.47 35.4, 108.01 2.46 M11.96 119.05 C32.45 95.77, 52.52 71.32, 112.99 2.82 M11.96 119.05 C50.6 75.52, 86.88 31.9, 112.99 2.82 M16.29 120.16 C44.48 89.28, 71.19 56.6, 118.64 2.43 M16.29 120.16 C43.89 87.82, 72.73 56.33, 118.64 2.43 M20.62 121.28 C41.73 99.36, 60.74 72.87, 123.62 2.79 M20.62 121.28 C45 91.09, 69.48 63.75, 123.62 2.79 M24.3 123.15 C57.56 88.85, 88.67 50.73, 129.27 2.39 M24.3 123.15 C49.97 93.25, 76.26 62.81, 129.27 2.39 M29.28 123.51 C62.54 84.09, 92.87 48.72, 134.25 2.75 M29.28 123.51 C56.49 92.97, 83.06 63.71, 134.25 2.75 M32.96 125.38 C67.86 86.92, 101.01 47.77, 139.9 2.36 M32.96 125.38 C62.24 90.01, 92.69 54.6, 139.9 2.36 M38.6 124.98 C59.92 101.11, 82.78 71.82, 144.88 2.72 M38.6 124.98 C70.11 88.02, 103.03 51.13, 144.88 2.72 M43.59 125.34 C80.5 81.2, 121.39 34.41, 150.53 2.32 M43.59 125.34 C69.62 94.62, 97.42 62.98, 150.53 2.32 M49.23 124.95 C93 77.43, 134.96 29.26, 155.51 2.69 M49.23 124.95 C87.23 83.68, 122.32 42.2, 155.51 2.69 M54.22 125.31 C90.29 85.95, 126.27 42.11, 161.16 2.29 M54.22 125.31 C82.37 93.21, 107.96 62.89, 161.16 2.29 M59.86 124.91 C88.28 91.7, 117.86 56.06, 166.14 2.65 M59.86 124.91 C88.43 94.2, 114.96 64.83, 166.14 2.65 M64.85 125.27 C97.55 87.33, 129.54 51.37, 171.79 2.26 M64.85 125.27 C89.31 96.45, 115.85 66.09, 171.79 2.26 M70.49 124.88 C104.65 88.17, 138.7 46.08, 176.77 2.62 M70.49 124.88 C110.15 79.28, 149 33.24, 176.77 2.62 M75.48 125.24 C99.35 95.34, 126.35 63.98, 182.42 2.22 M75.48 125.24 C116.48 79.29, 155.94 33.53, 182.42 2.22 M81.12 124.84 C117.48 83.98, 151.23 42.62, 187.4 2.58 M81.12 124.84 C118.54 81.84, 157.8 37.78, 187.4 2.58 M86.11 125.2 C115.19 92.36, 146.62 58.8, 192.39 2.94 M86.11 125.2 C120.05 86.34, 154.15 46.98, 192.39 2.94 M91.75 124.81 C123.71 85.26, 156.55 48.5, 198.03 2.55 M91.75 124.81 C128.2 82.79, 165.65 41.22, 198.03 2.55 M96.74 125.17 C121.15 96.02, 148.49 63.34, 203.02 2.91 M96.74 125.17 C130.36 86.95, 164.06 47.94, 203.02 2.91 M102.38 124.78 C129.41 93.86, 154.74 65.51, 208.66 2.51 M102.38 124.78 C140.35 80.96, 178.81 35.84, 208.66 2.51 M107.37 125.14 C150.37 76.04, 188.44 29.88, 213.65 2.87 M107.37 125.14 C141.3 87.37, 174.73 49.84, 213.65 2.87 M113.01 124.74 C143.79 90.03, 178.73 52.33, 219.29 2.48 M113.01 124.74 C147.72 86.85, 181.8 47.35, 219.29 2.48 M118 125.1 C154.51 78.6, 195.9 36.91, 224.94 2.08 M118 125.1 C141.18 97.31, 164.71 70.6, 224.94 2.08 M123.64 124.71 C149.26 96.6, 170.18 70.21, 230.58 1.69 M123.64 124.71 C152 91.57, 180.89 57.03, 230.58 1.69 M128.63 125.07 C156.87 94.03, 184.66 60.39, 234.91 2.8 M128.63 125.07 C160.12 89.61, 190.36 54.72, 234.91 2.8 M134.27 124.67 C170.37 83.62, 208.11 38.4, 239.24 3.92 M134.27 124.67 C163.29 91.42, 193.64 57.86, 239.24 3.92 M139.26 125.03 C165.2 95.32, 191.52 66.93, 242.92 5.79 M139.26 125.03 C172.43 87.38, 206.39 49.25, 242.92 5.79 M144.25 125.39 C179.85 83.63, 218.75 38.18, 245.94 8.41 M144.25 125.39 C180.9 83.63, 219.01 38.46, 245.94 8.41 M149.89 125 C174.1 96.4, 201.88 65.85, 248.96 11.04 M149.89 125 C171.9 101.8, 193.5 77.22, 248.96 11.04 M154.88 125.36 C177.55 99.89, 198.55 74.45, 251.32 14.42 M154.88 125.36 C176.18 101.43, 197.24 77.61, 251.32 14.42 M160.52 124.96 C188.44 91.2, 220.53 56.1, 253.02 18.55 M160.52 124.96 C186.87 95.39, 213.55 64.45, 253.02 18.55 M165.51 125.32 C196.5 85.78, 228.75 51.06, 253.42 24.19 M165.51 125.32 C184.31 103.08, 204.58 79.71, 253.42 24.19 M171.15 124.93 C191.17 100.75, 211.56 77.49, 253.81 29.84 M171.15 124.93 C197.56 94.66, 223.99 64.87, 253.81 29.84 M176.14 125.29 C198.11 100.66, 217.17 77.31, 253.55 36.23 M176.14 125.29 C196.23 103.11, 216.34 80.62, 253.55 36.23 M181.78 124.89 C206.79 96.93, 229.4 69.35, 253.95 41.88 M181.78 124.89 C205.09 99.83, 226.76 75.18, 253.95 41.88 M186.77 125.25 C207.9 98.94, 231.71 73.03, 253.69 48.27 M186.77 125.25 C205.45 103.61, 224.69 81.17, 253.69 48.27 M192.41 124.86 C205 109.1, 219.96 89.77, 254.08 53.92 M192.41 124.86 C211.34 103.47, 230.19 79.91, 254.08 53.92 M197.4 125.22 C212.74 107.94, 229.29 88.6, 253.82 60.31 M197.4 125.22 C217.26 102.37, 237.4 77.83, 253.82 60.31 M203.04 124.83 C219.49 106.76, 238.37 84.54, 253.56 66.71 M203.04 124.83 C214.1 113.76, 223.81 100, 253.56 66.71 M208.03 125.19 C216.88 113.92, 228.15 99.49, 253.95 72.36 M208.03 125.19 C218.67 112.79, 232.05 98.5, 253.95 72.36 M213.67 124.79 C229.44 107.72, 242.76 92.17, 253.69 78.75 M213.67 124.79 C229.5 107.77, 242.86 90.06, 253.69 78.75 M218.66 125.15 C228.39 117.58, 233.67 106.38, 254.09 84.4 M218.66 125.15 C233.13 109.53, 246.32 93.92, 254.09 84.4 M224.3 124.76 C231.86 115.14, 244.94 101.83, 253.82 90.79 M224.3 124.76 C233.5 113.22, 244.28 101.44, 253.82 90.79 M230.6 123.61 C235.8 116.57, 242.31 108.58, 256.19 94.17 M230.6 123.61 C238.84 115.31, 247.31 106.02, 256.19 94.17 M237.56 121.7 C240.68 117.94, 245.21 113.16, 255.27 101.33 M237.56 121.7 C244.32 113.59, 250.41 107.31, 255.27 101.33" stroke="#228be6" stroke-width="0.5" fill="none"></path><path d="M30.71 0 M30.71 0 C105.93 -2.52, 185.57 -1.53, 222.73 0 M30.71 0 C79.81 0.54, 127.11 0.19, 222.73 0 M222.73 0 C241.45 -0.4, 254.27 9.26, 253.44 30.71 M222.73 0 C243.35 2.24, 253.32 9.47, 253.44 30.71 M253.44 30.71 C254.95 45.08, 253.52 60.48, 253.44 92.13 M253.44 30.71 C253.71 45.87, 252.8 61.47, 253.44 92.13 M253.44 92.13 C251.79 113.58, 243.04 121.32, 222.73 122.84 M253.44 92.13 C251.16 111.41, 243.08 120.62, 222.73 122.84 M222.73 122.84 C174.3 122.47, 126.75 123.71, 30.71 122.84 M222.73 122.84 C158.58 122.59, 92.94 122.72, 30.71 122.84 M30.71 122.84 C9.28 121.5, -1.55 112.96, 0 92.13 M30.71 122.84 C10.64 124.34, 0.26 112.24, 0 92.13 M0 92.13 C-1.45 67.42, -0.88 45.83, 0 30.71 M0 92.13 C-0.94 73.15, 0.7 55.65, 0 30.71 M0 30.71 C-1.55 10.03, 8.55 -1.55, 30.71 0 M0 30.71 C-0.7 9.56, 11.13 -0.96, 30.71 0" stroke="#1864ab" stroke-width="1" fill="none"></path></g><g transform="translate(114.72132830500959 129.15951266147022) rotate(0 22 22.5)"><text x="22" y="32" font-family="Virgil, Segoe UI Emoji" font-size="36px" fill="#000000" text-anchor="middle" style="white-space: pre;" direction="ltr">AI</text></g><g stroke-linecap="round"><g transform="translate(253.59344831562885 93.54543699768874) rotate(0 110.7033567283388 -41.68654334599887)"><path d="M0.1 0.17 C37.41 -13.92, 185.98 -69.85, 222.72 -83.55 M-1.31 -0.78 C36.05 -14.2, 185 -68.46, 222.36 -82.3" stroke="#000000" stroke-width="1" fill="none"></path></g></g><mask></mask><g stroke-linecap="round"><g transform="translate(256.17868986508256 206.15799688289553) rotate(0 109.1038423295031 36.950754907842565)"><path d="M0.62 1.1 C37.09 13.39, 182.34 61.38, 218.72 73.27 M-0.51 0.63 C35.84 12.62, 181.44 59.32, 217.94 71.49" stroke="#000000" stroke-width="1" fill="none"></path></g></g><mask></mask><g transform="translate(67.58396743136109 28.897914068182217) rotate(0 72 25)"><text x="72" y="18" font-family="Virgil, Segoe UI Emoji" font-size="20px" fill="#000000" text-anchor="middle" style="white-space: pre;" direction="ltr">Let's open the</text><text x="72" y="43" font-family="Virgil, Segoe UI Emoji" font-size="20px" fill="#000000" text-anchor="middle" style="white-space: pre;" direction="ltr">black box!</text></g><g stroke-linecap="round" transform="translate(369.5312250764455 144.36185142608156) rotate(334.7208883828891 3.987733602546541 13.506329080692922)"><path d="M-0.32 2.37 C-0.32 2.37, -0.32 2.37, -0.32 2.37 M-0.32 2.37 C-0.32 2.37, -0.32 2.37, -0.32 2.37 M0.07 8.01 C1 7.16, 1.94 6.05, 4.66 2.73 M0.07 8.01 C1.44 6.09, 2.76 4.51, 4.66 2.73 M-0.19 14.41 C0.67 10.75, 4.22 8.96, 9.65 3.09 M-0.19 14.41 C3.87 10.39, 8.14 6.12, 9.65 3.09 M0.2 20.05 C2.7 17.12, 5.37 14.69, 9.39 9.49 M0.2 20.05 C2.36 17.86, 5.77 14.18, 9.39 9.49 M0.6 25.69 C4.42 22.79, 6.21 18.58, 9.78 15.13 M0.6 25.69 C2.74 22.86, 5.34 20.91, 9.78 15.13 M2.96 29.07 C4.55 27.06, 5.46 25.38, 9.52 21.53 M2.96 29.07 C5.17 26.52, 7.98 23.07, 9.52 21.53" stroke="#ced4da" stroke-width="0.5" fill="none"></path><path d="M1.99 0 M1.99 0 C3.38 -0.17, 4.79 -0.28, 5.98 0 M1.99 0 C3.01 0.17, 3.75 0.07, 5.98 0 M5.98 0 C5.82 0.12, 6.98 -0.04, 7.98 1.99 M5.98 0 C8.23 -1.44, 8.52 0.41, 7.98 1.99 M7.98 1.99 C6.21 7.91, 9.47 10.93, 7.98 25.02 M7.98 1.99 C7.76 10.39, 8.19 17.96, 7.98 25.02 M7.98 25.02 C8.99 26.44, 7.71 25.12, 5.98 27.01 M7.98 25.02 C6.54 27.01, 9.16 25.66, 5.98 27.01 M5.98 27.01 C5.04 26.94, 3.71 27.33, 1.99 27.01 M5.98 27.01 C4.61 27.03, 3.21 27.18, 1.99 27.01 M1.99 27.01 C0.38 27.25, -1.52 27.53, 0 25.02 M1.99 27.01 C0.99 27.02, -1.38 28.5, 0 25.02 M0 25.02 C-2.13 17.08, -1.85 10.2, 0 1.99 M0 25.02 C0.18 18.21, 0.45 11.04, 0 1.99 M0 1.99 C1.96 0.27, 0.98 1.06, 1.99 0 M0 1.99 C1.43 -0.47, 0.37 -1.98, 1.99 0" stroke="#000000" stroke-width="1" fill="none"></path></g><g stroke-linecap="round" transform="translate(342.58424367638145 115.64279759361125) rotate(354.855072370546 16.661226109029485 15.56999190427814)"><path d="M5.47 4.76 C5.47 4.76, 5.47 4.76, 5.47 4.76 M5.47 4.76 C5.47 4.76, 5.47 4.76, 5.47 4.76 M3.92 14.73 C6.46 10.35, 8.49 5.81, 13.91 1.6 M3.63 13.83 C6.34 10.28, 9.4 7.53, 13.1 1.14 M4.68 20.83 C7.66 13.85, 10.78 11.18, 19.01 1.67 M2.65 19.73 C8.32 13.4, 15.06 6.59, 19.51 2.49 M3.17 24.58 C10.43 19.33, 11.84 12.61, 24.17 2.82 M4.97 23.65 C8.89 20.53, 11.89 14.68, 21.7 3.02 M8.18 25.2 C12.83 18.16, 19.68 11.99, 25.94 3.77 M8.59 26.14 C12.66 21.85, 16.4 17.37, 27.36 3.32 M10.41 30.15 C16.55 23.36, 24.01 17.13, 29.55 8.58 M9.73 29.02 C16.73 21.45, 23.49 14.74, 28.86 8.17 M12.28 31.92 C16.11 27.08, 19.73 23.13, 31.84 12.87 M14.48 31.66 C16.77 27.04, 21.04 24.28, 30.92 11.35 M18.4 32.63 C23.6 28.83, 28 23.96, 35.81 13.24 M18.02 32.21 C24.07 24.96, 31.92 17.87, 34.94 14.63" stroke="#ced4da" stroke-width="0.5" fill="none"></path><path d="M16.36 0.27 C19.73 -0.03, 23.93 1, 26.62 3.12 C29.31 5.25, 31.75 9.71, 32.52 13.01 C33.29 16.32, 32.96 20.02, 31.24 22.95 C29.51 25.87, 25.43 29.42, 22.15 30.54 C18.86 31.67, 14.75 31.06, 11.52 29.7 C8.28 28.34, 4.49 25.34, 2.75 22.41 C1.01 19.47, 0.57 15.09, 1.06 12.1 C1.56 9.11, 2.63 6.36, 5.7 4.49 C8.78 2.61, 16.63 1.48, 19.52 0.84 C22.41 0.21, 23.19 0.51, 23.03 0.68 M17.45 0.97 C21.34 0.81, 26.65 2.71, 29.28 4.89 C31.91 7.06, 33.19 11.02, 33.23 14.03 C33.27 17.05, 31.23 20.07, 29.55 22.97 C27.86 25.87, 26.13 30.2, 23.1 31.43 C20.08 32.67, 14.81 32.01, 11.4 30.37 C7.99 28.73, 4.25 24.41, 2.63 21.59 C1.01 18.76, 0.89 16.29, 1.67 13.44 C2.44 10.58, 4.51 6.56, 7.26 4.47 C10.01 2.37, 16.55 1.77, 18.17 0.87 C19.78 -0.04, 17.35 -1.16, 16.94 -0.95" stroke="#000000" stroke-width="1" fill="none"></path></g><g stroke-linecap="round" transform="translate(349.13362876436076 120.43690301179231) rotate(354.855072370546 10.59387026243985 10.619629009761411)"><path d="M-0.13 6.51 C-0.13 6.51, -0.13 6.51, -0.13 6.51 M-0.13 6.51 C-0.13 6.51, -0.13 6.51, -0.13 6.51 M1.71 11.47 C2.47 10.37, 3.63 7.58, 7.69 4.41 M0.88 11.69 C3.04 9.77, 4.5 7.52, 7.61 4.32 M2.65 14.29 C6.96 11.45, 7.44 9.88, 12.79 3.45 M2.11 15.27 C5.1 12.03, 8.75 9.44, 13.54 2.58 M4.22 17.27 C8.53 16.52, 9.74 11.92, 16.97 2.94 M5.47 19.43 C9.62 14.75, 13.35 9.64, 19.06 3.29 M6.06 21.55 C13.9 16.51, 18.04 12.32, 22.07 7.62 M7.5 22.34 C12.81 15.92, 17.86 9.85, 21.69 5.88 M14.35 20.55 C17.16 17.38, 18.35 15.21, 22.54 10.87 M12.32 21.71 C15.37 19.46, 18.18 16.11, 22.49 11.07" stroke="#ced4da" stroke-width="0.5" fill="none"></path><path d="M12.91 0.1 C14.78 0.38, 16.8 2.44, 18.2 4.2 C19.61 5.96, 21.3 8.44, 21.34 10.65 C21.38 12.86, 19.91 15.65, 18.44 17.48 C16.98 19.31, 14.72 21.29, 12.55 21.65 C10.37 22.01, 7.25 20.86, 5.37 19.67 C3.49 18.48, 2.16 16.71, 1.26 14.5 C0.36 12.28, -0.65 8.51, -0.02 6.38 C0.61 4.26, 2.65 2.56, 5.07 1.75 C7.49 0.93, 12.36 1.37, 14.49 1.51 C16.62 1.65, 17.9 2.54, 17.83 2.6 M12.67 0.84 C14.82 0.73, 16.97 0.5, 18.56 1.91 C20.14 3.31, 21.98 6.53, 22.17 9.28 C22.37 12.02, 21.33 16.23, 19.74 18.38 C18.14 20.52, 14.72 22.03, 12.59 22.14 C10.46 22.26, 9.16 20.08, 6.96 19.08 C4.76 18.08, 0.65 17.98, -0.62 16.13 C-1.89 14.28, -1.76 10.34, -0.67 7.98 C0.41 5.61, 3.96 3.45, 5.89 1.93 C7.82 0.41, 9.69 -0.79, 10.9 -1.16 C12.12 -1.53, 13.29 -0.55, 13.2 -0.28" stroke="#000000" stroke-width="1" fill="none"></path></g></svg>