<svg version="1.1" xmlns="http://www.w3.org/2000/svg" viewBox="0 0 1636 802.2648865489318" width="100%" height="100%">
  <!-- svg-source:excalidraw -->
  
  <defs>
    <style class="style-fonts">
      @font-face {
        font-family: "Virgil";
        src: url("https://excalidraw.com/Virgil.woff2");
      }
      @font-face {
        font-family: "Cascadia";
        src: url("https://excalidraw.com/Cascadia.woff2");
      }
    </style>
  </defs>
  <g stroke-linecap="round" transform="translate(10 10) rotate(0 808 51)"><path d="M0 0 C0 0, 0 0, 0 0 M0 0 C0 0, 0 0, 0 0 M-1.45 7.9 C-0.32 4.6, 3.79 1.57, 5.78 1.16 M0.52 5.64 C2.04 4.34, 3.02 2.84, 5.7 0.46 M1.4 12.84 C6.16 5.55, 5.57 6.86, 8.83 0.41 M-0.94 12.67 C3.66 7.81, 7.87 3.98, 11.59 1.43 M2.65 15.8 C0.82 17.29, 3.67 8.54, 15.05 1.76 M-0.1 17.31 C3.39 12.31, 11.42 6.09, 15.31 1.78 M2.43 20.86 C6.8 20.8, 13.78 16.28, 18.76 1.42 M-1.48 25.52 C8.43 16.05, 13.58 10.4, 19.6 1.32 M-0.94 30.76 C5.24 22.38, 15.74 14.53, 23.21 -1.77 M1.5 31.68 C11.68 18.44, 19.53 6.44, 25.98 0.25 M1.01 36.18 C11.12 24.42, 23.04 11.94, 27.93 -2.44 M-1.81 36.74 C10.06 23.5, 23.92 9.94, 32.57 0.73 M3.97 43.41 C8.89 25.79, 24.7 11.93, 33.86 2.68 M-0.86 44.03 C10.89 27.77, 23.37 14.71, 37.69 -1.33 M-0.32 45.9 C9.95 40.08, 14.62 26.43, 43.26 1.96 M-1.23 50.87 C10.61 35.58, 23.87 19.78, 41.72 -0.88 M-0.78 52.23 C10.79 38.88, 22.53 33.05, 49.29 0.18 M0.55 52.71 C9.87 40.54, 21.66 30.55, 46.47 -0.38 M-1.43 61.35 C15 44.92, 35.89 19.38, 51.96 -2.28 M0.38 62.5 C17.35 41.73, 34.87 23.63, 53.07 1.56 M1.89 66.6 C20.87 42.31, 38.44 25.78, 55.66 -2.11 M-0.16 66.8 C21.51 42.41, 42.32 20.1, 57.35 1.6 M-1.65 75.2 C22.13 53.25, 41.49 29.4, 61.13 2.1 M0.81 73.4 C12.8 54.77, 30.17 38.63, 63.71 -0.98 M2.89 79.75 C20.77 55.98, 40.61 31.52, 71 1.14 M0.17 79 C14.99 60.75, 32.22 42.51, 68.47 -0.91 M-0.45 86.25 C20.35 66.16, 35.05 40.34, 73.75 2.45 M-1.05 85.26 C29.75 53.35, 59.08 20.6, 73.79 0.44 M3.02 89.32 C19.95 62.8, 48.88 33.47, 81.24 -2.65 M1.78 90.25 C22.27 70.27, 42.51 43.06, 79.01 -1.53 M1.93 100.21 C22.42 71.89, 37.49 51.56, 88.68 -3.72 M-1.94 96.5 C19.21 79.16, 38.9 56.85, 86.54 0.68 M0.31 101.54 C27.55 69.54, 58.22 34.32, 88.15 4.08 M1.3 101.92 C35.58 66.4, 66.54 25.97, 89.22 2.07 M5 103.81 C26.27 76.11, 48.36 49.17, 92.62 -0.8 M6.37 104.39 C35.28 72.37, 62.23 40.05, 96.22 0.53 M13.16 98.96 C43.46 68.51, 73.07 27.76, 101.4 -3 M10.93 103.47 C41.08 65.8, 72.75 30.14, 100.41 0.17 M14.94 100.52 C47.97 72.86, 71.34 35.6, 108.19 -3.04 M15.95 104.71 C36.83 82, 58.8 55, 108.19 -1.27 M20.82 104.15 C55.59 64.95, 85.15 27.49, 114.53 -2.06 M22.94 104.23 C50.47 67.45, 77.27 33.73, 110.94 -1.04 M27.2 102.91 C53.08 71.35, 73.9 49.4, 113.2 2.18 M25.36 104.2 C57.53 65.32, 92.49 28.98, 118.18 0.72 M32.28 106.47 C57.45 80.34, 79.61 54, 120.94 2.81 M34.47 104.12 C61.51 72.84, 84.45 41.1, 120.25 0.6 M33.69 100.41 C65.04 79.18, 84.44 47.73, 123.31 3.35 M38.76 104.25 C63.46 73, 89.18 39.97, 126.98 -0.41 M44.38 105.42 C70.8 67.18, 98.31 40.33, 129.93 -2.32 M41.74 100.99 C76.38 65.11, 105.7 26.24, 132.85 -0.84 M50.2 104.59 C78.61 68.91, 100.07 38.82, 140.09 1.34 M49.4 102.2 C69.34 82.61, 90.21 58.07, 136.45 0.66 M57.85 102.63 C88.89 59.81, 125.76 21.45, 142.66 -1.28 M52.03 102.65 C86.59 66.91, 116.73 31.82, 142.28 0.66 M60.4 101.13 C92.02 64.18, 131.21 22, 145.65 -1.61 M59.6 103.32 C85.6 72.97, 110.52 40.78, 148.19 -1.6 M61.29 101.82 C89.32 81.59, 107.58 51.95, 152.16 -3.75 M63.67 102.83 C93.7 70, 119.79 41.13, 155.18 -0.94 M71.81 105.83 C103.68 64.44, 138.42 25.77, 157.95 -1.13 M68.73 104.81 C95 74.75, 119.44 44.82, 158.85 1.24 M79.16 100.89 C98.26 78.1, 114.41 58.09, 167.35 2.69 M74.08 101.22 C98.36 76.71, 120.99 52.61, 163.23 0.25 M83.86 100.63 C103.55 74.17, 131.49 39.93, 166.84 1.29 M81.22 103.81 C111.58 66.98, 138.94 32.5, 168.15 -0.45 M83.83 99.8 C102.67 76.61, 126.7 55.44, 173.01 -3.4 M87.71 103.41 C109.72 72.29, 133.61 43.67, 175.16 -1.93 M87.83 105.57 C113.12 75.31, 137.4 52.02, 182.06 -1.75 M90.56 101.4 C113.39 77.81, 137.06 50.69, 178.87 1.62 M99.51 100.7 C122.5 73.9, 142.64 43.61, 185.81 2.67 M96.1 100.97 C132.02 62.84, 166.82 25.18, 184.8 -1.73 M98.87 98.85 C131.72 62.93, 160.77 31.54, 193.19 0.5 M103.33 102.61 C135.79 65.94, 170.41 25.49, 188.84 1.7 M106.3 99.81 C128.23 80.78, 141.85 55.36, 198.27 3.7 M105.83 103.38 C130.01 79.72, 149.23 54.34, 195.02 -1.43 M116.04 104.77 C128.66 75.56, 148.36 57.32, 201.72 -3.09 M111.13 104.39 C134.39 76.67, 158.17 50.08, 202.97 -0.05 M120.19 103.52 C146.9 65.82, 180.94 30.63, 210.83 -3.39 M118.56 102.07 C134.89 81.02, 156.12 57.61, 205.74 0.62 M122.23 105.76 C150.57 72.05, 179.41 39.17, 213 2.47 M122.66 103.63 C144.02 73.75, 167.87 48.27, 213.22 -1.51 M128.36 105.06 C159.98 67.41, 194.39 23.1, 215.75 0.48 M126.35 103.14 C162.42 61.27, 198.49 22.68, 217.97 -2.02 M132.24 106.37 C159.92 73.53, 187.32 35.62, 220.24 2.31 M131.66 101.17 C159.49 69.65, 189.01 31.96, 222.63 1.37 M139.85 105.55 C169.24 61.66, 202.84 27.01, 229.21 0.48 M138.3 104.4 C168.45 64.88, 203.78 29.63, 229.77 0.18 M144.74 101.3 C181.11 63.35, 210.9 19.14, 236.55 -0.34 M144.94 101.76 C165.58 81.89, 185 56.98, 233.29 -1.42 M149.6 102.49 C183.07 61.78, 210.78 23.66, 234.59 -3.34 M148.57 103.83 C186.02 66.65, 217.4 26.79, 239.6 1.44 M158.24 99.34 C185.98 65.66, 218.36 24.37, 246.9 -0.1 M154.37 102.13 C180.06 71.79, 203.42 43.67, 242.34 -1.97 M157.09 102.74 C186.22 79.36, 206.44 51.26, 249.1 0.96 M159.09 104.61 C179.79 79.91, 197.84 58.16, 248.96 1.63 M163.18 99.43 C190.42 74.91, 215.68 44.53, 256.15 2.53 M164.89 102.91 C187.12 80.65, 206.52 56.25, 254 1.6 M173.67 99.31 C197.09 75.84, 213.55 52.74, 255.88 1.69 M170.8 103.85 C200.44 66.74, 233.15 31.79, 258.44 -1.16 M173.83 98.63 C201.48 75.48, 225.61 43.01, 265.01 1.15 M174.5 100.69 C198.37 78.95, 217.34 53.42, 263.56 1.08 M182.56 103.3 C209.05 73.56, 237.97 34.73, 270.6 0.52 M179.75 104.6 C205.87 70.12, 236.21 39.01, 270.35 -1.66 M188.36 100.11 C210.58 76.51, 237.27 45.35, 278.09 -0.49 M186.25 103.97 C207.13 80.5, 224.53 60.03, 277.35 -1.78 M194.86 103.97 C222.65 66.18, 259.58 26.23, 276.78 -2.74 M193.02 103.84 C224.52 64.61, 262.66 25.24, 280.06 1.33 M196.8 105.18 C232.27 58.33, 264.54 20.55, 287.86 3.49 M196.27 101.23 C224.4 75.57, 249.97 43.18, 284.78 0.67 M201.55 100.68 C230.77 72.03, 267.4 31.45, 289.85 -2.15 M200.77 104.51 C231.73 70.12, 264.11 34.89, 292.01 0.97 M205.07 105.28 C227.53 78.6, 247.89 56.79, 298.67 -2.92 M209.74 100.84 C229.24 80.41, 249.64 59.35, 298.31 -1.93 M213.47 102.93 C240.83 62.81, 275.53 34.05, 301.08 -1.66 M212.21 103.47 C247.13 65.85, 282.83 22.64, 303.69 -1.68 M218.96 105.96 C244.07 70.75, 271.56 40.22, 310.74 -1.61 M216.91 103.15 C241.79 68.94, 271.86 39.42, 309.47 -2.05 M221.36 106.33 C249.55 76.82, 276.45 51.83, 309.65 0.91 M223.62 103.51 C249.55 71.92, 277.37 37.75, 313.66 -1.58 M228.12 102.9 C250.38 77.71, 275.16 53.9, 320.18 3.67 M229.08 100.42 C252.71 73.21, 279.65 44.27, 316.85 -2.19 M235.8 100.64 C269.61 65.67, 298.98 29.42, 322.59 -2.13 M234.34 101.37 C262.31 68.14, 293.11 32.16, 321.55 -1.79 M237.43 106.66 C267.39 73.08, 290.1 38.08, 326.96 3.3 M237.98 101.61 C263.3 73.7, 288.25 48.31, 330.1 1.06 M247.28 101.71 C259.29 79.71, 278.96 58.83, 330.8 3.65 M242.77 103.73 C263.51 79.28, 283.35 56.4, 332.03 -1.42 M245.63 99.67 C279.6 76.8, 298.95 45.87, 342.93 -2.25 M250.35 101.36 C284.11 64.83, 315.42 26.74, 337.94 1.08 M258.15 103.54 C282.67 68.16, 315.96 26.9, 341.08 -1.19 M254.39 103.2 C289.63 61.66, 323.88 19.05, 342.87 0.38 M257.35 104.74 C285.5 80.03, 300.31 57.42, 351.16 -1.58 M260.03 104.5 C287.96 72.79, 319.31 37.8, 347.5 1.91 M266.62 102.26 C285.46 78.25, 308.85 48.1, 352.09 2.03 M265.71 102.33 C282.77 81.31, 303.76 61.6, 356.86 0.36 M269.73 102.04 C292.19 73.39, 319.41 48.2, 356.56 0.52 M270.58 103.05 C292.43 78.02, 308.99 58.38, 358.92 -0.71 M274.8 104.11 C297.4 79.26, 312.67 59.48, 362.37 -1.88 M276.33 101.6 C300.63 71.09, 325.31 45.28, 365.88 -0.76 M279.83 101.9 C302.23 79.09, 326.36 47.27, 373.94 3.69 M282.62 100.96 C311.78 64.2, 344.97 27.3, 369.46 1.14 M288.67 101.45 C322.97 63.39, 356.08 24.05, 378.32 2 M288.91 103.45 C320.28 68.15, 347.68 30.29, 374.86 1.65 M292.55 104.73 C321.82 72.57, 344.79 40.98, 382.66 0.93 M293.85 102.14 C317.08 74.61, 339.17 47.17, 380.07 0.58 M294.07 104.78 C329.91 66.38, 354.21 32.47, 390.24 2.74 M297.15 104.23 C319.55 80.11, 337.37 55.37, 385.8 0.19 M304.68 101.09 C317.15 83.38, 340.22 59.11, 389.95 3.34 M302.99 102.41 C326.34 81.7, 347.53 57.95, 390.79 0.65 M304.72 102.72 C340.28 59.45, 378.76 23.86, 396.29 3.51 M309.84 102.24 C332.63 75.58, 355.63 51.23, 397.76 -0.64 M312.89 103.67 C341.73 73, 370.91 42.66, 398.9 0.17 M313.87 101.54 C343.34 67.81, 375.67 32.36, 400.71 -1.66 M322.24 102.02 C352.89 59.95, 387.29 23.07, 410.5 -2.38 M318.82 101.72 C344.73 74.83, 367.81 49.9, 406.86 -0.38 M321.7 99.27 C349.14 67.83, 381.44 35.86, 416.48 -1.2 M323.36 103.23 C352.24 68.03, 383.59 35.21, 411.98 0.59 M328.08 103.53 C359.37 68.03, 386.86 36.32, 422.79 0.51 M330.99 100.85 C359.5 67.61, 390.17 28.41, 418.29 1.37 M335.54 104.82 C358.57 72.57, 385.51 45.06, 421.55 0.72 M333.39 103.13 C356.21 76.47, 375.74 51.64, 425.82 0.24 M339.61 102.27 C364 80.92, 381.97 57.44, 430.95 1.74 M340.31 103.74 C369.72 66.37, 399.11 31.62, 430.29 0.94 M342.69 103.39 C370.9 76.52, 386.34 53.99, 436.83 1.54 M346.95 100.83 C380.36 63.24, 418.02 20.56, 434.5 0.1 M354.04 103.34 C381.51 64.42, 414.09 34.83, 440.63 -3.03 M351.82 100.43 C382.54 69.52, 409.84 33.85, 438.17 -1.41 M355.3 100.15 C386.58 68.71, 420.38 26.4, 448.92 -0.99 M356.12 103.83 C381.79 73.55, 402.73 48.41, 445.36 0.91 M363.82 106.74 C375.59 85.39, 395.2 66.48, 449.37 -3.98 M360.95 103.67 C391.45 66.53, 424.95 28.81, 450.31 -1.46 M369.43 106.41 C400.26 61.21, 434.41 22.96, 456.29 1 M366 103.6 C394.73 69.18, 426.22 33.87, 456.82 1.34 M375.24 104.34 C405.32 67.62, 438.33 27.55, 462.59 -1.18 M372.17 101.88 C402.18 68.41, 427.35 37.19, 460.14 0.92 M380.98 99.59 C407.8 63.88, 443.89 29.87, 469.3 1.51 M378.79 103.52 C401.75 74.98, 423.49 47.18, 466.33 -1.99 M380.49 100.38 C413.32 70.06, 433.55 42.27, 468.91 4.19 M383.03 103.67 C417.16 60.08, 449.73 20.41, 469.5 -1.42 M385.73 103.27 C418.95 66.87, 446.06 30.42, 478.17 -3.36 M389.73 102.94 C418.7 62.78, 454.13 26.21, 478.43 1.46 M392.29 100.48 C415.8 80.82, 433.54 55.39, 482.82 -1.21 M390.81 102.84 C419.35 73.79, 446.68 44.56, 483.26 2.01 M395.36 99.11 C425.4 75.14, 443.84 47.56, 485 0.66 M399.13 101.11 C427.65 69.61, 456.1 38.01, 488.69 0.18 M403.25 104.39 C431.13 63.84, 467.24 31.55, 492.69 1.68 M403.86 103.13 C423.17 80.35, 442.04 57.95, 493.39 -0.06 M405.39 98.93 C438.05 75.58, 469.07 42.41, 495.76 -2.08 M408.36 101.25 C439.63 71.5, 467.59 37.31, 499.79 0.6 M417.83 105.98 C446.73 60.93, 481.89 20.56, 503.43 -2.69 M413.57 102.21 C438.14 75.17, 463.71 45.84, 501.57 0.25 M419.24 104.65 C451.99 64.71, 487.74 31.09, 512.3 -1.08 M419.86 102.49 C450.05 70.45, 477.19 40.25, 509.43 -0.92 M428.4 101.23 C442.78 79.84, 466.27 52.75, 511.83 0.21 M426.42 103.7 C442.58 81.65, 463.38 58.58, 514.55 -1.22 M432.2 100.34 C452 80.61, 479.36 56.08, 516.35 0.28 M429.12 103.93 C459.69 67.63, 490.43 35.86, 518.39 -2.09 M439.16 104.28 C469.59 64.68, 501.52 31.74, 522.55 -0.91 M435.93 101.15 C467.47 64.6, 503.71 26.96, 524.14 -0.71 M439.42 100.18 C470.01 66.65, 507.92 28.37, 533.51 0.74 M440.71 100.57 C463.45 76.83, 482.84 52.69, 530.52 1.34 M442.23 99.35 C473.02 70.83, 499.88 41.63, 532.14 -3.27 M446.69 102.04 C472.76 68.58, 499.63 39.65, 535.21 1.49 M451.95 100.46 C472.69 72.96, 500.6 48.66, 537.25 1.17 M452.25 103.38 C475.22 75.73, 502.37 44.43, 540.71 -0.46 M457.58 104.83 C481.15 74.05, 502.07 47.84, 545 2.08 M458.35 103.8 C484.72 70.15, 512.5 39.83, 545.69 1.03 M464.7 103.63 C483.46 74.46, 504.53 53.09, 552.92 -3.43 M462.41 103.24 C493.41 67.18, 523.48 37.32, 550.93 0.62 M469.05 101.21 C496.77 69.41, 522.43 38.2, 557.41 -1.81 M465.64 101.78 C498.48 65.88, 527.57 31.78, 554.59 1.48 M471.8 103 C505.44 65, 544.77 17.83, 561.75 0.06 M470.3 103.74 C495.23 82.71, 513.32 56.42, 562.21 -1.36 M480.37 103.1 C509.74 64.3, 545.25 23.93, 565.55 -1.76 M478.33 101.3 C504 74.02, 529.66 46.06, 565.97 -1.63 M485.22 103.73 C504.87 70.93, 532.76 50.37, 572.83 2.88 M482.03 102.15 C503.01 83.57, 525.15 58.3, 574.64 1.57 M491.15 103.25 C518.27 64.91, 547.91 29.58, 581.45 -2.46 M489.26 101.59 C517.77 70.8, 542.64 42.71, 576.93 -0.85 M490.84 103.39 C520.03 76.64, 540.03 53.96, 582.48 -0.85 M494.82 101.92 C527.28 65.96, 556.56 32.96, 582.72 0.11 M496.85 104.53 C525.46 70.08, 553.43 46.92, 585.01 -2.48 M498.33 103.81 C525.21 75.96, 546.27 50.44, 589.68 -0.79 M507.08 104.91 C527.93 76.32, 548.99 47.5, 592.88 -1.14 M503.6 101.69 C527.55 77.77, 552.47 49.18, 593.98 0.59 M512.82 103.93 C531.09 73.88, 558.25 45.49, 596.04 -2.26 M508.51 103.09 C542.21 66.36, 571.23 30.56, 599.45 1.88 M512.22 101.35 C544.66 62.57, 582.36 29.12, 600.07 0.38 M516.38 104.06 C532.15 82.75, 553.43 60.78, 605.03 1.59 M518.3 100.57 C551.52 62.17, 584.12 25.14, 610.18 3.87 M521.83 104.48 C539.84 78.47, 560.54 57.66, 610.56 -1.56 M524.43 99.89 C558.55 65.03, 585.24 31.1, 612.68 3.46 M526.21 103.53 C543.47 81.08, 562.08 60.75, 616.22 -1.17 M528.37 103.7 C550.36 77.61, 563.24 62.71, 622.98 3.73 M531.38 102.96 C551.33 80.81, 571.51 56.86, 620.38 0.09 M537.74 105.83 C557.51 75.66, 575.95 52.31, 627.16 1.96 M535.2 102.56 C563.44 73.5, 590.31 40.92, 626.96 1.98 M538.02 100.69 C577.11 68.03, 611.68 28.06, 629.85 -0.75 M541.32 103.45 C560.87 78.83, 581.56 55.8, 631.34 -2.03 M546.07 106.6 C578.82 67.32, 609.71 32.32, 635.86 -0.12 M546.56 103.54 C572 72.5, 595.9 43.74, 635.7 -1.33 M554.09 105.02 C586.68 67.65, 612.59 31.17, 642.08 -1.52 M550.85 100.83 C583.22 66.19, 615.14 29.93, 642.94 -0.84 M559.19 103.77 C587.92 71.63, 616.2 31.8, 643.02 3.34 M556.52 100.82 C578.87 76.31, 601.98 51.17, 647.98 -1.56 M563.31 100.32 C584.4 73.74, 609.82 50.06, 654.83 -0.39 M562.25 103.88 C588.45 72.63, 613.12 40.37, 651.73 -1.31 M570.78 105.02 C587.78 77.1, 606.1 52.12, 656.74 -3.41 M566.39 104.64 C598.85 68.99, 632.33 28.83, 656.39 0.77 M572.28 104.34 C600.4 66.38, 632.72 28.09, 663.13 -1.06 M572.87 103.35 C604.54 64.36, 634.49 27.19, 663.35 -0.49 M582.37 100.15 C601 78.16, 619.4 48.82, 664.98 -2.02 M578.56 101.23 C601.28 78.02, 621.43 49.61, 668.58 -0.9 M583.47 104.94 C621.45 66.5, 656.39 21.06, 669.89 -1.1 M583.12 103.9 C604.94 80.16, 622.93 57.22, 672.48 0.5 M587.37 101.09 C618.16 75.3, 646.03 36.84, 675.59 4.03 M588.44 100.73 C618.59 64.42, 651.99 28.22, 679.26 0.79 M594.58 100.86 C618.66 78.39, 641.14 50.49, 685.92 0.06 M595.79 104.92 C630.49 62.8, 663.8 22.92, 682.85 0.51 M603.08 101.9 C627.31 75.01, 657.26 37.96, 692.31 -2.66 M600.53 101.2 C623.4 71.44, 649.22 41.96, 690.22 -0.87 M601.14 106.73 C637.21 61.45, 673.35 27.03, 697.85 1.08 M606.74 101.43 C636.9 66.93, 664.14 36.78, 695.29 -1.7 M606.64 102.76 C632.29 72.83, 657.73 43.24, 698.73 2.65 M608.41 100.69 C633.8 77.25, 655.08 51.85, 698.3 1.36 M616.59 101.54 C641.38 76.04, 663.91 50.84, 707.59 -0.46 M616.89 104.69 C646.63 68.62, 680.39 29.86, 703.01 1.34 M623.1 101.98 C642.83 74.68, 665.85 54.99, 706.33 -1.15 M622.69 101.13 C641.37 80.68, 660.87 58.36, 711.39 0.66 M626.92 105.66 C647.28 85.26, 662.6 60.94, 718.85 -3.15 M626.9 103.11 C654.13 70.94, 682.36 37.61, 714.25 -1.25 M629.38 103.99 C660.01 71.11, 693.03 32.39, 722.45 -1.08 M631.04 104.43 C653.75 77.92, 675.7 53.7, 720.47 0.14 M637.96 101.57 C660.96 71.57, 691.24 43.68, 725.26 2.83 M636.48 103.05 C667.82 70.33, 693.73 41.01, 724.36 1.87 M642.25 103.35 C663.13 72.12, 693.01 43.97, 734.32 1.98 M642.23 104.41 C670.33 71.99, 694.11 39.18, 731.56 0.85 M643.45 105.92 C673.92 67.73, 706.36 35.04, 736.99 0.66 M648.42 104.83 C682.98 62.84, 718.05 21.02, 738.4 1.23 M654.39 100.73 C678.64 72.15, 704.03 41.88, 741.03 1.28 M654.07 102.85 C672.17 80.23, 688.25 57.32, 741.76 1.77 M656.99 105.42 C683.75 75.05, 705.19 49.57, 748.07 3.65 M656.55 102.66 C683.93 74.34, 706.86 45.53, 746.48 -0.73 M666.32 102.95 C683.3 79.77, 702.8 58.34, 753.58 0.18 M665.41 101.44 C693.75 68.82, 726.87 32.16, 751.21 -0.16 M672.04 104.96 C698.88 68.66, 730.39 29.68, 760.41 -0.78 M669.77 104.74 C701.16 64.02, 734.04 26.23, 755.8 -1.61 M670.46 98.94 C695.05 77.4, 718.7 59.09, 762.79 -3.81 M672.2 101.84 C701.67 72.24, 729.26 44.55, 763.14 -2.09 M677.97 103.53 C715 66.39, 743.07 28.55, 767.81 -3.07 M680.06 101.17 C696.72 82.91, 714.48 61.32, 766.59 0.92 M683.1 99.75 C707.82 81.07, 723.05 56.9, 771.41 -3.09 M683.43 101.62 C707.93 75.12, 731.3 50.16, 775.82 0.78 M691.99 102.25 C709.9 83.01, 729.03 58.41, 779.92 -3.53 M690.44 104 C722.22 66.73, 756.46 27.15, 780.17 1.13 M696.39 98.56 C723.27 80.73, 744.6 50.67, 786.02 -3.91 M697.17 102.31 C714.56 78.24, 734.81 55.69, 786.59 -0.8 M703.2 104.36 C730.05 59.08, 771.18 22.67, 790.28 3.64 M699.01 103.22 C735.01 63.57, 769.6 23.61, 790.92 1.23 M701.73 103.44 C740.17 60.33, 769.25 25.9, 793.1 -2.39 M703.88 102.11 C736.51 67.31, 770.32 30.3, 795.85 -2.17 M712.57 99.23 C741.47 73.1, 767.51 39.96, 800.3 -1.63 M710.91 102.75 C736.97 78.06, 758.37 50.19, 802.26 -0.64 M716.33 102.31 C746.79 64.56, 785.63 26.97, 807.01 -0.55 M717.05 104.9 C740.17 76.78, 763.22 48.65, 807.08 -0.71 M724.97 102.36 C749.74 69.61, 775.66 35.32, 811.27 -1.27 M722.36 104.45 C748 73.68, 773.76 44.7, 810.69 1.6 M723.33 99.48 C754.87 65.48, 785.89 32.8, 813.31 2.49 M725.29 104.78 C753.79 72.5, 778.58 40.21, 814.14 0.88 M733.11 99.36 C770.05 62.38, 803.95 18.66, 824.35 -3.12 M732.64 104.14 C755.63 72.66, 783.48 45.38, 821.78 1.96 M738.38 104.63 C767.48 66.63, 801.74 30.11, 827.41 -0.54 M738.89 103.02 C756.58 80.31, 780.75 54.2, 827.93 -0.42 M741.59 101.99 C776.09 66.81, 810.09 28.57, 832.59 -0.85 M744.09 103.53 C769.52 67.17, 801.88 31.94, 834.13 -1.58 M745.03 101.56 C774.76 71.32, 801.25 43.52, 834.63 3.5 M749.22 104.81 C770.76 76.18, 793.96 47.8, 836.46 0.57 M750.88 100.1 C787.88 61.41, 816.72 28.79, 844.88 1.95 M754.11 102.31 C772.46 79.22, 795.38 55.01, 843.45 0.85 M758.68 104.22 C788.41 67.92, 817.78 34.19, 848.82 -2.92 M756.74 103.3 C788.49 70.36, 816.51 35.08, 847.44 2.21 M765.34 101.69 C792.8 76.17, 812.71 45.6, 854.03 -0.15 M763.17 102.1 C787.46 74.39, 812.96 47.83, 854.48 -0.91 M770.63 100.65 C786.24 83, 806.96 59.35, 855.7 -3.16 M770.92 103.57 C801.57 62.48, 840.02 25.85, 859.65 0.81 M777.19 100.88 C804.23 76.63, 831.53 42.87, 860.68 1.53 M774.8 102.43 C796.69 78.88, 815.88 57.87, 865.02 -1.09 M780.04 101.04 C797.52 79.52, 821.18 59.88, 868.89 -2.48 M778.33 102.65 C795.93 77.68, 818.14 54.24, 870.93 -1.41 M782.53 101.92 C808.85 73.6, 836.99 37.31, 873.38 -2.21 M783.59 100.8 C822.66 62.45, 856.03 23.18, 873.94 -1.98 M793.93 105.7 C823.15 62.97, 858.48 24.47, 881.83 3.98 M790.6 101.48 C824.51 61.77, 856.59 23.29, 878.18 -0.26 M797.34 103.17 C831.86 63.31, 866.03 25.11, 884.54 1.57 M795.19 100.63 C825.09 65.32, 857.83 30.43, 885.19 -1.95 M803.23 105.05 C834.28 61.87, 859.24 30.76, 891.9 -0.79 M800.4 100.96 C820.82 81.13, 840.37 58.08, 889.36 -1.63 M809.46 105.13 C831.15 68.56, 861.28 44.59, 894.45 -0.08 M806.32 103.28 C838.06 61.47, 872.21 26.53, 895.76 0.59 M814.73 103.65 C833.38 76.74, 856.55 51.57, 900.32 0.35 M813.49 101.92 C837.18 71.51, 862.03 44.22, 899.52 -1.48 M818.62 102.42 C837.37 77.01, 858.63 48.46, 903.26 2.03 M816.75 104.06 C838.54 75.2, 858.09 54.34, 907.71 -0.84 M819.08 104.19 C858.38 61.53, 888.6 25.48, 912.17 2.63 M820.67 101.14 C854.28 66, 880.87 33.1, 910.73 -1.81 M827.76 100.54 C851.36 70.49, 879.18 42.44, 919.03 -0.81 M828.68 104.96 C847.37 81.29, 864.75 58.04, 916.16 -0.78 M830.82 99.47 C849.73 78.73, 872.54 58.51, 920.44 3.42 M833.81 103.31 C858.32 70.12, 885.23 42.31, 924.15 1.29 M837.67 104.84 C866.1 71.63, 894.55 36.74, 925.65 -3.14 M837.31 103.63 C864.04 75.77, 886.69 44.62, 929.29 -1.85 M840.36 104.42 C880.57 64.79, 909.1 24.28, 929.98 2.21 M841.86 101.08 C873.26 69.39, 900.79 35.26, 931.99 1.69 M851.04 101.08 C877.79 74.54, 904.62 35.27, 938.26 -0.68 M846.96 101.96 C872.83 74.97, 896.12 45.81, 939.7 2.04 M853.99 100.1 C870.76 77.33, 894.47 57.57, 941.52 0.63 M854.8 103.03 C888.67 65.97, 918.74 30.83, 941.54 -0.8 M859.1 100.38 C888.22 69.9, 916.09 36.51, 949.83 -1.24 M857.65 102.98 C893.87 63.78, 926.11 24.84, 947.01 -1.34 M861.88 105.69 C889.05 77.2, 908.63 50.02, 951.64 2.42 M863.7 101.69 C893.96 70.1, 923.81 38.31, 955.14 -0.46 M872.95 99.97 C899.58 66.65, 936.15 24.44, 959.25 3.74 M868.48 103.69 C889.6 79.01, 912.55 51.15, 957.93 1.96 M878.06 106.5 C908.35 59.98, 946.01 22.4, 960.83 -2.55 M876.68 101.49 C908.15 68.04, 937.88 28.79, 966.19 -1.61 M883.56 99.23 C916.66 62.68, 949.68 22.87, 965.92 4.19 M881.59 103.01 C905.08 78.56, 926.34 53.55, 968.9 1.09 M884.43 101.96 C905.66 84.17, 923.05 63.75, 973.43 1.71 M886.93 102.85 C920.14 63.1, 956.64 21.28, 975.14 1.37 M893.78 99.65 C925.12 59.1, 963.21 25.34, 977.14 4.17 M890.21 101.8 C908.16 82.67, 926.25 60.83, 981.42 1.12 M894.8 105.62 C924.56 71.65, 951.89 32.66, 989.68 1.32 M896.68 102.09 C926.47 66.67, 957.11 29.18, 985.55 0.03 M902.33 104.85 C939.54 61.24, 972.91 28.18, 992.06 -2.15 M902.62 102.86 C929.56 70.41, 958.42 40.13, 990.04 -0.92 M906.82 105.17 C929.45 76.04, 952.04 46.89, 997.66 0.53 M909.26 103.47 C941.29 65.75, 969.49 31.28, 995.98 -0.16 M911.82 104.58 C936.9 77.76, 960.23 50.13, 1001.73 1.55 M914.14 102.93 C944.6 63.08, 976.56 25.95, 1002.39 -0.08 M918.02 102.42 C946.02 71.28, 967.49 47.24, 1005.37 -2.3 M917.02 103.21 C948.64 72.37, 977.74 38.26, 1008.1 0.25 M920.72 106.7 C954.87 64.47, 979.75 30.55, 1013.05 -2.31 M923.2 104.69 C953.45 68.05, 985.84 34.88, 1011.15 0.54 M925.83 105.29 C953.55 81.93, 975.96 50.99, 1016.63 1.33 M929.41 101.45 C966.04 62.98, 998.88 23.03, 1018.63 -1.4 M931.38 105.21 C952.31 82.11, 976.61 54.41, 1024.81 -1.16 M935.24 100.74 C956.77 75.58, 978.59 46.51, 1022.07 1.76 M934.87 104.6 C968.81 66.83, 1004.41 33.19, 1031.18 -1.96 M940.28 103.03 C958.56 78.51, 979.65 54.16, 1027.34 -1.8 M942.03 104.23 C976.02 62.81, 1008.01 26.49, 1035.68 -0.33 M942.81 101.64 C968.15 73.12, 994.71 45.63, 1033.96 0.36 M951.61 103.02 C979.67 65.08, 1014.3 35.84, 1036.62 0.57 M950.48 102.44 C984.27 61.71, 1020.54 22.64, 1041.06 0.29 M954.75 102 C976.39 81.98, 1002.23 56.04, 1044.19 0.99 M953.49 103.88 C977.81 79.68, 997.68 57.73, 1042.69 1.04 M956.44 103.6 C981.86 70.88, 1010.98 39.19, 1047.77 0.54 M959.98 104.41 C993.16 67.62, 1022.37 28.88, 1049.06 0.79 M967.54 98.89 C983.95 75.73, 1007.85 53.46, 1056.75 1.73 M965.93 101.87 C982.53 79.76, 1002 57.31, 1053.2 0.45 M970.27 106.8 C998.27 74.32, 1019.17 43.75, 1061.29 -2.55 M970.48 104.83 C994.49 77.24, 1017.39 50.89, 1061.61 -0.69 M974.23 105.39 C1006.01 69.87, 1031.25 42.43, 1063.66 -1.04 M977.85 103.98 C1002.15 72.04, 1030.1 41.62, 1063.48 -0.84 M981.88 103.15 C1008.57 77.53, 1035.54 39.61, 1067.74 3.16 M980.71 103.53 C1013.9 67.3, 1044.91 33.22, 1070.07 -0.34 M988.56 102.13 C1016.84 65.1, 1044.67 32.61, 1079.06 3.84 M986.04 104.52 C1018.9 66.18, 1055.53 23.5, 1076.59 1.7 M987.95 105.34 C1014.6 71.48, 1046.96 38.3, 1078.24 -1.08 M990.49 104.27 C1027.79 65.22, 1059.48 22.7, 1081.54 -1.19 M996.12 103.85 C1023.48 75.21, 1045.86 53.3, 1085.01 1.69 M998.32 103.71 C1022.17 74.43, 1047.82 42.96, 1084.65 0.51 M1001 100.17 C1023.89 84.32, 1037.81 57.28, 1091.74 0.1 M1000.69 102.77 C1021.76 81.11, 1040.37 58.66, 1090.18 -0.3 M1010.38 103.42 C1040.91 66.43, 1068.95 27.72, 1095.41 -0.06 M1009.6 103.74 C1037.46 70.03, 1070.97 32, 1096.85 0.01 M1009.44 104.59 C1037.35 74.37, 1061.37 44, 1103.1 0.19 M1013.24 102.66 C1046.98 68.02, 1075.74 32.12, 1101.2 -0.81 M1016.7 103.82 C1050.05 65.49, 1075.36 36.26, 1108.04 -3.85 M1017.86 100.71 C1049.46 65.87, 1081.23 27.88, 1107.44 0.5 M1025.57 101.64 C1054.04 62.17, 1085.19 25.95, 1111.05 2.81 M1023.15 103.54 C1048.94 75.06, 1076.5 43.08, 1114.87 0.08 M1028.31 102.19 C1051.67 79.12, 1066.8 56.8, 1120.58 2 M1028.11 100.67 C1051.46 76.45, 1070.14 53.57, 1119.72 -1.73 M1037.54 104.51 C1068.65 68.85, 1098.1 27.51, 1126.19 -2.3 M1034.46 100.9 C1060.27 72.45, 1085.84 40.9, 1122.54 -0.9 M1038.29 105.76 C1069.27 74.63, 1094.27 37.79, 1130.55 3.28 M1040.45 103.62 C1059.33 82.2, 1076.28 61.48, 1130.07 1.52 M1041.4 100.51 C1065.6 75.23, 1094.48 49.58, 1130.98 0.74 M1044.31 102.22 C1069.74 75.97, 1093.11 47.85, 1134.62 -1.07 M1050.97 100.66 C1067.12 81.21, 1095.1 54.1, 1143.38 -0.05 M1049.38 104.23 C1083.29 66.65, 1113.62 31.44, 1139.92 -1.6 M1057.06 99.05 C1082.56 69.81, 1109.5 44.44, 1143.79 -2.08 M1054.87 102.89 C1079.52 73.45, 1104.63 48.06, 1144.56 0.18 M1060.51 104.88 C1095.22 59.91, 1132.05 21.26, 1148.34 -1.95 M1062.42 104.85 C1085.74 71.95, 1112.68 40.38, 1151.78 0.98 M1064.3 99.71 C1091.56 71.23, 1116.79 44.45, 1154.82 1.36 M1065.39 102.24 C1099.51 64.78, 1136.16 24.03, 1156.9 1.4 M1070.99 100.78 C1096.79 79.17, 1112.59 55.5, 1157.95 2.51 M1072.2 104.05 C1098.12 69.02, 1129.83 35.77, 1160.53 2.03 M1074.78 100.17 C1100.07 77.34, 1127.06 41.41, 1166.2 1.3 M1076.19 103.53 C1099.77 71.45, 1125.67 43.24, 1167.22 -0.92 M1082.99 104.12 C1118.76 65.31, 1146.71 25.81, 1170.55 -1.86 M1083.05 101.55 C1103.84 80.61, 1126.73 54.29, 1172.12 0.01 M1084.04 104.22 C1119.21 66.16, 1148.38 27.59, 1175.88 -1.9 M1088.64 101.97 C1111.65 77.47, 1131.66 52.42, 1178.19 -0.35 M1092.99 100.75 C1118.33 72.11, 1149.37 38.79, 1182.4 2.13 M1094.38 103.03 C1121.96 70.72, 1154.5 33.46, 1183.57 -0.44 M1095.5 105.81 C1118.22 78.74, 1143.04 52.15, 1185.71 2.28 M1097.16 100.7 C1128.1 68.33, 1158.1 30.64, 1187.51 -0.54 M1101.35 102.68 C1139.51 63.55, 1168.82 31.93, 1190.28 -2.98 M1104.66 104.1 C1138.92 62.74, 1172.92 23.65, 1193.64 0.52 M1112.44 104.99 C1135.2 72, 1165.4 30.84, 1201.43 2.43 M1109.26 102.82 C1126.4 77.81, 1147.36 56.63, 1195.96 0.81 M1112.29 100.02 C1147.04 67.61, 1179.16 30.32, 1206.86 3.5 M1115.41 102.32 C1141.87 70.11, 1169.17 37.3, 1202.13 -1.35 M1122.02 99.93 C1143.02 74.99, 1165.02 50.44, 1208.64 -2.68 M1117.5 103.32 C1146.67 66.54, 1177.71 32.19, 1207.39 -0.05 M1125.9 101.02 C1146.49 71.9, 1171.98 41.22, 1212.68 0.38 M1123.23 101.17 C1148.33 75.36, 1169.24 47.5, 1213.91 1.66 M1127.29 102.95 C1159.41 68.17, 1191.51 27.86, 1220.8 3.8 M1131.5 101.18 C1161.71 69.37, 1190.45 29.76, 1220.7 -0.95 M1138.17 100.05 C1161.83 71.75, 1191.91 41.64, 1228.15 -3.41 M1135.76 102.08 C1166.79 72.03, 1194.91 34.93, 1222.93 1.19 M1139.14 100.49 C1170.49 64.03, 1201.16 30.42, 1231.26 0.88 M1141.94 103.29 C1167.34 69.05, 1199.32 34.94, 1229.85 -1.78 M1148.93 101.6 C1178.22 66.76, 1201.8 36.45, 1233.55 -0.81 M1143.73 104.4 C1174.49 73.62, 1199.65 41.32, 1236.16 0.82 M1152.38 101.08 C1171.53 75.55, 1194.94 45.68, 1237.26 1.66 M1152.57 100.47 C1179.42 71.99, 1207.82 39.32, 1239.87 -0.49 M1153.93 104.29 C1177.3 80.31, 1193.74 52.87, 1249.04 -2.65 M1156.91 101.44 C1179.28 77.45, 1200.06 55.77, 1245.68 0.07 M1161.65 103.43 C1189.82 76.31, 1215.46 42.1, 1247.89 -2.59 M1160.2 103.49 C1193.35 65.14, 1224.72 29.36, 1250.86 -1.1 M1168.75 100.86 C1192.97 65.12, 1224.49 36.93, 1254.67 2.39 M1168.15 104.43 C1193.58 72.16, 1223.91 38.75, 1256.61 -1.6 M1168.85 105.08 C1194.04 76.81, 1219.03 50.74, 1260.12 -2.53 M1170.04 103.82 C1198 72.6, 1228.31 39.27, 1261.97 -1.67 M1180.87 102.19 C1200.86 74.37, 1229.89 35.77, 1270.34 -0.27 M1177.34 102.56 C1197.06 81.6, 1215.36 59.59, 1267.13 -0.8 M1185.7 99.46 C1221.44 57.63, 1251.52 20.38, 1274.81 -2.65 M1182.35 102.58 C1219.08 60.7, 1254.6 19.38, 1271.4 -2.35 M1189.64 105.26 C1204.64 80.84, 1226.28 61.65, 1275.85 -3.07 M1187.45 102.92 C1211.34 74.1, 1232.71 46.54, 1276.49 1.81 M1189.82 104.38 C1214.17 80.22, 1240.02 55.73, 1280.02 3.43 M1192.46 103.13 C1214.71 78.31, 1240.38 50.31, 1283.79 -0.58 M1198.28 101.21 C1226.42 66.71, 1258.99 34.25, 1290.85 -0.32 M1200.52 102.58 C1233.47 65.17, 1262.73 28.72, 1289 1.48 M1207.39 103.03 C1236.24 69.05, 1269.31 25.07, 1293.66 -2.07 M1205.44 103.96 C1235.44 65.17, 1264.7 30.83, 1292.79 1.87 M1205.9 99.26 C1233.89 77.37, 1256.34 49.08, 1294.89 3.78 M1209.62 104.52 C1235 74.21, 1259.59 47.68, 1298.03 1.43 M1216.43 100.71 C1247.79 61, 1278.01 21.58, 1303.56 -0.52 M1215.4 103.55 C1239.46 74.09, 1263.78 46.22, 1305.15 -0.58 M1223.47 102.79 C1240.88 82.99, 1263.01 55.42, 1307.36 3.16 M1218.92 101.66 C1239.84 80.31, 1256.07 59.68, 1310.01 0.8 M1226.86 100.85 C1264.16 61.07, 1297.57 21.45, 1318.07 4.08 M1225.53 104.27 C1254.39 70.22, 1278.76 38.53, 1315.32 -0.31 M1233.84 101.3 C1255.83 72.19, 1285.23 40.1, 1323.57 -2.12 M1231.63 100.87 C1262.95 65.57, 1296.85 28.59, 1320.45 -1.32 M1232.47 105 C1260.65 72.32, 1285.33 44.29, 1325.4 1.84 M1236.08 104.47 C1251.7 78.59, 1272.67 57.06, 1324.84 0.23 M1239.73 102.4 C1274.23 58.36, 1307.13 25.74, 1330.67 2.11 M1242.03 102.95 C1274.08 64.16, 1306.47 27.97, 1329.9 -1.93 M1242.92 104.86 C1270.17 75.18, 1299.78 46.85, 1333.66 1.01 M1244.35 102.42 C1270.72 76.56, 1293.82 48.7, 1334.31 0.53 M1255.74 99.84 C1278.39 69.76, 1306.61 36.96, 1339.71 -3.82 M1251.46 102.62 C1283.59 66.38, 1316.43 26.51, 1339.98 -2.06 M1259.74 106.22 C1293.36 60.59, 1325.11 25.71, 1346.82 3.95 M1256.72 104.31 C1278.4 78.22, 1300.17 48.46, 1347.36 2.01 M1260.35 105.49 C1294.92 72, 1318.24 41.17, 1353.58 -1.5 M1264.32 100.58 C1282.66 78.93, 1302.02 58.42, 1353.38 1.18 M1268.35 105.03 C1290.86 69.15, 1319.47 40.46, 1356.73 -0.83 M1268.63 104.29 C1287.51 81.64, 1307.04 61.13, 1354.73 0.03 M1275.91 101.34 C1295.37 75.93, 1318.64 50.66, 1359.09 1.64 M1272.08 103.42 C1294.77 75.77, 1317.14 52.17, 1361.84 -1.38 M1278.04 103.32 C1314.73 66.3, 1345.8 30.74, 1367.12 1.28 M1276.56 104.45 C1308.08 68.92, 1338.61 33.3, 1366.18 -0.11 M1279.98 104.26 C1309.47 74.81, 1329.32 45.94, 1374.88 -3.72 M1284.61 104.47 C1310.03 72.76, 1335.64 39.55, 1374.18 1.02 M1289.96 101.3 C1308.9 81.47, 1329.18 62.62, 1377.58 3.02 M1290.09 102.8 C1308.67 79.83, 1329.77 53.13, 1378.56 0.83 M1295.98 106.99 C1331.33 66.21, 1366.64 23.4, 1387.51 3.22 M1292.82 104.68 C1320.77 72.93, 1347.64 40.25, 1384.26 -0.89 M1297.15 105.25 C1318.8 82.27, 1335.38 58.97, 1391.59 -0.74 M1299.83 101.3 C1332.86 64.55, 1363.52 27.44, 1387.78 0.03 M1301.22 106.66 C1329.82 80.85, 1346.81 52.19, 1390.72 2.15 M1304.7 101.25 C1330.1 75.6, 1353.08 45.84, 1394.38 0.26 M1308.54 103.63 C1343.66 64.61, 1372.11 36.9, 1400.51 3.01 M1309.46 101.84 C1332.41 75.05, 1357.36 49.23, 1400.79 0.59 M1317.56 101.75 C1347.76 62.78, 1380.93 30.22, 1404.11 0.62 M1315.96 104.53 C1347.07 65.78, 1380.85 25.22, 1405.82 1.56 M1316.89 98.97 C1350.89 70.5, 1373.23 40.94, 1407.55 -2.63 M1319.74 102.25 C1354.26 62.57, 1385.14 26.99, 1411.62 -0.43 M1322.73 100.89 C1354.21 77.15, 1377.01 46.7, 1413.2 -1.44 M1325.39 102.82 C1343.17 83.53, 1358.85 60.62, 1415.01 2.28 M1330.88 99.96 C1362.82 65.94, 1388.89 34.82, 1419.81 -0.41 M1332.47 104.3 C1353.76 71.71, 1379.39 47.03, 1421.37 -0.04 M1338.31 106.82 C1370.77 61.07, 1407.98 26.9, 1428.01 1.28 M1334.83 102.37 C1362.12 73.46, 1389.38 40.56, 1424.05 0.88 M1343.05 105.42 C1372.22 71.96, 1395.77 47.18, 1432.27 -2.96 M1342.52 101.7 C1377.38 65.91, 1408.89 26.67, 1430.19 -1.33 M1349.78 100.41 C1380.25 62.84, 1413.32 23.97, 1434.46 4.21 M1345.17 103.35 C1370.99 76.02, 1391.54 52.09, 1436.14 -0.26 M1353.8 104.27 C1381.04 70.95, 1407.26 43.77, 1443.79 3.22 M1353.84 104.09 C1375.72 78.82, 1396.9 53.89, 1441.3 -1.42 M1354.5 104.65 C1389.8 67.21, 1417.32 33.01, 1450.34 0.91 M1356.39 103.86 C1373.1 81.93, 1390.99 59.55, 1447.52 1.2 M1363.42 99.56 C1387.3 74.52, 1406.8 48.91, 1449.07 1.74 M1363.41 101.05 C1386.63 70.96, 1411.02 43.75, 1452.97 0.48 M1369.69 104.67 C1393.63 72.96, 1422.18 42.22, 1461.3 -0.94 M1367.52 103.96 C1400.75 66.69, 1429.05 28.08, 1455.5 -0.47 M1372.07 100.49 C1396.56 69.05, 1427.02 41.95, 1462.73 2.34 M1373.3 102.1 C1398.28 71.63, 1425.36 39.99, 1462.55 -0.9 M1376.44 103.7 C1416.05 60.75, 1446.81 23.64, 1468.9 -3.53 M1380.64 101.64 C1399.21 78.82, 1419.24 58.04, 1466.46 0.93 M1387.8 106.35 C1420.1 61.16, 1450.09 23.34, 1471.23 0.91 M1382.62 100.7 C1404.21 78.59, 1422.95 52.62, 1474.43 -0.87 M1391.74 99.12 C1424.95 69.85, 1448.91 28.15, 1482.53 -2.94 M1388.9 100.82 C1405.83 78.76, 1425.19 59.64, 1479.83 -0.45 M1394.5 98.58 C1429.16 69.75, 1456.11 35.07, 1480.93 3.42 M1395.57 102.24 C1419.56 69.18, 1448 40.98, 1484.09 -0.83 M1396.43 106.42 C1424.24 76.02, 1450.62 40.54, 1487.48 2.9 M1400.53 103.36 C1417.13 85.3, 1434.82 63.09, 1488.09 1.47 M1407.33 105.49 C1427.87 81.88, 1445.74 54.95, 1494.06 2.01 M1404.73 104.8 C1427.02 78.86, 1450.47 49.78, 1494.05 -0.22 M1407.24 103.23 C1446.76 64.51, 1479.74 21.66, 1500.92 -1.83 M1410.81 101.06 C1430.29 77.88, 1451.33 55.29, 1500.83 0.7 M1419.24 103.25 C1435.77 80.94, 1458.38 58.42, 1508.7 -1.09 M1413.73 104.15 C1438.22 76.45, 1462.2 50.85, 1505.9 -0.56 M1420.76 101.27 C1452.46 76.53, 1478.41 40.46, 1507.89 -2.83 M1422.06 103.67 C1450.94 66.96, 1481.07 30.24, 1508.65 -0.79 M1429.12 100.42 C1452.26 74.13, 1481.47 37.18, 1518.19 -0.75 M1425.28 102.24 C1452.89 70.17, 1483.26 37.97, 1515.64 -0.67 M1429.48 106.43 C1455.2 72.8, 1480.94 46.34, 1517.29 -3.67 M1431.7 102.85 C1470.01 64.25, 1502.57 24.29, 1519.24 -1.12 M1436.38 102.94 C1461.84 81.7, 1485.78 48.98, 1529.67 0.01 M1435.82 104.22 C1471.77 62.3, 1504.86 24.85, 1524.3 0.31 M1445.73 102.7 C1462.27 76.14, 1488.12 42.42, 1529.92 -1.78 M1444.2 104.22 C1458.59 79.11, 1481.2 59.49, 1533.35 1.55 M1448.31 106.86 C1465.78 82.18, 1485.9 54.16, 1536.23 2.56 M1446.84 103.18 C1464.54 81.2, 1482.5 62.74, 1538 -0.57 M1453.75 100.19 C1477.4 71.77, 1505.91 40.77, 1538.43 3.51 M1455.07 103.32 C1476.71 77.43, 1497.62 53.43, 1540.79 0.99 M1456.07 106.36 C1491.48 67.08, 1514.56 34.63, 1543.45 1.66 M1456.9 104.12 C1488.5 65.45, 1520.55 29.11, 1546.58 -1.07 M1465.64 103.15 C1501.02 62.4, 1537.74 21.49, 1551.36 3.01 M1462.91 101.65 C1494.97 72.32, 1524.14 36.57, 1552.43 -1.1 M1466.7 101.75 C1484.27 82.93, 1510.5 53.21, 1560.82 2.17 M1469.63 104 C1503.26 63.96, 1538.22 24.73, 1558.95 -1.03 M1473.37 101.95 C1498.42 77.31, 1516.92 54.86, 1561.13 1.65 M1473.38 102.63 C1499.05 77.19, 1520.95 48.24, 1564.21 0.93 M1479.11 99.46 C1502.67 75.29, 1524.88 46.44, 1569.68 3.08 M1477.71 103.73 C1504.09 77.5, 1527.76 51.51, 1567.07 1.68 M1488.78 105.09 C1501.34 82.16, 1521.5 60.48, 1576.02 2.48 M1483.19 103.62 C1510.81 68.73, 1542.79 34.04, 1573.11 0.65 M1492.09 104.05 C1513.26 75.02, 1535.18 50.57, 1579.27 -2.48 M1490.88 104.12 C1517.24 69.93, 1545.83 39.67, 1577.96 -0.89 M1495.61 99.18 C1518.5 76.27, 1547.56 39.24, 1588.19 -1.3 M1496.12 103.92 C1519.44 75.67, 1544.78 45.28, 1585.21 -0.42 M1504.29 102.2 C1520.32 79.73, 1544.11 52.34, 1586.67 -3.28 M1499.96 101.95 C1527.52 70.77, 1555.84 41.03, 1589.73 1.23 M1505.45 104.96 C1537.24 65.88, 1568.69 26.03, 1597.69 -2.39 M1507.01 100.77 C1524.45 81.15, 1544.89 59.19, 1595.62 -0.81 M1514.27 102.71 C1541.65 70.76, 1567.7 31.06, 1600.86 -1.94 M1512.82 101.93 C1547.05 65, 1581.92 24.13, 1599.52 -0.02 M1517.13 106.07 C1549.36 71.69, 1579.89 36.47, 1604.41 -3.37 M1517.1 102.1 C1541.51 74.03, 1568.09 46.56, 1604.53 0.86 M1520.42 104.53 C1555.19 70.26, 1580.11 28.14, 1610.69 1.03 M1522.39 100.69 C1547.92 71.22, 1574.16 42.5, 1611.55 1.22 M1527.29 101.98 C1557.93 69.22, 1589.19 28.02, 1615.51 0.08 M1528.68 103.51 C1556.56 65.27, 1591.78 26.27, 1616.52 -1.31 M1529.03 104.69 C1549.15 80.06, 1574.21 62.37, 1619.65 5.28 M1530.67 102.82 C1561.62 68.2, 1591.53 36.7, 1615.84 6.79 M1534.52 104.57 C1560.19 84.63, 1578.42 57.97, 1613.44 12.21 M1537.12 104.8 C1555.27 86.91, 1568.88 68.06, 1616.73 12.49 M1546.28 106.4 C1568.94 78.68, 1587.39 49.2, 1615.66 15.33 M1544.72 100.84 C1564.55 78.58, 1588.39 52.38, 1614.09 19.17 M1549.91 103.09 C1569.22 74.43, 1593.04 51.6, 1615.59 21.5 M1549.5 102.97 C1568.26 78.9, 1587.55 57.59, 1618.37 24.17 M1554.18 102.94 C1569.8 81.28, 1583.24 68.13, 1613.78 29.48 M1552.66 103.2 C1572.52 82.69, 1589.16 60.73, 1614.26 30.5 M1556.44 104.9 C1568.9 86.55, 1583.15 74.72, 1613.38 33.89 M1559.98 104.93 C1579.05 80.68, 1596.25 58.07, 1617.87 34.86 M1566.67 101.76 C1575.52 82.61, 1598.1 64, 1617.68 40.49 M1563.68 102.3 C1577.02 88.96, 1589.61 76.11, 1616.15 43.14 M1572.96 103.49 C1578.06 93.34, 1586.6 83.86, 1613.42 46.18 M1569.78 103.56 C1579.27 92.88, 1588.15 79.04, 1616.07 50.41 M1573.52 100.41 C1579.82 91.09, 1590.39 87.34, 1619.6 58.47 M1576.02 102.46 C1587.11 91.45, 1596.44 79.46, 1615.3 56.64 M1582.18 102.49 C1591.32 88.15, 1600.53 82.85, 1616.21 59.05 M1579.18 101.65 C1589.17 89.4, 1599.96 80.71, 1616.84 62.31 M1588.39 102.57 C1599.4 88.76, 1603.84 80.02, 1615.63 63.68 M1584.99 103.97 C1596.92 90.94, 1603.87 81.73, 1618.29 68.49 M1594.72 99.65 C1596.52 91.87, 1605.82 81.43, 1620.11 73.56 M1591.51 103.93 C1599.98 91.66, 1609.06 81.33, 1615.16 72.28 M1592.83 102.06 C1604.26 97.52, 1612.14 83.23, 1613.1 79.23 M1594.97 103.01 C1602.05 97.39, 1604.6 89.57, 1614.13 78.87 M1601.04 102.82 C1605.78 102.29, 1609.48 95.48, 1616.04 88.14 M1601.18 101.08 C1602.87 99.74, 1607.94 93.86, 1615.7 85.21 M1607.87 99.87 C1612.22 100.86, 1611.56 99.21, 1616.87 89.23 M1607.27 103.34 C1609.39 100.06, 1610.81 96.61, 1616.64 91.7 M1611.81 103.9 C1612.5 102.52, 1614.42 98.53, 1617.35 98.13 M1612.57 102.4 C1613.59 101.47, 1614.56 98.82, 1616.45 97.64" stroke="#4c6ef5" stroke-width="0.5" fill="none"></path><path d="M-1.6 -0.96 C450.04 8.37, 900.67 6.35, 1615.98 -0.31 M-0.61 0.64 C527.88 1.72, 1054.28 1.79, 1616.52 0.15 M1616.54 -2.36 C1611.55 32.82, 1610.6 75.38, 1613.04 99.15 M1616.69 1.19 C1612.04 30.22, 1614.63 64.75, 1617.91 100.84 M1615.89 103.01 C1281.2 103.93, 945.21 104.52, 0.26 101.64 M1615.92 102.37 C1063.28 99.99, 510.67 101.05, 0.79 101.84 M-0.32 103.23 C3.28 79.1, -2.48 53.98, 2.07 2.79 M1.69 102.39 C3.26 63.93, 3.68 27.18, 0.13 1.63" stroke="#000000" stroke-width="1" fill="none"></path></g><g transform="translate(404 39.5) rotate(0 414 22.5)"><text x="414" y="32" font-family="Virgil, Segoe UI Emoji" font-size="36px" fill="#000000" text-anchor="middle" style="white-space: pre;" direction="ltr">METHODS OF DIMENSIONALITY REDUCTION</text></g><g stroke-linecap="round" transform="translate(20.377256269930513 174.38813035071144) rotate(0 517.7778514549277 241.88866741138372)"><path d="M1.38 0.32 C206.49 0.65, 413.97 1.09, 1035.65 -0.13 M1036.92 -1.46 C1040.37 109.61, 1039.18 217.89, 1033.96 484.27 M1034.31 482.38 C712.34 477.32, 385.17 478.72, -1.54 483.31 M-1.49 484.29 C-1.74 323.52, -3.45 158.42, -0.03 0.13" stroke="#000000" stroke-width="1.5" fill="none" stroke-dasharray="8 9"></path></g><g transform="translate(54.7052208206178 207.0201381748666) rotate(0 498.5 12.5)"><text x="0" y="18" font-family="Virgil, Segoe UI Emoji" font-size="20px" fill="#000000" text-anchor="start" style="white-space: pre;" direction="ltr">Dimensionality reduction is a technique that allows to reduce the number of features in a dataset.</text></g><g stroke-linecap="round"><g transform="translate(593.9331807466351 239.53706760417845) rotate(0 222.36713763556918 0.06404412393567327)"><path d="M0.59 0.96 C74.6 0.92, 369.06 0.93, 443.11 0.76 M-0.55 0.41 C73.89 -0.02, 371.1 -0.97, 445.29 -0.81" stroke="#1864ab" stroke-width="1" fill="none"></path></g></g><mask></mask><g transform="translate(61.14987970369384 258.81946771697767) rotate(0 242.5 12.5)"><text x="0" y="18" font-family="Virgil, Segoe UI Emoji" font-size="20px" fill="#000000" text-anchor="start" style="white-space: pre;" direction="ltr">Several techniques were proposed over the years</text></g><g transform="translate(776.8935623938078 337.2615797711951) rotate(0 88.5 37.5)"><text x="88.5" y="18" font-family="Virgil, Segoe UI Emoji" font-size="20px" fill="#1864ab" text-anchor="middle" style="white-space: pre;" direction="ltr">here we focus on </text><text x="88.5" y="43" font-family="Virgil, Segoe UI Emoji" font-size="20px" fill="#1864ab" text-anchor="middle" style="white-space: pre;" direction="ltr">unsupervised</text><text x="88.5" y="68" font-family="Virgil, Segoe UI Emoji" font-size="20px" fill="#1864ab" text-anchor="middle" style="white-space: pre;" direction="ltr">algorithms!</text></g><g stroke-linecap="round"><g transform="translate(580.041976417253 271.77125049039387) rotate(0 145.54185074448333 23.958450654881744)"><path d="M1.06 0.78 C19.75 3.85, 77.43 15.39, 113.07 17.44 C148.7 19.49, 185.28 8.13, 214.87 13.07 C244.45 18, 278.13 41.42, 290.59 47.04 M0.16 0.14 C18.62 2.96, 76.07 13.85, 112.24 15.64 C148.41 17.44, 187.39 5.55, 217.17 10.91 C246.95 16.26, 278.54 41.81, 290.93 47.78" stroke="#1864ab" stroke-width="1" fill="none"></path></g><g transform="translate(580.041976417253 271.77125049039387) rotate(0 145.54185074448333 23.958450654881744)"><path d="M262.8 42.28 C273.67 42, 284.37 46.37, 289.75 46.5 M260.77 41.19 C268.13 41.98, 274.25 44.6, 291.52 46.78" stroke="#1864ab" stroke-width="1" fill="none"></path></g><g transform="translate(580.041976417253 271.77125049039387) rotate(0 145.54185074448333 23.958450654881744)"><path d="M273.46 24.75 C280.13 31.22, 286.79 42.24, 289.75 46.5 M271.43 23.65 C276.27 28.44, 280.01 34.96, 291.52 46.78" stroke="#1864ab" stroke-width="1" fill="none"></path></g></g><mask></mask><g stroke-linecap="round" transform="translate(111.49991980063987 379.6037364451731) rotate(0 138.97200151716606 115.88481216379023)"><path d="M0.8 -1.44 C108.4 -0.2, 215 -1.39, 276.75 -1.35 M278.17 -1.63 C275.99 90.55, 277.5 178.25, 276.47 232.28 M276.52 231.74 C183.01 230.42, 88.82 230.71, 0.92 231 M0.71 231.93 C-0.53 139.76, 0.46 48.21, -0.82 0.5" stroke="#1864ab" stroke-width="1.5" fill="none" stroke-dasharray="8 9"></path></g><g stroke-linecap="round" transform="translate(114.82444257667703 325.09415158638876) rotate(0 133.5 31)"><path d="M-2.94 0.91 C97.83 -4.06, 192.8 -4.64, 264.24 2.78 M-1.52 -0.46 C60.86 0.38, 119.07 -1.93, 267.47 0.66 M266.92 0.3 C266.01 27.03, 266.77 51.41, 265 65.85 M267.19 -0.25 C266.53 20.52, 266.87 38.23, 267.59 63.7 M267.93 65.05 C160.13 60.02, 56.83 59.5, -1.48 61.14 M265.43 62.07 C174.44 65.49, 80.18 65.38, 1.3 63.42 M1.67 61.57 C-2.51 40.64, 1.95 22.71, -1.84 2.61 M-1.98 62.28 C1.03 41.28, 1.74 19.8, -0.25 -0.38" stroke="#1864ab" stroke-width="1" fill="none"></path></g><g transform="translate(175.82444257667703 330.09415158638876) rotate(0 72.5 25)"><text x="72.5" y="18" font-family="Virgil, Segoe UI Emoji" font-size="20px" fill="#1864ab" text-anchor="middle" style="white-space: pre;" direction="ltr">What are the </text><text x="72.5" y="43" font-family="Virgil, Segoe UI Emoji" font-size="20px" fill="#1864ab" text-anchor="middle" style="white-space: pre;" direction="ltr">advantages?</text></g><g stroke-linecap="round" transform="translate(434.61444077231135 383.0313237713235) rotate(0 142.04664479027906 113.53667404700354)"><path d="M0.2 -0.9 C99.1 -1.8, 198.8 0.71, 282.97 -1.08 M284.69 1.02 C280.52 69.65, 282.73 143, 285.72 226.08 M283.99 228.03 C225.39 228.14, 165.55 228.7, 0.24 226.73 M-0.17 227.86 C-0.05 148.57, 0.32 73.18, 1.7 -0.34" stroke="#1864ab" stroke-width="1.5" fill="none" stroke-dasharray="8 9"></path></g><g stroke-linecap="round" transform="translate(440.6471640290529 324.7347676668578) rotate(0 137 31)"><path d="M-1.83 -1.98 C54.22 -3.29, 116 -2.88, 271.79 0.41 M0.92 -1.55 C54.42 -1.01, 112.2 0.01, 273.1 -1.44 M276.52 0.5 C276.48 16.48, 277.94 37.61, 273.11 63.68 M274.92 0.15 C272.87 19.76, 275.54 40.33, 273.6 60.6 M274.95 65.02 C184.13 60.2, 92.53 63.26, 2.16 64.35 M274.3 62.95 C219.33 66.87, 165.67 65.69, 1.26 63.42 M-2.36 64.95 C-1.18 38.97, 2.74 20.95, 0.01 -3.93 M-0.05 63.75 C-1.04 49.3, -0.56 38.46, 0.98 -0.45" stroke="#1864ab" stroke-width="1" fill="none"></path></g><g transform="translate(502.1471640290529 329.7347676668578) rotate(0 75.5 25)"><text x="75.5" y="18" font-family="Virgil, Segoe UI Emoji" font-size="20px" fill="#1864ab" text-anchor="middle" style="white-space: pre;" direction="ltr">What are the </text><text x="75.5" y="43" font-family="Virgil, Segoe UI Emoji" font-size="20px" fill="#1864ab" text-anchor="middle" style="white-space: pre;" direction="ltr">disadvantages?</text></g><g transform="translate(137.30204316602067 398.86077846861735) rotate(0 120.5 100)"><text x="0" y="18" font-family="Virgil, Segoe UI Emoji" font-size="20px" fill="#000000" text-anchor="start" style="white-space: pre;" direction="ltr">* it mitigates the</text><text x="0" y="43" font-family="Virgil, Segoe UI Emoji" font-size="20px" fill="#000000" text-anchor="start" style="white-space: pre;" direction="ltr">  curse of dimensionality</text><text x="0" y="68" font-family="Virgil, Segoe UI Emoji" font-size="20px" fill="#000000" text-anchor="start" style="white-space: pre;" direction="ltr"></text><text x="0" y="93" font-family="Virgil, Segoe UI Emoji" font-size="20px" fill="#000000" text-anchor="start" style="white-space: pre;" direction="ltr">* it reduce the storage</text><text x="0" y="118" font-family="Virgil, Segoe UI Emoji" font-size="20px" fill="#000000" text-anchor="start" style="white-space: pre;" direction="ltr">  space</text><text x="0" y="143" font-family="Virgil, Segoe UI Emoji" font-size="20px" fill="#000000" text-anchor="start" style="white-space: pre;" direction="ltr"></text><text x="0" y="168" font-family="Virgil, Segoe UI Emoji" font-size="20px" fill="#000000" text-anchor="start" style="white-space: pre;" direction="ltr">* it reduces the</text><text x="0" y="193" font-family="Virgil, Segoe UI Emoji" font-size="20px" fill="#000000" text-anchor="start" style="white-space: pre;" direction="ltr">  computation time</text></g><g stroke-linecap="round" transform="translate(1084.5937317159032 177.76919440730126) rotate(0 267.91122072694407 307.2478460708153)"><path d="M-1.4 1.41 C128 2.19, 258.58 1.78, 535.35 0.55 M536.3 0.67 C532.46 220.01, 529.45 441.85, 535.94 614.39 M535.02 616.04 C341.55 616.7, 147.43 617.21, -0.2 614.34 M0.47 615.85 C1.22 401.65, -1.48 189.91, 1.55 -0.13" stroke="#000000" stroke-width="1.5" fill="none" stroke-dasharray="8 9"></path></g><g transform="translate(1115.3251775457702 209.85498265310525) rotate(0 112 12.5)"><text x="0" y="18" font-family="Virgil, Segoe UI Emoji" font-size="20px" fill="#1864ab" text-anchor="start" style="white-space: pre;" direction="ltr">Curse of dimensionality</text></g><g stroke-linecap="round"><g transform="translate(1120.2236872280546 246.59741272995234) rotate(0 108.74752383387613 1.4311884246280897)"><path d="M1.06 -0.89 C37.06 -0.36, 179.46 1.71, 215.08 2.13 M0.15 1.26 C36.61 2.1, 181.19 3.5, 217.34 3.75" stroke="#1864ab" stroke-width="1" fill="none"></path></g></g><mask></mask><g transform="translate(468.7878385610329 405.76441385244834) rotate(0 113 75)"><text x="0" y="18" font-family="Virgil, Segoe UI Emoji" font-size="20px" fill="#000000" text-anchor="start" style="white-space: pre;" direction="ltr">* loss of information</text><text x="0" y="43" font-family="Virgil, Segoe UI Emoji" font-size="20px" fill="#000000" text-anchor="start" style="white-space: pre;" direction="ltr"></text><text x="0" y="68" font-family="Virgil, Segoe UI Emoji" font-size="20px" fill="#000000" text-anchor="start" style="white-space: pre;" direction="ltr">* not easy to find </text><text x="0" y="93" font-family="Virgil, Segoe UI Emoji" font-size="20px" fill="#000000" text-anchor="start" style="white-space: pre;" direction="ltr">  a tradeoff between</text><text x="0" y="118" font-family="Virgil, Segoe UI Emoji" font-size="20px" fill="#000000" text-anchor="start" style="white-space: pre;" direction="ltr">  data loss and </text><text x="0" y="143" font-family="Virgil, Segoe UI Emoji" font-size="20px" fill="#000000" text-anchor="start" style="white-space: pre;" direction="ltr">  the relative benefits</text></g><g stroke-linecap="round"><g transform="translate(163.9497452349333 450.7999005454367) rotate(0 97.76432126380178 -0.6330749693524922)"><path d="M-0.85 0.16 C31.35 0.07, 161.49 -1.34, 194.28 -1.43 M0.9 -0.8 C33.36 -0.64, 163.98 0.18, 196.38 -0.07" stroke="#1864ab" stroke-width="1" fill="none"></path></g></g><mask></mask><g transform="translate(1144.4826348857732 271.10484491005263) rotate(0 214 37.5)"><text x="0" y="18" font-family="Virgil, Segoe UI Emoji" font-size="20px" fill="#000000" text-anchor="start" style="white-space: pre;" direction="ltr">This phenomenon arises when we are dealing</text><text x="0" y="43" font-family="Virgil, Segoe UI Emoji" font-size="20px" fill="#000000" text-anchor="start" style="white-space: pre;" direction="ltr">with large datasets having a lot of</text><text x="0" y="68" font-family="Virgil, Segoe UI Emoji" font-size="20px" fill="#000000" text-anchor="start" style="white-space: pre;" direction="ltr">features. In fact..</text></g><g transform="translate(1124.9317651216943 391.4841579771346) rotate(0 227 37.5)"><text x="0" y="18" font-family="Virgil, Segoe UI Emoji" font-size="20px" fill="#1864ab" text-anchor="start" style="white-space: pre;" direction="ltr">As the dimensionality increases, the volume </text><text x="0" y="43" font-family="Virgil, Segoe UI Emoji" font-size="20px" fill="#1864ab" text-anchor="start" style="white-space: pre;" direction="ltr">of the space drastically increases as well, </text><text x="0" y="68" font-family="Virgil, Segoe UI Emoji" font-size="20px" fill="#1864ab" text-anchor="start" style="white-space: pre;" direction="ltr">and the data becomes more and more sparse.</text></g><g stroke-linecap="round"><g transform="translate(1348.5381333128353 333.80719960278657) rotate(0 8.121207658155981 25.606121218068438)"><path d="M-0.35 0.42 C4.69 4.28, 32.64 17.03, 30.42 22.02 C28.2 27.01, -9.33 25.42, -13.68 30.36 C-18.02 35.29, 1.53 48.46, 4.33 51.62 M1.66 -0.41 C6.6 3.65, 32.01 18.16, 29.85 22.93 C27.68 27.7, -7.16 23.75, -11.33 28.2 C-15.5 32.66, 2.13 46.17, 4.84 49.67" stroke="#1864ab" stroke-width="1" fill="none"></path></g><g transform="translate(1348.5381333128353 333.80719960278657) rotate(0 8.121207658155981 25.606121218068438)"><path d="M-6.68 45.05 C-4.74 44.85, 0.71 48.24, 6.09 48.9 M-7.18 44.69 C-4.57 45.77, -2.5 47.13, 4.95 49.52" stroke="#1864ab" stroke-width="1" fill="none"></path></g><g transform="translate(1348.5381333128353 333.80719960278657) rotate(0 8.121207658155981 25.606121218068438)"><path d="M-0.41 38.62 C-0.5 40.42, 2.99 45.82, 6.09 48.9 M-0.91 38.25 C0.4 40.68, 1.17 43.37, 4.95 49.52" stroke="#1864ab" stroke-width="1" fill="none"></path></g></g><mask></mask><g transform="translate(1134.1446077716846 530.2708131289946) rotate(0 201 37.5)"><text x="0" y="18" font-family="Virgil, Segoe UI Emoji" font-size="20px" fill="#000000" text-anchor="start" style="white-space: pre;" direction="ltr">.. As a consequence, our algorithms will </text><text x="0" y="43" font-family="Virgil, Segoe UI Emoji" font-size="20px" fill="#000000" text-anchor="start" style="white-space: pre;" direction="ltr">require more and more data in order to </text><text x="0" y="68" font-family="Virgil, Segoe UI Emoji" font-size="20px" fill="#000000" text-anchor="start" style="white-space: pre;" direction="ltr">generalize enough!</text></g><g stroke-linecap="round"><g transform="translate(1325.5232741017007 474.38833225573035) rotate(0 8.767719941981795 24.346720817399728)"><path d="M0.71 -1.19 C5.55 2.67, 30.8 18.19, 28.66 23.58 C26.52 28.96, -7.87 26.84, -12.13 31.14 C-16.38 35.44, 0.47 46.13, 3.13 49.37 M-0.37 0.79 C4.86 4.24, 32.87 16.87, 30.83 21.64 C28.78 26.41, -7.99 24.69, -12.63 29.4 C-17.26 34.11, 0.52 46.29, 3.01 49.89" stroke="#1864ab" stroke-width="1" fill="none"></path></g><g transform="translate(1325.5232741017007 474.38833225573035) rotate(0 8.767719941981795 24.346720817399728)"><path d="M-10.32 43.45 C-5.35 46.51, -1.24 46.62, 1.79 49.86 M-8.93 44.99 C-5.65 46.78, -1.52 47.63, 3.29 49.95" stroke="#1864ab" stroke-width="1" fill="none"></path></g><g transform="translate(1325.5232741017007 474.38833225573035) rotate(0 8.767719941981795 24.346720817399728)"><path d="M-4.11 36.96 C-0.8 41.81, 1.64 43.68, 1.79 49.86 M-2.72 38.5 C-1.35 42.32, 0.87 45.17, 3.29 49.95" stroke="#1864ab" stroke-width="1" fill="none"></path></g></g><mask></mask><g stroke-linecap="round" transform="translate(1176.6250960136276 652.3697891135998) rotate(0 163.37185143535407 57.75377077726171)"><path d="M-2.4 0.82 C110.5 7.1, 217.08 1.92, 326.69 0.21 M0.82 -0.69 C97.13 -0.34, 191.3 0.02, 326.87 -0.17 M324.8 1.17 C331.2 37.49, 327 64.24, 327.93 119.37 M327.03 -0.94 C326.9 34.76, 328.85 68.96, 324.75 115.59 M327.09 117.78 C203.63 118.44, 77.78 120.78, 1.15 115.21 M326.29 114.87 C241.92 119.29, 155.31 117.48, -1.37 115.7 M-1.72 115 C-0.71 77.62, 2.02 33.39, -2.49 3.54 M-0.03 116.84 C-3.91 90.46, -1.18 63.47, -1.73 -1.78" stroke="#000000" stroke-width="1" fill="none"></path></g><g stroke-linecap="round" transform="translate(1176.5365844875323 625.6665425485044) rotate(0 165.14037981252932 12.880129191616106)"><path d="M0 0 C0 0, 0 0, 0 0 M0 0 C0 0, 0 0, 0 0 M0.91 5.94 C2.45 5.85, 2.28 0.99, 5.84 1.47 M-1.06 6.18 C0.95 5.18, 2.51 4.01, 5.37 0.37 M2.46 11.55 C2.38 11.43, 3.68 4.08, 9.14 1.69 M1.29 13.59 C1.37 9.86, 4.74 6.33, 10.51 -1.43 M0.83 20.34 C2.09 14.6, 11.6 6.98, 15.3 -0.62 M-0.2 19.74 C3.42 11.75, 11.55 5.83, 15 1.82 M-2.34 22.62 C7.03 15.41, 17.52 10.75, 20.81 1.19 M0.72 24.88 C4.15 16.01, 13.33 9.79, 21.3 -1.63 M3.83 27.38 C11.35 21.13, 18.43 11.92, 28.63 4.12 M2.53 26.68 C9.21 20.16, 18.62 8.92, 26.77 -0.71 M6.83 25.71 C18.73 14.48, 22.84 8.99, 33.88 -0.3 M6.01 27.37 C13.25 22.34, 18.38 16, 31.07 -1.21 M10.67 27.74 C21.51 14.87, 29.74 8.78, 35.41 -0.79 M13.92 29.04 C19.79 21.25, 23.25 14, 36.2 0.53 M16.41 29.57 C21.69 21.19, 29.56 19.57, 42.35 -1.58 M19.71 26.44 C25.31 17.67, 33.84 10.01, 41.2 0.23 M24.69 30.53 C32.16 21.15, 43.17 4.44, 46.07 2.37 M22.13 30.14 C28.78 19.45, 38.18 11.75, 46.19 0.31 M27.05 30.19 C34 23.25, 43.19 12.05, 50.71 -1.97 M28.69 29.4 C36.03 18.59, 44.31 6.54, 55.06 0.5 M37.19 25.39 C42.02 17.91, 49.2 11.84, 61.17 3.19 M35.07 27.03 C42.2 19.98, 47.36 12.43, 59.57 0.47 M40.81 31.68 C45.75 17.46, 51.03 14.11, 65.6 -0.93 M39.04 26.82 C46.82 19.49, 56.88 8.9, 61.95 -1.54 M47.63 28.12 C50.58 20.79, 59.84 12.76, 71.4 3.16 M44.64 28.09 C51.95 19.69, 56.38 14.01, 67.1 1.92 M49.87 26 C54.97 17.19, 59.52 17.67, 71.74 1.94 M48.76 28.36 C60.2 16.25, 65.48 7.63, 73.11 -1.93 M58.26 29.63 C63.64 23.03, 68.21 16.56, 81.55 -0.37 M53.32 29.99 C61.2 22.07, 70.05 12.18, 79.49 0.61 M60.54 25.02 C64.99 24.03, 70.73 12.2, 88.01 -1.07 M59.82 26.75 C67.23 18.55, 76.55 7.95, 85.72 0.3 M65.45 28.71 C75.67 19.18, 85.74 10.78, 86.56 1.81 M65.54 26.5 C70.88 20.59, 76.52 16.32, 91.39 -0.42 M69.25 28.45 C79.56 18.33, 88.65 4.79, 95.41 -1.8 M70.11 25.76 C77.83 19.46, 81.16 12.21, 94.87 -0.78 M75.69 24.01 C90.01 15.04, 98.09 7.11, 103.49 -1.19 M75.67 28.4 C85.98 17.4, 93.02 9.81, 101.38 0.93 M78.56 23.89 C90.43 15.23, 98.78 4.18, 109.04 -0.2 M81.46 28.22 C87.51 20.62, 97.64 13.03, 105.64 -2.04 M89.61 30.09 C99.75 18.71, 102.33 4.4, 107.52 -0.4 M87.99 27.59 C95.96 18.19, 105.96 4.86, 111.98 1.79 M89.14 26.82 C97.74 18.34, 109.12 9.22, 113.51 -3.62 M91.64 28.05 C95.94 22.2, 103.52 16.25, 116.33 1.45 M93.94 29.34 C106.58 15.79, 115.99 7.15, 119.96 1.04 M96.76 28.99 C105.47 16.85, 117.1 8.81, 121.63 -1.6 M99.81 24.59 C108.65 20, 113.01 13.33, 129.49 2.23 M102.35 26.21 C112.23 19.08, 117.54 8.46, 125.2 1.43 M109.56 28.06 C112.49 20.9, 124.03 10.48, 136.23 3.84 M110.14 26.59 C115.3 19.17, 123.61 9.4, 132.74 -1.98 M115.5 24.42 C119.15 20.93, 131.58 9.74, 137.81 1.76 M115.24 26.72 C118.98 19.47, 126.07 13.95, 138.45 0.97 M119.45 24.4 C126.38 14.98, 131.93 8.83, 141.89 -3.39 M118.24 27.47 C124.62 17.68, 132.34 9.66, 143.64 -1 M123.25 29.42 C134.7 17.5, 143.09 10.16, 146.11 2.52 M123.89 28.68 C133.1 16.5, 141.78 7.19, 148.88 -0.57 M132.74 24.41 C138.88 18.65, 145.12 3.5, 152.63 3.82 M129.13 27.74 C136.95 22.27, 140.93 12.05, 152.6 -1.26 M131.61 31.3 C138.19 22.52, 146.4 14.46, 156.12 3.9 M133.16 26.99 C139.7 21.75, 147.66 13.96, 159.22 1.25 M136.68 26 C145.81 16.97, 154.13 12.36, 166.25 -2.18 M140.77 28.59 C145.09 19.77, 151.57 16.51, 165.81 1.71 M141.19 31.42 C153.83 14.76, 160.28 8.87, 171.71 -2.8 M145.81 29.37 C155.14 16.9, 162.08 6.66, 170.16 -0.07 M152.63 26.95 C154.14 23.94, 161.44 16.72, 178.68 2.84 M149.11 28.26 C156.84 21.73, 164.75 12.19, 173.43 -0.57 M156.75 29.24 C159.48 19.06, 168.74 16.61, 182.87 -2.42 M154.6 28.85 C161.98 22.98, 167.01 15.38, 180.29 2.03 M164.08 24.92 C164.92 22.39, 172.37 13.21, 183.99 -1.03 M159.99 26.06 C167.72 23.11, 171.13 13.76, 185.53 -1.5 M165.87 27.38 C171.93 15.68, 180.26 11.49, 189.74 4.08 M164.85 28.76 C175.45 17.15, 182.83 8.4, 190.18 -0.83 M172.66 25.46 C184.88 16.81, 192.16 3.39, 198.34 2.19 M173.23 26.36 C182.27 17.11, 186.52 9.08, 196.14 0.57 M178.22 24.3 C182.09 21.85, 191.54 9.55, 202.54 -0.39 M177.82 27.5 C186.75 18.61, 194.5 7.29, 202.31 0.04 M182.1 25.98 C193.98 15.23, 203.16 12.42, 204.05 0.35 M182.55 26.61 C190.29 17.94, 201.57 6.7, 207.21 -1.65 M185.61 30.35 C196.31 16.34, 203.62 12.86, 209.64 -1.04 M186.73 26.56 C196.16 17.87, 207.46 7.44, 213.11 -1.63 M190.29 23.75 C199.33 23.54, 207.69 13.86, 221.56 1.18 M191.64 29.29 C203.07 17.97, 212.56 8.24, 216.63 -0.37 M201.96 27.77 C210.7 19.23, 219.96 5.31, 225.56 0.78 M196.71 26.44 C206.25 20.15, 209.46 11.91, 220.93 0.99 M205.2 23.96 C210.08 17.45, 218.87 13.58, 229.41 0.27 M202.1 25.97 C208.91 18.04, 219.22 9.91, 226.24 -0.76 M207.34 26.64 C219.64 20.41, 227.76 11.45, 234.89 3.63 M208.85 26.76 C215.75 21.62, 219 14.81, 234.08 -0.24 M212.97 23.62 C218.04 16.61, 226.54 12.83, 235.63 -2.15 M213.48 29.26 C221.39 19.44, 226.52 11.53, 237.15 -0.16 M219.93 24.95 C228.73 20.27, 236.67 6.06, 240.39 -2.1 M220.16 26.14 C225.74 23.13, 228.89 15.82, 242.79 -0.39 M225.84 27.66 C231.37 22.03, 238.14 8.15, 248.34 3.76 M223.28 28.86 C227.99 22.59, 235.53 14.99, 248.37 0.89 M232.04 24.54 C236.96 15.69, 246.34 12.85, 254.92 -2.12 M231.61 26.33 C234.62 22.67, 238.17 15.08, 255.24 -1.44 M234.16 24.86 C237.49 24.04, 247.08 19.54, 255.82 1.98 M234.92 27.51 C243.47 18.69, 250.8 11.24, 260.89 -0.82 M242.09 31.14 C251.2 13.08, 259.57 4.78, 261.48 1.75 M240.08 28.08 C248.17 20.69, 250.94 12.92, 265.55 -0.36 M246.45 27.88 C258.28 14.09, 267.49 7.68, 269.12 3.62 M245.75 29.02 C252.72 16.68, 264.26 9.64, 268.3 1.79 M254.64 30.34 C259.06 20.16, 272.47 8.62, 277.2 -0.47 M250.41 27.25 C261.06 19.75, 269.09 7.07, 273.75 -1 M256.66 26.01 C258.89 22.87, 269.23 11.57, 281.43 -0.35 M258.42 27.01 C262.06 19.62, 269.45 12.56, 280.11 -1.13 M264.38 27.63 C273.16 18.35, 277.41 4.48, 289.3 -2.87 M263.37 26.73 C271.85 16.19, 278.36 5.96, 285.84 1.8 M270.85 30.17 C274.83 18.55, 279.58 17.17, 292.05 0.91 M267.49 29.91 C274.35 19.17, 283.94 10.66, 289.78 -0.36 M272.11 24.34 C284.61 14.35, 289.87 10.29, 295.16 0.35 M271.66 28.49 C283.94 16.19, 291.95 7.97, 297.75 -1.7 M279.22 29.38 C290.14 15.35, 293.42 6.75, 298.41 -1.87 M279.47 29.48 C285.58 17.58, 296.68 8.07, 302.7 0.39 M284.76 25.72 C293.53 14.49, 297.57 7.25, 310.28 -1.15 M283.92 29.57 C292.12 20.65, 298.43 11.12, 307.33 -0.19 M290.79 27.81 C290.56 18.61, 301.3 17.29, 312.07 1.91 M287.47 29.77 C293.69 19.86, 300.8 14.08, 312.21 0.44 M291.39 24.85 C296.77 17.44, 305.57 13.43, 320.28 -1.84 M292.74 26.04 C302.29 18.41, 312.06 5.48, 318.39 -1.3 M300.65 29.5 C306.91 24.81, 306.17 18.59, 326.71 2.72 M298.55 27.91 C304.42 22.16, 311.08 12.82, 323.57 -1.79 M303.18 26.7 C309.71 14.93, 321.54 6.02, 328.89 -4.31 M302.63 29.07 C311.16 20.18, 316.19 15.1, 328.66 0.41 M306.07 30.37 C311.23 25.03, 321.3 20.28, 332.83 4.43 M309.69 26.07 C315.53 18.68, 326.61 12.3, 332.67 0.67 M313.44 24.14 C317.49 21.88, 323.5 11.81, 334.78 5.04 M314.05 28.87 C321.6 19.72, 327.03 13.26, 330.6 7.72 M322.19 26.36 C321.3 25.48, 327.6 20.09, 335.44 15 M319.85 27.55 C322.4 24.71, 325.5 20.35, 332.12 14.18 M327.73 28.71 C329.53 25.78, 328.79 23.41, 333.15 19.42 M326.63 27.13 C326.84 25.59, 328.68 22.52, 333.09 19.84" stroke="#228be6" stroke-width="0.5" fill="none"></path><path d="M0.82 1.15 C121.35 2.34, 234.97 3.87, 330.49 -0.19 M-0.68 1.31 C120.13 -3, 240.39 -2.57, 330.11 -0.13 M331.45 3.4 C334.29 8.11, 327.52 19, 334.14 25.44 M329.34 -0.55 C331.81 9.91, 332.29 15.04, 330.36 27.45 M332.53 28.23 C224.99 28.54, 121.85 27.46, -0.29 24.73 M329.65 26.65 C251.17 24.29, 169.81 22.93, 0.19 26.46 M-0.5 25 C2.27 20.06, -1.36 7.93, 3.54 -2.98 M1.34 24.02 C1.5 16.6, 0.54 3.73, -1.78 1.96" stroke="#000000" stroke-width="1" fill="none"></path></g><g transform="translate(1193.769097760418 626.3040860245092) rotate(0 148 12.5)"><text x="0" y="18" font-family="Virgil, Segoe UI Emoji" font-size="20px" fill="#000000" text-anchor="start" style="white-space: pre;" direction="ltr">x1  x2  x3  x4  x5  . . .  xN</text></g><g stroke-linecap="round"><g transform="translate(1221.3949067705844 626.4699548622957) rotate(0 0.8131578572465514 70.8987283446786)"><path d="M0.5 1.14 C0.67 24.44, -0.05 116.78, -0.03 140.15 M-0.69 0.7 C-0.04 24.07, 2.22 117.43, 2.32 141.1" stroke="#000000" stroke-width="1" fill="none"></path></g></g><mask></mask><g stroke-linecap="round"><g transform="translate(1268.60218878463 628.10741809506) rotate(0 -0.3944633349456126 70.58837176166344)"><path d="M1.14 -0.7 C0.76 22.61, -1.62 116.85, -1.93 140.35 M0.29 1.55 C0.23 25.02, 0.48 118.54, 0.2 141.88" stroke="#000000" stroke-width="1" fill="none"></path></g></g><mask></mask><g stroke-linecap="round"><g transform="translate(1311.9898580187119 625.4112208386141) rotate(0 -0.4069158322186013 71.1401203038431)"><path d="M-0.7 -1.11 C-0.95 22.33, -0.93 117.88, -0.99 141.81 M1.14 0.92 C0.68 25.08, -1.45 120.12, -1.95 143.39" stroke="#000000" stroke-width="1" fill="none"></path></g></g><mask></mask><g stroke-linecap="round"><g transform="translate(1356.7256258810157 625.8980342321374) rotate(0 -0.30845389515570787 71.23096733595321)"><path d="M-1.11 -0.02 C-1.24 23.77, 0.02 118.33, 0.38 142.05 M0.5 -1.08 C0.13 22.97, -0.55 119.42, -0.52 143.54" stroke="#000000" stroke-width="1" fill="none"></path></g></g><mask></mask><g stroke-linecap="round"><g transform="translate(1396.3890024401599 626.922725361168) rotate(0 -0.7397624845252722 69.65631150159516)"><path d="M-0.02 0.09 C0.09 23.65, -0.08 116.87, -0.05 140.22 M-1.49 -0.91 C-1.49 22.41, -1.2 115.31, -1.04 138.49" stroke="#000000" stroke-width="1" fill="none"></path></g></g><mask></mask><g stroke-linecap="round"><g transform="translate(1457.4925940511866 627.2699628866176) rotate(0 0.5637467811020542 70.40671520905289)"><path d="M0.09 -0.08 C0.68 23.32, 2.06 117.08, 2.45 140.37 M-1.32 -1.17 C-0.72 22.45, 1.34 118.35, 1.9 141.98" stroke="#000000" stroke-width="1" fill="none"></path></g></g><mask></mask><g stroke-linecap="round"><g transform="translate(1176.3629657248075 678.7394153111054) rotate(0 165.25762441633242 -0.3021742562877989)"><path d="M0.86 0.17 C99.29 -0.65, 198.26 0.14, 330.03 0.18 M0.31 0.05 C101.83 0.3, 204.9 0.65, 330.2 -0.88" stroke="#000000" stroke-width="1" fill="none"></path></g></g><mask></mask><g stroke-linecap="round"><g transform="translate(1180.0464069261625 702.6375273568665) rotate(0 162.18982171872358 0.24176826894017722)"><path d="M0.17 0.83 C98.87 0.12, 199.35 -1.33, 324.33 0.77 M0.05 -0.34 C93.26 -0.26, 186.8 -0.8, 323.26 0.85" stroke="#000000" stroke-width="1" fill="none"></path></g></g><mask></mask><g stroke-linecap="round"><g transform="translate(1180.0055554525807 736.1050970893339) rotate(0 162.69865646061135 -0.2923097897628395)"><path d="M0.83 -0.69 C96.78 -0.24, 190.59 -0.06, 325.66 -0.8 M-0.34 0.2 C95.05 0.34, 188.8 -1.01, 325.73 0.04" stroke="#000000" stroke-width="1" fill="none"></path></g></g><mask></mask><g transform="translate(1150.4417319663871 657.7923401983826) rotate(0 6 10)"><text x="0" y="14" font-family="Virgil, Segoe UI Emoji" font-size="16px" fill="#000000" text-anchor="start" style="white-space: pre;" direction="ltr">0</text></g><g transform="translate(1153.4004965135082 680.978440347797) rotate(0 2.5 10)"><text x="0" y="14" font-family="Virgil, Segoe UI Emoji" font-size="16px" fill="#000000" text-anchor="start" style="white-space: pre;" direction="ltr">1</text></g><g transform="translate(1153.27662666192 707.6545586121356) rotate(90.36135896768697 7 10)"><text x="0" y="14" font-family="Virgil, Segoe UI Emoji" font-size="16px" fill="#000000" text-anchor="start" style="white-space: pre;" direction="ltr">...</text></g><g transform="translate(1151.5547198407794 742.7033303933131) rotate(0 6.5 10)"><text x="0" y="14" font-family="Virgil, Segoe UI Emoji" font-size="16px" fill="#000000" text-anchor="start" style="white-space: pre;" direction="ltr">M</text></g></svg>