<svg version="1.1" xmlns="http://www.w3.org/2000/svg" viewBox="0 0 1555.7877885584921 1744.2105589830953" width="100%" height="100%">
  <!-- svg-source:excalidraw -->
  
  <defs>
    <style class="style-fonts">
      @font-face {
        font-family: "Virgil";
        src: url("https://excalidraw.com/Virgil.woff2");
      }
      @font-face {
        font-family: "Cascadia";
        src: url("https://excalidraw.com/Cascadia.woff2");
      }
    </style>
  </defs>
  <g transform="translate(463.6963750517614 38.38722536464957) rotate(0 391 25)"><text x="0" y="18" font-family="Virgil, Segoe UI Emoji" font-size="20px" fill="#000000" text-anchor="start" style="white-space: pre;" direction="ltr">Extreme Gradient Boosting is an optimized version of the previously described </text><text x="0" y="43" font-family="Virgil, Segoe UI Emoji" font-size="20px" fill="#000000" text-anchor="start" style="white-space: pre;" direction="ltr">Gradient Boosting algorithm.</text></g><g stroke-linecap="round" transform="translate(13.587058076600442 10) rotate(0 157.5 53)"><path d="M0 0 C0 0, 0 0, 0 0 M0 0 C0 0, 0 0, 0 0 M0.84 6.3 C1.15 5.14, 3.91 3.55, 4.22 -0.46 M-0.82 6.18 C1.51 5.24, 2.22 2.85, 5.57 0.23 M-1.24 13.48 C5.39 4.92, 8.16 3.45, 12.95 2.72 M-1.02 12.16 C1.88 9.4, 6.13 5.23, 9.43 0.74 M-4.05 18.09 C1.85 10.44, 11.29 9.46, 15.98 3.07 M-0.29 18.05 C4.37 15.65, 5.09 8.65, 17.18 -1.34 M-2.3 26.94 C7.77 12.79, 11.99 9.08, 25.22 -2.75 M1.27 25.38 C6.89 17.78, 10.91 10.45, 20.09 -1.47 M2.03 28.18 C6.18 15.32, 21.57 7.34, 23.05 -1.57 M1.65 29.61 C6.79 22.81, 13.36 15.93, 26.1 0.94 M0.91 34.84 C5.05 30.55, 11.17 23.79, 28.8 -3.72 M-0.53 34.94 C8.88 26.8, 16.03 14.6, 32.8 -0.07 M3.19 42.16 C9.48 34.12, 16.3 23.57, 39.28 -1.47 M1.06 41.3 C9.74 28.76, 22.34 16.84, 35.3 1.92 M1.87 48.67 C19.99 29.24, 32.05 8.4, 43.33 3.6 M-0.05 47.17 C9.38 36.36, 21.97 25.68, 40.83 0.22 M3.97 53.62 C19.43 34.42, 30.21 15.47, 49.78 1.42 M-1.23 52.97 C19.66 32.99, 33.98 13.71, 48.85 1.73 M2.53 57.74 C13 39.97, 32.16 27.08, 53.99 2.17 M1.38 59.69 C16.8 41.95, 36.78 20.8, 53.7 1.54 M-1.59 68.79 C14.17 48.06, 23.35 38.7, 57.8 -2.98 M-1.12 68.27 C16.03 50.49, 28.5 33, 56.72 1.55 M-0.36 74.46 C16.63 46.33, 36.12 23.64, 60.09 2.86 M0.97 74.44 C15.04 57.63, 26.73 45.01, 64.86 1.11 M-3.38 79.51 C25.99 48.77, 47.67 22.79, 68.71 -0.9 M-0.59 79.66 C15.39 57.9, 33.5 36.35, 66.84 -0.36 M0.06 87.12 C26.78 58.48, 48.84 35.63, 75.05 -3.62 M1.92 86.42 C23.09 58.25, 47.26 30.85, 75.72 -0.78 M-3.12 91.76 C22.42 68.18, 42.05 43.38, 82 -2.66 M0.36 92.92 C26.31 63.82, 50.09 34.84, 81.07 -0.7 M-3.87 100.62 C20.77 67.77, 45.77 43.28, 86.44 1.34 M0.67 96.43 C18.99 74.76, 39.41 49.32, 83.59 -0.79 M-3.76 106.64 C36.97 66.09, 68.4 22.01, 91.28 -2.73 M-1.7 104.15 C21.08 79.63, 40.19 54.69, 91.22 0.89 M2.26 107.24 C44.22 63.09, 76.75 23.55, 95.93 0.21 M3.56 105.84 C34.33 70.88, 68.72 32.12, 93.76 -0.53 M4.45 105.58 C35.78 76.93, 59.2 52.08, 100.31 -3.71 M8.31 108.95 C28.25 82.5, 51.27 58.43, 99.02 1.87 M13.6 104.09 C45.24 70.96, 74.62 34.85, 103.34 3.34 M13.47 106.02 C44.76 73.28, 75.59 36.58, 107.42 1.47 M20.19 108.45 C42.48 72.44, 73.98 42.44, 114.96 -0.3 M16.23 108.55 C46.4 79.56, 69.47 48.58, 112.14 0.72 M20.97 104.78 C47.71 87.55, 62.6 57.85, 113.94 1.71 M24.81 106.05 C46.41 84.99, 67.08 59.55, 117.06 -1.5 M30.95 108.49 C49.64 83.56, 73.48 54.48, 119.21 -3.34 M26.51 108.76 C50.86 82.17, 74.49 55.83, 120.2 1 M33.88 104.96 C60.77 72.31, 99.07 34.86, 125.09 3.9 M34.43 106.22 C60.56 80.62, 80.83 55.55, 125.08 0.63 M42.29 106.32 C71.47 68.76, 105.15 37.26, 131.18 0.21 M39.49 105.92 C73.94 67.08, 113.22 25.22, 130.74 -0.66 M47.95 108.17 C67.91 87.26, 92.06 56.05, 138.33 0.65 M45.13 107.91 C81.26 66.36, 114.94 25.1, 135.84 -0.72 M49.9 106.4 C75.32 80.26, 102.38 51.9, 147.13 -0.74 M47.42 107.44 C83.12 70.2, 117.03 28.76, 141.26 1.41 M52.92 109.83 C85.64 71.38, 117.03 38.92, 145.95 1.82 M53.66 105.56 C83.34 73.53, 110.2 40.82, 146.29 0.16 M63.57 109.08 C85.42 77.1, 106.03 48.7, 157.42 -1.41 M58.52 107.77 C85.28 78.55, 114.58 47.86, 155.18 -2.02 M64.66 105.22 C97.99 65.56, 132.77 23.51, 162.4 -2.89 M66.68 106.65 C93.64 75.41, 122.24 41.26, 157.33 0.05 M67.25 110.59 C97.88 78.7, 120.46 59.08, 162.54 2.87 M68.93 108.46 C99.39 73.01, 128.24 40.89, 165.87 0.84 M77.16 105.5 C114.46 63.91, 145.89 17.98, 168.23 4.14 M76.82 107.76 C111.25 66.92, 144.62 25.81, 169.79 -1.21 M82.98 111.03 C102.89 82.21, 125.14 61.72, 173.11 0.64 M82.74 106.09 C109.11 80.46, 131.89 48.81, 176.61 -1.13 M86.54 105.71 C122.5 66.68, 152.68 24.98, 182.11 -3.63 M86.61 106.51 C117.27 74.11, 149.27 38.71, 180.44 -0.72 M90.95 106.36 C117.35 78.01, 147.35 38.08, 185.88 -3.7 M91.95 108.31 C107.99 83.78, 129.67 62.09, 184.65 -1.99 M99.05 108.77 C121.31 76.54, 148.83 45.88, 188.86 -0.84 M96.55 105.57 C116.43 80.13, 141.27 56.18, 189.98 -0.51 M101.47 104.46 C134.37 73.14, 158.16 46.98, 199.72 2.15 M100.53 105.84 C129.08 73.16, 157.57 39.97, 197.17 1.24 M107.06 109.45 C134.93 77.11, 161.28 45.93, 203.41 1.73 M109.06 108.7 C130.67 78.63, 149.9 53.25, 203.06 0.45 M114.96 109.02 C143.89 70.75, 173.33 43.34, 207.62 -1.66 M112.38 108.45 C138.36 74.84, 164.63 43.97, 207.27 0.63 M120.4 111.18 C154.98 63.49, 193.84 27.35, 214.81 -2.82 M119.84 109.46 C147.52 74.92, 174.53 42.13, 212.26 -1.75 M121.99 103.67 C155.49 72.86, 182.53 36.03, 220.69 -3.08 M123.31 109 C147.77 85, 168.94 57.45, 218 1.31 M129 106.98 C158.67 74.1, 196.2 30.31, 226.25 -1.51 M128.52 108.21 C154.18 77.5, 181.91 48.65, 222.09 0.04 M135.23 107.86 C158.33 84.49, 181.41 52.11, 228.19 1.79 M133.1 107.37 C170.83 67.61, 206.54 25.04, 226.36 1.45 M138.96 108.03 C170.57 67.62, 207.23 31.78, 231.03 -1.5 M138.67 108.64 C160.09 84.2, 183.23 58.13, 233.02 0.04 M141.5 104.95 C165.34 83.04, 189.01 55.14, 236.83 1.5 M145.46 106.55 C172.62 76.27, 202.17 41, 238.62 1.07 M151.14 108.6 C182.83 69.45, 218.14 37.6, 244.58 1.94 M148.46 106.75 C180.17 71.46, 206.01 38.95, 245.44 -0.48 M157.72 106.17 C180.29 77.99, 207.31 44.9, 249.41 -1.8 M156.03 108.55 C189.63 66.96, 225.16 30.1, 248.93 -1.05 M160.54 110.87 C190.78 76.37, 218.99 45.29, 256.47 1.41 M162.01 107.59 C189.14 72.39, 219 39.56, 255.67 -1.17 M166.95 110.62 C190.78 76.29, 218.72 52.73, 260.9 4.19 M164.38 106.46 C193.09 78.03, 216.49 47.72, 259.46 1.22 M172.28 108.86 C203.65 69.23, 244.26 27.22, 262.36 1.38 M169.37 109.3 C201.14 73.42, 228.13 40.49, 263.99 1.37 M174.37 105.26 C211.73 71.09, 238.14 41.64, 269.03 -1.14 M178.05 108.45 C197.56 79.51, 222.28 55.38, 270.94 -1.67 M185.59 104.49 C215.36 70.21, 247.26 36.59, 272.08 2.21 M182.52 107.06 C215.31 70.74, 247.32 32.2, 274.6 1.6 M191.29 104.95 C206.83 79.4, 229.01 58.95, 281.69 1.52 M188.48 105.72 C215.35 76.78, 241.36 46.4, 282.03 1.76 M193.85 107.54 C224.21 72.94, 250.94 43.21, 285.55 0.11 M191.39 109.1 C209.93 82.38, 231.07 58.5, 287.65 1.06 M195.14 104.41 C218.43 80.94, 243.73 57.44, 292.86 -0.68 M199.07 108.55 C233.96 64.06, 269.42 25.97, 289.36 0.08 M200.56 111.69 C224.57 78.55, 251.26 50.32, 300.82 3.2 M203.85 108.75 C229.5 71.59, 259.41 35.9, 295.21 0.33 M209.48 110.25 C238.81 71.82, 268.37 34.8, 298.66 3.3 M209.15 106.29 C244.39 64.1, 283.25 22.83, 303.48 -1.09 M211.32 110.46 C248.73 69.46, 280.55 33.2, 306.09 -0.57 M213.68 108.37 C243.85 78.17, 273.57 44.08, 309.31 -0.93 M215.99 108.93 C240.4 81.13, 260.93 58.17, 313.34 0.38 M217.99 107.34 C237.72 85.03, 257.37 62.12, 312.86 0.93 M225.9 105.27 C249.29 77.4, 281.23 40.45, 318.34 -1.83 M224.64 107.39 C252.27 74.16, 280.43 44.47, 316.59 1.51 M226.47 106.81 C255.63 88.29, 274.78 60.07, 314.7 8.88 M228.79 107.16 C254.63 81.59, 275.82 60.18, 317.38 9.44 M238.15 105.4 C257.48 76.2, 281.53 50.25, 313.47 12.97 M234.38 106.33 C256.03 84.14, 275.43 58.78, 316.41 15.23 M242.21 106.87 C257.58 89.56, 279.27 69.29, 315.87 20.45 M240.05 109.03 C260.92 84.38, 283.65 62.02, 316.03 18.23 M244.07 104.02 C262.78 86.59, 275.84 65.63, 316.54 23.33 M246.54 106.73 C276.04 73.54, 304.65 42.78, 315.11 24.99 M248.56 105.69 C267.68 94.72, 282.11 72.64, 317.4 33.1 M252.15 109.05 C275.31 81.83, 303.02 49.76, 315.03 32.63 M257.78 110.17 C269.92 91.71, 288.45 67.74, 315.58 41.49 M254.65 107.21 C280.78 81.68, 306.17 52.58, 315.79 39.47 M259.06 106.01 C285.2 86.62, 306.33 61.85, 317.37 41.99 M259.45 108.61 C274.76 89.83, 289.88 74.05, 317.97 44.36 M263.52 108.75 C281.15 92.45, 297.6 69.42, 313.4 50.81 M266.2 107.47 C283.57 84.63, 305.46 64.98, 318.16 49.61 M270.01 105.68 C286.21 90.99, 305.72 67.92, 317.97 55.91 M272.92 107.44 C290.19 90.31, 304.26 70.18, 316.34 55.87 M279.66 108.56 C287.81 91.27, 301.32 77.99, 318.91 62.5 M278.63 108.24 C288.51 94.09, 301.76 79.09, 317.87 61.46 M283.85 106.41 C292.49 90.15, 309.81 82.07, 313.54 69.77 M283.45 108.3 C288.92 99.63, 300.95 88.7, 317.59 69.01 M286.7 110.25 C299.15 94.27, 311.97 82.68, 314.53 76.41 M287.28 107.34 C293.43 99.4, 300.32 91.01, 317.83 76.85 M293.12 105.82 C303.56 101.53, 304.28 90.88, 317.2 77.6 M293.86 109.05 C300.68 101.37, 302.86 96.27, 315.77 81.87 M299.26 106.36 C302.74 103.81, 304.35 94.63, 314.75 86.02 M297.46 107.65 C303.77 103.93, 308.16 96.72, 314.88 86.43 M304.52 105.36 C304.12 104.38, 315.35 98.87, 320.18 89.33 M302.94 106.58 C308.26 106.21, 308.12 103.51, 318.88 93.66 M309.8 106.23 C311.02 103.06, 313.26 104.88, 315.33 98.99 M308.89 108.31 C310.27 105.33, 313.35 102.8, 316.22 98.57" stroke="#4c6ef5" stroke-width="0.5" fill="none"></path><path d="M-0.49 1.65 C89.64 2.75, 173.5 2.51, 312.43 0.05 M0.22 0.14 C63.21 1.58, 128.72 3.01, 314.42 1.31 M317.95 -1.08 C314.81 29.45, 316.39 60.7, 313.64 104.86 M316.93 1.39 C316.14 34.31, 314.06 65.47, 316.01 104.36 M313.87 107.78 C235.03 109.83, 158.52 112.46, 2.02 104.75 M314.1 105.11 C244.14 102.43, 175.22 102.6, 0.29 106.01 M-2.22 102.17 C2.44 73.13, -0.91 43.14, 1.08 1.46 M0.96 106.92 C-1.4 74.69, -1.34 45.59, -0.65 -1.34" stroke="#000000" stroke-width="1" fill="none"></path></g><g transform="translate(92.58705807660044 40) rotate(0 78.5 22.5)"><text x="78.5" y="32" font-family="Virgil, Segoe UI Emoji" font-size="36px" fill="#000000" text-anchor="middle" style="white-space: pre;" direction="ltr">XGBoost</text></g><g stroke-linecap="round" transform="translate(13.36896464524682 231.86840153715457) rotate(0 763.5316809368808 237.48519066804147)"><path d="M1.48 -0.53 C331.88 -7.78, 662.88 -7.09, 1525.51 0.37 M1526.07 -0.57 C1528.6 122.03, 1527 243.27, 1526.89 474.06 M1527.42 474.44 C984.29 471.34, 438.99 471.22, 0.14 475.54 M0.33 476.39 C-5.54 352.55, -3.16 228.59, -0.91 -0.52" stroke="#000000" stroke-width="1.5" fill="none" stroke-dasharray="8 9"></path></g><g stroke-linecap="round" transform="translate(17.344786762441004 181.41022663789408) rotate(0 164.5 23.25)"><path d="M0 0 C0 0, 0 0, 0 0 M0 0 C0 0, 0 0, 0 0 M0.27 7.39 C2.48 3.41, 2.8 1.24, 5.57 0.14 M0.11 6.24 C0.5 5.53, 2.05 3.98, 5.71 0.97 M-2.57 12.88 C2.81 11.14, 8.18 4.25, 8.01 -0.64 M0.52 12.5 C1.79 8.23, 5.67 7.04, 11.76 -1.07 M-2.49 19.95 C5.59 15.37, 9.01 7.79, 16.09 4.05 M1.2 17.05 C2.69 14.53, 7.47 8.73, 14.76 -0.07 M-2.6 20.8 C6.82 22.36, 7.14 11.13, 20.93 -2.62 M0 23.74 C5.99 14.23, 13.26 8.56, 20.79 1.9 M-3.12 31.87 C9.96 17.22, 16.89 8.73, 25.24 -1.63 M0.31 29.38 C11.96 18.92, 20.98 6, 27.25 1.52 M2.09 34.27 C14.58 21.86, 17.68 12.02, 31.52 1.55 M0.33 35.01 C8.44 27.2, 18.89 14.46, 32.5 -0.35 M1.7 41.48 C15.09 28.86, 26.14 11.32, 38.87 0.13 M-0.15 41.69 C14.65 26.94, 27.76 15.74, 35.43 0.58 M0.92 45.37 C13.87 31.04, 33.9 11.46, 43.03 -2.85 M0.16 48.59 C14.96 31.64, 27.49 19.7, 41.37 -0.69 M4.28 44.91 C20.29 30.87, 40.05 13.28, 49.83 -3.17 M4.66 45.85 C16.28 37.64, 27.02 25.26, 49.49 0.98 M8.46 50.76 C28.58 31.12, 44.94 14.67, 51.24 -0.26 M13.65 47.28 C29.2 31.2, 44.58 11.87, 54.64 0.2 M13.62 44.71 C30.83 34.39, 35.34 20.13, 54.84 2.1 M17.44 45.93 C27.05 33.94, 38.93 23.39, 58.73 0.5 M18.76 44.15 C30.37 30.58, 48.92 16.71, 59.83 -1 M21.66 46.7 C37.29 31.95, 51.32 16, 64.62 1.61 M27.27 45.37 C39.51 36.97, 44.43 25.16, 70.51 -0.33 M26.63 45.75 C37.24 33.42, 49.65 22.14, 67.49 -1.1 M30.9 50.78 C45.03 33.24, 53.56 19.42, 72.32 -1.27 M33.26 45.84 C48.36 31.2, 63.49 11.26, 72.69 -1.27 M39.27 44.18 C48.83 39.96, 53.53 27.18, 77.31 -0.58 M38.38 47.75 C50.01 33.92, 62.76 16.21, 79.16 1.84 M39.86 50.01 C48.14 38.86, 61.98 25.08, 84.13 0.87 M44.63 45.61 C57.66 30.05, 72.45 17.01, 85.27 -1.3 M51.53 44.58 C56.22 39, 61.85 25.5, 91.58 -2.66 M47.86 46.33 C55.43 38.67, 66.35 29.37, 88.21 0.93 M52.5 47.34 C67.76 31.93, 80.59 19.14, 98.55 -2.53 M54.97 48.9 C71.37 26.74, 86.8 9.66, 93.86 0.62 M57.85 48.12 C72.19 35.41, 75.99 21.86, 101.56 -0.45 M59.32 47.82 C75.93 28.37, 91.57 12.48, 100.18 1.73 M63.54 50.39 C75.42 28.03, 96.58 16.18, 102.74 2.72 M66.56 48.48 C79.49 31.55, 96.39 14.04, 107.04 -0.51 M67.88 46.49 C86.54 34.44, 99.94 12.13, 107.34 -1.71 M70.07 46.5 C77.93 36.54, 90.05 22.9, 111.65 -0.27 M79.57 44.9 C84.78 32.5, 97.62 20.62, 115.07 -2.32 M76.75 47.11 C92.61 29.57, 105.7 10.01, 117.75 -0.97 M83.16 45.49 C97.47 27.45, 107.81 10.06, 120.89 3.93 M82.47 48.56 C90.62 35.4, 99.43 27.3, 122.27 0.34 M87.08 50.74 C98.28 31.86, 115.07 17.59, 123.78 -0.74 M85.93 45.45 C102.14 29.03, 114.3 16.03, 125.99 0.62 M89.11 49.05 C110.79 27.67, 124.01 14.45, 134.08 -3.03 M91.98 48.15 C107.95 30.17, 119.45 14.53, 130.76 -1.07 M99.75 50.67 C109.18 30.1, 128.58 14.32, 139 0.79 M96.91 46.87 C111.01 29.48, 122.89 14.51, 138.87 -0.15 M103 51.23 C117.08 36.09, 127.44 19.62, 142.61 0.03 M103.08 47.35 C109.02 36.02, 120.31 28.54, 142.91 0.81 M105.12 51.28 C115.86 33.57, 128.3 24.06, 147.38 0.93 M105.54 46.42 C115.66 34.95, 126.85 25.13, 149.18 -0.51 M110.01 44.22 C126.36 32.24, 143.08 9.62, 154.1 -2.16 M113.32 48.17 C123.07 38.68, 129.31 27.96, 155.55 1.2 M116.65 47.59 C126.31 38.37, 137.64 21.98, 159.46 -3.49 M116.75 47.33 C130.55 29.71, 146.76 13.42, 158.8 -1.76 M119.16 50.31 C134.77 34.45, 143.29 26.08, 164.01 1.28 M121.35 48.59 C130.12 38.39, 141.59 28.61, 164.58 1.28 M128.29 43.95 C138.45 30.9, 159.12 19.85, 169.66 -1.56 M127.2 46.03 C139.82 32.54, 153.57 15.15, 170.67 -1.25 M131.38 49.94 C148.82 28.74, 162.15 12.97, 171.69 -0.65 M134.83 46.48 C148.01 30.61, 164.52 12.64, 176.96 0.17 M137.9 46.86 C148.11 35.24, 159.38 20.51, 180.26 -0.21 M140.59 48.89 C152.66 34.59, 161.84 20.8, 180.78 -0.41 M147.44 45.67 C152.57 34.91, 164.08 17.86, 188.38 -0.84 M142.52 47.68 C155.43 32.62, 167.4 18.72, 186.74 -1.09 M147.21 48.95 C159.6 29.92, 175.99 13.26, 193.43 -0.26 M147.71 48.19 C160.68 35.86, 170.29 24.62, 190.19 -0.71 M152.02 46.17 C170.28 37, 180.81 20.7, 197.17 1.95 M154.22 45.97 C162.89 39.14, 173.99 28.58, 195 0.49 M161.81 44.95 C172.67 37.16, 183.63 19.6, 203.2 3.6 M158.4 46.19 C172.04 32.4, 188.18 14.31, 201.02 0.3 M161.64 50.26 C180.87 31.07, 192.49 13.25, 209.03 3.1 M164.81 47.03 C174.75 35.15, 187.79 24.34, 205.89 -2.16 M167.18 47.74 C187.83 33.83, 196.46 14.09, 211.49 -1.21 M169.57 47.05 C184.64 29.26, 199.99 10.97, 212.45 1.02 M176.72 46.87 C185.69 37.68, 195.55 19.46, 214.81 0.1 M178.23 48.53 C185.82 33.93, 200.11 21.58, 218.62 -2.18 M184.67 48.31 C192.77 37.29, 205.24 17.83, 220.07 2.87 M181.17 48.89 C193.14 33.89, 204.94 19.49, 220.75 -0.23 M189.55 47.05 C196.34 32.04, 215.49 19.67, 225.24 0.57 M187.46 48.03 C194.76 34.17, 208.21 25.98, 227.49 1.23 M191.51 47.77 C206.04 32.23, 214.27 17.66, 230.62 -0.47 M192.23 47.75 C201.03 35.56, 213.39 22.49, 235.2 -1.17 M200.29 43.99 C209.94 36.33, 216.48 28.08, 238.26 -1 M198.57 47.06 C209.76 32.95, 224.82 18.43, 237.16 -0.44 M200.78 49.38 C219.78 32.83, 231.44 16.92, 244.67 2.58 M200.86 45.63 C211.6 37.96, 220.95 25.39, 242.2 0.4 M208.97 44.98 C220.4 31.9, 234.92 17.89, 249.66 -2.24 M206.68 47.08 C222.52 32.57, 232.16 17.53, 249.36 -0.03 M213.48 50.5 C226.12 34.77, 238.48 19.42, 255.64 -0.07 M212.19 46.44 C229.22 31.55, 242.58 12.28, 253.16 -1.38 M214.86 48.23 C232.75 34.7, 247.42 17.06, 257.14 3.6 M219.32 46.22 C227.02 38, 236.44 29.65, 258.9 1.84 M226.44 50.62 C237.41 29.84, 251.86 17.08, 264.8 1.66 M222.45 48.05 C229.51 35.92, 241.43 27.83, 264.59 -0.42 M227.05 47.76 C242.79 34.71, 247.4 22.25, 270.91 0.63 M227.05 48.32 C243.21 32.35, 255.8 14.89, 268.3 1.71 M232.39 51.37 C249.96 24.75, 269.93 11.67, 273.33 -0.07 M234.92 46.27 C247.92 30.78, 263.8 14.63, 274.05 1.29 M236.54 46.03 C256.73 30.7, 273.79 10.68, 281.07 -0.9 M239.53 47.4 C255.53 32.28, 270.36 14.41, 279.16 2.07 M243.94 48.49 C259.99 30.29, 272.87 12.05, 290.25 1.07 M243.93 46.82 C253.12 37.58, 265.67 23.52, 288.15 1.72 M250.88 50.84 C262.86 38.6, 268.37 29.32, 289.61 3.38 M248.11 48.66 C263.6 29.3, 277.82 14.07, 292.12 -0.66 M253.55 47.84 C261.92 40.42, 277.51 26.23, 300.49 1.49 M254.89 45.39 C267.06 30.44, 283.3 17.3, 298.6 -1.25 M261.48 44.12 C274.16 29.47, 289.28 21.42, 302.36 3.97 M261.25 49.25 C275.62 34.44, 286.09 18.86, 302.91 -0.11 M265.58 49.43 C276.26 33.81, 284.98 24.37, 304.82 -4.24 M268.26 47.58 C279.34 35.2, 289.59 17.99, 306.12 -1.79 M267.62 45.92 C277.04 38.54, 288.81 24.14, 313.07 1.47 M272.43 46.24 C281.67 37.64, 290.86 26.89, 314.31 0.02 M280.24 47.37 C291.42 33.19, 302.26 15.72, 319.92 0.56 M275.58 48.95 C290.58 31.7, 302.96 15.94, 316.53 -2.12 M284.46 50.43 C288.14 34.9, 300.62 24.76, 319.31 -1.36 M280.21 48.66 C293.19 36.61, 303.27 24.66, 324.14 1.96 M285.65 45.9 C303.8 26.57, 318.19 9.73, 330.31 -1.31 M287.42 46.97 C297.43 34.16, 311.36 20.29, 328.7 -0.55 M295.05 49.96 C310.08 30.82, 321.43 14.22, 328.61 2.61 M292.23 49.47 C304.36 33.51, 314.23 19.43, 331.36 4.16 M297.77 43.4 C305.45 37.23, 313.48 31, 328.54 12.15 M297.46 49.09 C310.59 32.18, 320.35 18.57, 330.7 9.64 M306.3 50.93 C307.45 39.43, 319.19 33.94, 331.75 11.92 M305.15 49.54 C312.4 33.42, 325.28 22.21, 333.36 16.27 M312.46 48.36 C314.19 37.35, 327.29 33.16, 328.14 21.95 M310.4 48.65 C313.45 40.64, 320.19 37.66, 332.77 19.98 M316.98 49.91 C321.62 43.25, 320.11 36.16, 329.82 26.63 M312.74 45.73 C317.64 45.21, 320.84 39.7, 333.05 25.28 M321.34 47.38 C319.13 40.85, 325.31 43.6, 331.9 34.18 M318.09 48.87 C322.74 44.86, 325.48 40.83, 331.61 32.96 M325.16 48.63 C324.36 46.24, 327.8 44.76, 330.32 39.9 M325.18 47.1 C326.91 44.37, 329.13 41.75, 330.64 39.46" stroke="#228be6" stroke-width="0.5" fill="none"></path><path d="M-0.9 -0.5 C91.87 -6.66, 186.04 -6.83, 329.64 -1.25 M-0.44 0.68 C104.81 1.98, 209.01 2.41, 328.3 0.77 M327.68 2.47 C327.9 16.02, 327.61 35.11, 330.43 44.81 M330.61 -1.7 C329.7 19.44, 328.01 35.83, 328.41 48.47 M328.44 46.42 C245.44 45.63, 156.68 41.58, -1.66 44.94 M328 47.57 C250.29 45.45, 173.26 44.95, -0.92 47.75 M-2.73 44.17 C-1.69 36.21, 2.35 22.91, 0.85 2.03 M-1.74 45.61 C-1.7 29.66, -1.77 16.03, 0.91 -1.01" stroke="#000000" stroke-width="1" fill="none"></path></g><g transform="translate(44.844786762441004 186.41022663789408) rotate(0 137 17.5)"><text x="137" y="25" font-family="Virgil, Segoe UI Emoji" font-size="28px" fill="#000000" text-anchor="middle" style="white-space: pre;" direction="ltr">System Optimization</text></g><g stroke-linecap="round"><g transform="translate(397.59610078803235 27.547728193161674) rotate(0 0.7518873177468919 28.916163860820234)" fill-rule="evenodd"><path d="M0 0 C0 0, 0 0, 0 0 M0 0 C0 0, 0 0, 0 0 M-11.07 19.02 C-8.94 14.16, -2.99 9.95, 0.96 2.82 M-12.67 20.71 C-7.12 14.56, -0.86 8.82, 1.93 3.83 M-23.43 40.66 C-11.7 26.95, -5.27 16.23, 2.63 7.66 M-23.93 38.46 C-16.74 32.06, -10.18 23.9, 3.09 7.43 M-33.65 58.62 C-23.79 45.62, -15.47 38.39, 6.27 10.5 M-35.82 59.22 C-21.13 42.09, -5.82 24.21, 5.79 11.61 M-28.28 60.02 C-18.97 44.56, -6.48 31.05, 9.8 15.57 M-29.91 57.46 C-16.37 43.36, -2.37 27.97, 9.3 13.7 M-24.07 56.81 C-17.92 49.72, -10.52 41.29, 12.15 17.53 M-23.44 58.33 C-14.47 46.87, -4.76 37.27, 10.79 17.89 M-16.69 56.46 C-12.4 48.35, -2.53 40.06, 12.59 19.85 M-19.23 58.46 C-9.23 46.77, 0.54 36.36, 13.63 21.69 M-13.11 59.57 C-5.35 48.15, 5.8 37.02, 16.15 23.94 M-13 57.58 C-6.56 52.28, -1.91 44.38, 15.73 25.1 M-8.91 58.38 C3.26 46.26, 11.02 35.19, 17.67 26.79 M-7.8 57.13 C-1.13 50.71, 4.65 42.51, 18.52 28.3 M-4.18 59.47 C5.77 50.91, 14.38 38.27, 17.79 31.08 M-2.98 59 C6.74 48.24, 15.78 38.67, 19.93 31.87 M2.47 59.11 C8.86 53, 12.26 45.78, 23.03 34.79 M2.75 58.97 C6.63 53.46, 10.53 49.67, 21.33 36.41 M9.29 58.13 C11.77 51.05, 17.29 46.54, 23.15 40.34 M7.66 57.59 C13.53 52.48, 18.43 46.44, 23.9 39.8 M10.8 56.81 C17.27 53.37, 16.76 51.48, 26.56 45.01 M13.31 59.2 C17.63 54.44, 21.69 49.71, 24.91 43.59 M19.4 58.24 C21.15 53.98, 25.49 50.57, 27.74 47.14 M17.69 57.54 C20.11 56.03, 21.82 53.28, 28.05 47.33 M23.31 58.8 C25.14 55.59, 28.27 51.88, 31.36 51.08 M23.28 58.99 C24.58 56.83, 25.75 54.95, 30.02 50.37 M29.09 58.56 C29.41 57.28, 30.39 56.12, 32.25 54.83 M28.82 58.44 C29.89 56.82, 31.08 55.87, 31.94 54.63 M33.78 58.63 C34.1 58.31, 34.22 58.19, 34.57 57.77 M33.84 58.56 C33.99 58.48, 34.16 58.24, 34.48 57.88 M-34.81 58.33 C-34.81 58.33, -34.81 58.33, -34.81 58.33 M-34.81 58.33 C-34.81 58.33, -34.81 58.33, -34.81 58.33 M-29.1 57.97 C-30.59 56.91, -31.81 55.04, -32.51 54.21 M-29.13 57.7 C-30.46 56.79, -31.91 55.91, -33.09 54.51 M-22.12 58.1 C-26.69 55, -28.32 53, -30.26 51.52 M-22.32 57.75 C-24.57 56.27, -27.51 54.67, -30.91 50.5 M-17.94 57.28 C-19.39 54.92, -26.83 51.9, -27.66 46.72 M-16.63 58.91 C-19.59 55.27, -23.89 51.75, -27.9 48.06 M-9.97 59.9 C-14.22 54.48, -19.46 51.22, -27.81 44.9 M-11.51 58.49 C-16.19 52.19, -22.17 47.74, -27.11 43.6 M-5.07 57.16 C-11.95 49.82, -21.32 42.77, -23.01 39.11 M-4 58.72 C-12.46 51.77, -17.88 45.32, -23.99 40.76 M2.16 56.58 C-6.69 51.19, -11.76 48.98, -23.67 38.45 M1.98 57.07 C-5.15 52.49, -12.27 46.44, -22.05 36.96 M7.27 57.29 C3.61 52.43, -5.56 47.77, -19.53 32.63 M8.57 57.28 C-2.71 49.15, -13.91 39.67, -19.32 33.53 M15.67 57.77 C4.8 52.2, -4.16 40.42, -17.59 28.29 M15.04 57.55 C6.07 51.23, -2.15 44.78, -17.45 30.42 M18.28 58.46 C8.65 50.52, -1.79 39.44, -15.72 27 M20.28 57.21 C5.54 45.77, -6.86 34.04, -16.34 26.21 M27.12 60.3 C11.66 47.67, -2.36 34.31, -15.79 23.15 M25.45 57.37 C15.26 48.49, 2.95 38.88, -14.37 24.15 M31.47 56.82 C18.27 45.77, 2.65 33.5, -13.33 17.99 M30.95 56.99 C19.23 46.22, 7.04 35.06, -11.08 20.2 M35.73 58.68 C20.67 42.68, 5.84 28.33, -11.58 16.18 M37.3 57.56 C25.17 48.73, 16.59 39.64, -10.35 15.65 M27.96 47.13 C17.25 36.13, 8.41 24.77, -6.44 12.43 M28.58 44.6 C19.06 35.65, 8.7 26.06, -8.33 13.89 M24.78 33.49 C13.5 24.79, 0.44 15.67, -7.3 10.2 M22.28 35.15 C14.55 27.53, 4.88 19.27, -5.39 9.04 M14.93 22.95 C11.69 18.89, 2.93 10.47, -3.19 6.23 M15.82 23.73 C9.88 17.32, 5.1 12, -3.31 6.66 M10.03 11.31 C6.18 8.44, 1.1 5.63, -0.08 1.66 M8.75 12.54 C5.27 9.13, 2.46 5.47, -1.18 2.53" stroke="#fab005" stroke-width="0.5" fill="none"></path><path d="M-0.82 -1.81 C-13.87 20.86, -27.16 44.75, -34.62 58.42 M0.69 -0.41 C-7.78 14.26, -17.73 29.11, -34.19 57.95 M-35.36 57.54 C-12.98 57.96, 10.84 56.95, 36.86 59.61 M-34.91 58.72 C-13.47 58.3, 9.33 59.8, 34.53 58.85 M36.39 59.65 C25.88 42.86, 17.26 29.43, -1.27 -1.25 M34.33 58.43 C25.92 42.6, 15.8 27.92, -0.55 -0.96 M0 0 C0 0, 0 0, 0 0 M0 0 C0 0, 0 0, 0 0" stroke="#000000" stroke-width="1" fill="none"></path></g></g><mask></mask><g stroke-linecap="round"><g transform="translate(397.8915674151849 65.19698267450622) rotate(0 0.5232418083986659 -11.498094185667469)" fill-rule="evenodd"><path d="M0.61 0.82 L-6.57 -24.39 L5.31 -21.12 L1.37 1.86" stroke="none" stroke-width="0" fill="#ffff" fill-rule="evenodd"></path><path d="M-1.81 0.04 C-3.37 -5.64, -3.83 -11.88, -5.34 -23.92 M-0.41 0.92 C-1.69 -6.58, -2.52 -11.43, -5.81 -22.57 M-5.92 -23.11 C-2.49 -22.37, -0.09 -21.7, 6.31 -22.58 M-5.26 -23.24 C-1.61 -22.96, 3.43 -23.02, 5.89 -23.14 M6.96 -23.67 C2.46 -17.59, 1.3 -11.27, -1.25 -0.59 M5.75 -22.78 C4.3 -18.31, 4.12 -13.02, -0.96 0.26 M0 0 C0 0, 0 0, 0 0 M0 0 C0 0, 0 0, 0 0" stroke="#000000" stroke-width="1" fill="none"></path></g></g><mask></mask><g stroke-linecap="round" transform="translate(391.7739029106033 70.63199248614) rotate(0 5.822197877429431 5.822197877429062)"><path d="M2.95 0.58 C3.78 0.11, 5.99 -0.65, 7.21 -0.2 C8.43 0.24, 9.48 2.1, 10.26 3.25 C11.04 4.41, 12 5.44, 11.91 6.71 C11.81 7.97, 10.66 9.94, 9.71 10.84 C8.77 11.74, 7.58 12.35, 6.22 12.11 C4.86 11.86, 2.64 10.36, 1.54 9.36 C0.45 8.36, -0.19 7.31, -0.37 6.11 C-0.54 4.92, -0.49 3.09, 0.5 2.17 C1.48 1.25, 4.84 1.03, 5.56 0.58 C6.28 0.13, 5.04 -0.5, 4.82 -0.52 M5.5 -0.11 C6.79 0.3, 10.19 1.92, 11.45 3.01 C12.7 4.1, 13.24 5.26, 13.04 6.42 C12.84 7.58, 11.52 8.91, 10.26 9.96 C9 11.02, 6.67 12.82, 5.47 12.77 C4.28 12.71, 4.05 10.41, 3.09 9.62 C2.13 8.84, 0.04 9.2, -0.28 8.07 C-0.61 6.94, 0.48 4.05, 1.16 2.83 C1.85 1.61, 2.93 1.13, 3.84 0.76 C4.74 0.38, 5.94 0.54, 6.58 0.57 C7.21 0.59, 7.74 1.05, 7.62 0.93" stroke="none" stroke-width="0" fill="#ffff"></path><path d="M3.27 0.77 C4.15 0.17, 5.22 -0.55, 6.5 -0.19 C7.77 0.17, 10.13 1.75, 10.92 2.95 C11.71 4.14, 11.38 5.93, 11.23 6.97 C11.08 8.02, 10.71 8.33, 10.03 9.22 C9.36 10.12, 8.43 12.04, 7.17 12.33 C5.9 12.62, 3.65 11.66, 2.44 10.97 C1.24 10.28, 0.32 9.5, -0.05 8.21 C-0.42 6.93, -0.34 4.56, 0.22 3.27 C0.78 1.99, 2.61 1.08, 3.32 0.52 C4.03 -0.03, 4.26 -0.25, 4.51 -0.05 M6.41 0.78 C7.2 0.9, 7.95 -0.05, 8.74 0.96 C9.54 1.97, 10.98 5.31, 11.18 6.84 C11.39 8.37, 10.77 9.42, 9.97 10.14 C9.16 10.86, 7.46 10.81, 6.35 11.15 C5.23 11.49, 4.07 12.77, 3.28 12.17 C2.49 11.58, 2.3 9.05, 1.6 7.58 C0.89 6.11, -0.95 4.62, -0.94 3.37 C-0.92 2.11, 0.6 0.71, 1.66 0.08 C2.73 -0.55, 4.83 -0.62, 5.43 -0.42 C6.04 -0.21, 5.27 1.1, 5.27 1.32" stroke="#000000" stroke-width="1" fill="none"></path></g><g stroke-linecap="round" transform="translate(160.07115356504175 307.8098437223507) rotate(0 164.5 23.25)"><path d="M-2.65 0.64 C83.91 0.35, 170.6 -1.63, 328.11 1.35 M328.61 -2.06 C330.86 20.1, 327.54 35.19, 327.68 48.97 M329.23 47.48 C236.13 47.86, 147.47 45.73, 2.2 44.18 M-2.07 45.32 C3.48 30.82, 2.04 15.83, -0.81 -0.12" stroke="#1864ab" stroke-width="1.5" fill="none" stroke-dasharray="8 9"></path></g><g transform="translate(225.57115356504175 312.8098437223507) rotate(0 99 17.5)"><text x="99" y="25" font-family="Virgil, Segoe UI Emoji" font-size="28px" fill="#1864ab" text-anchor="middle" style="white-space: pre;" direction="ltr">Parallelization</text></g><g stroke-linecap="round" transform="translate(632.9431676091236 312.4157399630385) rotate(0 164.5 23.25)"><path d="M-1.25 0.43 C99.58 -2.59, 197.72 0.31, 330.88 -1.12 M331.24 2.95 C327.83 19.13, 327.59 38.94, 328.15 45.14 M327.85 49.14 C241.59 48.63, 152.57 45.79, 0.08 47.88 M3.95 44.9 C2.99 33.85, -0.33 26.08, 2.91 2.85" stroke="#1864ab" stroke-width="1.5" fill="none" stroke-dasharray="8 9"></path></g><g transform="translate(713.4431676091236 317.4157399630385) rotate(0 84 17.5)"><text x="84" y="25" font-family="Virgil, Segoe UI Emoji" font-size="28px" fill="#1864ab" text-anchor="middle" style="white-space: pre;" direction="ltr">Tree pruning</text></g><g stroke-linecap="round" transform="translate(1087.5993989450017 311.30513514525046) rotate(0 167.00000000000006 23.5)"><path d="M0.27 -1.52 C107.08 0.63, 217.78 -1.81, 336.49 -0.26 M332.92 0.9 C333.2 14.16, 333.68 22.01, 332.86 47.34 M335.88 47.51 C224.04 49.06, 109.82 52.72, -2.21 45.6 M2.51 44.49 C-1.74 34.17, 1.98 24.42, -1.77 -3.05" stroke="#1864ab" stroke-width="1.5" fill="none" stroke-dasharray="8 9"></path></g><g transform="translate(1191.5993989450017 316.80513514525046) rotate(0 63 17.5)"><text x="63" y="25" font-family="Virgil, Segoe UI Emoji" font-size="28px" fill="#1864ab" text-anchor="middle" style="white-space: pre;" direction="ltr">Hardware</text></g><g stroke-linecap="round"><g transform="translate(758.410845302161 228.4405342255268) rotate(0 -217.6818813688848 37.33372880567458)"><path d="M-0.68 -0.39 C-48.59 4.55, -214.8 16.99, -287.27 29.77 C-359.74 42.55, -410.87 68.84, -435.51 76.3 M1.17 -1.64 C-46.86 2.96, -214.96 15.39, -287.91 28.08 C-360.86 40.78, -412.03 66.66, -436.53 74.54" stroke="#1864ab" stroke-width="1" fill="none"></path></g><g transform="translate(758.410845302161 228.4405342255268) rotate(0 -217.6818813688848 37.33372880567458)"><path d="M-414.5 55.89 C-419.62 60.16, -426.31 66.98, -437.56 75.66 M-414.18 55.53 C-422.6 61.96, -431.15 69.72, -436.18 74.12" stroke="#1864ab" stroke-width="1" fill="none"></path></g><g transform="translate(758.410845302161 228.4405342255268) rotate(0 -217.6818813688848 37.33372880567458)"><path d="M-407.18 75.07 C-414.63 73.24, -423.64 74.01, -437.56 75.66 M-406.87 74.7 C-417.96 73.98, -429.25 74.58, -436.18 74.12" stroke="#1864ab" stroke-width="1" fill="none"></path></g></g><mask></mask><g stroke-linecap="round"><g transform="translate(790.5822323719032 263.36407487992074) rotate(0 0.6109686846266413 19.6537675812624)"><path d="M-0.39 0.59 C-0.27 7.07, 0.58 31.84, 0.82 38.17 M1.61 -0.14 C1.63 6.55, 0.42 32.79, 0.31 39.45" stroke="#1864ab" stroke-width="1" fill="none"></path></g><g transform="translate(790.5822323719032 263.36407487992074) rotate(0 0.6109686846266413 19.6537675812624)"><path d="M-4.75 22.41 C-4.73 28.58, -2.27 31.5, 1.39 40.88 M-5.1 20.87 C-4.35 25.84, -2.3 31.48, -0.1 40.38" stroke="#1864ab" stroke-width="1" fill="none"></path></g><g transform="translate(790.5822323719032 263.36407487992074) rotate(0 0.6109686846266413 19.6537675812624)"><path d="M8.47 22.84 C4.39 28.83, 2.76 31.62, 1.39 40.88 M8.11 21.31 C5.26 26.11, 3.7 31.63, -0.1 40.38" stroke="#1864ab" stroke-width="1" fill="none"></path></g></g><mask></mask><g stroke-linecap="round"><g transform="translate(822.1866182384448 227.47223668183142) rotate(0 217.15656784427608 39.04050416549853)"><path d="M0.59 0.82 C35.74 5.61, 137.86 15.68, 210.24 28.35 C282.62 41.03, 397.3 68.54, 434.87 76.88 M-0.56 0.21 C34.46 4.73, 136.6 13.87, 209.03 26.81 C281.47 39.75, 396.17 69.62, 434.04 77.87" stroke="#1864ab" stroke-width="1" fill="none"></path></g><g transform="translate(822.1866182384448 227.47223668183142) rotate(0 217.15656784427608 39.04050416549853)"><path d="M405.62 80.55 C413.36 80.17, 417.75 80.63, 435.52 77.33 M404.03 81.02 C413.58 80.14, 423.83 78.5, 435.01 78.56" stroke="#1864ab" stroke-width="1" fill="none"></path></g><g transform="translate(822.1866182384448 227.47223668183142) rotate(0 217.15656784427608 39.04050416549853)"><path d="M410.35 60.58 C416.87 65.09, 420.11 70.42, 435.52 77.33 M408.76 61.05 C416.72 66.63, 425.44 71.44, 435.01 78.56" stroke="#1864ab" stroke-width="1" fill="none"></path></g></g><mask></mask><g stroke-linecap="round" transform="translate(163.1865212731783 355.6296812064156) rotate(0 163.45382112006723 146.37978764063882)"><path d="M-1.12 2.54 C87.24 -4.51, 176.56 -1.06, 326.17 0.62 M-0.47 -0.39 C87.37 1.45, 173.92 2.28, 327.86 0.26 M328.41 -2.44 C321.66 110.45, 326.15 221.46, 328.78 290.89 M327.97 -0.66 C325.64 80.97, 325.93 162.8, 325.98 292.32 M327.47 292.79 C252.18 288.19, 180.84 288.5, -2.63 293.46 M327.28 293.26 C250.87 290.15, 176.12 290.52, 0.64 292.11 M-0.97 290.76 C4.77 231.78, 0.43 166.14, -1.5 -0.82 M-1.19 292.59 C-0.55 197.04, -0.4 99.99, -0.11 0.5" stroke="#1864ab" stroke-width="1" fill="none"></path></g><g stroke-linecap="round" transform="translate(636.1046122554263 359.8342811066086) rotate(0 163.45382112006723 61.32925205682477)"><path d="M2.54 -0.27 C112.8 3.38, 230.46 1.09, 327.53 -0.91 M-0.39 0.12 C118.79 0.95, 237.92 2.49, 327.17 1.11 M323.64 -2.07 C325.8 30.34, 325.38 55.31, 324.4 121.84 M326.03 -1.53 C327.48 35.29, 327.43 71.61, 326.32 121.2 M326.93 122.23 C201.34 126.1, 77.93 120.95, 0.71 120.78 M327.41 122.37 C248.2 124.58, 169.57 124.51, -0.65 121.46 M-2.68 126.47 C3.38 89.27, -1.08 57.91, -1.1 1.22 M-0.23 124.33 C2.63 82.7, 2.23 38.86, 0.67 -1.98" stroke="#1864ab" stroke-width="1" fill="none"></path></g><g stroke-linecap="round" transform="translate(1087.509359049569 357.57853123136556) rotate(0 167.8970448986384 79.96265109413434)"><path d="M-0.26 -1.38 C125.31 -2.18, 246.88 -3.56, 334.9 1.67 M0.12 0.48 C93.04 2.59, 188.16 1.55, 336.88 -1.14 M333.72 -1.18 C341.35 46.83, 339.91 94.35, 334.98 159.81 M334.27 -1.21 C336.93 58.35, 336.82 118.64, 334.34 161.49 M335.37 158.12 C257.88 158.47, 172.46 160.66, -1.84 158.35 M335.51 160.21 C257.43 162.22, 178.31 160.94, -1.17 159.33 M3.81 161.74 C-0.98 119.5, -0.97 83.25, 1.22 1.64 M1.67 161.3 C4.43 121.14, 2.42 81.1, -1.98 1.64" stroke="#1864ab" stroke-width="1" fill="none"></path></g><g transform="translate(188.83583403918885 392.41871798968714) rotate(0 130.5 50)"><text x="0" y="18" font-family="Virgil, Segoe UI Emoji" font-size="20px" fill="#000000" text-anchor="start" style="white-space: pre;" direction="ltr">It parallelizes the</text><text x="0" y="43" font-family="Virgil, Segoe UI Emoji" font-size="20px" fill="#000000" text-anchor="start" style="white-space: pre;" direction="ltr">computation within a single</text><text x="0" y="68" font-family="Virgil, Segoe UI Emoji" font-size="20px" fill="#000000" text-anchor="start" style="white-space: pre;" direction="ltr">tree by creating branches</text><text x="0" y="93" font-family="Virgil, Segoe UI Emoji" font-size="20px" fill="#000000" text-anchor="start" style="white-space: pre;" direction="ltr">independently</text></g><g transform="translate(660.4141739740163 386.6855160643063) rotate(0 146.5 25)"><text x="0" y="18" font-family="Virgil, Segoe UI Emoji" font-size="20px" fill="#000000" text-anchor="start" style="white-space: pre;" direction="ltr">Prunes the trees through the</text><text x="0" y="43" font-family="Virgil, Segoe UI Emoji" font-size="20px" fill="#000000" text-anchor="start" style="white-space: pre;" direction="ltr">max_depth hyperparameter</text></g><g transform="translate(1109.4395791658098 383.4044604342489) rotate(0 151.49999999999994 50)"><text x="0" y="18" font-family="Virgil, Segoe UI Emoji" font-size="20px" fill="#000000" text-anchor="start" style="white-space: pre;" direction="ltr">Caches the awareness through</text><text x="0" y="43" font-family="Virgil, Segoe UI Emoji" font-size="20px" fill="#000000" text-anchor="start" style="white-space: pre;" direction="ltr">internal buffers in each </text><text x="0" y="68" font-family="Virgil, Segoe UI Emoji" font-size="20px" fill="#000000" text-anchor="start" style="white-space: pre;" direction="ltr">thread to store gradient</text><text x="0" y="93" font-family="Virgil, Segoe UI Emoji" font-size="20px" fill="#000000" text-anchor="start" style="white-space: pre;" direction="ltr">statistics</text></g><g stroke-linecap="round" transform="translate(759.4495709754075 198.61412583154925) rotate(0 30 30)"><path d="M14.42 4.58 C14.42 4.58, 14.42 4.58, 14.42 4.58 M14.42 4.58 C14.42 4.58, 14.42 4.58, 14.42 4.58 M4.65 23.9 C6.57 16.89, 13.87 12.76, 19.87 4.06 M3.63 24.31 C7.94 17.02, 13.37 11.69, 21.24 1.97 M3.66 27.51 C11.78 20.87, 17.81 15.6, 29.19 0.67 M4.31 28.73 C12.77 20.39, 19.74 9.33, 27.48 0.81 M5.02 33.45 C12.26 24.8, 23.28 14.81, 32.68 -1.58 M4.82 34.97 C13.38 25.31, 21 14.85, 34.9 0.3 M2.14 39.64 C14.42 28.6, 23.47 18.4, 37.24 0.97 M2.71 41.98 C17.2 26.49, 28.5 12.5, 37.01 2.75 M5.55 43.56 C17.43 28.65, 33.15 14.7, 43.29 5.13 M6.24 44.97 C14.1 34.8, 23.21 25.12, 40.84 4.94 M7.81 49.15 C18.12 37.45, 26 27.17, 46.22 6.57 M8.26 48.46 C17.28 36.05, 26.85 26.52, 45.41 5.85 M9.41 49.66 C19.78 42.06, 25.22 33.89, 48.43 9.38 M11.01 51.14 C22.66 37.78, 33.14 26.19, 48.64 8.32 M12.81 55.53 C21.69 45.33, 34.37 31.58, 52.67 10.72 M13.13 53.8 C24.92 42.13, 35.56 28.24, 51.67 9.77 M17.18 58.02 C22.59 48.88, 33.19 38.07, 53.5 15.71 M15.28 57.05 C26.82 46.02, 37.6 34.2, 53.2 13.11 M19.07 58.05 C29.61 50.95, 35.57 42.62, 56.51 19.25 M21.83 58.24 C28.91 50.09, 36.75 40.24, 55.74 18.68 M25.88 59.91 C34.49 51.02, 40.28 42.05, 58.5 20.71 M25.22 59.19 C36.53 45.4, 46.93 32.96, 58.6 20.94 M28.5 59.55 C39.01 49.01, 50.86 36.49, 60.14 25.25 M29.51 58.57 C39.56 49.08, 49.45 35.89, 59.63 25.92 M34.65 61.24 C46.3 49.74, 56.6 37.75, 64.01 27.26 M34.71 60.6 C43.31 50.21, 51.1 41.54, 62.07 28.65 M37.01 60.2 C43.84 53.71, 52.28 45.38, 58.71 37.44 M39.84 61.77 C46.31 52.47, 53.74 44.29, 59.7 38.37" stroke="#228be6" stroke-width="0.5" fill="none"></path><path d="M33.15 -0.15 C39.27 0.06, 46.93 4.76, 51.45 9.41 C55.98 14.05, 59.69 21.19, 60.3 27.71 C60.91 34.23, 58.95 43.13, 55.1 48.51 C51.26 53.88, 43.78 58.57, 37.23 59.97 C30.68 61.36, 21.5 60.02, 15.8 56.89 C10.1 53.76, 5.52 47.12, 3.01 41.18 C0.49 35.23, -1.19 27.32, 0.71 21.22 C2.61 15.12, 8.17 8.09, 14.4 4.6 C20.63 1.12, 33.67 0.62, 38.1 0.32 C42.54 0.02, 41.12 2.09, 41.01 2.79 M22.58 -0.22 C28.49 -1.85, 37.18 -0.4, 42.85 2.91 C48.52 6.22, 54.12 13.57, 56.6 19.63 C59.08 25.69, 59.46 33.36, 57.72 39.26 C55.99 45.16, 51.62 51.38, 46.2 55.03 C40.77 58.67, 31.67 62.15, 25.15 61.13 C18.64 60.1, 11.22 54.02, 7.1 48.89 C2.98 43.76, 0.72 36.7, 0.42 30.36 C0.11 24.02, 1.37 15.68, 5.28 10.83 C9.18 5.98, 20.85 2.81, 23.84 1.27 C26.84 -0.26, 23.08 1.12, 23.25 1.63" stroke="#000000" stroke-width="1" fill="none"></path></g><g stroke-linecap="round" transform="translate(785.1638566896937 207.1855544029786) rotate(0 4.285714285714278 4.2857142857146755)"><path d="M2.68 1.06 C3.7 0.78, 5.89 -0.21, 6.71 -0.03 C7.52 0.15, 7.35 1.15, 7.58 2.13 C7.81 3.11, 8.2 4.99, 8.1 5.87 C8.01 6.74, 7.87 6.95, 7.01 7.38 C6.15 7.8, 3.78 8.34, 2.94 8.42 C2.1 8.5, 2.3 8.45, 1.97 7.88 C1.63 7.3, 1.13 5.95, 0.94 4.97 C0.74 3.99, 0.54 2.7, 0.81 2.02 C1.07 1.34, 2.05 1.35, 2.54 0.89 C3.04 0.43, 3.68 -0.7, 3.78 -0.75 M5.4 0.04 C6.52 0.22, 7.7 2.18, 8.35 2.85 C9 3.51, 9.61 3.39, 9.3 4.04 C8.98 4.68, 7.17 6, 6.48 6.72 C5.78 7.44, 6.07 8.26, 5.11 8.36 C4.14 8.46, 1.37 7.72, 0.69 7.32 C0.01 6.93, 1.11 6.96, 1.02 5.98 C0.93 5.01, -0.29 2.47, 0.15 1.49 C0.59 0.51, 2.64 0.11, 3.66 0.12 C4.68 0.12, 5.79 1.61, 6.28 1.53 C6.77 1.45, 6.64 -0.37, 6.61 -0.39" stroke="none" stroke-width="0" fill="#ffffff"></path><path d="M3.24 -0.23 C4 -0.33, 5.77 0.28, 6.55 0.95 C7.33 1.63, 7.5 2.98, 7.9 3.82 C8.31 4.66, 9.11 5.42, 8.99 5.98 C8.88 6.53, 8.11 6.66, 7.2 7.17 C6.29 7.67, 4.7 9.11, 3.53 9 C2.36 8.89, 0.8 7.12, 0.16 6.49 C-0.48 5.87, -0.37 5.96, -0.29 5.23 C-0.22 4.51, -0.02 3.03, 0.63 2.13 C1.27 1.22, 2.88 0.01, 3.58 -0.2 C4.27 -0.42, 4.56 0.82, 4.78 0.85 M1.74 -0.63 C2.61 -1.04, 3.95 -1.17, 5.17 -0.88 C6.4 -0.59, 8.49 0.15, 9.1 1.11 C9.71 2.08, 9.2 4.01, 8.84 4.91 C8.47 5.8, 7.42 6, 6.91 6.47 C6.41 6.94, 6.92 7.48, 5.8 7.74 C4.68 8, 1.33 8.62, 0.21 8.04 C-0.92 7.47, -0.82 5.19, -0.93 4.29 C-1.04 3.4, -1.16 3.39, -0.46 2.67 C0.23 1.96, 2.65 0.25, 3.24 -0.01 C3.82 -0.26, 2.99 0.91, 3.04 1.15" stroke="#000000" stroke-width="1" fill="none"></path></g><g stroke-linecap="round" transform="translate(785.1638566896937 224.32841154583548) rotate(0 4.285714285714278 12.857142857143117)"><path d="M1.38 -0.12 L8.4 0.66 L9.82 26.72 L-0.96 24.69" stroke="none" stroke-width="0" fill="#ffffff"></path><path d="M-0.28 0.53 C3.02 -0.31, 6.16 0.05, 8.88 -0.36 M0.34 -0.36 C3.41 0.2, 6.45 -0.24, 8.45 0.42 M8.16 -0.06 C10.19 8.11, 7.85 11.85, 7.36 24.58 M7.84 0.78 C7.8 6.29, 8.42 12.02, 7.9 26.63 M7.99 25.21 C5.92 25.97, 4.69 25.56, 0.18 26.15 M8.2 25.52 C5.31 25.53, 2.32 26.08, 0.19 25.5 M0.61 26.53 C-0.9 18.1, -0.1 15.35, 1.37 1.86 M-0.99 26.54 C0.07 15.89, -0.44 7.89, 0.57 -0.75" stroke="#000000" stroke-width="1" fill="none"></path></g><g stroke-linecap="round" transform="translate(10 814.1950625804093) rotate(0 763.5316809368808 228.5885833721568)"><path d="M0.99 -0.34 C416.4 3.59, 834.04 4.62, 1526.39 1.54 M1525.47 0.05 C1528.83 167.33, 1526.9 337.18, 1528.92 456.42 M1527.02 458.34 C974.29 453.99, 418.02 453.72, -0.91 456.16 M1.48 456.03 C1.66 348.61, 0.98 238.75, 1.73 -1.05" stroke="#000000" stroke-width="1.5" fill="none" stroke-dasharray="8 9"></path></g><g stroke-linecap="round" transform="translate(13.975822117194184 763.7368876811488) rotate(0 164.5 23.25)"><path d="M0 0 C0 0, 0 0, 0 0 M0 0 C0 0, 0 0, 0 0 M-0.22 7.56 C3.08 3.49, 2.26 1.78, 3.84 0.48 M-0.62 5.8 C1.3 5.16, 2.69 3.07, 4.2 0.29 M2.14 12.33 C4.88 6.35, 5.46 9.42, 10.37 -0.66 M-1.35 13.29 C2.43 8.67, 6.86 3.15, 9.6 1.11 M1.82 22.4 C2.14 11.74, 9.16 5.38, 17.62 2.92 M-1.44 17.27 C4.12 13.68, 10.64 7.58, 16.63 -0.82 M0.67 20.89 C2.99 17.99, 8.05 12.33, 24.56 -1.82 M1.92 23.93 C6.6 16.17, 12.71 12.3, 21.85 -1.09 M3.87 27.39 C2.91 22.16, 13.02 16.66, 25.69 -3.58 M-1.21 31.39 C7.77 20.63, 16.25 12.54, 27.77 0.11 M0.79 39.28 C8.07 25.92, 22.13 13.13, 33.74 -2.55 M1.02 35.3 C8.42 31.05, 12.21 21.58, 32.89 -0.23 M-1.7 43.33 C17.39 25.28, 27.61 9.23, 37.03 -3.24 M0.52 40.83 C10.31 32.1, 18.2 19.94, 38.73 -0.22 M-1.15 49.69 C17.76 34.19, 33.8 10.28, 39.51 -3.32 M1.25 48.75 C19.73 29.08, 36.52 11.43, 43.78 -1.75 M7.17 48.61 C20.91 35.38, 28.26 20.3, 50.24 -2.31 M7.73 48.32 C15.43 36.86, 23.63 28.82, 46.84 0.94 M15.16 47.04 C23.48 29.9, 37.42 17.54, 51.41 1.65 M11.9 45.95 C26.21 33.01, 38.76 17.78, 52.9 0.56 M13.2 44.04 C30.18 33.65, 32.58 25.91, 59.8 3.07 M18.22 48.82 C32.06 33.78, 45.13 18.63, 56.51 0.24 M25.51 47.28 C35.27 30.44, 51.89 15.53, 62.84 0.32 M20.95 45.41 C30.73 38.4, 38.37 27.54, 63.67 0.83 M27.71 48.34 C40.5 29.5, 57.71 9.32, 72.06 2.91 M27.57 49.01 C35.38 37.99, 42.76 27.56, 67.2 0.31 M34.76 49.9 C41.23 35.47, 53.14 21.52, 75.1 2.73 M32.62 48.98 C46.19 30.12, 60.86 16.59, 72.6 1.15 M34.49 49.06 C52.24 31.3, 61.35 21.47, 81.24 -2.69 M37.05 46.22 C46.11 39.95, 55.86 26.62, 77.44 1.7 M43.62 48.53 C53.95 29.48, 72.05 13.57, 81.35 1.06 M42.17 48.46 C58.69 33.72, 69.84 16.96, 85.25 -0.46 M49.21 47.89 C66.18 30.84, 85.05 7.38, 93.43 -3.47 M48.96 45.72 C61.9 30.47, 74.05 16.29, 88.83 -1.11 M56.7 46.89 C65.44 27.96, 84.61 13.24, 98.62 1.63 M55.97 45.59 C67.63 34.18, 76.8 22.44, 96.23 -2.05 M55.4 44.64 C78.87 29.85, 87.14 14.3, 102.63 -3.06 M58.67 48.71 C73.61 32.07, 85.76 16.47, 102.02 0.3 M66.47 50.87 C74.05 36.04, 79.32 25.21, 103.82 0.87 M63.39 48.05 C80.76 28.74, 95.56 12.51, 105.23 -1.73 M68.46 45.23 C86.79 26.43, 100.7 7.5, 114.67 -2.98 M70.62 48.35 C81.92 30.26, 99.65 13.14, 112.71 0.31 M77.28 44.46 C82.49 32.7, 95.59 26.67, 113.1 2.08 M76.92 45.45 C87.53 33.84, 98.66 19.97, 116.34 -0.9 M79.7 45.71 C92.58 34.96, 94.52 25.84, 123.28 -2.61 M82.3 45.7 C96.71 30.98, 111.2 12.41, 123.7 -0.8 M89.36 45.77 C99.01 36.9, 112.29 16.19, 128.41 -3.56 M88.08 45.33 C94.83 34.47, 103.22 23.84, 128.69 0.69 M88.26 48.29 C103.27 36.01, 116.93 18.52, 134.06 0.81 M92.27 45.8 C105.35 29.47, 123.21 11.79, 132.82 -0.77 M98.14 51.81 C109.81 32.74, 124.43 13.76, 133.65 -0.49 M94.8 45.94 C108.93 34.57, 118.97 21.63, 136.49 1.5 M101.2 45.25 C117.45 31.1, 128.77 15.99, 140.48 -3.86 M100.16 45.58 C114.39 33.55, 127.56 19.55, 144.97 0.55 M104.92 51.43 C119.93 32.12, 135.3 14.71, 145.22 0.22 M108.06 49.19 C113.71 38.37, 126.53 27.71, 147.68 -0.82 M109.41 51.03 C121.55 33.98, 137.35 16.11, 155.9 -1.63 M110.65 45.96 C124.32 33.16, 136.2 18.72, 152.12 1.29 M120.89 45.88 C137.76 28.38, 150.63 11.06, 155.42 1.63 M115.9 49.21 C132.61 33.88, 145.05 18.11, 159.24 -0.7 M119.69 46.19 C141 35.14, 151.3 14.2, 165.54 0.63 M121.48 47.76 C134.53 32.37, 149.6 18.09, 165.3 1.49 M129.77 45.79 C143.6 29.57, 153.51 14.28, 172.4 -3.08 M126.11 49.29 C141.5 32.38, 159.2 14.27, 169.25 -0.61 M130.7 49.41 C145.95 30.5, 165.77 10.76, 174.49 -1.85 M135.47 47.74 C144.01 33.18, 157.67 18.57, 174.6 -0.86 M135.17 47.9 C144.13 33.29, 159.89 25.34, 180.2 1.39 M137.54 46.67 C146.36 37.25, 157.7 27.08, 180.82 0.9 M140.98 45.49 C155.6 31.2, 171.02 19.75, 183.74 -3.69 M144.49 46.62 C152.83 37.53, 161.29 27.12, 185.18 -1.83 M152.56 51.07 C168.18 29.95, 182.32 13.98, 186.73 -3.52 M148.07 48.52 C160.73 37.12, 167.41 27.1, 190.14 1.22 M156.94 49.38 C166.68 33.27, 177.43 27.2, 198.13 2.6 M153.47 49.03 C171.44 30.31, 186.12 12.81, 197.24 0.44 M161.28 48.3 C174.04 29.64, 191.94 17.13, 199.78 1.75 M158.69 47.96 C173.54 35.59, 183.77 17.72, 202.45 1.7 M168.86 50.11 C174.39 34.86, 187.64 21.04, 210.39 2.64 M164.41 47.57 C178.33 31.71, 194.68 16.18, 206.07 -2.26 M168.56 50.72 C182.67 27.55, 197.56 13.79, 211.02 2.87 M169.41 48.03 C186.44 30.9, 200.96 10.42, 212.07 -0.42 M174.9 50.89 C183.31 35, 191.77 28.25, 217.11 0.17 M176.37 46.74 C186.27 34.02, 194.4 23.48, 218 -0.18 M177.51 47.55 C194.52 36.94, 201.13 21.5, 219.97 -0.34 M179.32 45.72 C195.13 34.15, 204.93 20.42, 222.36 0.09 M189.12 45 C194.75 33.47, 202.94 25.33, 226.77 1.07 M185.47 47 C195.4 36.44, 206 26.04, 226.45 -1.65 M195.09 46.18 C202.5 36.83, 211.55 23.53, 234.06 -1.96 M190.59 47.97 C202.4 36.65, 210.98 23.04, 233.77 0.36 M201.41 47.89 C211.22 34.18, 221.4 23.33, 235.07 -1.92 M196.9 48.75 C212.98 30.09, 226.91 13.54, 239.22 -0.3 M200.16 48.1 C209.34 40.44, 221.45 24.33, 244.56 2.07 M204.43 47.62 C213.05 34.57, 226.18 21.35, 243.78 1.47 M209.56 49.11 C224.56 30.02, 239.27 11.96, 251.54 -0.19 M208.9 48.32 C217.89 35, 228.09 22.29, 249.15 1.9 M215.44 48.92 C227.9 34.63, 231.78 27.48, 250.65 -2.06 M213.11 47.48 C226.46 34.6, 237.93 19.87, 254.96 0.45 M218.59 45.1 C228.46 36.22, 236.15 27.13, 255.63 3.26 M216.13 46.73 C236.06 29.87, 249.93 10.81, 258.18 -0.79 M227.53 46.39 C239.22 26.25, 257.88 10, 267.35 1.94 M223.98 48.29 C231.83 37, 241.15 27.56, 266.94 -1.75 M227.33 44.15 C245.84 32.49, 255.34 14.25, 271.3 -1.2 M228.27 46.67 C241.58 33.67, 249.5 23.62, 271.95 -0.97 M234.9 48.38 C245.44 37, 253.57 25.78, 277.59 -3.48 M235.43 48.72 C249.93 31.31, 260.89 17.05, 276.38 -0.24 M240.55 46.96 C254.59 27.45, 272.86 15.05, 278.42 2.92 M238.1 49.06 C251.27 35.1, 261.96 26.58, 279.19 -1.25 M247.91 48.89 C256.34 35.37, 267.86 21.42, 288.14 2.22 M244.94 45.39 C258.55 31.51, 272.16 16.87, 285.05 1.81 M247.53 51.57 C264.28 36.51, 274.74 25.48, 292.7 2.25 M248.11 45.96 C259.58 39.54, 269.29 27.58, 291.68 1.65 M256.78 44.02 C270.27 38.35, 279.17 25.06, 297.67 -2.27 M257.04 48.84 C264.95 35.24, 277.96 21.53, 295.75 1.18 M261.43 46.17 C276.12 29.64, 289.28 7.3, 301.74 1.53 M261.87 49.39 C270.48 32.86, 281.13 19.67, 300.25 0.97 M263.61 48.04 C278.31 31.63, 289.4 23.95, 304.71 -0.14 M267.31 47.56 C276.31 36.99, 286.96 25.34, 308.35 -1.43 M271.3 49.06 C277.15 36.39, 291.6 26.1, 313.02 -0.38 M272 47.32 C286.91 28.68, 299.63 11.26, 310.8 -0.1 M274.37 45.3 C293.83 25.84, 304.93 7.81, 315.69 -0.46 M278.4 47.98 C294.45 29.65, 308.48 14.38, 319.79 -1.38 M282.04 44.69 C292.6 33.05, 306.4 20.89, 321.88 -2.48 M280.18 47.63 C297.62 29.88, 310.7 14.24, 324.31 -0.47 M290.91 46.3 C299.12 32.13, 306.45 20.83, 328.88 1.82 M288.04 46.45 C297.17 32.62, 309.01 23.17, 328.07 -2.09 M290.44 47.59 C301.6 38.62, 312.95 24.84, 333.59 0.61 M293.16 46.16 C305.93 28.71, 320.21 15.24, 330.84 1.19 M294.96 47.65 C311.19 35.74, 321.74 16.08, 334.57 10.94 M297 45.29 C307.38 35.41, 316.83 27.65, 332.36 10.02 M301.17 46.46 C313.59 42.2, 314.22 31, 328.69 13.69 M302.75 46.67 C312.15 39.6, 319.95 27.59, 330.91 13.41 M312.12 48.12 C314.42 35.88, 323.8 26.71, 328.06 22.17 M309.13 48.72 C313.53 42.56, 319.81 35.15, 330.05 21.37 M310.75 44.11 C319.32 44.38, 323.73 37.3, 330.01 27.07 M313.82 48.87 C317.33 43.91, 321.36 38.66, 330.54 26.05 M316.04 48.48 C321.96 45.69, 323.51 40.82, 333.77 31.97 M319.32 46.93 C323.24 42.16, 326.78 37.03, 332.89 33.3 M323.98 48.57 C326.29 45.78, 327.66 45.75, 332.79 40.03 M324.36 48 C325.7 45.9, 326.92 44.08, 331.99 38.8" stroke="#228be6" stroke-width="0.5" fill="none"></path><path d="M-0.58 -0.93 C105.3 -2.55, 213.15 -3.94, 331.64 1.9 M0.04 0.69 C103.8 3.11, 209.44 5.17, 328.45 0.86 M331.91 2.85 C327.05 7.98, 326.39 19.8, 326.47 44 M327.79 0.41 C328.34 12.26, 326.99 26.98, 327.89 44.59 M327.23 47.24 C222.87 43.29, 115.34 45.26, 1.32 47.76 M328.13 46.05 C244.89 45.81, 163.24 43.81, -0.91 45.81 M-2.06 43.3 C-0.75 37.17, 2.46 24.9, 1.93 -0.28 M0.09 44.76 C0.01 31.18, 2.06 14, 1.38 -0.12" stroke="#000000" stroke-width="1" fill="none"></path></g><g transform="translate(27.975822117194184 768.7368876811488) rotate(0 150.5 17.5)"><text x="150.5" y="25" font-family="Virgil, Segoe UI Emoji" font-size="28px" fill="#000000" text-anchor="middle" style="white-space: pre;" direction="ltr">Algorithm Optimization</text></g><g stroke-linecap="round" transform="translate(75.33135533428685 908.2776997531873) rotate(0 127 23)"><path d="M-0.92 0.28 C93.07 0.04, 186.95 3.65, 254.61 2.6 M250.73 -2.07 C252.85 13.85, 252.43 22.31, 251.49 45.19 M252.57 43.53 C176.59 47.09, 101.07 46.91, -0.96 43.64 M0.04 45.37 C-2.12 32.25, -1.66 7.35, 1.02 -2.73" stroke="#1864ab" stroke-width="1.5" fill="none" stroke-dasharray="8 9"></path></g><g transform="translate(104.83135533428685 913.2776997531873) rotate(0 97.5 17.5)"><text x="97.5" y="25" font-family="Virgil, Segoe UI Emoji" font-size="28px" fill="#1864ab" text-anchor="middle" style="white-space: pre;" direction="ltr">Regularization</text></g><g stroke-linecap="round" transform="translate(374.7146109790792 937.4483759442192) rotate(0 164.5 23.25)"><path d="M0.98 -1.15 C90.12 1.51, 175.48 1.81, 326.68 0.08 M327.82 3.95 C326.64 18.8, 325.73 31.76, 328.88 49.41 M327.34 44.94 C205.14 41.35, 83.93 41.07, 2.15 44.84 M-2.68 50.16 C-2.23 27.77, 1.02 13.95, -2.33 -2.58" stroke="#1864ab" stroke-width="1.5" fill="none" stroke-dasharray="8 9"></path></g><g transform="translate(405.7146109790792 942.4483759442192) rotate(0 133.5 17.5)"><text x="133.5" y="25" font-family="Virgil, Segoe UI Emoji" font-size="28px" fill="#1864ab" text-anchor="middle" style="white-space: pre;" direction="ltr">Sparsity Awareness</text></g><g stroke-linecap="round" transform="translate(1168.371435235842 903.6012060187095) rotate(0 164.5 23.25)"><path d="M2.64 1.9 C102.04 4.1, 200.72 1.98, 330.38 -2.24 M327.4 2.51 C326.22 10.73, 328.61 26, 331.85 44.73 M327.27 44.79 C254.61 41.94, 184 42.28, 0.56 46.53 M-2.22 42.67 C1.65 30.55, -1.71 17.47, 1.08 1.46" stroke="#1864ab" stroke-width="1.5" fill="none" stroke-dasharray="8 9"></path></g><g transform="translate(1221.371435235843 908.6012060187095) rotate(0 111.5 17.5)"><text x="111.5" y="25" font-family="Virgil, Segoe UI Emoji" font-size="28px" fill="#1864ab" text-anchor="middle" style="white-space: pre;" direction="ltr">Cross Validation</text></g><g stroke-linecap="round"><g transform="translate(755.0418806569141 822.7671952687815) rotate(0 -259.0089517530382 40.6443202084356)"><path d="M0.83 0.23 C-46.9 4.69, -200.41 14.3, -286.9 27.93 C-373.39 41.56, -479.4 73.18, -518.1 81.99 M-0.19 -0.7 C-47.95 4.39, -200.9 15.49, -287.34 28.93 C-373.79 42.38, -480.18 71.19, -518.85 79.96" stroke="#1864ab" stroke-width="1" fill="none"></path></g><g transform="translate(755.0418806569141 822.7671952687815) rotate(0 -259.0089517530382 40.6443202084356)"><path d="M-493.51 64.93 C-501.86 67.84, -505.59 70.44, -519.89 79.37 M-494.51 63.12 C-503.93 70.84, -513.14 76.31, -519.61 79.36" stroke="#1864ab" stroke-width="1" fill="none"></path></g><g transform="translate(755.0418806569141 822.7671952687815) rotate(0 -259.0089517530382 40.6443202084356)"><path d="M-488.65 84.87 C-498.45 82.68, -503.44 80.13, -519.89 79.37 M-489.66 83.06 C-500.94 82.86, -512.08 80.38, -519.61 79.36" stroke="#1864ab" stroke-width="1" fill="none"></path></g></g><mask></mask><g stroke-linecap="round"><g transform="translate(756.2577363137771 834.9527881971298) rotate(0 -120.20692581692407 43.86975962817996)"><path d="M0.23 0.96 C-19.01 4.63, -74.17 8.56, -114.24 22.82 C-154.31 37.08, -219 75.79, -240.19 86.51 M-1.11 0.42 C-20.08 4.22, -72.14 9.89, -112.07 24.37 C-151.99 38.86, -219.07 76.7, -240.64 87.32" stroke="#1864ab" stroke-width="1" fill="none"></path></g><g transform="translate(756.2577363137771 834.9527881971298) rotate(0 -120.20692581692407 43.86975962817996)"><path d="M-218.8 63.47 C-228.22 74.99, -237.93 81.73, -241.23 89.29 M-220.61 65.14 C-224.8 71.51, -231.23 75.8, -241.25 86.75" stroke="#1864ab" stroke-width="1" fill="none"></path></g><g transform="translate(756.2577363137771 834.9527881971298) rotate(0 -120.20692581692407 43.86975962817996)"><path d="M-209.3 81.66 C-222.61 85.99, -236.09 85.52, -241.23 89.29 M-211.11 83.33 C-217.88 84.91, -226.79 84.47, -241.25 86.75" stroke="#1864ab" stroke-width="1" fill="none"></path></g></g><mask></mask><g stroke-linecap="round"><g transform="translate(818.817653593198 821.7988977250861) rotate(0 246.54179948979998 37.44118841600812)"><path d="M0.96 -1.02 C50.02 2.31, 213.58 7.52, 295.2 20.17 C376.82 32.83, 458.01 65.49, 490.69 74.91 M0.01 1.06 C48.84 4.01, 212.09 5.9, 294.27 18.37 C376.45 30.84, 460.22 66.5, 493.07 75.9" stroke="#1864ab" stroke-width="1" fill="none"></path></g><g transform="translate(818.817653593198 821.7988977250861) rotate(0 246.54179948979998 37.44118841600812)"><path d="M461.39 76.61 C475.16 74.44, 484.2 75.24, 495.05 75.1 M463.05 77.29 C474.68 75.94, 484.08 75.54, 492.51 75.27" stroke="#1864ab" stroke-width="1" fill="none"></path></g><g transform="translate(818.817653593198 821.7988977250861) rotate(0 246.54179948979998 37.44118841600812)"><path d="M467.98 57.18 C479.36 62.24, 485.96 70.22, 495.05 75.1 M469.64 57.85 C478.76 63.54, 485.77 70.19, 492.51 75.27" stroke="#1864ab" stroke-width="1" fill="none"></path></g></g><mask></mask><g stroke-linecap="round" transform="translate(75.71945031515133 956.0975372372523) rotate(0 125.83900182110597 85.0488376051917)"><path d="M0.09 1.64 C77.6 1.79, 159.57 6.68, 250.38 2.04 M1.18 1.16 C59.02 -1.12, 118.49 -0.8, 250.65 -1.02 M249.25 0.82 C249.24 45.37, 246.53 95.65, 249.46 166.27 M250.39 0.54 C250.08 54.96, 249.78 111.78, 252.64 171.02 M249.6 169.04 C185.86 171.39, 125.88 166.64, -2.15 168.46 M250.84 168.79 C182.93 173.13, 115.68 173.29, 0.79 169.98 M0.19 166.62 C1.55 113.76, 5.65 53.71, 2.76 -0.24 M1 169.14 C-2.15 119.65, -0.4 70.72, -1.41 -0.55" stroke="#1864ab" stroke-width="1" fill="none"></path></g><g stroke-linecap="round" transform="translate(377.38393690070916 984.8669170877874) rotate(0 163.45382112006723 89.17092850602967)"><path d="M1.38 -2.25 C122.88 -0.94, 251.33 -1.23, 328.64 -1.72 M0.98 -0.61 C90.37 -4.11, 182.06 -4.15, 326.05 -0.41 M327.73 0.04 C329.08 37.85, 333.37 78.84, 323.08 179.37 M327.45 0.73 C324.41 41.75, 325.84 83.61, 327.83 177.4 M326.01 176.5 C259.94 176.72, 186.33 173.65, -1.39 177.58 M325.8 178.18 C220.03 176.97, 112.13 176.69, -0.1 178.8 M-3.48 176.52 C-2.58 144.8, -5.94 109.45, -0.24 -0.35 M-0.96 177.32 C-3.12 119.65, -2.49 58.09, -0.55 1.19" stroke="#1864ab" stroke-width="1" fill="none"></path></g><g stroke-linecap="round" transform="translate(1172.247341810581 948.8345947808284) rotate(0 163.45382112006723 60.00376738448176)"><path d="M-2.25 -1.43 C69.55 0.45, 139.61 -0.54, 325.18 -0.56 M-0.61 -1.05 C96.26 -3.99, 193.32 -4.07, 326.5 -1 M326.95 -0.63 C322.78 49.08, 323.23 87.01, 327.93 117.28 M327.64 -0.42 C325.78 30.02, 326.32 58.93, 325.96 118.27 M325.06 122.63 C244.55 117.15, 157.88 117.16, -0.76 120.85 M326.75 121.16 C216.38 117.69, 104.62 116.3, 0.46 118.64 M-1.82 120.36 C2.17 71.14, 2.65 28.03, -0.35 1.33 M-1.02 119.11 C-0.47 76.26, -2.61 32.5, 1.19 0.92" stroke="#1864ab" stroke-width="1" fill="none"></path></g><g transform="translate(104.09603580843213 992.8865740205256) rotate(0 103.5 50)"><text x="0" y="18" font-family="Virgil, Segoe UI Emoji" font-size="20px" fill="#000000" text-anchor="start" style="white-space: pre;" direction="ltr">Prevents overfitting </text><text x="0" y="43" font-family="Virgil, Segoe UI Emoji" font-size="20px" fill="#000000" text-anchor="start" style="white-space: pre;" direction="ltr">through both Ridge </text><text x="0" y="68" font-family="Virgil, Segoe UI Emoji" font-size="20px" fill="#000000" text-anchor="start" style="white-space: pre;" direction="ltr">(L2) and Lasso (L1)</text><text x="0" y="93" font-family="Virgil, Segoe UI Emoji" font-size="20px" fill="#000000" text-anchor="start" style="white-space: pre;" direction="ltr">Regularization</text></g><g transform="translate(412.93270857224707 1008.6475545516951) rotate(0 123.5 62.5)"><text x="0" y="18" font-family="Virgil, Segoe UI Emoji" font-size="20px" fill="#000000" text-anchor="start" style="white-space: pre;" direction="ltr">It handles sparse data </text><text x="0" y="43" font-family="Virgil, Segoe UI Emoji" font-size="20px" fill="#000000" text-anchor="start" style="white-space: pre;" direction="ltr">using a special split</text><text x="0" y="68" font-family="Virgil, Segoe UI Emoji" font-size="20px" fill="#000000" text-anchor="start" style="white-space: pre;" direction="ltr">finding that is able to</text><text x="0" y="93" font-family="Virgil, Segoe UI Emoji" font-size="20px" fill="#000000" text-anchor="start" style="white-space: pre;" direction="ltr">deal with different types</text><text x="0" y="118" font-family="Virgil, Segoe UI Emoji" font-size="20px" fill="#000000" text-anchor="start" style="white-space: pre;" direction="ltr">of sparsity patterns</text></g><g transform="translate(1192.0473443467608 974.6605239837118) rotate(0 121.5 37.5)"><text x="0" y="18" font-family="Virgil, Segoe UI Emoji" font-size="20px" fill="#000000" text-anchor="start" style="white-space: pre;" direction="ltr">Leverages a built-in </text><text x="0" y="43" font-family="Virgil, Segoe UI Emoji" font-size="20px" fill="#000000" text-anchor="start" style="white-space: pre;" direction="ltr">cross validation method </text><text x="0" y="68" font-family="Virgil, Segoe UI Emoji" font-size="20px" fill="#000000" text-anchor="start" style="white-space: pre;" direction="ltr">at each iteration</text></g><g stroke-linecap="round" transform="translate(756.0806063301625 792.9407868748058) rotate(0 30 30)"><path d="M3.25 16.08 C3.25 16.08, 3.25 16.08, 3.25 16.08 M3.25 16.08 C3.25 16.08, 3.25 16.08, 3.25 16.08 M3.25 22.84 C5.11 20.08, 9.89 15.17, 21.2 5.12 M1.49 23.49 C6.66 18.81, 11.88 12.59, 18.57 3.42 M1.25 31.71 C5.23 23.6, 12.47 19.36, 25.79 2.67 M0.17 31.51 C6.18 25.91, 11.01 19.44, 24.5 4.9 M2.48 35.39 C7.79 28.48, 16.4 18.28, 29.16 3.17 M0.44 35.96 C8.21 29.94, 13.86 20.73, 29.94 2.93 M2.59 40.57 C12.79 26.35, 24.19 15.93, 35.19 5.15 M2.08 41.26 C14.68 27.21, 25.62 14.49, 35.41 2.7 M5.52 43.19 C20.6 28.65, 33.14 11.69, 41.66 4.76 M5.81 43.64 C18.06 30.23, 27.86 17.4, 40.56 3.95 M8.18 45.81 C17.29 36.49, 29.05 22.24, 44.94 5.16 M7.98 47.41 C21.71 32.29, 34.84 15.97, 44.82 5.37 M9 50.98 C24.01 35.4, 37.57 23.67, 45.89 8.36 M9.23 51.29 C22.17 36.44, 36.88 20.39, 47.47 7.35 M10.62 56.37 C24.4 39.91, 36.32 28.65, 49.87 9.35 M11.18 54.47 C26.63 37.73, 42.97 20.23, 51.6 9.05 M14.47 54.38 C24.94 47.44, 34.95 35.9, 56.02 13.28 M15.15 57.14 C30.4 40.69, 44.55 25.01, 53.56 12.5 M22.15 57.32 C35.92 42.47, 49.85 24.81, 59.2 14.77 M19.52 56.66 C30.97 45.71, 39.31 33.84, 56.89 14.87 M25.28 56.73 C33.13 47.16, 43 38.94, 58.7 20.35 M23.73 57.73 C33.22 46.79, 44.5 35.68, 57.12 19.84 M28.19 59 C40.45 48.78, 50.67 37.21, 60 26.74 M28.94 59.06 C36.33 51.94, 41.9 44, 59.59 24.81 M31.85 59.56 C38.55 51.29, 46.98 44.59, 58.27 29.31 M32.11 62.38 C40.49 52.33, 47.5 43.26, 59.03 30.31 M41.11 56.63 C48.43 50.93, 55.28 40.51, 58.88 34.42 M41.22 57.23 C45.69 53.79, 48.93 48.21, 60.08 35.28" stroke="#228be6" stroke-width="0.5" fill="none"></path><path d="M39.23 2.19 C45.38 3.67, 52.86 8.42, 56.15 13.65 C59.43 18.87, 60.05 27.22, 58.95 33.55 C57.84 39.89, 54.27 47.3, 49.52 51.65 C44.77 56.01, 36.89 59.22, 30.44 59.69 C23.99 60.15, 15.88 58.31, 10.82 54.43 C5.75 50.56, 1.27 42.9, 0.05 36.46 C-1.16 30.01, 0.51 21.33, 3.51 15.77 C6.52 10.21, 11.62 5.41, 18.08 3.11 C24.54 0.8, 37.61 1.69, 42.29 1.93 C46.97 2.18, 46.37 4.08, 46.15 4.58 M34.37 1.04 C40.5 1.65, 48.78 6.11, 52.93 10.52 C57.08 14.94, 59.25 21.37, 59.27 27.52 C59.29 33.67, 56.95 42.28, 53.05 47.41 C49.15 52.55, 41.81 56.68, 35.87 58.31 C29.94 59.95, 23.19 60.22, 17.46 57.23 C11.72 54.24, 4.27 46.5, 1.48 40.36 C-1.32 34.23, -1.49 26.29, 0.67 20.44 C2.84 14.58, 9.02 8.8, 14.45 5.24 C19.89 1.68, 30.05 -0.41, 33.28 -0.93 C36.5 -1.45, 33.56 1.19, 33.79 2.12" stroke="#000000" stroke-width="1" fill="none"></path></g><g stroke-linecap="round" transform="translate(781.7948920444487 801.5122154462333) rotate(0 4.285714285714278 4.2857142857146755)"><path d="M1.38 0.06 C2 -0.31, 4.32 0.28, 5.24 0.66 C6.16 1.03, 6.35 1.7, 6.89 2.31 C7.44 2.92, 8.35 3.41, 8.51 4.32 C8.66 5.23, 8.34 7.13, 7.82 7.75 C7.31 8.38, 6.46 8.09, 5.41 8.04 C4.36 8, 2.33 7.91, 1.53 7.49 C0.72 7.07, 0.91 6.35, 0.58 5.5 C0.26 4.66, -0.89 3.23, -0.4 2.43 C0.08 1.63, 2.87 1.17, 3.51 0.68 C4.15 0.2, 3.39 -0.42, 3.43 -0.46 M4.76 0.82 C5.53 0.6, 7.93 -0.08, 8.63 0.57 C9.33 1.22, 8.99 3.36, 8.95 4.71 C8.91 6.05, 9.23 8.18, 8.4 8.61 C7.57 9.05, 5.11 7.64, 3.96 7.33 C2.82 7.01, 2.16 7.21, 1.54 6.71 C0.92 6.22, 0.38 4.98, 0.25 4.34 C0.13 3.71, 0.51 3.74, 0.77 2.9 C1.03 2.06, 0.92 -0.33, 1.81 -0.73 C2.7 -1.13, 5.35 0.49, 6.12 0.49 C6.9 0.49, 6.82 -0.73, 6.44 -0.74" stroke="none" stroke-width="0" fill="#ffffff"></path><path d="M3.69 0.92 C4.47 0.48, 4.83 -0.58, 5.45 -0.45 C6.08 -0.32, 7.07 0.87, 7.47 1.71 C7.86 2.54, 7.98 3.68, 7.84 4.56 C7.7 5.43, 7.11 6.37, 6.62 6.94 C6.14 7.51, 5.75 7.87, 4.92 7.96 C4.08 8.05, 2.46 8.1, 1.62 7.48 C0.78 6.85, -0.11 5.21, -0.12 4.21 C-0.12 3.21, 1.1 2.11, 1.57 1.46 C2.04 0.8, 2.36 0.62, 2.72 0.3 C3.08 -0.03, 3.66 -0.57, 3.73 -0.5 M5.82 0.79 C6.86 0.73, 8.04 0.37, 8.28 0.85 C8.52 1.33, 7.55 2.7, 7.26 3.66 C6.98 4.61, 7.14 5.53, 6.59 6.58 C6.05 7.63, 4.63 9.83, 3.99 9.94 C3.36 10.05, 3.58 8.05, 2.79 7.22 C2 6.39, -0.26 5.63, -0.75 4.96 C-1.23 4.3, -0.73 4.11, -0.14 3.24 C0.45 2.38, 2.12 0.34, 2.79 -0.21 C3.46 -0.77, 3.28 -0.34, 3.86 -0.1 C4.45 0.13, 5.88 0.96, 6.3 1.18" stroke="#000000" stroke-width="1" fill="none"></path></g><g stroke-linecap="round" transform="translate(781.7948920444487 818.6550725890884) rotate(0 4.285714285714278 12.857142857143117)"><path d="M1.52 -0.86 L9.47 1.11 L6.88 26.24 L0.05 27.16" stroke="none" stroke-width="0" fill="#ffffff"></path><path d="M-0.54 -0.17 C3.39 0.57, 7.44 -0.43, 7.92 -0.52 M-0.13 -0.31 C2.42 -0.21, 4.26 0.06, 8.5 -0.29 M9.08 -1.37 C7.26 8.78, 8.97 20.86, 8.15 26.14 M8.1 -0.87 C8.25 8.38, 8.37 17.37, 9.52 26.17 M8.33 25.98 C6.78 25.23, 3.61 25.57, 0.71 26.3 M8.71 25.29 C5.55 25.73, 1.46 25.51, 0.04 25.96 M-0.17 26.38 C1.07 20.93, -1.14 13.12, -0.89 0.73 M0.6 26.17 C-0.02 17.75, 0.91 10.82, 0.53 0.9" stroke="#000000" stroke-width="1" fill="none"></path></g><g stroke-linecap="round" transform="translate(809.6212733370885 940.0468406997425) rotate(0 139.5 41.5)"><path d="M-0.63 -0.09 C74.79 4.87, 143.75 0.34, 277.14 -1.75 M276.09 3.14 C275.54 20.47, 278 38.67, 276.32 86.66 M276.9 81.21 C208.78 84.93, 143.66 83.45, 0.66 84.56 M-3.48 81.23 C-3.32 52.8, -3.44 29.02, 1.81 -2.02" stroke="#1864ab" stroke-width="1.5" fill="none" stroke-dasharray="8 9"></path></g><g transform="translate(820.1212733370885 945.5468406997425) rotate(0 129 35)"><text x="129" y="25" font-family="Virgil, Segoe UI Emoji" font-size="28px" fill="#1864ab" text-anchor="middle" style="white-space: pre;" direction="ltr">Weighted Quantile </text><text x="129" y="60" font-family="Virgil, Segoe UI Emoji" font-size="28px" fill="#1864ab" text-anchor="middle" style="white-space: pre;" direction="ltr">Sketch</text></g><g stroke-linecap="round" transform="translate(803.570925502012 1027.383149262616) rotate(0 144.26258678386262 81.28813576647826)"><path d="M2.19 2.14 C67.16 -2.17, 135.15 -1.58, 286.62 -1.88 M-0.91 0.31 C78.03 -3.64, 155.03 -2.03, 287.69 -1.44 M285.94 1.08 C287.76 52.09, 287.16 107.9, 290.45 164.42 M287.25 -0.65 C284.35 43.01, 286.6 81.21, 287.2 161.57 M286.98 160.17 C209.58 166.86, 133.4 167.16, 1.45 162.36 M288.6 161.27 C191.68 166.28, 97.06 165.02, 1.04 162.49 M2 160.65 C-3.13 113.43, 0.38 67.31, -2.82 -1.11 M-1.19 164.03 C-1.82 105.14, 0.32 47.12, -0.86 0.9" stroke="#1864ab" stroke-width="1" fill="none"></path></g><g transform="translate(830.832596263599 1057.304981714109) rotate(0 119 50)"><text x="0" y="18" font-family="Virgil, Segoe UI Emoji" font-size="20px" fill="#000000" text-anchor="start" style="white-space: pre;" direction="ltr">Employs the Quantile </text><text x="0" y="43" font-family="Virgil, Segoe UI Emoji" font-size="20px" fill="#000000" text-anchor="start" style="white-space: pre;" direction="ltr">Sketch Algorithm to find</text><text x="0" y="68" font-family="Virgil, Segoe UI Emoji" font-size="20px" fill="#000000" text-anchor="start" style="white-space: pre;" direction="ltr">the best optimal split</text><text x="0" y="93" font-family="Virgil, Segoe UI Emoji" font-size="20px" fill="#000000" text-anchor="start" style="white-space: pre;" direction="ltr">points</text></g><g stroke-linecap="round"><g transform="translate(818.0553445968744 833.1730199663034) rotate(0 70.24538597022263 45.62903703324719)"><path d="M1.99 -1.24 C13.42 1.47, 45.34 3, 68.49 18.26 C91.63 33.53, 128.82 78.17, 140.86 90.35 M-0.37 4.27 C11.94 7.11, 50.63 6.26, 73.73 20.97 C96.82 35.67, 127.09 80.41, 138.19 92.49" stroke="#1864ab" stroke-width="1" fill="none"></path></g><g transform="translate(818.0553445968744 833.1730199663034) rotate(0 70.24538597022263 45.62903703324719)"><path d="M110.77 73.88 C117.95 78.92, 125.47 83.31, 137 89.58 M112.55 76.63 C120.72 84.55, 130.65 86.69, 138.7 91.13" stroke="#1864ab" stroke-width="1" fill="none"></path></g><g transform="translate(818.0553445968744 833.1730199663034) rotate(0 70.24538597022263 45.62903703324719)"><path d="M126.77 61.03 C129.39 70.11, 132.15 78.32, 137 89.58 M128.55 63.78 C130.5 76.63, 134.39 83.64, 138.7 91.13" stroke="#1864ab" stroke-width="1" fill="none"></path></g></g><mask></mask><g stroke-linecap="round"><g transform="translate(321.0018486884902 508.07791122930394) rotate(0 -1.127758624040169 18.284569956926134)"><path d="M-1.53 -1.21 C-1.21 12.23, -1.65 26.4, -2.34 37.78 M-0.16 -0.67 C0.78 8.11, -1.31 17.59, -1.57 35.63" stroke="#1864ab" stroke-width="1" fill="none"></path></g><g transform="translate(321.0018486884902 508.07791122930394) rotate(0 -1.127758624040169 18.284569956926134)"><path d="M-8.42 17.27 C-5.91 23.68, -3.97 30.72, -2.88 37.05 M-7.18 17.76 C-4.86 21.99, -5.25 26.86, -2.19 35.1" stroke="#1864ab" stroke-width="1" fill="none"></path></g><g transform="translate(321.0018486884902 508.07791122930394) rotate(0 -1.127758624040169 18.284569956926134)"><path d="M3.96 17.79 C1.85 23.95, -0.82 30.8, -2.88 37.05 M5.2 18.28 C4.55 22.39, 1.2 27.13, -2.19 35.1" stroke="#1864ab" stroke-width="1" fill="none"></path></g></g><mask></mask><g transform="translate(195.81383933039353 559.411244562636) rotate(0 131 37.5)"><text x="0" y="18" font-family="Virgil, Segoe UI Emoji" font-size="20px" fill="#000000" text-anchor="start" style="white-space: pre;" direction="ltr">It scans and sorts the</text><text x="0" y="43" font-family="Virgil, Segoe UI Emoji" font-size="20px" fill="#000000" text-anchor="start" style="white-space: pre;" direction="ltr">data in parallel, organizing</text><text x="0" y="68" font-family="Virgil, Segoe UI Emoji" font-size="20px" fill="#000000" text-anchor="start" style="white-space: pre;" direction="ltr">them in blocks</text></g><g stroke-linecap="round"><g transform="translate(953.6401782301309 1081.536372509634) rotate(0 39.67139176112141 -0.39338487880468165)"><path d="M-1.14 -1.27 C19.51 -0.32, 40.07 1.63, 79.91 -0.43 M0.92 -0.55 C23.46 0.54, 48.15 -0.55, 80.48 -0.57" stroke="#1864ab" stroke-width="1" fill="none"></path></g></g><mask></mask><g stroke-linecap="round"><g transform="translate(824.542551233144 1108.904093515619) rotate(0 78.1637757095366 -0.11068044458261284)"><path d="M-1.27 -1.25 C34.55 -0.37, 71.87 0.06, 157.59 0.86 M-0.55 -0.96 C44.94 -1.88, 88.79 -1.6, 157.45 1.21" stroke="#1864ab" stroke-width="1" fill="none"></path></g></g><mask></mask><g stroke-linecap="round" transform="translate(1005.0703822849246 1309.771724330716) rotate(0 270.3587031367838 212.2194173261896)"><path d="M-1 -0.47 C128.27 3.99, 257.91 3.07, 540.73 -0.25 M538.71 0.54 C543.37 97.7, 543.44 198.42, 541.49 424 M541.46 423.68 C365.56 425.81, 192.16 426, -1.07 425.96 M-1.06 423.86 C2.89 278.75, 1.17 129.65, -0.24 1.75" stroke="#1864ab" stroke-width="1.5" fill="none" stroke-dasharray="8 9"></path></g><g stroke-linecap="round"><g transform="translate(1098.736582804625 1141.009001861703) rotate(0 108.81424224854999 79.76529760916492)"><path d="M-0.75 -0.36 C33.11 6.46, 169.52 13.47, 202.46 40.14 C235.41 66.81, 197.73 139.82, 196.94 159.67 M1.06 -1.59 C35.35 4.97, 171.65 11.39, 204.72 38.51 C237.78 65.63, 200.58 140.83, 199.45 161.12" stroke="#1864ab" stroke-width="1" fill="none"></path></g><g transform="translate(1098.736582804625 1141.009001861703) rotate(0 108.81424224854999 79.76529760916492)"><path d="M196.03 129.8 C198.69 137.32, 198.22 145.81, 199.13 159.78 M196.87 130.57 C196.98 142.33, 198.94 155.03, 199.24 161.33" stroke="#1864ab" stroke-width="1" fill="none"></path></g><g transform="translate(1098.736582804625 1141.009001861703) rotate(0 108.81424224854999 79.76529760916492)"><path d="M215.89 134.97 C213.75 141.11, 208.45 148.34, 199.13 159.78 M216.73 135.74 C209.09 145.28, 203.28 155.96, 199.24 161.33" stroke="#1864ab" stroke-width="1" fill="none"></path></g></g><mask></mask><g stroke-linecap="round" transform="translate(1050.3259939329582 1360.0901463060545) rotate(45.161171448428654 12.143163760981395 1.1905062510768403)"><path d="M-0.67 -1.25 L23.1 -1.45 L25.86 0.57 L1.01 2.4 L0.28 -1.34" stroke="none" stroke-width="0" fill="#868e96"></path><path d="M0.6 0 M0.6 0 C10.15 -1.15, 17.51 -1.07, 23.69 0 M0.6 0 C8.36 0.56, 16.19 0.51, 23.69 0 M23.69 0 C23.15 -1.74, 23.4 -1.08, 24.29 0.6 M23.69 0 C23.34 -1.54, 26.48 1.24, 24.29 0.6 M24.29 0.6 C24.25 0.93, 24.33 1.13, 24.29 1.79 M24.29 0.6 C24.33 0.91, 24.31 1.11, 24.29 1.79 M24.29 1.79 C24.95 0.2, 25.73 2.48, 23.69 2.38 M24.29 1.79 C22.28 1.14, 24.29 3.69, 23.69 2.38 M23.69 2.38 C18.32 3.03, 14.55 3.37, 0.6 2.38 M23.69 2.38 C18.24 2.14, 11.35 2, 0.6 2.38 M0.6 2.38 C1.39 3.3, -0.39 0.99, 0 1.79 M0.6 2.38 C1.87 2.01, 1.21 4.26, 0 1.79 M0 1.79 C0.07 1.24, 0.04 0.89, 0 0.6 M0 1.79 C-0.06 1.33, -0.05 0.9, 0 0.6 M0 0.6 C-1.4 0.68, 0.77 -0.9, 0.6 0 M0 0.6 C-1.73 1.31, 0.72 1.62, 0.6 0" stroke="#000000" stroke-width="1" fill="none"></path></g><g stroke-linecap="round" transform="translate(1039.5713767303296 1339.1618054713235) rotate(0 11.3878087664134 11.3878087664134)"><path d="M9.04 0.19 C11.23 -0.47, 13.49 -0.28, 15.72 0.9 C17.94 2.07, 21.34 5.08, 22.41 7.26 C23.48 9.44, 22.79 11.74, 22.13 13.98 C21.47 16.21, 20.35 19.08, 18.45 20.69 C16.54 22.3, 13.1 23.92, 10.68 23.61 C8.26 23.3, 5.62 20.66, 3.92 18.84 C2.22 17.02, 0.9 15.01, 0.47 12.69 C0.05 10.37, -0.47 6.91, 1.36 4.92 C3.18 2.92, 9.16 1.53, 11.42 0.72 C13.68 -0.08, 15.06 0.06, 14.92 0.09 M7.74 1.16 C9.73 0.2, 12.13 -1.28, 14.49 -0.48 C16.86 0.31, 20.38 3.8, 21.91 5.93 C23.44 8.05, 24.44 9.94, 23.68 12.27 C22.92 14.6, 19.54 18.3, 17.33 19.9 C15.12 21.5, 12.54 21.69, 10.44 21.89 C8.34 22.1, 6.41 22.36, 4.73 21.13 C3.04 19.9, 1.1 17.04, 0.33 14.52 C-0.44 11.99, -1.28 8.3, 0.13 5.98 C1.54 3.66, 7.6 1.29, 8.78 0.61 C9.95 -0.08, 7.16 1.83, 7.16 1.86" stroke="none" stroke-width="0" fill="#868e96"></path><path d="M7.83 -0.15 C10.12 -1.07, 14.57 -0.77, 16.68 0.32 C18.8 1.42, 19.69 4.25, 20.54 6.41 C21.4 8.57, 22.3 10.91, 21.82 13.29 C21.34 15.68, 19.42 19.17, 17.65 20.71 C15.89 22.25, 13.52 22.63, 11.23 22.55 C8.94 22.48, 5.66 21.81, 3.89 20.27 C2.11 18.73, 1 15.96, 0.58 13.31 C0.15 10.66, -0.12 6.68, 1.33 4.38 C2.77 2.07, 7.62 0.29, 9.25 -0.51 C10.88 -1.31, 10.85 -0.81, 11.11 -0.44 M8.13 0.82 C10.61 0.1, 14.84 -0.61, 16.91 0.34 C18.98 1.29, 19.44 3.98, 20.55 6.5 C21.67 9.02, 23.83 12.97, 23.61 15.47 C23.39 17.97, 21.47 20.21, 19.23 21.5 C16.99 22.79, 13.09 23.37, 10.18 23.22 C7.27 23.07, 3.45 22.64, 1.77 20.6 C0.09 18.55, 0.16 13.58, 0.11 10.97 C0.05 8.35, -0.11 6.86, 1.44 4.9 C2.99 2.95, 8.03 -0.03, 9.4 -0.77 C10.77 -1.5, 9.75 0.04, 9.64 0.49" stroke="#000000" stroke-width="1" fill="none"></path></g><g stroke-linecap="round" transform="translate(1042.9852808573069 1342.9350679274557) rotate(0 8.169626586566494 8.169626586566665)"><path d="M5.97 -0.44 C7.58 -0.92, 9.71 0.55, 11.39 1.38 C13.07 2.22, 15.37 2.95, 16.05 4.56 C16.73 6.18, 16.02 9.25, 15.45 11.06 C14.89 12.87, 13.84 14.41, 12.65 15.42 C11.46 16.42, 10.1 17.24, 8.31 17.06 C6.53 16.89, 3.22 15.87, 1.93 14.36 C0.64 12.85, 0.61 9.81, 0.58 7.99 C0.55 6.18, 0.59 4.64, 1.77 3.47 C2.94 2.3, 6.72 1.64, 7.65 0.96 C8.57 0.27, 7.44 -0.52, 7.31 -0.65 M8.9 -0.67 C10.55 -0.65, 11.24 1.37, 12.52 2.83 C13.8 4.29, 16.34 6.73, 16.6 8.1 C16.87 9.47, 15.13 9.91, 14.12 11.04 C13.11 12.17, 12.2 14, 10.55 14.88 C8.9 15.75, 5.66 16.76, 4.21 16.31 C2.77 15.85, 2.39 13.99, 1.89 12.13 C1.39 10.27, 0.97 6.63, 1.21 5.12 C1.45 3.62, 2.14 4.02, 3.33 3.12 C4.52 2.22, 7.34 0.04, 8.34 -0.29 C9.35 -0.61, 9.53 1.21, 9.37 1.16" stroke="none" stroke-width="0" fill="white"></path><path d="M8.34 0.96 C9.91 0.89, 12.11 0.54, 13.48 1.53 C14.85 2.52, 16.45 5.1, 16.57 6.9 C16.69 8.7, 15.23 10.72, 14.2 12.31 C13.18 13.91, 12.07 15.89, 10.43 16.46 C8.8 17.03, 5.93 16.48, 4.39 15.73 C2.86 14.99, 1.82 13.7, 1.22 11.99 C0.62 10.28, 0.52 7.3, 0.77 5.46 C1.02 3.62, 1.33 1.9, 2.72 0.96 C4.11 0.02, 7.94 -0.25, 9.12 -0.17 C10.29 -0.09, 9.62 1.34, 9.77 1.44 M5.97 1.06 C7.51 0.29, 8.8 -1.39, 10.33 -0.66 C11.86 0.08, 14 3.5, 15.14 5.47 C16.29 7.43, 17.4 9.64, 17.22 11.13 C17.03 12.63, 15.48 13.8, 14.03 14.42 C12.58 15.04, 10.18 14.85, 8.52 14.85 C6.85 14.85, 5.66 15.42, 4.04 14.4 C2.42 13.39, -0.75 10.36, -1.21 8.76 C-1.66 7.16, 0.37 6.03, 1.3 4.81 C2.24 3.6, 3.69 2.2, 4.39 1.48 C5.09 0.75, 5.16 0.36, 5.48 0.47" stroke="#000000" stroke-width="1" fill="none"></path></g><g transform="translate(1105.3824656275856 1342.3673954236983) rotate(0 172.5 12.5)"><text x="0" y="18" font-family="Virgil, Segoe UI Emoji" font-size="20px" fill="#1864ab" text-anchor="start" style="white-space: pre;" direction="ltr">Weighted Quantile Sketch Algorithm</text></g><g transform="translate(1066.5652272099524 1411.862617402392) rotate(0 213.5 137.5)"><text x="0" y="18" font-family="Virgil, Segoe UI Emoji" font-size="20px" fill="#000000" text-anchor="start" style="white-space: pre;" direction="ltr">1. The data is split into multiple subsets</text><text x="0" y="43" font-family="Virgil, Segoe UI Emoji" font-size="20px" fill="#000000" text-anchor="start" style="white-space: pre;" direction="ltr">  and distributed across multiple cores</text><text x="0" y="68" font-family="Virgil, Segoe UI Emoji" font-size="20px" fill="#000000" text-anchor="start" style="white-space: pre;" direction="ltr"></text><text x="0" y="93" font-family="Virgil, Segoe UI Emoji" font-size="20px" fill="#000000" text-anchor="start" style="white-space: pre;" direction="ltr">2. Each subset calculates the quantiles </text><text x="0" y="118" font-family="Virgil, Segoe UI Emoji" font-size="20px" fill="#000000" text-anchor="start" style="white-space: pre;" direction="ltr">   and the statistics are pulled together</text><text x="0" y="143" font-family="Virgil, Segoe UI Emoji" font-size="20px" fill="#000000" text-anchor="start" style="white-space: pre;" direction="ltr">   to form an approximate histogram of </text><text x="0" y="168" font-family="Virgil, Segoe UI Emoji" font-size="20px" fill="#000000" text-anchor="start" style="white-space: pre;" direction="ltr">   quantiles</text><text x="0" y="193" font-family="Virgil, Segoe UI Emoji" font-size="20px" fill="#000000" text-anchor="start" style="white-space: pre;" direction="ltr"></text><text x="0" y="218" font-family="Virgil, Segoe UI Emoji" font-size="20px" fill="#000000" text-anchor="start" style="white-space: pre;" direction="ltr">3. These quantiles are weighted such that</text><text x="0" y="243" font-family="Virgil, Segoe UI Emoji" font-size="20px" fill="#000000" text-anchor="start" style="white-space: pre;" direction="ltr">   the sum of the weights within each </text><text x="0" y="268" font-family="Virgil, Segoe UI Emoji" font-size="20px" fill="#000000" text-anchor="start" style="white-space: pre;" direction="ltr">   quantile is approximately the same</text></g><g transform="translate(36.13155341692163 129.06560512249598) rotate(0 139 10)"><text x="139" y="14" font-family="Virgil, Segoe UI Emoji" font-size="16px" fill="#000000" text-anchor="middle" style="white-space: pre;" direction="ltr">illustrated-machine-learning.github.io</text></g></svg>