<svg version="1.1" xmlns="http://www.w3.org/2000/svg" viewBox="0 0 1472.6945614427668 505.50603243691876" width="100%" height="100%">
  <!-- svg-source:excalidraw -->
  
  <defs>
    <style class="style-fonts">
      @font-face {
        font-family: "Virgil";
        src: url("https://excalidraw.com/Virgil.woff2");
      }
      @font-face {
        font-family: "Cascadia";
        src: url("https://excalidraw.com/Cascadia.woff2");
      }
    </style>
  </defs>
  <g stroke-linecap="round" transform="translate(20.20532796950738 11.620895645361088) rotate(0 178.5 24)"><path d="M0 0 C0 0, 0 0, 0 0 M0 0 C0 0, 0 0, 0 0 M-0.01 6.42 C2.68 3.82, 4.65 1.46, 5.13 1.63 M-0.52 6.56 C0.34 4.68, 1.88 3.63, 5.44 1.08 M1.96 9.27 C1.29 7.14, 7.05 6.68, 13.14 -0.45 M-1.27 12.83 C2.5 7.99, 7.84 5.05, 11.08 -0.41 M-3.23 18.36 C5.18 15.94, 12.38 7.01, 14.5 -0.91 M0.21 19.35 C3.22 13.7, 7.35 6.54, 17.52 1.61 M3.95 27.01 C6.05 19.47, 15.64 13.28, 23.59 3.88 M0.67 22.83 C8.21 19.47, 14.43 11.36, 20.24 0.17 M3.9 28.9 C11.79 16.18, 20.55 3.22, 24.36 0.46 M1.8 30.42 C10.13 20.62, 17.71 9.62, 25.48 0.72 M1.45 33.39 C11.38 27.01, 20.4 11.15, 29.53 -0.11 M-1.36 36.16 C11.85 22.31, 23.04 9.13, 32.09 1.04 M1.2 40.27 C10.7 29.68, 22.4 15.56, 32.91 -3.26 M1.88 43.83 C9.01 32.72, 17.21 23.76, 36.99 -0.38 M3.13 50.32 C15.42 32.93, 33.71 11.59, 39.44 0.22 M-0.91 46.96 C11.68 34.61, 25.02 22.99, 41.02 -1.89 M2.01 46.94 C15.05 37.29, 23.05 29, 48.87 1.33 M5.87 49.68 C16.12 38.89, 23.28 25.27, 46.18 1.74 M10.48 45.12 C27.96 34.53, 41.91 16.17, 53.86 -4.07 M10.57 49.01 C23.11 33.71, 36.27 18.82, 53.49 1.75 M15.13 51.72 C25.85 28.84, 46.72 13.54, 55.61 -0.05 M18.09 50.46 C27.2 37.5, 35.39 22.8, 56.31 -0.14 M21.3 50.59 C27.62 39.14, 41.85 26.84, 62.02 0.41 M20.38 46.52 C36.96 29.26, 53.37 13.74, 62.12 -1.33 M24.79 45.77 C40.71 30.79, 61.92 14.21, 71.23 2.64 M27.78 47.06 C41.93 30.66, 56.09 12.85, 69.85 2.13 M29.92 48.52 C47.44 34.56, 56.64 19.45, 77.85 -2.66 M32.84 47.76 C48.79 27.71, 63.53 13.18, 75.67 -2.07 M37.18 48.53 C50.67 31.42, 69.67 14.05, 80.48 -0.26 M37.59 48.63 C53.2 28.46, 71.28 11.2, 78.36 2.01 M45.35 48.99 C57.02 33.15, 71.17 13.01, 87.95 0.72 M41.42 46.34 C58.34 33.02, 72.2 12.98, 85.06 0.93 M47.14 45.76 C59.1 28.47, 79.71 16.81, 86.82 -2.09 M48.31 48.72 C62.32 31.93, 75.18 15.84, 88.62 0.33 M55.29 46.42 C65.12 30.6, 83.95 10.64, 95.62 2.86 M54.73 47.19 C68.09 29.89, 85.33 11.48, 97.38 -0.6 M58.22 49.51 C70.61 40.46, 79.27 23.03, 100.39 0.12 M56.9 47.19 C74.31 29.74, 89.84 10.95, 100.52 -0.75 M61.47 48.28 C76.18 28.36, 92.16 16.96, 108.85 2.39 M61.92 49.36 C77.5 34.02, 91.35 18.03, 105.85 1.43 M70.65 46.16 C86.8 34.37, 97.39 15.26, 110.01 1.65 M70.45 48.24 C77.41 37.8, 87.28 24.27, 113.12 0.28 M70.29 52.1 C88.43 36.96, 99.99 17.09, 119.64 1.01 M73.23 48.97 C88.37 33.23, 102.35 15.18, 115.21 2.2 M77.36 48.41 C97.59 34.99, 110.85 13.21, 119.19 2.09 M80.25 46.43 C90.45 37.01, 99 23.73, 122.65 -1.73 M84.86 45.96 C99.27 37.89, 106.46 27.25, 126.68 -3.55 M86.09 49.75 C99.11 32.31, 109.54 21.2, 126.32 -1.01 M91.95 51.24 C109.73 33.19, 126.11 12.25, 134.15 1.36 M91.71 48.66 C101.55 38.26, 108.52 27.51, 132.49 -0.58 M95.62 49.54 C106.96 29.58, 125.1 18.39, 135.34 -0.97 M93.76 50.02 C109.36 33.05, 126.76 16.45, 138.22 1.66 M104.73 51.99 C114.84 37.3, 118.31 26.86, 143.77 3.67 M102.41 48.18 C108.61 36.3, 117.27 28.23, 143.15 -0.75 M107.71 46.79 C118.99 33.46, 132.41 25.15, 148.37 0.64 M106.65 49.45 C119.68 36.74, 129.77 22.45, 148.79 -0.34 M110.66 46.26 C119.85 41.13, 131.14 24.92, 155.62 -2.45 M112.09 46.55 C123.34 34.23, 132.02 23.84, 154.34 0.66 M112.97 46 C128.7 36.28, 138.08 20.97, 161.17 3.45 M118.31 47.04 C126.51 40.17, 136.83 26.65, 160.03 0.82 M121.43 48 C136.39 31.91, 148.81 17.42, 167.97 -0.15 M120.64 47.73 C135.12 37.11, 144.91 22.4, 162.89 -0.12 M125.9 51.77 C134.59 35.02, 142.48 30.45, 165.87 -0.03 M127.47 47.15 C143.88 30.89, 161.45 9.85, 168.12 1.26 M129.4 45.46 C148.31 29.02, 163.77 12.39, 173.78 3.73 M134.1 47.97 C141.21 34.58, 151.5 25.55, 176.81 0.46 M139.72 45 C144.32 38.68, 154.07 25.36, 179.26 1.01 M140 49.46 C155.49 28.25, 171.39 11.38, 181.38 -0.51 M143.6 45.21 C158.6 30.6, 163.86 20.59, 188.68 -1.34 M142.68 49.9 C154.59 33.59, 163.17 22.78, 185.26 -0.67 M146.3 50.92 C159.25 39.16, 168.93 23.63, 190.82 -0.3 M146.94 47.03 C159.68 35.03, 171.51 25.29, 190.3 -1.66 M153.77 44.11 C165.46 31.59, 185.36 17.56, 199 -1.59 M154.73 48.47 C170.32 30.71, 188.92 10.18, 196.53 0.74 M156.23 47.05 C175.73 34.01, 184.66 17.66, 198.72 -0.52 M158.46 48.22 C167.97 35.84, 178.03 27.5, 201.52 -1.01 M166.33 49.37 C179.67 30.07, 196.51 9.25, 205.76 -2.91 M166.78 49 C178.12 36.46, 187.34 21.26, 208.12 -1.71 M170.77 47.24 C175.1 39.05, 185.41 27.04, 213.82 2.09 M169.93 46.77 C185.22 34.38, 197.76 17.33, 211.84 -1.03 M176.4 50.47 C194.25 33.52, 208.28 14.29, 220.66 -2.91 M177.5 49.12 C187.26 33.96, 201.66 20.55, 216.63 0.93 M177.88 49.65 C190.9 33.72, 199.21 22.81, 223.67 3.61 M179.83 47.74 C192.38 32.79, 202.62 21.55, 222.21 -1.87 M187.11 47.99 C197.62 32.09, 211.83 16.09, 230.08 -2.85 M185.06 49.58 C196.64 37.21, 207.47 24.34, 227.86 -1.06 M188.18 48.74 C203.48 40.1, 210.06 29.23, 236.5 -1.6 M191.82 49.55 C207.28 32.37, 220.23 15.75, 231.74 0.69 M192.25 46.55 C207.69 30.77, 223.46 17.01, 238.45 -2.96 M195.75 49.22 C207.4 33.69, 218.21 20.92, 238.08 -1.28 M199.02 47.3 C214.92 32.53, 239 12.31, 245.22 -0.84 M200.71 49.96 C211.6 32.81, 226.66 20.62, 243.7 1.2 M208.35 47.33 C218.03 35.09, 227.73 29.98, 250.84 -1.39 M206.07 47.45 C218.53 35.52, 233.52 19.85, 250.7 1.73 M214.4 44.43 C225.57 33, 234.08 21.98, 255.46 0.88 M210.49 48.07 C229.64 31.34, 243.47 11.99, 255.52 -1.43 M217.25 49.09 C227.88 42.66, 235.73 27.11, 257.05 -1.74 M219.3 47.32 C233.66 32.55, 248.95 12.52, 258.31 -0.95 M225.03 47.53 C240.37 34.76, 252.06 9.55, 265.5 0.89 M224.26 46.31 C239.66 30.91, 254.76 14.15, 264.76 -1.98 M225.51 44.89 C236.82 36.22, 250.5 24.8, 270.23 3.96 M226.9 50.18 C241.33 34, 256.41 19.39, 271.33 -1.67 M236.29 44.32 C246.92 25.67, 269.51 11.58, 278.33 2.8 M234.32 48.49 C241.9 36.6, 252.63 22.45, 275.16 1.16 M236.36 50.11 C255.13 37.01, 266.2 17.14, 282.19 0 M238.49 49.74 C253.1 31.4, 271.17 12.85, 279.31 -1.41 M248.27 46.83 C255.97 35.92, 268.65 19.74, 289.62 -3.45 M244.1 49.74 C262.28 27.3, 277.52 8.48, 286.62 -0.09 M245.72 50.44 C262.31 35.73, 270.47 23.71, 291.46 -1.03 M247.82 50.07 C260.96 31.88, 275.87 16.4, 292.98 0.17 M251.72 47.41 C266.4 36.94, 278.56 26.9, 299.72 2.4 M254.19 46.52 C270.89 30.68, 286.02 13.85, 297.18 -1.47 M262.2 45.87 C274.57 29.17, 292.45 15.76, 299.23 -2.22 M258.83 47.54 C273.73 36.22, 282.28 20.88, 302.2 -1.23 M264.11 46.71 C277.73 36.16, 287.12 24.36, 309.69 2.91 M264.35 46.66 C275.51 35.82, 287.07 23.98, 309.05 -0.34 M271.09 46.72 C282.66 33.23, 295.28 18.98, 313.39 -2.35 M271.58 48.92 C285.77 29.48, 303.41 13.55, 314.02 -0.56 M277.56 49.71 C287.07 36.91, 289.67 30.66, 317.26 2.96 M275.47 47.32 C294.32 29.32, 310.38 9.11, 318.58 -1.76 M278.38 45.62 C294.56 38.33, 304.54 25.46, 320.53 0.1 M280.32 49.28 C294.5 37.64, 302.11 22.96, 322.62 -1.45 M286.91 45.68 C298.73 35.2, 303.74 24.08, 328.84 1.73 M287.64 49.02 C300.53 31.87, 312.58 15.6, 330.29 -0.42 M290.73 45.51 C303.51 27.93, 323.29 12.41, 329.9 3 M291.44 50.05 C303.94 39.67, 312.7 25.77, 335.34 1.82 M293.02 44.98 C310.26 36.14, 318.18 23.14, 339.55 -3.28 M297.4 50.35 C308.14 38.51, 318.42 27.96, 338.86 1.34 M303.52 47.63 C311.92 30.66, 327.02 18.35, 345.45 -3.52 M301.47 49.01 C313.85 35.47, 324.39 26.32, 342.68 -1.67 M309.4 48.01 C318.89 33.1, 326.92 21.87, 352.52 -3.5 M306.45 47 C318.9 34.18, 329.2 24.68, 350.46 0.25 M312.77 47.55 C331.14 28.27, 341.94 12.34, 353.84 -0.98 M315.14 50.27 C325.11 31.58, 339.23 15.65, 356.3 -1.5 M314.28 45.73 C328.96 34.02, 334.5 23.94, 360.25 -0.79 M319.66 50.26 C332.41 36.6, 341.86 20.68, 358.06 0.65 M327.24 47.15 C337.19 35.8, 351.65 15.87, 361.82 4.96 M323.28 46.29 C338.56 33.66, 352.21 15.93, 360.46 7.62 M329.24 44.69 C334.26 37.86, 339.09 36.79, 355.36 15.08 M329.72 50.03 C334.23 41.23, 343.18 32.58, 358.29 15.04 M332.33 50.61 C346.55 40.39, 352.02 25.21, 359.38 19.12 M332.93 47.88 C341.3 38.4, 351.97 28.26, 357.09 18.53 M342.55 47.71 C346.82 42.01, 351.79 30.23, 360.91 24.3 M338.47 49.51 C343.84 42.13, 348.03 39.81, 359.63 27.86 M342.15 44.43 C346.54 41.48, 352.88 37.63, 358.47 34.87 M345.26 46.19 C351.22 43.41, 355.52 36.13, 358.56 31.65 M352.21 49.54 C351.57 48.06, 356.38 44.45, 359.37 36.55 M350.65 47.66 C351.75 45.51, 353.22 44.04, 358.03 36.94 M355.62 48.46 C355.69 47.83, 356.2 45.88, 358.16 43.45 M356.14 47.78 C356.29 47.21, 358.15 45.98, 359.33 44.15" stroke="#228be6" stroke-width="0.5" fill="none"></path><path d="M-0.38 -2.05 C134.28 -3.8, 268.77 -3.48, 355.66 -0.85 M-0.83 -1.18 C86.54 -4.32, 173.71 -2.98, 356.64 -0.39 M359.07 3.09 C354.14 16.26, 354.22 25.91, 359.72 50.62 M358.49 1.48 C355.96 11.31, 357.44 20.77, 358.27 46.18 M358.07 47.7 C221.13 44.71, 83.73 44.39, -1.88 46.6 M356.58 48.99 C238.74 45.05, 122.76 44.67, -0.19 46.89 M-3.63 46.97 C3.54 30.8, 3.02 19.38, 3.17 -3.38 M0.97 48.97 C-1.2 38.1, 0.51 25.56, -0.85 -0.76" stroke="#000000" stroke-width="1" fill="none"></path></g><g transform="translate(54.70532796950738 18.120895645361088) rotate(0 144 18)"><text x="144" y="25" font-family="Virgil, Segoe UI Emoji" font-size="28px" fill="#000000" text-anchor="middle" style="white-space: pre;" direction="ltr">Chromatic Aberration</text></g><g stroke-linecap="round" transform="translate(10 61.91949798628593) rotate(0 356.99237327175774 216.7932672253164)"><path d="M0.49 -0.65 C258.7 4.13, 514.35 4.04, 713.05 0.08 M714.49 -1.88 C713.12 160.29, 710.52 319.43, 713.58 432.51 M713.04 434.72 C485.39 437.62, 259.71 439.05, -1.18 434.27 M-1.48 434.06 C-3.27 327.43, -2.01 221.29, 1.69 -1.56" stroke="#000000" stroke-width="1.5" fill="none" stroke-dasharray="8 9"></path></g><g transform="translate(109.91644225833306 104.82558478109968) rotate(0 254 162.5)"><text x="0" y="18" font-family="Virgil, Segoe UI Emoji" font-size="20px" fill="#000000" text-anchor="start" style="white-space: pre;" direction="ltr">Chromatic aberration is an optical phenomenon </text><text x="0" y="43" font-family="Virgil, Segoe UI Emoji" font-size="20px" fill="#000000" text-anchor="start" style="white-space: pre;" direction="ltr">that occurs when a lens is unable to focus all </text><text x="0" y="68" font-family="Virgil, Segoe UI Emoji" font-size="20px" fill="#000000" text-anchor="start" style="white-space: pre;" direction="ltr">colors of the spectrum onto a single point. This </text><text x="0" y="93" font-family="Virgil, Segoe UI Emoji" font-size="20px" fill="#000000" text-anchor="start" style="white-space: pre;" direction="ltr">results in a distorted image, with the edges of </text><text x="0" y="118" font-family="Virgil, Segoe UI Emoji" font-size="20px" fill="#000000" text-anchor="start" style="white-space: pre;" direction="ltr">objects appearing to be fringed with color. </text><text x="0" y="143" font-family="Virgil, Segoe UI Emoji" font-size="20px" fill="#000000" text-anchor="start" style="white-space: pre;" direction="ltr"></text><text x="0" y="168" font-family="Virgil, Segoe UI Emoji" font-size="20px" fill="#000000" text-anchor="start" style="white-space: pre;" direction="ltr">It is particularly noticeable in photographs taken </text><text x="0" y="193" font-family="Virgil, Segoe UI Emoji" font-size="20px" fill="#000000" text-anchor="start" style="white-space: pre;" direction="ltr">with low-quality lenses or when using a lens at its </text><text x="0" y="218" font-family="Virgil, Segoe UI Emoji" font-size="20px" fill="#000000" text-anchor="start" style="white-space: pre;" direction="ltr">widest aperture setting</text><text x="0" y="243" font-family="Virgil, Segoe UI Emoji" font-size="20px" fill="#000000" text-anchor="start" style="white-space: pre;" direction="ltr"></text><text x="0" y="268" font-family="Virgil, Segoe UI Emoji" font-size="20px" fill="#000000" text-anchor="start" style="white-space: pre;" direction="ltr">It can be corrected using a lens with a more</text><text x="0" y="293" font-family="Virgil, Segoe UI Emoji" font-size="20px" fill="#000000" text-anchor="start" style="white-space: pre;" direction="ltr">complex curvature, or by using multiple lenses in </text><text x="0" y="318" font-family="Virgil, Segoe UI Emoji" font-size="20px" fill="#000000" text-anchor="start" style="white-space: pre;" direction="ltr">a system known as a chromatic corrector</text></g><g stroke-linecap="round"><g transform="translate(361.8292102530363 155.77678616711637) rotate(0 111.76803291477313 -0.49954535332835803)"><path d="M1.04 -0.07 C37.85 -0.28, 184.51 -1.19, 221.32 -1.24 M0.12 -1.15 C37.24 -1.17, 186.64 0.42, 223.42 0.22" stroke="#1864ab" stroke-width="1" fill="none"></path></g></g><mask></mask><g stroke-linecap="round"><g transform="translate(98.16354716317323 180.0540175394235) rotate(0 223.74081214054274 0.9129309668896894)"><path d="M0.81 -0.6 C75.28 -0.47, 373.07 0.61, 447.7 1.2 M-0.22 1.7 C74.03 1.94, 372.07 2.5, 446.84 2.42" stroke="#1864ab" stroke-width="1" fill="none"></path></g></g><mask></mask><g stroke-linecap="round" transform="translate(875.4537559698188 10) rotate(0 178.5 24)"><path d="M0 0 C0 0, 0 0, 0 0 M0 0 C0 0, 0 0, 0 0 M0.9 6.86 C2.03 2.57, 4.36 0.73, 3.69 -0.09 M0.52 5.92 C1.98 4.93, 4.3 2.46, 4.59 0.66 M0.22 11.66 C5.02 6.82, 7.18 7.51, 10.36 -2.27 M-0.37 13.6 C1.87 8.76, 5.79 5.9, 11.36 1.27 M3.85 17.89 C6.21 17.63, 3.87 11.62, 12.86 0.85 M0.6 16.62 C5.73 13.62, 9.95 6.43, 16.64 0.38 M3.08 21.02 C9.04 15.66, 9.54 12.87, 18.33 3.2 M-0.41 22.44 C6.4 17.11, 13.59 10.51, 23.08 1.3 M-3.31 28.86 C6 19.63, 18.64 7.46, 28.61 0.68 M-1.85 31.58 C4.6 23.13, 10.7 17.43, 26.73 -1.08 M2.09 34.57 C5.94 32.21, 17.55 18.2, 28.78 0.36 M0.09 36.12 C6.7 28.71, 15.54 19.1, 33.35 0.93 M-1.76 39.95 C11.76 26.61, 26.6 13.36, 34.72 3.12 M2.01 42.76 C10.34 30.36, 21.5 18.4, 35.89 0.65 M1.19 50.1 C10.94 36.05, 17.41 29.33, 43.21 2.7 M2.48 48.82 C13.44 36.22, 23.66 20.29, 44.31 -0.63 M7.55 46.95 C19.16 32.47, 38.53 12.72, 47.58 0.89 M5.25 47.09 C14.35 39.71, 25.59 29.04, 46.9 -1.13 M9.56 46.28 C25.97 37.85, 39.74 16.72, 51.83 -1.41 M11.95 48.14 C20.14 38.85, 29.79 25.91, 52.07 -0.19 M15.12 49.99 C32.78 31.27, 43.45 11.77, 54.26 3.02 M17.86 47.92 C26.58 32.68, 39.12 20.86, 57.7 -1.8 M20.67 47.22 C41.62 34.55, 57.78 15.15, 61.57 2.74 M22.46 46.17 C36.44 29.94, 55.37 9.14, 64.91 -0.19 M22.85 49.53 C40.16 39.38, 47.81 28.59, 72.52 -1.14 M28.74 48.96 C42.84 29.07, 57.5 12.31, 67.39 0.63 M28.55 45.99 C43.24 40.6, 47.06 30.92, 76.04 -3.87 M30.99 49.01 C41.56 37.53, 49.14 25.66, 73.23 1.28 M34.61 46.33 C42.86 38.98, 50.89 26.89, 82.83 2.07 M38.17 48.24 C48.96 36.31, 60.14 20.29, 78.21 -0.52 M45.9 52.02 C58.41 31.14, 65.08 18.84, 83.53 2.08 M41.66 46.1 C51.67 37.42, 60.64 24.39, 83.63 0.45 M46.95 51.46 C61.19 41.02, 70.57 24.86, 88.31 -1.39 M46.62 50.12 C56.69 36.47, 68.85 25.15, 89.58 1.4 M52.09 47.03 C58.92 39.5, 74.3 28.17, 93.03 2.22 M51.75 48.24 C65.44 32.53, 78.29 16.95, 96.82 -2.09 M61.09 50.28 C75.93 28.87, 89.63 16.31, 102.8 -1.23 M56.68 47.32 C73.93 32.61, 89.16 13.23, 100.05 0.4 M60.57 45.79 C73.94 31.59, 86.05 22.03, 106.2 -3.51 M65.05 50.29 C71.57 37.82, 82.13 26.21, 105.72 0.58 M70.96 46.49 C82.76 35.73, 89.57 22.56, 114.82 1.14 M71.14 46.88 C85.03 28, 101.95 10.61, 109.35 -0.15 M77.4 49.14 C85.41 34.8, 105.63 17.08, 112.76 -0.12 M72.46 50.25 C86.86 35.13, 98.59 24.21, 116.7 0.5 M83.17 50.09 C88.56 35.24, 100.31 21.29, 123.55 -3.37 M78.91 48.21 C91.05 36.59, 100.73 25.37, 120.34 -1.58 M85.37 52.5 C90.56 35.14, 104.46 31.54, 129.05 3.47 M86.08 47.67 C96.99 36.64, 108.37 23.09, 126.28 1.77 M89.01 49.39 C99.11 34.48, 110.51 25.3, 134.9 -3.54 M89.07 49.04 C103.32 34.6, 118.21 15.02, 133.07 0.16 M98.64 46.84 C106.03 32.06, 116.54 16.82, 134.16 -1.14 M95.81 46.72 C110.01 31.58, 124.46 15.92, 139.17 -0.89 M100.47 47.02 C110.05 37.32, 118.72 25.05, 141.44 -3.84 M100.85 47.47 C115.77 33.86, 127.61 16.34, 142.72 0.45 M110.02 47.43 C117.6 33.67, 125.76 21.93, 148.51 3.27 M106.71 46.91 C122.23 32.83, 133.27 16.37, 148.88 0.82 M114.22 47.92 C121.26 41.1, 128.73 25.18, 150.43 3.58 M113.65 47.92 C128.76 28.82, 145.52 11.97, 153.63 0.02 M119.03 49.88 C132.26 32.4, 140.73 16.79, 157.2 0.18 M117.01 49.1 C126.15 38.36, 139.39 24.1, 159.09 -0.45 M123.61 47.33 C140.68 28.63, 156.47 12.68, 163.83 2.87 M121.01 47.17 C134.01 31.56, 146.61 18.41, 165.31 -1.06 M127.88 50.09 C139.06 31.3, 157.86 18.11, 170.03 -0.6 M128.08 49.47 C139.59 32.58, 154.95 17.33, 169.62 -1.71 M130.69 50.82 C140.57 33.76, 157.57 20.93, 174.28 -1.49 M132.64 48.33 C141.28 37.79, 152.09 24.7, 174.4 -1.38 M137.44 48.27 C149.01 34.07, 165.81 16.8, 177.49 1.08 M138.45 49.56 C146.67 37.71, 154.85 31.65, 178.45 0.38 M142.2 46.28 C150.82 32.52, 158.94 23.73, 185.1 3.26 M144.39 46.86 C161.04 30.16, 175.81 10.14, 184.74 -0.18 M151.31 44.97 C158.14 33.63, 168.85 25.84, 186.74 -0.37 M149.81 50.26 C162.32 32.43, 176.18 14.18, 191.74 -0.51 M157.55 47.87 C168.25 33.08, 178.24 20.71, 198.31 2.24 M156.29 48.56 C167.12 33.58, 181.13 19.11, 197.27 0.64 M155.74 45.03 C172.32 36.57, 175.36 29.5, 201.64 3.82 M161 49.79 C170.84 34.18, 181.03 21.75, 201.77 1.65 M164.86 44.11 C173.73 40.02, 181.23 28.75, 210.61 -3.15 M166.5 47.59 C181.72 27.96, 197.25 11.68, 208.14 -1.48 M171.68 45.6 C182.47 32.42, 201.31 11.75, 210.75 0.71 M170.04 49.72 C181.26 38.55, 187.65 28.41, 213.01 -0.77 M176.91 49.81 C190.17 30.73, 208.7 10.31, 217.39 0.8 M177.36 48.44 C184.63 37.79, 197.13 23.32, 218.61 0.25 M178.78 48.15 C188.1 37.33, 200.44 25.81, 223.28 -0.33 M180.06 48.97 C193.85 30.56, 210.74 13.9, 224.05 0.94 M186.55 46.86 C194.73 34.24, 210.72 21.11, 224.72 -3.87 M184.69 48.69 C196.86 39.18, 204.19 27.3, 229.13 -0.03 M191.37 46.47 C207.4 34.08, 217.23 13.67, 233.17 -3.6 M189.38 49.79 C202.54 38, 211.31 27.48, 233.67 1.82 M197.24 49.17 C205.21 36.29, 219.54 18.09, 236.72 1.94 M194.44 50.02 C207.33 36.43, 216.13 25.24, 236.64 1.9 M198.45 46.65 C216.84 30.37, 231.2 18.52, 247.02 0.89 M201.48 47.79 C216.99 29.83, 229.67 13.84, 242.79 1.28 M207.2 47.25 C215.27 39.77, 231.11 24.05, 246.16 3.38 M208.76 48.7 C219.77 37.91, 229.81 22.85, 247.2 -0.63 M215.73 47.09 C226.71 32.89, 247.02 15.97, 256.13 1.45 M210.98 49.9 C225.76 33.11, 240.91 17.83, 252.49 1.06 M215.97 49.18 C235.06 31.05, 242.62 17.09, 258.5 0.17 M218.61 46.6 C232.02 32.75, 243.78 17.73, 258.06 1.27 M225.6 50.53 C234.28 36.24, 249.87 18.55, 264.48 0.72 M221.66 48.43 C236.34 32.66, 249.83 19.67, 266 -0.75 M227.77 45.32 C238 35.13, 257.94 13.92, 266.59 -0.41 M229.08 49.93 C243.9 28.57, 262.2 10.87, 270.29 -0.87 M237.14 51.98 C242.4 39.06, 253.4 25.88, 276.75 3.63 M232.46 46.99 C246.67 33.79, 261.11 19.48, 274.71 0.27 M239.54 52.36 C253.64 30.11, 266.09 13.08, 277.93 -2.76 M237.45 47.25 C254.26 29.92, 271.62 13.94, 282.09 1.79 M242.11 50.8 C257.65 33.83, 261.38 29.12, 286.28 -2.57 M243.48 46.57 C260.41 28.55, 274.8 10.72, 288.17 0.9 M252.89 45.31 C263.58 32.54, 276.17 24.43, 294.73 -2.98 M251.13 47.45 C262.79 32.64, 279.73 15.67, 290.86 1.45 M258.96 46.64 C269.34 31.74, 282.4 16.55, 295.13 3.69 M253.95 47.48 C267.66 29.49, 282.79 14.75, 296.09 0.26 M262.1 49.47 C273.13 34.77, 281.59 24, 301.87 -0.84 M261.72 49.77 C272.09 30.54, 288.45 16.5, 303.11 -0.36 M264.84 51.47 C280.07 34.87, 292.26 14.64, 310.03 2.28 M264.3 47.39 C274.75 35.93, 287.19 20.64, 306.32 -2.2 M274.16 48.48 C287.38 30.57, 295.63 18.13, 310.95 -3.82 M270.94 49.81 C287.24 31.04, 302.12 13.9, 312.54 1.26 M279.56 45.58 C287.67 39.64, 292.56 28.96, 314.4 -0.61 M278.08 47.31 C282.79 36.99, 294.78 28.97, 318.88 -0.68 M280.74 52.27 C295.01 32.86, 307.34 16.32, 324.2 0.94 M280.68 49.48 C296.26 29.84, 311.31 11.37, 321.99 0.52 M289.65 45.55 C296.47 33.38, 310.47 18.35, 328.35 -0.48 M288.01 49.59 C300.62 35.86, 309.63 21.04, 327.94 -1.01 M294.2 45.09 C298.95 35.36, 308.46 28.06, 330.61 2.58 M290.99 47.07 C307.69 31.61, 319.08 16.8, 333.47 -1.01 M299.66 45.05 C305.85 33.62, 317.35 27.05, 340.67 1.48 M297.32 48.67 C311.3 31.09, 327.72 16.62, 339.83 1.28 M303.59 45.51 C320.18 24.86, 333.79 12.7, 341.79 2.59 M302.08 47.18 C315.36 35.63, 325.45 20.8, 346.12 -0.41 M306.77 47.8 C315.51 34.69, 327.76 21.48, 352.2 3.16 M308.34 50.1 C322.41 30.69, 338.25 12.59, 350.39 -0.21 M310.64 46.4 C320.19 36.64, 337.11 21.53, 356.08 2.73 M312.3 46.79 C327.56 30.79, 340.85 14.96, 354.27 0.58 M316.92 52.07 C335.82 31.56, 349.06 12.35, 357.1 4 M316.61 48.99 C329.53 34.71, 341.22 22.46, 360.24 1.7 M325.76 50.95 C337.73 31.13, 349.81 23.64, 355.93 8.66 M324.17 49.18 C334.75 32.25, 350.49 19.29, 358.81 9.1 M327.36 51.72 C336.39 35.19, 354.97 20.87, 361.7 11.55 M327.47 49.08 C336.51 39.64, 344.64 31.78, 359.67 12.34 M332.08 44.67 C338.14 42.15, 344.51 36.24, 359.01 16.51 M334.37 50.02 C341.83 39.57, 349.6 28.11, 360.35 21.83 M338.06 48.89 C345.77 46.28, 345.52 39.42, 358.74 23.31 M337.42 49.45 C343.24 43.48, 350.06 38.3, 360.8 27.01 M345.38 47.35 C346.2 41, 354.34 41.44, 360.97 30.97 M343.71 47.3 C347.9 43.83, 351.15 40.23, 359.92 33.03 M348.36 49.6 C351.75 42.06, 357.1 39.12, 360.07 37.76 M348.69 49.91 C351.47 45.5, 355.47 42.49, 360.29 39.34 M355.28 47.39 C356.36 47.43, 358.11 45.9, 359.76 45.23 M355.54 47.94 C356.48 46.74, 358.14 45.4, 359.15 44.05" stroke="#228be6" stroke-width="0.5" fill="none"></path><path d="M1.13 -0.98 C90.32 0.56, 185.76 3.72, 357.51 2.39 M-1.07 0.61 C131.08 -1.8, 264.27 -3.22, 357.93 0.32 M355.56 -3.98 C357.25 19.09, 357.95 32.09, 353.42 50.1 M355.37 -0.11 C356.29 12.47, 357.58 23.32, 355.6 46.8 M358.8 50.34 C266.39 49.97, 181.09 50.54, -1.69 46.55 M356.04 48.61 C271.83 51.89, 188.31 50.64, -1.09 48.13 M-3 50.31 C-4.42 34.24, -0.84 17.86, 1.94 -0.68 M0.28 46.71 C-1.29 37.39, 0.32 29.19, -0.03 0.07" stroke="#000000" stroke-width="1" fill="none"></path></g><g transform="translate(989.4537559698188 16.5) rotate(0 64.5 18)"><text x="64.5" y="25" font-family="Virgil, Segoe UI Emoji" font-size="28px" fill="#000000" text-anchor="middle" style="white-space: pre;" direction="ltr">Vignetting</text></g><g stroke-linecap="round" transform="translate(865.2484280003114 60.298602340924845) rotate(0 298.7230667212277 149.8258665979247)"><path d="M-0.93 -1.04 C151.53 2.78, 300.7 3.34, 598.58 0.14 M594.66 0.39 C593.04 99.96, 595.9 206.42, 598.15 301.4 M597.32 301.07 C436.31 295.29, 273.45 295.74, -1.09 298.06 M0.37 301.61 C5.83 190.36, 1.52 76.21, -1.49 1.57" stroke="#000000" stroke-width="1.5" fill="none" stroke-dasharray="8 9"></path></g><g transform="translate(908.1000260453011 114.74859931514584) rotate(0 253 100)"><text x="0" y="18" font-family="Virgil, Segoe UI Emoji" font-size="20px" fill="#000000" text-anchor="start" style="white-space: pre;" direction="ltr">Vignetting refers to the phenomenon in which the </text><text x="0" y="43" font-family="Virgil, Segoe UI Emoji" font-size="20px" fill="#000000" text-anchor="start" style="white-space: pre;" direction="ltr">corners of an image appear darker than the </text><text x="0" y="68" font-family="Virgil, Segoe UI Emoji" font-size="20px" fill="#000000" text-anchor="start" style="white-space: pre;" direction="ltr">center. </text><text x="0" y="93" font-family="Virgil, Segoe UI Emoji" font-size="20px" fill="#000000" text-anchor="start" style="white-space: pre;" direction="ltr"></text><text x="0" y="118" font-family="Virgil, Segoe UI Emoji" font-size="20px" fill="#000000" text-anchor="start" style="white-space: pre;" direction="ltr">This is usually caused by the physical constraints </text><text x="0" y="143" font-family="Virgil, Segoe UI Emoji" font-size="20px" fill="#000000" text-anchor="start" style="white-space: pre;" direction="ltr">of the lens or camera, such as the shape of the </text><text x="0" y="168" font-family="Virgil, Segoe UI Emoji" font-size="20px" fill="#000000" text-anchor="start" style="white-space: pre;" direction="ltr">aperture or the presence of obstructions in the </text><text x="0" y="193" font-family="Virgil, Segoe UI Emoji" font-size="20px" fill="#000000" text-anchor="start" style="white-space: pre;" direction="ltr">optical path</text></g><g stroke-linecap="round"><g transform="translate(907.5704946178926 163.52298534913098) rotate(0 237.83295358927444 0.6717375912003263)"><path d="M0.57 -0.52 C79.56 -0.47, 394.91 -0.61, 473.92 -0.37 M-0.59 1.81 C78.78 2.08, 397.18 1.32, 476.26 0.83" stroke="#1864ab" stroke-width="1" fill="none"></path></g></g><mask></mask><g stroke-linecap="round"><g transform="translate(900.5630354592363 192.04712429323263) rotate(0 49.79226166131775 1.358497456245459)"><path d="M0.42 0.97 C16.99 1.45, 81.7 2.42, 98.27 2.26 M-0.82 0.44 C16.21 0.67, 83.71 0.68, 100.41 0.74" stroke="#1864ab" stroke-width="1" fill="none"></path></g></g><mask></mask></svg>