<svg version="1.1" xmlns="http://www.w3.org/2000/svg" viewBox="0 0 1662.4100076778614 845.2877689172838" width="4987.230023033584" height="2535.8633067518513">
  <!-- svg-source:excalidraw -->
  
  <defs>
    <style class="style-fonts">
      @font-face {
        font-family: "Virgil";
        src: url("https://excalidraw.com/Virgil.woff2");
      }
      @font-face {
        font-family: "Cascadia";
        src: url("https://excalidraw.com/Cascadia.woff2");
      }
    </style>
  </defs>
  <g stroke-linecap="round" transform="translate(683.4979304632125 47.3324380486938) rotate(0 125.5 59)"><path d="M0 0 C0 0, 0 0, 0 0 M0 0 C0 0, 0 0, 0 0 M0.31 6.28 C2.55 5.43, 3.31 3.48, 5.45 1.3 M-0.63 5.91 C1.91 3.85, 3.3 1.78, 4.92 -0.01 M0.36 10.22 C4 11.63, 1.8 5.72, 7.72 -1.44 M-0.42 12.06 C4.61 8.11, 7.49 3.35, 9.04 1.36 M0.13 16.74 C2.79 11.63, 8.46 3.67, 19.15 2.61 M1.83 20.2 C6.16 13.22, 9.12 6.62, 14.16 -1.22 M3.2 26.47 C5.62 13.71, 13.69 4.34, 19.98 -2.41 M-0.09 23.77 C5.32 16.24, 11.5 9.27, 19.4 -1.08 M1.38 27.11 C1.09 21.63, 7.97 19.56, 29.54 1.66 M1.34 31.56 C10.63 19.69, 17.91 10.22, 26.1 -0.06 M-1.29 33.38 C7.17 30.17, 15.69 18.02, 34.75 -0.72 M-0.45 35.16 C4.91 31.03, 13.53 22.14, 30.56 -1.34 M0.51 39.98 C15.34 24.67, 28.31 9.05, 35.01 -1.98 M1.4 42.64 C6.54 35.8, 16.92 27, 37.9 -1.66 M-1.8 50.93 C13.39 31.72, 32.85 14.22, 46.33 -2.39 M0.79 50.27 C16.67 28.86, 33.11 11.8, 40.94 -1.94 M-3.18 57.44 C15.48 39.21, 35.61 16.73, 50.93 -0.84 M0.73 52.67 C14.52 39.62, 27.48 22.27, 46.46 0.25 M-3.37 63.08 C12.73 46.02, 24.39 33.01, 49.42 -1.79 M-0.23 62.28 C17.02 40.21, 37.21 18.34, 54.04 0.06 M-3.4 69.62 C17.14 43.55, 42.83 19.56, 58.37 1.9 M-1.96 67.49 C17.4 48.35, 35.28 25.47, 58.36 0.81 M3.31 74.4 C12.58 54.43, 27.69 44.05, 66.45 -1.95 M-1.06 72.42 C25.83 41.87, 51.02 13.09, 64.01 -0.55 M3.84 79.73 C28.87 50.43, 46.84 22.41, 72.07 -3.66 M0.66 78.51 C21.81 55.86, 40.68 34.62, 67.82 1.99 M-2.76 82.75 C23 56.56, 56.29 22.39, 71.5 -2.62 M0.39 84.79 C23.92 63.51, 42.44 39.03, 73.65 0.89 M-3.8 88.54 C23.33 56.8, 50.82 28.15, 80.47 1.89 M-1.39 93.25 C17.54 71.73, 35.03 51.55, 78.73 -1.42 M2.46 100.04 C25.55 70.32, 45.54 49.67, 82.35 -4.22 M-0.76 97.08 C23.03 74.24, 43.85 47.73, 84.43 0.84 M3.74 103.38 C22.06 83.1, 42.12 57.43, 89.7 -0.69 M1.24 102.32 C20.71 78.17, 43.59 53.79, 90.62 0.26 M-1.35 113.27 C32.06 69.38, 63.62 34.38, 92.46 -3.84 M0.21 111.57 C20.45 82.95, 44.99 58.26, 94.46 1.64 M0.15 118.88 C24.92 84.81, 54 49.32, 103.56 -1.37 M-1.47 114.17 C25.14 86.1, 47.8 59.6, 100.7 1.51 M3.17 122.7 C33.68 85.27, 66.19 44.02, 107.01 0.71 M1.67 119.37 C28.26 83.9, 60.77 50.96, 104.52 1.47 M9.42 121.45 C35.32 90.11, 53.64 60.38, 111.56 3.22 M5.7 121.55 C46.9 71.25, 87.86 23.73, 109.82 -0.31 M16.35 115.92 C36.38 96.26, 59.3 69.43, 114.16 -0.31 M10.93 120.4 C44.48 84.43, 73.31 52.65, 115.38 1.08 M14 119.38 C43.5 92.48, 67.33 66.44, 124.87 -2.26 M17.42 121.61 C46.13 83.81, 74.62 49.9, 120.48 0.98 M21.09 119.15 C52.86 81.7, 81.16 48.37, 123.77 -3.55 M21.83 120.78 C50.41 89.38, 77.61 55.23, 128.44 -1.17 M30.74 121.78 C52.47 88.02, 84.89 48.88, 132.39 0.19 M29.72 120.88 C69.83 74.05, 110.06 27.57, 130.84 -1.6 M34.52 118.13 C70.79 76.43, 103.02 39.83, 135.39 -0.14 M32.41 119.67 C71.41 77.58, 105.51 39.58, 135.79 1.19 M40.11 120.54 C78.96 74.7, 116.94 32.26, 144.66 1.87 M39.23 119.18 C75.84 79.69, 112.78 32.7, 144.74 1.84 M47.44 119.91 C69.26 90.49, 85.13 71.86, 144.93 1.38 M46.37 121.07 C76.71 84.96, 109.17 47.19, 148.82 1.68 M50.27 122.86 C68.05 97.01, 95.42 67.75, 149.94 3.37 M49.2 120.18 C89.78 77.24, 127.53 30, 153.64 0.02 M52.35 116.84 C76.91 88.45, 102.55 61.5, 155.99 3.79 M55.06 119.83 C80.06 87.93, 105.37 60.17, 159.59 -0.29 M61.05 123.26 C84.8 88.04, 115.84 55.18, 166.16 2.63 M59.58 121.39 C98.9 74.51, 137.97 29.35, 162.68 -1.51 M63.45 122.6 C89.84 94, 109 74.55, 167.84 1.15 M67.49 119.62 C100.19 80.53, 133.62 38.29, 170.82 -1.5 M67.99 123.57 C93.71 91.76, 124.38 57.29, 172.94 -1.12 M68.94 120.17 C108.5 74.07, 150.48 29.4, 176.65 1.66 M72.6 120.18 C107.33 84.62, 137.85 56.92, 179.46 -1.14 M76.32 118.98 C104.68 88.8, 135.45 56.86, 181.86 -0.86 M82.3 120.93 C115.08 84.88, 148.95 45.68, 187.61 -3.33 M80.54 119.74 C107.08 89.43, 135.92 57.64, 185.99 -1.22 M85.36 121.87 C123.23 73.55, 169.76 24.18, 193.49 1.63 M87.88 121.29 C113.24 96.45, 131.72 69.17, 190.75 -1.45 M94.89 119.79 C116.8 86.84, 149.95 54.68, 197.15 1.86 M92.27 119.12 C128.58 80.89, 160.94 42.29, 196.81 -2.05 M100.99 117.28 C121.91 87.75, 142.17 59.52, 204.27 1.47 M96.13 120.76 C120.65 91.77, 141 68.94, 200.16 -0.51 M104.36 119.92 C138.6 85.67, 169.55 39.31, 210.26 1.62 M102.68 119.22 C133.16 83.83, 162.02 52.6, 208.87 0.09 M107.77 118.1 C142.35 74.75, 183.7 41.14, 209.85 -2.29 M108.07 121.21 C128.64 92.99, 153.99 67.54, 211.43 0.57 M112.98 120.4 C145.34 80.08, 184 33.33, 221.3 0.44 M112.99 120.77 C150.43 76.81, 187.41 34.92, 217.57 1 M121.63 119.04 C158.04 73.6, 196.93 32.87, 223.94 0.99 M116.28 119.03 C148.36 84.99, 177.75 51.43, 222.56 -1.76 M122.72 123.63 C167.28 69.75, 207.96 23.51, 230.34 0.11 M125.07 118.34 C158.7 80.91, 194.56 40.07, 228 1.29 M130.23 122.4 C172.26 77.21, 209.74 22.12, 231.94 -2.73 M129.07 121.74 C163.26 79.54, 201.01 33.43, 234.18 0.8 M131.24 123.29 C154.9 97.16, 177.14 75.68, 238.48 -3.49 M135.43 118.36 C167.03 76.49, 200.88 40.35, 236.21 1.19 M139.56 123.06 C166.4 91.26, 194.1 55.23, 242.94 -0.19 M139.03 118.91 C164.28 92.83, 190.42 62.87, 243.61 -1.61 M143.87 116.42 C177.38 80.92, 205.9 43.43, 246.46 -3.47 M145.27 121.09 C170.76 90.28, 192.14 63.49, 249.92 -0.49 M153.32 121.18 C170.61 93.62, 193.59 73.18, 252.42 -1.3 M148.41 121 C175.26 86.43, 204.72 54.82, 253.5 2.51 M153.66 123.34 C183.34 85.22, 215.99 44.8, 256.18 10.23 M154.4 118.63 C192.91 75.75, 228.62 34.01, 251.93 7.69 M160.87 118.25 C185.89 90.36, 202.92 69.33, 256.31 11.65 M159.15 121.28 C183.78 92.86, 205.5 65.14, 251.94 14.78 M169.31 119.7 C191.01 90.05, 213.13 68.57, 253.09 17.63 M167.34 120.96 C201.3 80.35, 234.26 39.49, 252.57 18.72 M173.29 121.07 C200.05 84.48, 234.99 49.81, 249.27 25.78 M170.79 117.88 C197.4 92.91, 220.56 65.92, 252.69 26.82 M179.23 120.44 C203.68 84.87, 229.95 59.56, 249.62 30.55 M175.23 117.85 C201.83 91.5, 224.28 66.2, 255.13 30.92 M179.31 121.74 C206.7 91.24, 231.8 65.04, 254.48 36.36 M182.59 119.75 C206.87 89.18, 236.45 54.34, 251.03 36.88 M187.52 119.83 C210.35 97.83, 225.29 76.78, 251.29 47.44 M185.86 120.95 C212.19 89.52, 237.52 60.19, 251.96 44.72 M189.37 117.69 C213.58 93.52, 236.14 73, 251.47 53.23 M191.4 120.73 C205.78 104.43, 219.39 85.13, 253.54 50.33 M201.96 119.46 C218.7 95.1, 239.2 70.92, 251.31 57.76 M197.71 117.74 C217.07 93.37, 240.83 70.74, 253.03 57.15 M199.6 123.65 C218.45 104.98, 237.54 84.81, 251.46 65.52 M201.78 121.45 C222.55 97.89, 239.38 76.31, 251.48 62.36 M206 116.21 C217.06 106.74, 227.34 97.2, 254.56 66.57 M209.89 117.56 C221.86 108.91, 231.31 97.81, 252.02 68.34 M211.82 119.68 C219.88 107.44, 232.97 104.55, 252.7 78.44 M215.93 119.43 C228.38 102.63, 243.03 87.81, 254.08 76.79 M218.82 122.29 C227.04 108.84, 245.1 97.94, 252.31 79.48 M220.18 117.56 C231.6 104.79, 243.85 91.02, 254.9 80.5 M221.51 119.12 C228.94 109.16, 237.75 98.98, 255.09 90.26 M223.68 119 C233.83 109.69, 239.65 100.1, 253.2 88.99 M226.59 121.96 C235.08 112.98, 242.12 104.9, 249.48 91.41 M230.34 121.53 C237.51 107.89, 250.12 97.17, 253.3 92.7 M237.87 116.67 C239.47 111.74, 245.37 108.31, 252.26 100.8 M236.56 121.36 C239.05 113.8, 243.3 107.31, 253.41 100.45 M237.31 120.53 C241.15 117.53, 245.87 109.04, 252.08 107.27 M238.86 118.87 C243.17 115.21, 247.49 112.94, 253.79 107.5 M246.89 117.79 C246.66 116.01, 249.87 113.64, 253.67 111.94 M245.77 119.01 C248.11 116.31, 251.51 113.96, 252.79 110.45" stroke="#fa5252" stroke-width="0.5" fill="none"></path><path d="M2.08 -2.49 C97.95 -5.72, 196.62 -1.26, 251.76 -3.09 M-1.04 -0.35 C65.74 -1.16, 132.57 -1.24, 250.54 -0.15 M249.75 3.25 C250.22 43.21, 250.14 94.57, 249.31 115.71 M250.86 -0.54 C251.76 29.89, 253.25 63.23, 250.42 116.16 M250.84 120.97 C184.18 114.94, 122.51 116.36, -0.59 116.01 M250.87 119.15 C201.37 121.41, 149.82 122.57, -0.94 117.72 M1.01 119.41 C-3.24 72.03, 3.37 27.01, -3.8 0.66 M1.29 116.58 C-1 94, -2.73 65.4, 0.1 -1.12" stroke="#000000" stroke-width="1" fill="none"></path></g><g transform="translate(688.3530739408561 52.3324380486938) rotate(0 120.5 52.5)"><text x="120.5" y="25" font-family="Virgil, Segoe UI Emoji" font-size="28px" fill="#000000" text-anchor="middle" style="white-space: pre;" direction="ltr">Categories of</text><text x="120.5" y="60" font-family="Virgil, Segoe UI Emoji" font-size="28px" fill="#000000" text-anchor="middle" style="white-space: pre;" direction="ltr">Machine Learning </text><text x="120.5" y="95" font-family="Virgil, Segoe UI Emoji" font-size="28px" fill="#000000" text-anchor="middle" style="white-space: pre;" direction="ltr">Algorithms</text></g><g stroke-linecap="round" transform="translate(478.0140868445651 154.66607642387862) rotate(0 77.22380888624957 30.15855915798238)"><path d="M0 0 C0 0, 0 0, 0 0 M0 0 C0 0, 0 0, 0 0 M1.14 7.16 C1.85 5.22, 3.19 3.86, 6.41 -0.75 M-0.22 6.21 C0.85 4.65, 3.05 2.26, 4.33 1.15 M1.94 14.12 C-0.16 8.21, 2 5.23, 13.09 -0.06 M0.65 12.55 C2.26 9.34, 3.83 7.45, 11.16 -0.41 M-2.55 17.66 C2.56 10.46, 12.79 10.04, 17.45 2.76 M0.93 19.55 C3.16 13.11, 8.2 4.96, 16.33 -1.13 M-1.77 21.43 C3.3 14.85, 7.43 11.37, 21.7 0.75 M-1.12 23.82 C5.23 16.82, 11.71 7.93, 19.27 0.62 M-3.96 28.1 C7.43 21.04, 23.07 9.32, 27.71 -1.22 M1.57 29.68 C6.62 22.02, 13.48 13.72, 25.38 0.82 M-0.88 39.77 C9.8 25.92, 23.21 13.34, 28.21 1.06 M-1.55 38.44 C8.72 28.28, 15.01 17.18, 33.11 -1.21 M1.61 39.86 C11.92 27.68, 19.57 16.15, 33.04 0.28 M-0.94 44.21 C11.37 32.52, 20.56 17.62, 38.5 -1.36 M-3.64 50.53 C13.36 35.89, 30.87 15.44, 45.27 -1.33 M0.65 47.61 C17.02 29.55, 30.03 9.52, 43.89 0.63 M-1.52 58.49 C12.54 43.39, 25.45 28.88, 46.84 -2.79 M0.33 55.91 C18.33 33.36, 36.32 12.52, 46.34 -1.36 M-1.07 60.18 C11.69 46.52, 23.13 29.09, 54.64 0.67 M-0.64 60.51 C16.11 42.05, 29.74 27.48, 54.34 -0.4 M1.9 60.81 C22.84 42.77, 37.44 26.48, 58.21 -1.17 M5.24 62.32 C24.49 38.96, 42.84 19.77, 56.21 0.94 M10.68 57.65 C29.48 41.53, 47.56 18.3, 67.77 3.51 M12.25 59.33 C29.85 40.44, 45.8 21.55, 64.84 -1.99 M19.55 58.98 C25.7 43.11, 45.75 25.15, 67.92 -2.26 M18.04 59.89 C36 39.62, 52.41 19.64, 70.06 1.54 M18.14 63.34 C40.69 43.21, 50.01 23.77, 73.76 -3.1 M22.67 62.25 C31.32 49.17, 42.91 36.3, 75.42 1.03 M23.56 56.55 C35.71 47.62, 51.83 36.93, 76.46 -2.18 M25.41 61.93 C43.01 41.63, 61.58 18.32, 78.52 -1.74 M34.03 56.91 C42.45 48.04, 50.57 30.8, 83.44 -0.09 M33.1 61.22 C43.24 47.76, 53.94 36.67, 83.79 -1.34 M36.99 64.3 C49.29 46.33, 65.49 25.93, 87.96 2.28 M36.92 60.56 C51.76 45.26, 67.39 26.83, 90.86 0.78 M42.76 57.3 C56.11 42.78, 67.95 23.89, 93.29 0.88 M40.7 60.04 C56.95 43.77, 71.01 27.49, 95.3 -0.28 M44.6 62.34 C61.5 40.02, 83.2 21.22, 98.28 1.62 M49.78 58.77 C65.02 42.73, 80.62 26.55, 101 0.6 M52.41 62.78 C63.06 45.45, 76.71 34.33, 105.52 1.49 M51.27 60.36 C74.92 37.99, 91.96 16.3, 104.95 -2.07 M60.81 60.09 C74.13 34.89, 98.33 17.2, 114.95 1.69 M58.89 60.34 C79.92 35.85, 98.35 12.96, 109.55 1.09 M66.77 62.94 C82.63 43.9, 92.83 23.91, 115.33 -2.51 M65.28 59.64 C85.05 39.04, 101.08 18.3, 114.76 -1.45 M69.75 60.3 C88.39 41.64, 107.69 18.93, 121.17 3.62 M70.79 59.96 C90.81 35.06, 109.65 12.7, 121.73 -0.54 M73.31 58.65 C90.89 38.51, 109.42 13.81, 125.61 3.66 M75.83 61.23 C88.93 43.67, 102.36 29.2, 126.35 1.45 M77.23 63.01 C101.12 32.33, 120.39 12.65, 135.87 -0.13 M81.66 61.1 C98.58 39.92, 112.53 17.95, 133.44 0.74 M87.17 58.13 C97.84 46.48, 111.46 27.54, 138.93 -1.64 M86.71 60.3 C106.91 39.24, 124.06 15.63, 139.05 -0.39 M90.76 61.58 C108.47 41.86, 130.39 17.69, 145.62 2.19 M91.37 62.12 C102.96 44.43, 117.11 33.77, 141.25 -0.18 M99.21 56.89 C111.31 41.49, 128 19.74, 148.25 -3.48 M94.34 61.85 C109.46 41.91, 125.41 26.5, 146.49 2.09 M99.51 62.68 C118.18 42.37, 125.4 30.54, 156.72 -2.32 M101.42 62.2 C115.84 41.84, 132.08 24.87, 152.36 -0.55 M103.96 57.76 C124.45 38.35, 139.61 24.23, 154.21 0.64 M105.81 58.75 C126.22 36.51, 145.88 15.36, 155.99 3.06 M109.71 59.05 C124.9 43.35, 135.43 36.91, 159.9 9.03 M112.31 60.13 C128.15 41.34, 139.34 24.97, 155.43 8.5 M119.63 58.89 C126.93 53.06, 134.74 39.21, 158.56 15.81 M116.87 61.7 C125.26 47.28, 139.57 33.47, 155.94 14.81 M119.23 62.48 C134.63 45.57, 140.65 36.02, 160.77 21.41 M120.19 61.27 C133.01 50.87, 144.87 38.94, 156.91 18.86 M128.12 57.72 C137.68 54.76, 142 42.58, 155.85 23.09 M125.91 61.25 C136.63 52.51, 145.01 41.7, 157.47 27.13 M133.66 64.34 C141.53 54.76, 149.1 40.69, 155.29 32.81 M130.87 60.1 C137.8 53.8, 143.37 48.1, 158.61 33.78 M135.03 63.03 C148.92 51.18, 156.19 44.51, 153.74 34.64 M139.98 61.78 C140.84 54.18, 147.34 47.91, 156.83 40.45 M140.93 60.55 C148.06 58.06, 150.66 55.08, 157.81 42.07 M144.49 59.18 C146.55 55.48, 150.1 51.73, 155.68 45.87 M149.36 59.44 C149.82 55.62, 157.26 53.78, 154.93 48.9 M148.81 59.87 C151.68 57, 155.01 52.16, 157.74 50.27 M154.04 61.71 C153.83 59.23, 155.96 59.76, 156.92 56.19 M153.57 60.61 C154.59 59.94, 156.61 58.28, 157.31 56.75" stroke="#15aabf" stroke-width="0.5" fill="none"></path><path d="M1.09 -3.18 C61.21 4.65, 117.2 -1.43, 153.11 0.08 M-1.39 1.6 C54.18 2.17, 110.71 0.48, 156.43 0.72 M152.81 -3.86 C152.36 13.36, 152.38 23.57, 153.09 61.63 M154.43 -1.5 C155.84 22.37, 153.79 42, 153.68 58.85 M153.02 60.76 C124.52 65.32, 86.9 60.69, -3.98 56.43 M155.32 59.85 C93.22 63.46, 32.07 62.15, 1.58 60.38 M-3.16 59.06 C3.15 39.24, -4.11 21.91, -3.39 3.52 M1.08 61.72 C-1.43 35.88, -0.68 13.9, 0.77 -1.77" stroke="#000000" stroke-width="1" fill="none"></path></g><g transform="translate(503.23789573081376 172.324635581861) rotate(0 52 12.5)"><text x="52" y="18" font-family="Virgil, Segoe UI Emoji" font-size="20px" fill="#000000" text-anchor="middle" style="white-space: pre;" direction="ltr">Supervision</text></g><g stroke-linecap="round" transform="translate(752.3488491722019 247.9839325441717) rotate(0 62.84193600037452 25.10435811523257)"><path d="M0 0 C0 0, 0 0, 0 0 M0 0 C0 0, 0 0, 0 0 M0.38 6.95 C1.64 5.51, 4.13 1.7, 5.26 -0.38 M-0.87 6.5 C0.92 4.61, 1.59 4.33, 4.42 0.42 M-2.54 10.85 C-0.36 7.56, 7.56 6.01, 8.96 -1.14 M-0.43 12.34 C1.62 9.73, 6.91 4.33, 10.61 0.07 M-2.12 15.74 C7.68 16.12, 10.04 11.61, 16.49 4.23 M-1.55 19.22 C4.34 9.69, 12.61 2.74, 13.81 1.79 M-0.75 20.16 C6.79 13.33, 16.06 7.8, 21.85 -0.77 M-1.46 24.36 C4.71 16.25, 10.56 11.09, 22.87 0.62 M-2.35 32.08 C9.56 25.65, 13.39 16.26, 24.93 2.96 M0.02 30.37 C8.68 19.65, 17.24 9.84, 26.6 -0.22 M-0.59 37.1 C9.56 27.94, 9.85 21.85, 30.17 -0.5 M0.38 37.24 C5.77 27.23, 15.21 19.44, 31.71 0.08 M1.31 39.51 C6.65 30.77, 13.36 23.04, 35.73 2.79 M1.94 44.03 C12.86 27.05, 24.7 14.42, 37.16 -0.58 M-0.44 51.71 C19.48 29.14, 33.36 13.02, 45.61 1.68 M1.37 48.64 C13.6 29.63, 32.24 14.16, 40.93 -1.87 M3.17 53.78 C22.97 30.98, 35.71 9.66, 51.32 1.15 M1.87 51.68 C10.47 41.01, 19.66 28.69, 46.37 -1.47 M5.62 52.88 C20.42 32.08, 41.62 16.15, 51.95 -0.66 M9.49 50.21 C25.67 33.28, 42.54 13.77, 52.98 -1.75 M13.81 52.67 C30.22 35.35, 46.21 13.71, 59.83 -3.23 M12.71 51.4 C27.2 36.11, 38.94 20.26, 58.76 1.77 M20.71 53.11 C36.34 33.42, 52.82 21.43, 64.65 -2.62 M19.89 50.75 C30.16 38.15, 43.25 22.6, 62.99 1.77 M20.43 50.63 C39.91 32.7, 49.73 18.05, 71.07 1.71 M24.91 52.45 C33.21 41.03, 47.04 27.26, 68.55 -1.36 M31.62 51.98 C37.54 36.83, 50.95 23.53, 70.87 -0.01 M27.37 53.66 C40.19 37.91, 55.16 22.87, 72.73 -2.15 M30.43 51.61 C46.38 43.01, 52.67 27.09, 80.54 -2.69 M32.14 54.12 C51.93 29.66, 69.41 8.99, 77.57 1.47 M39.4 53.09 C52.17 30.76, 69.57 16.12, 81.45 -1.3 M38.97 51.91 C49.92 39.64, 61.33 23.59, 84.64 1.52 M42.91 54.9 C58.03 35.03, 69.76 22.51, 89.43 2.27 M44.68 53.56 C56.64 39.68, 67.83 27.59, 89.34 -0.54 M48.83 51.62 C64.15 29.47, 82.64 13.87, 94.92 0.33 M49.42 53.56 C67.18 34.5, 85.68 12.25, 95.78 -0.37 M52.64 51.05 C76.6 30.28, 88.7 13.29, 100.6 -3.45 M55.51 51.74 C65.12 42.23, 75.94 29.22, 99.02 0.64 M59.04 51.31 C78.56 33.2, 94.35 14.11, 109.5 -0.97 M61.75 52.77 C72.72 39.39, 86.28 20.75, 107.92 0.88 M62.09 49.97 C80.97 37.87, 99.57 18.85, 114.62 -2.54 M66.24 51.5 C81.55 32.17, 98.33 13.96, 111.44 1.88 M74.83 53.2 C77.51 40.47, 88.08 27.45, 118.44 -3 M72.67 52.53 C84.69 36, 99.41 15.81, 116.79 -1.43 M77.42 52.86 C92.43 34.99, 101.63 26.02, 125.75 -0.39 M77.15 51.51 C91.78 33.35, 110.31 11.96, 123.06 -1.1 M78.72 51.65 C91.69 34.14, 106.43 26.51, 123.98 -1.74 M82.52 50.69 C98.51 32.21, 112.47 16.36, 128.11 2.35 M88.47 48.23 C101.38 36.08, 118.47 20.08, 128.01 9.72 M89.16 52.28 C98.51 34.47, 114.76 21.1, 126.12 7.06 M90.88 54.34 C98.73 41.99, 111.3 30.11, 129.57 10.2 M93.31 53.93 C100.32 41.38, 114.02 27.78, 127.73 13.76 M96.77 55.92 C108.5 43.27, 118.57 33.11, 124.33 19.5 M97.86 50.17 C106.85 44.64, 110.97 33.88, 127.72 20.24 M101.19 54.25 C106.5 45.48, 117.13 32.21, 126.02 28.9 M102.7 51.8 C112.84 43.2, 119.44 33.34, 125.89 25.56 M111.54 51.06 C111.49 47.6, 124.91 34.28, 125.97 30.98 M107.5 51.38 C113.93 45.33, 118.24 38.35, 127.24 30.18 M113.21 49.68 C113.97 52.52, 117.23 43.57, 129.98 37.06 M114.03 50.65 C118.57 47.24, 121.09 43.53, 125.58 37.68 M120.55 49.83 C122.96 50.32, 126.28 46.07, 126.85 43.01 M120.16 50.84 C120.84 48.1, 123.55 45.91, 125.68 42.98" stroke="#fd7e14" stroke-width="0.5" fill="none"></path><path d="M3.07 2.29 C29.02 -1.79, 54.85 2.08, 128.09 -2.55 M-1.46 1.5 C34.42 -2.19, 71.94 -1.28, 123.97 -0.62 M123.97 0.44 C123.58 16.85, 123.91 39.59, 128.22 49.93 M127.16 0.45 C125.1 11.86, 124.91 25.94, 124.01 50.11 M129.16 52.4 C75.8 48.05, 23.4 46.6, 3.7 49.89 M125.08 51.18 C77.97 49.28, 34.13 49.69, 0.48 50.71 M3.45 48.66 C-3.01 34.04, -2.59 20.07, 3.02 2.58 M-0.65 48.42 C-0.44 37.6, 0.23 25.46, 1.92 1.38" stroke="#000000" stroke-width="1" fill="none"></path></g><g transform="translate(757.6907851725773 260.58829065940336) rotate(0 57.5 12.5)"><text x="57.5" y="18" font-family="Virgil, Segoe UI Emoji" font-size="20px" fill="#000000" text-anchor="middle" style="white-space: pre;" direction="ltr">Parameters</text></g><g stroke-linecap="round" transform="translate(1083.9250857229126 206.09774748489872) rotate(0 62.84193600037452 25.10435811523257)"><path d="M0 0 C0 0, 0 0, 0 0 M0 0 C0 0, 0 0, 0 0 M0.21 7.33 C2.94 3.15, 3.61 1.42, 4.01 0.45 M-0.33 6.02 C0.63 5.51, 2.17 3.1, 4.53 0.81 M-2.78 10.63 C6.62 7.69, 6.33 2.21, 10.66 1.01 M-1.46 13.43 C4.23 7.62, 7.16 4.09, 9.95 -1 M3.41 20.73 C6.31 16.01, 9.76 12.4, 19.15 2.45 M-1.58 16.9 C6.44 10.42, 9.52 6.9, 16.81 -0.69 M-1.01 21.74 C5.74 19.67, 10.79 12.5, 20.64 -2.83 M-1.59 23.07 C4.71 17.79, 14.33 10.86, 19.57 -2.05 M3.3 31.85 C8.14 21.5, 11.67 18.41, 28.41 3.43 M-0.14 30.13 C5.95 23.19, 13.99 14.31, 24.5 -0.02 M2.6 36.26 C8.09 24.24, 22.03 8.91, 28.45 -2.7 M-1.59 35.64 C12.88 21.68, 23.63 8.99, 30.62 0.63 M-1.73 40.28 C4.63 33.22, 15.9 25.86, 37.12 -1.91 M1.16 40.6 C15.12 24.1, 27.91 8.62, 37.88 -1.5 M3.68 46.67 C17.22 30.43, 32.07 16.75, 45.23 1.4 M-1.71 47.12 C10.52 38.29, 17.56 24.29, 43.96 -1.04 M5.66 51.24 C19.35 28.21, 41.86 11.41, 43.73 0.33 M1.19 52.33 C17.89 31.86, 34.54 12.63, 48.57 -0.32 M4.15 50.29 C22.66 37.93, 32.66 21.99, 55.79 -1.48 M8.77 52.13 C20.8 37.98, 32.01 22.19, 54.28 -2.05 M13.1 53.97 C26.55 34.88, 42.03 16.88, 58.41 -0.65 M13.09 52.89 C28.58 33.21, 48.69 13.84, 58.84 0.21 M21.18 50.12 C31.79 43.95, 38.55 26.47, 62.62 3.01 M18.74 51.53 C28.82 39.13, 36.94 31.43, 63.95 1.43 M26.8 48.41 C35.29 36.57, 50.27 26.92, 67 3.67 M22.55 54.06 C36.18 39.56, 46.8 22.71, 67.62 -1.41 M25.57 50.21 C43.6 30.79, 57.3 14.79, 73.91 2.56 M27.73 53.72 C46.98 33.94, 61.18 11.33, 72.96 -1.92 M35.2 53.97 C41.27 39.55, 54.46 28.55, 83.03 -2.88 M33.46 50.66 C51.11 30.11, 66.99 13.97, 80.5 1.18 M36.42 48.61 C46.68 41.98, 53.94 30.13, 83.54 2.13 M38.51 53.67 C52.56 34.97, 68.01 21.03, 84.99 -0.55 M44.43 51.38 C61.1 33.12, 80.48 12.49, 87.71 -1.17 M45.36 52.33 C59.44 36.33, 71.74 19.12, 91.72 0.2 M46.54 48.99 C57.35 42.71, 68.71 30.97, 99.06 -3.96 M48.54 54.47 C61.54 38.29, 74.01 24.4, 97.35 -2.1 M58.29 50.71 C69.47 35.83, 87.53 12.65, 97.96 3.27 M55.44 53.59 C65.49 41.55, 73.33 30.3, 102.18 -0.33 M61.08 53.53 C76.02 36.11, 96.07 15.15, 105.74 -4.12 M58.6 54.3 C71.09 35.92, 86.85 24.16, 107.02 0.66 M66.29 55.29 C83.94 39.01, 96.86 19.55, 114.35 0.2 M64.55 51.76 C77.63 37.94, 93 23.23, 109.44 1.5 M68.89 51.77 C85.12 30.93, 104.28 11.97, 117.84 3.35 M70.12 53.16 C79.7 37.85, 92.8 25.14, 115.98 0.53 M79.61 49.82 C89.22 39.97, 107.31 20.41, 125.19 2.69 M75.21 53.05 C88.87 37.21, 102.87 22.08, 121.7 -0.58 M78.5 48.52 C92.16 43.16, 102.27 24.26, 128.64 3.92 M83.18 50.91 C95.17 37.57, 112.12 20.99, 127.17 -0.32 M87.12 52.27 C104.78 36.06, 117.28 22.5, 128.52 9.94 M85.58 50.48 C100.66 37.37, 112.58 21.56, 125.93 7.8 M90.12 51.93 C101.99 40.83, 111.84 30.57, 126.63 16.45 M90.52 53.26 C102.95 40.14, 112.37 30.44, 126.7 13.17 M99.39 53.94 C110.13 42.67, 114.83 30.08, 125.31 20.13 M99.47 53.92 C107.3 39.43, 121.47 27.98, 126.97 20.55 M99.67 53.46 C108.08 42.77, 112.37 44.65, 129.63 22.5 M103.55 53.75 C109.78 44.51, 119.33 33.29, 128.01 24.27 M104.67 55.45 C117.53 42.49, 120.72 36.75, 126.85 31.76 M108.37 52.09 C114.35 43.53, 123.81 34.47, 124.93 30.4 M110.72 55.86 C113.93 47.17, 122.88 45.42, 127.34 36.22 M114.33 51.78 C115.33 49.96, 117.81 46.75, 128.36 36.42 M120.12 53.45 C122.36 50.45, 123.17 47.27, 128.09 44.73 M118.2 51.17 C119.9 50.11, 122.03 47.14, 127.25 44.35" stroke="#7950f2" stroke-width="0.5" fill="none"></path><path d="M0.93 -3.79 C26.38 -1.35, 57.84 -3.99, 124.82 -2.79 M-0.56 -0.19 C49.72 -1.16, 93.76 -2.51, 127.31 -0.82 M123.99 -2.29 C123.89 11.53, 127.79 20.16, 124.6 50.18 M125.11 -1.84 C125.66 9.83, 124.75 22.49, 127.51 49.5 M124.96 47.77 C82.62 47.7, 51.21 51.27, 2.82 51.95 M124.54 49.86 C92.47 51.49, 56.57 51.93, 0.7 48.63 M-3.8 50.87 C-4.25 40.24, 2.15 25.81, -2.84 2.15 M0.1 49.09 C1.09 29.85, 2.25 14.41, -1.05 -1" stroke="#000000" stroke-width="1" fill="none"></path></g><g transform="translate(1104.267021723288 218.70210560013038) rotate(0 42.5 12.5)"><text x="42.5" y="18" font-family="Virgil, Segoe UI Emoji" font-size="20px" fill="#000000" text-anchor="middle" style="white-space: pre;" direction="ltr">Linearity</text></g><g stroke-linecap="round" transform="translate(275.51318180670023 199.5428009016614) rotate(0 59 34.5)"><path d="M9.81 16.48 C9.81 16.48, 9.81 16.48, 9.81 16.48 M9.81 16.48 C9.81 16.48, 9.81 16.48, 9.81 16.48 M-3.19 37.37 C7.87 28.77, 10.92 18.29, 24.25 9.6 M-0.43 35.95 C8.74 25.62, 16.49 16.19, 21.87 11.83 M-1.02 38.55 C7.19 27.73, 15.41 22.6, 29.07 1.1 M0.28 39.46 C14.98 23.06, 24.72 9.36, 30.06 5.91 M3.16 43.77 C15.01 29.56, 24.69 15.24, 40.72 4.55 M2.27 41.26 C12.19 30.57, 20.67 22.47, 38.38 4.14 M8.36 48.72 C20.84 26.93, 34.14 10.79, 40.45 3.49 M6.02 45.58 C13.11 35.41, 21.27 25.16, 42.37 2.29 M6.57 47.22 C20.18 30.96, 34.93 14.97, 47.81 -3.06 M5.51 47.99 C19.49 32.09, 35.75 18.5, 50.52 1.65 M12.38 55.74 C21 38.16, 34.43 24, 55.44 -1.97 M8.47 52.29 C26.46 35.43, 40.12 19.79, 55.83 -2.07 M9.79 52.63 C32.59 38.47, 45.95 16.39, 58.66 2.58 M11.96 55.96 C23.72 42.24, 35.27 27.24, 60 -1.79 M17.14 54.93 C35.4 43.07, 49.81 24.5, 62.27 3.73 M17.91 55.34 C28.34 44.94, 39.72 34.59, 64.98 1.87 M22.63 61.26 C30.06 46.56, 45.76 24.7, 66.84 4.36 M21.36 58.82 C39.9 41.4, 55.76 23, 69.91 1.27 M19.82 61.7 C36.79 47.23, 44.52 32.47, 75.49 -0.37 M24.66 61.05 C35.33 48.18, 47.64 34.29, 74.62 2.72 M29.25 62.91 C43.16 47.92, 57.73 26.85, 80.22 5.47 M27.75 62.34 C42.17 47.89, 57.57 29.91, 80.62 3.12 M30.57 65.25 C47.77 50.02, 57.03 34.1, 86 -0.42 M30.99 66.1 C46.65 45.17, 67.29 24.26, 83.87 5.44 M33.46 70.42 C52.55 46, 74.89 19.09, 88.4 6.67 M34.79 68.83 C45.83 51.37, 57.29 41.34, 87.17 4.14 M37.84 71.08 C50.51 55.13, 65.14 35.57, 97.07 8.26 M38.46 65.99 C60.84 47.09, 79.18 21.21, 92.22 5.35 M44.1 70.72 C60.38 51.83, 71.81 38.73, 99.34 9.57 M43.15 66.24 C62.73 45.11, 83.5 25.54, 97.97 6.07 M53.22 65.28 C64.37 50.9, 77.63 39.45, 97.03 8.41 M50.69 69.34 C59.14 55.7, 71.84 42.17, 98.13 9.36 M53.07 71.05 C71.3 51.37, 84.27 33.19, 106.01 9.54 M54.52 68.36 C68.85 52.87, 80.43 39.68, 103.39 11 M57.24 67.75 C76.69 49.05, 96.05 31.11, 107.14 16.32 M61.25 69.11 C73.98 50.65, 91.1 31.32, 105.03 13.47 M67.94 65.71 C78.33 51.14, 97.11 31.96, 114.38 15.79 M66.22 67.57 C79.3 52.07, 91.66 38.96, 109.76 15.34 M67.49 72.19 C81.8 52.82, 99.28 35.51, 117.07 19.09 M71.71 68.59 C86.41 51.47, 99.23 35.92, 114.67 18.01 M75.27 64.8 C87.86 55.78, 102.91 33.81, 118.82 20.59 M76.55 69.57 C83.35 56.45, 90.85 48.88, 116.8 25.12 M83.89 69.11 C92.16 55.89, 103.19 38.58, 115.59 24.69 M78.97 70.42 C94.39 55.76, 106.21 38.36, 115.91 27.7 M89.34 70 C92.06 62.95, 101.31 49.93, 119.37 29.28 M87.48 67.18 C93.86 60.71, 100.58 54.57, 116.84 31.94 M103.9 61.04 C106.37 51.39, 113 39.55, 120.34 37.57 M100.42 57.77 C104.22 51.48, 109.72 45.79, 116.4 37.3" stroke="#12b886" stroke-width="0.5" fill="none"></path><path d="M59.81 -1.39 C69.23 -1.8, 82.44 0.41, 91.17 3.53 C99.9 6.65, 107.77 11.71, 112.21 17.32 C116.65 22.93, 118.14 31.65, 117.8 37.21 C117.46 42.76, 115.35 45.8, 110.19 50.66 C105.02 55.52, 95.67 63.63, 86.79 66.36 C77.92 69.09, 66.81 67.42, 56.94 67.06 C47.07 66.71, 35.99 67.07, 27.57 64.22 C19.16 61.38, 11.15 54.94, 6.45 49.97 C1.74 45, -1.23 40.01, -0.67 34.43 C-0.11 28.85, 4.69 21.52, 9.81 16.49 C14.93 11.46, 20.14 6.64, 30.04 4.25 C39.95 1.86, 60.78 2.46, 69.26 2.17 C77.74 1.88, 81.16 2.34, 80.91 2.53 M22.26 7.79 C29.11 4.22, 37.64 4.47, 47.07 3.36 C56.51 2.25, 69.89 0.3, 78.88 1.15 C87.88 1.99, 95.2 3.61, 101.02 8.44 C106.84 13.26, 111.49 23.63, 113.8 30.11 C116.11 36.58, 117.21 42.39, 114.87 47.28 C112.54 52.17, 107.2 55.71, 99.78 59.45 C92.36 63.18, 80.47 68.48, 70.35 69.7 C60.22 70.92, 47.84 68.8, 39.04 66.79 C30.23 64.79, 23.69 61.74, 17.52 57.68 C11.34 53.62, 4.26 48.46, 2 42.42 C-0.26 36.39, 1.18 26.63, 3.95 21.46 C6.71 16.3, 16.05 13.94, 18.59 11.45 C21.12 8.95, 18.26 6.95, 19.16 6.52" stroke="#000000" stroke-width="1" fill="none"></path></g><g transform="translate(283.51318180670023 221.5428009016614) rotate(0 51 12.5)"><text x="51" y="18" font-family="Virgil, Segoe UI Emoji" font-size="20px" fill="#000000" text-anchor="middle" style="white-space: pre;" direction="ltr">Supervised</text></g><g stroke-linecap="round" transform="translate(318.78441031818693 313.68053414993847) rotate(0 69.5 36)"><path d="M4.04 23.38 C4.04 23.38, 4.04 23.38, 4.04 23.38 M4.04 23.38 C4.04 23.38, 4.04 23.38, 4.04 23.38 M4.88 32.58 C7.07 23.16, 13.98 21.72, 20.83 13.45 M2.76 32.84 C7.81 26.27, 13.58 21.38, 16.16 14.27 M-0.69 36.91 C8.63 30.96, 13.75 19.43, 33.72 3.13 M1.53 38.28 C8.94 27.37, 17.87 20.3, 29.74 4.95 M3.87 41.93 C12.22 28.91, 23.84 24, 35.12 4.79 M2.21 42.34 C11.83 33.71, 24.57 21.07, 37.27 5.28 M7.84 43.11 C21.04 25.85, 31 13.36, 39.44 0.07 M4.29 45.45 C16.87 29.91, 31.37 14.99, 42.76 3.99 M7.45 45.88 C20.16 32.97, 29.07 19.49, 50.04 5.77 M6.79 48.16 C23.16 36.15, 36.64 19.59, 47.9 1.89 M8.73 52.74 C25.93 32.91, 41.8 12.63, 56.01 2.1 M11.79 52.55 C23.58 40.21, 35.4 22.86, 55.53 0.54 M16.48 56.62 C28.92 37.3, 39.63 26.43, 59.04 -0.12 M12.03 55.93 C27.37 37.01, 42.57 18.98, 61.26 -0.33 M19.76 61.57 C37.2 39.97, 48.23 20.6, 62.35 1.92 M17.18 57.8 C29.91 46.12, 40.08 30.98, 64.98 2.91 M17.44 62.82 C35.95 36.46, 50.13 22.56, 71.44 -0.71 M22.02 60.3 C30.62 49.74, 40 35.44, 68.4 4.38 M26.42 60.97 C40.15 40.55, 57.98 21.29, 71.73 0.55 M23.34 60.57 C34.62 47.43, 44.35 37.36, 75.32 2.23 M26.5 66.78 C38.14 48.52, 56.92 31.96, 78.77 3.61 M27.52 64.04 C38.4 51.46, 50.53 38.18, 78.55 4.8 M34.59 65.12 C40.68 52.98, 55.05 35.56, 85.72 5.56 M29.44 66.54 C51.42 43.58, 70.08 21.06, 86.08 4.74 M31.56 70.06 C45.76 52.07, 60.22 38.9, 84.99 3.85 M33.98 65.77 C55.31 43.4, 75.66 16.64, 87.34 6.58 M37.14 72.01 C58.11 44.83, 80 27.83, 96.31 5.35 M39.65 70.75 C51.2 54.37, 62.68 41.29, 92.11 4.01 M44.81 68.82 C61.66 48.89, 79.03 32.59, 101.07 2.79 M40.13 69.2 C54.3 59.24, 67.03 43.95, 97.38 6.72 M50.61 66.67 C63.12 55.57, 68.86 40.58, 99.14 3.61 M45.77 70.79 C67.58 45.41, 85.6 22.64, 102.95 5.46 M53.46 70.73 C66.86 51.95, 85.32 33.49, 105.05 7.56 M54.65 70.09 C75.36 46.58, 94.82 21.3, 108.28 8.07 M57.93 71.22 C80.31 50.96, 96.93 29.49, 112.9 8.12 M55.96 70.91 C70.69 53.06, 83.85 36.83, 112.11 9.11 M61.8 70.33 C81.01 50.44, 99.42 33.04, 115.92 10.83 M64.32 69.6 C77.39 55.45, 92.8 34.89, 116.63 10.57 M65.03 71.58 C79.41 57.93, 94.11 45.86, 121.28 8.45 M69.35 70.67 C83.94 52.23, 102.14 31.83, 121.1 13.32 M72.47 74.46 C88.42 52.57, 105.85 36.91, 120.39 16.83 M73.19 69.73 C90.1 50.34, 111 31.06, 124.69 15.26 M78.23 72.5 C88.04 55.53, 100.34 41.44, 130.34 15 M79.42 73.97 C99.37 47.69, 118.28 25.71, 126.74 15.78 M82.41 74.24 C94.26 57.06, 105.42 44.42, 126.89 19.12 M84.59 71.3 C94.82 61.23, 102.94 48.29, 132.37 20 M90.12 70.76 C101.07 52.5, 116.17 41.17, 131.21 24.5 M89.89 68.3 C100.82 56.72, 109.43 45.93, 133.91 21.08 M97.6 71.13 C101.3 61.88, 110.46 47.67, 136.83 29.31 M97.91 69.96 C108.07 53.95, 123.89 39.82, 134.58 26.28 M104.42 71.98 C115.54 49.86, 124.47 40.65, 137.91 28.68 M101.59 67.52 C114.69 54.63, 124.06 44.23, 135.35 31.32 M109.71 67.64 C119.79 54.43, 124.68 53.77, 136.64 36.57 M111.12 64.99 C121.47 55.79, 129.6 45.78, 139.17 32.64 M128.34 53.78 C126.38 52.7, 133.97 45.04, 134.37 45.26 M124.74 53.29 C129.74 48.98, 132.67 46.4, 133.27 43.87" stroke="#12b886" stroke-width="0.5" fill="none"></path><path d="M29.67 5.63 C38.23 1.96, 51.81 -0.21, 63.02 -0.33 C74.23 -0.44, 86.43 2.75, 96.93 4.94 C107.43 7.13, 119.2 8.07, 126.03 12.83 C132.86 17.59, 136.84 27.57, 137.92 33.49 C138.99 39.42, 137.1 43.1, 132.46 48.37 C127.82 53.65, 119.37 61.42, 110.07 65.12 C100.76 68.83, 88.11 69.86, 76.63 70.62 C65.15 71.38, 51.48 71.91, 41.21 69.69 C30.93 67.48, 21.85 62.25, 14.97 57.32 C8.08 52.39, 1.71 45.81, -0.08 40.12 C-1.87 34.43, -7.04 29.95, 4.22 23.17 C15.48 16.39, 50.81 2.39, 67.48 -0.56 C84.16 -3.5, 104.55 5.07, 104.27 5.48 M66.44 2.65 C77.2 1.94, 92.98 1.63, 102.92 3.44 C112.86 5.25, 120.58 7.92, 126.1 13.52 C131.61 19.12, 135.17 30.18, 136 37.02 C136.83 43.86, 135.67 49.82, 131.07 54.57 C126.48 59.33, 118.3 62.43, 108.45 65.57 C98.6 68.71, 84.05 73.09, 71.98 73.41 C59.9 73.73, 45.76 70.47, 36 67.5 C26.25 64.53, 19.31 60.43, 13.45 55.6 C7.58 50.76, 1.58 44.91, 0.8 38.51 C0.01 32.11, 3.73 22.2, 8.75 17.17 C13.77 12.14, 21.55 11.65, 30.92 8.32 C40.29 4.99, 58.99 -1.13, 64.95 -2.81 C70.91 -4.49, 65.99 -3.23, 66.68 -1.78" stroke="#000000" stroke-width="1" fill="none"></path></g><g transform="translate(326.28441031818693 337.18053414993847) rotate(0 62 12.5)"><text x="62" y="18" font-family="Virgil, Segoe UI Emoji" font-size="20px" fill="#000000" text-anchor="middle" style="white-space: pre;" direction="ltr">Unsupervised</text></g><g stroke-linecap="round" transform="translate(476.31801231166537 363.71790072444674) rotate(0 85 36)"><path d="M4.73 21.33 C4.73 21.33, 4.73 21.33, 4.73 21.33 M4.73 21.33 C4.73 21.33, 4.73 21.33, 4.73 21.33 M5.28 29.59 C5.77 27.15, 9.8 26.39, 15.01 18.34 M1.32 30.28 C5.23 24.53, 9.78 20.95, 12.36 17.37 M4.89 35.04 C7.94 28.51, 16.43 25.91, 19.88 10.75 M0.91 36.86 C5.12 32.22, 11.12 27.47, 22.53 12.61 M2.35 41.23 C8.75 32.73, 11.86 27, 30.16 5.38 M4.5 41.72 C16.07 29.88, 26.39 16.33, 30.73 8.85 M2.74 41.04 C16.62 38.24, 19.11 24.62, 37.44 3 M6.06 44.95 C14.53 34.16, 22.29 24.09, 36.73 7.2 M9.4 51.26 C17.28 36.79, 19.41 29.19, 41.74 8.13 M7.26 47.38 C22.86 32.99, 36.89 15.23, 44.1 6.42 M11.43 52.12 C21.23 34.79, 33.36 27.69, 50.06 5.6 M10.96 50.56 C25.19 33.33, 38.95 19.51, 51.03 5.74 M9.87 55.19 C23.49 40.49, 35 28.4, 57.87 1.22 M12.09 54.98 C25.22 43.53, 34.18 32.1, 58.49 5.74 M11.21 59.49 C30.64 40.82, 45.6 21.09, 62.02 6.63 M13.85 60.48 C34.9 37.86, 53.68 13.43, 63.83 3.56 M20.3 56.86 C27.21 49.75, 39.73 38.3, 68.91 4.92 M17.27 61.95 C38.51 36.49, 57.08 17.9, 67.61 2.83 M19.28 59.63 C31.72 50.06, 46.68 32.59, 71.36 4.02 M22.87 61.32 C33.26 50.68, 43.44 36.73, 75.23 1.35 M26.32 62.69 C41.57 43.88, 59.03 21.06, 80.21 3.06 M26.1 63.88 C40.6 44.69, 57.95 27.84, 79.1 1.79 M32.62 65.4 C50.62 47.34, 64.21 23.42, 87.11 3.5 M32.97 64.58 C50.17 39.8, 72.72 16.09, 86.28 1.14 M31.22 64.44 C56.32 45.79, 72.99 23.93, 87.48 0.26 M33.58 67.17 C58.12 40.82, 80.44 16.52, 91.97 2.09 M41.89 66.69 C49.29 47.52, 63.61 35.68, 99.33 0.86 M37.69 65.36 C52.98 52.15, 67.23 38.84, 95.08 2.54 M46 64.89 C54.18 47.16, 69.94 28.5, 98.14 0.49 M42.3 68.82 C60.53 48.96, 79.52 26.63, 99.84 3 M44.72 64.96 C68.11 53.03, 83.44 28.58, 108.42 0.46 M48.53 66.81 C63.16 52.36, 78.76 37.5, 107.99 -0.72 M51.28 68.15 C72.17 51.29, 83.94 36.92, 110.61 3.78 M54.52 68.66 C72 48.6, 87.51 30.04, 112.39 2.44 M59.79 67.96 C76.31 50.07, 97.04 21.01, 115.88 1.26 M59 68.95 C72.75 56.95, 83.44 39.71, 116.47 3.2 M62.81 70.67 C75.15 58.09, 85.53 40.73, 117.72 2.95 M63.53 70.41 C82.97 45.03, 107.84 19.98, 120.59 3.64 M68.83 67.53 C85.21 53.8, 100.53 32.9, 123.46 3.96 M68.65 72.4 C85.2 49.88, 101.75 28.88, 126.18 5.42 M69.26 74.4 C85.77 59.81, 97.1 44.53, 124.55 4.89 M73.55 72.83 C87.51 52, 105.98 30.74, 128.7 6.42 M79.86 71.82 C94.13 54.42, 105.86 45.93, 136.64 8.87 M76.26 72.6 C89.85 56.89, 106.64 39.34, 134.47 8.2 M78.37 73.67 C92.05 56.68, 110.05 41.03, 137.91 10.04 M83.85 74.55 C103.16 50.77, 125.31 25.03, 137.64 8.69 M85.32 76.03 C96 59.14, 109.46 43.22, 137.9 10.34 M88.02 72.62 C98.23 61.42, 113.12 46.86, 141.7 9.38 M94.22 77.07 C115.2 52.73, 129.65 30.82, 145.68 9.19 M91.97 74.04 C108.96 55.55, 124.6 37.51, 146.37 13.23 M99.23 71.91 C110.04 58.6, 122.37 44.98, 146.78 16.81 M96.68 74.56 C108.76 58.41, 124.33 43.58, 149.21 16.4 M101.9 75.27 C114.38 60.58, 123.52 49.35, 150.7 20.65 M104.43 71.34 C119.47 52.42, 136.15 36.16, 151.79 14.9 M108.76 74.06 C128.44 53.2, 146.66 28.79, 153.81 20.49 M107.06 71.92 C120.71 61.96, 127.72 49.86, 155.32 18.04 M118.21 70.52 C129.48 58.43, 141.74 40.78, 162.19 19.56 M113.48 71.63 C122.45 61, 131.91 52.21, 158.15 19.88 M121.34 71.09 C131.2 53.42, 143.5 39.56, 162.55 19.69 M121.26 70.78 C130.63 59.24, 139.57 46.27, 163.37 20.67 M131.56 63.57 C143.87 55.31, 153.62 35.86, 169.05 20.39 M130.9 66.13 C141.7 52.53, 155.64 35.9, 168.34 22.24 M139.44 59.71 C142.98 58.92, 154.11 47.02, 167.62 33.04 M139.36 61.79 C147.8 53.58, 153.53 45.88, 165.69 28.52 M147.52 58.33 C152.65 53.65, 160.72 42.23, 170.63 30.93 M147.6 58.7 C150.64 52.72, 156.06 46.54, 168.68 35.89 M151.3 54.72 C155.78 50.94, 166.1 40.48, 171.97 41.46 M152.2 56.26 C158.47 51.48, 161.38 47.45, 170.93 39.67" stroke="#12b886" stroke-width="0.5" fill="none"></path><path d="M31.95 7.83 C40.44 4.59, 54.06 4.17, 66.8 2.79 C79.54 1.42, 95.76 -1.84, 108.38 -0.41 C121 1.02, 133.16 7.58, 142.51 11.36 C151.86 15.14, 160.19 17.22, 164.47 22.26 C168.76 27.29, 170.16 35.92, 168.2 41.56 C166.24 47.21, 160.47 51.56, 152.72 56.13 C144.97 60.7, 133.16 66.37, 121.69 68.99 C110.21 71.61, 97.02 72.12, 83.88 71.85 C70.74 71.58, 54.8 69.84, 42.86 67.38 C30.91 64.92, 19.22 61.86, 12.21 57.09 C5.21 52.31, 2.09 44.68, 0.82 38.75 C-0.46 32.83, -2.75 27.6, 4.56 21.52 C11.87 15.45, 34.75 5.29, 44.66 2.31 C54.58 -0.67, 63.27 2.82, 64.04 3.67 M148.1 9.79 C156.37 14.04, 161.96 24.69, 165.07 30.98 C168.19 37.28, 169.54 42.75, 166.79 47.55 C164.04 52.35, 157.66 55.83, 148.59 59.81 C139.51 63.78, 125.27 69.52, 112.35 71.41 C99.43 73.29, 83.53 72.14, 71.05 71.11 C58.57 70.08, 47.7 68.3, 37.45 65.24 C27.2 62.17, 15.6 58.14, 9.54 52.73 C3.48 47.32, 1.05 38.05, 1.08 32.78 C1.11 27.51, 3.73 26.07, 9.75 21.11 C15.77 16.16, 25.97 6.96, 37.21 3.05 C48.46 -0.87, 63.5 -2.68, 77.24 -2.37 C90.98 -2.06, 107.21 2.75, 119.64 4.91 C132.08 7.08, 146.77 8.9, 151.87 10.64 C156.97 12.37, 151.82 15.04, 150.25 15.34" stroke="#000000" stroke-width="1" fill="none"></path></g><g transform="translate(486.81801231166537 387.21790072444674) rotate(0 74.5 12.5)"><text x="74.5" y="18" font-family="Virgil, Segoe UI Emoji" font-size="20px" fill="#000000" text-anchor="middle" style="white-space: pre;" direction="ltr">Semi-supervised</text></g><g stroke-linecap="round"><g transform="translate(472.96000498756985 187.59583975884198) rotate(0 -41.57104723205521 16.91169174812876)"><path d="M-1.95 2.24 C-15.87 7.81, -71.64 28.14, -85.33 32.84 M2.19 0.98 C-10.69 5.84, -65.29 23.56, -80.04 28.97" stroke="#000000" stroke-width="1" fill="none"></path></g><g transform="translate(472.96000498756985 187.59583975884198) rotate(0 -41.57104723205521 16.91169174812876)"><path d="M-53.53 7.17 C-59.31 13.1, -68.19 22.64, -78.59 25.55 M-58.65 9.24 C-62.46 14.13, -70.09 19.37, -79.38 30.24" stroke="#000000" stroke-width="1" fill="none"></path></g><g transform="translate(472.96000498756985 187.59583975884198) rotate(0 -41.57104723205521 16.91169174812876)"><path d="M-46.85 26.58 C-54.12 27.83, -64.58 32.79, -78.59 25.55 M-51.97 28.64 C-57.89 28.27, -67.32 28.29, -79.38 30.24" stroke="#000000" stroke-width="1" fill="none"></path></g></g><mask></mask><g stroke-linecap="round"><g transform="translate(514.606310737383 222.59689043001708) rotate(0 -45.41402233763529 45.07866679860217)"><path d="M2.24 -2.05 C-12.99 13.11, -75.87 73.24, -91.97 89 M0 3.01 C-15.35 18.76, -77.02 77.95, -93.06 92.2" stroke="#000000" stroke-width="1" fill="none"></path></g><g transform="translate(514.606310737383 222.59689043001708) rotate(0 -45.41402233763529 45.07866679860217)"><path d="M-82.33 68.49 C-84.71 72.77, -83.43 82.03, -96.49 90.95 M-80.26 65.71 C-85.68 74.27, -90.72 86.25, -91.79 92.07" stroke="#000000" stroke-width="1" fill="none"></path></g><g transform="translate(514.606310737383 222.59689043001708) rotate(0 -45.41402233763529 45.07866679860217)"><path d="M-68.36 83.52 C-74.41 83.84, -77.02 88.91, -96.49 90.95 M-66.29 80.74 C-76.91 83.3, -87.27 89.55, -91.79 92.07" stroke="#000000" stroke-width="1" fill="none"></path></g></g><mask></mask><g stroke-linecap="round"><g transform="translate(560.4210825928985 225.56527342650952) rotate(0 -1.8551502037635146 67.61372504549945)"><path d="M-2.05 2.1 C-2.23 23.56, -3.5 109.28, -3.08 130.97 M2.04 0.77 C1.58 22.48, -5.44 113.37, -5.75 134.46" stroke="#000000" stroke-width="1" fill="none"></path></g><g transform="translate(560.4210825928985 225.56527342650952) rotate(0 -1.8551502037635146 67.61372504549945)"><path d="M-11.56 104.65 C-12.45 116.47, -8.6 115.69, -7 137.7 M-14.35 104.93 C-13.98 112.61, -9.9 121.98, -5.89 133.92" stroke="#000000" stroke-width="1" fill="none"></path></g><g transform="translate(560.4210825928985 225.56527342650952) rotate(0 -1.8551502037635146 67.61372504549945)"><path d="M8.93 105.7 C3.31 116.97, 2.44 115.96, -7 137.7 M6.15 105.98 C1.23 113.2, 0 122.31, -5.89 133.92" stroke="#000000" stroke-width="1" fill="none"></path></g></g><mask></mask><g stroke-linecap="round" transform="translate(681.6508633709564 420.971929140429) rotate(0 69 36)"><path d="M5.59 19.44 C5.59 19.44, 5.59 19.44, 5.59 19.44 M5.59 19.44 C5.59 19.44, 5.59 19.44, 5.59 19.44 M2.23 30.29 C7.81 25.97, 15.35 17.91, 17.87 14.17 M3.04 27.93 C6.14 23.47, 11.84 16.16, 16.73 12.83 M-2.38 37.79 C5.52 31.41, 17.2 17.96, 25.88 2.93 M-0.57 36.83 C6.91 30.25, 14.41 20.98, 27.75 4.58 M2.79 41.15 C11.6 26.34, 23.18 14.49, 27.7 12.73 M3.28 42.85 C14.16 30.3, 23.35 16.49, 31.17 7.74 M1.58 47.21 C14.35 34.62, 16.33 27.57, 32.77 6.77 M5.5 43.92 C12.42 34.01, 20.07 24.92, 36.97 6.19 M10.79 49.02 C14.01 33.09, 24 24.36, 45.25 9.44 M6.91 48.99 C20.41 35.62, 30.58 20.18, 43.54 6 M10.63 50 C18.14 37.2, 35.83 24.47, 50.17 7.85 M9.07 50.83 C20.45 36.39, 35.12 25.22, 50.31 3.66 M11.93 54.78 C19.61 44.31, 29.97 31.96, 53.24 1.98 M11.72 55.68 C24.11 40.98, 36.41 31.53, 57.75 4.86 M15.21 56.11 C25.66 43.66, 35.18 35.47, 66 5.75 M16.2 58.7 C27.07 45.24, 36.24 32.35, 62.93 0.36 M15.8 55.45 C31.41 44.85, 42.8 35.69, 69.67 5.73 M20.89 59.37 C30.75 44.22, 47.44 28.31, 67.58 1.25 M20.37 57.39 C40.7 42.97, 53.03 24.26, 74.15 -1.07 M22.06 60.53 C36.66 44.82, 48.01 31.98, 71.48 3.55 M26 59.5 C44.04 40.43, 58.16 26.55, 78.57 3.25 M27.18 60.93 C44.22 42.14, 63.6 21.96, 77.3 3.24 M31.92 66.93 C50.62 43.4, 63.33 25.56, 84.39 6.05 M31.1 62.55 C42.33 48.91, 54.78 33.2, 82.03 3.61 M32.76 69.58 C49.25 52.33, 62.59 28.48, 86.54 7.04 M35.49 66.4 C44.72 55.38, 55.97 42.37, 88.36 2.79 M38.24 63.71 C56.89 38.32, 82.96 20.06, 92.51 1.19 M36.9 66.86 C51.72 53.85, 66.42 36.28, 94.2 3.34 M38.99 64.8 C59.13 41.13, 78.42 17.38, 98.84 4.03 M42.92 67.21 C64.78 45.16, 84.05 22.05, 101.35 2.28 M43.03 72.43 C62.04 58.42, 68.48 42.09, 103.63 2.13 M44.88 69.21 C57.82 57.8, 70.3 43.37, 102.45 4.21 M50.85 73.68 C71.96 47.57, 95.51 23.7, 109.51 6.36 M51.36 71.18 C66.62 51.07, 83.35 33.82, 108.17 7.29 M55.28 69.21 C76.33 50.96, 86.22 30.48, 110.21 4.6 M56.28 70.77 C70.62 55.03, 79.68 43.27, 112.14 6.6 M61.86 70.68 C86.35 42.9, 106.04 19.41, 113.7 12.58 M61.61 69.06 C75.07 55.83, 88.82 38.17, 114.4 9.72 M62.7 73.11 C88.39 48.35, 106.92 25.24, 117.28 12.25 M67.57 71.61 C83.05 49.85, 100.02 33.42, 118.73 9.77 M74.2 74.72 C93.17 52.18, 111.43 23.24, 120.01 13.68 M72.62 71 C90.86 49.57, 108.73 27.33, 121.54 11.95 M76.9 75.62 C87.65 58.5, 107.3 43.5, 125.9 13.92 M77.68 70.2 C91.38 58.27, 103.23 42.64, 125.22 15.15 M83.28 67.89 C97.61 55.18, 113.33 38.17, 128.31 22.37 M84.16 71.31 C95.12 59.31, 104.13 45.74, 126.96 17.98 M90.83 68.19 C102.89 52.55, 115.94 33.86, 129.76 18.9 M87.41 68.92 C98.56 61.27, 106.39 50.95, 128.8 23.58 M97.9 72.45 C104.97 56.68, 114.51 50.7, 129.1 25.26 M94.87 71.44 C106.24 57.93, 117.93 44.57, 133.15 23.72 M99.44 69.44 C106.6 61.56, 113.35 48.97, 137.87 25.9 M102.08 67.33 C110.55 59.03, 120.28 46.65, 137.46 26.3 M108.83 69.65 C117.04 56.23, 128.53 42.56, 141.55 33.66 M104.9 68.76 C115.94 56.08, 129.49 42.72, 135.8 33.74 M113.66 70.94 C121.23 61.68, 125.67 46.56, 135.32 39.87 M111.52 69.87 C120.41 58.91, 127.15 51.9, 132.87 43.76" stroke="#fab005" stroke-width="0.5" fill="none"></path><path d="M60.88 -0.47 C71.61 -1.77, 89.01 0, 99.43 2.47 C109.84 4.93, 116.95 9.44, 123.37 14.33 C129.78 19.22, 136.72 25.81, 137.92 31.81 C139.12 37.82, 135.28 44.54, 130.55 50.35 C125.83 56.15, 118.77 63.15, 109.55 66.64 C100.34 70.13, 86.83 71.21, 75.27 71.3 C63.71 71.4, 50.36 69.55, 40.18 67.21 C30 64.87, 20.92 62.22, 14.18 57.27 C7.44 52.32, 1.16 43.79, -0.28 37.5 C-1.72 31.2, 0.91 24.67, 5.53 19.51 C10.15 14.34, 13.28 9.65, 27.43 6.53 C41.58 3.41, 76.48 0.18, 90.44 0.77 C104.4 1.37, 111.64 9.44, 111.19 10.08 M32.27 6.25 C41.5 3.26, 54.31 2.07, 65.19 1.44 C76.07 0.81, 87.24 0.44, 97.54 2.48 C107.85 4.52, 120.41 8.2, 127.02 13.67 C133.64 19.13, 136.47 28.89, 137.23 35.28 C137.99 41.66, 136.26 46.75, 131.6 51.97 C126.94 57.19, 119.1 63.41, 109.26 66.57 C99.42 69.73, 83.71 70.78, 72.56 70.93 C61.41 71.07, 52.85 69.75, 42.35 67.45 C31.85 65.15, 17.02 61.39, 9.58 57.11 C2.14 52.82, -2.15 47.47, -2.29 41.73 C-2.42 36, 3.82 28.29, 8.77 22.68 C13.71 17.07, 23.42 10.86, 27.36 8.1 C31.3 5.34, 31.82 5.85, 32.39 6.1" stroke="#000000" stroke-width="1" fill="none"></path></g><g transform="translate(697.1508633709564 444.471929140429) rotate(0 53.5 12.5)"><text x="53.5" y="18" font-family="Virgil, Segoe UI Emoji" font-size="20px" fill="#000000" text-anchor="middle" style="white-space: pre;" direction="ltr">Parametric</text></g><g stroke-linecap="round" transform="translate(872.3824903278619 423.8243050271285) rotate(0 78.5 36)"><path d="M7.1 19.42 C7.1 19.42, 7.1 19.42, 7.1 19.42 M7.1 19.42 C7.1 19.42, 7.1 19.42, 7.1 19.42 M0.35 36.05 C7.73 30.7, 9.22 20.21, 14.17 12.81 M-0.79 34.7 C3.33 27.51, 11.46 21.72, 16.16 14.12 M-0.16 34.61 C7.86 31.78, 18.24 16.66, 24.23 10.37 M1.7 36.26 C10.96 29.81, 16.83 19.83, 25.73 9.48 M0.99 45.17 C13.5 35.28, 21.04 25.82, 38.43 9.69 M4.47 40.18 C12.64 30.26, 23.62 15.21, 35.99 7.36 M1.48 44.49 C11.73 36.98, 23.06 27.72, 37.5 7.41 M5.67 43.91 C12.06 35.63, 21.34 30.52, 38.89 6.35 M9.37 52.44 C16.87 42.7, 21.23 31.59, 46.51 9.8 M7.65 49 C21.4 32.56, 35.93 18.08, 43.33 5.89 M10.35 55.39 C20.23 35.81, 33.39 24.68, 49.75 3.05 M10.48 51.19 C17.58 42.67, 27.12 30.44, 50.33 5.22 M10.79 52.53 C26.34 34.04, 42.73 20.48, 58.32 6.33 M15.31 55.42 C21.39 43.38, 32.01 30.17, 54.95 7.1 M20.27 60.07 C24.13 48.36, 34.51 37.99, 63.25 8.41 M17.2 54.68 C31.22 39.86, 48.66 19.77, 59.7 7.14 M22.63 61.56 C31.38 42.99, 41.81 33.22, 70.62 -1.49 M20.54 57.09 C35.13 40.24, 48.2 23.36, 68.01 3.35 M25.14 57.03 C36.57 46.96, 52.82 28.41, 74.2 5.28 M22.47 61.65 C38.17 45.6, 51.21 28.71, 73.11 3.78 M28.25 62.86 C40.3 50.01, 48.05 39.19, 76.91 2.53 M26.98 62.85 C42.06 43.93, 56.83 29.63, 81.91 2.95 M32.75 67.17 C47.19 49.03, 69.03 27.07, 83.55 0.69 M30.39 64.72 C52.9 40.97, 72.18 15.29, 87.95 2.03 M33.59 69.67 C53.15 41.9, 75.84 20.57, 92.51 0.45 M35.42 65.42 C59.07 41.98, 80.26 15.58, 89.44 1.07 M39.57 63.81 C49.51 50.8, 61.55 33.52, 96.83 1.32 M41.25 65.97 C61.3 44.36, 82.32 17.66, 94.7 0.37 M44.59 68.16 C60.42 51.16, 68.55 41.21, 98.78 5.81 M47.1 66.42 C55.39 52.73, 67.77 37.18, 102.94 3.29 M50.03 65.51 C67.26 43.06, 91.78 17.61, 106.2 0.28 M48.85 67.59 C71.16 43.12, 89.77 20.04, 109.03 1.74 M57.22 68.23 C68.62 48.44, 87.74 31.32, 113.09 1.34 M55.88 69.16 C69.75 51.99, 85.43 33.04, 110.29 5.35 M58.57 65.71 C73.9 47.42, 95.46 29.67, 115.22 8.92 M60.51 67.71 C73.42 55.5, 83 42.76, 114.52 7.2 M63.38 72.18 C73.91 54.46, 88.37 43.59, 115.41 3.94 M64.08 69.33 C87.68 45.73, 107.49 19.91, 119.5 8.17 M67.61 71.1 C84.35 52.57, 100.27 39.15, 121.96 7.95 M69.07 68.62 C81.93 55.58, 89.46 45.82, 123.81 9.23 M69.69 73.29 C94.4 55.57, 112.17 33.05, 124.36 12.69 M71.22 71.55 C88.3 51.85, 106.48 34.44, 128.79 7.78 M78.2 70.51 C96.24 47.48, 114.18 27.41, 127.87 12.3 M77.53 71.74 C98.98 47.05, 116.59 25.91, 129.44 10.44 M83.89 75.19 C97.03 52.7, 119.07 38.68, 135.21 15.12 M82.55 70.79 C103.63 49.57, 121.42 28.7, 134.5 11.64 M87.32 69.46 C98.54 56.21, 119.49 39.43, 135.76 16.87 M86.35 74.13 C104.99 50.06, 126.33 30.94, 139.85 15.4 M89.93 72.04 C104.35 62.43, 115.15 47.67, 145.25 18.22 M93.98 70.49 C110.2 50.96, 130.98 28.32, 142.59 15.64 M101.32 69.66 C115.81 54.86, 130.53 38.01, 142.35 19.22 M100.92 70.06 C118.04 52.61, 134.05 32.22, 145.91 19.29 M110.91 70.63 C121.09 57.48, 133.88 38.25, 149.03 20.13 M105.16 70.71 C121.84 51.36, 133.62 38.36, 149.77 21.79 M115.18 64.76 C129.99 51.4, 139.9 33.83, 155.05 27.34 M112.73 68.65 C123.03 56.19, 132.3 47.04, 151.71 25.71 M119.34 62.22 C132.1 58.29, 135.26 44.91, 154.41 26.69 M119.66 65.92 C130.19 52.82, 140.22 43.06, 153.61 24.77 M124.55 61.38 C138.68 53.06, 140.71 50.45, 157.86 29.41 M125.53 64.99 C135.8 53.44, 145.37 43.45, 158.48 30.43 M129.68 64.76 C142.69 58.35, 146.93 49.45, 156.01 38.96 M131.53 61.28 C140.65 51.29, 150.64 42.26, 155.94 37.45" stroke="#fab005" stroke-width="0.5" fill="none"></path><path d="M107.95 1.52 C119.13 2.86, 127.49 7.1, 135.32 11.27 C143.15 15.44, 151.89 21.09, 154.93 26.53 C157.98 31.98, 156.41 38.16, 153.58 43.93 C150.74 49.7, 145.81 56.94, 137.92 61.14 C130.03 65.34, 117.69 67.6, 106.21 69.12 C94.73 70.63, 80.84 70.74, 69.03 70.24 C57.23 69.73, 45.5 69.31, 35.39 66.08 C25.29 62.86, 14.45 56.15, 8.42 50.89 C2.39 45.63, -0.58 39.82, -0.77 34.54 C-0.95 29.25, 1.23 23.99, 7.31 19.18 C13.39 14.36, 25.4 8.53, 35.72 5.66 C46.04 2.8, 50.86 0.2, 69.25 2 C87.63 3.8, 131.9 10.62, 146.02 16.45 C160.13 22.28, 155.55 36.29, 153.94 36.98 M71.6 -0.8 C82.91 -2.25, 99.61 -1.56, 110.82 1.18 C122.03 3.92, 131.41 10.91, 138.86 15.64 C146.31 20.37, 152.91 24.32, 155.53 29.56 C158.16 34.81, 158.44 42.04, 154.63 47.12 C150.81 52.2, 140.8 56.39, 132.67 60.03 C124.54 63.68, 117.46 67.01, 105.84 69 C94.22 71, 75.8 72.29, 62.95 72.02 C50.09 71.75, 37.57 70.51, 28.71 67.39 C19.86 64.27, 14.93 58.53, 9.8 53.32 C4.67 48.11, -2.54 42.17, -2.06 36.11 C-1.58 30.06, 6.68 22.05, 12.68 16.98 C18.68 11.91, 24.3 8.32, 33.96 5.7 C43.62 3.08, 64.65 1.6, 70.61 1.27 C76.58 0.93, 69.04 3.57, 69.77 3.71" stroke="#000000" stroke-width="1" fill="none"></path></g><g transform="translate(877.8824903278619 447.3243050271285) rotate(0 73 12.5)"><text x="73" y="18" font-family="Virgil, Segoe UI Emoji" font-size="20px" fill="#000000" text-anchor="middle" style="white-space: pre;" direction="ltr">Non-parametric</text></g><g stroke-linecap="round" transform="translate(1183.5868530876505 416.6879150616951) rotate(0 50.84334490701622 35.940985192890366)"><path d="M13.11 12.72 C13.11 12.72, 13.11 12.72, 13.11 12.72 M13.11 12.72 C13.11 12.72, 13.11 12.72, 13.11 12.72 M-0.1 34.89 C9.33 26.01, 20.7 13.55, 25.38 7.46 M0.72 32.53 C7.14 24.16, 16.37 12.79, 24.25 6.12 M-0.77 37.87 C8.38 30.06, 21.22 15.27, 32.09 -2.28 M1.05 36.9 C9.61 28.97, 18.29 18.35, 33.95 -0.62 M3.09 42.74 C15.13 24.16, 30.02 8.52, 36.53 4.51 M3.58 44.43 C17.41 28.28, 29.65 10.96, 40 -0.48 M1.23 49.55 C15.68 35.06, 19.42 25.99, 40.29 0.05 M5.14 46.26 C13.94 34.13, 23.5 22.85, 44.48 -0.53 M9.12 52.87 C14.49 34.63, 26.44 23.64, 51.46 4.23 M5.24 52.84 C21.3 36.5, 34.11 18.04, 49.75 0.79 M9.62 53.1 C19.05 38.12, 38.59 23.27, 55.72 3.4 M8.06 53.93 C21.45 37.3, 37.99 23.98, 55.86 -0.79 M12.23 56.37 C20.79 44.86, 32.09 31.43, 57.48 -0.96 M12.02 57.26 C25.46 41.46, 38.71 30.91, 61.99 1.92 M16.17 56.94 C26.86 44.2, 36.64 35.7, 68.27 5.07 M17.16 59.53 C28.33 45.71, 37.82 32.46, 65.19 -0.32 M15.44 57.79 C31.31 46.86, 42.97 37.39, 70.63 6.56 M20.54 61.71 C30.75 46.16, 47.81 29.85, 68.53 2.08 M19.36 60.49 C39.89 45.84, 52.42 26.91, 73.79 1.27 M21.05 63.63 C35.81 47.71, 47.33 34.68, 71.12 5.89 M24.98 62.59 C42.83 43.76, 56.75 30.12, 76.9 7.1 M26.17 64.03 C42.98 45.49, 62.14 25.56, 75.64 7.09 M30.91 70.02 C48.91 47.26, 60.97 30.17, 81.41 11.41 M30.09 65.65 C40.86 52.63, 52.8 37.5, 79.05 8.97 M32.41 71.92 C48.01 55.68, 60.42 32.9, 82.9 13.16 M35.14 68.74 C43.68 58.45, 54.25 46.22, 84.72 8.91 M37.88 66.05 C54.81 42.8, 79.08 26.6, 87.56 8.81 M36.54 69.2 C50.24 57.4, 63.84 41.09, 89.25 10.97 M39.29 66.39 C56.26 46.6, 72.28 26.62, 89.96 16.18 M43.22 68.79 C61.76 50.27, 77.87 30.81, 92.47 14.43 M43.33 74.02 C59.89 62.51, 63.99 48.87, 93.44 15.79 M45.18 70.8 C55.9 61.83, 66.27 49.84, 92.26 17.87 M50.5 76.02 C67.48 54.35, 87.06 35.06, 98 21.53 M51.01 73.52 C63.01 57.13, 76.6 43.49, 96.66 22.46 M54.27 72.3 C71.59 58.57, 77.64 42.52, 96.73 22.03 M55.26 73.86 C66.8 61.24, 73.21 52.51, 98.67 24.03 M62.82 71.51 C80.98 50.94, 94.41 34.65, 98.91 31.52 M62.57 69.89 C71.65 61.57, 81.23 48.71, 99.61 28.67 M66.94 70.17 C85.12 54.25, 96.06 39.86, 101.18 32.7 M71.8 68.66 C80.56 54.73, 90.9 45.93, 102.63 30.22 M83.03 66.5 C89.75 56.99, 96.21 41.62, 98.66 40.17 M81.45 62.78 C88.86 54.79, 95.25 45.74, 100.19 38.44" stroke="#be4bdb" stroke-width="0.5" fill="none"></path><path d="M33.29 0.88 C41.12 -1.49, 55.09 -1.34, 64.08 0.35 C73.07 2.04, 80.96 5.88, 87.22 11.01 C93.48 16.14, 99.9 24.74, 101.61 31.15 C103.33 37.55, 101.2 43.95, 97.5 49.45 C93.81 54.95, 86.75 60.33, 79.45 64.15 C72.15 67.96, 62.93 72.2, 53.68 72.32 C44.42 72.44, 32.14 68.52, 23.93 64.84 C15.72 61.17, 8.62 55.8, 4.41 50.27 C0.2 44.75, -2.82 37.99, -1.33 31.68 C0.16 25.37, 6.26 17.31, 13.36 12.43 C20.47 7.55, 35.49 4.4, 41.31 2.41 C47.13 0.41, 48.35 0.48, 48.27 0.45 M10.99 16.96 C14.73 11.49, 22.02 4.95, 30.35 1.93 C38.68 -1.1, 51.9 -2.85, 60.96 -1.2 C70.02 0.45, 78.17 7.04, 84.7 11.83 C91.23 16.61, 97.57 21.47, 100.11 27.51 C102.66 33.56, 103.2 42.22, 99.96 48.1 C96.71 53.98, 87.45 59.09, 80.66 62.82 C73.88 66.55, 68.42 69.51, 59.23 70.49 C50.05 71.47, 34.64 70.92, 25.56 68.69 C16.49 66.47, 8.65 62.45, 4.77 57.15 C0.89 51.84, 1.96 43.5, 2.28 36.85 C2.61 30.21, 5.15 20.9, 6.74 17.27 C8.33 13.65, 11.21 15, 11.82 15.09" stroke="#000000" stroke-width="1" fill="none"></path></g><g transform="translate(1204.4301979946667 440.12890025458546) rotate(0 30 12.5)"><text x="30" y="18" font-family="Virgil, Segoe UI Emoji" font-size="20px" fill="#000000" text-anchor="middle" style="white-space: pre;" direction="ltr">Linear</text></g><g stroke-linecap="round" transform="translate(1365.8028943658937 411.8239015070103) rotate(0 50.84334490701622 35.940985192890366)"><path d="M8.53 18.01 C8.53 18.01, 8.53 18.01, 8.53 18.01 M8.53 18.01 C8.53 18.01, 8.53 18.01, 8.53 18.01 M3.39 33.19 C12.9 22.8, 19.64 14.01, 25.04 11.37 M2.45 29.8 C7.53 23.3, 12.62 19.6, 21.77 6.18 M1.14 38.36 C18 19.45, 25.44 5.9, 30.52 5.96 M3.43 36.74 C13.03 25.66, 21.4 14.43, 34.02 3.55 M2.77 38.56 C12.95 28.29, 20.3 23.17, 40.21 4.33 M6.23 42.04 C17.49 25.01, 29.23 11.09, 36.38 3.2 M7.9 43.83 C12.3 34.35, 19.68 24.14, 41.23 2.54 M5.2 44.49 C17.32 30.25, 30.05 16.09, 42.55 0.11 M3.19 46.79 C17.67 31.7, 35.92 20.93, 50.58 3.16 M7.65 52.33 C17.27 37.34, 29.15 24.32, 48.86 0.83 M4.12 55.03 C25.73 37.82, 38.48 23.28, 54.24 -2.38 M5.9 54.35 C25.19 38.49, 39.54 18.64, 53.62 2.53 M8.1 59.74 C20.12 45.5, 31.81 28.6, 57.6 -2.17 M10.75 57.19 C27.44 42.44, 42.04 24.65, 57.92 3.29 M16.32 56.62 C26.69 47.67, 38.81 39.21, 61.92 5.53 M15.67 60.91 C25.58 45.69, 40.08 27.12, 62.37 4.16 M20.86 60.22 C39.69 44.4, 54.1 27.5, 66.79 3.98 M16.1 62.06 C29.44 48.53, 38.67 34.97, 67.88 3.48 M23.78 62.8 C32.53 49.81, 45.29 35.68, 69.91 8.01 M22.98 63.23 C37.57 47.18, 52.34 28.04, 71.75 7.71 M27.6 61.99 C40.24 50.72, 54.97 33.26, 77.56 7.7 M25.47 65.33 C40.05 50.98, 50.88 35.89, 76.48 5.7 M30.41 67.66 C42.42 49.4, 63.99 30.25, 77.78 13.49 M28.43 69.23 C47.01 46.77, 67.33 22.79, 79.19 10.56 M34.33 71.24 C43.42 51.82, 53.88 46.09, 80.04 9.78 M33.11 69.74 C44.65 55.25, 57.47 39.14, 85.69 11.91 M36.69 65.21 C59.49 51.58, 74.35 24.91, 85.15 11.84 M38.73 69.74 C52.43 54.4, 63.24 41.99, 88.66 13.5 M40.42 66.1 C57.46 46.89, 78 31.9, 92.33 12.17 M45.13 67.95 C55.9 54.94, 67.85 43.08, 89.01 14.24 M50.51 71.94 C54.53 58.86, 68.26 45.25, 88.97 16.89 M47.55 71.02 C63.17 54.27, 75.75 38.17, 94.03 17.25 M53.18 69.62 C67.84 55.46, 77.25 44.89, 95.16 19.05 M52.13 69.55 C68.67 52.22, 85.1 35.49, 96.11 21.95 M61.01 71.51 C68.03 54.96, 84.27 37.01, 94.76 22.12 M59.32 69.46 C70.43 55.4, 85.66 39.09, 100.25 24.13 M67.93 65.81 C77.52 53.9, 85.62 46.8, 99.89 24.75 M63.22 70.99 C75.39 55.81, 89.14 41.39, 102.78 27.47 M73.92 67.48 C83.33 55.34, 90.04 46.01, 102.1 32.74 M70.59 66.35 C80.33 57.7, 91.48 42.53, 102.86 32.17 M78.61 69.09 C81.48 57.06, 84.7 55.46, 103.99 43.58 M78.71 67.18 C84.75 58.32, 92.28 47.34, 100.47 38.17" stroke="#be4bdb" stroke-width="0.5" fill="none"></path><path d="M30.83 2.12 C38.66 -0.76, 48.78 -1.61, 57.9 -0.21 C67.01 1.19, 78.55 6.15, 85.52 10.5 C92.5 14.86, 97.45 20.15, 99.76 25.94 C102.06 31.72, 101.81 38.88, 99.33 45.22 C96.85 51.57, 92.01 59.91, 84.87 64 C77.74 68.09, 66 69.28, 56.54 69.76 C47.07 70.24, 36.52 69.39, 28.07 66.88 C19.63 64.36, 10.25 60.08, 5.88 54.69 C1.51 49.3, 1.34 40.71, 1.83 34.54 C2.32 28.37, -1.41 23.34, 8.83 17.67 C19.06 12.01, 50.14 1.66, 63.22 0.53 C76.29 -0.6, 87.97 9.93, 87.27 10.88 M46.13 -0.8 C54.64 -2.29, 68.21 -1.06, 76.32 2.54 C84.42 6.15, 90.53 14.77, 94.76 20.84 C98.99 26.91, 102.05 32.7, 101.68 38.94 C101.31 45.19, 98.38 53.37, 92.54 58.31 C86.69 63.25, 74.87 66.64, 66.61 68.58 C58.36 70.52, 52.06 71.05, 43.01 69.96 C33.96 68.87, 19.7 65.96, 12.32 62.05 C4.94 58.14, -0.13 52.57, -1.29 46.49 C-2.46 40.42, 2.13 31.83, 5.33 25.58 C8.54 19.32, 10.66 13.36, 17.93 8.95 C25.19 4.54, 44.55 0.47, 48.93 -0.86 C53.31 -2.19, 44.79 0.03, 44.23 0.98" stroke="#000000" stroke-width="1" fill="none"></path></g><g transform="translate(1373.64623927291 435.26488669990067) rotate(0 43 12.5)"><text x="43" y="18" font-family="Virgil, Segoe UI Emoji" font-size="20px" fill="#000000" text-anchor="middle" style="white-space: pre;" direction="ltr">Nonlinear</text></g><g stroke-linecap="round"><g transform="translate(669.8532366252111 82.06694790522306) rotate(0 -56.335033965438924 33.86630174673064)"><path d="M-1.15 -2.7 C-19.87 8.03, -94.53 55.4, -113.21 66.64 M3.43 2 C-15.7 13.04, -96.25 59.61, -116.1 70.43" stroke="#000000" stroke-width="1" fill="none"></path></g><g transform="translate(669.8532366252111 82.06694790522306) rotate(0 -56.335033965438924 33.86630174673064)"><path d="M-100.45 45.93 C-101.03 51.92, -109 58.38, -114.79 72.97 M-98.09 49.12 C-101.98 53.74, -109.99 60.23, -117.56 68.76" stroke="#000000" stroke-width="1" fill="none"></path></g><g transform="translate(669.8532366252111 82.06694790522306) rotate(0 -56.335033965438924 33.86630174673064)"><path d="M-90.36 63.8 C-93.94 64.9, -104.62 66.56, -114.79 72.97 M-88.01 66.99 C-94.75 66.37, -105.72 67.63, -117.56 68.76" stroke="#000000" stroke-width="1" fill="none"></path></g></g><mask></mask><g stroke-linecap="round"><g transform="translate(808.5508300002257 166.89115142021365) rotate(0 -0.6890884346084931 35.781409095091476)"><path d="M-2.7 -1.2 C-2.86 10.62, 0.97 57.91, 1.33 69.78 M1.03 4.32 C0.32 16.62, -0.03 61.38, -0.74 72.76" stroke="#000000" stroke-width="1" fill="none"></path></g><g transform="translate(808.5508300002257 166.89115142021365) rotate(0 -0.6890884346084931 35.781409095091476)"><path d="M-11.81 44.69 C-8.45 53.01, -4.56 67.48, 1.79 72.49 M-8.61 44.71 C-8.12 50.33, -5.76 58.49, -2.42 72.67" stroke="#000000" stroke-width="1" fill="none"></path></g><g transform="translate(808.5508300002257 166.89115142021365) rotate(0 -0.6890884346084931 35.781409095091476)"><path d="M8.7 45.35 C4.24 53.03, 0.32 67.24, 1.79 72.49 M11.9 45.37 C6.79 50.51, 3.55 58.49, -2.42 72.67" stroke="#000000" stroke-width="1" fill="none"></path></g></g><mask></mask><g stroke-linecap="round"><g transform="translate(948.6456536799888 88.91833963547288) rotate(0 95.59249534430273 52.225389194431045)"><path d="M-1.2 0.3 C31.05 18.04, 160.08 86.04, 192.39 103.69 M3.34 -2 C35.22 16.32, 158.35 89.25, 189.5 106.45" stroke="#000000" stroke-width="1" fill="none"></path></g><g transform="translate(948.6456536799888 88.91833963547288) rotate(0 95.59249534430273 52.225389194431045)"><path d="M160.39 99.6 C165.22 101.53, 176.47 106.76, 189.23 105.37 M160.4 100.72 C166.88 101.63, 176.1 102.27, 189.41 108.27" stroke="#000000" stroke-width="1" fill="none"></path></g><g transform="translate(948.6456536799888 88.91833963547288) rotate(0 95.59249534430273 52.225389194431045)"><path d="M170.61 81.81 C172.45 88.26, 181.06 98.1, 189.23 105.37 M170.63 82.93 C173.77 89.32, 179.94 95.28, 189.41 108.27" stroke="#000000" stroke-width="1" fill="none"></path></g></g><mask></mask><g stroke-linecap="round"><g transform="translate(809.8840529576864 307.673402228811) rotate(0 -32.0693297952821 52.130763031193055)"><path d="M0.3 -1.18 C-9.99 16.59, -54.07 87.22, -64.44 105.44 M-2.97 -4.3 C-12.1 13.98, -48.87 90.57, -58.91 108.56" stroke="#000000" stroke-width="1" fill="none"></path></g><g transform="translate(809.8840529576864 307.673402228811) rotate(0 -32.0693297952821 52.130763031193055)"><path d="M-56.88 76.5 C-57.56 86.16, -54.42 90.64, -59.99 108.53 M-55.76 76.95 C-56.35 84.04, -58.1 92.1, -57.09 107.85" stroke="#000000" stroke-width="1" fill="none"></path></g><g transform="translate(809.8840529576864 307.673402228811) rotate(0 -32.0693297952821 52.130763031193055)"><path d="M-38.62 85.86 C-42.93 93.66, -43.51 96.23, -59.99 108.53 M-37.5 86.31 C-42.34 91.37, -48.19 97.33, -57.09 107.85" stroke="#000000" stroke-width="1" fill="none"></path></g></g><mask></mask><g stroke-linecap="round"><g transform="translate(828.3148236194265 309.15126455222344) rotate(0 60.136209804276405 54.102671175976866)"><path d="M-1.18 -1.6 C19.26 16.65, 100.56 91.42, 121.46 109.81 M3.37 3.7 C23.46 21.05, 98.71 87.29, 118.7 105.3" stroke="#000000" stroke-width="1" fill="none"></path></g><g transform="translate(828.3148236194265 309.15126455222344) rotate(0 60.136209804276405 54.102671175976866)"><path d="M88.52 92.88 C99.32 99.85, 104.91 99.08, 118.68 102.29 M88.97 93.47 C99.82 96.86, 111.62 104.49, 117.99 105.52" stroke="#000000" stroke-width="1" fill="none"></path></g><g transform="translate(828.3148236194265 309.15126455222344) rotate(0 60.136209804276405 54.102671175976866)"><path d="M102.16 77.54 C109.48 88.34, 111.56 91.51, 118.68 102.29 M102.61 78.13 C108.43 87.18, 115.13 100.54, 117.99 105.52" stroke="#000000" stroke-width="1" fill="none"></path></g></g><mask></mask><g stroke-linecap="round"><g transform="translate(1148.6736817311612 262.89898715423806) rotate(0 33.70518291748249 71.95794373891113)"><path d="M-1.6 -0.95 C9.85 23.89, 57.43 123.47, 69.01 147.85 M2.72 -3.94 C13.85 20.21, 56.73 118.48, 67.27 143.81" stroke="#000000" stroke-width="1" fill="none"></path></g><g transform="translate(1148.6736817311612 262.89898715423806) rotate(0 33.70518291748249 71.95794373891113)"><path d="M45.39 123.24 C55.48 128.69, 58.24 135.74, 64.27 146.76 M45.98 120.46 C51.57 129.27, 61.68 135.71, 67.49 145.54" stroke="#000000" stroke-width="1" fill="none"></path></g><g transform="translate(1148.6736817311612 262.89898715423806) rotate(0 33.70518291748249 71.95794373891113)"><path d="M64.25 115.16 C68.41 122.91, 65.31 132.47, 64.27 146.76 M64.84 112.39 C64.3 123.45, 68.33 132.5, 67.49 145.54" stroke="#000000" stroke-width="1" fill="none"></path></g></g><mask></mask><g stroke-linecap="round"><g transform="translate(1214.633649039146 254.35141617119007) rotate(0 85.39504730376757 80.360302778814)"><path d="M-0.95 0.92 C27.87 27.56, 143.38 132, 171.74 158.25 M3.73 -1.06 C32.44 26.2, 143.26 134.68, 170.47 161.78" stroke="#000000" stroke-width="1" fill="none"></path></g><g transform="translate(1214.633649039146 254.35141617119007) rotate(0 85.39504730376757 80.360302778814)"><path d="M144.5 151.83 C149.8 151.62, 157.08 152.91, 173.42 162.68 M141.72 147.62 C150.25 154.71, 157.04 156.49, 172.21 162.87" stroke="#000000" stroke-width="1" fill="none"></path></g><g transform="translate(1214.633649039146 254.35141617119007) rotate(0 85.39504730376757 80.360302778814)"><path d="M158.9 137.22 C160.32 140.67, 163.89 145.73, 173.42 162.68 M156.13 133.01 C160.48 143.95, 163.36 149.69, 172.21 162.87" stroke="#000000" stroke-width="1" fill="none"></path></g></g><mask></mask><g stroke-linecap="round" transform="translate(17.601412340756724 300.13901438814173) rotate(0 86 35.5)"><path d="M0 0 C0 0, 0 0, 0 0 M0 0 C0 0, 0 0, 0 0 M-1.1 5.85 C1 5.37, 2.84 2.75, 5.28 -1.23 M-0.27 6.45 C1.39 3.6, 3.61 1.35, 4.45 1.07 M0.83 15.17 C6.6 9.3, 9.3 1.01, 11.88 -2.36 M-1.31 13.21 C3.34 8.69, 3.67 6.41, 9.06 -0.55 M0.46 17.74 C3.01 11.24, 6.91 6.17, 16.16 -3.39 M1.48 19.12 C2.47 11.83, 6.89 8.13, 16.42 1.97 M-1.05 26.75 C9.27 19.3, 12.52 8.12, 21.05 -0.35 M0.62 23.57 C4.66 16.84, 13.78 10.16, 21.37 1.36 M-1.71 30.09 C4.59 19.14, 18.62 14.42, 26.97 -2.38 M-0.18 30.67 C4.62 24.31, 10.82 16.96, 24.74 -0.64 M-1.4 39.41 C8.54 25.68, 19.52 22.43, 34.9 1.94 M0.02 36.04 C6.71 28.09, 13.07 22.15, 33.29 1.8 M3.23 44.34 C11.22 33.98, 14.85 25.13, 36.32 -2.91 M-1.46 40.79 C8.71 32.47, 16.95 24.96, 37.62 1.97 M3.69 49.84 C7.93 36.25, 26.06 21.99, 41.29 -2.24 M-1.27 47.23 C14.37 34.26, 25.78 18.88, 43.01 -2 M-0.93 54.08 C14.77 38.95, 23.5 29.35, 44.11 2 M0.1 52.99 C15.47 35.86, 29.18 21.28, 47.71 0.34 M1.71 57.54 C18.48 39.53, 39.94 19.09, 51.43 0.26 M0.64 62.54 C19.5 40.32, 34.76 21.15, 53.77 1.16 M0.62 64.94 C12.21 52.27, 25.15 34.59, 55.89 0.64 M-1.04 69.33 C15.73 51.02, 31.32 28.84, 57.34 1.84 M3.1 73.8 C12.22 61.7, 25.59 46.19, 64.23 -2.11 M0.58 70.73 C23.38 41.43, 50.42 16.19, 63.47 -1.66 M2.9 72.08 C21.16 58.3, 39.36 36.03, 70.91 -1.37 M4.77 69.95 C26.48 43.83, 48.17 18.1, 68.48 0.69 M12.57 69.41 C37.81 44.98, 58.73 19.05, 78.27 -1.58 M9.6 73.56 C27.22 58.28, 38.2 41.19, 74.68 -1.59 M13.48 70.79 C28.7 59.72, 43.49 42.58, 78.11 -1.1 M16.67 73.61 C40.09 46.7, 64.24 20.53, 80.77 -0.05 M21.46 74.36 C38.16 49.9, 58.36 30.67, 87.84 0.92 M21.37 71.56 C42.59 49.49, 58.58 26.56, 84.59 -1.88 M26.95 72.42 C45.14 52.58, 53.39 40.4, 92.11 -2.33 M27.82 71.72 C54.43 41.46, 78.5 13.35, 89.49 1.53 M32.63 68.64 C47.51 55.7, 63.55 33.56, 94.91 -0.22 M31.06 72.74 C57.46 44.39, 80.43 17.06, 95.08 0.04 M41.53 71.12 C58.38 44.01, 78.42 27.15, 101.22 -3.51 M39.95 72.97 C64.36 45.82, 87.84 14.85, 99.6 0.18 M46.66 69.55 C69 44.23, 89.77 16.95, 105.13 -3.28 M43.47 73.98 C60.6 52.36, 81.41 32.23, 106.68 -1.4 M51.12 68.34 C68.5 55.3, 82.36 35.36, 111.44 -1.77 M49.48 69.91 C70.65 48.97, 91.82 25.16, 111.69 1.49 M57.78 71.7 C72.7 56.15, 83.84 36.93, 115.18 -2.5 M55.09 71 C75.67 46.76, 96.65 20.79, 115.89 -1.19 M57.33 68.84 C75.08 58.94, 86.35 43.35, 118.46 3.06 M61.45 72.93 C74.91 53.46, 89.34 39.36, 120.02 -0.1 M65.94 75.02 C84.35 53.31, 103.11 31.91, 127.42 -3.07 M64.06 72.36 C77.12 56.63, 90.44 38.9, 127.88 -0.73 M73.41 68.71 C87.97 54.86, 104.95 32.92, 135.66 -3.54 M71.58 72.27 C90.89 47.45, 112.65 22.19, 134.51 0.69 M72.76 72.72 C94.61 47.63, 121.48 21.17, 133.89 3.43 M76.15 73.47 C101.51 45.39, 124.16 14.32, 138.49 -1.31 M80.36 75.33 C104.37 46.6, 124.08 25.39, 142.08 1.23 M80.22 72 C106.63 43.01, 129.43 18.87, 142.73 -2.02 M85.56 71.38 C109.54 45.07, 136.98 15.03, 147.02 -0.06 M86.83 70.58 C104.7 49.04, 123.73 28.03, 146.85 -1.13 M94.81 71.42 C117.34 43.29, 137.15 17.41, 150.49 1.48 M90.42 72.04 C110.84 50.83, 125.21 33.27, 151.91 0.74 M97.32 70.84 C121.65 47.18, 139.91 22.24, 154.89 -3.28 M95.18 70.77 C113.81 56.4, 125.87 38.41, 160.77 -0.55 M100.47 75.73 C121.61 48.3, 143.89 21.19, 163.32 2.63 M101.18 70.91 C117.62 55.2, 130.04 41.98, 162.92 -1.22 M106.74 68.27 C123.87 48.19, 141.06 31.88, 173.27 3.37 M105.97 70 C132.27 44.85, 154.95 17.56, 170.73 -0.1 M110.66 72.1 C128.16 51.04, 146.92 37.87, 175.38 4.93 M112.17 72.72 C127.74 54.83, 144.21 37.5, 175 2.27 M114.2 70.17 C130.56 54.26, 141.44 43.09, 171.08 8.31 M119.62 71.03 C131.8 53.77, 145.77 40.81, 173.26 9.12 M120.45 73.92 C144.83 56.94, 160.83 29.91, 172.61 13.49 M121.71 73.67 C134.27 57.17, 145.38 46.13, 174.46 13.77 M125.74 72.34 C142.89 56.71, 156.73 36.06, 170.1 20.73 M130.18 73.5 C137.52 60.9, 147.28 47.86, 172.78 21.24 M137.25 69.14 C150.42 57.29, 159.09 39.82, 175.04 23.85 M131.45 73.05 C143.97 60.47, 156.39 46.37, 171.7 27.8 M141.13 71.87 C150.27 56.51, 161.49 41.48, 177.11 35.62 M139.4 71.87 C148.77 58.19, 158.98 48.21, 175.64 30.75 M144.15 73.03 C153.88 62.08, 159.02 57.41, 177.16 37.17 M143.71 72.01 C153.64 59.6, 163.6 49.92, 171.53 40.05 M149.8 71.2 C159.27 64.49, 164.31 55.63, 174.63 43.81 M150.65 73.45 C157.64 61.66, 166.4 51.71, 174.94 44.52 M151.93 68.17 C158.82 66.35, 163.89 57.36, 173.2 50.2 M155.43 71.53 C160.22 68.49, 160.94 64.04, 172.45 51.3 M158.87 74.05 C161.63 67.04, 171.14 63.01, 176.23 56.19 M158.98 72.4 C166.18 67.33, 171.94 59.43, 171.76 56 M163.82 72.32 C169.36 67.13, 171.34 64.95, 172.43 63.55 M164.59 71.02 C169.53 68.37, 171.41 65.47, 174.76 62.37 M171.33 72.05 C170.9 70.74, 171.13 69.78, 174.23 67.88 M170.52 71.7 C172.11 70.68, 172.8 69.67, 173.17 68.59" stroke="#40c057" stroke-width="0.5" fill="none"></path><path d="M2.54 -0.27 C40.67 -1.15, 80.49 1.83, 172.9 -1.16 M-1.67 -0.1 C37.57 1.81, 71.71 4.26, 173.1 -0.36 M175.7 -0.32 C173.41 18.71, 169.66 32.73, 173.94 68.7 M172.48 0.5 C173.83 18.5, 172.5 41.88, 171.23 69.1 M175.02 73.58 C114.72 76.18, 65.93 72.73, -3.57 71.2 M173.92 72.38 C128.98 66.96, 87.81 68.64, 0.48 69.21 M1.86 69.63 C-2.13 56.23, 3.84 35.65, 0.81 -3.82 M-0.24 71.72 C0.02 45.16, 1.11 16.62, 0.69 0.58" stroke="#000000" stroke-width="1" fill="none"></path></g><g transform="translate(25.101412340756724 310.63901438814173) rotate(0 78.5 25)"><text x="78.5" y="18" font-family="Virgil, Segoe UI Emoji" font-size="20px" fill="#000000" text-anchor="middle" style="white-space: pre;" direction="ltr">Classification &amp;</text><text x="78.5" y="43" font-family="Virgil, Segoe UI Emoji" font-size="20px" fill="#000000" text-anchor="middle" style="white-space: pre;" direction="ltr">Regression</text></g><g stroke-linecap="round"><g transform="translate(281.68075968625453 253.02545350430591) rotate(0 -66.19915698827117 18.77958138291433)"><path d="M-0.19 -0.76 C-22.38 5.33, -110.55 31.35, -132.21 38.32" stroke="#000000" stroke-width="1.5" fill="none" stroke-dasharray="8 9"></path></g><g transform="translate(281.68075968625453 253.02545350430591) rotate(0 -66.19915698827117 18.77958138291433)"><path d="M-109.33 20.23 C-119 29.19, -123.06 31.09, -135.89 36.78" stroke="#000000" stroke-width="1.5" fill="none"></path></g><g transform="translate(281.68075968625453 253.02545350430591) rotate(0 -66.19915698827117 18.77958138291433)"><path d="M-103.33 39.85 C-115.24 42.27, -121.3 37.64, -135.89 36.78" stroke="#000000" stroke-width="1.5" fill="none"></path></g></g><mask></mask><g stroke-linecap="round" transform="translate(41.260978799620716 416.4466769367991) rotate(0 57.5 30)"><path d="M0 0 C0 0, 0 0, 0 0 M0 0 C0 0, 0 0, 0 0 M0.26 6.91 C0.52 5.2, 0.79 4.8, 5.52 -0.01 M-0.75 6.24 C0.9 4.1, 3.57 3.29, 5.35 0.85 M1.83 13.82 C1 9.22, 4.33 1.61, 11.76 -2.36 M-0.68 10.98 C1.75 7.82, 3.84 5.92, 10.81 0.29 M-2.89 17.91 C1.44 13.33, 6.13 5.06, 11.64 1.71 M-2.11 17.25 C4.56 12.61, 13.38 5.6, 16.35 -0.43 M3.4 22.47 C5.57 17.19, 10.87 10.25, 19.52 0.99 M-0.04 25.53 C6.89 16.89, 15.15 8.8, 19.42 0.51 M-2.59 33.6 C8.09 23.89, 10.89 12.94, 28.69 -1.92 M0.74 29.15 C8.17 20.52, 14.29 12.12, 24.33 0.3 M-2.42 40.26 C11.6 29.82, 18.76 12.93, 35.13 -3.33 M-2.02 37.68 C9.99 26.34, 22.14 12.21, 33.26 -0.7 M1.68 39.9 C16.61 25.52, 24.31 6.52, 39.62 1.78 M-0.76 44.48 C9.43 33.42, 18.77 22.84, 36.54 -1.25 M-0.01 51.61 C15.78 29.1, 31.27 11, 40.18 -3.31 M-0.66 48.53 C9.93 37.04, 19.56 23.83, 43.27 0.29 M-1.03 53.66 C16.37 35.87, 27.69 25.06, 49.89 -0.24 M-1.61 54.68 C15.37 38.39, 28.79 23.2, 47.54 -0.45 M-0.17 63.72 C19.35 37.74, 38.07 20.04, 49.29 1.33 M0.68 58.56 C18.2 40.45, 35.82 18.95, 55.14 1.69 M8.87 57.37 C26.02 39.2, 40.61 21.34, 60.25 -3.37 M7.29 59.79 C16.6 43.94, 33.47 27.1, 57.72 -1.02 M14.81 58.89 C32.43 39.49, 46.47 21.11, 66.37 2.57 M9.73 61.4 C28.95 43.01, 41.1 24.67, 63.45 -1.63 M19.08 63.24 C25.08 50.04, 36.89 37.38, 70.79 2.7 M14.61 58.56 C26.93 47.95, 40.66 36.07, 67.3 -0.99 M18.93 63 C36.04 43.2, 55.93 16.43, 72.66 -3.96 M22.99 58.16 C32.21 47.22, 41.68 32.38, 73.61 -0.15 M29.32 61.22 C37.97 46.91, 48.07 37.74, 76.9 -2.02 M26.64 62.41 C39.58 45, 55.03 26.35, 78.37 1.22 M31.31 60.31 C46.7 46.3, 63 26.64, 86.7 1.11 M32.67 58.34 C46.42 42.72, 59.23 25.35, 83.85 0.32 M33.89 58.9 C51.46 44.67, 64.45 29.52, 89.29 0.15 M35.76 61.42 C52.25 40.59, 71.12 21.96, 88.84 0.87 M46.41 56.74 C60.16 41.99, 75.68 27.65, 96.36 0.79 M42.81 61.06 C53.62 45.49, 66.1 33.42, 95.28 0.61 M44.4 59.56 C71.06 38.2, 84.69 18.32, 97.96 -3.41 M49.18 60.28 C65.47 35.98, 87.57 15.64, 102.49 0.89 M53.34 60.69 C74.76 35.36, 91.75 12.44, 102.82 1.81 M54.65 61.88 C70.27 43.34, 83.64 23.83, 105.83 -1.79 M61.78 58.18 C81.73 38.76, 95.2 18.64, 108.25 -3.64 M58.96 60.36 C77.38 41.27, 95.58 20.08, 110.92 1.83 M66.5 59.95 C85.41 35.21, 102.05 14.7, 115.24 0.08 M63.23 59.72 C81.48 39.19, 99.88 16.33, 114.97 2.79 M72.26 61.39 C83.29 43.31, 95.94 30.71, 114.9 8.99 M68.02 61.7 C87.66 36.98, 105.28 17.95, 117.67 6.73 M77.62 62.27 C91.28 44.96, 97.92 25.48, 117.54 14.75 M75.48 59.44 C84.89 48.97, 95.83 34.75, 116.45 12.2 M83.38 59.55 C96.46 47.62, 104.59 30.51, 119.17 17.42 M80.1 60.97 C92.5 46.91, 107.08 30.67, 117.37 19.96 M86.4 64.34 C92.19 48.8, 102.78 47.83, 112.03 25.04 M86.82 58.8 C94.38 49.26, 104.32 36.55, 115.93 23.34 M88.01 62.69 C96.95 50.55, 105.82 46.22, 112.27 35.24 M89.79 61.5 C98.78 51.77, 102.04 46.26, 117.08 30.51 M95.87 64.54 C99.63 52.59, 107.33 47.17, 113.13 36.4 M94.51 59.22 C102.95 51.43, 108.81 46.35, 114.71 36.32 M100.33 56.53 C107.87 50.52, 114 46.42, 114.08 44.76 M100.53 59.29 C106.06 54.01, 109.23 53.21, 117.1 44.09 M107.83 59.35 C112.24 53.89, 110.06 51.16, 113.47 49.83 M107.32 59.98 C108.77 59.28, 110.48 55.48, 116.75 49.77 M111.91 60.89 C111.82 58.63, 114.88 56.7, 115.28 55.85 M111.55 60.45 C113.44 58.39, 113.95 57.41, 116.4 55.87" stroke="#40c057" stroke-width="0.5" fill="none"></path><path d="M-0.03 -3 C44.75 1.52, 82.44 -3.07, 113.46 -2.93 M-0.71 0.22 C26.61 -1, 49.39 -3.31, 113.01 -1.94 M116.74 -0.93 C113.69 25.49, 112.61 46.41, 118.16 60.13 M113.42 -0.63 C117.03 18.66, 113.4 39.19, 113.31 61.76 M117.15 62.81 C70.52 54.8, 28.84 56.13, 1.54 56.47 M114 59.77 C70.13 59.28, 22.12 57.85, -1.09 59.06 M3.17 63.07 C0.95 40.03, -3.41 21.97, -0.45 3.27 M1.75 60.95 C0.37 43.41, 0.15 26.61, 1.78 -1.39" stroke="#000000" stroke-width="1" fill="none"></path></g><g transform="translate(50.760978799620716 433.9466769367991) rotate(0 48 12.5)"><text x="48" y="18" font-family="Virgil, Segoe UI Emoji" font-size="20px" fill="#000000" text-anchor="middle" style="white-space: pre;" direction="ltr">Clustering</text></g><g stroke-linecap="round"><g transform="translate(327.51110252575927 378.26453229429353) rotate(0 -81.26907998255865 31.91697026507245)"><path d="M-2.1 2.07 C-28.72 12.36, -133.51 51.86, -160.44 61.77" stroke="#000000" stroke-width="1.5" fill="none" stroke-dasharray="8 9"></path></g><g transform="translate(327.51110252575927 378.26453229429353) rotate(0 -81.26907998255865 31.91697026507245)"><path d="M-134.66 43.2 C-145 43.58, -151.61 49.65, -163.78 61.57" stroke="#000000" stroke-width="1.5" fill="none"></path></g><g transform="translate(327.51110252575927 378.26453229429353) rotate(0 -81.26907998255865 31.91697026507245)"><path d="M-127.48 62.43 C-139.78 57.45, -148.35 58.27, -163.78 61.57" stroke="#000000" stroke-width="1.5" fill="none"></path></g></g><mask></mask><g stroke-linecap="round" transform="translate(554.014329564181 599.2877689172838) rotate(0 138 118)"><path d="M0.7 -0.89 C79.76 -4.34, 162.95 -5.74, 275.85 2.82 M277.84 -0.61 C274.39 59.06, 273.17 127.9, 275.73 238.37 M277.5 234.22 C180.65 237.15, 86.47 235.44, 0.78 237.09 M-1.3 232.81 C1.8 181, 4.2 134.22, 2.17 -2.39" stroke="#000000" stroke-width="1.5" fill="none" stroke-dasharray="8 9"></path></g><g transform="translate(559.014329564181 604.2877689172838) rotate(0 129 112.5)"><text x="0" y="18" font-family="Virgil, Segoe UI Emoji" font-size="20px" fill="#000000" text-anchor="start" style="white-space: pre;" direction="ltr">They can be parametrized</text><text x="0" y="43" font-family="Virgil, Segoe UI Emoji" font-size="20px" fill="#000000" text-anchor="start" style="white-space: pre;" direction="ltr">through a set of fixed </text><text x="0" y="68" font-family="Virgil, Segoe UI Emoji" font-size="20px" fill="#000000" text-anchor="start" style="white-space: pre;" direction="ltr">parameters and we </text><text x="0" y="93" font-family="Virgil, Segoe UI Emoji" font-size="20px" fill="#000000" text-anchor="start" style="white-space: pre;" direction="ltr">typically assume that the</text><text x="0" y="118" font-family="Virgil, Segoe UI Emoji" font-size="20px" fill="#000000" text-anchor="start" style="white-space: pre;" direction="ltr">distribution is normal </text><text x="0" y="143" font-family="Virgil, Segoe UI Emoji" font-size="20px" fill="#000000" text-anchor="start" style="white-space: pre;" direction="ltr">(thanks to the CLT). </text><text x="0" y="168" font-family="Virgil, Segoe UI Emoji" font-size="20px" fill="#000000" text-anchor="start" style="white-space: pre;" direction="ltr"></text><text x="0" y="193" font-family="Virgil, Segoe UI Emoji" font-size="20px" fill="#000000" text-anchor="start" style="white-space: pre;" direction="ltr">E.g. Logistic Regression, </text><text x="0" y="218" font-family="Virgil, Segoe UI Emoji" font-size="20px" fill="#000000" text-anchor="start" style="white-space: pre;" direction="ltr">Naive Bayes, LDA...</text></g><g stroke-linecap="round" transform="translate(869.3722551029496 608.7843165977829) rotate(0 117.5 107.5)"><path d="M-3.1 -1.29 C85.38 -1.67, 175.54 4.21, 233.8 0.37 M232.87 -3.48 C233.66 86.43, 236.78 168.85, 236.52 214.19 M234.42 217.66 C171.75 213.53, 109.12 213.92, -2.66 213.95 M0.58 212.04 C4.53 134.6, 3.71 46.42, 1.88 2.46" stroke="#000000" stroke-width="1.5" fill="none" stroke-dasharray="8 9"></path></g><g transform="translate(874.3722551029496 613.7843165977829) rotate(0 112.5 100)"><text x="0" y="18" font-family="Virgil, Segoe UI Emoji" font-size="20px" fill="#000000" text-anchor="start" style="white-space: pre;" direction="ltr">They do not require </text><text x="0" y="43" font-family="Virgil, Segoe UI Emoji" font-size="20px" fill="#000000" text-anchor="start" style="white-space: pre;" direction="ltr">any assumption about </text><text x="0" y="68" font-family="Virgil, Segoe UI Emoji" font-size="20px" fill="#000000" text-anchor="start" style="white-space: pre;" direction="ltr">the distribution, </text><text x="0" y="93" font-family="Virgil, Segoe UI Emoji" font-size="20px" fill="#000000" text-anchor="start" style="white-space: pre;" direction="ltr">however they have </text><text x="0" y="118" font-family="Virgil, Segoe UI Emoji" font-size="20px" fill="#000000" text-anchor="start" style="white-space: pre;" direction="ltr">less statistical power.</text><text x="0" y="143" font-family="Virgil, Segoe UI Emoji" font-size="20px" fill="#000000" text-anchor="start" style="white-space: pre;" direction="ltr"></text><text x="0" y="168" font-family="Virgil, Segoe UI Emoji" font-size="20px" fill="#000000" text-anchor="start" style="white-space: pre;" direction="ltr">E.g. KNN, Decision </text><text x="0" y="193" font-family="Virgil, Segoe UI Emoji" font-size="20px" fill="#000000" text-anchor="start" style="white-space: pre;" direction="ltr">Trees, SVMs...</text></g><g stroke-linecap="round"><g transform="translate(732.6109862735811 500.3166082352309) rotate(0 -6.4447970499140865 43.091574759064315)"><path d="M-1.08 -2.05 C-2.91 13.08, -10.84 73.33, -11.81 88.24" stroke="#000000" stroke-width="1.5" fill="none" stroke-dasharray="8 9"></path></g><g transform="translate(732.6109862735811 500.3166082352309) rotate(0 -6.4447970499140865 43.091574759064315)"><path d="M-22.05 55.79 C-17.87 70.73, -17.12 75.41, -8.34 90.43" stroke="#000000" stroke-width="1.5" fill="none"></path></g><g transform="translate(732.6109862735811 500.3166082352309) rotate(0 -6.4447970499140865 43.091574759064315)"><path d="M-1.64 57.9 C-2.95 72.11, -7.73 76.22, -8.34 90.43" stroke="#000000" stroke-width="1.5" fill="none"></path></g></g><mask></mask><g stroke-linecap="round"><g transform="translate(967.3352564536963 502.8783005560326) rotate(0 1.1994124209013535 46.32832490461715)"><path d="M-2.05 -2.34 C-0.88 13.67, 3.51 79.15, 4.45 95" stroke="#000000" stroke-width="1.5" fill="none" stroke-dasharray="8 9"></path></g><g transform="translate(967.3352564536963 502.8783005560326) rotate(0 1.1994124209013535 46.32832490461715)"><path d="M-10.94 67.33 C-1.65 71.98, -2.35 82.6, 6.64 94.27" stroke="#000000" stroke-width="1.5" fill="none"></path></g><g transform="translate(967.3352564536963 502.8783005560326) rotate(0 1.1994124209013535 46.32832490461715)"><path d="M9.54 66.02 C14.56 70.65, 9.6 81.53, 6.64 94.27" stroke="#000000" stroke-width="1.5" fill="none"></path></g></g><mask></mask><g stroke-linecap="round" transform="translate(1139.8899715975276 596.7276950088471) rotate(0 111.5 93.5)"><path d="M-0.17 3.14 C57.11 3.6, 119.67 5.1, 222.37 -2.1 M222.68 2.82 C221.11 36.58, 218.15 76.95, 220.7 186.31 M223.87 188.21 C135.77 186.84, 56.95 186.58, -3.28 187.57 M2.58 184.16 C-1.14 149.54, -4.59 102.9, 0.2 -2.24" stroke="#000000" stroke-width="1.5" fill="none" stroke-dasharray="8 9"></path></g><g transform="translate(1144.8899715975276 601.7276950088471) rotate(0 105 87.5)"><text x="0" y="18" font-family="Virgil, Segoe UI Emoji" font-size="20px" fill="#000000" text-anchor="start" style="white-space: pre;" direction="ltr">They assume the </text><text x="0" y="43" font-family="Virgil, Segoe UI Emoji" font-size="20px" fill="#000000" text-anchor="start" style="white-space: pre;" direction="ltr">data is linearly </text><text x="0" y="68" font-family="Virgil, Segoe UI Emoji" font-size="20px" fill="#000000" text-anchor="start" style="white-space: pre;" direction="ltr">separable. Therefore</text><text x="0" y="93" font-family="Virgil, Segoe UI Emoji" font-size="20px" fill="#000000" text-anchor="start" style="white-space: pre;" direction="ltr">they find a linear </text><text x="0" y="118" font-family="Virgil, Segoe UI Emoji" font-size="20px" fill="#000000" text-anchor="start" style="white-space: pre;" direction="ltr">function (hyperplane) </text><text x="0" y="143" font-family="Virgil, Segoe UI Emoji" font-size="20px" fill="#000000" text-anchor="start" style="white-space: pre;" direction="ltr">to separate the </text><text x="0" y="168" font-family="Virgil, Segoe UI Emoji" font-size="20px" fill="#000000" text-anchor="start" style="white-space: pre;" direction="ltr">data. </text></g><g stroke-linecap="round" transform="translate(1448.4100076778614 593.2281088136715) rotate(0 102 55)"><path d="M-1.27 0.39 C47.23 -1.36, 87.61 -5.5, 200.45 -3.47 M205.74 -0.93 C202.61 45.11, 201.53 85.65, 207.16 110.13 M201.18 108.88 C141.02 109.9, 68.48 111.87, -3.03 113.15 M2.15 112.81 C-2.72 65.13, -1.21 25.16, 1.54 -3.53" stroke="#000000" stroke-width="1.5" fill="none" stroke-dasharray="8 9"></path></g><g transform="translate(1448.4100076778614 593.2281088136715) rotate(0 97 50)"><text x="0" y="18" font-family="Virgil, Segoe UI Emoji" font-size="20px" fill="#000000" text-anchor="start" style="white-space: pre;" direction="ltr">They have nonlinear</text><text x="0" y="43" font-family="Virgil, Segoe UI Emoji" font-size="20px" fill="#000000" text-anchor="start" style="white-space: pre;" direction="ltr">boundaries like </text><text x="0" y="68" font-family="Virgil, Segoe UI Emoji" font-size="20px" fill="#000000" text-anchor="start" style="white-space: pre;" direction="ltr">Decision Trees, </text><text x="0" y="93" font-family="Virgil, Segoe UI Emoji" font-size="20px" fill="#000000" text-anchor="start" style="white-space: pre;" direction="ltr">ensemble...</text></g><g stroke-linecap="round"><g transform="translate(1237.6930064030385 496.2145598627176) rotate(0 0.7392653125170909 47.187292527194586)"><path d="M0.31 2.43 C0.07 17.92, 1.53 77.4, 1.13 91.94" stroke="#000000" stroke-width="1.5" fill="none" stroke-dasharray="8 9"></path></g><g transform="translate(1237.6930064030385 496.2145598627176) rotate(0 0.7392653125170909 47.187292527194586)"><path d="M-5.71 65.96 C-6.08 72.33, -5.3 81.9, 4.82 91.62" stroke="#000000" stroke-width="1.5" fill="none"></path></g><g transform="translate(1237.6930064030385 496.2145598627176) rotate(0 0.7392653125170909 47.187292527194586)"><path d="M14.81 65.92 C6.41 72.35, -0.83 81.93, 4.82 91.62" stroke="#000000" stroke-width="1.5" fill="none"></path></g></g><mask></mask><g stroke-linecap="round"><g transform="translate(1440.9081202109355 488.72115816441874) rotate(0 35.89017134551341 47.98353200880865)"><path d="M2.43 1.53 C14.16 17.22, 58.57 79.12, 69.35 94.43" stroke="#000000" stroke-width="1.5" fill="none" stroke-dasharray="8 9"></path></g><g transform="translate(1440.9081202109355 488.72115816441874) rotate(0 35.89017134551341 47.98353200880865)"><path d="M46.83 76.7 C48.77 77.51, 53.86 89.69, 69.03 97.25" stroke="#000000" stroke-width="1.5" fill="none"></path></g><g transform="translate(1440.9081202109355 488.72115816441874) rotate(0 35.89017134551341 47.98353200880865)"><path d="M63.54 64.79 C61.09 69.05, 61.76 84.37, 69.03 97.25" stroke="#000000" stroke-width="1.5" fill="none"></path></g></g><mask></mask><g stroke-linecap="round" transform="translate(302.93519703487436 621.901655327536) rotate(0 110 56)"><path d="M-0.63 -2.11 C64.97 -5.45, 140.05 -2.36, 222.44 1.51 M217.7 -0.69 C222.48 31.14, 220.27 63.02, 221.41 108.84 M216.7 112.57 C157.95 113.58, 104.4 112.76, -2.46 113.87 M0.2 109.76 C2.26 67, 4.57 31.82, -2.09 -2" stroke="#000000" stroke-width="1.5" fill="none" stroke-dasharray="8 9"></path></g><g transform="translate(307.93519703487436 626.901655327536) rotate(0 103.5 50)"><text x="0" y="18" font-family="Virgil, Segoe UI Emoji" font-size="20px" fill="#000000" text-anchor="start" style="white-space: pre;" direction="ltr">Learn from a large </text><text x="0" y="43" font-family="Virgil, Segoe UI Emoji" font-size="20px" fill="#000000" text-anchor="start" style="white-space: pre;" direction="ltr">set of unlabeled </text><text x="0" y="68" font-family="Virgil, Segoe UI Emoji" font-size="20px" fill="#000000" text-anchor="start" style="white-space: pre;" direction="ltr">data and a small </text><text x="0" y="93" font-family="Virgil, Segoe UI Emoji" font-size="20px" fill="#000000" text-anchor="start" style="white-space: pre;" direction="ltr">set of labeled data.</text></g><g stroke-linecap="round"><g transform="translate(538.0959461693728 440.83463209316324) rotate(0 -45.99436590297955 87.72920838296795)"><path d="M-1.71 -2.78 C-17.01 27.01, -75.94 148.17, -90.28 178.24" stroke="#000000" stroke-width="1.5" fill="none" stroke-dasharray="8 9"></path></g><g transform="translate(538.0959461693728 440.83463209316324) rotate(0 -45.99436590297955 87.72920838296795)"><path d="M-91.24 144.51 C-84.74 158.63, -86.69 171.28, -91.21 177.03" stroke="#000000" stroke-width="1.5" fill="none"></path></g><g transform="translate(538.0959461693728 440.83463209316324) rotate(0 -45.99436590297955 87.72920838296795)"><path d="M-72.76 153.43 C-72.79 164.16, -81.29 173.64, -91.21 177.03" stroke="#000000" stroke-width="1.5" fill="none"></path></g></g><mask></mask><g stroke-linecap="round" transform="translate(10 558.855907543315) rotate(0 105 55.5)"><path d="M-3.43 3.27 C58.91 6.18, 119.91 2.87, 208.93 1.71 M210.13 0.95 C210.62 28.34, 206.46 52.61, 213.45 109.45 M213.11 113.67 C169.24 105.35, 125.83 110.34, -1.15 107.85 M-3.53 114.84 C4 75.04, -0.76 42.81, 1.36 0.96" stroke="#000000" stroke-width="1.5" fill="none" stroke-dasharray="8 9"></path></g><g transform="translate(15 563.855907543315) rotate(0 96.5 50)"><text x="0" y="18" font-family="Virgil, Segoe UI Emoji" font-size="20px" fill="#000000" text-anchor="start" style="white-space: pre;" direction="ltr">- centroid-based</text><text x="0" y="43" font-family="Virgil, Segoe UI Emoji" font-size="20px" fill="#000000" text-anchor="start" style="white-space: pre;" direction="ltr">- density-based</text><text x="0" y="68" font-family="Virgil, Segoe UI Emoji" font-size="20px" fill="#000000" text-anchor="start" style="white-space: pre;" direction="ltr">- distribution-based</text><text x="0" y="93" font-family="Virgil, Segoe UI Emoji" font-size="20px" fill="#000000" text-anchor="start" style="white-space: pre;" direction="ltr">- hierarchical</text></g><g stroke-linecap="round"><g transform="translate(93.10408176236342 485.4312697740097) rotate(0 3.7461297404024663 32.07440542036329)"><path d="M2.59 -0.22 C3.87 10.96, 4.95 53.95, 4.9 64.37" stroke="#000000" stroke-width="1.5" fill="none" stroke-dasharray="8 9"></path></g><g transform="translate(93.10408176236342 485.4312697740097) rotate(0 3.7461297404024663 32.07440542036329)"><path d="M-6.08 39.15 C-2.43 40.83, -3.24 49.32, 2.61 63.68" stroke="#000000" stroke-width="1.5" fill="none"></path></g><g transform="translate(93.10408176236342 485.4312697740097) rotate(0 3.7461297404024663 32.07440542036329)"><path d="M14.44 38.86 C13.97 40.97, 9.04 49.52, 2.61 63.68" stroke="#000000" stroke-width="1.5" fill="none"></path></g></g><mask></mask><g stroke-linecap="round" transform="translate(257.35297037322744 470.7281179276997) rotate(0 72.5 34.5)"><path d="M0 0 C0 0, 0 0, 0 0 M0 0 C0 0, 0 0, 0 0 M1.28 6.2 C2.97 3.99, 5.3 2.61, 4.73 0.53 M-0.56 5.91 C0.65 3.92, 2.4 2.49, 4.72 0.19 M0.28 15.02 C2.3 5.55, 4.86 4.7, 12.25 1.67 M-1.31 10.83 C2.3 10.27, 5.23 6.46, 11.17 -1.04 M-3.19 17.28 C6.98 9.44, 13.95 3.98, 18.74 3.22 M0.7 19.23 C5.74 11.11, 7.71 7.29, 13.97 1.69 M0.59 23.1 C5.49 13.44, 12.69 2.58, 21.11 -3.88 M-0.72 22.44 C8.5 14.49, 12.05 10.49, 21.18 -1.37 M-3.04 34.23 C9.78 22.73, 14.8 14.57, 28.18 3.01 M0.85 30.65 C5.23 22.77, 10.64 14.73, 26.41 -1.29 M-3.18 33.67 C14.56 24.72, 20.96 10.66, 30.74 1.19 M-0.14 38.03 C6.58 24.68, 16.63 16.12, 32.35 0.07 M1.74 39.48 C13.33 24.32, 23.77 12.22, 39.77 -0.05 M-0.15 44.2 C8.76 32.31, 17.08 24.89, 35.12 1.43 M-2.82 49.99 C8.42 38.98, 14.65 27.27, 42.83 -2.57 M0.97 50.11 C14.29 33.15, 30.12 15.84, 40.96 -0.42 M4.17 57.37 C17.32 39.86, 30.61 22.51, 49.94 1.51 M-0.03 56.28 C18.29 36.81, 31.75 17.32, 46.4 0.99 M-2.8 60.54 C24.16 35.14, 44.93 9.67, 49.95 2.65 M-1.59 62.43 C18.51 37.42, 39.24 13.95, 54.98 -0.66 M-4.08 70.74 C18.72 47.05, 29.35 28.3, 56.42 2.83 M-1.34 65.73 C20.14 44.36, 42.03 23.15, 57.41 -0.85 M4.31 70.46 C20.17 42.41, 44.77 19.69, 63.98 -3.65 M1.4 70.39 C20.95 47.61, 39.68 25.7, 64.25 1.22 M5.17 69.52 C27.64 50.95, 40.45 27.8, 70.25 -1.23 M8.41 72.47 C31.55 45.28, 52.31 18.97, 70.14 -1.66 M11.89 71.29 C26.75 55.52, 37.45 38.14, 72.15 3.72 M12.65 68.73 C26.03 55.3, 41.54 39.08, 74.44 0.73 M14.27 72.43 C30.78 53.57, 44.12 42.06, 79.81 3.84 M16.4 69.15 C33.65 54.79, 46.33 37.53, 77.45 -0.34 M23.52 67.62 C37.36 57.84, 47.99 42.41, 88.95 3.62 M22.59 72.22 C39.22 56.91, 53.08 40.53, 85.06 1.01 M26.21 74.37 C46.44 50.91, 62.46 32.79, 86.75 0.28 M29.02 70.59 C51.19 45.34, 73.92 20.08, 89.01 0.84 M32.61 69.93 C47.34 50.37, 67.42 25.07, 96.22 -3.38 M35.03 70.5 C51.47 46.73, 73.77 25.8, 95.48 -1.09 M38.57 72.15 C59.79 52.21, 75.46 27.34, 102.08 -2.02 M39.73 69.48 C63.96 45.42, 85.47 14.12, 101.36 -1.71 M41.9 68.36 C64.23 45.47, 84.07 22.72, 103.11 0.98 M44.63 71.82 C68.12 40.22, 92.17 14.61, 106.89 -1.11 M52.24 72.27 C64.16 55.47, 78.07 33.73, 110.08 -1.47 M47.87 70.19 C64.6 54.63, 82.65 37.23, 111.88 1.05 M51.44 68.77 C69.82 57.6, 80.11 37.75, 117.41 1.37 M54.88 69.13 C71.67 51.45, 86.67 33.31, 115.69 -0.16 M59.42 70.91 C80.67 41.9, 105.92 20.04, 120.36 -0.77 M60.61 70.71 C76.18 56.42, 90.16 38.66, 120.77 0.85 M62.59 72.68 C79.43 53.56, 93.77 30.6, 128.19 -2.07 M64.14 70 C86.62 47.89, 102.17 27.19, 126.08 2.04 M71.64 73.95 C84.15 54.86, 97.83 33.13, 131.86 -2.98 M70.96 72.71 C91.29 44.53, 111.68 23.49, 133.11 -1.96 M74.02 73.3 C91.12 50.02, 112.43 33.99, 137.89 -1.3 M75.58 70.69 C96.76 46.54, 114.26 21.86, 136.13 1.7 M83.72 68.95 C101.04 51.3, 118.14 31.72, 144.79 0.58 M79.78 71.52 C101.63 49.02, 121.59 27.47, 144.8 -0.35 M85.72 67.55 C107.01 49.97, 121.02 31.64, 143.58 -1.8 M87.25 70.08 C108.03 49.42, 123.8 26.79, 145.12 3.42 M93.81 69.15 C101.45 52.08, 114.83 40.81, 150.16 9.79 M93.78 70.1 C107.33 57.89, 119.66 40.98, 146.03 8.92 M94.99 68.01 C114.76 53.19, 130.99 26.74, 143.09 12.18 M98 71.73 C114.47 48.12, 133.86 26.12, 145.58 13.02 M99.35 69.51 C113.14 55.92, 127.87 40.63, 148.79 18.42 M103.5 69.1 C114.47 56.13, 128.5 40.7, 146.36 21.9 M107.77 67.73 C122.69 52.62, 134.51 40.4, 146.63 22.44 M108.91 70.62 C119.67 55.1, 132.61 43.32, 148.97 24.34 M117.11 74.63 C129.11 58.47, 136.64 44.55, 150.1 32.14 M113.34 68.8 C121.54 61.56, 129.46 49.82, 147.47 31.56 M121.32 73.16 C127.43 63.81, 138.24 49.55, 146.52 35.04 M119.85 72.09 C125.46 65.32, 131.11 57.34, 145.41 39.47 M123.18 70.84 C130.9 63.24, 136.55 54.74, 150.92 43.12 M123.52 71.15 C131.49 61.28, 140.97 48.62, 148 44.3 M132.19 72.7 C137.7 65.56, 140.19 62.34, 145.75 50.49 M127.57 70.43 C133.94 63.88, 142.59 55.27, 146.17 48.87 M136.82 70.15 C140.45 65.02, 145.41 63.94, 146.1 58.35 M136.05 69.79 C137.75 68.01, 139.73 62.59, 148.01 54.52 M141.46 70.31 C140.95 70.22, 144.46 68.65, 147.81 63.82 M138.92 71.47 C140.52 67.96, 142.49 66.07, 147.7 62.57" stroke="#40c057" stroke-width="0.5" fill="none"></path><path d="M2.55 -0.29 C31.86 0.13, 72.6 3.54, 141.68 -1.72 M0.19 0.82 C41.92 -0.32, 81.54 -1.95, 145.98 1.5 M145.22 -0.65 C141.91 12.76, 141.16 32.56, 144.08 71.91 M143.9 -1.89 C146.42 17.81, 145.78 34.86, 145 68.18 M141.88 71.88 C102.29 65.25, 53.12 66.02, 1.42 72.08 M144.27 70.41 C115.02 71.15, 83.91 70.7, 0.74 70.55 M3.31 65.79 C1.83 45.3, -1.71 19.87, 0.84 -0.77 M-0.49 68.04 C3.1 46.59, 0.15 28.55, 0.47 1.23" stroke="#000000" stroke-width="1" fill="none"></path></g><g transform="translate(263.35297037322744 480.2281179276997) rotate(0 66.5 25)"><text x="66.5" y="18" font-family="Virgil, Segoe UI Emoji" font-size="20px" fill="#000000" text-anchor="middle" style="white-space: pre;" direction="ltr">Dimensionality</text><text x="66.5" y="43" font-family="Virgil, Segoe UI Emoji" font-size="20px" fill="#000000" text-anchor="middle" style="white-space: pre;" direction="ltr">Reduction</text></g><g stroke-linecap="round"><g transform="translate(383.3975554623321 395.7944015643916) rotate(0 -24.125392568835196 28.67912412644455)"><path d="M-0.53 -1.72 C-8.7 8.31, -39.94 48.62, -47.72 59.07" stroke="#000000" stroke-width="1.5" fill="none" stroke-dasharray="8 9"></path></g><g transform="translate(383.3975554623321 395.7944015643916) rotate(0 -24.125392568835196 28.67912412644455)"><path d="M-41.24 30.42 C-45.26 41.02, -45.61 52.6, -44.81 60" stroke="#000000" stroke-width="1.5" fill="none"></path></g><g transform="translate(383.3975554623321 395.7944015643916) rotate(0 -24.125392568835196 28.67912412644455)"><path d="M-24.92 42.86 C-34.49 49.1, -40.48 56.38, -44.81 60" stroke="#000000" stroke-width="1.5" fill="none"></path></g></g><mask></mask><g transform="translate(669.7103155645673 10) rotate(0 139 10)"><text x="139" y="14" font-family="Virgil, Segoe UI Emoji" font-size="16px" fill="#000000" text-anchor="middle" style="white-space: pre;" direction="ltr">illustrated-machine-learning.github.io</text></g></svg>