<svg version="1.1" xmlns="http://www.w3.org/2000/svg" viewBox="0 0 1630 813.3039191583466" width="100%" height="100%">
  <!-- svg-source:excalidraw -->
  
  <defs>
    <style class="style-fonts">
      @font-face {
        font-family: "Virgil";
        src: url("https://excalidraw.com/Virgil.woff2");
      }
      @font-face {
        font-family: "Cascadia";
        src: url("https://excalidraw.com/Cascadia.woff2");
      }
    </style>
  </defs>
  <g stroke-linecap="round" transform="translate(10 10) rotate(0 805 71)"><path d="M0 0 C0 0, 0 0, 0 0 M0 0 C0 0, 0 0, 0 0 M-1.31 7.42 C2.19 3.02, 3.06 0.59, 5.86 -0.23 M-0.22 5.96 C1.36 5.16, 2.32 3.49, 5.77 0.37 M-1.91 11.63 C2.57 9.29, 3.66 4.74, 7.55 0.12 M-1.09 11.33 C4.34 9.32, 6.67 4.04, 11.21 -0.75 M-1.64 15.92 C1.79 13.36, 8.54 11.1, 16.94 1.14 M-1.85 18.46 C3.58 10.74, 10.69 4.62, 13.97 -0.02 M-0.46 22.44 C3.71 15.64, 10.99 7.84, 19.44 0.56 M1.25 25.46 C6.23 18.57, 13.36 8.21, 22.38 1.41 M2.48 29.63 C5.67 21.27, 14.54 15.6, 24.56 4.15 M-1.69 30.54 C10.59 17.27, 18.24 7.17, 28.22 -0.51 M-0.38 39.79 C14.72 21.83, 20.47 7.76, 29.62 -2.64 M1.31 35.66 C8.01 28.58, 14.92 18.44, 33.72 -1.21 M-2.2 39.94 C8.51 35.85, 14.09 26.6, 38.91 2.18 M-0.75 41.25 C12.6 27.19, 27.88 14.81, 35.87 -1.07 M1.52 46.86 C7.59 35.95, 24.77 26.91, 46.25 1.79 M1.52 49.01 C10.3 34.49, 24.71 22.17, 41.02 1.24 M2.76 56.56 C12.33 36.23, 26.35 23.76, 46.97 -2.59 M-0.12 53.37 C13.94 39.01, 26.4 26.34, 49.02 -0.64 M1.06 61.07 C20.56 44.21, 34.16 16.4, 52.39 -3.05 M0.58 60.06 C15.69 42.88, 33.98 24.54, 51.86 -2.13 M1.26 69.86 C18.08 51.23, 31.17 29.38, 61.87 -0.14 M-1.64 65.51 C16.87 46.08, 32.73 28.06, 57.74 -1.1 M-3.14 74.95 C27.78 44.04, 45.9 19.19, 61.23 1.8 M-0.2 71.69 C21.39 45.06, 47.41 19.26, 65.75 0.81 M1.28 79.8 C14.98 59.38, 33.78 41.02, 66.84 3.45 M-1.22 81.05 C17.8 59.52, 34.08 39.57, 69.99 0.74 M-2.33 88.91 C16.29 59.32, 37.09 41.33, 76.07 -0.8 M-1.59 83.82 C16.23 67.31, 29.14 50.55, 74.17 1.28 M-1.02 92.49 C25.12 62.52, 46.58 39.67, 79.27 1.97 M-0.81 92.72 C18.97 71.51, 41.36 46.58, 79.72 1.12 M-2.29 96 C24.33 72.85, 46.45 40.79, 82.33 -0.12 M0.94 98.22 C17.07 78.21, 37.7 55.85, 84.49 1.58 M-2.71 101.14 C26 76.95, 51.92 49.5, 86.64 -2.93 M-1.77 103.54 C19.33 83.57, 37.44 61.26, 90.78 1.34 M3.28 110.87 C22.19 89.63, 44.04 61.17, 95.58 2.42 M-0.21 111.43 C25.22 83.76, 46.07 57.46, 96.05 -0.98 M-2.74 118.86 C32.71 75.19, 64.83 36.29, 102.57 -1.69 M-1.52 115.6 C33.04 76.35, 69.37 35.67, 100.97 -0.2 M-3.17 118.31 C33.86 85.8, 69.42 37.62, 105.51 1.32 M-0.62 123.33 C39.97 78.59, 79.81 32.61, 108.12 -1.97 M-2.57 131.38 C32.58 88.52, 64.92 52.48, 110.81 -0.92 M-2.19 126.82 C35.22 88.52, 72.01 47.58, 110.03 -0.09 M3.63 134.23 C39.38 84.84, 80.43 39.12, 115.25 3.67 M-1.32 134.1 C46.77 83.93, 87.83 33.47, 115.24 -1.19 M-3.59 142.04 C40.87 93.61, 76.21 51.07, 121.22 0.67 M-0.03 139.89 C46.09 86.62, 89.13 34.66, 123.64 -1.83 M4.99 140.16 C50.25 94.75, 92.51 39.22, 128.05 2.18 M0.6 142.72 C31.82 109.1, 63.88 76.89, 125.88 -1.61 M4.19 144.01 C55.06 84.87, 98.67 34.6, 129.81 -3.75 M5.94 142.56 C49.26 97.88, 91.63 47.17, 133.4 0.15 M12.99 144.22 C46.52 103.69, 84.72 64.37, 135.32 3.71 M14.54 143.97 C36.38 112.4, 63.94 80.53, 138.46 -0.89 M18.4 146.42 C46.15 106.61, 74.11 76.65, 142.68 2.86 M18.1 145.69 C60.56 95.63, 106.12 43.08, 144.86 0.47 M26.7 139.74 C44.92 117.72, 75.19 79.95, 151.23 2.24 M24.79 143.01 C51.75 111.63, 78.55 78.7, 148 1.63 M27.43 145.53 C73.79 99.94, 108.16 51.23, 152.08 -2.6 M27.44 142.45 C68.83 96.97, 107.9 49, 153.52 -1.19 M31.88 142.14 C57.78 109.38, 86.21 73.74, 156.1 3.62 M34.08 144.3 C61.6 108.05, 88.1 79.13, 157.45 1.66 M37.09 145.67 C76.84 93.7, 116.54 50.62, 168.39 -3.33 M40.16 145.31 C80.63 93.25, 125.95 43.2, 164.8 -0.09 M48.39 142.71 C75.03 112.75, 104.4 72.19, 168.35 1.56 M43.09 145.31 C70 110.52, 101.97 75.57, 169.71 1.98 M51.32 147.08 C81.26 107.89, 119.27 71.51, 172.1 1.32 M50.41 145.81 C75.2 113.2, 100.99 82.84, 174.06 1.6 M58.22 140.61 C95.67 96.18, 137.97 51.77, 180.53 1.68 M54.42 144.62 C91.65 95.53, 132.85 51.76, 179.6 0.44 M64.17 145.86 C95.94 104.49, 127.46 66.52, 185.81 -4.11 M60.28 142.52 C93.99 103.51, 131.25 61.37, 186.59 -1.27 M69.5 142.88 C107.8 94.55, 154.91 40.64, 191.35 -2.56 M64.63 141.84 C90.05 115.53, 116.94 87.15, 189.9 1.92 M67.81 141.98 C115.25 96.3, 152.75 50.03, 194.29 -3.2 M71.77 145.11 C112.07 97.87, 149.55 58.45, 197.65 -0.75 M76.47 140.43 C111.12 105.7, 138.42 74.32, 197.58 2.19 M76.21 141.66 C108.4 106.57, 141.57 69.14, 199.32 -1.59 M84.57 147.28 C123.44 95.94, 171.75 39.07, 208.4 -3.67 M82.85 142.29 C124.4 98.8, 166.82 49.68, 208.4 0.15 M82.84 140.8 C116.05 111.53, 152.05 71.33, 210.18 1.17 M84.92 142.59 C127.05 97.85, 165.28 54.43, 210.49 0.93 M94.87 145.5 C137.04 91.01, 185.5 31.69, 217.13 2.64 M91.41 141.84 C119.4 110.11, 146.53 81.54, 217.95 -0.51 M96.42 141.15 C129.44 103.51, 161.05 70.13, 222.2 -0.54 M98.44 145.91 C130.3 103.68, 162.49 68.01, 222 -0.44 M101.26 140.23 C138.46 99.94, 167.98 67.65, 227.6 -0.22 M103.28 142.6 C145.99 96.68, 187.95 51.84, 227.36 0.4 M109.17 140.76 C148.74 96, 190.34 51.2, 232.81 -1.96 M108.41 144.27 C136.78 114.8, 164.22 84.17, 232.36 -0.53 M112.43 146.95 C142.04 116.5, 166.16 83.4, 240.41 -3.6 M112.22 142.47 C142.41 116.28, 167.43 83.52, 238.95 -0.19 M115.84 146.05 C166.38 93.49, 206.2 42.64, 247.33 1.76 M117.07 142.58 C164.78 92.89, 209.65 38.68, 244.04 0.87 M127.18 145.01 C165.14 96.82, 205.48 52.23, 252.22 -1.21 M123.95 142.42 C167.14 96.72, 211.3 45.78, 246.96 1.46 M129.29 147.31 C180.71 88.6, 225.53 36.27, 253.19 3.36 M128.6 142.86 C175.13 89.75, 221.96 38.25, 255.42 -0.97 M134.46 141.63 C161.32 111.7, 180.4 82.73, 259.88 -0.64 M136.11 142.47 C179.48 89.78, 226.44 36.08, 257.6 0.41 M140.52 142.69 C180.1 100.6, 209.75 59.89, 267.94 -0.59 M141.1 144.16 C180.17 99.09, 218.64 52.19, 264.84 0.31 M145.3 139.91 C184.19 100.05, 225.4 50.81, 271.01 -2.35 M146.28 141.73 C179.86 103.06, 219.08 58.82, 271.68 0.04 M150.65 146.24 C188.36 99.1, 225.48 54.37, 275.26 -1.59 M150.63 142.59 C194.94 95.18, 236.5 48.72, 274.56 -1.91 M152.9 146.83 C185.66 109.23, 216.7 74.35, 279.36 1.07 M155.98 142.33 C189.23 107, 221.06 69.24, 279.91 0.78 M162.92 147.86 C202.26 101.2, 241.79 54.22, 288.97 -3.3 M159.17 143.36 C191.04 110.55, 219.48 74.31, 286.79 0.85 M164.56 141.23 C202.82 102.65, 238.55 67.31, 288.78 0.91 M166.65 145.5 C211.6 93.44, 255.42 44.76, 290.99 0.13 M174.7 145.35 C218.73 91.09, 264.57 36.66, 296.99 2.51 M170.65 144.69 C210.15 102.62, 244.37 61.01, 295.68 0.12 M177.71 145.85 C227.61 95.13, 272.26 34.57, 305.29 -3.67 M175.71 143.52 C208.14 107.09, 240.7 69.71, 303.52 0.65 M185.49 144.37 C222.47 96.72, 266.01 47.93, 309.38 -4.07 M182.92 141.91 C225.71 93.06, 274.24 37.12, 307.31 -1.52 M187.92 147.27 C214.75 107.92, 244.17 74.87, 312.98 2.37 M188.48 143.72 C234.82 93.34, 278.09 43.11, 314.06 1.95 M196.9 142.45 C215.27 116.1, 248.11 79.97, 318.32 0.94 M191.8 143.39 C225.6 106.94, 258.21 65.51, 319.68 1.59 M196.2 144.74 C231.18 112.85, 259.82 77.45, 322.12 1.94 M197.56 145.27 C225.21 114.39, 250.95 80.08, 325.08 0.74 M204.69 145 C238.14 102.29, 272.69 63.38, 330.12 -2.61 M203.02 142.55 C252.51 93.45, 296.06 41.01, 330.77 -1.83 M211.67 147.08 C238.46 110.14, 268.22 76.62, 337.06 1.83 M209.49 144.11 C251.45 94.59, 297.69 43.59, 333.02 -1.26 M214.71 141.32 C269.51 90.95, 316.53 33.46, 341.21 1 M212.25 141.9 C259.11 94.61, 305.92 44.97, 338.46 -0.01 M215.61 145.29 C263.16 92.99, 316.93 36.42, 348.31 0.69 M220.74 145.54 C252.94 106.33, 283.58 72.67, 344.24 -1.23 M226.96 144.56 C267.13 90.89, 315.09 35.42, 345.49 0.13 M225.11 144.99 C268.86 92.67, 307.32 43.89, 347.94 -1.36 M228.08 141.45 C274.36 97.49, 312.88 48.51, 356.48 -2.93 M228.4 145.15 C269.84 99.86, 307.84 57.12, 355.03 0.71 M235.56 143.76 C268.72 104.09, 297.25 74.31, 360.95 0.75 M237.14 144.46 C269.35 104.45, 304.18 61.22, 358.27 -1.46 M243.25 141.55 C272 102.06, 308.07 55.22, 364.32 -2.62 M241.48 145.58 C276.42 105.43, 312.7 61.95, 367.64 1.49 M244.76 143.84 C274.43 108.7, 306.05 76.08, 369.75 -1.05 M245.83 141.97 C274.07 111.22, 302.26 76.01, 370.51 1.38 M253.44 147.42 C284.99 103.98, 318.57 60.63, 376.69 -0.09 M252.95 144.56 C295.6 92.07, 339.37 42.05, 378.23 -0.9 M252.92 141.57 C283.12 110.88, 313.21 80.23, 384.81 1.97 M258.61 144.29 C285.69 106.55, 317.35 69.76, 382.3 -0.79 M265.08 140.81 C290.85 108.28, 324.13 71.45, 384.58 2.81 M263.69 142.85 C305.24 91.16, 351.01 40.28, 388.93 0.6 M268.55 141.63 C312.86 92.29, 363.15 32.83, 393.2 -3.11 M268.84 143.21 C302.3 102.35, 340.38 61.34, 391.23 -0.89 M274.72 147.3 C302.89 103.04, 332.44 67.43, 397.13 -3.87 M270.54 144.31 C318.83 96.78, 359.61 50.09, 395.78 -1.88 M278.25 140.55 C316.24 95.52, 363.64 47.38, 404.09 -1.3 M279.81 143.62 C318.94 102.08, 355.82 59.58, 402.81 -0.76 M285.04 140.38 C316.32 107.12, 348.16 70, 409.57 1.77 M282.27 143.84 C315.6 101.41, 351 60.11, 408.77 0.84 M286.77 142.75 C333.49 98.06, 372.47 50.67, 416.8 2.25 M288.78 143.44 C333.29 92.92, 375.39 43.38, 414.5 0.8 M296.86 145.39 C325.34 109.38, 359.08 68.64, 419.27 1.53 M295.58 143.39 C337.91 96.28, 379.4 49.63, 419.82 -0.99 M300.98 144.5 C343.5 91.97, 388.79 41.21, 420.74 -1.74 M298.9 141.68 C338.46 104.24, 373.99 60.92, 423.69 0.09 M301.09 143.55 C333.56 103.5, 361.47 68.46, 425.73 1.07 M303.11 144.01 C345.79 93.91, 391.67 40.83, 430.8 -0.06 M305.88 141.97 C342.79 101.88, 376.05 67.19, 435.49 -2.67 M311.3 142.39 C345.44 96.43, 385.89 53.09, 435.71 0.44 M318.81 143.97 C350.64 105.16, 373.81 70.65, 438.56 -2.08 M313.44 145.78 C344.85 108.27, 372.46 74.11, 441.5 0 M319.93 147.96 C348.85 110.53, 380.3 73.82, 446.72 -2.06 M320.36 143.44 C370 87.57, 418.11 33.23, 443.84 0.25 M329.19 143.61 C370.13 93, 414.59 37.4, 453.51 -2.51 M327.11 143.85 C371.88 93.42, 416.86 40.18, 449.67 0.62 M333.68 140.86 C368.59 98.5, 407.24 53.79, 454.23 2.43 M332.39 145.53 C375.82 92.72, 420.53 39.64, 457.28 1 M333.53 143.34 C367.96 107.17, 401.64 68.9, 460.45 -2.92 M336.55 144.44 C366.94 105.14, 399.12 67.6, 462.97 0.31 M337.85 141.22 C369.91 111.84, 402.6 74.01, 463.97 1.02 M341.66 144.63 C388.03 96.18, 430.77 44.63, 465.16 -0.8 M347.28 139.87 C380.28 101.49, 412.17 66.77, 474.71 2.59 M346.17 144.83 C380.24 105.64, 411.87 64.96, 470.37 -0.63 M349.94 144.7 C389.94 106.27, 418.85 74.06, 479.98 3.83 M353.02 145.08 C390.29 99.17, 432.41 52.82, 476.58 -1.55 M359.98 141.81 C406.3 89.93, 444.88 39.98, 483.73 1.56 M356.29 145.36 C384.4 113.6, 412.65 87.13, 480.72 0.91 M365.55 146.84 C412.3 92.25, 449.54 41.51, 488.45 0.82 M361.28 144.23 C392.96 109.49, 424.37 73.81, 488.55 1.4 M367.31 145.63 C411.06 100.44, 446.1 59.47, 491.1 -0.34 M367.18 145.43 C406.79 97.4, 443.35 50.54, 490.86 -0.61 M374.44 143.04 C410.63 91.98, 448.75 48.98, 497.68 1.85 M371.18 144.52 C398.85 115.49, 426.66 84.02, 498.03 1.77 M379.09 143.67 C418.86 96.43, 463.49 48.18, 503.18 1.67 M379.06 143.51 C423.09 94.95, 468.63 43.05, 504.21 1.54 M384.47 144.6 C427.3 94.91, 477.07 43.12, 506.11 -3.37 M385.38 145.46 C421.9 96.11, 463.12 48.86, 509.91 0.34 M387.25 140.17 C428.26 97.73, 461.2 56.95, 512.47 -3.76 M388.06 145.12 C418.55 109, 451.8 73.41, 514.13 -0.83 M397.64 146.68 C428.36 106.03, 464.2 72.22, 518.29 2.76 M392.51 143.59 C437.94 88.54, 485.98 35.96, 521.02 0.95 M397.84 143.21 C432.25 108.26, 469.9 62.8, 521.59 3.93 M398.26 142.87 C426.8 111.36, 454.57 78.78, 523.93 1.16 M402.07 144.32 C429.07 118.6, 458.82 87.65, 528.91 1.73 M403.11 144.55 C451 92.7, 497.4 41.21, 532.13 -1.51 M407.05 140.79 C451.29 94, 499.77 42.94, 535.28 -2.85 M409.69 144.39 C453.33 95.97, 497.75 43.86, 534.84 1.44 M412 140.42 C457.52 85.76, 502.03 37.1, 538.77 2.88 M413.66 143.01 C462.02 92.07, 505.11 38.38, 539.94 -1.05 M417.17 140.74 C461.87 101.32, 499.27 54.42, 544.41 -3.83 M422.3 144.41 C447.6 115.64, 472.41 86.27, 546.04 -0.99 M427.8 145.78 C465.71 101.07, 503.27 51.62, 554.8 3.44 M426.6 142.72 C465.11 101.59, 501.6 55.89, 553.11 -0.67 M427.99 147.55 C461.57 102.53, 503.13 65.46, 557.98 -2.84 M431.32 145.46 C466.33 104.72, 501.86 62.33, 554.63 1.93 M435.97 147.05 C474.16 105.47, 503.3 67.61, 566.05 -3.5 M438.29 144.49 C486.13 88.87, 536.82 32.36, 560.21 -0.25 M439.38 143.3 C477.21 107.09, 501.89 76.87, 563.1 -3.84 M441.9 142.87 C478.96 101.13, 514.02 59.97, 567.67 -0.68 M449.12 146.78 C490.91 93.83, 533.99 39.85, 575.72 3.05 M447.02 142.2 C473.11 110.66, 500.39 80.33, 573.75 -0.66 M455.35 140.23 C493.12 94.01, 532.33 48.35, 581.02 -2.92 M453.15 145.3 C486.43 105.56, 518.85 68.66, 578.15 1.36 M458 147.38 C498.07 91.86, 546.54 40.32, 584.46 0.67 M457.04 142.78 C493.68 100.17, 534.21 56.09, 581.55 1.08 M462.73 145.69 C494.49 100.45, 533.9 61.7, 587.11 3.71 M464.79 143.72 C510.75 86.72, 560.46 29.98, 588.99 -0.7 M471.47 143.12 C504.83 105.43, 532.7 63.89, 592.99 0.6 M470.51 142.23 C519.35 89.84, 565.02 36.18, 593.3 0.74 M470.43 146.89 C505.59 110.71, 534.34 75.07, 598.86 3.71 M472.44 144.14 C524.65 89.53, 571.65 32.13, 597.05 1.45 M476.54 144.19 C508.2 116.49, 531.78 82.18, 606.24 4.18 M479.55 145.6 C508.05 112.14, 538.28 79.94, 604.68 -0.58 M485.52 142.95 C526.6 92.09, 569.43 51.63, 611.89 0.62 M483.7 143.67 C534.46 86.69, 581.07 30.17, 609.13 1.19 M486.32 144.6 C542.25 87.65, 584.03 35.61, 611.87 -0.11 M490.22 143.01 C528.45 97.96, 569.77 53.27, 615.96 0.51 M497.17 144.83 C532.08 103.36, 566.28 58.55, 623.95 -2.16 M494.08 142.46 C522.26 110.25, 552.2 76.12, 621.98 0.94 M500.05 146.28 C535.57 103.43, 577.04 61.02, 627.69 4.08 M502.49 141.66 C538.97 93.49, 581.89 46.51, 623.35 -1.51 M508.7 143.38 C539.9 99.61, 577.58 55.71, 626.9 -1.32 M507.03 143.72 C542.57 100.25, 580.29 56.26, 630.25 0.21 M511.11 143.01 C551.05 90.57, 596 43.18, 637.64 -3.03 M510.29 141.79 C541.07 109.85, 569.64 76.63, 634.98 -1.12 M513.53 141.33 C563.6 84.8, 618.8 30.68, 638.74 -1.73 M517.96 145.74 C562.26 88.71, 605.82 36.09, 642.58 -0.45 M522.98 144.46 C550.65 108.72, 586.03 66.28, 647.77 2.66 M521.49 144.71 C548.32 111.16, 573.71 79.25, 646.95 -1.73 M527.23 145.28 C569.13 83.46, 623.76 31.37, 655.58 -0.32 M526.19 145.84 C567.8 98.33, 610.13 51.69, 653.5 0.59 M533.3 144.15 C564.75 114.1, 590.1 82.15, 654.27 1.13 M533.88 144.79 C575.48 92.78, 619.62 40.36, 655.26 0.31 M539.47 141.7 C579.72 100.35, 624.84 47.05, 659.68 -2.2 M538.99 144.44 C564.47 109.45, 594.51 72.75, 663.5 -1.99 M541.79 143.51 C581.58 95.77, 620.68 47.94, 667.44 0.23 M543.2 145.47 C584.36 96.03, 626.76 43.62, 667.87 -0.27 M546.06 144.94 C575.24 110.99, 602.07 80.66, 675.4 3.43 M547.57 145 C589.2 96.07, 633.1 46.52, 675.01 -0.44 M549.68 144.57 C595.39 95.64, 642.22 43.14, 679.71 3.68 M554.48 143.99 C600.88 91.04, 645.3 38.23, 676.69 -1.71 M556.93 141.23 C596.4 105.11, 629.58 70.55, 681.24 3.22 M559.06 142.06 C602.5 93.36, 649.63 39.84, 684.4 -1.96 M562.27 146.99 C609.48 84.54, 665.03 24.03, 689.64 3.08 M564.62 144.41 C596.9 111.51, 625.32 77.68, 689.53 0.85 M572.14 144.66 C601.94 100.88, 640.43 60.02, 697.8 -0.28 M568.56 145.19 C600.55 105.13, 632.68 64.13, 693.95 -0.67 M577.02 144.56 C602.35 112.38, 636.87 79.23, 701.9 1.9 M574.54 146.11 C598.01 113.58, 626.12 81.75, 698.17 -0.7 M581.88 141.22 C621.48 99.88, 655.62 61.22, 707.2 4.09 M579.08 143.05 C615.18 103.28, 652.53 62.2, 703.26 -0.87 M586.18 146.19 C638.52 84.07, 687.11 25.77, 711.32 -0.5 M583.71 144.76 C616.1 111.13, 643.56 76.24, 710.31 0.61 M590.43 144.74 C623.62 104.79, 658.76 65.6, 711.59 1.11 M589.58 143.37 C625.46 104.13, 657.31 63.05, 715.8 -0.1 M592.12 144.67 C644.75 86.63, 693.7 35.36, 718.82 -0.9 M597.56 145.12 C626.69 102.59, 661.82 65.87, 721.6 -1.19 M600.25 140.97 C632.62 105.04, 672.67 58.06, 729.32 1.69 M602.94 144.91 C630.02 111.35, 655.33 79.58, 727.05 -0.52 M607.33 140.66 C649.62 88.48, 691.17 39.08, 731.45 -0.2 M607.46 144.99 C651.03 91, 695.45 42.28, 731.62 -1.01 M611.88 143.48 C642.38 101.54, 681.11 69.59, 733.52 -0.13 M610 145.53 C638.42 113.16, 667.09 81.06, 735.03 -0.01 M614.43 142.69 C639.69 119.77, 666.62 87.02, 738.39 -3.43 M618.7 143.26 C660.96 91.78, 709.18 36.68, 743.88 1.3 M624.01 145.77 C656 113.28, 685.15 75.37, 747.42 -2.43 M621.54 142.11 C670.74 93.24, 715.78 36.98, 747.75 0.59 M630.17 143.19 C663.25 107.88, 698.57 65.29, 750.97 -3.73 M626.51 143.84 C662.03 104.94, 698.12 67.19, 753.85 0.96 M633.44 145.17 C682.49 87.33, 731.81 32.74, 756.4 -3.43 M632.24 142.63 C672.79 96.1, 716.59 47.71, 759.12 1.56 M641.4 142.43 C674.22 107.61, 707.61 70.36, 762.59 1.61 M640.09 143.74 C668.51 111.25, 695.82 82.22, 764.91 0.24 M643.11 142.92 C683.51 95.84, 722.07 52.32, 771.94 -1.46 M644.77 142.12 C677.95 104.64, 715.25 66.7, 769.02 0.19 M645.14 140.58 C688.2 98.99, 721.74 62.72, 772.83 3.21 M650.53 145.03 C685.55 106.85, 722.3 64.72, 772.4 0.49 M654.07 144.11 C707.15 88.97, 750.2 34.75, 775.67 -3 M653.7 142.66 C699.19 94.24, 745.23 44.63, 779.23 -1.15 M656.49 145.68 C696.13 98.77, 730.85 64.88, 787.37 3.52 M658.88 142.81 C700.43 93.31, 743.3 46.25, 783.58 -1.88 M664.85 142.47 C696.74 111.28, 722.2 79.77, 791.33 1.38 M664.89 146.17 C702.2 105.65, 735.2 67.39, 789.5 0.98 M668.71 141.64 C706.01 95.81, 746.56 55.04, 794 0.91 M668.14 145.28 C710.63 93.78, 755.42 42.27, 793.67 0.57 M674.06 141.35 C721.05 94.8, 760.98 42.35, 796.8 -3.05 M674.11 143.36 C710.14 108.36, 741.72 68.92, 801.5 -0.91 M677.15 144.24 C717.18 96.67, 758.37 54.41, 802.66 -2.41 M679.23 145.68 C722.53 94.98, 760.83 50.17, 805.8 -1.6 M684.49 142.21 C715.9 113.84, 739.04 81.87, 812.05 0.89 M687.1 142.24 C728.77 93.59, 775.74 41.6, 810.85 -1.28 M687.32 145.15 C739.08 89.28, 786.31 33.48, 812.76 0.42 M691.01 142.33 C727.27 100.44, 766.9 58.71, 814.4 1.93 M697.68 141.67 C738.21 99.14, 775.22 52.29, 819.23 -1.77 M698.18 145.17 C730.68 102.4, 765.9 61.54, 823.09 -1.51 M698.83 143.9 C729.75 111.14, 753.34 81.41, 823.79 1.87 M700.29 142.58 C728.01 117.31, 753.29 86.7, 827.81 2.32 M705.32 140.2 C745.17 99.51, 787.41 51.82, 834.55 -2.12 M705.64 145.55 C750.69 91.86, 798.37 35.09, 833.71 -1.89 M713.43 139.91 C752.36 101.65, 782.3 63.71, 839.39 0.54 M713.79 142.89 C759.81 84.76, 805.42 30.66, 836.31 0.03 M721.22 142.14 C751.99 109.16, 785.83 64.47, 844.41 0.63 M715.66 143.85 C755.47 101.99, 792.11 58.81, 844.13 -1.7 M726.99 140.46 C768.46 92.62, 806.45 49.25, 846 -1.84 M724.19 144.74 C755.95 107.65, 787.11 70.38, 846.81 1.84 M725.31 147.72 C758.39 112.07, 788.26 74.86, 853.29 -0.86 M726.41 143.59 C758.38 112.86, 788.08 75.59, 853.72 0.88 M737.5 144.72 C780.52 88.35, 829.48 34.44, 860.17 0.32 M734.11 142.7 C772.99 95.15, 814.74 52.94, 858.13 1.6 M735.64 145.04 C781.28 96.2, 821.8 45.64, 867.81 1.94 M739.95 143.36 C789.57 86.99, 840.17 31.49, 863.78 0.73 M745.08 143.72 C789.16 92.75, 831.91 40.47, 872.6 0.5 M744.09 144.38 C776.69 109.67, 806.79 75.73, 869.05 0.21 M752.4 142.08 C792.19 95.22, 834.22 40.87, 872.71 1.46 M750.31 144.82 C783.54 102.88, 819.54 59.84, 873.55 1.77 M751.97 144.38 C798.49 97.93, 842.28 44.48, 880.07 4.05 M756.63 142.48 C787.05 105.98, 818.48 69.54, 878.27 1.63 M757.89 142.68 C808.43 87.89, 852.25 30.89, 886.87 -2.03 M759.44 144.68 C806.64 85.41, 854.65 28.93, 884.19 1.01 M762.54 145.48 C790.09 111.65, 821.26 80.36, 893.53 -3.81 M764.14 142.74 C809.82 98.05, 850.42 47.42, 888.43 0.89 M772.55 146.56 C803.23 100.66, 840.54 65.44, 899.27 -0.36 M769.24 142.72 C810.73 97.24, 851.33 48.92, 894.83 0.5 M774.64 146.44 C806.66 111.7, 836.31 74.99, 898.03 -1.97 M776.34 144.72 C802.98 117.5, 826.41 87.68, 902.12 0.08 M782.93 141.34 C819.37 105.3, 851.6 63.94, 909.04 -1.49 M781.54 145.78 C817.87 101.04, 852.96 60.24, 906.51 -0.63 M790.19 144.28 C820.93 97.39, 854.21 55.05, 908.76 2.53 M786.84 142.78 C834.82 89.86, 880.56 38.49, 909.85 0.36 M789.71 142.48 C818.96 116.06, 846.16 80.83, 917.42 2.49 M790.1 143.77 C841.17 86.98, 890.07 31.58, 918.22 -2.2 M795.28 146.18 C831.88 104.86, 863.94 72.1, 923.02 -1.45 M797.21 142.62 C826.47 112.69, 854.87 78.57, 922.08 1.93 M799.7 145.33 C846.47 89.49, 893.63 37.22, 927.79 3.36 M800.64 145.65 C846.66 91.34, 892.11 40.16, 926.88 1.03 M810.78 142.42 C853.62 90.84, 899.2 37.27, 936.23 2.81 M807.63 142.24 C835.47 111.43, 865.49 76.96, 933.2 0.09 M809.84 141.12 C855.14 96.75, 895.84 42.44, 936.97 1.54 M814.79 143.45 C862.79 86.78, 913.99 30.13, 938.7 0.14 M819.69 147.16 C863.22 102.49, 901.06 51.04, 941.97 3.91 M816.21 144.68 C849.12 105.63, 879.78 69.64, 941.55 1.17 M823.17 140.95 C847.04 117.42, 870.46 85.75, 945.9 3.06 M822.13 144.26 C859.78 99.06, 899.26 56.24, 947.79 0.98 M831.11 142.44 C876.5 89.35, 920.15 34.26, 955.91 2.33 M827.01 142.08 C860.92 107.42, 891.98 71.51, 953.38 -1.43 M832.88 143.79 C875.83 92.45, 918.92 48.17, 955.66 0.09 M836.19 142.23 C865.82 106.9, 902.74 66.28, 960.24 0.75 M840.31 142.17 C882.22 96.57, 925.54 41.47, 967.85 2.42 M838.01 143.62 C865.76 109.44, 894.35 76.34, 962.92 0.76 M846.27 144.49 C876.62 110.97, 907.78 68.11, 970.14 -0.09 M846.43 142.58 C888.89 94.14, 935.5 41.66, 968.72 0.94 M852.64 144.14 C891.09 98.34, 936.86 47.87, 973.73 -3.61 M849.14 143.54 C878.5 113.99, 907.82 81.87, 976.3 -0.73 M852.79 141.77 C899.19 98.43, 934.07 51.71, 979.31 1.69 M854.23 145.59 C884.46 106.47, 914.32 75.69, 979.83 0.1 M859.6 146.02 C911.55 85.75, 959.17 34.03, 983.6 -3.64 M862.26 145.16 C905.17 94.89, 953.11 39.72, 987.6 0.69 M863.98 146.24 C909.48 89.38, 960.24 34.34, 991.31 -3.54 M864.92 142.6 C904.49 100.28, 944.39 54.41, 990.14 1.87 M870.82 145.33 C913.66 93.66, 953.6 49.57, 997.66 2.29 M873.16 144.85 C920.36 86.22, 966.05 29.78, 994.85 -1.33 M873.52 140.37 C908.11 107.14, 934.6 74.94, 1000.37 -0.86 M875.78 144.01 C917.72 93.53, 961.06 48.15, 1002.13 -1.07 M882.02 147.49 C907.57 111.95, 934.11 74.73, 1006.19 2.03 M883.59 144.03 C921.92 98.8, 963.44 54.18, 1007.99 -2.08 M889.23 142.51 C928.21 93.01, 968.81 46.51, 1010.86 0.51 M888.01 143.29 C918.64 112.86, 946.47 80.02, 1012.21 1.02 M891.09 141.79 C929.84 99.63, 969.72 58.52, 1021.64 3.32 M893.21 145.22 C921.12 113.04, 948.15 78.97, 1016.92 -1.76 M900.38 143.64 C931.7 113.36, 962.92 72.4, 1021.29 -0.77 M898.09 145.71 C928.92 104.65, 960.16 67.97, 1022.76 -1.05 M906.02 141.39 C954.47 89.25, 1004.35 29.58, 1030.56 1.74 M903.65 143.96 C933.17 110.89, 959.69 78.12, 1027.48 -1.55 M904.33 144.35 C939.63 106.86, 974.48 68.92, 1032.25 1.84 M908.43 145.37 C939.88 112.38, 969.09 77.8, 1034.08 0.6 M912.92 143.32 C955.8 91.23, 1001.92 38.9, 1041.64 -3.23 M914.46 144.89 C945.65 104.75, 981.47 63.19, 1037.43 0.46 M918.62 143.36 C953.99 101.28, 992.72 56.37, 1046.51 -1.24 M919.38 145.67 C963.87 95.2, 1007.88 41.57, 1044.4 -1.1 M924.04 144.51 C952.7 115.27, 975.34 80.51, 1053.02 0.53 M923.11 145.68 C948.89 110.57, 975.15 80.63, 1047.82 1.99 M927.55 142.54 C961.33 110.68, 990.26 76.43, 1052.93 -3.73 M927.9 144.33 C967.94 97.82, 1007.72 51.54, 1053.89 -0.15 M937.76 141.72 C981.49 90.96, 1033.09 30.77, 1062.94 2.71 M937.03 145.08 C974.84 99.79, 1015.14 52.67, 1061.6 1.56 M937.55 147.59 C967.75 110.32, 992.53 85.18, 1066.5 0.53 M938.89 142.12 C972.31 110.8, 999.18 76.89, 1064.67 -1.5 M946.55 147.64 C986.56 98.94, 1021.92 57.74, 1073.82 -0.82 M945.6 142.91 C982.77 97.21, 1024.41 51.94, 1071.71 -0.99 M953.17 144.13 C986.56 102.23, 1031.2 60.35, 1072.35 1.58 M949.17 142.88 C990.22 97.35, 1027.07 55.38, 1076.8 -1.02 M953.05 142.8 C982.77 114.79, 1010.67 89.83, 1078.82 -3.09 M956.1 144.03 C1006.38 88.63, 1055.04 28.95, 1079.65 0.51 M961.11 145.63 C992.4 115.13, 1017.29 78.06, 1089.71 -2.67 M959.51 145.53 C999.37 98.85, 1042.67 49.38, 1088.24 -1.52 M970 147.59 C998.88 103, 1037.64 56.88, 1093.26 -1.24 M965.77 142.37 C1014.41 87.87, 1060.89 29.92, 1090.9 -0.74 M970.16 145.43 C1005.81 112.04, 1038 73.09, 1099.96 1.58 M970.62 144.01 C1003.31 106.29, 1036.26 70.76, 1098.94 -0.76 M980.26 142.33 C1024.31 91.28, 1071.61 37.68, 1098.57 3.44 M977.79 144.95 C1024.92 85.66, 1074.71 31.7, 1102.83 -0.46 M979.25 140.76 C1018.87 104.64, 1054.08 60.59, 1110.59 -4.03 M983.14 143.37 C1025.94 89.56, 1068.75 41.41, 1106.75 0.57 M984.83 147.16 C1020.11 102.27, 1056.55 62.47, 1114.3 -2.45 M989.27 143.8 C1033.69 93.03, 1078.65 42.5, 1112.78 0.69 M993.46 140.72 C1035.48 90.61, 1086.23 31.73, 1115.22 2.05 M993.66 143.7 C1030.05 104.48, 1068.88 60.4, 1119.48 -1.16 M1002.84 142.12 C1031.75 113.16, 1058.31 79.08, 1126.14 3.58 M999.26 144.07 C1025.93 105.63, 1056.93 69.54, 1122.03 1.12 M999.95 142.29 C1038.12 103.26, 1075.76 61.01, 1125.6 1.23 M1002.69 144.14 C1033.62 105.88, 1067.86 68.07, 1130.85 -0.52 M1006.86 147.89 C1031.34 113.31, 1056.24 88.5, 1133.89 -0.14 M1008.1 144.68 C1050.7 95.54, 1095.38 45.89, 1135.76 -1.7 M1016.03 146.31 C1063.92 91.41, 1117.94 34.01, 1139.58 -1.2 M1014.68 142.91 C1061.16 83.11, 1111.61 28.03, 1140.55 1 M1021.58 142.73 C1044.41 111.14, 1078.29 83.68, 1143.49 0.63 M1020.01 143.37 C1063.24 96.03, 1103.17 47.05, 1143.14 0.74 M1025.13 141.52 C1062.7 100, 1095.59 58.58, 1149.18 -0.08 M1026.04 145.29 C1049.53 112.48, 1079.29 82.11, 1150.19 -1.04 M1031.83 147.07 C1065.23 104.8, 1101.2 59.28, 1158.98 -0.02 M1031.21 145.22 C1081.56 91.03, 1131.44 31.33, 1157.24 0.05 M1032.82 144.5 C1073.09 96.93, 1120.44 48.51, 1163.84 2.37 M1037.09 143.63 C1086.49 88.1, 1135.24 33.99, 1158.66 -1.28 M1041.24 140.44 C1091.18 85.77, 1132.25 31.89, 1166.56 3.89 M1040.49 143.58 C1082.93 99.15, 1120.96 51.96, 1167.08 -1.13 M1042.77 143.73 C1084.57 103.57, 1123.73 59.63, 1173.13 1.58 M1048.1 145.32 C1084.01 99.61, 1122.55 55.72, 1172.76 0.47 M1047.56 142.25 C1093.67 92.24, 1131.31 50.13, 1174.53 -1.79 M1052.6 144.9 C1097.47 95.96, 1140.13 43.77, 1177.61 -1.08 M1056.78 147.57 C1107.5 89.58, 1147.01 37.35, 1182.76 3.07 M1055.28 144.83 C1100.96 96.1, 1143.71 48.44, 1183.26 -0.29 M1058.64 147.79 C1095.54 103.65, 1131.42 58.63, 1189.32 -3.34 M1062.2 144.67 C1092.54 107.02, 1124.07 72.42, 1185.73 0.98 M1066.8 144.24 C1105.27 100.45, 1142.32 62.85, 1193.23 3.5 M1066.77 143.68 C1097.11 114.97, 1123.65 84.24, 1191.52 0.24 M1076.48 144.23 C1109.68 111.18, 1142.19 71.06, 1199.49 0.84 M1073.91 143.45 C1115.6 92.05, 1159.82 41.6, 1196.26 0.89 M1078.88 141.83 C1108.33 106.44, 1138.71 74.8, 1199.15 -0.57 M1078.66 142.48 C1125.3 86.37, 1172.19 29.93, 1204.84 -1.06 M1081.21 142.6 C1110.25 113.89, 1146.14 73.41, 1207.72 0.23 M1082.28 142.87 C1116.57 104.61, 1153.32 62.5, 1209.99 1.56 M1089.19 144.33 C1138.33 91.49, 1179.58 44.38, 1213.26 3.25 M1086.95 144.88 C1124.22 103.27, 1156.57 63.27, 1212.46 1.75 M1095.06 145.81 C1141.38 82.95, 1192.41 31.38, 1222.81 -3.82 M1095.8 145.6 C1136.98 95.38, 1177.95 47.26, 1219.61 0.94 M1100.05 143.57 C1127.36 109.68, 1152.04 81.03, 1226.44 3.25 M1099.61 141.58 C1136.81 98.77, 1173.03 59.47, 1225.55 -0.34 M1102.41 140.65 C1147.05 93.89, 1182.43 50.01, 1227.71 1.9 M1104.89 143.4 C1132.11 116.09, 1158.3 81.93, 1229.77 0.07 M1111.89 143.3 C1155.36 94.44, 1198.85 40.92, 1231.68 3.6 M1108.53 142.36 C1151.7 93.69, 1193.85 47.59, 1233.23 0.72 M1113.75 145.78 C1159.08 89.85, 1209.3 39.08, 1243.45 2.51 M1113.91 145.08 C1153.35 97.57, 1190.92 55.47, 1241.04 -0.96 M1123.26 143.1 C1166.32 89.61, 1210.24 40.18, 1248.1 0.33 M1121.54 144.08 C1154.34 106.38, 1188.24 62.84, 1246.55 2.07 M1125.7 147.74 C1170.92 92.34, 1208.2 45.63, 1249.23 2.97 M1125.16 144.5 C1155.8 104.53, 1188.49 68.44, 1249.96 1.01 M1130.2 147.2 C1166.26 105.31, 1204.64 61.7, 1256.95 -2.64 M1129.75 143.38 C1180.41 86.74, 1229.95 31.15, 1254.48 1.89 M1137.01 140.94 C1185.26 87.15, 1233.25 27.82, 1262.36 -3.86 M1134.89 144.6 C1180.93 94.79, 1225.89 42.31, 1260.96 0.17 M1144.81 145.45 C1197.14 84.02, 1243.92 27.45, 1265.58 -1.53 M1142.19 145.73 C1172.01 111.86, 1199.61 77.34, 1267.97 -0.59 M1148.53 143.67 C1185.73 104.58, 1225.04 58.42, 1274.26 2.74 M1145.26 145.38 C1187.91 96.2, 1225.18 49.45, 1270.46 -2.17 M1151.37 141.83 C1193.61 99.22, 1240.3 50.17, 1275.51 -0.67 M1153.83 145.9 C1197.61 92.86, 1242.21 40.27, 1275.87 -1.03 M1155.27 142.09 C1204.69 81.7, 1259.38 27.2, 1281.83 0.12 M1156.39 143.9 C1204.05 93.84, 1247.08 40.4, 1282.11 -0.94 M1164.94 143.43 C1202.91 100.2, 1244.64 59, 1290.34 3.47 M1164.27 144.99 C1198.12 106.93, 1229.83 66.01, 1288.97 1.91 M1170.35 146.24 C1205.22 103.76, 1239.05 66.93, 1290.07 -0.75 M1166.32 142.28 C1208.15 94.17, 1247.13 46.21, 1293.51 1.77 M1174.71 145.22 C1222.19 88.07, 1272.75 29.8, 1299.82 -1.7 M1173.02 143.14 C1219.27 87.64, 1268.76 29.59, 1300.02 -1.31 M1177.01 142.03 C1217.72 103.8, 1244.96 64.47, 1300.13 1.23 M1179.06 143.71 C1219.76 101.23, 1258.48 57.96, 1304.2 1.18 M1183.97 146.07 C1235.2 85.59, 1277.09 31.78, 1311.82 3.12 M1183.53 143.58 C1226.89 93.36, 1273.29 42.93, 1307.7 0.8 M1192.61 147.24 C1233.47 89.92, 1280.86 43.31, 1311.94 2.29 M1188.51 144.42 C1223.13 106.21, 1254.95 68.66, 1314.32 -1.19 M1194.17 140.69 C1237.26 99.71, 1278.88 55.51, 1320.33 -2.93 M1195.19 144.59 C1233.94 103.44, 1268.16 61.21, 1320.61 0.79 M1196.66 147.54 C1233.9 105.78, 1271.32 63.64, 1323.56 2.53 M1198.54 141.74 C1249.03 88.17, 1298.4 32.92, 1323.96 -0.74 M1204.85 143.68 C1235.36 113.13, 1262.07 86.22, 1329.47 -0.79 M1203.35 143.5 C1244.44 97.73, 1285.28 48.84, 1329.3 0.29 M1210.77 144.47 C1254.85 88.87, 1305.72 37.89, 1339.17 -2.08 M1210.95 142.03 C1260.63 89.86, 1304.94 33.44, 1337.14 2.17 M1213.7 141.52 C1258.27 98.78, 1297.62 60.54, 1337.5 -3.56 M1215.27 144.72 C1250.15 104.44, 1287.38 60.19, 1342.26 -2.02 M1218.69 147.44 C1264.44 86.68, 1318.54 38.98, 1345.07 -3.69 M1221.48 144.73 C1259.87 100.24, 1295.9 56.18, 1345.81 -1.73 M1224.53 140.56 C1280.33 85.01, 1326.99 31.06, 1352.76 -0.45 M1226.15 143.71 C1258.92 107.35, 1290.45 73.15, 1349.92 1.62 M1230.28 141.73 C1266.27 100.89, 1300.28 61.78, 1357.7 1.43 M1231.81 142.34 C1273.07 93.93, 1313.65 47.11, 1357.87 1.33 M1239.27 143.02 C1278.36 95.22, 1318.28 51.46, 1361.77 3.2 M1235.14 143.01 C1273.86 98.02, 1314.94 49.25, 1360.64 0 M1240.89 145.26 C1285 88.2, 1332.2 43, 1367.62 -3.13 M1240.89 145.16 C1282.36 96.04, 1319.31 54.21, 1369.14 0.19 M1249.96 147 C1280.75 100.9, 1316.34 60.7, 1369.14 1.93 M1249.31 144.2 C1277.61 110.07, 1306.84 74.6, 1372.72 -1 M1249.94 141.56 C1297.09 86.8, 1351.53 28.11, 1379.5 2.12 M1251.58 142.32 C1287.85 104.07, 1324.92 64.29, 1379.39 -1.24 M1254.81 146.47 C1292.02 100.42, 1333.25 59.5, 1381.61 -1.85 M1259.7 143.93 C1292.42 99.15, 1331.05 59.5, 1382.39 1.57 M1265.03 140.3 C1297.17 103.68, 1334.74 54.5, 1388.15 0.51 M1262.71 142.25 C1312.27 85.54, 1362.49 27.69, 1388.34 0 M1266.1 147.29 C1307.71 97.19, 1346.94 48.74, 1391.4 2.91 M1269.25 141.93 C1306.56 102.31, 1344.3 62.35, 1395.18 0.44 M1272.52 142.26 C1295.18 113.34, 1326.13 86.89, 1402.51 3.28 M1275.71 145.69 C1304.55 109.58, 1331.46 77.47, 1399.62 1.94 M1278.28 143.19 C1311.66 105.6, 1339.47 74.31, 1402.81 0.85 M1280.85 144.96 C1307.75 113.49, 1336.58 81.66, 1404.5 -0.83 M1284.9 140.1 C1317.45 108.2, 1342.01 80.33, 1413.62 1.53 M1285.94 142.47 C1331.83 88.71, 1379.46 32.29, 1408.81 1.68 M1291.9 139.75 C1341.73 91.47, 1388.23 34.97, 1412.3 2.76 M1289.34 142.88 C1316.82 115.17, 1343.47 81.17, 1415.76 0.63 M1292.8 142.37 C1339.03 97.41, 1373.94 47.93, 1418.68 -1.78 M1294.7 143.44 C1337.1 88.04, 1384.27 38.67, 1419.44 -0.65 M1297.64 146.45 C1326.23 114.84, 1352.69 80.97, 1427.13 2.57 M1301.49 144.58 C1344.14 88.01, 1390.44 35.36, 1424.94 0.01 M1304.96 141.47 C1355.84 89.04, 1397.95 38.14, 1428.99 0.21 M1305.23 144.55 C1343.48 99.74, 1379.61 54.11, 1430.96 -1.81 M1308.31 144.65 C1345.76 109.36, 1369.34 74.91, 1432.65 2.05 M1312.01 142.03 C1349.23 98.51, 1386.42 58.58, 1437.96 1.56 M1316.24 145.7 C1357.09 99.02, 1395 55.75, 1437.98 2.22 M1314.7 142.79 C1343.67 110.37, 1368.41 81.62, 1442.77 0.47 M1318.84 143.57 C1362.92 95.55, 1405.01 47.06, 1448.37 2.87 M1323.52 142.27 C1347.76 115.58, 1375.39 86.3, 1446.69 -1.41 M1323.65 147.21 C1353.94 107.4, 1388.63 69.25, 1453.21 2.86 M1326.22 144.23 C1364.39 98.3, 1401.3 53.54, 1454.18 -0.47 M1330.28 140.3 C1355.52 114.6, 1384.91 83.14, 1455.9 -1.43 M1334.63 143.37 C1364.67 110.61, 1394.84 73.2, 1456.93 1.47 M1334.31 146.04 C1372.59 99.11, 1413.07 56.5, 1464.35 -3.4 M1336.85 143.97 C1375.35 100.9, 1413.42 58.05, 1464.49 -0.23 M1341.82 143.83 C1378.6 103.76, 1418.34 53.04, 1470.98 -1.45 M1343.84 142.49 C1379.06 100.11, 1415.57 56.45, 1468.41 1.63 M1349.44 142.1 C1388 89.8, 1437.82 35.33, 1475.22 -2.22 M1349.57 142.21 C1391.58 96.49, 1431.97 48.99, 1472.88 0.66 M1350.77 143 C1400.13 90.05, 1443.86 37.2, 1479.5 -3.89 M1353.62 143.85 C1386.81 111.02, 1417.33 76.41, 1478.81 -0.44 M1356.44 143.19 C1399.5 96.07, 1444.39 45, 1487.75 0.63 M1357.31 144.2 C1382.41 112.63, 1408.99 85.38, 1482.5 0.72 M1367.9 147.29 C1392.26 111.12, 1420.47 76.67, 1485.43 0.41 M1365.69 143.49 C1397.26 106.98, 1427.56 69.28, 1487.74 0.84 M1368.78 140.95 C1411.04 89.55, 1455.55 39.38, 1493.99 3.26 M1370.92 144.25 C1415.05 90.95, 1462.26 36.21, 1496.44 1.56 M1372.08 143.8 C1418.5 88.8, 1473.02 33.11, 1502.9 -3.52 M1375.7 142.22 C1410.84 98.01, 1447.51 55.59, 1500.75 0.08 M1378.09 142.94 C1414.34 101.61, 1452.41 65.4, 1508.12 -0.37 M1379.22 145.72 C1427.84 87.79, 1472.03 35.67, 1505.7 -0.19 M1386.34 141.74 C1420.78 106.23, 1455.37 67.62, 1508.15 1.24 M1385.27 142.22 C1421.53 100.42, 1460.54 58.42, 1509.33 0.97 M1394.11 140.55 C1415.86 114.89, 1443.32 81.02, 1517.81 4.35 M1388.93 145.05 C1431.48 97.88, 1474.54 52.42, 1516.61 -0.04 M1392.47 145.48 C1421.13 108.75, 1449.59 78.49, 1519.55 -0.53 M1396.61 143.95 C1436.35 95.57, 1476.09 50.02, 1522.9 0.25 M1404.72 141.09 C1430.81 103.43, 1465.44 71.62, 1526.78 1.63 M1400.73 143.74 C1434.55 103.53, 1468.16 65.09, 1525.35 -0.73 M1410.42 147.23 C1437.52 113.37, 1459.72 83.39, 1533.61 -0.17 M1407.84 142.93 C1451.6 92.36, 1492.99 42.91, 1532.83 -0.27 M1415.9 143.71 C1450.28 98.46, 1493.94 57.43, 1534.94 -2.16 M1413.23 144.34 C1450.97 102.51, 1484.55 62.99, 1538.1 0.33 M1418.24 143.1 C1462.85 90.06, 1512.86 34.97, 1540.92 2.87 M1417.06 145.75 C1470.14 87.13, 1516.79 29.84, 1544.41 -1.71 M1419.78 147.44 C1453.17 113.87, 1479.6 77.61, 1548.97 2.44 M1422.99 142.49 C1455.97 106.57, 1492.57 68.19, 1545.63 0.06 M1424.11 141.05 C1467.59 91.27, 1514.63 44.89, 1550.25 1 M1426.29 142.08 C1470.82 92.75, 1517.11 40.82, 1552.88 -0.14 M1434.6 143.21 C1473.04 95.13, 1513.34 49.98, 1557.68 -3.22 M1432.49 142.86 C1458.36 113.14, 1483.31 82.81, 1558.65 -1.6 M1442.34 144.95 C1481.65 86.99, 1537.44 29.91, 1564.45 2.49 M1437.48 144.62 C1477.87 98.72, 1518.18 54.44, 1563.43 1.44 M1440.72 145.79 C1473.47 109.6, 1504.95 72.73, 1572 -1.91 M1442.15 143.2 C1484.79 97.53, 1527.25 48.58, 1567.81 -1.59 M1445.36 146.5 C1484.95 91.62, 1528.65 51.72, 1572.53 -0.48 M1448.52 145.16 C1485.26 98.06, 1526.07 53.55, 1575.15 1.08 M1452.65 145.85 C1488.47 103.56, 1520.99 57.38, 1576.99 3.47 M1454.34 142.33 C1497.78 95.74, 1536.56 48.32, 1579.67 -1.84 M1459.72 141.33 C1490.75 104.8, 1518.15 70.42, 1581.6 0.12 M1461.24 142.53 C1499.78 99.27, 1535.8 57.24, 1585.1 -2.09 M1463 141.92 C1501.22 100.5, 1539 54.49, 1587.83 -2.11 M1465.35 144.11 C1500.88 101, 1538.93 55.09, 1588.77 -1.2 M1470.12 144.89 C1511.27 89.08, 1558.95 39.11, 1592.91 -3.8 M1469.42 142.63 C1499.7 108.34, 1534.01 70.86, 1596.27 0.11 M1473.85 141.18 C1499.25 113.45, 1528.57 84.41, 1601.82 2.21 M1476.78 142.23 C1509.83 106.42, 1542.09 68.71, 1601.55 0.56 M1483.35 144.53 C1526.05 92.54, 1572.29 40.9, 1609.82 3.55 M1482.76 142.44 C1509.17 108.91, 1538.4 77.31, 1605.58 0.93 M1483.4 140.41 C1511.2 111.32, 1545.33 79.13, 1613.75 1.9 M1486.1 145.18 C1517.33 108.24, 1550.69 71.32, 1611.76 -0.54 M1488.34 147.49 C1524.63 113.98, 1553.25 80.5, 1607.93 4.63 M1490.9 141.99 C1527.9 103.14, 1560.6 64.8, 1609.99 5.48 M1497.98 146.5 C1520.73 112.4, 1552.07 83.72, 1607.97 12.12 M1494.77 144.77 C1542.91 96.01, 1581.95 44.01, 1612.54 12.42 M1504.16 140.86 C1526.8 108.47, 1561.45 78.79, 1611.5 22.22 M1503.42 144.35 C1526.56 115.81, 1553.36 86.19, 1610.95 20.36 M1510.71 141.52 C1540.46 109.73, 1572.23 74.07, 1610.02 22.03 M1506.84 145.13 C1542.7 102.02, 1580.07 61.63, 1612 25.52 M1515.98 147.62 C1536.58 119.91, 1560.92 86.27, 1612.2 32.93 M1513.85 143.69 C1551.9 102.48, 1587.41 57.59, 1609.11 31.22 M1516.83 147.36 C1544.46 115.09, 1563.2 83.87, 1609.7 35.99 M1516.3 143.44 C1555.11 106.03, 1591.72 62.73, 1612.34 35.22 M1523.11 146.62 C1543.27 121.59, 1561.89 96.98, 1613.22 44.81 M1523.64 145.22 C1546.09 114.98, 1568.67 89.23, 1612.49 44.32 M1529.71 145.81 C1559.9 109.19, 1586.01 67.42, 1610.29 46.96 M1527.07 145.95 C1559.01 112.4, 1584.75 79.36, 1611.06 49.8 M1530.99 144.57 C1551.97 123.33, 1567.24 102.36, 1612.58 57.02 M1534.18 145.23 C1556.38 115.6, 1580.42 87.31, 1611.69 54.21 M1540.84 142.54 C1565.25 119.68, 1587.62 91.35, 1607.16 65.55 M1541.02 143.97 C1562.94 115.7, 1587.81 90.89, 1611.54 62.35 M1543.16 144.09 C1566.89 119.44, 1582.3 105.83, 1610.37 68.6 M1542.8 143.04 C1568.03 115.39, 1592 92.04, 1611.27 68.52 M1551.85 143.09 C1566.57 119.78, 1589.14 97.7, 1607.82 76.48 M1549.95 145.87 C1565.65 123.96, 1587.54 100.46, 1611.16 75.27 M1553.32 143.64 C1577.3 118.47, 1600.34 91.57, 1608.21 79.21 M1554.77 145.07 C1574.41 121.64, 1591.26 103.01, 1609.06 80.68 M1558.48 144.85 C1567.99 134.67, 1583.14 119.64, 1610.6 83.59 M1559.59 145.08 C1573.99 128.83, 1585.33 115.5, 1611.86 85.28 M1569.27 145.57 C1575.79 134.22, 1586.34 122.37, 1611.75 94.14 M1567.31 144.78 C1584.42 122.94, 1600.8 104.53, 1610.8 90.93 M1574.6 145.14 C1577.55 135.74, 1592.55 122.79, 1611.91 94.62 M1569.61 144.1 C1583.57 132.36, 1594.98 118, 1611.53 96.16 M1572.93 140.11 C1584.71 129.73, 1598.97 115.73, 1610.85 104.8 M1577.54 142.69 C1589.27 128.31, 1601.59 115.36, 1610.19 102.84 M1584.2 141.09 C1590.75 135.34, 1601.49 127.32, 1613.67 113.92 M1581.64 142.5 C1588.52 135.77, 1599.48 123.47, 1611.37 111.51 M1583.72 146.12 C1596.16 136.84, 1601.98 121.32, 1614.12 117.72 M1585.9 143.16 C1593.78 138.44, 1599.81 128.87, 1611.53 116.28 M1589.4 145.76 C1595.93 134.16, 1602 132.97, 1609.86 123.45 M1591.21 144.89 C1597.83 138.68, 1599.73 134.05, 1610.43 123.71 M1597.11 144.06 C1598.71 137.63, 1609.01 139.02, 1608.3 131.32 M1598.72 143.33 C1599.16 138.31, 1604.74 135.94, 1609.06 128.18 M1602.59 141.55 C1605.98 143.33, 1605.02 136.9, 1613.05 135.09 M1603.42 144.49 C1605.83 141.59, 1609.86 136.73, 1610.14 134.6 M1607.19 144.24 C1608.12 142.45, 1609.68 141.34, 1611.06 141.85 M1607.89 144.47 C1608.68 142.83, 1609.73 142.21, 1610.39 141.18" stroke="#4c6ef5" stroke-width="0.5" fill="none"></path><path d="M0.34 1.3 C542.63 5, 1087.54 5.2, 1610.7 1.26 M-0.74 -0.14 C509.58 10.87, 1019.49 11.72, 1610.03 -0.02 M1611.28 -3.08 C1609.25 50.26, 1610.68 93.7, 1606.61 144.37 M1611.07 1.9 C1609.73 35.98, 1607.59 72.42, 1609.79 143.92 M1609.72 141.61 C1073.71 148.22, 534.48 148.85, 1.42 143.2 M1609.86 141.33 C996.73 130.52, 383.43 130.12, -0.8 141.49 M1.01 138.4 C0.37 87.22, 1.27 31.73, 2.15 2.54 M0.72 142.07 C-3.46 99.02, -2.7 54.33, 0.53 1.42" stroke="#000000" stroke-width="1" fill="none"></path></g><g transform="translate(620.5 58) rotate(0 194.5 22.5)"><text x="194.5" y="32" font-family="Virgil, Segoe UI Emoji" font-size="36px" fill="#000000" text-anchor="middle" style="white-space: pre;" direction="ltr">ENSEMBLE METHODS</text></g><g stroke-linecap="round" transform="translate(10.458592429973578 237.44935417730449) rotate(0 157.5 53)"><path d="M0 0 C0 0, 0 0, 0 0 M0 0 C0 0, 0 0, 0 0 M-1.38 5.08 C1.9 3.35, 1.8 1.84, 4.57 1.93 M0.37 6.66 C2 4.01, 3.05 2.99, 4.42 -0.16 M1.21 13.11 C2.52 6.06, 4.96 5.96, 11.93 2.79 M-0.02 13.64 C1.49 9.54, 4.63 7.07, 10.84 0.86 M-3.68 19.72 C7.2 14.75, 12.32 0.87, 15.17 -1.04 M-1.33 19.46 C2.27 15.09, 7.49 10.86, 13.74 -0.91 M2.21 23.18 C7.08 16.44, 17.12 4.91, 24.9 0.39 M-1.48 25.59 C4.94 18.89, 9.48 9.16, 23.1 0.32 M-3.11 31.28 C8.27 26.41, 9.3 19.72, 29.87 0.74 M0.26 28.79 C7.85 19.42, 18.48 11.63, 26.09 -0.28 M0.96 39.53 C6.75 27.7, 9.85 24.09, 33.29 -3.06 M-1.64 38.83 C12.05 24.33, 19.54 12.54, 32.56 -1.45 M-2.86 44.44 C12.92 30.37, 21.87 20.65, 33.12 -1.3 M0.43 41.83 C15.72 25.19, 29 9.07, 35.22 -0.97 M1.58 48.52 C14.38 38.19, 24.95 19.23, 44.56 1.19 M-1.4 47.09 C13.66 35.12, 26.34 16.83, 44.3 -1.08 M-2.31 57.75 C10.44 38.81, 24.95 26.47, 48.09 1.84 M-0.5 54.47 C11.08 40.67, 25.72 25.39, 47.64 2.18 M-3.89 58.37 C20.42 41.19, 40.57 15.59, 51.93 -2.95 M0.36 61.03 C13.6 48.53, 21.56 34.63, 53.32 1.59 M0.61 70.36 C20.65 42.35, 40.99 18.32, 56.08 -1.01 M-0.97 68.39 C22.04 44.46, 43.84 19.92, 57.81 1.38 M-0.65 72.43 C20.75 53.08, 33.68 28.56, 66.79 0.3 M1.34 73.61 C16.87 54.42, 35.64 30.6, 64.55 -0.18 M-3.89 79.05 C16.34 55.32, 34.86 32.16, 68.54 -1.11 M0.52 80.07 C23.43 48.76, 47.88 24.37, 68.12 -0.09 M0.22 81.93 C25.62 61.43, 49.14 36.48, 70.61 2.61 M-0.82 84.85 C27.42 52.31, 54.98 21.22, 72.85 -0.08 M-1.49 90.75 C25.43 60.79, 48.33 29.85, 79.02 -1.88 M1.43 93.34 C23.71 66.8, 51.25 36.96, 80.91 0.11 M1.14 98.72 C20.2 73.29, 45.26 45.37, 87.04 3.52 M-1.18 98.61 C24.61 65.45, 48.97 36.65, 87.01 1.26 M0.93 103.49 C26.76 67.93, 52.79 40.47, 87.2 -2.83 M1.79 104.31 C33.03 66.54, 67.61 26.82, 90.44 -0.62 M-1.43 110 C24.52 81.2, 38.61 62.75, 93.8 2.43 M1.04 109.27 C38.09 64.74, 74.03 23.59, 93.77 0.27 M5.18 107.64 C39.41 77.65, 67.78 43.14, 98.88 0.39 M6.18 106.62 C40.53 71.31, 68.75 35.96, 98.92 -1.81 M13.71 103.83 C43.55 68.63, 79.32 26.19, 102.76 -1.36 M13.22 107.24 C45.38 69.49, 77.8 29.93, 105.81 -1.55 M14.01 103.99 C48.99 70.1, 87.1 27.88, 110.01 0 M15.87 109.54 C42.69 78.2, 71.58 50.77, 112.49 0.07 M19.46 104.75 C50.28 72.35, 79.16 42.27, 119.28 0.05 M24.21 106.62 C44.97 81.68, 66.78 59.05, 117.09 -0.88 M30.96 110.75 C55.62 66.68, 88.3 35.62, 122.62 0.1 M28.8 108.91 C52.63 77.8, 82.01 45.86, 121.24 -0.39 M35.4 107.35 C63.06 70.1, 94.85 33.47, 128.76 4.21 M35.34 106.75 C56.98 80.11, 83.27 55.07, 125.46 0.39 M41.67 109.44 C64.39 74, 91.13 44.61, 128.92 0.66 M36.77 109.09 C68.47 73.41, 97.74 40.02, 131.17 -1.54 M47.18 110.11 C69.55 85.83, 84.67 59.34, 140.82 2.77 M43.89 106.03 C80.84 70.03, 111.22 33.8, 136.76 -0.31 M49.87 105.48 C69.95 85.05, 92.61 55.84, 143.2 -2.46 M49.51 107.52 C70.54 84.88, 86.9 62.42, 144.26 1.34 M54.64 107.39 C76.66 86.18, 92.68 56.61, 151.8 2.52 M55.06 105.93 C77.65 79.52, 103.49 50.09, 147.42 -1.23 M61.43 104.17 C83.05 83.48, 101.59 57.29, 153.89 -1.54 M58.71 106.7 C100.15 64.73, 137.88 22.47, 154.38 0.02 M63.68 105.39 C96.57 74.5, 120.01 43.19, 160.22 2.12 M65.99 106.97 C88.77 81.19, 114.72 54.01, 159.78 0.45 M68.35 110.65 C96.03 70.82, 128.2 43.15, 163.55 -0.99 M69.96 106.2 C91.01 82.21, 109.88 60.05, 163.38 1.35 M78.38 106.23 C104.61 72.56, 141.29 38.45, 166.68 0.12 M77.77 108.75 C107.27 73.89, 138.26 38.35, 170.17 0.6 M80.74 105.96 C110.26 68.85, 144.55 37.78, 172.87 -1.32 M82.83 106.62 C103.04 82.3, 127.83 57.51, 177.02 -0.76 M84.91 107.88 C110.07 79.95, 130.17 57.25, 181.93 2.92 M87.42 105.92 C111.94 79.28, 136.2 47.15, 180.8 0.15 M94.86 111.03 C115.76 79.14, 141.86 44.11, 188.65 0.81 M90.8 109.65 C117.13 79.24, 145.63 49.09, 185 -1.37 M99.58 104.19 C123.79 72.95, 157.47 39.25, 186.84 0.81 M95.88 108.2 C114.61 84.97, 134.54 58.57, 191.86 1.09 M101.06 106.63 C126.04 78.92, 146.54 53.03, 199.81 -3.38 M101.29 106.05 C119.81 81.73, 141.75 59.77, 196.98 -0.43 M104.81 108.88 C137.82 72.56, 168.39 42.82, 204.4 -0.05 M108.05 108.36 C126.33 83.4, 148.16 58.62, 201.46 -1.51 M115.85 105.43 C147.56 64.72, 184.47 25.51, 209.43 -2.77 M111.67 107.62 C148.11 68.53, 185.7 25.66, 206.53 1.15 M120.53 108.3 C136.68 81.32, 164.39 47.8, 211.74 -1.61 M120.12 107 C149.79 72.88, 181.41 37.96, 213.65 0.47 M125.84 103.97 C157.68 61.24, 191.77 19.76, 218.68 1.59 M125.24 107.24 C161.01 64.43, 196.84 23.51, 219.17 1.52 M126.7 106.43 C156.97 77.31, 187.59 43.78, 220.1 2.02 M130.15 109.52 C161.24 72.73, 194.55 33.44, 222.41 0.21 M135.78 106.65 C162.1 83.39, 182.2 61.38, 226.86 -3.43 M135.23 106.83 C155.35 84.02, 176.96 60.97, 228.35 -2.11 M139.5 105.36 C170.2 72.82, 199.17 42.55, 234.84 0.65 M138.2 106.63 C177.29 65.71, 211.78 24.79, 231.68 -0.04 M144.53 109.77 C173.74 74.06, 209.71 33.39, 238.75 -2.36 M144.81 109.4 C168.24 87.65, 185.64 62.31, 238.82 -0.71 M149.84 110.33 C166.37 89.36, 191.68 66.91, 247.46 -0.08 M148.92 107.36 C179.46 68.48, 212.89 30.38, 243.31 -0.96 M153.1 109.48 C187.24 71.61, 215.32 36.14, 251.23 -2.11 M155.11 107 C184.32 76.44, 211.89 43.56, 249.21 -0.43 M162.78 106.42 C180.32 88.08, 202.37 59.26, 251.58 -2.61 M158.87 107.8 C184.09 77.22, 208.88 49.63, 253.1 1.8 M164.59 109.83 C183.76 86.58, 207.18 56.07, 257.31 -3.46 M165.17 108.76 C190.48 82.96, 210.93 54.33, 260.15 1.87 M173.51 106.63 C204.06 78.79, 225.23 39.37, 266.95 -1.55 M172.59 107.11 C205.43 68.16, 237 27.45, 266.79 1.7 M176.26 106.72 C198.97 89.51, 214.46 62.33, 272.8 3.96 M175.98 108.87 C211.98 72.11, 244.68 33.85, 268.83 -0.33 M183.34 103.78 C204.28 78.09, 231.24 56.95, 275.43 0.4 M182.53 107.5 C220.29 68.84, 253.14 26.3, 276.06 1.21 M187.47 103.95 C211.89 79.59, 242.73 46.47, 279.64 2.36 M186.46 106.56 C214.57 78.79, 238.65 47.94, 280.4 1.48 M191.68 110.62 C217.12 79.5, 236.69 54.54, 285.01 0.4 M193.08 106.26 C210.73 83.29, 230.82 62.63, 286.51 -0.09 M199.72 105.17 C226.03 75.03, 251.14 44.85, 289.88 1.85 M197.47 106.15 C214.79 85.54, 237.31 59.5, 291.93 -1.09 M204.11 103.73 C230.03 82.32, 251.5 51.66, 297.83 3.49 M204.57 107.71 C232.15 74.72, 262.77 38.33, 297.7 -1.58 M208.63 105.92 C245.27 65.29, 280.21 26.57, 305.7 0.39 M207.82 109.01 C242.12 68.87, 273.05 33.71, 300.46 -1.4 M216.3 111.6 C237.76 77.71, 263.23 50.76, 310.11 -1.43 M213.28 107.27 C243.68 70.77, 272.03 37.15, 307.12 -1.59 M219.93 109.61 C257.95 69.67, 289.31 21.72, 311.41 -0.16 M218.24 105.57 C250.55 72.37, 281.79 35.45, 310.93 -1.73 M222.06 110.57 C248.52 82.33, 269.67 65.69, 318.92 -0.04 M223.4 107.41 C256.07 67.29, 294.63 25.9, 316.87 0.16 M233.5 103.54 C253.26 81.88, 275.26 51.81, 314.89 5.47 M231.41 107.34 C258.93 77.18, 286.49 42.96, 317.68 6.25 M237.32 104.87 C255.08 85.24, 279.92 54.99, 316.22 14.11 M235.08 105.64 C253.49 89.41, 267.54 67.55, 315.79 13.27 M242.68 107.62 C255.6 90.03, 279.69 63.81, 315.3 15.86 M239.29 107.62 C255.66 84.23, 276.24 63.08, 316.17 19.36 M244.14 110.59 C264.61 88.56, 283.54 67.43, 315.14 25.49 M244.4 106.56 C264.1 83.4, 281.35 61.85, 317.68 26.54 M252.9 107.37 C265.47 88.82, 287.16 71.72, 319.27 31.96 M249.72 106.53 C276.33 82.51, 295.28 56.06, 315.09 31.97 M254.7 107.72 C273.79 88.79, 286.74 75.62, 319.75 39.26 M255.39 105.82 C267.84 93.16, 281.82 81.96, 315.12 38.67 M261.75 106.46 C280.76 88.47, 298.73 62.03, 318.96 47.87 M262.56 107.51 C275.86 91.76, 292.41 73.79, 314.5 42.81 M263.3 104.1 C276.31 90.43, 295.12 75.14, 312.92 51.73 M267.99 106.14 C284.86 87.25, 306.55 66.05, 315.29 48.65 M269.59 107.68 C279.81 94.02, 292.01 85.15, 314.59 59.3 M272.21 106.31 C278.99 96.26, 290.88 86.88, 316.35 55.39 M278.38 111.46 C296.08 88.29, 312.13 75.79, 319.66 59.03 M278.1 109.3 C292.35 94.1, 303.01 78.64, 315.28 60.53 M278.92 105.7 C292.51 91.43, 305.28 78.9, 318.58 68.12 M283.05 107.73 C292.65 96.43, 301.78 85.07, 316.57 70.55 M290.49 105.39 C292.84 99.98, 302.04 87.99, 318.42 73.98 M289.55 108.14 C295.5 97.26, 306.01 85.95, 317.51 76.21 M294.37 111.04 C304.34 101.29, 314.57 86.11, 318.11 79.29 M293.37 109.65 C300.51 97.37, 307.39 90.66, 315.68 79.46 M296.32 105.37 C305.17 98.62, 313.7 90.88, 315.76 90.97 M298.11 106.56 C301.84 105.19, 307.26 99.33, 316.27 88.34 M306.66 110.13 C310.23 98.18, 313.42 93.62, 314.48 93.66 M303.41 107 C305.42 102.33, 310.83 97.33, 318.13 92.32 M307.93 109.23 C311.27 103.58, 312.04 104.24, 317.62 98.78 M308.38 107.45 C311.54 103.5, 314.88 101.04, 317.31 100.1" stroke="#4c6ef5" stroke-width="0.5" fill="none"></path><path d="M1.29 0.63 C69.45 -0.61, 137.23 -0.07, 316.94 0.31 M0.52 -1.02 C102.55 -0.56, 206.44 -0.74, 316.09 -1.38 M317.88 1.12 C312.99 20.05, 317.4 44.82, 317.64 108.74 M315.05 0.69 C316.84 35.1, 318.46 72.49, 314.48 105.26 M315.37 103.27 C205.64 102.19, 96.43 102.22, -0.73 105.91 M315.74 107.21 C239.92 106.99, 166.48 105.98, -1.2 106.29 M2.75 102.29 C0.92 76.8, 0.82 56.09, -1.07 -0.93 M0.16 105.43 C1.69 81.6, 1.93 61.98, -1.39 0.18" stroke="#000000" stroke-width="1" fill="none"></path></g><g transform="translate(38.45859242997358 267.4493541773045) rotate(0 129.5 22.5)"><text x="129.5" y="32" font-family="Virgil, Segoe UI Emoji" font-size="36px" fill="#000000" text-anchor="middle" style="white-space: pre;" direction="ltr">Categorization</text></g><g transform="translate(363.91407864307257 254.71132212683733) rotate(0 457.5 37.5)"><text x="0" y="18" font-family="Virgil, Segoe UI Emoji" font-size="20px" fill="#000000" text-anchor="start" style="white-space: pre;" direction="ltr">Ensemble learning is a machine learning paradigm where multiple models, called weak learners, </text><text x="0" y="43" font-family="Virgil, Segoe UI Emoji" font-size="20px" fill="#000000" text-anchor="start" style="white-space: pre;" direction="ltr">will be trained on the same data (or from the same distribution of data). The idea is to </text><text x="0" y="68" font-family="Virgil, Segoe UI Emoji" font-size="20px" fill="#000000" text-anchor="start" style="white-space: pre;" direction="ltr">combine multiple weak learners to overcome their limitations.</text></g><g stroke-linecap="round" transform="translate(16.01095987330507 462.74268709805983) rotate(0 257.70853047017283 170.2806160301434)"><path d="M-1.44 0.06 C177 -0.2, 356.45 -0.82, 515.67 -0.2 M513.3 -2.4 C509.7 116.67, 509.56 226.62, 514.89 341.67 M514.91 341.69 C324.48 339.98, 132.92 339.6, 1.45 339.26 M-1.55 342.6 C-1.6 236.77, -2.55 135.54, -0.32 -0.63" stroke="#000000" stroke-width="1.5" fill="none" stroke-dasharray="8 9"></path></g><g transform="translate(49.826491413439726 498.8440781121135) rotate(0 183 37.5)"><text x="0" y="18" font-family="Virgil, Segoe UI Emoji" font-size="20px" fill="#000000" text-anchor="start" style="white-space: pre;" direction="ltr">Bagging trains a set of independent </text><text x="0" y="43" font-family="Virgil, Segoe UI Emoji" font-size="20px" fill="#000000" text-anchor="start" style="white-space: pre;" direction="ltr">weak learners in parallel, having as </text><text x="0" y="68" font-family="Virgil, Segoe UI Emoji" font-size="20px" fill="#000000" text-anchor="start" style="white-space: pre;" direction="ltr">a side effect a variance reduction.</text></g><g transform="translate(52.841031641946756 620.7061657458726) rotate(0 210 25)"><text x="0" y="18" font-family="Virgil, Segoe UI Emoji" font-size="20px" fill="#000000" text-anchor="start" style="white-space: pre;" direction="ltr">Bootstrapping is employed in order to deal</text><text x="0" y="43" font-family="Virgil, Segoe UI Emoji" font-size="20px" fill="#000000" text-anchor="start" style="white-space: pre;" direction="ltr">with different portions of the data.</text></g><g stroke-linecap="round"><g transform="translate(52.76839646119333 524.4053174123364) rotate(0 27.920955368961792 0.30243221490491123)"><path d="M-0.85 0.82 C8.78 1.03, 47.09 1.3, 56.69 1.3 M0.9 0.21 C10.48 0.04, 46.62 -0.94, 55.82 -0.64" stroke="#0b7285" stroke-width="1" fill="none"></path></g></g><mask></mask><g stroke-linecap="round"><g transform="translate(67.16487086499546 643.055087408713) rotate(0 44.51881608273915 0.9631050330635844)"><path d="M0.82 0.13 C15.69 0.46, 74.59 0.92, 89.25 1.13 M-0.21 -0.84 C14.53 -0.22, 73.8 2.75, 88.48 2.77" stroke="#0b7285" stroke-width="1" fill="none"></path></g></g><mask></mask><g transform="translate(54.32915352755958 727.2643456910537) rotate(0 192.5 25)"><text x="0" y="18" font-family="Virgil, Segoe UI Emoji" font-size="20px" fill="#000000" text-anchor="start" style="white-space: pre;" direction="ltr">The final prediction will be given by the</text><text x="0" y="43" font-family="Virgil, Segoe UI Emoji" font-size="20px" fill="#000000" text-anchor="start" style="white-space: pre;" direction="ltr">average or the majority vote. </text></g><g stroke-linecap="round"><g transform="translate(110.79921677502102 754.0277997001376) rotate(0 51.75163243840466 -1.4674685239961036)"><path d="M0.36 0.19 C17.62 -0.04, 87.19 -0.74, 104.42 -1.23 M-0.92 -0.76 C16.11 -1.36, 85.55 -2.91, 103.39 -3.12" stroke="#0b7285" stroke-width="1" fill="none"></path></g></g><mask></mask><g stroke-linecap="round" transform="translate(12.004698966178694 417.49706165922544) rotate(0 126.5 23)"><path d="M0 0 C0 0, 0 0, 0 0 M0 0 C0 0, 0 0, 0 0 M-1.82 7.66 C2.33 5.18, 2.68 1.61, 5.49 -0.77 M-1 6.67 C1.19 4.72, 1.63 3.02, 5.46 0.68 M0.46 11.74 C7.62 5.79, 8.58 2.99, 10.84 0.38 M1.5 10.62 C4.21 8.37, 8.76 3.78, 9.1 -0.21 M-2.52 16.05 C6.43 12, 9.1 11.02, 15.27 -3.43 M1.34 19.41 C3.09 14.16, 7.52 11.48, 13.97 2.14 M1.38 20.6 C9.94 14.77, 16.65 4.76, 18.3 3.61 M1.25 22.53 C7.8 17.64, 15.38 7.69, 22.38 1.74 M2.72 30.99 C4.56 19.06, 15.04 13.24, 29.92 -0.02 M-1.23 31.09 C9.05 22.62, 13.78 12.74, 27.1 0.99 M-2.4 34.11 C10.8 32.58, 11.88 18.75, 29.55 1.23 M1.43 35.38 C8.41 29.85, 14.88 20.75, 32.68 -1.98 M2.99 43.11 C7.74 34.55, 16.67 22.62, 34.17 -3.06 M-1.45 43.37 C8.93 33.59, 18.93 22.93, 35.16 1.27 M1.33 44.86 C11.15 32.26, 32.18 14.68, 40.71 3.42 M1.87 46.12 C13.97 35.31, 21.14 25.31, 40.7 0.15 M10.39 45.46 C20.92 28.86, 36.51 18.17, 46.14 0.49 M7.59 45.06 C21.36 29.76, 39.5 12.23, 45.7 -0.39 M15.4 48.07 C22.34 40.38, 34.54 22.92, 53.94 0.18 M12.57 47.81 C29.02 29.53, 42.58 11.42, 51.45 -1.2 M18 45.54 C29.89 35.68, 42.59 23.82, 62.09 -0.47 M15.52 46.58 C31.94 31.36, 46.74 11.9, 56.22 1.69 M20.36 49.73 C36.72 30.39, 51.89 16.58, 61.57 1.34 M21.1 45.45 C34.93 31.58, 46.16 16.85, 61.91 -0.32 M31.67 48.22 C39.88 32.24, 46.24 20.24, 72.38 -1.13 M26.62 46.92 C38.17 34.74, 52.19 21.65, 70.14 -1.74 M32.1 45.12 C47.22 28.28, 62.76 8.38, 78.02 -3.37 M34.13 46.55 C45.31 32.71, 57.94 16.94, 72.95 -0.43 M35.35 49.73 C52.69 32.07, 61.98 27.75, 77.5 3.15 M37.03 47.61 C51.44 30.85, 64.38 17.03, 80.83 1.12 M44.6 45.4 C61.52 28.09, 72.49 5.71, 83.84 3.66 M44.26 47.66 C59.23 28.82, 73.08 10.18, 85.41 -1.69 M51.08 50.17 C59.67 34.47, 69.84 27.88, 88.07 0.91 M50.84 45.23 C62.11 35.67, 70.81 20.21, 91.57 -0.85 M53.99 45.61 C71.98 28.74, 83.05 9.01, 97.72 -4.11 M54.05 46.41 C67.72 33.53, 82.67 17.76, 96.06 -1.2 M59.05 45.51 C69.49 35.71, 83.1 14.65, 100.84 -3.42 M60.05 47.45 C65.91 35.42, 76.57 26.39, 99.61 -1.72 M66.5 48.66 C75.14 32.36, 88.44 18.06, 104.47 -1.32 M63.99 45.47 C72.26 34.23, 84.66 24.59, 105.6 -0.99 M68.91 44.36 C85.78 30.68, 93.85 22.62, 114.68 2.42 M67.98 45.74 C80.88 31.93, 93.47 17.02, 112.13 1.52 M74.5 49.35 C86.25 35.03, 97.28 21.48, 118.37 2.01 M76.5 48.6 C86.23 33.77, 93.01 22.72, 118.02 0.73 M82.4 48.92 C95.25 29.05, 108.79 19.93, 122.58 -1.38 M79.82 48.35 C91.65 32.63, 103.15 18.76, 122.23 0.91 M88.5 50.32 C101.34 25.9, 119.13 14, 129.77 -2.54 M87.94 48.6 C99.42 32.2, 110.36 17.89, 127.22 -1.47 M89.43 43.57 C106.55 32.45, 116.91 14.82, 135.65 -2.8 M90.75 48.9 C102.53 38.64, 111.85 24.73, 132.96 1.59 M97.1 46.13 C108.19 34.36, 126.51 12.67, 141.21 -1.24 M96.62 47.35 C107.21 33.85, 120.65 21.45, 137.05 0.32 M102.68 47.76 C112.04 38.79, 122.48 20.94, 143.15 2.07 M100.54 47.27 C117.88 30.18, 134.1 10.03, 141.32 1.73 M107.06 47.17 C119.29 29.38, 137.03 15.32, 145.99 -1.22 M106.77 47.78 C115.43 36.98, 126.61 24.67, 147.98 0.31 M108.94 44.85 C120.26 38.11, 130.23 25.97, 152.45 1.02 M112.9 46.45 C124.16 34.14, 137.78 17.2, 154.23 0.59 M119.24 47.75 C131.86 29.39, 148.71 18.76, 159.54 2.22 M116.56 45.89 C132.01 30.31, 141.33 16.79, 160.4 -0.21 M125.16 46.07 C132.28 34.76, 144.83 18.32, 165.03 -2.27 M123.47 48.45 C137.86 28.59, 153.92 14.13, 164.55 -1.53 M128.64 50.01 C143.38 33.54, 155.76 20.67, 171.43 1.69 M130.11 46.74 C140.6 31.09, 153.46 17.82, 170.63 -0.9 M134.39 50.51 C143.36 31.71, 157.21 24.36, 176.51 3.71 M131.83 46.36 C145.78 34.97, 155.11 20.84, 175.08 0.74 M140.38 48 C151.82 31.75, 172.82 12.28, 177.32 1.66 M137.47 48.45 C153.27 31.3, 164.38 16.64, 178.95 1.64 M141.81 45.16 C161.99 30.25, 171.51 20.23, 184.65 -1.62 M145.49 48.35 C152.66 33.99, 164.78 24.35, 186.55 -2.15 M153.69 43.63 C165.53 29.5, 180.59 15.25, 187.04 2.49 M150.62 46.2 C164.2 31.16, 177.73 13.88, 189.56 1.88 M158.74 44.85 C161.76 33.29, 172.43 26.08, 197.3 1.04 M155.93 45.62 C167.78 33.79, 178.67 20.81, 197.65 1.28 M161.95 46.69 C175.61 31.19, 186.59 19.57, 200.51 0.39 M159.49 48.24 C167.56 35.27, 177.04 24.81, 202.61 1.34 M162.59 44.31 C174.6 36.02, 187.57 26.71, 208.47 -1.16 M166.52 48.45 C181.59 26.99, 197.75 11.1, 204.98 -0.4 M168.66 50.83 C179.43 33.02, 192.41 20.56, 215.78 3.47 M171.95 47.89 C181.66 30.76, 194.55 14.65, 210.17 0.61 M176.93 50.15 C189.17 31.93, 200.69 15.67, 214.28 2.82 M176.6 46.19 C191.62 28.38, 210.15 10.5, 219.09 -1.57 M179.42 49.61 C198.82 29.85, 212.05 14.98, 221.05 -0.29 M181.78 47.51 C194.67 35.15, 207.97 19.94, 224.27 -0.65 M183.43 48.83 C195.38 33.55, 204.33 23.9, 228.95 -0.1 M185.44 47.24 C194.28 37.95, 202.93 27.71, 228.48 0.45 M193.34 45.17 C201.55 35.87, 217.31 17.53, 234.61 -3.06 M192.08 47.29 C204.93 31.84, 217.82 19.72, 232.86 0.28 M193.92 46.71 C211.51 39.6, 220.01 23.64, 236.22 1.61 M196.24 47.06 C209.7 34.2, 219.55 25.83, 238.9 2.17 M205.59 45.3 C213.37 30.62, 225.46 18.43, 240.89 -1.1 M201.83 46.23 C213.65 35.52, 222.89 21.85, 243.84 1.16 M210.31 46.01 C216.98 38.54, 230.05 28.2, 247.89 1.1 M208.15 48.18 C218.87 34.47, 232.13 23, 248.04 -1.12 M211.51 43.92 C222.9 35.26, 228.83 22.5, 253.81 -2.05 M213.98 46.62 C231.06 27.63, 247.79 10.54, 252.37 -0.39 M216.66 44.84 C228.94 41.63, 236.88 27.03, 254.01 8.47 M220.25 48.2 C231.42 34.33, 247.19 16, 251.64 8.01 M225.22 50.07 C229.86 41.35, 240.43 26.54, 252.85 16.11 M222.09 47.11 C235.82 35.31, 249.43 19.75, 253.05 14.08 M227.16 45.16 C241.55 39.46, 250.57 28.62, 254.63 16.61 M227.55 47.76 C234.21 38.5, 240.99 32.31, 255.24 18.97 M230.96 48.65 C239.66 42.67, 246.66 30.53, 250.66 25.42 M233.65 47.37 C239.91 37.52, 250.7 30.64, 255.43 24.23 M238.11 44.82 C243.3 42.73, 251.9 32.2, 255.24 30.53 M241.02 46.58 C246.67 42.53, 249.54 35.29, 253.6 30.49 M246.38 48.07 C245.95 43.09, 249.37 40.63, 254.83 37.76 M245.7 47.87 C246.92 44.95, 250.33 41.17, 254.15 37.08 M250.99 46.62 C251.25 44.68, 253.79 44.72, 253.16 43.5 M250.89 47.09 C250.97 46.36, 252.74 45.05, 254.17 43.31" stroke="#228be6" stroke-width="0.5" fill="none"></path><path d="M-0.41 1.19 C76.38 -3.64, 154.84 -3.57, 250 2.49 M0.68 1.17 C51.69 0.17, 101.96 1.96, 253.88 1.07 M249.74 0.11 C254.77 16.79, 251.06 36.98, 252.94 44.95 M252.53 0.26 C251.47 11.31, 251.45 22.72, 251.07 45.49 M252.82 47.68 C180.69 41.65, 105.66 43.65, 0.52 43.26 M254.34 47.12 C170.35 45.1, 89.51 45.06, 1.06 45.57 M-3.13 46.32 C-0.35 34.47, -2.69 22.21, 2.6 -2.78 M0.34 47.48 C1.3 32.11, 0.56 17.12, 1.67 -0.82" stroke="#000000" stroke-width="1" fill="none"></path></g><g transform="translate(88.0046989661787 422.49706165922544) rotate(0 50.5 17.5)"><text x="50.5" y="25" font-family="Virgil, Segoe UI Emoji" font-size="28px" fill="#000000" text-anchor="middle" style="white-space: pre;" direction="ltr">Bagging</text></g><g stroke-linecap="round" transform="translate(572.6250591776188 462.4728714127268) rotate(0 233.510050199185 170.2806160301434)"><path d="M-1.31 -1.68 C146.02 -3.2, 293.25 -0.16, 465.25 -1.8 M467.76 -1.06 C468.06 97.28, 470.35 192.57, 468.85 341.68 M467.65 340.48 C283.46 342.07, 102 340.2, -0.67 341.35 M-2.57 339.49 C-1.53 240.48, -1.5 143.69, -0.09 -1.71" stroke="#000000" stroke-width="1.5" fill="none" stroke-dasharray="8 9"></path></g><g stroke-linecap="round" transform="translate(568.9605847150015 417.2272459738888) rotate(0 126.5 23)"><path d="M0 0 C0 0, 0 0, 0 0 M0 0 C0 0, 0 0, 0 0 M0.87 5.18 C0.67 5.64, 0.64 2.87, 5.61 -0.74 M-0.6 5.88 C0.17 5.59, 2.2 4.56, 4.26 0.7 M-1.34 12.12 C3.82 8.3, 7.09 6.13, 12.93 -1.81 M0.64 13.37 C4.6 5.79, 8.25 2.13, 9.19 0.71 M-1.6 18.97 C6.23 13.58, 3.89 7.1, 16.52 -0.17 M-0.14 18.67 C7.2 10.1, 13.28 5.2, 15.14 2.01 M-1.17 27.27 C3.64 12.89, 18.13 8.7, 17.7 3 M1.86 25.36 C7.32 16.68, 17.12 7.35, 21.99 -0.23 M-2.07 29.41 C11.08 23.49, 18.92 7.57, 22.3 -1.43 M0.11 29.41 C4.49 23.79, 13.02 14.28, 26.6 0.01 M3.71 34.61 C6.68 24.8, 17.43 15.34, 30.69 -2.8 M0.89 36.82 C13.32 23.13, 23.14 7.35, 33.36 -1.45 M2.71 40.48 C15.33 24.37, 23.97 8.95, 35.85 4.21 M2.03 43.55 C9.2 31.55, 17 24.61, 37.23 0.62 M2.04 51.02 C13.45 31.92, 30.44 17.42, 39.4 -1.22 M0.89 45.72 C17.32 29.04, 29.71 15.79, 41.61 0.14 M4.72 48.57 C26.14 27.48, 39.11 14.56, 49.04 -2.75 M7.59 47.67 C23.33 29.93, 34.61 14.55, 45.72 -0.79 M15.36 50.19 C24.8 29.62, 44.19 13.84, 54.61 0.31 M12.53 46.39 C26.63 29, 38.51 14.03, 54.48 -0.63 M18.62 50.76 C32.48 35.85, 42.64 19.62, 57.57 0.3 M18.69 46.87 C24.5 35.69, 35.66 28.36, 57.87 1.08 M20.74 50.8 C31.48 33.09, 43.92 23.58, 62.99 0.45 M21.16 45.94 C31.27 34.48, 42.46 24.65, 64.8 -0.99 M25.62 43.74 C41.72 32.06, 58.19 9.73, 69.06 -1.88 M28.94 47.7 C38.54 38.36, 44.63 27.81, 70.5 1.47 M32.26 47.11 C41.92 37.89, 53.25 21.51, 75.08 -3.97 M32.37 46.85 C46.17 29.23, 62.37 12.94, 74.42 -2.24 M34.78 49.83 C50.26 34.15, 58.63 25.94, 78.97 1.56 M36.96 48.11 C45.6 38.07, 56.93 28.45, 79.53 1.56 M43.9 43.47 C54.06 30.42, 74.73 19.37, 85.28 -2.04 M42.81 45.55 C55.43 32.06, 69.18 14.67, 86.29 -1.73 M46.99 49.46 C64.22 28.53, 77.33 13.02, 86.65 -0.37 M50.44 46 C63.37 30.42, 79.63 12.73, 91.92 0.44 M53.52 46.39 C63.73 34.76, 75 20.03, 95.88 -0.69 M56.21 48.41 C68.27 34.11, 77.46 20.32, 96.39 -0.89 M63.06 45.19 C67.99 34.63, 79.33 17.79, 103.34 -0.57 M58.13 47.21 C70.86 32.35, 82.62 18.69, 101.7 -0.81 M62.82 48.47 C75.21 29.44, 91.6 12.78, 109.05 -0.74 M63.33 47.72 C76.29 35.38, 85.9 24.14, 105.8 -1.19 M66.98 46.45 C85.24 37.27, 95.76 20.97, 112.13 2.23 M69.18 46.24 C77.85 39.42, 88.95 28.86, 109.96 0.77 M77.43 44.47 C88.11 36.88, 98.9 19.52, 118.16 3.87 M74.02 45.71 C87.44 32.19, 103.35 14.36, 115.98 0.58 M76.6 50.54 C95.83 31.35, 107.45 13.53, 123.98 3.38 M79.77 47.31 C89.71 35.43, 102.75 24.61, 120.85 -1.88 M82.8 47.26 C103.22 33.61, 111.62 14.15, 126.45 -0.94 M85.18 46.57 C100.02 29.08, 115.11 11.08, 127.41 1.29 M91.68 47.15 C100.65 37.95, 110.51 19.73, 129.77 0.38 M93.18 48.8 C100.78 34.2, 115.07 21.86, 133.58 -1.9 M100.29 47.83 C108.18 37.03, 120.45 17.8, 135.03 3.15 M96.78 48.41 C108.57 33.62, 120.18 19.44, 135.71 0.05 M104.51 47.33 C111.3 32.31, 130.44 19.94, 140.2 0.84 M102.42 48.31 C109.72 34.45, 123.17 26.26, 142.45 1.5 M107.12 47.29 C121.46 31.96, 129.51 17.61, 145.58 -0.19 M107.85 47.27 C116.47 35.27, 128.66 22.4, 150.16 -0.9 M115.25 44.26 C125.05 36.45, 131.73 28.05, 153.88 -1.48 M113.53 47.34 C124.94 32.99, 140.21 18.23, 152.78 -0.92 M116.4 48.9 C135.19 32.6, 146.62 16.93, 159.63 2.85 M116.47 45.15 C127.07 37.66, 136.27 25.25, 157.15 0.67 M123.93 45.26 C135.6 31.92, 150.35 17.65, 165.28 -2.72 M121.64 47.35 C137.68 32.61, 147.53 17.33, 164.98 -0.51 M129.09 50.02 C141.55 34.52, 153.71 19.4, 170.6 0.21 M127.81 45.96 C144.59 31.34, 157.71 12.35, 168.12 -1.1 M130.48 47.75 C148.37 34.22, 163.04 16.59, 172.75 3.12 M134.94 45.74 C142.64 37.52, 152.05 29.17, 174.51 1.36 M142.05 50.14 C152.81 29.6, 167.06 17.09, 179.76 1.93 M138.07 47.58 C145.01 35.61, 156.79 27.67, 179.55 -0.14 M142.66 47.29 C158.41 34.23, 163.02 21.77, 186.52 0.15 M142.67 47.84 C158.82 31.87, 171.42 14.41, 183.92 1.23 M148.01 50.89 C165.3 24.57, 185.02 11.79, 188.29 0.21 M150.53 45.79 C163.31 30.54, 178.98 14.65, 189.01 1.57 M152.16 45.56 C172.35 30.22, 189.41 10.21, 196.69 -1.37 M155.14 46.92 C171.15 31.8, 185.98 13.93, 194.77 1.59 M159.55 48.01 C175.39 30.07, 188.05 12.08, 205.21 1.34 M159.54 46.34 C168.59 37.28, 180.98 23.4, 203.11 1.99 M166.5 50.36 C178.47 38.12, 183.98 28.84, 205.22 2.91 M163.73 48.18 C179.22 28.83, 193.43 13.59, 207.74 -1.14 M169.17 47.36 C177.4 40.11, 192.84 26.1, 215.45 1.77 M170.5 44.91 C182.46 30.2, 198.49 17.32, 213.55 -0.98 M177.09 43.64 C189.78 28.99, 204.9 20.94, 217.98 3.49 M176.86 48.77 C191.23 33.96, 201.71 18.38, 218.53 -0.59 M181.19 48.95 C191.73 33.52, 200.29 24.26, 219.78 -3.96 M183.87 47.1 C194.77 34.94, 204.82 17.95, 221.08 -1.51 M183.23 45.44 C192.65 38.06, 204.42 23.67, 228.68 0.99 M188.04 45.76 C197.28 37.16, 206.47 26.41, 229.92 -0.46 M195.2 47.64 C206.38 33.47, 217.22 16, 234.88 0.84 M190.53 49.22 C205.54 31.98, 217.92 16.21, 231.49 -1.85 M200.08 49.96 C203.62 34.59, 215.95 24.61, 234.27 -1.08 M195.83 48.18 C208.65 36.32, 218.57 24.54, 239.1 2.24 M200.61 46.18 C218.76 26.85, 233.15 10.01, 245.27 -1.03 M202.38 47.25 C212.39 34.44, 226.32 20.56, 243.66 -0.27 M210.67 49.48 C226.17 29.81, 237.98 12.68, 245.54 0.62 M207.84 48.99 C220.35 32.59, 230.61 18.06, 248.29 2.17 M212.73 43.68 C222.43 35.35, 232.33 26.97, 250.72 4.12 M212.42 49.36 C228.09 29.53, 240.32 13.07, 252.88 1.61 M221.91 50.45 C224.61 37.2, 237.8 30.02, 253.27 4.65 M220.77 49.07 C230.15 30.44, 245.23 16.69, 254.88 9 M227.42 48.64 C231.47 34.88, 247 27.9, 250.32 13.92 M225.36 48.93 C230 39.14, 238.3 34.37, 254.95 11.95 M232.6 49.43 C238.91 40.84, 239 31.9, 252 18.61 M228.35 45.25 C234.56 43.3, 239.12 36.23, 255.22 17.26 M236.4 47.67 C235.43 39.19, 243.34 40.47, 254.08 26.23 M232.98 49.24 C239.6 43.15, 244.21 36.92, 253.77 24.94 M241.39 49.09 C240.11 44.56, 246.52 41.67, 251.43 32.46 M241.41 46.31 C244.8 41.07, 249.06 36.03, 252 31.66 M243.88 46.17 C247.45 45.32, 251.18 40.71, 253.44 39.86 M245.74 47.48 C247.88 44.61, 250.48 41.09, 252.42 38.36 M249.71 47.79 C252.15 44.98, 253.17 43.87, 253.59 43.29 M250.95 47.47 C251.65 45.97, 253.01 44.91, 254.05 43.43" stroke="#228be6" stroke-width="0.5" fill="none"></path><path d="M-3 -2.59 C69.76 -0.04, 147.87 -0.21, 249.79 -0.64 M-0.64 -0.52 C87.57 -0.27, 173.92 -0.03, 253.68 1.47 M252.83 -2.33 C256.09 9.99, 251.98 18.63, 254.74 45.52 M252.2 -1.95 C251.62 10.79, 252.61 25.37, 251.72 44.75 M251.23 48.82 C178.71 50.02, 101.23 50.17, -1.7 45.17 M253.15 44.81 C156.4 43.25, 59.15 41.82, -1.4 45.16 M1.2 42.52 C1.61 38.4, -2.85 25.96, -2.09 -0.7 M0.32 46.08 C-1.14 33.08, -1.51 15.86, -0.24 1.72" stroke="#000000" stroke-width="1" fill="none"></path></g><g transform="translate(636.9605847150015 422.7272459738888) rotate(0 58.5 17.5)"><text x="58.5" y="25" font-family="Virgil, Segoe UI Emoji" font-size="28px" fill="#000000" text-anchor="middle" style="white-space: pre;" direction="ltr">Boosting</text></g><g transform="translate(596.5157636891036 478.88766226177177) rotate(0 216 125)"><text x="0" y="18" font-family="Virgil, Segoe UI Emoji" font-size="20px" fill="#000000" text-anchor="start" style="white-space: pre;" direction="ltr">With boosting, each weak learner is not </text><text x="0" y="43" font-family="Virgil, Segoe UI Emoji" font-size="20px" fill="#000000" text-anchor="start" style="white-space: pre;" direction="ltr">independent anymore. Each model will be fit </text><text x="0" y="68" font-family="Virgil, Segoe UI Emoji" font-size="20px" fill="#000000" text-anchor="start" style="white-space: pre;" direction="ltr">one after the other, providing feedback </text><text x="0" y="93" font-family="Virgil, Segoe UI Emoji" font-size="20px" fill="#000000" text-anchor="start" style="white-space: pre;" direction="ltr">about the prediction outcomes. </text><text x="0" y="118" font-family="Virgil, Segoe UI Emoji" font-size="20px" fill="#000000" text-anchor="start" style="white-space: pre;" direction="ltr"></text><text x="0" y="143" font-family="Virgil, Segoe UI Emoji" font-size="20px" fill="#000000" text-anchor="start" style="white-space: pre;" direction="ltr">Each model will give a higher importance to </text><text x="0" y="168" font-family="Virgil, Segoe UI Emoji" font-size="20px" fill="#000000" text-anchor="start" style="white-space: pre;" direction="ltr">the bad data points, hence the ones </text><text x="0" y="193" font-family="Virgil, Segoe UI Emoji" font-size="20px" fill="#000000" text-anchor="start" style="white-space: pre;" direction="ltr">that are not correctly classified.</text><text x="0" y="218" font-family="Virgil, Segoe UI Emoji" font-size="20px" fill="#000000" text-anchor="start" style="white-space: pre;" direction="ltr"></text><text x="0" y="243" font-family="Virgil, Segoe UI Emoji" font-size="20px" fill="#000000" text-anchor="start" style="white-space: pre;" direction="ltr">This allows to reduce the bias.</text></g><g stroke-linecap="round"><g transform="translate(749.5403298373004 730.6047294944856) rotate(0 76.1419588617278 -0.9768869708532293)"><path d="M-1.08 -1.11 C24.66 -1.43, 127.98 -2.74, 153.37 -2.88 M0.55 0.92 C26.32 0.79, 127.4 -1.68, 152.9 -1.95" stroke="#0b7285" stroke-width="1" fill="none"></path></g></g><mask></mask><g stroke-linecap="round"><g transform="translate(818.6887870288158 628.994291379624) rotate(0 81.2503516485935 1.2002647151566634)"><path d="M0.92 -1.17 C27.85 -0.63, 133.6 1.42, 160.47 2.16 M-0.06 0.83 C27.31 1.66, 135.61 3.48, 162.56 3.57" stroke="#0b7285" stroke-width="1" fill="none"></path></g></g><mask></mask><g stroke-linecap="round"><g transform="translate(657.0077589721659 504.4797062254074) rotate(0 30.70090009933955 0.1279836278554285)"><path d="M-1.17 -1.19 C9.44 -1.1, 51.76 1.03, 62.57 1.44 M0.42 0.81 C10.95 0.45, 51.01 -0.75, 61.5 -0.42" stroke="#0b7285" stroke-width="1" fill="none"></path></g></g><mask></mask><g stroke-linecap="round" transform="translate(1079.9085525957455 457.86591532677267) rotate(0 257.70853047017283 105.59578514693021)"><path d="M-0.32 0.67 C195.31 4.52, 387.67 3.56, 516.54 0.87 M518.62 -2.87 C518.07 78.53, 517.82 152.58, 518.12 211.14 M515.23 210.82 C374.51 211.45, 232.54 211.43, -1.2 209.65 M-2.21 211 C1.95 156.26, -1.8 98.37, 0.24 0.56" stroke="#000000" stroke-width="1.5" fill="none" stroke-dasharray="8 9"></path></g><g stroke-linecap="round" transform="translate(1076.2440781331263 412.62028988793463) rotate(0 126.5 23)"><path d="M0 0 C0 0, 0 0, 0 0 M0 0 C0 0, 0 0, 0 0 M-1.74 6.93 C1.46 4.39, 1.11 2.41, 5.94 1.01 M-0.18 6.32 C2.68 3.64, 3.94 1.77, 5.04 0.46 M2.86 9.2 C4.72 8.87, 10.08 3.99, 7.57 -0.39 M-0.82 11.08 C3.96 8.14, 6.14 6.47, 10.49 -1.54 M2.82 20.38 C2.64 14.15, 7.74 13.1, 12.33 3.96 M0.43 16.7 C6.37 11.82, 11.36 4.93, 14.14 2.17 M2.24 20.97 C8.2 19.24, 16.66 7.03, 23.49 3.56 M1.62 24.34 C4.93 15.57, 12.62 9.84, 23.09 -0.23 M-2.47 31.69 C10.38 22.73, 12.72 11.16, 27.95 1.69 M-1.07 29.1 C7.79 25.71, 10.63 16.16, 25.08 0.96 M3.12 33.88 C9.37 31, 14.82 21.42, 33.46 -3.86 M1.17 37.17 C6.91 28.94, 14.97 18.83, 30.53 -1.76 M-3.04 44.23 C8.73 35.48, 19.96 24.25, 33.43 2.29 M0.21 41.25 C10.41 28.73, 26.28 13.78, 35.97 2.04 M2.55 44.82 C15.56 35.01, 19.46 27.02, 38.87 0.44 M2.97 46.63 C15.6 30.05, 30.54 16.48, 41.84 -0.01 M8.34 43.11 C20.07 30.52, 40.15 14.08, 43.9 -1 M8.62 47.36 C17.12 38.41, 27.83 24.37, 47.9 0.4 M13.33 48.24 C30.52 30.23, 41.6 12.47, 49.76 -2.23 M12.09 46.65 C23.38 35.3, 35.4 22.85, 55.13 -0.5 M13.58 46.18 C31.65 32.59, 46.62 10.5, 54.31 3.19 M16.42 48.17 C30.92 31.13, 44.76 17.02, 57.03 0.96 M19.75 43.57 C34.75 30.28, 44.76 15.16, 60.03 -0.43 M24.24 47.98 C33.73 33.67, 42.54 21.19, 65.59 -0.85 M25.15 46.89 C36.61 35.59, 52.94 22.88, 71.52 -3.64 M27.6 45.85 C42.2 28.62, 57.39 10.12, 70.57 -1.41 M35.17 45.8 C44.97 32, 57.49 15.11, 71.48 -0.62 M31.39 48.72 C45.31 34.27, 55.21 26.06, 73.46 1.27 M35.35 48.3 C51.88 29.09, 65.58 15.47, 82.25 2.12 M39.17 45.97 C55.5 27.95, 68.88 7.66, 78.8 2.09 M44.81 48.06 C59.24 27.93, 71.37 8.55, 85.77 -3.1 M44.57 48.92 C53.34 35.89, 63.2 27.1, 84.06 0.14 M52.32 43.59 C63.3 36.76, 69.94 18.23, 93.11 -1.79 M49.18 46.06 C65.11 29.07, 78.02 10.72, 91.05 -1.81 M53.76 45.58 C67.55 35.4, 83.84 19.49, 96.44 -2.08 M53.87 46.57 C65.4 34.34, 78.68 16.35, 95.76 -2.05 M60.12 48.06 C64.03 33.58, 76.94 25.21, 98.56 -3.49 M60.75 47.57 C70.32 33.27, 82.46 19.81, 99.74 -0.44 M63.01 43.74 C70.28 32.59, 85.18 24.71, 104.89 -1.63 M64.45 45.6 C79.19 31.81, 89.42 20.66, 108 0.86 M66 43.91 C79.48 31.15, 92.15 15.74, 112.96 3.02 M69.41 48.65 C81.73 34.28, 93.37 20.46, 112.33 0.83 M77.4 50.03 C87.65 32.19, 91.55 21.2, 119.77 1.08 M76.51 47.86 C89.06 30.92, 101.89 19.38, 116.6 -0.31 M79.05 49.18 C91.57 31.81, 102.93 17.46, 122.54 1.84 M81.72 49.12 C96.73 27.72, 113.95 12.19, 123.35 -1.46 M89.66 50.07 C100.2 31.15, 109.8 16.67, 127.53 -3.29 M85.34 45.17 C100.14 32.1, 111.68 15.97, 128.46 -1.03 M90.29 50.3 C103.85 40.61, 113.16 23.52, 133.38 3.23 M91.34 47.01 C104.22 32.78, 120.97 13.2, 134.38 -0.82 M96.38 47.6 C106.04 33.77, 121.95 21.57, 136.57 0.32 M97.27 47.25 C107.19 37.27, 117.23 22.81, 137.52 1.38 M99.24 47.09 C117.85 30.75, 134.95 8.11, 139.47 3.55 M101.63 47.51 C115.4 29.68, 131.75 14.05, 142.09 -0.84 M106.04 48.5 C113.62 37.34, 126.82 23.26, 147.8 0.35 M105.72 45.78 C116.22 36.55, 126.49 24.4, 147.48 0.85 M113.33 45.47 C123.15 35.2, 137.69 15.92, 154.65 1.3 M113.04 47.78 C126.88 30.39, 142.6 16.69, 154.18 0.87 M115 44.75 C133.45 28.66, 139.45 16.17, 162 -0.65 M119.15 46.37 C128.67 34.2, 140.53 19.55, 159.09 -0.82 M123.83 49.5 C137.29 27.13, 153.88 16.05, 164.66 -2.91 M123.05 48.9 C136.55 33.54, 148.99 19.91, 165.44 0.58 M131.47 46.48 C139.72 30.14, 152.43 18.57, 171.83 -2 M129.08 48.57 C139.3 33.18, 151.66 23.25, 170.15 2.15 M129.92 45.37 C146.05 36.17, 153.5 20.81, 175.08 1.68 M134.23 47.88 C147.83 30.52, 166.08 11.88, 173.7 0.55 M135.56 49.93 C154.94 29.99, 164.99 14.65, 177.84 3.12 M138.1 45.88 C154.83 30.99, 166.11 18.48, 179.53 -0.53 M146.62 49.37 C151.1 32.29, 165.31 24.56, 187.4 -4.07 M146.21 45.67 C159.21 30.65, 173.39 15.87, 183.88 0.95 M151.23 45.47 C163.69 31.68, 176.59 13.4, 188.43 3.62 M151.88 45.71 C158.22 34.53, 168 25.81, 191.17 0.79 M156.86 43.95 C168.58 33.93, 178.3 21.85, 198.97 2.83 M155.65 47.18 C169.08 31.89, 180.79 18.92, 195.92 -0.12 M158.34 49.6 C166.46 34.17, 176.49 23.53, 203.9 2.57 M159.12 45.42 C169.48 35.41, 180.72 25.28, 202.07 -0.33 M167.41 49.65 C181.74 25.09, 198.68 11.02, 203 -0.5 M164.32 49.24 C174.94 34.28, 186.84 21.82, 208.88 1.41 M172.62 48.93 C179.85 29.99, 192.6 12.74, 208.4 1.15 M171.6 48.32 C184.32 31.41, 197.05 15.27, 210.29 1.64 M176.94 45.16 C190.86 28.98, 211.7 11.89, 220.6 -2.81 M175.02 48.61 C191.83 30.34, 205.79 14.45, 216.82 -0.49 M181.66 48.2 C194.22 37.12, 208.25 21.17, 225.96 -1.33 M180.17 47.65 C190.96 35.17, 199.9 25.21, 222.94 0.16 M183.98 47.29 C193.01 39.11, 201.51 28.74, 228.74 1.27 M187.62 46 C197.86 33.85, 212.27 17.16, 228.92 -1.89 M192.29 47.04 C206.05 30.5, 219.5 20.44, 232.52 0.56 M190.07 47.32 C204.16 38.55, 213.28 24.97, 232.22 0.62 M194.96 46.96 C210.92 32.51, 220.59 27.32, 239.62 3.98 M199.06 46.05 C208.73 31.44, 220.75 18.47, 236.72 -0.17 M201.15 44.95 C214.65 35.4, 222.63 20.13, 243.84 2.37 M203.58 46.96 C211.98 37.5, 223.53 26.55, 243.37 0.35 M208.15 49.25 C218.16 34.17, 234.01 23.5, 247.27 -2.56 M207.34 45.34 C217.97 35.1, 225.74 23.19, 248.82 -1.05 M214.83 45.78 C232.25 26.92, 249.68 11.17, 250.94 -1.46 M212.08 46.35 C223.27 39, 232.05 26.17, 254.04 1.38 M221.72 49.31 C230.83 36.32, 249.18 14.83, 249.73 8.93 M219.51 48.39 C226.72 37.68, 237.2 24.3, 253 8.77 M220.42 46.78 C235.47 36.9, 250.92 19.34, 252.17 15.44 M222.64 46.5 C236.71 35.63, 248.31 22.07, 254.42 11.47 M225.7 48.47 C232.21 37.44, 239.19 32.64, 256.79 18.82 M227.69 47.67 C236.31 39.74, 244.33 28.46, 251.97 19.45 M232.9 47.33 C238.19 36.11, 252.54 30.66, 256.77 23.69 M233.43 46.31 C240.59 40.04, 249.42 29.57, 254.79 24.45 M242.01 46.15 C248.1 43.9, 248.84 35.17, 253.39 29.82 M241.08 47.55 C243.17 41.08, 248.07 36.57, 254.8 31.31 M246.38 48.37 C246.21 45.66, 250.44 41.1, 254.75 36.61 M245.44 46.91 C247.32 42.66, 252.08 41.04, 252.53 37.94 M251.11 47.21 C250.47 46.64, 253.23 44.92, 254.4 43.41 M250.48 47.33 C251.94 45.44, 253.45 44.1, 253.71 43.38" stroke="#228be6" stroke-width="0.5" fill="none"></path><path d="M1.35 2.34 C52.15 -0.47, 101.44 3.1, 254.76 2.15 M-1.32 0.04 C93.82 -3.8, 185.57 -2.48, 252.98 -0.43 M252.06 0.52 C249.54 10.5, 249.5 21.22, 249.14 44.97 M252.89 1.04 C254.11 12.56, 254.15 27.44, 253.32 44.31 M255.67 48.24 C168.84 45.25, 88.32 45.17, 2.12 45.13 M251.73 46.13 C182.5 44.37, 111.52 44.56, 1.05 44.87 M0.69 48.97 C2.11 32.42, 0.65 16.66, 3.35 -1.65 M-1.81 47.39 C-0.26 32.47, 1.48 21, 0.7 0.81" stroke="#000000" stroke-width="1" fill="none"></path></g><g transform="translate(1146.2440781331263 417.62028988793463) rotate(0 56.5 17.5)"><text x="56.5" y="25" font-family="Virgil, Segoe UI Emoji" font-size="28px" fill="#000000" text-anchor="middle" style="white-space: pre;" direction="ltr">Stacking</text></g><g transform="translate(1105.9410368058936 473.5134079650925) rotate(0 216 87.5)"><text x="0" y="18" font-family="Virgil, Segoe UI Emoji" font-size="20px" fill="#000000" text-anchor="start" style="white-space: pre;" direction="ltr">Stacking picks heterogeneous weak learners,</text><text x="0" y="43" font-family="Virgil, Segoe UI Emoji" font-size="20px" fill="#000000" text-anchor="start" style="white-space: pre;" direction="ltr">having different learning paradigms.</text><text x="0" y="68" font-family="Virgil, Segoe UI Emoji" font-size="20px" fill="#000000" text-anchor="start" style="white-space: pre;" direction="ltr"></text><text x="0" y="93" font-family="Virgil, Segoe UI Emoji" font-size="20px" fill="#000000" text-anchor="start" style="white-space: pre;" direction="ltr">The output of each model will be used as</text><text x="0" y="118" font-family="Virgil, Segoe UI Emoji" font-size="20px" fill="#000000" text-anchor="start" style="white-space: pre;" direction="ltr">input of a meta-model that can be either</text><text x="0" y="143" font-family="Virgil, Segoe UI Emoji" font-size="20px" fill="#000000" text-anchor="start" style="white-space: pre;" direction="ltr">a Machine Learning model or an Artificial</text><text x="0" y="168" font-family="Virgil, Segoe UI Emoji" font-size="20px" fill="#000000" text-anchor="start" style="white-space: pre;" direction="ltr">Neural Network.</text></g><g stroke-linecap="round"><g transform="translate(1114.2751144494016 497.68263661795936) rotate(0 27.61439674175034 -0.0035224969769842573)"><path d="M0.33 -0.48 C9.61 -0.32, 46.7 1.42, 56.18 1.79 M-0.95 -1.77 C8.1 -2.03, 45.41 -0.15, 55.03 0.11" stroke="#0b7285" stroke-width="1" fill="none"></path></g></g><mask></mask><g stroke-linecap="round"><g transform="translate(1220.9228335737055 597.7778213347428) rotate(0 42.63566063143662 -0.02637489316657593)"><path d="M-0.48 -0.38 C13.67 -0.17, 71.39 1.23, 85.75 1.59 M1.47 -1.63 C15.46 -1.8, 71.27 -0.44, 85.24 -0.19" stroke="#0b7285" stroke-width="1" fill="none"></path></g></g><mask></mask><g transform="translate(32.31708233336826 356.5072194404929) rotate(0 139 10)"><text x="139" y="14" font-family="Virgil, Segoe UI Emoji" font-size="16px" fill="#000000" text-anchor="middle" style="white-space: pre;" direction="ltr">illustrated-machine-learning.github.io</text></g></svg>