<svg version="1.1" xmlns="http://www.w3.org/2000/svg" viewBox="0 0 1517.5559510022792 484.00335916932454" width="100%" height="100%">
  <!-- svg-source:excalidraw -->
  
  <defs>
    <style class="style-fonts">
      @font-face {
        font-family: "Virgil";
        src: url("https://excalidraw.com/Virgil.woff2");
      }
      @font-face {
        font-family: "Cascadia";
        src: url("https://excalidraw.com/Cascadia.woff2");
      }
    </style>
  </defs>
  <g stroke-linecap="round" transform="translate(11.444048997713253 55.78486757139399) rotate(0 748.055951002283 209.10924579896528)"><path d="M-1.25 0.13 C413.67 6.66, 826.87 6.85, 1497.15 -1.11 M1496.48 1.59 C1494.64 129.52, 1493.86 257.88, 1497.91 417.34 M1494.66 419.33 C1118.29 426.97, 742.16 427.08, 0.56 418.87 M0.99 416.71 C-0.74 319, -0.76 216.72, -1.55 -0.55" stroke="#000000" stroke-width="1.5" fill="none" stroke-dasharray="8 9"></path></g><g stroke-linecap="round" transform="translate(10 10) rotate(0 251 24)"><path d="M0 0 C0 0, 0 0, 0 0 M0 0 C0 0, 0 0, 0 0 M-1.66 7.61 C0.51 5.98, 0.96 1.85, 6.46 0.67 M-0.88 6.56 C1.39 5.58, 1.6 4.25, 5.71 0.45 M0.54 9.33 C2.03 6.98, 8.42 6.7, 10.38 -0.95 M0.62 13.1 C2.44 8.89, 3.2 7.99, 11.19 -1.22 M-2.89 22.35 C8.9 10.58, 8.44 4.76, 16.95 -2.36 M-1.63 19.4 C5.51 13.22, 9.28 9.18, 13.74 -0.45 M0.85 22.71 C11.01 12.72, 17.96 3.03, 17.94 -2.52 M1.12 23.88 C7.44 18.82, 12.63 9.44, 22.28 0.6 M-2.54 26.83 C9.08 24.49, 15.67 9.48, 29.81 -1.6 M-1.29 32.07 C5.69 21.92, 13.53 15.08, 26.54 1.1 M-1.81 36.7 C5.71 28.46, 19.12 16.12, 32.16 3.81 M-2.21 35.58 C11.93 24.78, 23.89 9.81, 31.28 -1.49 M0.84 42.66 C11.86 35.77, 13.1 24.84, 37.23 3.78 M0.57 44.02 C13.11 27.04, 25.82 12.1, 35.85 -0.34 M-0.91 50.23 C17.3 34.12, 33.48 16.58, 41.87 2.25 M0.13 47.88 C13.74 35.06, 23.11 19.45, 44.02 0.12 M7.91 49.74 C15.41 38.58, 28.5 19.07, 49.05 0.28 M3.63 48.35 C15.84 34.15, 27.21 20.14, 47.4 -0.41 M12.44 49.48 C23.8 27.23, 39.09 17.1, 51.87 -0.66 M11.14 46.57 C25.4 34.66, 38.68 20.44, 51.25 1.26 M13.96 48.11 C30.94 29.81, 44.93 14.93, 55.01 0.51 M15.4 48.15 C29.63 32.3, 41.81 16, 57.95 -0.81 M24.61 51.9 C31.43 37.21, 51.41 17.88, 66.81 -0.23 M22.49 48.53 C31.83 36.03, 44.17 22.29, 64.78 1.69 M24.91 50.01 C39.16 29.65, 48.44 17.43, 72.7 3.22 M27.17 48.46 C39.15 31.73, 51.26 19.04, 67.35 -1.3 M35.72 49.72 C45.98 32.79, 65.22 10.75, 75.24 -1.65 M30.78 49.25 C42.68 36.15, 48.66 28.14, 73.47 1.13 M35.78 51.73 C52.99 28.57, 67.36 12.41, 75.6 1.28 M36.58 48.25 C52.18 34.97, 64.86 19.44, 78.51 0.29 M41.72 45.32 C60.52 30.34, 68 15.94, 81.57 -3.99 M43.66 46.15 C56.76 30.63, 72.84 11.49, 83.27 -0.79 M49.5 47.71 C61.1 32.32, 74.64 12.22, 89.05 -2.32 M46.31 46.41 C61.97 31.5, 79.21 12.48, 89.39 0.08 M50.48 51.2 C62.66 33.82, 80.38 25.04, 98.08 -0.2 M51.86 46.59 C65.85 32, 78.82 18.66, 97.17 -0.47 M60.85 46.5 C69.94 34.61, 79.85 28.12, 102.29 -2.46 M60.1 49.77 C70.82 29.75, 85.45 16.18, 101.01 0.11 M65.05 50.71 C71.73 37.35, 89.16 21.02, 104.94 -1.08 M64.48 48.63 C77.01 31.57, 91.52 14.85, 107.23 1.59 M72.49 46.8 C77.11 36.07, 94.12 26.9, 108.41 0.11 M70.77 49.1 C80.68 33.1, 92.62 20.04, 109.47 0.37 M70.36 51.11 C87.96 32.99, 99.1 20.72, 113.52 -2.59 M75.69 50 C85.83 39.05, 92.33 27.02, 117.92 1.61 M78.96 45.39 C99.02 31.97, 109.01 17.92, 120.38 -1.26 M80.18 47.11 C89.14 38.22, 99.3 24.96, 121.93 -1.21 M85.22 48.01 C96.46 38.27, 98.82 28.3, 129.06 3.2 M84.73 48.61 C94.73 39.14, 101.71 25.55, 128.72 1.46 M90.67 45.22 C100.48 35.84, 114.14 20.71, 131.05 -3.05 M91.28 46.43 C100.92 37.38, 109.03 25.62, 132.59 -0.76 M92.98 46.41 C115.67 26.88, 132.91 9.36, 138.68 0.6 M94.57 47.6 C109.6 33.77, 119.93 19.71, 138.25 1.25 M101.91 47.35 C110.29 37.85, 126.33 24.73, 145.16 0.35 M100.05 49.65 C112.39 31.48, 126.9 19.46, 142.74 -0.5 M104.86 45.43 C115.95 35.48, 121.93 27.67, 146.05 3.3 M107.23 48 C118.81 32.88, 135.68 17.52, 146.79 0.23 M114.84 50.94 C126.06 35.43, 140.86 18.62, 155.29 0.67 M111.56 47.29 C124.7 30.67, 140.23 17, 152.71 -0.69 M119.97 46.31 C124.03 37.46, 139.44 27.18, 162.69 -0.91 M115.81 48.81 C127.37 36.04, 136.31 25.96, 159.73 1.61 M123.49 45.32 C135.81 37.96, 145.03 18.9, 165.93 -0.2 M123.94 49.81 C133 35.43, 144.61 19.57, 165.91 0.36 M125.27 52.42 C137.42 35.74, 154.42 21.46, 168.04 -2.08 M128.46 46.95 C139.11 33.07, 154.48 17.92, 167.5 0.54 M129.79 49.91 C139.23 41.12, 148.66 23.32, 177.42 1.72 M132.35 47.59 C143.66 35.12, 152.74 23.54, 176.81 -1.75 M135.63 45.25 C143.61 35.52, 156.02 27.79, 181.36 -0.16 M136.4 49.27 C151.45 32.79, 165.32 19.55, 181.6 0.1 M143.51 50.26 C151.06 38.18, 162.64 25.53, 185.99 -3.45 M145.06 46.98 C159 28.82, 175.5 11.46, 186.93 -1.46 M145.76 48.43 C165.02 33.35, 183.41 12.92, 189.82 3.03 M149.9 48.59 C156.8 36.6, 169.39 21.29, 190.58 -0.7 M158.32 46.07 C166.88 32.72, 180.73 19.68, 199.74 0.55 M155.38 46.23 C169.43 27.09, 184.57 8.54, 196.87 0.7 M162.26 47.69 C176.64 26.31, 192.91 8.2, 204.47 3.79 M158.3 47.64 C172.02 34.85, 185.8 19.84, 200.08 1.1 M167.75 51.13 C178.96 33.89, 195.03 13.47, 206.63 0.07 M165.66 47.55 C177.57 37.22, 186.49 27.52, 206.28 -1.83 M171.61 46.91 C176.5 36.48, 186.93 28.09, 212.21 -3.43 M170.01 47.09 C183.87 32.51, 196.82 19.14, 212.76 0.39 M173.23 45.38 C195.15 29.16, 208.02 11.85, 214.53 -0.39 M175.35 49.09 C188.41 33.06, 204.83 14.52, 217.87 -1.69 M180.15 52.08 C193.03 41.55, 196.92 26.43, 223.83 -2.1 M180.5 49.55 C187.73 40.15, 199.39 30.07, 224.39 0.01 M183.37 47.64 C197.49 29.75, 214.26 11.19, 227.16 -2.21 M184.29 49.69 C200.02 32.25, 212.74 16.03, 229.42 -1.58 M190.12 47.32 C206.09 36.14, 219.17 18.76, 233.99 -1.51 M192.28 47.58 C199.99 39.65, 209.94 26.47, 231.76 -1.27 M192.66 48.56 C206.38 32, 216.17 22.6, 235.46 4.11 M195.36 49.84 C204.01 39.44, 214.7 25.36, 237.12 -1.52 M199.61 50.88 C215.18 39.84, 219.48 24.67, 245.22 3.13 M202.96 47.67 C216.73 35.48, 225.87 17.43, 244.76 -0.76 M209.46 47.21 C224.96 31.81, 234.7 11.81, 252.21 3.93 M206.51 48.27 C216.93 40.7, 223.71 28.21, 250.18 2.17 M210.59 51.12 C230.75 34.16, 245.59 15.81, 251.95 -1.25 M213.19 46.23 C222.38 34.75, 234.59 25.64, 254.32 0.2 M218.71 48.04 C236.2 31.37, 246.99 9.47, 260.11 3 M217.43 46.87 C228.3 36.24, 242.34 21.27, 258.92 1.36 M220.92 46.53 C236.33 36.92, 243.37 22.5, 264.46 2.42 M222.68 49.63 C234.25 35.48, 242.85 24.36, 264.43 0.18 M229.18 45.58 C234.87 36.18, 244.6 29.89, 270.39 0.43 M228.86 47.46 C240.75 34, 251.95 20.48, 269.35 1.08 M232.32 45.75 C238.24 40.86, 252.51 24.16, 276.91 -2.69 M234.21 46.17 C245.88 37, 255.31 23.17, 276.15 1.71 M241.53 48.52 C251.56 35.11, 266.16 16, 282.14 -2.52 M238.63 47.82 C255.06 29.54, 270.72 12.26, 282.58 0.34 M242.39 51.5 C260.93 28.37, 273.06 15.24, 283.33 -3.27 M245.62 50.09 C255.01 34.59, 266.5 22.54, 287.6 -0.77 M248.31 47.68 C264.39 28.87, 274.24 15.52, 290.34 -2.5 M249.6 49.65 C266.84 31.67, 280.74 9.76, 290.75 0.05 M252.6 44.67 C269.95 35.42, 283.19 18.22, 293.65 -3.89 M253.81 49.55 C266.07 36.47, 275.71 29.23, 297.98 -0.85 M257.92 47.97 C271.55 30.2, 294.74 9.44, 301.84 -2 M261.7 46.6 C271.23 36.17, 281.87 21.55, 301.08 -0.93 M268.31 48.23 C279.54 36.28, 292.83 15.96, 309.64 -2.99 M266.76 46.69 C275.99 36.46, 288.78 20.91, 307.52 -0.21 M270.66 44.47 C281.37 41.4, 284.92 25.92, 311.37 -1.4 M271.93 48.24 C279.28 38.42, 292.18 24.33, 311.85 -1.79 M274.73 47.32 C281.99 33.16, 295.74 22.4, 316.97 -0.89 M275.48 49.53 C287.43 36.67, 298.57 24.19, 317.54 -0.57 M278.67 46.34 C292.83 31.77, 300.32 19.73, 325.51 1.03 M282.36 48.1 C291.08 36.12, 304.23 24.91, 324.4 0.2 M284.98 45.18 C305.76 32.24, 312.5 15.17, 325.17 0.21 M286.08 48.08 C298.28 35.17, 307.62 25.28, 330.41 0.26 M290.01 44.9 C298.01 37.17, 310 33.14, 330.75 1.17 M292.1 47.63 C306.13 32.87, 319.88 14.16, 335.13 1.73 M299.36 47.93 C306.13 37.81, 319.77 24.27, 335.67 -3.74 M295.04 47.01 C305.88 34.88, 319.78 22.05, 337.56 0.44 M304.58 45.58 C315.77 33.1, 337.45 15.64, 341.44 -2.99 M301.33 48.22 C310.76 36.24, 321.26 26.74, 343.52 1.39 M308.04 45.56 C312.32 37.38, 326.35 29.84, 349.08 -1.95 M307.89 50.67 C325.64 29.15, 342.36 12.89, 350.84 -1.21 M314.18 51.94 C330.19 34.69, 339.8 17.26, 351.81 -3.33 M311.31 47.21 C326.1 30.74, 340.38 15.39, 356.07 -0.26 M319.08 48.43 C330.85 34.79, 341.78 20.5, 359.88 4.27 M319.27 47.62 C327.41 36.71, 338.97 22.71, 361.11 -0.17 M326.45 49.64 C333.94 33.31, 350.41 15.92, 367.94 2.39 M324.35 49.87 C341.38 32.19, 358.04 11.32, 366.4 -0.73 M329.09 52.3 C341.63 29.84, 353.61 18.49, 368.46 -2.03 M327.49 47.59 C343.11 32.31, 358.29 15.88, 370.34 2.27 M332.94 46.52 C341.69 42.34, 353.86 29.11, 375.82 2.55 M335.81 49.39 C351.7 26.97, 367.14 8.76, 375.15 0.41 M338.55 47.04 C346.74 32.42, 362 17.31, 383.73 -0.42 M337.99 50.26 C349.52 35.37, 358.12 26.88, 382.22 0 M341.07 48.48 C358.4 27.38, 376.25 11.83, 389.29 3.63 M346.14 46.93 C357.47 31.12, 371.79 17.81, 386.03 1.5 M351.79 48.63 C356.87 34.07, 366.37 23.92, 390.47 3.67 M351.2 49.25 C357.23 37.7, 369.32 26.92, 393.5 -1.14 M358.11 51.6 C374.34 27.34, 381.45 13.31, 394.08 -1.74 M356.82 47.56 C368.94 31.28, 380.2 19.59, 397.83 -1.13 M361.05 51.19 C370.39 34.9, 375.61 32.91, 405.34 2.9 M358.68 48.1 C372.51 35.62, 387.69 20.37, 401.97 0.6 M367.24 50.05 C375.88 38.41, 388.63 25.33, 411.8 -2.81 M366.42 48.31 C377.44 32.38, 391.11 17.37, 408.39 -1.27 M370.43 50.98 C381.98 34.33, 393.19 23.63, 412.89 4.1 M371 48.3 C385.99 31.46, 403.09 12.57, 414.52 -1.06 M375.48 44.14 C392.69 31.71, 406.7 19.2, 419.91 -2.73 M378.56 46.13 C389.51 34.29, 404.37 15.49, 418.61 1.27 M379.89 46.36 C389.75 35.72, 399.83 30.47, 421.52 -3.81 M381.82 49.27 C398.73 30.8, 413.84 13.46, 423.08 -0.48 M389.75 48.3 C402.76 34.03, 418.1 15.48, 431.76 -2.5 M385.92 49.91 C399.23 33.13, 409.24 20.69, 428.45 0.6 M393.29 45.82 C406.73 36.71, 413.79 17.88, 431.52 -1.77 M391.85 48.38 C400.25 38.53, 412.43 27.22, 432.65 -0.08 M400.84 51.09 C409.16 34.02, 424.83 17.22, 440.58 -0.99 M398.26 48.49 C412.48 30.71, 424.99 13.91, 440.95 0.77 M402.36 51.98 C418.9 32.55, 431.73 16.64, 443.06 3.4 M404.88 48.92 C417.09 35.45, 427.2 20.02, 445.29 1.67 M407.41 47.19 C420.47 39.02, 428.8 26.74, 451.47 -2.96 M410.37 46.62 C417.71 38.7, 426.6 27.4, 450.19 -0.24 M410.69 45.59 C429.11 30.45, 441.78 21.3, 456.17 3 M415.74 48.14 C421.16 35.69, 432.35 27.24, 456.11 -1.79 M415.34 46.16 C433.67 30.13, 446.56 18.15, 465.4 -3.05 M417.49 49.78 C429.54 32.97, 446.46 18.55, 461.32 1.51 M425.76 49.52 C440.12 31.9, 454.24 14.11, 462.76 2.47 M426.34 49.21 C439.97 28.31, 456.95 11.57, 465.3 -1.06 M432.36 45.42 C443.56 31.44, 453.29 25.42, 470.56 -1 M429.85 49.1 C441.86 33.69, 456.08 17.12, 469.92 0.62 M434.91 48.75 C446.13 35.98, 460.28 19.66, 478.62 -2.63 M433.64 49.24 C447.66 33.95, 456.76 20.91, 478.12 1.18 M440.08 50.79 C451.8 33.14, 467.09 18.17, 485 3.29 M440.79 49.92 C456.19 30.74, 470.52 8.02, 480.56 -0.61 M445.38 46.42 C462.18 37.76, 470.93 16.65, 487.41 -2.63 M445.68 47.28 C458.52 37.89, 467.35 22.47, 488.86 -1.78 M452.69 49.44 C462.39 32.91, 477.22 14.34, 488.66 -1.67 M449.38 48.74 C460.27 35.24, 471.27 23.78, 490.94 0.31 M460.26 47.76 C466.87 34.54, 474.21 22.77, 496.68 2.28 M457.53 48.32 C472.83 33.72, 487.59 16.39, 496.91 -0.74 M460.21 50.68 C466.57 40.28, 478.27 25.93, 505.35 -1.26 M459.73 50.03 C472.61 34.16, 485.7 21.96, 501.8 -0.19 M470.53 52.14 C477.66 38.87, 486.18 24.43, 499.92 8.84 M467.37 47.28 C478.75 34.11, 491.52 20.77, 504.79 8.23 M468.56 45.95 C486.01 35.97, 494.91 25.56, 506.24 15.07 M473.03 50.19 C484.76 36.96, 496.02 23.85, 504.41 14.07 M479.03 45.06 C482.17 41.04, 491.7 27.87, 505.73 19.57 M476.39 49.02 C484.15 42.74, 491.08 32.15, 503.31 16.69 M483.52 48.8 C486.2 42.68, 490.87 37.43, 501.4 22.13 M483.54 49.54 C486.19 43.25, 493.87 37.1, 504.16 23.32 M484.49 46.14 C494.2 42.09, 496.3 39.86, 501.22 32.15 M488.89 48.35 C491.63 43.12, 496.51 39.05, 502.96 33.16 M494.37 47.3 C494.89 43.14, 498.13 41.92, 502.95 39.4 M494.21 48.37 C495.6 46.99, 497.03 44.77, 503.48 37.06 M498.44 47.17 C500.33 46.05, 500.82 45.67, 502.76 44.07 M499.24 48.64 C500.3 46.29, 501.5 44.54, 503.35 43.98" stroke="#fd7e14" stroke-width="0.5" fill="none"></path><path d="M0.13 -0.46 C107.81 1.75, 215.32 4.19, 500.89 0.14 M0.59 0.33 C124.48 -0.66, 248.53 -0.02, 501.67 -0.38 M504.78 -0.74 C498.98 16.56, 499.25 29.04, 503.62 45.58 M500.6 -1.64 C503.2 11.65, 501.26 25.17, 501.48 49.96 M503.26 48.52 C346.82 42.86, 189.33 44.58, -1.13 46.95 M502.27 48.27 C331.58 43.77, 161.21 44.77, 0.32 48.71 M-0.37 51.99 C-2.25 38.06, 0.11 28.18, 0.52 2.23 M-1.78 48.64 C1.17 31.8, 0.8 10.38, -0.22 -0.68" stroke="#000000" stroke-width="1" fill="none"></path></g><g transform="translate(58.5 16) rotate(0 202.5 17.5)"><text x="202.5" y="25" font-family="Virgil, Segoe UI Emoji" font-size="28px" fill="#000000" text-anchor="middle" style="white-space: pre;" direction="ltr">Stochastic Gradient Descent</text></g><g stroke-linecap="round" transform="translate(834.9930974866959 112.14713674597624) rotate(0 285.2002976567196 146.33210607258297)"><path d="M-1.2 -1.2 L571.42 -0.74 L570.66 293.84 L-0.17 290.78" stroke="none" stroke-width="0" fill="#333333"></path><path d="M0.24 -0.7 C126.76 1.17, 252.3 0.72, 569.98 -0.14 M0.06 0.02 C180.86 -0.6, 361.74 -1.12, 570.35 0.34 M568.97 1.02 C570.59 61.84, 572.52 121.74, 570.06 293.09 M570.74 -0.62 C568.49 100.7, 568.68 203.22, 570.49 292.28 M570.97 292.05 C454.95 293.65, 338.98 292.87, 0.31 292.12 M570.23 292.4 C451.66 293.66, 333.69 293.78, -0.36 292.83 M-0.69 292.7 C0.4 201.97, 0.4 111.91, 1.07 -0.83 M0.24 293.28 C2.04 179.23, 1.85 66.96, -0.67 0.35" stroke="#333333" stroke-width="2" fill="none"></path></g><g stroke-linecap="round" transform="translate(834.5386303760672 112.49381230640029) rotate(0 283.22299006865296 16.104392975387782)"><path d="M-1.2 1.02 L565.71 0.26 L567.63 32.04 L-1.88 30.97" stroke="none" stroke-width="0" fill="#343a40"></path><path d="M-0.7 0.34 C174.97 -1.24, 348.97 -1.1, 566.31 0.14 M0.02 -0.09 C212.32 -0.52, 423.78 -0.41, 566.79 -0.36 M567.82 -1.79 C567.09 12.71, 565.18 23.36, 567.02 33.13 M565.62 -0.51 C565.46 7.15, 567.16 14.92, 565.94 31.23 M565.84 32.19 C352.01 33.25, 136.55 34.13, -0.55 31.47 M566.19 31.9 C377.76 31.42, 188.96 30.9, 0.17 32.25 M0.05 32.47 C-0.19 23.11, 0.8 14.92, -1.11 1.7 M0.83 32.34 C-1.06 25.29, -0.44 17.7, 0.46 -0.6" stroke="#343a40" stroke-width="2" fill="none"></path></g><g stroke-linecap="round" transform="translate(850.6199806920315 119.32519208793565) rotate(0 6.326561551668192 6.1591532640259175)"><path d="M8.02 0.23 C9.14 0.72, 10.5 2.31, 11.19 3.33 C11.89 4.35, 12.19 5.19, 12.19 6.36 C12.19 7.52, 11.99 9.24, 11.19 10.31 C10.39 11.39, 8.62 12.72, 7.38 12.81 C6.14 12.9, 4.77 11.78, 3.73 10.85 C2.7 9.92, 1.67 8.32, 1.18 7.22 C0.68 6.11, 0.27 5.27, 0.77 4.21 C1.26 3.15, 3.03 1.54, 4.15 0.87 C5.27 0.21, 6.7 0.4, 7.48 0.24 C8.26 0.08, 8.64 -0.12, 8.84 -0.1 M4.66 1.16 C5.72 0.57, 7.59 -1.35, 8.65 -0.93 C9.72 -0.5, 10.42 2.09, 11.03 3.69 C11.64 5.28, 12.33 7.46, 12.31 8.63 C12.28 9.81, 11.93 10.09, 10.88 10.73 C9.83 11.37, 7.28 12.7, 6.01 12.48 C4.73 12.27, 4.01 10.34, 3.24 9.44 C2.48 8.54, 1.84 7.99, 1.41 7.1 C0.98 6.2, 0.07 5.44, 0.65 4.08 C1.23 2.73, 4.05 -0.33, 4.88 -1.03 C5.71 -1.74, 5.47 -0.22, 5.63 -0.15" stroke="none" stroke-width="0" fill="#c92a2a"></path><path d="M7.82 0.15 C9.21 0.58, 11.04 2.51, 11.9 3.69 C12.76 4.88, 13.21 6.1, 12.99 7.24 C12.76 8.38, 11.5 9.77, 10.55 10.55 C9.61 11.33, 8.76 11.85, 7.32 11.91 C5.88 11.96, 2.96 11.76, 1.9 10.85 C0.85 9.95, 1.06 7.77, 0.98 6.47 C0.91 5.17, 1.12 3.92, 1.47 3.03 C1.81 2.13, 1.94 1.46, 3.06 1.11 C4.17 0.76, 6.99 1.06, 8.15 0.95 C9.31 0.84, 9.97 0.37, 10.04 0.45 M8.46 -1.08 C9.78 -0.85, 10 -0.13, 10.63 1.38 C11.26 2.89, 12.18 6.6, 12.26 7.97 C12.34 9.34, 12.22 8.69, 11.11 9.61 C10.01 10.52, 6.91 13, 5.62 13.46 C4.32 13.92, 4.43 13.3, 3.35 12.38 C2.27 11.45, -0.48 9.53, -0.87 7.91 C-1.27 6.29, 0.42 3.79, 0.98 2.68 C1.54 1.57, 1.53 1.9, 2.49 1.25 C3.45 0.6, 5.78 -1.15, 6.74 -1.22 C7.7 -1.3, 8.2 0.61, 8.24 0.78" stroke="#c92a2a" stroke-width="2" fill="none"></path></g><g stroke-linecap="round" transform="translate(875.7753754746748 118.59117113442517) rotate(0 6.326561551668192 6.1591532640259175)"><path d="M9.13 0.5 C10.64 0.81, 12.51 1.89, 13.07 3.12 C13.62 4.36, 12.97 6.54, 12.46 7.91 C11.94 9.28, 11.02 10.5, 10 11.35 C8.97 12.2, 7.76 13.01, 6.31 13.01 C4.85 13.01, 2.47 12.35, 1.28 11.35 C0.08 10.34, -0.9 8.31, -0.87 6.99 C-0.83 5.67, 0.52 4.72, 1.48 3.43 C2.43 2.14, 3.41 -0.34, 4.85 -0.75 C6.29 -1.16, 9.23 0.38, 10.13 0.98 C11.03 1.58, 10.4 2.8, 10.25 2.84 M8.81 0.07 C9.93 0.12, 9.38 0.6, 10.08 1.67 C10.77 2.73, 12.66 4.88, 12.97 6.47 C13.28 8.06, 13 10.25, 11.93 11.22 C10.87 12.19, 8.09 12.08, 6.58 12.29 C5.08 12.49, 4.17 12.97, 2.9 12.45 C1.64 11.92, -0.65 10.69, -1.01 9.15 C-1.36 7.62, -0.23 4.59, 0.75 3.23 C1.73 1.87, 3.9 1.33, 4.88 1.01 C5.86 0.69, 6.21 1.25, 6.62 1.33 C7.03 1.42, 7.41 1.79, 7.36 1.51" stroke="none" stroke-width="0" fill="#fab005"></path><path d="M4 0.54 C5.29 0.19, 7.92 0.35, 9.24 0.78 C10.57 1.21, 11.46 1.92, 11.97 3.13 C12.48 4.35, 12.66 6.86, 12.32 8.08 C11.99 9.29, 10.99 9.56, 9.97 10.41 C8.95 11.26, 7.63 12.98, 6.19 13.18 C4.76 13.37, 2.39 12.72, 1.35 11.57 C0.3 10.41, -0.12 7.82, -0.09 6.26 C-0.06 4.69, 0.52 3.15, 1.54 2.18 C2.56 1.21, 5.18 0.81, 6.02 0.44 C6.87 0.07, 6.59 -0.16, 6.59 -0.04 M2.91 -0.38 C4.12 -1.07, 5.67 -0.62, 7.39 -0.02 C9.12 0.58, 12.54 2.28, 13.27 3.24 C14 4.2, 12.07 4.4, 11.79 5.75 C11.51 7.11, 12.32 10.45, 11.59 11.35 C10.85 12.26, 8.96 11.18, 7.4 11.18 C5.84 11.18, 3.63 12.17, 2.23 11.35 C0.84 10.53, -0.82 7.8, -0.96 6.25 C-1.09 4.71, 0.8 2.96, 1.43 2.06 C2.05 1.16, 2.22 1.24, 2.77 0.88 C3.31 0.51, 4.59 0.04, 4.7 -0.14" stroke="#fab005" stroke-width="2" fill="none"></path></g><g stroke-linecap="round" transform="translate(902.5680601034921 117.98040683225372) rotate(0 6.326561551668192 6.1591532640259175)"><path d="M3.46 1.62 C4.43 0.99, 6.04 0.04, 7.39 0.21 C8.75 0.37, 10.68 1.45, 11.57 2.6 C12.47 3.76, 12.76 5.93, 12.77 7.14 C12.77 8.36, 12.42 9.17, 11.6 9.88 C10.78 10.59, 9.26 11.11, 7.84 11.4 C6.43 11.68, 4.24 12.15, 3.11 11.58 C1.98 11.02, 1.66 9.33, 1.08 7.99 C0.49 6.65, -1.04 5.01, -0.41 3.54 C0.22 2.08, 3.55 -0.14, 4.84 -0.8 C6.13 -1.47, 7.37 -0.79, 7.34 -0.45 M5.04 -1.31 C6.1 -1.7, 7.34 0.06, 8.51 1.13 C9.68 2.2, 11.31 3.98, 12.06 5.1 C12.81 6.22, 13.44 6.78, 13.02 7.87 C12.6 8.96, 10.62 11.11, 9.54 11.63 C8.45 12.15, 7.62 11.22, 6.51 11 C5.4 10.79, 4.03 10.92, 2.89 10.34 C1.74 9.75, -0.19 9.05, -0.36 7.48 C-0.53 5.92, 0.75 2.26, 1.86 0.94 C2.97 -0.38, 5.54 -0.07, 6.3 -0.43 C7.05 -0.8, 6.74 -1.67, 6.38 -1.25" stroke="none" stroke-width="0" fill="#5c940d"></path><path d="M6.78 0.75 C8.23 0.78, 10.04 1.05, 11.01 1.78 C11.99 2.51, 12.39 3.92, 12.64 5.13 C12.89 6.34, 13.31 7.93, 12.5 9.06 C11.68 10.19, 9.04 11.6, 7.75 11.91 C6.46 12.23, 5.82 11.46, 4.76 10.94 C3.7 10.43, 2.34 9.72, 1.41 8.81 C0.48 7.91, -0.84 6.7, -0.81 5.51 C-0.78 4.31, 0.2 2.63, 1.59 1.62 C2.97 0.61, 6.54 -0.38, 7.5 -0.56 C8.46 -0.74, 7.33 0.44, 7.33 0.53 M3.04 -0.57 C4.01 -0.69, 6.27 1.29, 7.73 1.72 C9.19 2.15, 11.2 0.94, 11.77 1.99 C12.34 3.04, 11.25 6.42, 11.15 8.04 C11.05 9.65, 12.1 10.98, 11.17 11.69 C10.24 12.39, 6.93 12.55, 5.58 12.27 C4.22 12, 4.1 10.74, 3.04 10.06 C1.97 9.37, -0.24 9.52, -0.81 8.18 C-1.37 6.85, -1.22 3.23, -0.37 2.03 C0.49 0.84, 3.7 1.41, 4.3 1.01 C4.9 0.62, 3.46 -0.51, 3.22 -0.35" stroke="#5c940d" stroke-width="2" fill="none"></path></g><g transform="translate(891.0561642983496 171.43385799469434) rotate(0 221.5 87.5)"><text x="0" y="18" font-family="Virgil, Segoe UI Emoji" font-size="20px" fill="#ffff" text-anchor="start" style="white-space: pre;" direction="ltr">Randomly initialize the weights W</text><text x="0" y="43" font-family="Virgil, Segoe UI Emoji" font-size="20px" fill="#ffff" text-anchor="start" style="white-space: pre;" direction="ltr"></text><text x="0" y="68" font-family="Virgil, Segoe UI Emoji" font-size="20px" fill="#ffff" text-anchor="start" style="white-space: pre;" direction="ltr">for a fixed number of iterations...</text><text x="0" y="93" font-family="Virgil, Segoe UI Emoji" font-size="20px" fill="#ffff" text-anchor="start" style="white-space: pre;" direction="ltr"></text><text x="0" y="118" font-family="Virgil, Segoe UI Emoji" font-size="20px" fill="#ffff" text-anchor="start" style="white-space: pre;" direction="ltr">    Draw random example with replacement x</text><text x="0" y="143" font-family="Virgil, Segoe UI Emoji" font-size="20px" fill="#ffff" text-anchor="start" style="white-space: pre;" direction="ltr">    Calculate the gradients G wrt to x</text><text x="0" y="168" font-family="Virgil, Segoe UI Emoji" font-size="20px" fill="#ffff" text-anchor="start" style="white-space: pre;" direction="ltr">    Update: W = W - E G</text></g><g transform="translate(111.36517807085693 141.90167873636528) rotate(0 177 12.5)"><text x="0" y="18" font-family="Virgil, Segoe UI Emoji" font-size="20px" fill="#000000" text-anchor="start" style="white-space: pre;" direction="ltr">Gradient Descent is too expensive..</text></g><g transform="translate(182.5185573439303 196.41110722130543) rotate(0 211.4999999999999 25)"><text x="0" y="18" font-family="Virgil, Segoe UI Emoji" font-size="20px" fill="#000000" text-anchor="start" style="white-space: pre;" direction="ltr">SGD approximates the gradient using only </text><text x="0" y="43" font-family="Virgil, Segoe UI Emoji" font-size="20px" fill="#000000" text-anchor="start" style="white-space: pre;" direction="ltr">one datapoint! </text></g><g stroke-linecap="round"><g transform="translate(142.6269316754806 172.7665250735954) rotate(0 12.930075197375004 24.382640860369065)"><path d="M-0.21 0.21 C0.58 7.17, 0.22 33.19, 4.86 41.18 C9.5 49.17, 23.92 46.83, 27.64 48.15 M-1.78 -0.73 C-1.07 5.93, -0.41 30.94, 4.38 39.31 C9.17 47.68, 23.16 48.2, 26.97 49.5" stroke="#e67700" stroke-width="1" fill="none"></path></g><g transform="translate(142.6269316754806 172.7665250735954) rotate(0 12.930075197375004 24.382640860369065)"><path d="M15 52.15 C19.06 50.92, 22.37 49.9, 28 48.99 M14.23 51.67 C17.75 50.1, 21.36 49.7, 27.19 49.74" stroke="#e67700" stroke-width="1" fill="none"></path></g><g transform="translate(142.6269316754806 172.7665250735954) rotate(0 12.930075197375004 24.382640860369065)"><path d="M16.73 43.91 C20.21 45.22, 22.99 46.75, 28 48.99 M15.96 43.43 C19.03 43.96, 22.21 45.64, 27.19 49.74" stroke="#e67700" stroke-width="1" fill="none"></path></g></g><mask></mask><g transform="translate(345.0832692652002 277.1158148754621) rotate(0 108.99999999999989 12.5)"><text x="0" y="18" font-family="Virgil, Segoe UI Emoji" font-size="20px" fill="#000000" text-anchor="start" style="white-space: pre;" direction="ltr">Much faster than GD</text></g><g transform="translate(268.5405579393482 337.4206524291567) rotate(0 219.4999999999999 25)"><text x="0" y="18" font-family="Virgil, Segoe UI Emoji" font-size="20px" fill="#000000" text-anchor="start" style="white-space: pre;" direction="ltr">With a sufficiently high number of iterations,</text><text x="0" y="43" font-family="Virgil, Segoe UI Emoji" font-size="20px" fill="#000000" text-anchor="start" style="white-space: pre;" direction="ltr">it is able to reach a satisfactory solution</text></g><g stroke-linecap="round"><g transform="translate(317.7672503325557 253.7545344061582) rotate(0 9.701616355113742 17.115667887402196)"><path d="M0.49 0.19 C0.96 3.3, -0.24 13.92, 3.03 19.54 C6.31 25.17, 17.53 31.47, 20.12 33.93 M-0.71 -0.76 C-0.41 2.45, -1.32 14.98, 2.11 20.93 C5.54 26.89, 17.15 32.59, 19.88 34.99" stroke="#e67700" stroke-width="1" fill="none"></path></g><g transform="translate(317.7672503325557 253.7545344061582) rotate(0 9.701616355113742 17.115667887402196)"><path d="M9.5 32.4 C12.44 34.05, 15.59 33.46, 19.75 35.92 M8.8 32.72 C11.07 33.11, 13.98 33.15, 19.75 35.14" stroke="#e67700" stroke-width="1" fill="none"></path></g><g transform="translate(317.7672503325557 253.7545344061582) rotate(0 9.701616355113742 17.115667887402196)"><path d="M13.66 26.23 C15.33 29.86, 17.16 31.23, 19.75 35.92 M12.97 26.56 C14.4 28.23, 16.45 29.56, 19.75 35.14" stroke="#e67700" stroke-width="1" fill="none"></path></g></g><mask></mask><g stroke-linecap="round"><g transform="translate(220.77240398416689 251.4685009983259) rotate(0 18.40547618861376 52.19214810307676)"><path d="M0.19 0.05 C1.11 12.54, 0.12 58.06, 6.42 75.44 C12.72 92.82, 32.66 99.25, 37.98 104.34 M-1.17 -0.97 C-0.51 11.16, -1.03 56.12, 5.32 73.84 C11.68 91.56, 31.43 100.34, 36.96 105.35" stroke="#e67700" stroke-width="1" fill="none"></path></g><g transform="translate(220.77240398416689 251.4685009983259) rotate(0 18.40547618861376 52.19214810307676)"><path d="M15.78 99.16 C25.35 100.91, 30.68 103.64, 38.68 103.54 M16.38 98.73 C23.9 102.35, 30.8 103.84, 37.24 105.81" stroke="#e67700" stroke-width="1" fill="none"></path></g><g transform="translate(220.77240398416689 251.4685009983259) rotate(0 18.40547618861376 52.19214810307676)"><path d="M24.44 86.84 C30.82 93.21, 32.91 100.55, 38.68 103.54 M25.04 86.41 C29.33 94.5, 33.03 100.54, 37.24 105.81" stroke="#e67700" stroke-width="1" fill="none"></path></g></g><mask></mask><g stroke-opacity="0.9" fill-opacity="0.9" stroke-linecap="round" transform="translate(173.1789678029097 184.82892389552217) rotate(0 217.48614952327375 32.76168876273732)"><path d="M16.38 0 M16.38 0 C175.63 -0.65, 332.57 -2.3, 418.59 0 M16.38 0 C167.84 2.32, 319.59 2.07, 418.59 0 M418.59 0 C429.33 -0.22, 433.46 7.17, 434.97 16.38 M418.59 0 C431.34 1.62, 436.75 4.94, 434.97 16.38 M434.97 16.38 C433.88 22.26, 436.19 30.58, 434.97 49.14 M434.97 16.38 C436.14 26.42, 435.24 35.71, 434.97 49.14 M434.97 49.14 C433.62 58.13, 427.55 65.68, 418.59 65.52 M434.97 49.14 C435.52 61.87, 428.01 65.9, 418.59 65.52 M418.59 65.52 C298.22 63.92, 177.41 64.23, 16.38 65.52 M418.59 65.52 C324.17 65.71, 229.6 66.42, 16.38 65.52 M16.38 65.52 C6.69 66.69, -0.08 60.43, 0 49.14 M16.38 65.52 C4 65.44, 1.05 61.12, 0 49.14 M0 49.14 C0.89 39.06, -1.41 34.03, 0 16.38 M0 49.14 C-0.25 41.89, -0.62 34.65, 0 16.38 M0 16.38 C1 7.45, 5.52 1.43, 16.38 0 M0 16.38 C-0.58 6.54, 4.68 -1.82, 16.38 0" stroke="#e67700" stroke-width="1" fill="none"></path></g></svg>