<svg version="1.1" xmlns="http://www.w3.org/2000/svg" viewBox="0 0 1517.7906248199995 484.0033591693209" width="4553.371874459998" height="1452.0100775079627">
  <!-- svg-source:excalidraw -->
  
  <defs>
    <style class="style-fonts">
      @font-face {
        font-family: "Virgil";
        src: url("https://excalidraw.com/Virgil.woff2");
      }
      @font-face {
        font-family: "Cascadia";
        src: url("https://excalidraw.com/Cascadia.woff2");
      }
    </style>
  </defs>
  <g stroke-linecap="round" transform="translate(11.678722815433503 55.78486757139035) rotate(0 748.055951002283 209.10924579896528)"><path d="M1.28 -1.43 C424.08 12.16, 848.89 10.6, 1495.78 1.31 M1497.88 1.22 C1495.46 129.55, 1493.73 262.98, 1495.75 418.94 M1494.92 419.03 C938.61 419.11, 381.09 418.69, -1.15 419.22 M1.03 420.23 C2.72 306.6, 3.94 191.37, 1.64 -0.32" stroke="#000000" stroke-width="1.5" fill="none" stroke-dasharray="8 9"></path></g><g stroke-linecap="round" transform="translate(10 10) rotate(0 251 24)"><path d="M0 0 C0 0, 0 0, 0 0 M0 0 C0 0, 0 0, 0 0 M1.3 5.88 C2.32 4.8, 4.05 2.88, 6.13 0.26 M-0.62 6.01 C1.87 4.21, 2.98 2.6, 5.03 0.46 M0.77 12.43 C1.53 11.24, 8.01 8.07, 8.14 -2.38 M-0.28 11.96 C2.35 8.77, 6.69 4.72, 9.97 -0.57 M1.69 17.62 C3.06 15.09, 11.07 3.64, 16.37 -0.92 M-1.59 19.84 C4.04 12.35, 11.1 4.97, 17.16 0.67 M3.9 27.44 C8.22 16.11, 12.95 6.14, 24.72 0.71 M-1.47 25.04 C6.67 13.75, 15.98 6.59, 20.96 -1.65 M0.89 27.81 C3.01 24.07, 13.67 13.64, 27.75 -2.36 M-0.68 30.98 C9.52 20.05, 17.47 9.54, 26.23 2.22 M-0.56 36.55 C4.79 31.33, 15.98 17.92, 28.26 -0.68 M-2.03 38.09 C4.08 27.84, 12.23 19.33, 31.77 -0.89 M-0.68 44.27 C12.36 30.39, 20.82 18.12, 36.91 -2.49 M0.8 40.77 C10.76 32.66, 15.79 24.26, 38.12 1.62 M-2.53 50.33 C17.73 32.94, 25.28 14.45, 42.97 2.7 M-0.78 47.68 C16.74 28.71, 34.08 12.93, 42.09 0.84 M8.07 49.83 C24.22 27.88, 36.59 9.74, 46.56 -3.32 M5.49 48.94 C19.07 31.6, 35.38 13.16, 48.76 -0.89 M14.23 51.96 C23.42 36.57, 35.6 21.87, 53.42 0.98 M12.24 46.72 C19.63 34.93, 31.25 26.04, 53.93 -1.28 M16.69 45.62 C30.29 36.06, 42.07 14.5, 59.15 -2.59 M16.87 49.16 C32.32 32.72, 45.72 14.24, 56.21 -1.23 M23.31 49.99 C31.74 36.65, 41.44 26.32, 59.95 -3.48 M22.76 49.13 C37.69 33.33, 49.98 15.44, 63.41 -0.22 M25.28 51.02 C37.9 37.01, 48.68 26.77, 68.88 -1.83 M27.31 49.01 C38.7 37.79, 50.4 24.13, 68.64 0.58 M31.92 45.92 C46.16 31.61, 56.9 24.86, 70.61 -4.06 M32.43 49.4 C42.99 36.42, 51.31 26.54, 72.76 -1.07 M38.9 51.66 C55.95 35.23, 64.06 13.56, 77.69 1.7 M36.55 49.9 C51.61 32.8, 65.15 15.64, 80.37 0.39 M47 45.47 C53.5 34.07, 67.06 18.97, 85.24 2.09 M41.09 49.85 C51.71 38.66, 61.71 28.37, 86.35 -1.03 M46.37 45.39 C54.49 37.15, 68.27 23.65, 87.28 -1 M46.48 49.11 C61.9 34.63, 73.68 17.79, 91.83 1.93 M51.26 50.65 C67.34 32.55, 88.62 11.22, 95.41 -1.92 M54.65 48.74 C62.25 34.72, 72.83 21.81, 94.69 -1.46 M60.28 50.32 C66.96 40.74, 78.39 31.25, 99.11 1.29 M57.07 47.81 C70.01 36.05, 77.89 24.43, 101.58 0.8 M66.49 52.45 C82.26 27.3, 99.19 13.79, 108.45 3.3 M64.52 48.89 C75.14 36.68, 86.39 21.22, 106.39 0.19 M68.94 48.84 C86.43 29.55, 98.81 10.32, 114.37 0.07 M70.45 47.03 C83.74 27.1, 103.08 9.34, 110.28 0.46 M76.2 51.83 C84.21 36.3, 95.23 20.66, 114.77 2.09 M74.19 46.79 C89.48 30.8, 106.04 10.62, 115.53 -0.91 M76.43 51.53 C88.89 35.34, 96.12 30.93, 118.01 -0.92 M78.86 47.69 C91.88 37.33, 101.77 24.77, 120.76 0.28 M85.68 48.3 C95.18 33.35, 107.59 21.06, 130.5 -3.19 M83.31 49.03 C95.55 34.23, 106.69 23.3, 128.3 0.01 M86.58 49.27 C104.61 26.79, 121.61 6.57, 134.74 -1.7 M88.68 46.57 C100.28 36.87, 113.22 23.54, 133.95 -0.53 M92.63 44.85 C110.44 30.85, 119.07 18.18, 137.58 -3.66 M94.32 49.34 C109.4 33.76, 121.18 22.33, 139.04 1.87 M102.95 45.18 C115.4 35.44, 123.81 16.13, 140.99 1.98 M100.39 48.34 C112.21 35.77, 124.68 23.64, 144.89 1.14 M102.51 48.71 C117.24 36.14, 132.75 22.4, 150.32 -2.97 M107.77 49.33 C117.34 33.2, 131.76 19.24, 148.86 -1.29 M112.88 46.61 C125.35 26.77, 143.97 10.98, 152.98 2.59 M112.61 49.53 C128.06 33.62, 140.62 15.29, 154.78 0.25 M120.5 47.36 C135.65 27.46, 149.4 8.2, 158.79 -0.49 M118.34 50.45 C134.91 30.93, 150.05 10.74, 157.01 0.44 M119.43 49.18 C130.87 38.46, 138.15 25.88, 162.65 -3.11 M122.1 46.56 C132.91 33.56, 145.59 22.2, 162.92 -0.33 M127.57 48.56 C140.82 37.6, 144.15 28.44, 168.82 0.62 M126.83 50.07 C139.64 35.2, 148.59 23.07, 168.87 0.84 M133.43 44.75 C148.06 32.42, 152.12 24.01, 177.69 1.85 M131.72 47.71 C147.14 31.65, 159.92 13.99, 174.73 -1.9 M136.4 48.28 C151.16 34.93, 157.01 21.48, 177.99 1.49 M136.19 49.41 C146.93 39.2, 154.72 26.68, 179.91 1.59 M141.46 45.44 C157.89 31.81, 167.42 15.36, 189.56 -1.28 M142.45 49.14 C161.24 31.51, 177.02 11.44, 185.79 -1.84 M151.45 46.77 C158.36 36.06, 172.57 13.75, 191.61 -0.52 M147.46 49.57 C162.72 32.32, 173.66 18.23, 191.77 0.2 M153.83 51.6 C165.47 35.32, 178.18 20.29, 197.46 -3.02 M153.43 46.89 C167.06 31.32, 183.81 12.56, 197.76 -1.68 M160.92 48.51 C167.91 39.81, 177.28 26.41, 198.77 -3.8 M159.84 47.52 C175.43 29.19, 192.46 13.55, 200.18 -1.89 M164.63 51.85 C184.7 28.91, 192.18 15.62, 208.33 2.37 M165.9 48.87 C178.96 31.81, 193.44 14.18, 206.46 0.92 M168.76 46.25 C180.45 38.21, 189.97 25.4, 212.28 -2.48 M170.61 48.11 C182.04 31.65, 198.46 16.01, 211.02 0.59 M175.68 47.06 C186.52 38.39, 193.5 25.91, 220.88 0.89 M175.22 46.88 C186.34 31.61, 201.81 19.38, 217.81 0.2 M178.66 44.96 C193.61 39.55, 197.77 24.77, 220.73 -2.46 M179.23 48.07 C190.85 37.77, 198.45 27.84, 224.28 0.81 M187.89 51.09 C196.78 37.02, 210.98 20.79, 225.55 -1.24 M186.24 49.32 C196.75 34.14, 206.93 24.09, 227.88 -1.76 M194.08 45.89 C201.72 40.68, 213.31 28.3, 236.43 2.64 M191.24 48 C201.45 37.24, 210.67 25.51, 234.08 -0.2 M195.91 47.8 C211.29 30.61, 221.54 20.89, 235.89 -0.76 M195.88 50.23 C203.95 37.61, 216.04 28.13, 238.19 1.79 M202.21 46.53 C218.94 28.67, 233.2 18.56, 247.46 -0.58 M202.32 48.37 C213.35 34.9, 224.17 20.29, 244.66 -1.52 M208.14 51.56 C217.83 35.08, 224.06 24.78, 251.16 -0.45 M205.23 49.77 C221.92 32.46, 233.79 13.02, 250.36 -0.82 M214 48.61 C221.02 37.16, 227.21 30.84, 257.65 2.75 M214.28 49.52 C227.14 28.87, 245.28 11.37, 254.39 1.63 M217.42 48.22 C224.09 32.73, 233.04 25.19, 260.41 3.43 M218.16 47.23 C228.1 37.14, 238.1 26.36, 258.16 0.88 M224.16 50.13 C239.07 35.34, 250.21 17.93, 262.56 -0.26 M223.06 47.7 C238.06 30.13, 250.28 16.75, 263.77 -2.08 M224.32 51.9 C245.96 34.56, 259.41 15.84, 269.07 2.12 M228.67 49.76 C238.64 36.74, 251.16 23.86, 270.15 0.51 M235.13 45.32 C242.52 37.3, 249.79 28.6, 273.52 -2.24 M234.71 46.98 C242.32 39.59, 252.55 27, 275.42 -0.12 M237.16 48.96 C250.93 35.43, 269.39 12.5, 282.35 -0.88 M236.88 48.42 C247.29 36.95, 255.26 27.08, 281.01 -0.47 M241.11 48.67 C260.69 31.37, 271.53 18.18, 285.61 0.41 M245.4 47.36 C253.48 39.04, 262.98 28.22, 286.07 -0.07 M248.02 46.03 C265.35 26.79, 285.32 11.11, 289.21 2.15 M249.02 50.11 C259.35 38.67, 268.8 25.8, 291.55 -0.7 M252.05 46.91 C269.6 33.1, 286.57 18.66, 293.65 -0.43 M253.46 48.68 C269.42 33.85, 280.11 16.04, 298.61 -1.66 M256.72 45.95 C276.75 33.61, 285.95 16.93, 302.33 -0.79 M261.47 49.61 C270.5 34.38, 283.87 23.33, 300.7 1.03 M261.65 47.04 C277.42 38.6, 286.65 29.48, 308.22 -0.66 M267.31 46.66 C278.52 31.9, 296.32 10.6, 306.01 -0.71 M270.83 47.85 C283.75 32.81, 298.43 18.76, 310.17 -1.47 M268.73 49.59 C281.25 32.77, 297.17 19.52, 313.51 1.83 M279.36 44.3 C285.51 35.89, 293.96 25.55, 315.64 0.09 M277.5 48.9 C290.12 32.71, 305.08 14.27, 319.41 -1.18 M281.69 47.09 C290.01 36.51, 302.17 24.42, 324.93 -3.39 M279.41 48.59 C290.89 37.09, 303.87 25.06, 325.18 -1.32 M290.38 46.17 C296.36 30.55, 311.1 15.17, 325.97 -1.57 M288.72 46.88 C298.67 37.28, 308.72 23.24, 328.05 0.82 M288.35 51.28 C302.32 32.4, 309 24.85, 334.55 2.18 M292.25 49.02 C303.92 33.18, 316.52 19.85, 333 0.41 M294.99 49.14 C305.64 36.58, 314.05 27.45, 341.06 3.22 M295.12 48.71 C309.18 36.47, 320.43 21.97, 339.28 1.1 M305.66 48.28 C310.4 34.06, 316.94 28.74, 342.74 -3.77 M304.13 49.16 C317.3 32.74, 331.46 15.64, 344.41 -0.23 M311.23 51.7 C319.62 34.42, 326.05 26.11, 345.81 4.34 M306.95 48.09 C324.34 30.83, 337.71 11.42, 349.97 0.06 M316.18 46.2 C329.19 32.31, 346.48 13.58, 352.95 -4.01 M314.03 47.18 C324.68 35.07, 337.45 20.08, 356.96 1.34 M314.86 50.84 C332.85 35.87, 347.2 19.44, 358.86 1.64 M318.59 48.88 C334.25 32.3, 345.88 16.63, 361.02 -0.27 M326.23 49.42 C338.23 29.17, 353.58 17.53, 368.37 -1.03 M323.09 49.12 C335.01 31.33, 350.71 19.31, 366.33 1.6 M330.1 47.05 C346.05 31.92, 363.21 8.15, 372.64 1.48 M327.24 50.06 C344.66 31.65, 361.73 11.33, 369.54 0.29 M333.9 50.55 C352.6 26.61, 367.4 12.62, 375.95 -1.11 M334.53 48.88 C345.56 34.94, 359.07 23.72, 378.34 0.9 M340.9 45.05 C349.63 37.29, 361.7 28.98, 379.96 -2.28 M340.2 50.48 C355.99 31.44, 368.25 14.75, 379.4 1.02 M345 46.44 C358.46 32.77, 375.44 16.88, 386.4 1.74 M345.74 48.25 C360.88 33.53, 373.84 16.5, 388.91 -0.53 M346.95 45.85 C363.72 27.93, 381.68 13.84, 389.39 -3.51 M350.91 48.86 C361.24 32.39, 376.73 16.59, 392.57 1.08 M357.11 46.21 C364.55 33.38, 376.66 19.17, 394.16 1.76 M356.21 48.91 C369.83 33.62, 385.92 13.75, 396.1 1.4 M363.7 46.68 C372.67 29.7, 396.84 11.66, 401.27 0.14 M358.91 47.79 C376.7 30.18, 389.88 12.16, 401.2 -0.5 M367.55 47.22 C375.53 36.41, 385.97 27.07, 409.43 -2.55 M367.55 48.37 C376.18 36.32, 384.9 26.42, 408.09 -1.33 M374.35 49.04 C383.43 39.31, 392.34 27.5, 415.67 -0.71 M369.9 49.76 C380.76 34.98, 391.5 22.9, 411.51 -0.79 M373.4 51.09 C392.28 33.7, 403 18.93, 418.16 -0.47 M375.5 48.06 C391.13 33.28, 400.31 21, 419.19 -0.87 M385.86 50.64 C398.09 34.07, 409.71 14.52, 424.41 -3.2 M383.67 49.12 C393.74 33.91, 408.18 18.49, 423.88 -1.02 M387.49 47.68 C397 38, 403.93 25.86, 430.05 -1 M385.95 49.27 C404.1 32.39, 418.85 11.83, 429.83 -1.49 M388.91 45.5 C403.09 39.52, 405.33 25.29, 435.06 -0.21 M394.16 48.09 C403.42 36.99, 416.57 20.79, 432.8 1.48 M398.37 47.11 C419.39 31.32, 434.52 12.42, 438.55 -0.91 M398.88 49.14 C413.11 27.41, 431.56 11.45, 438.57 0.4 M405.97 47.83 C412.52 34.43, 425.27 21.82, 446.95 3.61 M401.43 48.76 C415.39 34.08, 427.63 20.52, 446.9 1.25 M410.39 47.73 C425.38 34.16, 438.84 18.56, 452.85 -0.7 M408.41 48.73 C425.53 30.05, 438.95 12.95, 450.08 0.27 M411.22 52.14 C427.44 31.1, 441.44 17.2, 459.16 -0.12 M415.66 49.12 C423.51 36.31, 431.95 27.6, 456.91 0.7 M418.96 44.92 C434.07 30.51, 444.35 19.61, 457.92 3.35 M418.13 49.7 C428.51 38.07, 436.84 25.31, 463.18 1.49 M426.62 49.16 C437.29 29.09, 451.01 12.96, 462.51 0.47 M425.15 47.01 C432.96 35.06, 443.57 26.84, 467.7 -1.89 M429.21 52.02 C440.84 34.87, 457.26 22.35, 469.78 4 M427.72 47.32 C444.65 29.05, 460.77 9.28, 470.14 0.02 M433.87 49.88 C445.6 32.52, 461.26 19.71, 479.56 -2.52 M436.33 48.16 C453.61 28.25, 468.95 9.91, 478.28 -0.35 M436.07 48.91 C451.18 33.87, 467.98 13.31, 482.21 3.98 M441.01 47.02 C452.19 33.83, 468.63 18.5, 483.33 1.46 M446.41 45.54 C462.1 31.07, 474.17 20.51, 484.66 3.29 M445.77 50.16 C454.99 39.65, 464.76 27.61, 485.75 -0.64 M450.85 50.96 C463.62 28.53, 478.82 8.66, 494.74 -3.48 M452.64 49.33 C461.99 36.21, 471.6 21.87, 491.27 1.53 M453.45 47.62 C466.44 36.62, 481.7 17.15, 499.86 2.5 M456.15 46.5 C465.3 36.32, 476.06 26.02, 497.37 -0.86 M460.64 45.76 C475.15 31.12, 486.98 14.68, 498.66 3.11 M459.34 46.66 C469.16 35.55, 480.49 25.87, 504.62 -0.15 M467.94 47.86 C478.04 31.77, 493.66 11.67, 501.1 6.77 M468.26 46.52 C477.15 37.77, 485.47 30.58, 504.59 7.58 M468.25 49.19 C480.21 34.02, 488.93 23.62, 500.51 11.33 M471.98 47.3 C480.71 36.85, 490.85 26.19, 503.62 13.69 M478.57 50.26 C485.95 40.27, 497.54 32.51, 503.25 15.7 M477.05 47.44 C487.45 38.07, 499.33 24.76, 504.22 16.82 M484.26 49.36 C488.03 43.63, 498.33 31.04, 501.55 23.07 M483.55 47.41 C488.82 40.57, 493.51 36.16, 501.67 26.35 M489.79 47.05 C489.84 40.3, 501.13 34.11, 499.58 30.13 M487.57 46.37 C494.96 41.44, 496.62 36.73, 501.83 31.89 M494.54 47.09 C493.73 47.03, 502.95 40.26, 501.5 39.15 M493.19 47.38 C497.7 45.18, 500.35 38.1, 504.1 36.5 M498.52 48.85 C499.99 47.77, 500.78 45.06, 503.28 43.11 M498.88 48.12 C500.34 46.07, 501.85 45.04, 502.68 43.87" stroke="#fd7e14" stroke-width="0.5" fill="none"></path><path d="M-1.43 0.35 C153.25 -1.77, 304.26 -3.53, 503.31 0.22 M0.45 0.62 C124.06 -3.33, 249.56 -3.44, 502.27 0.58 M504.03 1.55 C501.74 15.02, 500.68 21.03, 504.51 46.79 M503.87 0.18 C503.63 13.02, 501.38 24.93, 501.7 46.58 M501.1 48.54 C339.97 52.51, 178.1 53.32, 0.9 46.47 M501.57 47.75 C390.58 47.08, 278.67 46.02, 0.09 48.18 M0.84 47.53 C-0.36 27.68, -2.88 10.34, -3.42 2.85 M-0.13 47.34 C-2.66 30.53, -2.77 9.05, 0.02 1.21" stroke="#000000" stroke-width="1" fill="none"></path></g><g transform="translate(70 16) rotate(0 191 17.5)"><text x="191" y="25" font-family="Virgil, Segoe UI Emoji" font-size="28px" fill="#000000" text-anchor="middle" style="white-space: pre;" direction="ltr">Minibatch Gradient Descent</text></g><g stroke-linecap="round" transform="translate(835.2277713044161 112.14713674597442) rotate(0 285.2002976567196 146.33210607258297)"><path d="M1.75 -0.51 L569.68 0.79 L572.35 293.25 L1.53 292.46" stroke="none" stroke-width="0" fill="#333333"></path><path d="M0.34 0.72 C216.17 -0.67, 433.87 -0.39, 569.99 -0.58 M-0.3 -0.01 C218.22 -1.84, 436.35 -1.48, 570.2 0.03 M570.27 1.14 C570.99 64.94, 572.45 131.58, 569.56 293.46 M570.82 0.49 C572.02 102.41, 572.33 203.16, 570.56 292.33 M570 293.03 C344.77 294.21, 121.01 292.68, -0.62 292.08 M570.62 292.91 C419.42 291.65, 268.09 292.03, 0.4 292.57 M-0.22 292.23 C-1.61 224.35, -1.73 156.63, 1.3 1.27 M-0.69 293.07 C-0.59 198.03, 0.14 105.19, -0.25 -0.33" stroke="#333333" stroke-width="2" fill="none"></path></g><g stroke-linecap="round" transform="translate(834.7733041937875 112.49381230639847) rotate(0 283.22299006865296 16.104392975387782)"><path d="M-0.51 -0.72 L567.24 1.95 L567.03 33.74 L-0.2 31.54" stroke="none" stroke-width="0" fill="#343a40"></path><path d="M0.72 -0.44 C119.06 -0.3, 238.57 -1.37, 565.87 0.66 M-0.01 0.12 C201.96 1.85, 404.35 1.51, 566.48 -0.3 M567.98 -0.7 C565.13 12.55, 565.97 21.47, 567.51 33.17 M567.11 -0.56 C567.24 12.53, 565.77 25.57, 566 33.15 M566.81 31.49 C428.98 31.53, 289.21 30.46, -0.58 31.93 M566.69 32.4 C426.85 33.49, 287.91 33.84, -0.09 31.95 M-0.59 30.66 C0.35 20.16, 1.46 13.27, 1.7 0.42 M0.55 31.23 C-0.8 22.76, 0.71 12.96, -0.44 0.88" stroke="#343a40" stroke-width="2" fill="none"></path></g><g stroke-linecap="round" transform="translate(850.8546545097518 119.32519208793383) rotate(0 6.326561551668192 6.1591532640259175)"><path d="M6.44 -0.65 C7.73 -0.84, 9.85 0.58, 10.86 1.54 C11.86 2.5, 12.46 3.77, 12.46 5.12 C12.46 6.48, 11.71 8.4, 10.86 9.68 C10 10.95, 8.34 12.26, 7.32 12.76 C6.29 13.26, 5.79 13.32, 4.72 12.68 C3.65 12.03, 1.71 10.36, 0.9 8.89 C0.08 7.41, -0.53 5.28, -0.17 3.85 C0.2 2.41, 2.01 0.89, 3.08 0.26 C4.14 -0.37, 5.37 0.12, 6.21 0.06 C7.05 0, 8.08 -0.34, 8.14 -0.09 M6.99 0.49 C8.54 0.13, 10.09 0.31, 10.9 0.83 C11.71 1.34, 11.42 2.46, 11.86 3.57 C12.31 4.68, 13.91 6.24, 13.57 7.46 C13.22 8.69, 11.18 9.98, 9.77 10.94 C8.36 11.9, 6.36 13.51, 5.08 13.22 C3.81 12.93, 2.91 10.62, 2.13 9.21 C1.35 7.8, 0.55 6.06, 0.42 4.75 C0.29 3.44, 0.63 1.9, 1.37 1.36 C2.1 0.82, 4.22 1.55, 4.83 1.51 C5.44 1.48, 4.92 1.1, 5.06 1.17" stroke="none" stroke-width="0" fill="#c92a2a"></path><path d="M5.16 -0.69 C6.43 -0.83, 9.36 0.89, 10.7 1.62 C12.03 2.36, 12.96 2.49, 13.19 3.71 C13.42 4.94, 12.78 7.58, 12.07 8.97 C11.36 10.35, 10.02 11.59, 8.92 12.03 C7.83 12.48, 6.79 12.12, 5.52 11.62 C4.24 11.12, 2.12 9.95, 1.29 9.03 C0.46 8.11, 0.46 7.17, 0.52 6.11 C0.59 5.04, 0.79 3.78, 1.7 2.64 C2.6 1.5, 4.99 -0.25, 5.97 -0.72 C6.95 -1.18, 7.62 -0.46, 7.59 -0.15 M8.67 1.17 C9.57 1.56, 9.96 2.94, 10.58 3.66 C11.21 4.39, 12.31 4.48, 12.41 5.5 C12.52 6.51, 11.88 8.76, 11.21 9.75 C10.55 10.75, 9.75 11.31, 8.43 11.44 C7.11 11.57, 4.57 11.35, 3.32 10.53 C2.07 9.71, 1.16 7.54, 0.93 6.54 C0.71 5.54, 1.78 5.7, 1.98 4.52 C2.17 3.34, 1.3 0.29, 2.1 -0.52 C2.89 -1.33, 5.93 -0.4, 6.74 -0.35 C7.56 -0.29, 6.7 -0.52, 6.99 -0.18" stroke="#c92a2a" stroke-width="2" fill="none"></path></g><g stroke-linecap="round" transform="translate(876.010049292395 118.59117113442335) rotate(0 6.326561551668192 6.1591532640259175)"><path d="M6.37 0.25 C7.48 0.32, 9.8 0.98, 10.79 1.77 C11.79 2.56, 12.22 3.8, 12.35 5 C12.48 6.2, 12.21 7.62, 11.58 8.96 C10.94 10.3, 9.73 12.53, 8.53 13.01 C7.32 13.5, 5.71 12.67, 4.37 11.89 C3.02 11.1, 1.3 9.45, 0.47 8.29 C-0.37 7.14, -0.89 6.33, -0.66 4.97 C-0.43 3.61, 0.45 0.83, 1.85 0.12 C3.24 -0.58, 6.7 0.77, 7.72 0.75 C8.75 0.73, 7.88 0.05, 8 0.01 M5.64 1.25 C6.76 0.62, 8.33 -0.39, 9.31 0.31 C10.29 1, 11.18 4.02, 11.5 5.43 C11.82 6.84, 11.65 7.75, 11.21 8.78 C10.76 9.82, 9.63 10.91, 8.82 11.63 C8 12.34, 7.65 13.25, 6.31 13.07 C4.98 12.89, 2.06 11.75, 0.82 10.55 C-0.42 9.35, -1.12 7.38, -1.11 5.88 C-1.11 4.37, -0.45 2.57, 0.84 1.53 C2.14 0.48, 5.77 -0.17, 6.66 -0.39 C7.56 -0.6, 6.24 0.1, 6.22 0.25" stroke="none" stroke-width="0" fill="#fab005"></path><path d="M8.12 1.33 C9.4 1.97, 11.95 3.14, 12.55 4.18 C13.15 5.22, 12.08 6.44, 11.72 7.56 C11.36 8.69, 11.3 10.03, 10.39 10.94 C9.48 11.85, 7.77 13.07, 6.28 13.04 C4.8 13, 2.63 11.66, 1.47 10.72 C0.3 9.77, -0.7 8.71, -0.7 7.37 C-0.71 6.03, 0.44 3.92, 1.43 2.68 C2.43 1.43, 4.08 0.12, 5.29 -0.09 C6.49 -0.31, 7.96 1.28, 8.66 1.39 C9.37 1.51, 9.36 0.55, 9.52 0.61 M10.17 -0.18 C11.53 0.14, 13.1 2.1, 13.29 3.51 C13.48 4.92, 12.01 6.72, 11.32 8.26 C10.63 9.8, 10.22 11.98, 9.12 12.73 C8.03 13.48, 6.09 13.06, 4.73 12.78 C3.37 12.5, 1.97 11.86, 0.96 11.05 C-0.05 10.24, -1.52 9.61, -1.33 7.94 C-1.14 6.27, 1.26 2.51, 2.11 1.04 C2.95 -0.44, 2.64 -0.73, 3.73 -0.93 C4.82 -1.12, 7.84 -0.57, 8.66 -0.15 C9.48 0.27, 8.46 1.25, 8.65 1.59" stroke="#fab005" stroke-width="2" fill="none"></path></g><g stroke-linecap="round" transform="translate(902.8027339212124 117.98040683224826) rotate(0 6.326561551668192 6.1591532640259175)"><path d="M9.54 0.62 C10.72 1.21, 11.72 2.32, 12.06 3.59 C12.4 4.86, 12.1 6.83, 11.56 8.25 C11.02 9.67, 9.68 11.3, 8.8 12.11 C7.92 12.92, 7.44 13.43, 6.28 13.11 C5.12 12.79, 2.91 11.47, 1.81 10.19 C0.71 8.91, -0.35 6.89, -0.33 5.42 C-0.31 3.95, 1.17 2.24, 1.91 1.36 C2.66 0.48, 2.65 0.2, 4.14 0.14 C5.63 0.07, 9.77 0.5, 10.83 0.98 C11.88 1.45, 10.68 2.9, 10.47 2.98 M8.73 -0.03 C9.68 -0.06, 9.88 0.68, 10.76 1.55 C11.65 2.43, 13.91 3.9, 14.06 5.23 C14.2 6.56, 12.72 8.19, 11.62 9.53 C10.51 10.88, 8.72 13.1, 7.43 13.3 C6.13 13.5, 4.98 11.79, 3.87 10.74 C2.76 9.69, 1.37 8.25, 0.74 7.01 C0.12 5.77, -0.18 4.1, 0.12 3.3 C0.43 2.5, 1.44 2.58, 2.6 2.22 C3.76 1.85, 6.26 1.24, 7.09 1.12 C7.92 1, 7.55 1.38, 7.58 1.49" stroke="none" stroke-width="0" fill="#5c940d"></path><path d="M7.58 0.58 C9.09 0.58, 10.66 0.1, 11.49 0.97 C12.33 1.84, 12.6 4.31, 12.59 5.8 C12.58 7.29, 12.04 8.97, 11.41 9.93 C10.78 10.89, 10.07 11.38, 8.81 11.57 C7.55 11.75, 5.12 11.43, 3.85 11.05 C2.57 10.66, 1.78 10.19, 1.15 9.25 C0.53 8.32, -0.08 6.91, 0.1 5.45 C0.28 3.98, 0.82 1.38, 2.25 0.46 C3.68 -0.46, 7.6 -0.22, 8.67 -0.07 C9.73 0.07, 8.68 1.03, 8.62 1.34 M5.77 1.15 C6.88 0.79, 9.19 -0.03, 10.38 0.56 C11.57 1.15, 12.47 3.35, 12.92 4.7 C13.37 6.05, 13.77 7.54, 13.07 8.64 C12.38 9.73, 10.15 10.97, 8.73 11.29 C7.31 11.6, 5.67 10.75, 4.58 10.51 C3.48 10.27, 3.13 10.98, 2.15 9.84 C1.17 8.7, -1.15 5.18, -1.28 3.66 C-1.41 2.15, 0.21 1.43, 1.39 0.74 C2.57 0.06, 4.79 -0.52, 5.8 -0.47 C6.8 -0.42, 7.17 1.04, 7.43 1.04" stroke="#5c940d" stroke-width="2" fill="none"></path></g><g transform="translate(85.16637980110045 119.38056689102814) rotate(0 270.0000000000001 12.5)"><text x="0" y="18" font-family="Virgil, Segoe UI Emoji" font-size="20px" fill="#000000" text-anchor="start" style="white-space: pre;" direction="ltr">It leverages the advantages of the previous methods</text></g><g transform="translate(172.5588845067282 196.66679519145873) rotate(0 167.5 25)"><text x="0" y="18" font-family="Virgil, Segoe UI Emoji" font-size="20px" fill="#000000" text-anchor="start" style="white-space: pre;" direction="ltr">It performs an update for every </text><text x="0" y="43" font-family="Virgil, Segoe UI Emoji" font-size="20px" fill="#000000" text-anchor="start" style="white-space: pre;" direction="ltr">mini-batch of n training examples!</text></g><g stroke-linecap="round"><g stroke-opacity="0.9" fill-opacity="0.9" transform="translate(114.76926083526496 156.20718761368516) rotate(0 23.474605609981495 27.525836794869065)"><path d="M0.85 0.36 C2.07 6.53, -0.82 27.85, 6.89 36.9 C14.6 45.94, 40.28 51.57, 47.11 54.64 M-0.16 -0.49 C0.95 5.87, -1.71 29.05, 5.99 38.39 C13.68 47.73, 38.95 52.55, 45.99 55.55" stroke="#e67700" stroke-width="1" fill="none"></path></g><g stroke-opacity="0.9" fill-opacity="0.9" transform="translate(114.76926083526496 156.20718761368516) rotate(0 23.474605609981495 27.525836794869065)"><path d="M24.14 56.63 C29.32 54.96, 34.04 56.03, 45.81 53.57 M24.2 55.54 C30.64 55.66, 36.55 56.64, 46.91 56.38" stroke="#e67700" stroke-width="1" fill="none"></path></g><g stroke-opacity="0.9" fill-opacity="0.9" transform="translate(114.76926083526496 156.20718761368516) rotate(0 23.474605609981495 27.525836794869065)"><path d="M28.78 41.98 C32.73 44.19, 36.23 49.12, 45.81 53.57 M28.84 40.89 C34.13 45.07, 38.75 50.13, 46.91 56.38" stroke="#e67700" stroke-width="1" fill="none"></path></g></g><mask></mask><g stroke-opacity="0.9" fill-opacity="0.9" stroke-linecap="round" transform="translate(161.54554723933393 185.92082972823664) rotate(0 174.52473413466782 35.67177119421376)"><path d="M17.84 0 M17.84 0 C130.77 -0.4, 243.83 -0.86, 331.21 0 M17.84 0 C83.6 -1.65, 148.84 -1.2, 331.21 0 M331.21 0 C342.22 0.54, 347.95 4.89, 349.05 17.84 M331.21 0 C341.14 -0.48, 348.18 7.06, 349.05 17.84 M349.05 17.84 C349.54 25.67, 348.63 35.07, 349.05 53.51 M349.05 17.84 C348.64 29.9, 348.55 42.55, 349.05 53.51 M349.05 53.51 C350.29 63.66, 343.92 70.79, 331.21 71.34 M349.05 53.51 C346.93 63.15, 342.22 69.22, 331.21 71.34 M331.21 71.34 C237.44 68.06, 146.51 68.79, 17.84 71.34 M331.21 71.34 C237.09 73.48, 144.71 73.1, 17.84 71.34 M17.84 71.34 C6.76 71.17, -0.37 65.69, 0 53.51 M17.84 71.34 C3.66 70.82, 0.29 66.59, 0 53.51 M0 53.51 C1.45 43.77, -0.36 34.93, 0 17.84 M0 53.51 C-0.35 38.63, -0.2 24.24, 0 17.84 M0 17.84 C1.22 6.27, 4.88 0.98, 17.84 0 M0 17.84 C-1.77 5.08, 6.67 -0.39, 17.84 0" stroke="#e67700" stroke-width="1" fill="none"></path></g><g transform="translate(298.8962537425966 310.26627382783226) rotate(0 242 12.5)"><text x="0" y="18" font-family="Virgil, Segoe UI Emoji" font-size="20px" fill="#000000" text-anchor="start" style="white-space: pre;" direction="ltr">Reduces the variance of the parameter updates</text></g><g transform="translate(216.98256337563043 374.2223504190315) rotate(0 217.4999999999999 25)"><text x="0" y="18" font-family="Virgil, Segoe UI Emoji" font-size="20px" fill="#000000" text-anchor="start" style="white-space: pre;" direction="ltr">Leverages very efficient matrix computation</text><text x="0" y="43" font-family="Virgil, Segoe UI Emoji" font-size="20px" fill="#000000" text-anchor="start" style="white-space: pre;" direction="ltr">thanks to pre-implemented libraries</text></g><g stroke-linecap="round"><g stroke-opacity="0.9" fill-opacity="0.9" transform="translate(181.92254119997892 269.799865016088) rotate(0 13.666889400636933 60.01547965867212)"><path d="M0.21 0.29 C0.32 15.75, -3.48 72.38, 1.44 92.24 C6.36 112.09, 24.97 114.96, 29.72 119.43 M-1.14 -0.6 C-1.28 14.58, -4.68 70.35, 0.4 90.56 C5.47 110.76, 24.28 115.76, 29.32 120.63" stroke="#e67700" stroke-width="1" fill="none"></path></g><g stroke-opacity="0.9" fill-opacity="0.9" transform="translate(181.92254119997892 269.799865016088) rotate(0 13.666889400636933 60.01547965867212)"><path d="M10.61 115.99 C18.54 119.01, 23.83 120.94, 28.3 121.15 M9.6 115.32 C16.66 117.16, 22.75 119.68, 28.78 120.08" stroke="#e67700" stroke-width="1" fill="none"></path></g><g stroke-opacity="0.9" fill-opacity="0.9" transform="translate(181.92254119997892 269.799865016088) rotate(0 13.666889400636933 60.01547965867212)"><path d="M17.89 104.67 C23.09 111.86, 25.72 117.93, 28.3 121.15 M16.87 104 C21.5 109.75, 25.09 116.18, 28.78 120.08" stroke="#e67700" stroke-width="1" fill="none"></path></g></g><mask></mask><g stroke-linecap="round"><g stroke-opacity="0.9" fill-opacity="0.9" transform="translate(262.6091486826265 267.72077635501046) rotate(0 13.358000226729132 27.537285795996468)"><path d="M0.12 -0.13 C1.05 5.17, 0.21 22.73, 4.47 31.98 C8.74 41.23, 21.95 51.29, 25.68 55.37 M-1.28 -1.24 C-0.44 4.21, -1.51 23.76, 3.37 33.35 C8.25 42.94, 24.03 52.24, 28 56.32" stroke="#e67700" stroke-width="1" fill="none"></path></g><g stroke-opacity="0.9" fill-opacity="0.9" transform="translate(262.6091486826265 267.72077635501046) rotate(0 13.358000226729132 27.537285795996468)"><path d="M12.49 50.68 C15.41 50.68, 18.06 53.35, 28.54 55.35 M13.46 51.5 C16.27 52.8, 20.85 54.13, 27.29 56.56" stroke="#e67700" stroke-width="1" fill="none"></path></g><g stroke-opacity="0.9" fill-opacity="0.9" transform="translate(262.6091486826265 267.72077635501046) rotate(0 13.358000226729132 27.537285795996468)"><path d="M19.44 42.05 C20.93 43.84, 22.15 48.29, 28.54 55.35 M20.4 42.86 C21.36 46.56, 24.05 50.24, 27.29 56.56" stroke="#e67700" stroke-width="1" fill="none"></path></g></g><mask></mask><g transform="translate(898.9513973473565 174.71504156734773) rotate(0 218.5 87.5)"><text x="0" y="18" font-family="Virgil, Segoe UI Emoji" font-size="20px" fill="#ffff" text-anchor="start" style="white-space: pre;" direction="ltr">Randomly initialize the weights W</text><text x="0" y="43" font-family="Virgil, Segoe UI Emoji" font-size="20px" fill="#ffff" text-anchor="start" style="white-space: pre;" direction="ltr"></text><text x="0" y="68" font-family="Virgil, Segoe UI Emoji" font-size="20px" fill="#ffff" text-anchor="start" style="white-space: pre;" direction="ltr">for a fixed number of iterations..  </text><text x="0" y="93" font-family="Virgil, Segoe UI Emoji" font-size="20px" fill="#ffff" text-anchor="start" style="white-space: pre;" direction="ltr">    for batch in batches:</text><text x="0" y="118" font-family="Virgil, Segoe UI Emoji" font-size="20px" fill="#ffff" text-anchor="start" style="white-space: pre;" direction="ltr">  </text><text x="0" y="143" font-family="Virgil, Segoe UI Emoji" font-size="20px" fill="#ffff" text-anchor="start" style="white-space: pre;" direction="ltr">        Calculate the gradients G wrt to x</text><text x="0" y="168" font-family="Virgil, Segoe UI Emoji" font-size="20px" fill="#ffff" text-anchor="start" style="white-space: pre;" direction="ltr">        Update: W = W - E G</text></g></svg>