<svg version="1.1" xmlns="http://www.w3.org/2000/svg" viewBox="0 0 1637.8490299423129 601.1774402195824" width="100%" height="100%">
  <!-- svg-source:excalidraw -->
  
  <defs>
    <style class="style-fonts">
      @font-face {
        font-family: "Virgil";
        src: url("https://excalidraw.com/Virgil.woff2");
      }
      @font-face {
        font-family: "Cascadia";
        src: url("https://excalidraw.com/Cascadia.woff2");
      }
    </style>
  </defs>
  <g stroke-linecap="round" transform="translate(10 58.643527582942625) rotate(0 808.9245149711564 266.2669563183199)"><path d="M-0.13 -0.43 C412.64 1.69, 824.67 1.47, 1617.11 -0.31 M1617.23 -0.58 C1618.09 157.29, 1617.29 314.95, 1618.1 533.25 M1617.32 532.67 C1089.18 531.37, 559.79 531.78, -0.42 532.53 M-0.01 532.66 C-2.13 352.05, -1.41 171.95, 0.18 0.73" stroke="#000000" stroke-width="2.5" fill="none" stroke-dasharray="8 10"></path></g><g transform="translate(216.0644704858678 278.02504291399964) rotate(0 262.5 25)"><text x="0" y="18" font-family="Virgil, Segoe UI Emoji" font-size="20px" fill="#000000" text-anchor="start" style="white-space: pre;" direction="ltr">With infinite time we would tune all hyperparameters..</text><text x="0" y="43" font-family="Virgil, Segoe UI Emoji" font-size="20px" fill="#000000" text-anchor="start" style="white-space: pre;" direction="ltr"></text></g><g transform="translate(276.6962899481332 332.63715909916937) rotate(0 228.5 12.5)"><text x="0" y="18" font-family="Virgil, Segoe UI Emoji" font-size="20px" fill="#000000" text-anchor="start" style="white-space: pre;" direction="ltr">..but unfortunately we have to prioritize them</text></g><g stroke-linecap="round"><g transform="translate(242.5276774720005 315.75541006163985) rotate(0 7.582759997577796 14.519153968127284)"><path d="M0.53 -0.55 C0.54 2.56, -2.58 13.19, -0.14 18.03 C2.3 22.88, 12.42 26.69, 15.15 28.52 M-0.65 1.77 C-0.77 5.07, -4.03 14.47, -1.01 19.11 C2.01 23.75, 14.55 27.76, 17.46 29.59" stroke="#e67700" stroke-width="2" fill="none"></path></g><g transform="translate(242.5276774720005 315.75541006163985) rotate(0 7.582759997577796 14.519153968127284)"><path d="M7.36 28.86 C9.83 28.04, 12.91 29.15, 17.46 28.66 M7.55 28.4 C9.66 29.06, 12.54 29.22, 17.01 29.5" stroke="#e67700" stroke-width="2" fill="none"></path></g><g transform="translate(242.5276774720005 315.75541006163985) rotate(0 7.582759997577796 14.519153968127284)"><path d="M10.17 22.85 C11.81 23.76, 14.09 26.57, 17.46 28.66 M10.35 22.4 C11.79 24.4, 14.05 25.91, 17.01 29.5" stroke="#e67700" stroke-width="2" fill="none"></path></g></g><mask></mask><g stroke-linecap="round"><g transform="translate(1295.3850455755764 139.39874377556407) rotate(0 0.4024184639552004 182.3985950100914)"><path d="M-0.55 0.14 C-0.59 60.83, -0.9 303.74, -0.88 364.67 M1.36 -0.83 C1.75 59.92, 1.84 304.32, 1.37 365.63" stroke="#000000" stroke-width="2" fill="none"></path></g></g><mask></mask><g stroke-linecap="round"><g transform="translate(960.6336471357954 195.83451978802623) rotate(0 231.60857446990576 -1.820845388966518)"><path d="M0.14 -0.88 C77.11 -1.61, 385.12 -4.32, 462.33 -4.91 M-1.24 1.27 C76.03 0.76, 387.15 -2.89, 464.46 -3.62" stroke="#000000" stroke-width="2" fill="none"></path></g></g><mask></mask><g transform="translate(1062.225360849512 158.5395179893676) rotate(0 75 12.5)"><text x="75" y="18" font-family="Virgil, Segoe UI Emoji" font-size="20px" fill="#e67700" text-anchor="middle" style="white-space: pre;" direction="ltr">Hyperparameter</text></g><g transform="translate(1321.151218490426 152.50961969701166) rotate(0 49.999999999999545 12.5)"><text x="50" y="18" font-family="Virgil, Segoe UI Emoji" font-size="20px" fill="#e67700" text-anchor="middle" style="white-space: pre;" direction="ltr">Sensitivity</text></g><g transform="translate(963.8212081614638 207.41212055775395) rotate(0 163 150)"><text x="163" y="18" font-family="Virgil, Segoe UI Emoji" font-size="20px" fill="#000000" text-anchor="middle" style="white-space: pre;" direction="ltr">Learning Rate</text><text x="163" y="43" font-family="Virgil, Segoe UI Emoji" font-size="20px" fill="#000000" text-anchor="middle" style="white-space: pre;" direction="ltr">Learning Rate Schedule</text><text x="163" y="68" font-family="Virgil, Segoe UI Emoji" font-size="20px" fill="#000000" text-anchor="middle" style="white-space: pre;" direction="ltr">Loss Function</text><text x="163" y="93" font-family="Virgil, Segoe UI Emoji" font-size="20px" fill="#000000" text-anchor="middle" style="white-space: pre;" direction="ltr">Units per Layer</text><text x="163" y="118" font-family="Virgil, Segoe UI Emoji" font-size="20px" fill="#000000" text-anchor="middle" style="white-space: pre;" direction="ltr">Parameter initialization strategy</text><text x="163" y="143" font-family="Virgil, Segoe UI Emoji" font-size="20px" fill="#000000" text-anchor="middle" style="white-space: pre;" direction="ltr">Number of layers</text><text x="163" y="168" font-family="Virgil, Segoe UI Emoji" font-size="20px" fill="#000000" text-anchor="middle" style="white-space: pre;" direction="ltr">Layer Properties</text><text x="163" y="193" font-family="Virgil, Segoe UI Emoji" font-size="20px" fill="#000000" text-anchor="middle" style="white-space: pre;" direction="ltr">Degree of Regularization</text><text x="163" y="218" font-family="Virgil, Segoe UI Emoji" font-size="20px" fill="#000000" text-anchor="middle" style="white-space: pre;" direction="ltr">Choice of Optimizer</text><text x="163" y="243" font-family="Virgil, Segoe UI Emoji" font-size="20px" fill="#000000" text-anchor="middle" style="white-space: pre;" direction="ltr">Optimizer Properties</text><text x="163" y="268" font-family="Virgil, Segoe UI Emoji" font-size="20px" fill="#000000" text-anchor="middle" style="white-space: pre;" direction="ltr">Size of minibatch</text><text x="163" y="293" font-family="Virgil, Segoe UI Emoji" font-size="20px" fill="#000000" text-anchor="middle" style="white-space: pre;" direction="ltr">Choice of non-linearity</text></g><g transform="translate(1350.717840293927 407.5611080065064) rotate(0 18 50)"><text x="0" y="18" font-family="Virgil, Segoe UI Emoji" font-size="20px" fill="#495057" text-anchor="start" style="white-space: pre;" direction="ltr">Low</text><text x="0" y="43" font-family="Virgil, Segoe UI Emoji" font-size="20px" fill="#495057" text-anchor="start" style="white-space: pre;" direction="ltr">Low</text><text x="0" y="68" font-family="Virgil, Segoe UI Emoji" font-size="20px" fill="#495057" text-anchor="start" style="white-space: pre;" direction="ltr">Low</text><text x="0" y="93" font-family="Virgil, Segoe UI Emoji" font-size="20px" fill="#495057" text-anchor="start" style="white-space: pre;" direction="ltr">Low</text></g><g transform="translate(1351.4843588078065 207.68732478949823) rotate(0 18 50)"><text x="0" y="18" font-family="Virgil, Segoe UI Emoji" font-size="20px" fill="#e67700" text-anchor="start" style="white-space: pre;" direction="ltr">High</text><text x="0" y="43" font-family="Virgil, Segoe UI Emoji" font-size="20px" fill="#e67700" text-anchor="start" style="white-space: pre;" direction="ltr">High</text><text x="0" y="68" font-family="Virgil, Segoe UI Emoji" font-size="20px" fill="#e67700" text-anchor="start" style="white-space: pre;" direction="ltr">High</text><text x="0" y="93" font-family="Virgil, Segoe UI Emoji" font-size="20px" fill="#e67700" text-anchor="start" style="white-space: pre;" direction="ltr">High</text></g><g transform="translate(1334.231565293141 308.7634148079669) rotate(0 33.499999999999545 50)"><text x="0" y="18" font-family="Virgil, Segoe UI Emoji" font-size="20px" fill="#1864ab" text-anchor="start" style="white-space: pre;" direction="ltr">Medium</text><text x="0" y="43" font-family="Virgil, Segoe UI Emoji" font-size="20px" fill="#1864ab" text-anchor="start" style="white-space: pre;" direction="ltr">Medium</text><text x="0" y="68" font-family="Virgil, Segoe UI Emoji" font-size="20px" fill="#1864ab" text-anchor="start" style="white-space: pre;" direction="ltr">Medium</text><text x="0" y="93" font-family="Virgil, Segoe UI Emoji" font-size="20px" fill="#1864ab" text-anchor="start" style="white-space: pre;" direction="ltr">Medium</text></g><g stroke-linecap="round" transform="translate(13.953042201173957 10) rotate(0 167 23)"><path d="M0 0 C0 0, 0 0, 0 0 M0 0 C0 0, 0 0, 0 0 M0.86 7.17 C0.27 4.12, 3.12 1.92, 4.87 -1.08 M-0.12 6.74 C1.63 5.16, 2.8 2.28, 5.35 0.85 M-0.9 9.86 C2.07 12.02, 5.78 9.14, 10.89 1.79 M-0.36 12.55 C2.16 9.7, 8.07 3.23, 11.77 -0.46 M-0.85 19.49 C1.97 10.69, 10.52 4.2, 15.92 -3.61 M1.32 17.08 C5.63 12.6, 10.19 6.47, 17.09 -1.27 M-1.95 23.81 C3.28 19.72, 14.94 12.7, 22.18 1.95 M-0.89 24.33 C4 17.67, 10.13 10.98, 20.22 0.83 M0.12 29.43 C10.68 22.11, 12.09 12.47, 23.81 2.32 M-1.8 29.11 C8.04 21.97, 16.73 14.06, 25.65 0.67 M2.03 34.84 C13.25 21.99, 23.46 14.19, 29.1 -1.98 M-0.58 36.41 C12.14 25.24, 19.97 10.08, 31.01 1.48 M0.04 38.72 C11.89 30.23, 24.67 13.85, 40.85 3.24 M0.45 40.53 C11.77 28.93, 22.08 20.96, 37.39 1.54 M-1.11 47.1 C14.36 33.55, 25.25 19.31, 39.06 -1.72 M2.35 46.55 C10.43 35.88, 16.74 29.17, 41.79 0.94 M9.83 50.64 C19.89 31.63, 35.5 10.52, 49.26 -1.88 M5.48 45.84 C20.38 27.95, 37.27 8.48, 47.2 0.32 M15.07 46.22 C29.49 26.85, 40.34 13.28, 53.18 -3.17 M11.55 47.91 C19.04 36.48, 31.77 25.41, 55.03 -0.37 M16.97 49.3 C30.63 26.24, 47.76 13.39, 57.03 4.17 M18.66 46.99 C30.01 33.92, 42.46 20.69, 59.14 0.88 M22.38 47 C28.57 33.88, 43.39 26.55, 66.29 -2.01 M23.36 45.43 C37.34 28.51, 55.66 11.68, 62.34 -1.14 M25.39 46.56 C40.51 27.95, 60.3 11.6, 65.89 0.83 M29.14 48.32 C35.17 37.9, 46.42 27.63, 70.38 -0.05 M35.55 47.89 C46.89 37.23, 50.53 20.41, 75.01 0.34 M32.45 46.35 C44.39 31.05, 60.9 18.91, 72.44 0.81 M36.67 44 C50.27 35.34, 53.25 27.16, 79.32 1.83 M39.17 46.49 C51.17 34.69, 59.32 23.62, 79.19 -0.84 M47.04 49.58 C56.29 37.47, 71.99 16.01, 85.7 -3.27 M42.62 46.79 C58.42 34.73, 69.75 18.99, 83.2 0.53 M46.19 45.45 C56.55 33.82, 69.18 23.54, 86.54 -0.88 M48.08 47.07 C63.55 31.02, 79.23 14.22, 89 0.99 M51.11 47.05 C64.27 34.28, 75.98 22.91, 98.46 -1.79 M54.78 47.74 C65.67 38.94, 73.76 25.5, 97.58 -2.06 M59.04 48.99 C69.11 36.02, 77.64 24.91, 102.55 2.89 M60.37 48.48 C73.99 30.99, 85.96 17.63, 100.35 0.82 M67.71 45.5 C84.17 26.62, 95.12 5.75, 107.15 2.14 M66.96 47.06 C78.81 32.69, 88.99 22.08, 107.69 -2.14 M73.43 47.71 C83.31 29.12, 100.63 8.3, 112.06 1.62 M68.97 46.77 C76.25 39.63, 85.47 29.49, 110.9 -1.13 M78.59 44.38 C86.33 34.88, 96.46 24.64, 114.7 0.85 M74.35 47.49 C86.32 36.29, 96.4 20.76, 118.1 -1.3 M83.27 50.68 C92.57 35.57, 103.08 21.82, 125.57 2 M81.93 48.62 C92 35.59, 101.16 24.03, 123.45 0.27 M83.23 45.4 C93.85 40.02, 103.56 27.09, 127.81 2.66 M85.22 48.64 C95.67 35.99, 102.57 27.35, 128.48 1.53 M90.26 47.49 C97.3 34.39, 108.74 28.95, 131.3 -3 M90.44 47.84 C105.52 29.5, 121.01 11.66, 133.91 -1 M98.85 44.52 C110.51 31.99, 121.75 11.95, 136.9 -3.6 M97 47.02 C106.24 35.56, 119.16 23.76, 137.66 -1.49 M98.51 45.22 C118.21 28.6, 131.53 8.2, 143.22 -2.18 M103.49 46.34 C115.7 28.09, 132.85 10.62, 143.33 -2.07 M104.44 47.95 C119.37 31.43, 138 7.27, 150.84 -3.59 M108.22 47.98 C119.81 33.63, 134.1 17.89, 146.23 1.95 M113.87 45.21 C122.21 32.73, 140.86 16.92, 153.08 1.92 M111.18 46.94 C123.87 35.02, 133.08 24.45, 153.86 0.8 M120.73 48.14 C131.74 29.56, 146 15.62, 156.24 3.27 M118.55 45.76 C134.44 30.43, 145.34 17.18, 159.92 1.03 M119.95 51.03 C135.04 33.67, 144.35 20.14, 162.35 1.01 M124.73 49.31 C132.33 34.88, 141.13 26.03, 164.8 0.23 M130.2 47.79 C144.2 32.75, 158.97 12.13, 165.44 3.82 M128.78 47.48 C144.67 29.54, 161.12 10.38, 169.59 1.81 M134.11 44.51 C143.64 34.8, 152.63 23.7, 174.26 -2.97 M132.5 46 C142.75 34.67, 153.07 23.61, 176.57 1.7 M141.07 43.88 C148.66 34.87, 155.5 23.49, 176.56 3.13 M140.84 45.13 C152.94 34.37, 163.18 17.37, 179.22 -0.8 M143.44 49.75 C150.44 33.92, 162.12 25.18, 185.8 2.21 M143.97 46.45 C151.59 36.51, 161.58 30.47, 186.71 -0.41 M147.33 43.6 C163.22 32.88, 175.03 16.79, 189.45 0.53 M149.75 47.57 C160.41 35.82, 169.95 26.12, 189.9 1.01 M152.82 45.07 C161.26 34.14, 174.7 26.31, 195.69 -1.01 M153.73 48.95 C165.79 33.8, 179.87 19.58, 197.87 1.13 M160.71 48.41 C170.92 37.96, 175.73 24.13, 197.71 -2.38 M159.68 48.55 C174.65 32.89, 184.01 18.66, 199.88 -0.08 M168.83 51.05 C177.82 29.81, 190.74 15.91, 204.41 -3.91 M165.53 48.68 C180.03 28.7, 198.22 9.59, 205.87 -1.57 M170.69 46.02 C182.85 25.99, 202.46 11.63, 212.7 -1.78 M171.93 46.68 C185.08 29.76, 199.32 14.86, 212.49 1.49 M175.83 50.52 C185.18 36.73, 195.76 20.56, 214.2 -3.55 M176.22 45.7 C187.43 31.45, 203.08 17.18, 215.6 0.49 M184.5 50.38 C199.04 34.96, 210.84 18.27, 223.53 0.4 M180.92 45.45 C195.62 29.37, 210.23 13.95, 224.22 0.13 M183.94 44.58 C196.21 31.49, 213.92 13.93, 229.03 -2.7 M187.76 48.93 C200.21 30.04, 218.41 11.68, 229.11 1.17 M194.47 46.46 C203.35 37.88, 215.11 19.18, 237.05 -3.48 M193.52 45.97 C200.19 37.4, 210.95 25.03, 232.68 -0.84 M197.01 44.54 C206.63 29.84, 221.56 18.94, 237.99 -1.17 M199.27 48.18 C211.55 31.72, 225.87 12.36, 236.91 -0.03 M204.63 51.21 C214.21 28.77, 233.81 17.78, 245.87 -2.86 M203.71 47.99 C218.55 29.52, 231.09 14.88, 244.59 -1.25 M204.64 47.99 C218.81 33.29, 229.15 21.92, 249.85 1.25 M206.98 46.12 C220.4 37.39, 227.73 23.72, 248.61 -1.01 M210.81 46.08 C227.86 34.31, 233.63 17.81, 252.33 -0.9 M212.64 46.36 C222.53 34.6, 233.84 22.66, 255.8 -0.05 M222.18 46.77 C234.17 30.35, 247.59 11.73, 257.2 1.27 M220.23 46.3 C231.2 32.37, 244.91 16.13, 260.96 -0.52 M227.25 46.03 C239.45 32.05, 246.82 16.44, 268.56 1.48 M223.21 48.09 C236.08 31.77, 253.1 13.93, 263.3 0.7 M226.75 50.95 C241.33 33.8, 253.4 16, 271.02 -2.91 M229.5 45.16 C240.49 33.83, 248.03 25.58, 268.5 -1.2 M237.92 44.27 C244.95 36.71, 252.26 24.37, 276.4 -2.39 M235.47 49.03 C246.16 32.65, 258.56 18.68, 277.19 -0.22 M237.2 48.87 C252.79 39.58, 257.23 26.84, 280.03 -2.82 M238.41 48 C255.83 31, 268.92 13.99, 278.91 -0.8 M244.55 44.26 C252.28 39.92, 267.34 25.01, 283.46 -0.92 M246.58 45.93 C256.77 37.9, 263.28 26.86, 284.69 0.89 M250.13 47.11 C268.94 25.68, 284.21 13.14, 290.72 -3.76 M251.67 44.99 C258.39 37, 270.24 26.54, 292.97 -0.22 M258.62 43.71 C266.63 35.61, 276.81 26.88, 299.09 3.72 M254.84 48.4 C266.3 32.98, 280.52 19.14, 298.16 0.57 M263.91 46.5 C271.01 33.69, 285.9 19.47, 303.32 -0.78 M263.15 47.19 C270.36 34.74, 282.02 22.75, 300.59 0.54 M269.37 50.56 C283.16 27.81, 289.7 13.97, 310.4 3.6 M267.65 46.94 C275.02 36.11, 286.67 21.87, 307.07 0.26 M270.62 50.12 C282.52 38.05, 290.98 23.23, 311.81 -2.66 M271.82 46.52 C289.52 30.55, 303.26 11.57, 312.83 -1.65 M275.77 51.04 C290.13 31.13, 302.2 19.67, 314.25 1.07 M277.57 48.89 C291.82 28.91, 309.14 11.72, 318.04 -1.75 M280.14 47.31 C296.1 28.2, 315.4 15.54, 319.92 0.05 M281.78 47.79 C292.43 32.96, 305.33 23.46, 321.84 -1.06 M286.56 49.59 C295.45 33.36, 308.47 23.85, 325.24 0.69 M286.25 46.52 C299.59 31, 314.29 17.81, 330.79 -2.28 M296.07 45.65 C309.98 35.22, 318.6 14.59, 333.13 3.06 M294.26 48.68 C301.9 36.92, 312.1 25.19, 332.92 0.93 M296.21 44.92 C302.41 35.12, 316.11 31.69, 333.1 4.34 M296.49 48.93 C307.25 38.31, 312.3 29.1, 335.55 1.74 M307.1 47.72 C311.95 39.2, 314.74 31.84, 335.45 4.62 M302.96 48.48 C314.16 35.51, 328.04 20.94, 337.26 8.11 M308.96 45.99 C313.83 39.97, 324.22 28.52, 334.69 11.11 M308.21 46.11 C314.95 39.96, 321.47 30.78, 337.05 13.29 M313.65 48.1 C318.11 42.29, 324.62 32.89, 339.14 17.17 M312.67 49.13 C323.52 35.72, 331.51 25.66, 337.68 21.08 M322.78 48.01 C321.85 44.39, 329.96 32.94, 333.73 23.3 M318.44 48.93 C323.74 43.27, 326.71 38, 338.26 25.1 M323.95 45.95 C324.66 47.76, 333.75 43.15, 335.6 30.06 M323.39 47.67 C327.68 44.22, 332.48 40.43, 335.53 31.85 M329.7 47.83 C332.11 42.82, 333.78 43.5, 336.49 38.62 M329.67 46.01 C331.95 43.11, 334.78 41.94, 336.25 39.38" stroke="#fd7e14" stroke-width="0.5" fill="none"></path><path d="M-1.67 0.85 C112.4 3.91, 217.43 2.67, 332.2 0.47 M0.8 -0.71 C118.71 -0.42, 238.34 0.31, 333.98 0.22 M331.19 0.89 C337.13 8.57, 337.31 18.76, 337.34 46.38 M333.81 -0.4 C332.4 14.17, 332.05 26.62, 332.38 47.23 M336.5 46.08 C222.07 48.56, 114.89 46, -1.69 48.59 M334.7 44.93 C216.89 47.93, 101 47.66, -1.03 46.37 M1.8 49.23 C2.17 29.85, -3.08 19.13, 1.05 0.58 M-1.7 46.99 C0.37 30.71, -1.6 15.79, 1.06 -0.37" stroke="#000000" stroke-width="1" fill="none"></path></g><g transform="translate(111.45304220117396 15.5) rotate(0 69.5 17.5)"><text x="69.5" y="25" font-family="Virgil, Segoe UI Emoji" font-size="28px" fill="#000000" text-anchor="middle" style="white-space: pre;" direction="ltr">Sensitivity</text></g><g stroke-linecap="round"><g transform="translate(585.9743252576463 359.48908273905545) rotate(0 72.78523041266726 -0.3301487717390046)"><path d="M0.38 1.08 C24.93 0.91, 122.2 -1.32, 146.45 -1.74 M-0.88 0.59 C23.61 0.6, 121.36 -0.59, 145.68 -0.78" stroke="#e67700" stroke-width="1" fill="none"></path></g></g><mask></mask></svg>