<svg version="1.1" xmlns="http://www.w3.org/2000/svg" viewBox="0 0 1640.0219715315884 905.262370445672" width="4920.065914594765" height="2715.787111337016">
  <!-- svg-source:excalidraw -->
  
  <defs>
    <style class="style-fonts">
      @font-face {
        font-family: "Virgil";
        src: url("https://excalidraw.com/Virgil.woff2");
      }
      @font-face {
        font-family: "Cascadia";
        src: url("https://excalidraw.com/Cascadia.woff2");
      }
    </style>
  </defs>
  <g stroke-linecap="round" transform="translate(12.596516550228671 467.80571281795545) rotate(0 109.75167679996302 23.5)"><path d="M0 0 C0 0, 0 0, 0 0 M0 0 C0 0, 0 0, 0 0 M0 5.4 C0.85 4.67, 3.48 2.02, 5.41 -0.54 M-0.26 6.95 C1.26 5.36, 1.49 4.1, 4.62 0.05 M-1.17 9.58 C4.58 9.19, 4.96 3.03, 12.87 -3.15 M1.64 12.58 C2.94 7.55, 7.73 2.69, 10.52 -0.13 M1.15 14.89 C8.4 13.89, 9.73 5.24, 15.71 0.3 M-0.28 18.29 C4.38 12.93, 10.9 4.69, 14.83 -0.93 M-3.62 28.05 C5.52 18.06, 17.16 7.3, 21.86 -0.16 M-0.94 22.11 C6.76 12.59, 15.45 4.35, 20.94 0.97 M1.89 30.67 C10.87 20.06, 16.11 7.42, 23.16 0.88 M-0.13 31.56 C5.05 23.57, 11.05 17.6, 24.94 -0.65 M-2.75 33.83 C11.62 24.9, 21.48 12.15, 34.03 3.14 M-0.71 38.36 C8.79 27.17, 16.37 17.11, 33.65 1.88 M-2.4 46.16 C14.63 30.21, 31.7 6.82, 38.44 0.24 M-0.94 42.61 C11.15 30.27, 21.53 16.63, 38.51 -0.03 M4.55 44.94 C20.94 25.35, 29.5 8.36, 38.77 -3.92 M0.03 49.38 C18.72 29.06, 34.69 9.97, 42.06 0.53 M5.79 49.96 C12.23 36.41, 22.5 25.23, 50.18 -2.78 M7.27 45.98 C18.63 32.67, 36.63 15.14, 47.84 -0.21 M12.2 49.93 C23.8 34.96, 41.98 11.25, 53.48 -2.77 M10.78 49.85 C20.98 38.12, 29.89 26.24, 54.85 -0.86 M17.29 51.36 C31.6 34.53, 39.68 18.24, 61.54 1.1 M18.48 48.78 C30.69 32.13, 39.48 18.62, 59.47 -1.08 M22.25 48.38 C39.24 30.41, 51.61 16.11, 64.11 1.58 M20.83 48.31 C38.19 31.92, 50.76 12.28, 61.91 -1.77 M28.2 47.9 C39.19 40.13, 44.38 25.66, 70.26 3.59 M28.62 48.19 C36.8 37.42, 47.2 26.59, 68.14 0.77 M30.54 46.01 C38.09 39.04, 48.06 26.22, 77.19 0.56 M30.9 48.29 C44.33 34.23, 56.96 20.56, 76.33 -1.41 M35.81 44.27 C47.71 33.99, 65.2 21.04, 80.65 -1.16 M37.41 48.35 C55.37 30.04, 70.21 10.45, 78.81 2 M40.11 50.21 C57.65 31.29, 68.76 19.17, 83.8 2.04 M44.56 49.85 C58.42 31.41, 74.03 12.53, 84.46 -0.71 M45.94 45.58 C62.33 39.29, 69.28 20.08, 91.57 3.44 M49.81 47.74 C64.8 30.57, 75.7 11.53, 88.68 -1.4 M56.59 50.83 C72.03 28.83, 87.32 11.81, 95.58 2.33 M53.64 48.33 C60.78 35.58, 71.33 24.25, 95.82 -0.31 M60.99 45.39 C77.67 27.01, 92.14 8.73, 100.45 -3.58 M57.98 49.06 C73.61 33.22, 83.23 19.36, 101.14 -0.2 M68.14 48.14 C79.93 37.23, 90.29 24.78, 108.74 -1.83 M64.16 48.34 C80.24 30.3, 95.77 9.37, 105.19 1.41 M67.92 45.7 C76.07 40.6, 86.58 24.19, 115.28 3.23 M71.32 49.34 C87.31 30.49, 102.94 8.08, 111.82 -1.88 M73.51 48.86 C93.21 28.27, 110.89 7.3, 115.4 -0.49 M74.37 49.8 C85.44 39.27, 91.27 27.66, 117.89 -0.86 M82.25 44.93 C94.49 26.78, 115.8 8.84, 118.6 3.79 M82.42 45.86 C94.09 35.36, 104.56 18.41, 122.56 -0.62 M86 46.14 C99.52 35.37, 113.71 19.81, 126.2 -1.56 M84.73 49.88 C101.42 29.01, 116.7 10.53, 126.44 -0.45 M88.06 49.96 C108.72 27.05, 118.81 13.66, 135.54 0.43 M93.12 46.2 C102.05 33.86, 116.08 17.95, 131.42 0.66 M97.48 47.56 C110.89 30.19, 128.55 16.14, 138.38 1.79 M95.93 49.04 C108.42 32.05, 123.04 14.89, 136.59 -0.11 M97.99 48.1 C110.91 37.22, 122.22 24.85, 141.76 -2.07 M100.46 46.21 C120.11 28.39, 135.56 11.23, 142.68 0.34 M106.36 47.16 C117.84 33.44, 127.75 21.79, 150.39 0.06 M106.88 49.02 C121.45 30.79, 137.12 12.42, 147.98 -1.09 M109.26 51.09 C123.53 37.86, 129.58 26.11, 155.51 -0.5 M110.71 48.03 C128.05 27.06, 145.16 8.37, 152.83 0.06 M113.64 45.4 C131.31 32.11, 145.12 16.68, 157.27 4.16 M116.7 46.87 C129.22 34.6, 142.36 18.22, 159.48 -0.34 M123.63 51.12 C138.27 34.13, 151.79 12.73, 161.6 2.79 M121.33 46.07 C135.2 34.38, 142.36 25.42, 164.6 -1.24 M126.88 45.18 C140.24 38.55, 148.05 22.42, 170.59 1.47 M126.72 48.87 C141.75 30.88, 155.5 15.15, 171.16 -0.55 M134.79 49.55 C148.33 36.93, 155.58 17.25, 171.38 -4.1 M134.39 49.78 C143.75 34.21, 155.77 20.93, 176.91 -1.36 M140.18 47.83 C154.3 29.87, 165.97 20, 182.5 -0.19 M138.52 48.63 C149.15 37.17, 160.52 23.14, 178.31 -0.1 M142.94 49.94 C156.04 33.93, 171.13 16.12, 186.78 1.34 M145.11 46.64 C156.27 31.3, 170.79 12.98, 186.93 -0.79 M146.22 49.14 C159.52 32.43, 176.55 14.52, 193.7 -0.59 M147.85 49 C162.84 33.02, 174.73 17.86, 189.44 0.88 M154.87 50.53 C164.95 32.69, 184.85 11.19, 196.29 0.08 M155.98 48.66 C166.55 32.44, 182.03 15.59, 196.02 -0.76 M156.25 51.32 C171.72 34.17, 179.74 27.75, 201.47 -3.04 M158.74 48.15 C174.13 29.78, 190.44 13.73, 200.29 -1.43 M166.63 45.26 C175.69 29.62, 194.06 12.52, 202.96 -0.47 M165.34 47.39 C179.23 28.08, 196.99 10.46, 207.77 -1.21 M172.06 51.01 C184.19 35.59, 197.9 14.86, 211.64 -2.42 M169.38 49.5 C185.85 30.36, 203.28 11.92, 211.81 -0.6 M174.77 44.51 C183.76 34.57, 193.61 24.25, 220.41 -2.48 M176.78 48.63 C190.71 30.58, 207.68 10.82, 218 1.2 M182.02 51.32 C192.85 31.14, 207.27 17.13, 217.29 4.33 M182.22 47.76 C194.06 32.42, 209.06 18.34, 222.85 -0.37 M188.46 47.07 C199.61 29.06, 213.72 15.63, 221.6 10.63 M185.09 46.51 C197.28 36.32, 209.78 20.6, 221.52 7.38 M189.05 49.76 C200.44 32.83, 216.98 17.55, 221.51 12.27 M189.92 46.94 C197.6 40.81, 204.95 30.64, 222.94 13.32 M193.39 44.19 C202.22 38.19, 210.66 30.81, 217.2 17.04 M198.29 49.4 C202.78 38.94, 209.07 34.74, 220.51 20.71 M198.64 50.3 C210.58 42.37, 215.28 35.08, 225 25.26 M201.33 46.3 C207.74 41.21, 211.83 35.06, 221.86 27.18 M203.85 47.56 C207.15 43.94, 211.11 40.86, 223.79 30.14 M207.6 45.96 C210.11 42.2, 218.11 37.62, 222.72 30.59 M214.16 49.79 C215.19 45.87, 219.04 44.93, 219.92 36.32 M212.19 46.83 C215.42 44.68, 216.71 42.73, 220.87 37.9 M218.25 47.2 C218.9 47.88, 220.7 46.25, 222.36 43.42 M217.96 47.67 C218.54 46.55, 219.92 46.33, 221.26 44.42" stroke="#228be6" stroke-width="0.5" fill="none"></path><path d="M-2.19 -0.4 C71.26 2.46, 144.1 -1.02, 219.44 -0.7 M0.23 -0.72 C69.95 0.75, 140.91 0.86, 220.99 1.64 M217.49 -3.6 C221.94 20.12, 221.41 30.2, 220.43 50 M219.05 -0.11 C220.76 15.93, 220.78 29.68, 221.17 47.77 M219.02 45.5 C152.42 40.84, 79.56 44.01, -1.83 47.67 M221.06 47.85 C131.55 49.63, 45.85 50.14, 1.11 45.75 M1.51 43.83 C3.14 34.42, 2.8 22.12, -3.7 3.93 M0.71 45.88 C-2.61 33.52, -0.69 20.56, 0.46 -1.76" stroke="#000000" stroke-width="1" fill="none"></path></g><g transform="translate(74.34819335019097 473.30571281795545) rotate(0 48 18)"><text x="48" y="25" font-family="Virgil, Segoe UI Emoji" font-size="28px" fill="#000000" text-anchor="middle" style="white-space: pre;" direction="ltr">Agenda</text></g><g stroke-linecap="round" transform="translate(722.289923686805 462.84467007757) rotate(0 115.93486985911585 23.5)"><path d="M0 0 C0 0, 0 0, 0 0 M0 0 C0 0, 0 0, 0 0 M0.06 6.37 C1.26 4.96, 2.23 1.43, 5.32 -0.68 M-0.01 5.82 C1.58 4.17, 2.5 2.71, 4.2 0.57 M0.95 10.36 C1.3 11.08, 2.64 6.94, 8.95 -0.67 M-0.31 12.41 C2.97 7.28, 8.23 2.59, 10.44 1.22 M0.96 18.9 C3.24 12.21, 10.63 10, 18.25 2.58 M1.73 17.2 C5.32 12.6, 7.85 8.2, 14.09 2.27 M2.03 27.78 C2.43 19.94, 8.21 18.38, 23.78 -0.77 M-1.68 22.85 C5.21 18.3, 11.85 13.76, 20.62 -1.38 M-0.29 28.2 C6.6 16.71, 18.78 6.69, 28.57 2.06 M0.39 29.59 C8.87 20.52, 14.12 14.29, 26.41 1.17 M1.57 35.16 C10.57 30.2, 18.84 18.55, 34.38 3.26 M1.02 35.82 C9.75 28.24, 19 18.04, 30.81 -1.3 M3.87 44.95 C4.9 34.14, 16.74 22.4, 34.33 3.94 M1.06 41.64 C8.93 33.9, 17.9 23.63, 36.7 -0.64 M-2.78 43.54 C15.15 24.65, 29.75 13.92, 44.61 3.75 M2.41 48.78 C11.15 34.73, 20.92 22.27, 43.55 -2.12 M4.89 45.64 C16.1 37.23, 26.67 22.99, 49.52 -1.48 M7.64 49.28 C22.55 31.97, 35.92 15.61, 47.98 0.78 M14.76 50.43 C20.84 33.03, 35.51 13.12, 49.18 1.81 M11.43 48.76 C20.38 36.13, 33.25 20.38, 52.77 1.5 M17.42 47.6 C26.3 35.64, 42.65 17.5, 60.58 2.65 M16.09 45.98 C32.34 30, 46.78 11.58, 59.53 1.63 M22.02 48.5 C38.03 32.74, 49.67 19.08, 61.25 3.07 M22.89 47.63 C30.3 33.47, 41.3 22.25, 65.65 -1.91 M31.26 44.5 C42.03 33.58, 57.21 14.42, 70.38 -0.22 M28.38 48.19 C43.47 30.02, 57.52 12.12, 68.93 0.31 M34.46 44.67 C43.74 39.43, 54.96 24.76, 76.41 -2.25 M33.06 47.18 C43.57 39.41, 49.93 26.65, 72.63 1.42 M39.24 49.32 C51.34 38.06, 57.73 28.33, 78.21 -0.11 M38.35 48.3 C47.44 33.78, 61.72 21.7, 78.03 -0.56 M40.63 47.7 C52.09 35.58, 63.86 28.3, 84.68 -3.39 M43.19 48.66 C56.59 29.25, 73.27 10.74, 85.48 0.47 M52.66 47.57 C55.48 37.48, 71.65 27.05, 91.84 3.52 M49.11 45.92 C61.49 28.56, 76.56 14.91, 90.97 -0.13 M53.53 48.87 C70.57 29.44, 86.93 8.49, 98.52 2.98 M52.78 47.52 C64.6 34.44, 78.52 21.37, 95.21 1.45 M57.22 49.33 C71.33 30.59, 84.46 14.82, 99.44 -2.2 M59.07 45.86 C68.71 36.46, 77.61 24.55, 100.17 -1.35 M66.59 50.06 C84.31 30.54, 96.01 12.49, 108.84 0.77 M65.62 47.46 C75.5 32.62, 90.42 18.18, 106.14 -2.24 M73.07 45.24 C78.25 40.41, 94.21 28.51, 113.62 0.39 M71.9 48.18 C82.79 30, 97.63 13.87, 112.32 -0.93 M73.69 51.7 C82.2 33.98, 95.69 18.49, 112.32 -0.82 M75.78 46.38 C84.23 36.2, 95.22 23.59, 117.19 0.81 M78.8 50.53 C94.38 28.38, 113.25 15.45, 119.46 -0.45 M82.58 46.13 C96.87 29.32, 113.16 10.71, 122.39 0.61 M89.13 48.76 C102.63 32.32, 109.78 21.94, 126.04 1.73 M85.63 46.4 C95.5 35.39, 105.15 24.86, 126.55 -1.06 M87.44 44.94 C99.83 39.49, 109.38 25.9, 134.44 -1.93 M91.34 48.21 C106.54 27.99, 125.22 11.34, 131.66 1.01 M95.65 50.81 C112.04 32.96, 125.19 17.56, 139.57 -1.25 M95.79 47.86 C105.62 33.67, 118.91 19.61, 137.71 -0.01 M102.45 48.83 C109.31 36.44, 116.54 31.88, 140.5 1.32 M101.72 48.1 C113.36 35.4, 121.94 24.27, 141.67 -1.82 M104.44 45.95 C117.55 36.5, 130.59 23.16, 145.56 0.39 M107.18 47.32 C118.08 33.7, 129.9 17.71, 148.1 2.24 M113.74 47.09 C120.2 38.21, 129.38 30.01, 152.01 -2.78 M110.52 46.74 C119.23 36.94, 129.85 29.08, 152.22 0.29 M119.12 44.87 C129.85 36.91, 138.86 28.9, 159.1 1.35 M119 47.57 C128.35 36.34, 138.96 23.68, 158.44 1.2 M125.63 49.16 C131.68 29.33, 151.06 15.07, 163.76 0.26 M121.82 46.25 C133.87 36.75, 140.12 25.97, 163.44 -0.29 M131.74 44.79 C140.28 36, 152.27 22.92, 165.7 0.92 M126.72 47.6 C135.37 38.71, 145.94 26.02, 170.73 -0.37 M136.26 45.84 C145.23 27.2, 157.6 13.29, 179.02 -0.51 M132.35 48.75 C146.84 32.24, 161.81 12.73, 173.7 -0.97 M134.81 49.54 C153.07 33.64, 166.15 13.46, 181.35 -1.09 M140.12 48.62 C149.82 32.14, 161.96 19.94, 178.23 1.45 M144.15 50.19 C151.73 35.76, 168.39 22.82, 189.46 2.53 M144.06 47.31 C158.51 31.81, 174.93 12.84, 185.68 1.05 M149.24 49.46 C154.77 40.68, 166.62 27.41, 192.43 -0.27 M149.22 48.07 C157.35 35.24, 168.07 26.65, 191.51 1.85 M156.3 50.11 C163.94 33.58, 180.4 19.34, 195.21 -0.44 M154.23 48.47 C168.64 29.94, 185.61 10.14, 196.31 -1.18 M156.43 49.49 C167.97 37.4, 173.05 29.04, 199.79 0.34 M158.35 49.6 C168.07 35.44, 177.86 25.67, 200.4 1.2 M162.78 49.3 C176.41 28.23, 194.12 19.57, 208.81 -0.69 M164.07 47.25 C179.24 34.23, 191.11 18.25, 206.83 1.57 M174.16 49.12 C181.31 31.19, 195.1 18.92, 214.7 2.25 M172.13 49.09 C180.96 36.15, 188.77 23.23, 212.02 -0.88 M172.14 48.05 C184.71 37.47, 197.74 23.72, 219.27 1.08 M176.09 49.88 C188.67 30.95, 206.96 13.89, 216.75 0.78 M180.69 46.39 C194.42 28.87, 209.54 19.08, 222.87 -0.46 M181.42 48.63 C197.11 32.79, 208.1 16.52, 220.78 0.44 M183.32 47.19 C200.86 31.58, 219 15.4, 228.01 -1.25 M188.04 47.82 C196.81 37.05, 206.78 26.68, 229.86 0.12 M190.7 49.92 C197.62 37.43, 208.7 24.51, 235.81 -0.37 M193.4 46.53 C200.15 40.05, 208.33 30.44, 233.69 1.95 M197.75 44.1 C209.14 35.7, 210.09 28.77, 231.01 7.52 M195 47.72 C210.56 32.01, 223.77 16.31, 234.33 8.3 M203.31 50.89 C207.25 43.38, 213.93 30.65, 230.91 12.27 M201.52 47.32 C208.43 39.35, 219.04 29.52, 232.55 11.47 M207.24 44.75 C213.28 44.86, 216.07 37.75, 235.22 21.64 M207.3 49.48 C216.19 41, 221.84 29.67, 233.16 18.67 M214.07 51.03 C222.49 37.86, 222.71 28.4, 231.05 21.93 M211.5 47.73 C216.03 42.06, 221.22 36.07, 231.43 26.18 M222.09 51.65 C223.92 46.49, 224.83 35.49, 229.31 27.86 M216.56 48.2 C223.44 43.09, 227.41 40.2, 232.91 32.8 M226.02 49.69 C224.86 43.16, 227.99 43.05, 232.06 34.11 M223.48 46.96 C225.7 44.93, 229.67 42.27, 233.59 36.1 M228.22 46.63 C230.01 46.3, 229.58 46.61, 232.42 44.41 M229.03 47.93 C229.8 46.82, 230.36 45.79, 233.03 43.49" stroke="#228be6" stroke-width="0.5" fill="none"></path><path d="M1.01 -1.11 C52.53 1.47, 109.14 2.22, 230.16 -1.8 M-1.25 0.29 C71.53 2.27, 146.93 1.88, 233.29 -0.48 M234.94 1.12 C227.11 12.66, 234.02 23.66, 234.67 44.5 M233.48 0.62 C232.86 14.71, 232.59 26.43, 233.24 45.38 M228.86 46.55 C165.63 48.22, 99.86 53.18, -1.85 50.05 M231.09 46.21 C141.28 44.62, 50.03 42.34, -1.41 45.31 M-1.8 49.02 C-2.57 27.43, 4.67 14.1, 3.77 -1.99 M-0.73 47.2 C-0.42 31.68, -1.23 17.41, -1.62 -0.89" stroke="#000000" stroke-width="1" fill="none"></path></g><g transform="translate(748.7247935459197 468.3446700775699) rotate(0 89.5 18)"><text x="89.5" y="25" font-family="Virgil, Segoe UI Emoji" font-size="28px" fill="#000000" text-anchor="middle" style="white-space: pre;" direction="ltr">Prerequisites</text></g><g stroke-linecap="round" transform="translate(11.290067863414379 514.0547460786502) rotate(0 224.16487808813017 137.43343851828516)"><path d="M-1.37 -0.04 C116.59 1.82, 232.97 0.39, 448.59 -0.81 M446.24 2.66 C448.12 78.71, 447.78 152.65, 446.77 272.07 M446.43 275.32 C296.85 276.17, 143.82 274.87, -0.44 274.76 M1.6 277.45 C-2.24 184.79, -1.32 91.11, -0.43 -1.34" stroke="#000000" stroke-width="1.5" fill="none" stroke-dasharray="8 9"></path></g><g stroke-linecap="round" transform="translate(10 10) rotate(0 808 72)"><path d="M0 0 C0 0, 0 0, 0 0 M0 0 C0 0, 0 0, 0 0 M-0.23 6.39 C3 5.53, 4.06 2.38, 4.87 -0.84 M-0.58 5.9 C1.92 3.37, 4.72 0.83, 5.78 0.05 M0.61 11.97 C6.67 9.99, 6.58 1.89, 7.47 -2.54 M-0.12 12.87 C3.15 9.15, 3.48 7.96, 10.71 0.6 M-3.22 19.03 C2.05 15.66, 11.06 7.76, 17.77 -1.17 M-1.43 17.49 C6.38 12.58, 10.98 5.39, 14.09 0.41 M2.41 27.32 C7.02 17.94, 18.35 6.19, 24.22 0.8 M2.02 26.07 C9.96 13.87, 14.59 4.9, 23.08 -0.22 M1.57 30.47 C9.79 16.47, 23.97 4.98, 26.43 -0.49 M1.64 30.2 C11.12 19.9, 17.55 11.31, 25.02 2.1 M-4 33.1 C10.7 31.95, 17.26 20.12, 35.84 3.33 M-0.72 37.54 C9.42 24.28, 20.45 9.71, 32.98 -1.57 M2.81 39.52 C12.67 33.5, 18.57 22.35, 33.3 -3.3 M0.47 42.09 C14.06 26.89, 27.49 11.17, 37.78 -0.5 M0.21 46.32 C12.11 26.58, 34.56 10.66, 45.96 0.43 M1.58 48.23 C12.46 33.92, 27.96 19.16, 44.33 1.46 M3.67 55.48 C15.3 40.47, 32.57 24.25, 49.61 4.14 M1.6 53.3 C14.88 41.51, 27.65 25.98, 47.65 1.76 M0.34 62.75 C17.86 38.88, 35.66 20.81, 53.58 2.58 M-1.86 59.4 C18.22 42.19, 36.28 19.03, 53.25 0.89 M1.24 70.79 C21.42 41.98, 46.63 16.18, 59.11 0.03 M-0.88 67.97 C18.25 43.35, 40.14 18.91, 57.11 -1.72 M2.92 73.8 C24.04 49.25, 44.03 18.51, 64.24 -1.33 M2.06 71.83 C21.87 45.73, 44.7 22.08, 62.08 -1.97 M1.14 78.12 C25.03 51.28, 44.38 25.05, 70.15 2.98 M-0.71 81.28 C21.06 54.07, 41.98 29.07, 69.86 0.78 M-0.97 87.36 C20.58 64.24, 32.79 47.2, 78.06 0.05 M-0.31 84.61 C21.53 60.31, 45.98 32.33, 73.39 1.47 M1.56 94.79 C33.83 58.1, 66.84 22.07, 79.61 4.04 M-1.34 89.95 C28.95 64.58, 52.28 35.8, 80.82 1.22 M-0.34 100.47 C21.53 70.8, 53.13 38.81, 85.71 -3.51 M-0.1 97.83 C23.41 73.6, 45.42 49.89, 83.94 1.07 M-0.06 99.85 C21.74 77.88, 41.44 50.85, 92.96 2.72 M0.63 103.22 C27.37 72.9, 52.15 45.62, 90.12 1.87 M2.33 108.39 C36.43 71.44, 68.23 29.25, 96.45 0.2 M-1.22 111.63 C33.98 70.33, 68.51 29.22, 94.74 -2.01 M4.27 118.74 C43.47 75.47, 77.83 32.23, 104.21 2.94 M0.81 113.62 C41.36 72.2, 78.39 24.58, 101.13 1.26 M-0.86 121.05 C22.46 86.94, 53.62 56.9, 110.06 1.84 M1.64 120.68 C40.16 82.1, 75.04 40.2, 105 -1.34 M-3.56 132.13 C26.3 93.63, 54.35 67, 107.95 1.08 M0.4 127.71 C46.78 78.29, 91.34 26.74, 110.41 0.23 M-0.56 132.06 C48.4 78.95, 91.26 26.18, 120.25 -0.75 M-0.32 133.17 C38.55 92.91, 71.06 51.24, 117.51 1.55 M2.88 140.84 C26.67 113.36, 49.97 86.42, 119.33 -2.06 M-1.24 141.07 C37.29 98.45, 74.73 56.96, 121.77 -0.13 M1.78 146.73 C36.06 104.53, 69.32 60.5, 129.27 -1.56 M-0.01 144.83 C34.72 107.31, 70.95 64.75, 127.23 0.14 M5.17 142.87 C48.97 97.02, 86.37 51.27, 130.05 2.77 M6.08 145.28 C41.99 99.04, 77.92 57.75, 132.22 -0.43 M13.8 144.99 C45.77 108.67, 73.53 76.57, 139.95 -1.86 M11.39 143.85 C50.45 100.05, 94.16 52.54, 139.37 1.47 M18.92 144.44 C63.15 95.28, 98.3 45.51, 144.38 -2.75 M16.24 145 C44.88 116.1, 69.52 86.5, 141.99 -1 M20.68 149.1 C67.49 93.9, 111.42 42.61, 146.33 -1.26 M22.89 144.6 C70.42 90.71, 118.36 36.76, 150.03 1.08 M25.01 147.73 C70.1 93.68, 118.46 38.19, 151.16 3.5 M28 143.7 C58.62 107.87, 88.75 74.1, 152.52 0.11 M34 146.41 C85.15 84.47, 134.23 28.77, 161.04 -0.91 M34.56 144.39 C62.25 115.13, 90.77 81.15, 159.51 1.83 M34.78 140.84 C86.89 94.89, 135.42 38.56, 167.78 0.08 M40.32 143.58 C70.71 106.22, 103.1 70.16, 164.5 1.11 M45.9 144.75 C65.85 116.83, 91.78 85.84, 171.25 0.47 M41.71 144.84 C88.53 90.28, 136.55 38.16, 170.36 -0.18 M50.18 146.28 C88.45 105.49, 128.69 59.46, 172.2 -2.01 M50.33 144.15 C90.33 100.52, 131.44 52.99, 175.8 -1.46 M57.11 144.35 C90.53 105.89, 127.28 58.08, 182.7 2.57 M52.85 145.82 C91.34 104.26, 129.12 61.21, 181.3 -1.54 M59.69 145.02 C103.04 94.86, 145.94 48.71, 186.94 -3.35 M59.42 144.18 C94.52 103.82, 132.35 59.31, 187.53 1.16 M64.88 141.9 C91.58 112.73, 116.79 81.19, 191.69 -0.43 M63.7 143.51 C89.93 114.35, 118.04 84.43, 189.31 -1.56 M66.37 144.47 C104.14 113.2, 130.81 76.55, 195.09 -4.06 M71.18 143.73 C103.81 106.81, 137.59 70.7, 198.03 0.07 M75.04 142.52 C126.62 92.94, 174.35 31.42, 205.08 0.04 M75.22 144.34 C118.79 88.91, 166.88 34, 199.58 -0.3 M83.16 143.21 C109.86 118.15, 135.72 87.76, 208.28 0.16 M80.76 146.89 C119.31 99.43, 160.77 53.43, 208.83 -1.39 M82.01 147.76 C124.29 103.26, 158.44 63.46, 212.31 -0.99 M87.57 143.06 C125.25 96.51, 162.63 54.69, 211.51 -0.49 M91.56 148.02 C121.89 112.34, 148.19 77.16, 214.73 -1.94 M91.49 144.77 C142.49 90.48, 190.55 30.52, 218.7 -1.59 M96.72 143.62 C126.89 110.91, 161.93 64.53, 221.36 -2.06 M98.15 144.67 C146.85 91.85, 194.06 34.46, 220.72 -1.61 M97.66 142.36 C143.14 94.03, 187.07 51.9, 231.2 -1.18 M100.98 146.02 C127.19 115.35, 156.21 81.87, 229.61 1.4 M110.71 144.54 C142.91 97.33, 184.89 50.38, 230.78 0.75 M107.57 146.46 C137.95 110.69, 169.32 72.7, 233.05 -1.87 M114.75 143.38 C152.89 105.16, 190.94 60.01, 234.38 -3.18 M113.68 143.84 C145.37 103.22, 182.58 61.23, 240.12 0.53 M116.06 141.38 C152.51 94.32, 193.86 46.07, 241.69 1.76 M117.64 144 C143.75 114.01, 173.79 84.06, 242.56 -0.16 M126.7 142.68 C168.41 83.47, 217.27 27.6, 247.48 -3.4 M122.29 146.67 C151.27 111.72, 179.82 77.47, 249.96 -1.24 M125.4 145.45 C174.06 89.09, 218.09 35.5, 253.77 -2.25 M129.42 145.16 C166.43 106.92, 198.78 63.76, 253.54 1.88 M131.93 142.27 C171.25 106.36, 204.61 67.84, 260.28 -2.58 M133.7 144.27 C176.93 95.64, 220.88 45.18, 258.1 -0.39 M135.96 144.49 C176 99.02, 214.56 60.61, 261.25 -0.06 M137.16 144.06 C168.86 106.61, 201.89 69.02, 266.47 -2.1 M147.44 142.63 C187.92 91.89, 235.12 43.57, 267.82 2.2 M143.05 145.66 C177.97 105.09, 210.73 67.81, 271.41 2.13 M149.5 146.7 C188.75 96.92, 227.95 53.24, 272.93 -2.02 M150.35 143.12 C182.07 104.54, 213.42 68.82, 276.08 -1.16 M156.78 146.65 C190.59 99.85, 228.93 58.95, 281.68 -1.68 M155.66 145.16 C201.51 88.91, 251.06 35.78, 281.96 -0.37 M160.35 144.68 C200 97.96, 245.84 47.48, 284.18 -4.05 M159.68 143.03 C189.77 107.18, 217.95 73.13, 285.3 -1.1 M162.05 147.67 C190.74 109.91, 225.53 81.22, 294 1.59 M165.11 144.34 C200.71 102.57, 237.93 59.81, 293.04 1.72 M167.4 143.5 C211.25 94.56, 252.95 47.05, 296.93 0.38 M171.09 144.79 C206.63 103.22, 238.38 64.57, 295.28 1.58 M179.95 141.47 C218.47 85.58, 269.33 32.13, 305.49 -3.75 M175.16 146.07 C204.85 113.21, 231.54 83.53, 301.17 0.28 M178.13 148.65 C222.26 90.46, 268.27 44.95, 307.67 0.25 M179.7 143.64 C229.6 85.46, 278.66 30.85, 307.4 1.66 M189.7 146.27 C225.43 97.14, 263.2 57.31, 313.42 2.98 M185.83 144.52 C212.84 112.57, 241.61 81.89, 314.08 -0.52 M187.89 146.82 C222.27 113.41, 250.59 79.41, 319.44 2.94 M191.22 143.88 C218.11 115.4, 245.13 85.64, 317.24 -0.8 M201.1 142.71 C232.12 103.76, 264.65 67, 323.62 2.9 M195.31 143.1 C241.88 94.97, 284.64 44.63, 324.72 1.78 M202.57 146.87 C250.86 95.57, 295.04 37.43, 329.87 -1.7 M202.53 145.84 C241.06 98.86, 286.04 47.37, 328.63 1.52 M210.53 141.88 C261.93 87.42, 306.63 32.44, 330.5 -2.42 M206.06 144.54 C239.85 104.5, 274.46 66.91, 333.26 1.89 M214.67 148.36 C256.5 90.41, 304.41 35.47, 343.12 2.6 M211.78 144.35 C239.89 108.89, 274.48 73.9, 339.58 1.27 M220.92 141.32 C242.33 110.9, 275.64 84.2, 345 -3 M218.71 144.83 C246.71 111.85, 277.06 75.79, 345.09 0.83 M225.89 142.54 C266.77 103.3, 298.89 53.99, 349.28 -0.69 M222.97 143.82 C256.89 105.9, 296.04 63.41, 347.69 -0.93 M229.73 144.97 C265.07 104.84, 306.1 61.06, 358.65 -0.41 M230.15 143.24 C277.85 87.27, 325.72 28.55, 356.82 -0.11 M234.51 149.09 C271.24 103.03, 308.62 52.54, 362.97 4.08 M235.34 144.91 C274.33 98.97, 312.34 51.84, 358.73 -1.38 M241.04 143.26 C284.78 90.71, 327.64 40.14, 363.53 -3.76 M239.47 144.34 C269.6 110.73, 295.56 79.37, 366.26 -1.36 M247.35 148.13 C287.82 93.68, 338.16 33.7, 367.4 1.24 M245.34 146.56 C289.16 94.05, 335.17 40.51, 368.74 1.13 M253.46 141 C300.01 89.78, 344.64 30.6, 380.29 -1.76 M249.98 143.95 C283.5 108.87, 313.94 69.91, 374.47 0.94 M251.82 148.21 C294.88 98.29, 342.95 48.15, 384.98 0.83 M256.63 144.01 C283.03 114.8, 310.24 84.69, 380.62 0.35 M264.16 145.49 C300.54 96.11, 345.82 46.04, 390.13 1.34 M259.2 143.2 C290.21 108.83, 321.07 74.44, 387.71 0.92 M267.86 142.34 C310.23 90.26, 355.03 37.85, 392.71 3.3 M266.12 146.76 C295.09 114.25, 327.02 79.03, 393.5 1.29 M272.87 146.43 C300.66 112.74, 326.08 86.18, 394.83 -2.27 M272.88 146.49 C310.02 96.56, 350.2 53.83, 399.46 0.99 M280.01 143.95 C319.9 88.35, 372.87 35.53, 406.15 3.57 M277.9 144.61 C318.05 99.44, 360.4 49.61, 400.7 -1.73 M285.91 143.97 C330.92 90.4, 380.05 32.18, 404.72 -3.98 M282.99 143.51 C315.16 108.53, 344.63 69.6, 408.42 -2.13 M289.35 142.89 C320.77 106.57, 360.56 68.08, 411.4 2.96 M289.29 145.62 C316.9 110.53, 347.09 77.57, 411.8 0.87 M296.14 144.71 C326.22 99.64, 370.4 55.02, 418.69 1.27 M293.71 143.21 C323.05 108.91, 352.31 74.76, 420.51 0.51 M301.51 141.49 C333.94 96.32, 372.14 58.22, 425.14 -2.74 M296.85 146.16 C341.79 95.95, 383.92 47.87, 422.57 -0.03 M302.98 141.68 C344.44 93.96, 393.84 47.48, 428.2 2.98 M303.46 143.84 C336.65 106.51, 370.01 72.13, 430.86 0.2 M306.71 142.49 C338.76 109.36, 372.34 69.9, 434.62 -3.33 M310.34 144.86 C345.78 102.14, 384.63 60.33, 433.01 1.72 M315.76 143.08 C354.99 93.08, 396.96 40.33, 437.28 3.08 M314.18 143.68 C351.1 102.29, 395.95 54.13, 441.85 0.46 M315.72 145.07 C358.38 100.71, 403.44 52.79, 441.62 -2.14 M318.74 144.63 C351.26 107.73, 386.03 71.51, 445.34 1.54 M320.36 149.31 C368.25 93.08, 416.85 44.21, 450.5 -4.07 M324.05 144.03 C355.98 107.25, 389.39 69.25, 449.03 -0.89 M331.87 148.85 C359.03 115.7, 387.2 79.73, 458.53 3.9 M328.24 146.68 C353.32 115.48, 379.22 84, 453.99 -1.84 M335.23 145.46 C363.45 109.44, 392.58 78.6, 461.01 -3.64 M333.45 143.73 C373.25 98.56, 410.25 54.94, 463.21 -1.72 M339.06 141.89 C375.11 105.07, 412.48 58.44, 464.26 -3.67 M340.27 144.47 C364.21 115.33, 387.84 82.08, 467.61 -0.44 M346.04 142.32 C377.3 118.97, 404.01 82.18, 469.86 4.35 M345.68 146.15 C386.69 97.96, 425.67 52.13, 471.75 -0.92 M353.74 144.68 C390.73 98.88, 430.28 56.84, 480.3 3.1 M349.48 145.78 C397.64 92.36, 443.75 42.1, 475.08 1.02 M357.04 149.09 C411.15 89.93, 460.35 30.97, 484.64 -1.92 M356.23 145.95 C401.19 93.93, 446.96 44.38, 483.18 0.69 M364.94 142.16 C407.76 91.44, 449.92 38.54, 486.71 -1.37 M361.7 146.64 C397.74 107.7, 433.01 65.91, 487.49 -0.9 M363.02 145.43 C399.08 108.84, 428.67 74.28, 495.52 -1.58 M366.81 147.05 C402.17 102.27, 436.57 64.51, 493.3 -1.2 M370.24 143.7 C419.36 93.41, 466.76 38.37, 498.1 3.75 M372.02 145.37 C420.27 89.69, 464.85 31.58, 500.15 1.64 M377.35 141.42 C412.03 102.97, 444.65 66.3, 505.9 -2.06 M375.35 144.66 C406.84 113.35, 435.21 84.37, 501.78 0.64 M379.78 147.09 C422.28 96.84, 463.19 48.99, 511.65 1.73 M382.74 144.59 C408.6 111.83, 433.54 85.72, 510.58 1.75 M387.96 141.6 C438.75 93.42, 479.33 41.59, 511.74 -2.38 M386.03 143.29 C417.74 109.02, 449.41 71.52, 513.51 -0.28 M396.27 142.6 C431.13 100.06, 467.37 63.28, 519.09 -1.71 M393.37 145.17 C431.72 100.77, 471.69 56.17, 520.54 -0.16 M401.34 148.92 C425.97 103.95, 458.21 75.58, 521.55 2.91 M399.19 146.71 C438.26 100.9, 478.39 54.01, 524.6 1.83 M402.98 140.9 C442.32 96.76, 488.69 53.87, 526.73 1.58 M402.63 144.28 C449.83 92.18, 496.52 43.14, 529.99 1.59 M406.54 144.79 C442.4 114.39, 473.39 80.45, 536.42 3.66 M409.45 143.97 C452.68 96.13, 494.77 43.58, 536.37 -0.94 M415.75 145.11 C451.76 109.91, 481.59 74.55, 543.43 2.19 M414.49 145.37 C446.23 110.97, 472.31 76.07, 539.12 -0.03 M419.17 141.04 C456.14 99.2, 495.68 62.17, 545.99 2.2 M419.6 143.42 C456.14 101.6, 491.07 61.45, 545.36 -0.26 M422.32 147.54 C463.03 108.4, 498.14 67.3, 552.62 1.14 M423.45 144.93 C463.27 98.79, 504.37 53.42, 550.33 1.21 M429.41 143.96 C479.47 97.78, 525.14 43.28, 556.48 1.25 M430.68 146.67 C467.25 99.75, 504.99 55.64, 557.35 -1.48 M436.95 146.69 C472.67 96.72, 512.44 54.19, 564.29 -2.1 M435.21 143.45 C467.16 112.75, 495.17 82.75, 562.24 -1.15 M438 142.25 C484.63 85.3, 535.48 31.27, 570.65 0.01 M439.93 146.63 C488.49 88.73, 533.93 32.54, 565.3 -1.69 M444.51 147.73 C479.26 105.52, 516.46 67.31, 570.98 2.38 M444.72 143.98 C480.43 102.48, 519.31 58.75, 571.7 -0.32 M452.23 143.07 C496.1 91.77, 537.7 48.15, 575.84 -1.9 M450.82 145.47 C487.46 103.33, 523.7 64.4, 579.43 0.31 M455.08 147.53 C480.14 115.22, 504.68 82.71, 583.17 -0.34 M456.82 147.09 C483.17 111.94, 515.4 75.12, 583.1 -1.43 M465.99 144 C491.68 112.05, 517.83 81.93, 587.94 -0.43 M463.04 144.66 C496.96 104.87, 528.78 65.71, 589.15 -2 M467.31 147.42 C511.22 93.12, 559.16 42.28, 595.83 -0.99 M467.54 145.64 C509.91 99.15, 551.03 51.27, 593.04 1.35 M471.68 145.08 C520.58 89.87, 576.75 27.2, 599.41 0.92 M474.49 142.94 C515.32 100.47, 552.47 54.02, 597.09 -0.87 M480.41 149.12 C514.23 100.3, 554.47 52.08, 604.55 2.4 M478.15 146.76 C528.26 88.13, 578.68 28.21, 604.37 -0.55 M480.31 144.77 C521.2 100.62, 560.25 56.27, 607.27 3.08 M483.28 146.35 C516.31 107.79, 549.35 68.06, 609.13 -0.24 M490.14 142.82 C521.03 113.11, 546.47 78.75, 612.13 -2.51 M489.12 145.87 C521.64 106.68, 552.91 70, 614.79 0.78 M493.42 143.96 C534.51 96.75, 575.75 49.27, 617.1 -0.58 M493.77 146.18 C538.8 94.17, 581.98 42.5, 620.32 -1.8 M500.84 143.15 C546.57 88.16, 594.03 31.06, 623.94 2.35 M498.17 144.66 C534.87 105.9, 572.12 62.03, 626.24 0.57 M507.13 142 C545.46 99.35, 580.72 51.09, 631.06 3.75 M506.52 145.03 C542.31 107.57, 575.07 69.3, 628.98 1.06 M513.41 145.16 C542.01 113.42, 574.88 73.55, 635.9 -2.48 M510.21 145.13 C562.39 86.92, 612.06 29.08, 634.88 -0.68 M516.1 148.66 C554.61 99.39, 590.52 55.18, 643.83 -1.69 M516.29 142.76 C549.47 105.56, 584.48 67.29, 642.6 1.22 M521.3 144.34 C557.55 107.12, 586.53 62.96, 646.5 1.96 M519.37 143.51 C555.32 100.98, 594.78 56.04, 645.07 0.78 M525.6 148.16 C560.27 99.78, 599.94 52.09, 654.71 1.79 M526.09 146.53 C562.11 103.41, 595.96 64.68, 651.92 -0.14 M530.53 148.63 C561.19 105.89, 592.09 69.82, 660.8 -2.93 M531.02 144.37 C563.91 108.64, 595.2 73.59, 655.42 2.03 M539.4 143.14 C563.75 114.06, 590.67 79.65, 663.52 1.31 M537.14 144.77 C582.82 98.05, 625.67 46.55, 660.9 0.4 M539.69 142.4 C584.41 99.68, 623.31 58.91, 670.4 2.69 M543.74 146.51 C573.73 103.39, 609.11 63.3, 668.73 -0.6 M547.24 143.46 C587.87 99.31, 622.15 62.23, 674.65 -3.58 M546.21 145.94 C579.51 111.5, 609.96 74.58, 672.7 -1.4 M551.92 146.45 C597.09 94.77, 648.51 40.74, 681.49 1.1 M551.3 145.05 C597.49 98.05, 637.66 49.53, 678.02 -1.48 M555.33 143.13 C586.19 113.79, 609.41 80.66, 685.07 3.12 M558.28 145.54 C586.09 106.82, 622.73 69.3, 683.71 0.45 M562.93 142.03 C601.79 100.69, 639.5 51.97, 686.81 -2.99 M564.74 145.37 C593 108.33, 624.65 73.46, 688.55 0.27 M570.51 144.87 C605.42 99.98, 642.72 61.37, 696.29 1.84 M568.55 144.59 C612.87 91.39, 661.53 38.63, 693.53 0.24 M573 146.83 C623.02 93.38, 671.78 38.15, 701.64 -2.42 M574.27 145.13 C601.62 112.4, 631.19 75.24, 699.78 -1.15 M574.85 145.07 C627.29 89.27, 673.34 38.06, 701.74 -1.79 M579.11 144.65 C616.16 97.97, 660.54 49.76, 706.34 -0.68 M582.94 146.96 C626.21 96.11, 666.19 48.98, 711.87 0.38 M583.35 144.29 C617.59 104.3, 651.66 65.83, 711.4 -0.29 M592.94 146.58 C615.44 113.91, 647.69 74.63, 717.39 0.02 M588.29 146.55 C625.98 100.1, 668.11 57.28, 715.5 1.01 M598.17 140.99 C643.75 91.43, 692.27 35.94, 717.92 -2.55 M594.66 143.07 C634.94 95.37, 675.59 47.94, 721.31 1.61 M599.98 146.67 C645.29 95.77, 693.21 40.96, 725.77 1.78 M600.6 144.43 C637.12 106.76, 675.78 61.4, 725.6 1.21 M608.63 143.9 C653.13 88.23, 702.26 36.71, 730.77 3.26 M604.07 143.98 C637.76 109.03, 672.16 70.32, 731.64 -1.43 M613.69 149.07 C653.2 100.25, 694.2 56.39, 738.66 1.67 M608.8 143.67 C647.41 103.32, 683.49 60.1, 737.14 -0.66 M616.85 143.12 C644.02 108.8, 675.95 78.79, 743.98 2.69 M614.7 145.81 C640.91 114.8, 669.87 81.3, 742.72 -2.11 M618.37 143.91 C644.58 118.62, 672.64 86.8, 744.4 -1.7 M619.85 146.96 C661.03 98.78, 701.95 51.24, 747.81 1.09 M625.91 142.54 C654.35 113.64, 678.57 84.83, 753.66 3.1 M626.87 145.65 C674.52 98.47, 715.26 46.46, 751.12 -1.84 M632.9 143.79 C663.14 111.99, 686.5 77.11, 759.88 2.74 M632.93 144.26 C657.96 117.86, 681.6 87.08, 758.53 0.45 M635.46 142.45 C669.86 102.66, 705.34 62.3, 762.49 -1.74 M636.13 144.83 C675.12 97.8, 717.06 48.73, 763.6 -0.75 M642.71 147.74 C688.83 93.32, 729.88 52.71, 770.56 2.48 M641.45 146.83 C693.89 88.8, 744.61 32.65, 767.45 1.67 M645.7 143.61 C697.36 92.09, 751.31 33.9, 775.71 -3.63 M647.23 143 C678.28 103.83, 712.22 67.35, 775.19 0.32 M651.77 145.21 C691.57 104.32, 727.32 57.89, 782.45 -2.55 M655.04 145.18 C699.98 93.52, 743.74 41.31, 779.91 1.29 M660.75 143.94 C697.6 96.93, 739.9 58.22, 781.11 0.1 M659.51 144.83 C701.12 92.16, 746.81 40.34, 783.07 -2.2 M662.64 144.11 C702.47 95.59, 740.02 51.55, 786.15 4.03 M665.53 143.12 C708.29 95.61, 753.87 44.37, 790.49 -1.86 M671.25 147.56 C703.14 107.12, 736.03 65.53, 793.07 2.54 M667.47 147 C717.18 88.14, 771.06 31.1, 796.71 -0.61 M672.43 142.78 C724.39 91.55, 773.42 32.54, 800.79 3.01 M672.98 143.74 C707.28 106.32, 741.01 68.44, 800.99 -0.68 M678.45 149.29 C721.47 96.25, 770.5 46.27, 808.51 -0.8 M678.89 144.75 C727.75 92.59, 770.86 44.38, 807.74 -1.9 M684.83 142 C724.01 104.42, 764.67 56.17, 814.09 -0.35 M683.68 143.41 C711.16 113.46, 738.54 83.98, 810.42 -1.78 M692.79 143.61 C734.19 99.21, 769.11 48.85, 818.27 0.81 M691.4 146.84 C731.73 93.37, 773.45 44.21, 815.38 -1.04 M698.07 140.97 C743.76 96.28, 782.73 46.8, 818.32 3.63 M696.11 145.78 C732.96 98.55, 771.76 56.83, 821.01 0.5 M697.31 145.47 C752.94 92.31, 802.35 28.53, 829.7 2.26 M701.85 146.32 C728.84 110.62, 760.39 74.74, 827.04 2 M708.95 141.36 C738.51 102, 775.65 67.2, 830.3 1.07 M707 143.78 C739.84 109.75, 774.15 73.64, 832.22 -1.89 M707.59 146.22 C738.31 105.94, 769.32 68.41, 834.77 -0.86 M712.32 146.5 C752.55 99.47, 791.51 50.81, 836.36 0.83 M716.84 143.24 C764.22 92.34, 808.72 35.27, 839.44 -1.48 M717.29 145.63 C746.36 110.79, 774.1 80.43, 842.71 -0.72 M719.76 141.68 C746.88 112.69, 772.3 82.96, 848.66 -3.27 M720.11 146.98 C764.38 91.87, 810.69 41.28, 847.89 1.57 M727.66 141.15 C762.74 97.8, 798.53 55.22, 851.69 2.99 M726.12 144.81 C769.42 95.14, 818.78 41.1, 852.37 -1.47 M730.54 144.09 C767.91 104.39, 807.83 57.76, 857.09 -1.26 M731.73 145.66 C782.28 94.97, 826.26 42.17, 858.37 1.61 M741.91 144.05 C778.2 100.82, 813.27 57.44, 861.57 1.9 M736.86 146.12 C768.75 105.77, 803.67 65.77, 864.31 -1.37 M741.2 146.14 C788.69 89.13, 828.65 40.12, 868.38 3.32 M744.9 144.7 C778.83 107.94, 811.26 68.98, 870.76 -0.36 M750.63 147.34 C787.61 106.6, 820.67 68.68, 872.17 -0.88 M747.12 143.6 C782.18 104.49, 815.62 67.65, 874.85 0.67 M753.57 148.94 C792.53 101.52, 835.54 57.7, 877.38 -0.93 M754.59 144.54 C800.21 91.27, 845.59 37.51, 880.24 1.62 M755.44 144.86 C798.07 99.1, 833.42 50.69, 883.13 2.97 M758.69 146.59 C784.2 113.6, 811.62 81.11, 883.54 -2 M766.05 142.06 C807.58 98.29, 850.62 47.81, 893.53 1.01 M762.97 145.93 C809.03 96.43, 848.1 44.95, 892.23 -1.2 M772.52 140.88 C804.55 105.27, 835.99 60.8, 894.65 -1.82 M771.61 145.71 C812.17 101.07, 846.39 60.43, 895.14 -1.75 M777.6 147.48 C804.04 107.61, 839.72 63, 904.82 -1.4 M773.41 143.86 C802.36 115.14, 833.29 79.75, 900.35 1.69 M779.94 146.88 C815.66 97.28, 857.55 49.54, 903.52 -2.06 M781.47 143.62 C827.93 95.03, 874.04 43.47, 905.64 1.34 M783.73 143.65 C809.9 110.02, 842.98 79.69, 913.79 -0.25 M784.52 145.62 C837.42 89.23, 888.37 29.95, 912.43 -1.88 M788.33 142.5 C837.27 94.62, 875.78 52.09, 915.06 -0.13 M792.05 145.98 C816.71 116.84, 847.77 82.43, 916.22 1.47 M796.53 141.42 C850.01 93.28, 893.41 35.41, 925.56 2.79 M796.14 144.8 C827.35 105.56, 857.28 70.47, 920.53 -0.83 M800.89 148.07 C835.06 107.23, 866.46 70.63, 931.17 -1.97 M801.38 144.03 C844.96 94.6, 891.69 41.81, 927.32 1.12 M808.64 148.12 C845.25 102.52, 883.84 52.41, 935.81 0.5 M807.31 143.25 C844.02 107.38, 879.99 66.23, 930.95 1.2 M812.04 145.63 C838.9 112.33, 871.54 77.53, 937.65 3.66 M810.36 145.5 C841.67 113.41, 873.95 77.39, 935.92 1.79 M821.28 147.47 C869.55 94.22, 915.66 39.32, 942.77 0.1 M818.28 145.09 C868.18 86.81, 916.6 30.9, 942.16 -0.13 M818.79 147.65 C855.07 111.64, 882.28 75.42, 950.83 -1.81 M824.11 145.42 C865.69 91.84, 908.68 41.96, 948.18 -0.96 M824.2 143.68 C859.44 107.15, 892.73 74.35, 951.25 3.23 M828.55 146.75 C858.59 112.26, 890.14 78.85, 954.89 0.11 M832.67 145.01 C858.86 118.13, 883.56 86.35, 961.64 -2.25 M833.97 144.09 C880.61 96.03, 925.65 44.99, 957.53 0.92 M839.76 141.35 C859.72 114.47, 889.47 90.12, 968.62 1.98 M838.81 142.93 C867.23 109.25, 896.46 74.64, 966.08 -1.87 M843.81 143.06 C887.04 95.5, 928.76 47.09, 966.23 -1.85 M843.51 145.1 C868.51 113.31, 895.6 81.58, 969.25 -0.95 M846.83 141.54 C878.95 108.62, 910.32 75.91, 976.79 -1.12 M848.98 144.59 C893.09 94.49, 938.16 43.43, 974.87 -0.57 M856.87 141.58 C907.84 86.22, 953.42 30.83, 977.29 3.61 M854.5 145.33 C880.14 114.94, 908.81 80.99, 981.86 -0.69 M856.89 145.75 C901.83 90.37, 946.57 44.2, 984.26 2.9 M860.2 145.02 C910.03 90.73, 954.31 38.31, 984.65 0.78 M863.11 146.78 C915.2 94.65, 965.68 36.8, 988.12 -1.16 M864.94 144.93 C908.51 93.58, 952.52 45.57, 989.1 -0.14 M869.94 143.92 C908.01 102.84, 942.68 63.28, 998.08 1.43 M868.82 145.73 C912.47 94.92, 957.12 44.14, 996.99 0.25 M876.32 143.32 C912.51 103.87, 952.17 58.64, 1000.53 0.95 M875.06 145.32 C910.77 101.64, 949.35 58.62, 1001.91 1.17 M878.58 142.41 C920.81 98.41, 965.15 46.61, 1003.86 -3.68 M880.43 146.57 C906.71 117.15, 932.23 84.81, 1005.72 -0.84 M888.86 146.27 C915.28 116.87, 941.34 79.07, 1012.92 -0.5 M885.27 143.22 C918.24 105.17, 955.59 64.83, 1010.47 -0.06 M887.29 144.78 C931.53 92.41, 973.64 44.73, 1017.79 -0.16 M891.16 144.38 C934.98 93.12, 979.19 42.08, 1018.86 0.15 M899.66 141.17 C936.65 96.47, 969.56 51.29, 1024.25 0.48 M898.24 144.63 C934.01 103.75, 966.55 63.59, 1022.16 -0.8 M903.09 144.77 C941.22 94.93, 988.92 41.67, 1026.6 -1.3 M900.34 144.05 C927.82 118.38, 953.92 84.32, 1028.65 1.1 M910.22 143.99 C935.7 112.33, 965.2 75.49, 1030.04 -1.67 M908.83 146.81 C942.17 102.8, 975.62 65.86, 1031.58 -1.76 M911.6 142.81 C962.66 91.78, 1003.47 36.77, 1039.58 -1.94 M912.54 144.99 C954.37 96.51, 993.28 48.31, 1037.57 1.21 M920.57 141.11 C949.34 107.82, 979.14 70.27, 1042.38 3.91 M918.15 144.33 C953.14 108.26, 986.99 71.34, 1042.58 -1.38 M923.65 147.04 C952.84 105.12, 988.33 65.21, 1051.96 2.26 M922.21 144.15 C953.18 105.79, 987.4 68.49, 1047.65 -0.32 M925.35 141.39 C952.23 111.31, 979.3 82.36, 1053.9 0.54 M927.5 143.03 C968.16 100.65, 1008.76 56.01, 1054.18 -1.79 M930.63 146 C960.7 107.41, 991.8 75.06, 1059.47 -0.18 M935.02 146.76 C964.49 107.41, 996.04 72.62, 1061.09 -1.24 M941.72 148.09 C989.03 82.87, 1039.05 31.88, 1065.83 -4.05 M940.4 146.03 C969.6 111.2, 997.41 75.75, 1066.65 1.14 M940.51 144.69 C978.53 96.32, 1023.56 55.31, 1066.44 3.95 M945.86 144.33 C973.14 111.48, 999.21 77.12, 1070.37 2.23 M949.42 146.94 C982.36 107.46, 1022.65 64.97, 1075.92 2.34 M948.62 143.72 C987.25 102.86, 1024.31 61.93, 1075.47 -0.18 M957.8 144.54 C994.66 100.64, 1031.76 55.2, 1084.42 -2.44 M956.84 144.65 C996.75 92.15, 1042.45 43.74, 1082.82 -1.61 M958.76 142.08 C1007.66 90.81, 1058.2 35.26, 1090.51 0.31 M962.1 143.79 C1003.22 98.11, 1043.23 51.6, 1085.35 0.95 M963.58 147.42 C989.87 111.32, 1017 80.07, 1095.53 1.98 M967.29 145.8 C996.6 107.56, 1030.2 70.06, 1090.02 -1.17 M974.59 144.1 C1019.11 84.59, 1073.45 27.4, 1096.49 -1.06 M971.05 145.2 C1003.86 112.09, 1033.25 76.21, 1096.21 -0.49 M975.51 143.65 C999.15 115.86, 1026.63 87.24, 1104.44 0.99 M975.74 146.13 C1009.36 112.11, 1041.18 73.52, 1101.72 0.42 M984.36 142.02 C1012.73 109.13, 1040.27 81.43, 1105.34 -0.29 M983.85 144.2 C1019.21 96.59, 1060.03 50.06, 1109.18 0.76 M987.79 147.96 C1034.96 92.92, 1080.27 40.09, 1110.4 0.81 M985.96 146.28 C1020.96 104.25, 1055.82 66.46, 1111.94 -0.68 M994.03 147.33 C1018.04 111.78, 1052.1 75.58, 1117.05 0.55 M993.14 144.31 C1027.57 102.09, 1066.93 58.86, 1116.61 -1.75 M999.19 147.54 C1050.54 89.54, 1095.31 36.76, 1127.21 2.09 M996.93 143.15 C1022.71 114.61, 1046.05 84.92, 1124.9 0.94 M1000.18 141.9 C1049.02 97.61, 1081.5 59.44, 1132.23 -0.15 M1001.75 146.34 C1034.94 103.58, 1067.9 63.04, 1128.09 -0.21 M1009.05 146 C1046.64 106.09, 1081.79 61.65, 1131.23 3.91 M1008.86 143.95 C1042.59 98.98, 1077.64 57.05, 1133.01 2.02 M1009.25 146.84 C1049.49 106.01, 1075.57 66.86, 1140 0.39 M1012.1 147.13 C1061.33 90.35, 1108.23 30.75, 1140.41 1.49 M1021.25 143.42 C1050.54 109.28, 1084.9 68.95, 1145.38 -0.19 M1017.16 144.16 C1054.15 99.3, 1093.76 54.61, 1142.95 0.54 M1020.23 143.42 C1045.54 112.7, 1074.56 82.36, 1154.09 -2.56 M1022.76 146.55 C1072.33 91.76, 1120.09 33.28, 1151.59 -2.26 M1032.27 148.27 C1061.46 108.15, 1099.32 67.07, 1155.16 -2.26 M1030.47 145.54 C1065.62 105.58, 1096.17 69.36, 1153.57 1.77 M1032.72 145.59 C1076.88 94.87, 1122.5 44.55, 1160.11 -0.57 M1034.59 145.99 C1067.67 107.53, 1100.56 72.42, 1162.19 -0.05 M1043.11 141.5 C1075.56 113.01, 1100.05 74.1, 1168.62 0.11 M1040.64 146.13 C1074.81 107.02, 1107.61 66.76, 1165.98 0.28 M1045.5 145.02 C1077.87 111.65, 1107.73 76.42, 1170.19 -3.04 M1043.29 143.39 C1087.91 93.78, 1134.97 40.02, 1171.98 -0.43 M1047.36 144.47 C1074.31 112.6, 1099.41 80.47, 1180.37 -0.24 M1048.76 146.25 C1085.58 108.93, 1114.43 74.32, 1177.48 1.91 M1051.94 147.8 C1099.78 101.42, 1133.56 57.88, 1183.09 3.35 M1056.81 143.97 C1093.76 100.04, 1132.26 59.85, 1181.98 -1.43 M1059.16 142.99 C1091.35 104.93, 1121.21 70.31, 1183.58 -0.05 M1063.12 146.5 C1089.6 111.84, 1118.17 81.22, 1187.6 1.76 M1067.97 146.44 C1111.91 101.23, 1154.95 45.97, 1190.75 -0.41 M1065.29 146.22 C1103.45 108.28, 1135.25 69.09, 1191.07 0.47 M1069.23 147.31 C1116 96.31, 1163.76 42.97, 1198.01 2.42 M1073.23 145.78 C1109.37 106.33, 1141.96 67.68, 1196.09 -1.75 M1080.09 147.92 C1125.25 94.94, 1167.45 40.72, 1205.7 3.13 M1075.12 143.91 C1116.06 99.98, 1155.46 55.17, 1201.36 1.07 M1080.84 148.11 C1121.78 106.41, 1159.76 64.51, 1209.95 3.3 M1083.82 143.24 C1126.39 98.16, 1166.13 48.52, 1208.92 -0.94 M1089.33 145.63 C1130.44 94.29, 1179.32 37.7, 1217.03 -0.18 M1086.87 144.11 C1120.19 112.42, 1145.22 78.45, 1212.17 -1.58 M1089.81 144.5 C1138.87 95.23, 1184.92 45.33, 1216.26 -2.81 M1092.85 144.34 C1118.05 114.22, 1144.45 85.66, 1220.27 -0.85 M1099.32 147.41 C1123.26 110.75, 1152.44 70.38, 1226.37 3.98 M1097.37 145.14 C1135.84 103.45, 1171.72 59.66, 1226.06 -1.1 M1104.55 148.06 C1134.85 110.07, 1168.13 78.48, 1228.37 -2.89 M1105.48 142.81 C1148.66 91.57, 1196.57 34.72, 1230.54 -1.24 M1112.23 147.55 C1160.5 85.78, 1210.36 30.92, 1235.94 -1.66 M1109.63 146.63 C1152.75 90.47, 1201.98 37.21, 1234.78 -0.88 M1118.01 146.76 C1165.77 90.64, 1214.32 32.37, 1244.27 -1.47 M1116.1 142.65 C1160.26 92.35, 1204.67 42.25, 1240.35 1.42 M1116.81 146.74 C1156.1 97.51, 1197.51 54.22, 1244.5 2.1 M1118.91 143.48 C1167.51 94.63, 1210.91 43.03, 1245.31 0.01 M1127.06 141.8 C1173.26 88.35, 1220.89 27.17, 1252.52 -0.65 M1125.66 144.91 C1173.42 89.35, 1220.66 36.72, 1252.56 -0.06 M1132.35 148.15 C1165.43 104.96, 1193.59 71.81, 1259.39 2.88 M1130.68 143.88 C1163.19 101.7, 1201.61 60.84, 1257.86 0.77 M1131.08 148.55 C1165.78 106.68, 1196.3 77.1, 1260.22 -4.09 M1134.3 146.65 C1167.15 109.22, 1198.45 72.28, 1262.21 -1.6 M1140.71 145.37 C1179.99 94.99, 1218.89 49.23, 1268.51 0.72 M1142.62 143.28 C1180.51 99.12, 1219.85 49.77, 1267.84 0.87 M1148.08 149.05 C1178.62 113.56, 1210.73 78, 1273.05 2.98 M1147.41 143.49 C1192.89 92.72, 1235.2 40.54, 1270.59 -1.82 M1154.33 142.42 C1200.91 90.31, 1247.26 32.48, 1276.31 -3.87 M1150.62 146.43 C1196.29 93.9, 1238.84 41.73, 1275.9 -1.92 M1157.25 149.07 C1190.08 109.2, 1221.04 63.72, 1282.6 2.53 M1156.26 144.56 C1185.1 112.16, 1216.14 78.59, 1282.54 0.68 M1164.19 141.76 C1204.46 92.37, 1249.33 47.49, 1291.81 2.04 M1162.83 145.36 C1205.81 96.71, 1247.25 45.96, 1289.88 -1.56 M1166.38 142.77 C1218.67 85.58, 1265.42 30.61, 1288.98 0.7 M1167.31 143.27 C1211.01 88.77, 1260.4 33.87, 1291.08 2.32 M1175.85 148.29 C1213.14 96.5, 1260.25 44.75, 1300.6 -0.18 M1173.57 145.38 C1222.44 86.91, 1269.57 31.67, 1298.88 -1.74 M1175.78 148.78 C1208.09 110.39, 1235.21 84.17, 1300.9 -3.65 M1176.28 143.32 C1210.74 103.82, 1244.06 64.59, 1303.51 1.07 M1181.41 141.36 C1213.19 101.89, 1251.38 64.76, 1308.82 -0.73 M1181.4 143.06 C1225.38 100.43, 1262.78 56.29, 1311.17 -1.84 M1190.37 142.17 C1230.96 97.69, 1268.15 55.62, 1310.29 -2.02 M1190.08 144.7 C1230.61 95.52, 1273.74 48.2, 1313.96 -0.57 M1195.57 142.74 C1229.06 102.51, 1266.59 57.47, 1323.17 2.65 M1195.11 144.29 C1221.58 106.89, 1250.45 73.17, 1320.28 1.02 M1199.59 146.41 C1250.41 91.74, 1294.48 37.17, 1327.63 -3.42 M1200.86 145.66 C1243.64 93.17, 1289.96 41.13, 1324.81 -0.83 M1203.54 148.64 C1248.96 93.23, 1285.95 43.88, 1330.94 0.62 M1203.7 146.21 C1255.56 90.6, 1306.82 32.11, 1330.93 -2 M1213.46 141.45 C1248.15 95.12, 1295.62 42.81, 1337.97 1.53 M1207.96 144.74 C1249.4 101.15, 1287.18 53.36, 1336.65 -0.65 M1213.15 141.72 C1260.31 87.63, 1305.86 39.37, 1343.95 0.33 M1214.37 143.25 C1260.23 94.35, 1307.38 40.5, 1341.08 -1.44 M1218.58 147.65 C1249.96 113.77, 1277.02 75.79, 1344.93 -3.31 M1219.97 146.77 C1264.33 98.1, 1308.69 49.12, 1346.3 -1.69 M1226.75 143.07 C1271.49 95.22, 1317.33 40.42, 1354.6 -2.69 M1226.56 145.13 C1273.67 88.68, 1321.47 32.28, 1351.89 0.42 M1230.07 141.83 C1268.19 103.94, 1303.29 61.13, 1358.7 0.32 M1232.67 144.84 C1264.47 104.73, 1302.33 63.15, 1356.78 -0.34 M1236.6 144.96 C1271.42 106.82, 1309.2 64.25, 1363.85 3.57 M1237.28 143.6 C1270.23 108.42, 1300.94 71.62, 1361.76 -0.41 M1239.67 141.23 C1266.32 114.28, 1294.52 81.1, 1367.99 -2.87 M1243.09 146.36 C1271.7 111.88, 1301.78 76.3, 1367.34 -1.68 M1247.53 143.85 C1294.41 95.41, 1338.03 43.06, 1369.21 3.54 M1245.71 143.42 C1278.9 108.13, 1311.25 70.82, 1372.28 0.36 M1251.62 143.52 C1284.95 102.61, 1313.76 69.61, 1376.13 -1.71 M1251.45 142.97 C1300.1 89.61, 1348.28 35.09, 1379.45 -1.55 M1260.91 148.89 C1302.44 92.6, 1347.17 40.77, 1384.78 -1.9 M1255.28 144.91 C1283.17 108.89, 1314.89 74.25, 1382.3 1.31 M1262.77 146.84 C1285.02 113.27, 1313.91 82.96, 1388.97 -2.63 M1263.21 144.64 C1307.01 96.99, 1349.5 46.97, 1386.79 -0.47 M1265.36 142.93 C1311.27 99.47, 1348.35 55.3, 1396.53 1.29 M1266.3 146.9 C1300.72 102.99, 1334.59 62.55, 1393.19 2.05 M1274.51 145.74 C1322.81 91.8, 1377.01 29.1, 1402.94 -1.59 M1275.03 145.58 C1302.16 114.34, 1327.29 81.17, 1397.26 -1.71 M1280.07 143.25 C1299.46 113.98, 1325.83 80.36, 1400.99 1.36 M1277.29 145.52 C1307.54 113.77, 1339.03 76.17, 1405.53 2.2 M1280.8 143.21 C1328.93 84.05, 1378.62 34.16, 1409.02 3.87 M1284.8 146.31 C1323.72 97.17, 1367.87 50.04, 1410.99 -1.23 M1286.76 141.55 C1325.83 95.94, 1366.3 52.51, 1413.28 1.24 M1287.02 144.16 C1322.42 106.75, 1357.55 66.91, 1413.14 -0.07 M1296.16 146.69 C1345.72 91.34, 1389.02 37.21, 1420.78 2.65 M1293.63 143.63 C1338.27 90.91, 1384.49 38.3, 1422.32 -1.73 M1297.75 147.98 C1331.69 105.53, 1372.65 63.01, 1425.72 3.56 M1300.45 143.51 C1332.43 112.02, 1363.16 76.2, 1423.73 -1.06 M1303.68 148.04 C1350.44 95.14, 1390.95 49.32, 1430.32 -1.91 M1303.85 144.59 C1348.63 91.35, 1395.8 40, 1429.81 1.38 M1311.89 147.14 C1360.66 92.91, 1407.37 39.32, 1435.22 -0.62 M1310.75 143.52 C1350.04 94.14, 1392.58 48.7, 1436.22 -0.79 M1314.99 143.58 C1356.32 100.41, 1395.72 52.53, 1444.32 -4.04 M1316.99 144.56 C1353.64 107.35, 1390.6 65.72, 1442.24 -2.03 M1318.62 142.05 C1348 116, 1374.09 87.27, 1447.22 4.18 M1321.33 145.45 C1352.09 112.5, 1380.94 78.01, 1446.74 -1 M1326.31 146.04 C1370.06 89.36, 1418.9 37.01, 1456.03 0.48 M1327.83 145.18 C1371.16 91.82, 1412.73 42.07, 1452.6 1.19 M1333.91 142.18 C1372.5 95.51, 1410.37 52.74, 1455.76 -2.1 M1331.82 145.83 C1373.78 94.98, 1418.43 45.03, 1458.65 0.85 M1338.41 148.62 C1383.96 89.5, 1435.82 35.64, 1465.23 2.31 M1338.34 144.35 C1368.25 110.95, 1399.01 74.37, 1464.12 1.47 M1340.33 143.43 C1393.19 90.07, 1434.36 35.08, 1471.41 0.91 M1340.06 146.45 C1366.09 116.15, 1394.67 81.48, 1468.53 1.58 M1344.62 144.93 C1381.42 102.68, 1416.88 57.55, 1474.3 -1.48 M1347.73 146.29 C1381.85 105.04, 1418.46 68.04, 1472.22 0.52 M1354.99 148.13 C1381.83 105.08, 1415.8 68.63, 1477.32 -1.98 M1352.11 144.4 C1385.39 109.26, 1418.55 67.54, 1480.17 -1.7 M1358.17 141.78 C1392.89 107.71, 1420.3 68.08, 1484.17 -3.35 M1357.76 144.21 C1397.61 102.97, 1432.8 58.29, 1482.56 1.35 M1361.56 145.06 C1404.8 100.78, 1438.53 52.25, 1489.2 -1.53 M1364.24 146.07 C1395.19 111.14, 1426.96 74.13, 1490.59 -1.6 M1370.85 144.17 C1418.46 92.93, 1460.26 41.5, 1498.31 2.66 M1369.37 143.37 C1413.64 96.21, 1455.65 43.53, 1493.01 -1.78 M1370.28 145.44 C1408.42 110.19, 1436.41 69.72, 1503.32 -0.05 M1372.96 145.08 C1403.02 113.29, 1431.1 79.58, 1500.01 1.53 M1377.01 147.77 C1416.88 101.92, 1450.87 65.41, 1502.8 0.95 M1380.77 143.57 C1424.79 88.02, 1472.04 32.84, 1503.67 -1.3 M1381.96 146.92 C1435.66 91.31, 1476.58 34.46, 1508.5 0.57 M1384.97 144.39 C1434.11 85.85, 1485.55 28.08, 1509.89 1.65 M1388.24 147.96 C1420.26 106.91, 1449.9 76.05, 1517.57 -0.88 M1388.04 146.13 C1437.46 94.62, 1480.9 37.68, 1514.18 -1.63 M1391.96 145.58 C1431.4 107.74, 1465.06 66.65, 1522.16 2.9 M1395.23 146.2 C1423.37 108.59, 1454.81 75.08, 1520.89 0.99 M1396.68 144.54 C1429.2 104.04, 1466.21 70.53, 1523.12 -3.08 M1398.47 144.66 C1431.14 114.25, 1457.21 82.08, 1524.4 -0.15 M1402.21 147.96 C1440.57 105.12, 1477.72 68.22, 1530.24 1.93 M1404.87 146.01 C1451.96 98, 1493.32 47.1, 1530.91 0.05 M1411.04 145.77 C1443.09 106.33, 1477.68 70.37, 1540.54 2.84 M1412.57 147.03 C1436.85 115.39, 1463.87 84.23, 1536.41 -0.71 M1417.19 143.02 C1462.61 92.79, 1508.25 39.91, 1539.26 -2.91 M1415.27 146.58 C1448.33 107.03, 1480.7 70.68, 1541.05 -0.37 M1420.59 148.31 C1461.89 90, 1503.52 47.47, 1550.13 3.02 M1422.08 145.42 C1470.04 88.3, 1517.44 32.2, 1547.17 1.37 M1423.96 146.15 C1460.82 96.94, 1506.07 59.98, 1556.31 -3.75 M1426.02 143.99 C1454.21 115.45, 1483.07 87.52, 1553.64 -1.2 M1431.17 141.3 C1481.44 92.56, 1528.41 38.95, 1558.75 -1.95 M1431.94 146.28 C1472.23 94.37, 1516.95 48.15, 1557.87 2.06 M1436.13 147.2 C1477.82 103.65, 1516.01 61.77, 1561.04 3.72 M1436.94 145.57 C1479.17 93.58, 1522.31 44.52, 1562.22 0.92 M1445.16 142.29 C1469.18 112.75, 1500.02 83.54, 1571.82 -1.04 M1442.33 144.32 C1469.92 108.09, 1504.13 71.84, 1567.93 -1.39 M1449.88 146.44 C1490.25 100.78, 1532.78 57.07, 1573.64 0.24 M1450.05 143.93 C1494.51 95.4, 1536.09 46.43, 1573.56 -0.38 M1449.54 145.28 C1484.79 112.79, 1512.61 79.43, 1581.34 -0.8 M1454.63 144.57 C1481.67 106.19, 1515.57 70.23, 1580.95 -0.47 M1455.94 142.59 C1486.51 117.96, 1511.36 89.55, 1586.9 3 M1459.6 142.99 C1499.33 96.54, 1545.35 43.41, 1585.63 0.81 M1467.81 148.69 C1511.37 92.17, 1556.85 36.47, 1593.86 2.69 M1465.45 144.32 C1488.81 112.5, 1519.61 81.79, 1590.78 -1.36 M1466.97 145.55 C1516.98 89.24, 1561.58 35.78, 1594.15 -2.39 M1469.39 144.66 C1501 100.77, 1538.75 58.72, 1593.64 0.7 M1476.06 143.4 C1523.5 90.65, 1568.48 32.62, 1602.49 3.76 M1472.61 143.13 C1507.36 107.92, 1539.23 70.09, 1599.48 1.02 M1476.14 145.41 C1508.59 115.14, 1540.72 77.77, 1609.27 -1.85 M1481.44 143.92 C1524.39 95.97, 1568.2 49.07, 1608 -0.24 M1486.94 148.72 C1525.73 98.38, 1562.98 54.75, 1614.91 -0.81 M1485.17 144.86 C1527.91 94.6, 1574.16 47.38, 1611.32 1.04 M1489.22 144.94 C1515.9 115.23, 1545.62 78.39, 1614.08 3.84 M1489.98 147.26 C1519.48 110.45, 1553.03 73.51, 1615.71 1.51 M1497.65 144.39 C1542.7 90.27, 1593.78 30.75, 1620.11 6.23 M1497.38 143.65 C1531.36 98.66, 1570.37 57.72, 1617.57 6.4 M1499.2 144.6 C1528.93 118.04, 1560.04 84.56, 1618.4 12.2 M1502.13 143.7 C1527.04 113.79, 1556.92 82.33, 1614.42 11.55 M1509.97 146.59 C1537.49 112.51, 1564.79 82.36, 1618.24 15.28 M1506.72 145.92 C1536.67 107.37, 1570.39 69.57, 1616.27 20.77 M1513.63 147.31 C1541.37 111.49, 1576.9 69.6, 1619.67 23.27 M1511.25 143.55 C1538.03 112.91, 1564.81 79.93, 1618.07 23.89 M1518.23 147.95 C1542.23 119.63, 1558.9 100.48, 1619.21 30.89 M1515.9 144.35 C1538.01 123.27, 1556.93 100.74, 1616.93 30.83 M1518.63 146.39 C1556.31 110.83, 1587.52 71.68, 1618.03 36.86 M1522.88 144.4 C1555.78 106.62, 1590.86 65.23, 1617.93 36.14 M1529.32 145.52 C1550.26 123.2, 1567.26 101.62, 1616.31 44.34 M1526.84 143.93 C1558.29 114.93, 1586.22 82.03, 1616.04 44.83 M1530.87 145.63 C1569.9 106.89, 1599.73 70.49, 1613.52 45.97 M1532.81 145.13 C1559.96 112.92, 1588.92 80.2, 1617.88 48.92 M1534.71 144.79 C1560.94 111.88, 1588.36 84.4, 1614.02 52.58 M1538.66 143.93 C1560.91 118.23, 1587.71 91.39, 1614.97 53.53 M1545.59 147.24 C1569.59 118.71, 1598.64 81.8, 1612.74 61.78 M1545.03 143.87 C1563.81 122.98, 1583.91 102.21, 1614.95 60.91 M1546.4 147.71 C1573.71 117.45, 1603.71 85.92, 1615.39 63.04 M1549.74 143.87 C1575.62 119.23, 1598.69 88.09, 1617.32 69 M1556.59 147.86 C1579.09 115.52, 1600.18 91.07, 1612.86 74.15 M1553.77 144.07 C1577.85 118.51, 1601.74 94.45, 1617.44 75.29 M1560.99 148.63 C1572.9 127.95, 1586.09 116.99, 1617.38 82.28 M1559.65 145.59 C1573.65 128.31, 1589.03 109.15, 1614.24 79.33 M1568.24 142.6 C1585.5 122.62, 1603.2 105.88, 1616.27 84.64 M1565.45 144.43 C1581.89 126.38, 1601.43 107.07, 1617.51 86.81 M1571.63 146.37 C1586.58 129.73, 1605.56 110.16, 1617.48 93.1 M1571.18 143.19 C1583.66 124.61, 1599.84 109.58, 1617.07 91.63 M1575.47 144.97 C1587.18 130.07, 1608.78 106.27, 1617.93 95.26 M1576.73 144.95 C1584.65 134.83, 1595.79 122.45, 1616.56 96.47 M1580.01 148.17 C1595.63 128.85, 1602.88 117.37, 1613.78 102.94 M1580.33 145.05 C1592.21 130.43, 1604.51 118.42, 1615.4 102.56 M1583.76 142.94 C1597.29 133.05, 1599.77 128.67, 1616.71 113.19 M1584.48 144.91 C1595.42 131.65, 1608.75 119.21, 1614.54 110.31 M1591.75 142.47 C1595.61 135.39, 1608.21 130.36, 1619.57 112.97 M1589.7 144.59 C1596.66 138.62, 1599.89 131.57, 1617.69 117.3 M1597.16 142.9 C1601.53 136.43, 1607.27 132.26, 1614 119.78 M1595.8 144.86 C1602.35 138.51, 1606.36 135.01, 1614.58 122.4 M1599 147.88 C1609.74 143.1, 1609.95 130.48, 1618.71 130.77 M1601.05 147.26 C1605.67 139.96, 1612.17 132.79, 1616.65 128.31 M1606.55 142.67 C1610.58 143.95, 1610.98 139.78, 1614.56 134.88 M1606.33 144.73 C1612.1 140.74, 1613.93 135.14, 1616.84 133.66 M1612.24 144.21 C1613.67 143.99, 1615.56 142.59, 1616.34 141.47 M1612.5 145.21 C1613.26 143.65, 1615.5 141.85, 1615.59 141.16" stroke="#4c6ef5" stroke-width="0.5" fill="none"></path><path d="M-0.85 0.31 C342.77 -1.21, 683.98 1.1, 1616.78 -1.41 M0.51 -0.58 C410.2 1.51, 820.74 2.48, 1615.37 0.47 M1612.3 3.93 C1616.3 40.5, 1615.47 74.88, 1613.76 140.55 M1616.46 -1.76 C1618.26 36.3, 1615.4 76.85, 1614.31 144.11 M1614.58 144.86 C1081.2 133.6, 547.25 132.72, -0.17 144.24 M1615.23 143.54 C999.22 132.48, 381.05 133.1, -0.5 143.6 M1.05 141.74 C-2.97 98.73, -2.56 51.83, 2.75 1.82 M-0.91 143.23 C2.06 94.28, 2.61 47.68, -1.54 0.67" stroke="#000000" stroke-width="1" fill="none"></path></g><g transform="translate(709.5 59.5) rotate(0 108.5 22.5)"><text x="108.5" y="32" font-family="Virgil, Segoe UI Emoji" font-size="36px" fill="#000000" text-anchor="middle" style="white-space: pre;" direction="ltr">Introduction</text></g><g stroke-linecap="round" transform="translate(708.0679920806868 510.8707206662969) rotate(0 460.9769897254508 192.19582488968754)"><path d="M-0.38 1 C245.93 0.42, 494.63 0.63, 921.82 0.54 M923.17 -1.17 C919.27 101.84, 918.16 199.77, 923.81 385.8 M921.72 384.28 C570.59 377.87, 219.21 377.31, 1.19 383.47 M1.34 383.86 C0.59 291.23, 1.76 202.54, 2.37 0.68" stroke="#000000" stroke-width="1.5" fill="none" stroke-dasharray="8 9"></path></g><g transform="translate(59.60698570586226 580.1450391177966) rotate(0 137.5 49.99999999999997)"><text x="0" y="18" font-family="Virgil, Segoe UI Emoji" font-size="20px" fill="#000000" text-anchor="start" style="white-space: pre;" direction="ltr">- History of Computer Vision</text><text x="0" y="43" font-family="Virgil, Segoe UI Emoji" font-size="20px" fill="#000000" text-anchor="start" style="white-space: pre;" direction="ltr">- Image Formation</text><text x="0" y="68" font-family="Virgil, Segoe UI Emoji" font-size="20px" fill="#000000" text-anchor="start" style="white-space: pre;" direction="ltr">- Structure from Motion</text><text x="0" y="93" font-family="Virgil, Segoe UI Emoji" font-size="20px" fill="#000000" text-anchor="start" style="white-space: pre;" direction="ltr">- Stereo Reconstruction</text></g><g transform="translate(776.9721448374905 607.5717642062947) rotate(0 61 62.5)"><text x="0" y="18" font-family="Virgil, Segoe UI Emoji" font-size="20px" fill="#000000" text-anchor="start" style="white-space: pre;" direction="ltr">- Vectors</text><text x="0" y="43" font-family="Virgil, Segoe UI Emoji" font-size="20px" fill="#000000" text-anchor="start" style="white-space: pre;" direction="ltr">- Matrices</text><text x="0" y="68" font-family="Virgil, Segoe UI Emoji" font-size="20px" fill="#000000" text-anchor="start" style="white-space: pre;" direction="ltr">- Operations</text><text x="0" y="93" font-family="Virgil, Segoe UI Emoji" font-size="20px" fill="#000000" text-anchor="start" style="white-space: pre;" direction="ltr">- Norms</text><text x="0" y="118" font-family="Virgil, Segoe UI Emoji" font-size="20px" fill="#000000" text-anchor="start" style="white-space: pre;" direction="ltr">- SVD</text></g><g transform="translate(1014.0158255271144 600.1607743451488) rotate(0 128.5 100)"><text x="0" y="18" font-family="Virgil, Segoe UI Emoji" font-size="20px" fill="#000000" text-anchor="start" style="white-space: pre;" direction="ltr">- Probability distributions</text><text x="0" y="43" font-family="Virgil, Segoe UI Emoji" font-size="20px" fill="#000000" text-anchor="start" style="white-space: pre;" direction="ltr">- Marginal/Conditional</text><text x="0" y="68" font-family="Virgil, Segoe UI Emoji" font-size="20px" fill="#000000" text-anchor="start" style="white-space: pre;" direction="ltr">- Bayes rule</text><text x="0" y="93" font-family="Virgil, Segoe UI Emoji" font-size="20px" fill="#000000" text-anchor="start" style="white-space: pre;" direction="ltr">- Conditional Independence</text><text x="0" y="118" font-family="Virgil, Segoe UI Emoji" font-size="20px" fill="#000000" text-anchor="start" style="white-space: pre;" direction="ltr">- Expectation</text><text x="0" y="143" font-family="Virgil, Segoe UI Emoji" font-size="20px" fill="#000000" text-anchor="start" style="white-space: pre;" direction="ltr">- Variance</text><text x="0" y="168" font-family="Virgil, Segoe UI Emoji" font-size="20px" fill="#000000" text-anchor="start" style="white-space: pre;" direction="ltr">- Various Distributions</text><text x="0" y="193" font-family="Virgil, Segoe UI Emoji" font-size="20px" fill="#000000" text-anchor="start" style="white-space: pre;" direction="ltr">- Entropy</text></g><g transform="translate(1359.0448259378086 597.188189207503) rotate(0 122.5 137.50000000000003)"><text x="0" y="18" font-family="Virgil, Segoe UI Emoji" font-size="20px" fill="#000000" text-anchor="start" style="white-space: pre;" direction="ltr">- ML basics</text><text x="0" y="43" font-family="Virgil, Segoe UI Emoji" font-size="20px" fill="#000000" text-anchor="start" style="white-space: pre;" direction="ltr">- Computation graphs,</text><text x="0" y="68" font-family="Virgil, Segoe UI Emoji" font-size="20px" fill="#000000" text-anchor="start" style="white-space: pre;" direction="ltr">  backprop</text><text x="0" y="93" font-family="Virgil, Segoe UI Emoji" font-size="20px" fill="#000000" text-anchor="start" style="white-space: pre;" direction="ltr">- Activation and </text><text x="0" y="118" font-family="Virgil, Segoe UI Emoji" font-size="20px" fill="#000000" text-anchor="start" style="white-space: pre;" direction="ltr">  loss functions</text><text x="0" y="143" font-family="Virgil, Segoe UI Emoji" font-size="20px" fill="#000000" text-anchor="start" style="white-space: pre;" direction="ltr">- Regularization and</text><text x="0" y="168" font-family="Virgil, Segoe UI Emoji" font-size="20px" fill="#000000" text-anchor="start" style="white-space: pre;" direction="ltr">  optimization</text><text x="0" y="193" font-family="Virgil, Segoe UI Emoji" font-size="20px" fill="#000000" text-anchor="start" style="white-space: pre;" direction="ltr">- CNNs</text><text x="0" y="218" font-family="Virgil, Segoe UI Emoji" font-size="20px" fill="#000000" text-anchor="start" style="white-space: pre;" direction="ltr">- RNNs</text><text x="0" y="243" font-family="Virgil, Segoe UI Emoji" font-size="20px" fill="#000000" text-anchor="start" style="white-space: pre;" direction="ltr">- GNNs</text><text x="0" y="268" font-family="Virgil, Segoe UI Emoji" font-size="20px" fill="#000000" text-anchor="start" style="white-space: pre;" direction="ltr">- Autencoders and GANs</text></g><g transform="translate(787.9378979607991 528.9644355301646) rotate(0 36 25)"><text x="36" y="18" font-family="Virgil, Segoe UI Emoji" font-size="20px" fill="#1864ab" text-anchor="middle" style="white-space: pre;" direction="ltr">Linear</text><text x="36" y="43" font-family="Virgil, Segoe UI Emoji" font-size="20px" fill="#1864ab" text-anchor="middle" style="white-space: pre;" direction="ltr">Algebra</text></g><g transform="translate(1074.4148013345884 528.7855688845939) rotate(0 63 25)"><text x="63" y="18" font-family="Virgil, Segoe UI Emoji" font-size="20px" fill="#1864ab" text-anchor="middle" style="white-space: pre;" direction="ltr">Probability &amp;</text><text x="63" y="43" font-family="Virgil, Segoe UI Emoji" font-size="20px" fill="#1864ab" text-anchor="middle" style="white-space: pre;" direction="ltr">Statistics</text></g><g transform="translate(1409.3436144843345 536.0755711379843) rotate(0 68 12.5)"><text x="68" y="18" font-family="Virgil, Segoe UI Emoji" font-size="20px" fill="#1864ab" text-anchor="middle" style="white-space: pre;" direction="ltr">Deep Learning</text></g><g stroke-linecap="round" transform="translate(13.22813131469411 315.91748633623814) rotate(0 161 51)"><path d="M0 0 C0 0, 0 0, 0 0 M0 0 C0 0, 0 0, 0 0 M0.01 7.24 C2.53 4.41, 4.18 0.74, 4.62 1.43 M0.45 6.46 C0.63 5.55, 2.47 4.22, 4.41 0.6 M-2.61 9.77 C5.22 7.39, 1.82 4.9, 11.82 1.73 M1.54 12.17 C2.12 9.65, 6.28 5.87, 12.22 -1.51 M-0.65 17.58 C0.77 13.21, 4.06 11.86, 19.04 2.67 M-0.78 18.76 C4.47 12.13, 12.65 4.34, 14.96 0 M-1.77 27.15 C7.97 15.01, 14.35 2.77, 23.07 -0.71 M1.47 22.13 C9.63 14.58, 16.88 7.72, 19.47 -1.72 M1.27 32.83 C12.58 20.91, 15.81 12.79, 29.04 1.58 M0.99 30.2 C10.93 17.93, 21.14 7.91, 28.12 -1.06 M2.63 40.07 C7.02 27.92, 14.73 16.26, 29.37 -1.78 M0.3 35.34 C8.23 25.52, 15.2 19.88, 32.4 0.01 M-3.6 45.46 C12.73 29.11, 26.35 16.88, 34.34 1.45 M1.31 40.52 C13.02 30.07, 24.18 15.15, 37.26 -0.56 M2.23 45.39 C13.93 36.48, 23.32 17.88, 45.06 3.37 M0.55 47.36 C15.36 31.11, 29.44 14.02, 41.51 0.87 M-2.45 57.13 C15.47 40.4, 32.09 21.35, 43.78 -3.6 M0.9 54.67 C16.34 33.31, 34.74 14.14, 45.82 1.47 M3.96 59.23 C16.87 40.16, 35.73 17.29, 54.77 1.58 M-0.38 62.28 C17.59 41.53, 35.89 23.39, 53.1 1.71 M3.42 68.67 C15.39 50.74, 21.08 39.08, 54.74 1 M0.04 65.6 C13.89 49.76, 27.31 38.41, 56.47 1.24 M3.96 69.41 C25.78 42.92, 47.66 18.88, 65.67 -1.87 M-1.17 71.69 C25 43.18, 50.14 18.88, 63.7 0.64 M-2.74 81.11 C15.64 60.97, 30.69 36.26, 65.19 -1.77 M-0.8 81.31 C17.11 60.73, 36.14 39.13, 69.11 1.27 M-1.06 88.17 C25.24 55.57, 55.99 22.64, 71.49 -3.28 M0.68 85.48 C21.96 58.29, 46.32 34.03, 74.05 -0.94 M2.9 88.16 C29.93 59.48, 58.19 27.77, 77.65 -0.46 M1.08 91.32 C19.58 66.91, 42.8 45.81, 78.84 0.35 M-2.47 100.94 C25.88 64.64, 59.76 35.9, 88.54 3.51 M-1.76 98.58 C18.76 71.33, 39.96 50.43, 83.14 -0.34 M4.04 100.48 C35.04 66.84, 61.43 32.46, 87.2 0.78 M-0.06 100.94 C37.92 63.05, 68.61 25.83, 89.98 -0.45 M8.76 100.54 C31.3 73.41, 55.83 47.26, 95.69 -0.91 M5.69 103.12 C32.75 75.28, 58.63 44.53, 94.14 0.4 M11.49 101.33 C42.75 64.2, 72.46 35.98, 101.48 2.26 M10.77 100.94 C33.94 74.31, 56.22 52.09, 102.09 0.23 M13.06 102.8 C45.15 72.76, 69.24 49.42, 102.35 -1.51 M15.23 102.1 C43.19 69.05, 74.31 35.67, 104.45 0.52 M23.58 106.31 C37.52 86.23, 57.32 62.09, 112.71 -3.26 M23.76 101.25 C45.74 76.75, 66.49 47.57, 111.91 -1.98 M28.81 102.99 C52.34 77.2, 70.63 50.29, 119.87 -0.09 M25.65 103.82 C59.2 64.77, 88.31 26.09, 115.04 -0.7 M35.05 102.13 C57.82 75.69, 87.72 41.31, 125.66 -2.6 M31.17 103.79 C56.95 75.13, 80.49 48.8, 123.45 0.84 M35.52 103.55 C63.54 68.34, 96.33 38.18, 128.1 1.76 M39.56 103.56 C54.71 82.12, 73.75 62.52, 127.07 -0.95 M47.2 101.95 C64.95 76.35, 91.18 48.76, 129.65 1.84 M43.44 103.73 C67.67 76.04, 91.42 48.32, 133.89 -1.12 M45.27 99.34 C82.07 64.67, 116.84 26.08, 139.51 3.13 M48.78 102.91 C71.57 77.33, 90.85 52.92, 135.93 -0.4 M55.9 101.36 C83.99 67.08, 114.12 33.38, 142.58 -3.86 M55.28 103.53 C85.87 64.67, 119.05 25.65, 143.65 -1.37 M58.71 105.68 C81.84 76.37, 110.58 39.87, 149.77 -3.2 M60.36 103.7 C90.44 64.65, 120.46 27.95, 147.91 1.33 M63.57 106.37 C94.85 63.57, 134.46 23.43, 150.92 -1.21 M63.57 102.94 C86.47 81.62, 104.2 59.53, 154.38 0.84 M69.04 106.3 C103.83 66.04, 134.59 31.41, 157.13 -2.03 M70.56 102.08 C93.67 72.67, 117.55 46.63, 157.51 -0.12 M75.2 105.47 C113.09 65.68, 145.21 27.13, 161.67 0.72 M73.46 100.99 C103.51 71.99, 128.91 43.44, 162.93 -1.45 M82.05 105.4 C107.54 72.79, 133.89 43.52, 166.37 0.31 M78.87 102.47 C99.24 82.45, 119.56 58.77, 169.44 0.19 M86.35 105.53 C115.07 69.12, 134.71 38.51, 174.44 1.29 M84.27 101.98 C114.51 69.76, 141.14 40.62, 175.38 -0.9 M88.05 99.59 C119.53 66.87, 148.14 31.72, 176.87 3.89 M89.98 103.56 C110.62 76.95, 133.88 54.08, 180.63 -1.53 M95.12 103.92 C122.87 65.26, 150.28 38.5, 185.35 -3.67 M95.57 101.51 C128.44 66.05, 162.66 30.74, 185.02 -1.92 M97.95 105.93 C130.61 67.37, 160.54 42.32, 194.56 3.25 M99.81 104.33 C125.67 76.78, 151.56 47.8, 190.25 0.21 M106.2 100.39 C137.39 61.81, 178.73 18.92, 199.12 -1.94 M105.13 100.43 C139.05 63.28, 172 28.04, 194.36 1.38 M115.21 101.91 C144.9 61.03, 177.37 19.33, 203.92 -0.65 M113.51 102.04 C141.39 68.76, 169.08 34.91, 201.66 -1.8 M118.83 101.18 C149.47 67.66, 182.41 29.03, 209.02 -0.81 M118.96 102.91 C143.96 70.9, 170.26 38.2, 205.14 -0.84 M123.84 101.46 C151.13 67.45, 184.75 29.59, 212 3.59 M123.43 102.23 C145.15 72.51, 170.63 47.02, 212.45 -1.52 M130.14 99.67 C165.91 62.93, 202.1 21.97, 216.88 0.81 M128.61 103.12 C152.91 75.45, 178.5 45.92, 216.31 -0.12 M132.43 102.97 C154.78 81.87, 171.34 53.65, 220.43 1.8 M135.14 100.73 C163.28 64.37, 197.28 24.95, 224.44 -1.6 M141.82 101.45 C170.86 67.62, 198.86 28.5, 229.1 0.5 M139.83 104.28 C166.84 71.08, 193.29 37.12, 230.03 0.25 M146.12 101.23 C171.58 70.81, 200.84 31.69, 229.37 -1.72 M145.44 101.64 C171.03 73.22, 194.84 47.48, 233.65 0.58 M152.14 100.81 C169.64 75.01, 191.92 53.41, 235.97 -2.99 M150.62 101.13 C180.03 70.13, 210.67 34.2, 237.04 0.06 M154.62 99.48 C177.21 71.08, 209.45 46.9, 241.56 3.72 M156.34 103.34 C176.14 78.82, 193.39 56.24, 244.32 -1.08 M162.58 105.7 C186.21 75.65, 208.78 41.57, 250.34 -0.75 M159.85 102.95 C195.5 60.3, 230.58 22.86, 249.25 1.07 M168.21 105.42 C188.77 73.69, 211.28 51.97, 258.31 -0.71 M165.08 104.5 C192.94 71.06, 222.92 38.8, 254.94 0.59 M173.2 102.53 C205.08 63.83, 235.63 29.43, 259.63 2.85 M168.61 104.29 C192.47 75.25, 216.47 50.64, 257.85 1.62 M173.71 103.17 C195.21 86.47, 212.5 64.07, 267.48 -3.44 M174.1 102.08 C207.21 66.21, 235.44 31.72, 264.18 0.07 M178.62 100.14 C206.39 68.5, 242 27.58, 272.48 -0.89 M182.22 103 C211.73 63.09, 245.85 26.18, 269.86 -0.45 M186.52 105.27 C211.52 81.37, 230.15 52.86, 279.5 1.57 M185.08 101.29 C218.89 69.57, 250.17 35.37, 276.94 1.1 M188 101.8 C213.38 77.92, 236.83 47.39, 282.1 3.8 M192.2 102.18 C221.54 66.73, 254.12 29.68, 281.56 -0.98 M198.59 100.73 C233.77 65.76, 268.38 26.54, 283.36 2.78 M196.9 101.65 C217.03 76.75, 235.81 54.51, 286.36 -1.31 M205.09 101.22 C220.51 77.82, 243.76 45.46, 294.27 -2.93 M202.29 104.26 C229.51 72.29, 254.39 39.97, 292.43 0.42 M206.46 98.97 C234.81 69.14, 263.45 33.4, 298.61 -0.9 M207.67 102.95 C243 63.01, 276.28 23.79, 295.76 1.17 M216.19 102.57 C247.45 60.48, 282.11 22.93, 299.31 -0.43 M214.47 100.9 C238.11 75.88, 256.46 52.5, 303.16 -1.53 M215.2 101.87 C238.35 78.87, 254.02 61.1, 307.36 -4.15 M216.72 103.26 C253.53 63.08, 289.7 20.97, 308.71 0.12 M226.17 100.42 C257.62 63.86, 290.76 23.44, 316.13 -3.66 M222.93 103.06 C249.22 71.72, 272.23 45.29, 313.68 0.13 M226.45 99.74 C252.48 79.37, 270.13 55.29, 314.29 0.82 M230.58 100.94 C247.81 77.98, 269.71 56.91, 318.99 0.41 M230.44 99.8 C266.94 70.21, 291.02 40.12, 323.51 -2.37 M232.05 103.01 C257.89 73.16, 282.56 46.94, 324.47 -0.58 M241.78 100.07 C258.46 77.67, 277.95 57.31, 320.73 3.01 M240.37 101.38 C258 81.89, 275.7 61.4, 322.69 4.98 M243.01 104.18 C275.55 68.81, 304.5 32.75, 320.31 11.94 M246.48 104.25 C273.11 68.97, 303.2 33.44, 322.7 12.46 M253.26 104.54 C280.89 74.73, 302.88 43.85, 325.15 18.32 M250.39 103.98 C280.51 71.38, 308.81 37.3, 320.68 18.5 M252.42 103.46 C270.69 81.57, 292.69 61.36, 324.94 26.33 M257.04 103.6 C276.23 82.67, 294.22 59.99, 323.78 23.74 M259.56 101.53 C288.24 72.35, 307.96 49.7, 325.8 31.05 M260.17 104.69 C276.43 86.57, 292.24 67.56, 323.31 30.91 M265.78 101.98 C287.54 77.35, 301.05 57.99, 326.54 35.59 M266.79 101.14 C286.72 77.97, 306.62 53.99, 324.52 37.37 M272.59 99.08 C292.88 79.37, 307.44 58.78, 320.97 43.48 M269.13 103 C288.49 81.4, 306.29 61.74, 324.57 44.95 M272.78 106.51 C296.39 83.71, 310.34 60.07, 322.18 51.74 M277.03 102.25 C290.3 86.36, 305.59 69.39, 322.27 48.48 M280.81 105.7 C297.14 86.11, 315.56 65.9, 320.15 55.57 M281.92 104.67 C295.07 89.52, 306.84 74.9, 323.33 53.89 M289.65 106.26 C298.53 85.57, 311.57 71.93, 323.43 64.94 M285.24 103.58 C298.03 88.1, 311.55 70.75, 323.57 62.24 M293.22 102.32 C297.27 94.21, 304.97 91.26, 323.37 69.71 M290.39 103.73 C303.78 87.1, 315.03 74.79, 324.69 68.3 M299.2 100.9 C310.9 89.02, 320.77 77.21, 324.47 76.06 M299.14 103.05 C303.21 95.78, 308.49 88.55, 322.22 72.35 M303.42 102.31 C306 99.88, 312.01 90.67, 324.6 79.52 M303.61 104.51 C310.2 94.04, 315.76 84.83, 321.3 78.76 M310.78 104.51 C315.14 96.17, 321.36 94.6, 324.69 89.67 M306.67 101.89 C312.18 95.13, 318.6 90.21, 323.88 84.03 M310.71 100.49 C317.87 99.39, 319.23 98.97, 325.22 94.01 M313.74 103.38 C316.38 100.54, 317.48 96.48, 322.17 91.3 M318.23 102.19 C320.88 100.57, 319.69 100.54, 323.31 96.97 M318.73 102.48 C320.39 100.59, 321.54 99.09, 323.13 97.58" stroke="#4c6ef5" stroke-width="0.5" fill="none"></path><path d="M2.64 -1.38 C73.7 0.32, 142.72 -0.67, 323.74 -1.25 M-1.03 -0.37 C97.24 1.27, 197.04 0.93, 320.74 -0.9 M325.85 1.88 C319.95 30.14, 321.34 61.97, 323.23 98.65 M321.87 1.35 C325.43 40.32, 322.79 79.07, 321.39 100.93 M324.16 100.94 C224.06 106.65, 129.08 108.84, -0.37 104.74 M322.85 101.45 C228.31 101.45, 136.26 103.1, 0.37 102.48 M1.17 104.47 C-0.24 78.91, -2.85 55.07, 2.07 -2.95 M1.96 100.86 C-0.67 63.36, 1.1 21.85, 0.51 0.06" stroke="#000000" stroke-width="1" fill="none"></path></g><g transform="translate(41.22813131469411 344.41748633623814) rotate(0 133 22.5)"><text x="133" y="32" font-family="Virgil, Segoe UI Emoji" font-size="36px" fill="#000000" text-anchor="middle" style="white-space: pre;" direction="ltr">1.1 Organization</text></g><g stroke-linecap="round" transform="translate(552.3226032705603 201.5074393622929) rotate(0 306.49999999999994 46.5)"><path d="M23.25 0 M23.25 0 C247.95 -0.88, 470.64 -0.98, 589.75 0 M23.25 0 C194.09 -0.13, 364.85 -0.39, 589.75 0 M589.75 0 C605.34 -1.26, 614.21 9.62, 613 23.25 M589.75 0 C603.92 -0.12, 613.08 8.24, 613 23.25 M613 23.25 C614.21 41.35, 611.7 57.85, 613 69.75 M613 23.25 C613.27 40.51, 613.76 56.21, 613 69.75 M613 69.75 C613.49 85.56, 605.79 92.89, 589.75 93 M613 69.75 C613.35 83.79, 606.1 93.66, 589.75 93 M589.75 93 C407.79 92.37, 227 92.79, 23.25 93 M589.75 93 C365.74 92.84, 141.94 92.65, 23.25 93 M23.25 93 C5.88 92.86, -0.65 84.09, 0 69.75 M23.25 93 C7.86 91.66, -0.92 84.91, 0 69.75 M0 69.75 C1.01 52.47, -0.56 37.2, 0 23.25 M0 69.75 C-0.6 59.12, 0.97 50.37, 0 23.25 M0 23.25 C-0.1 9.28, 7.15 -1.99, 23.25 0 M0 23.25 C-1.3 6.15, 6.61 -0.76, 23.25 0" stroke="#c92a2a" stroke-width="1" fill="none"></path></g><g transform="translate(577.3226032705603 223.00743936229287) rotate(0 281.49999999999994 25)"><text x="281.5" y="18" font-family="Virgil, Segoe UI Emoji" font-size="20px" fill="#c92a2a" text-anchor="middle" style="white-space: pre;" direction="ltr">Full credits: Prof. Andreas Geiger, University of Tbingen</text><text x="281.5" y="43" font-family="Virgil, Segoe UI Emoji" font-size="20px" fill="#c92a2a" text-anchor="middle" style="white-space: pre;" direction="ltr">Course: Computer Vision, freely available on YT </text></g><g transform="translate(763.1683189302175 165.90409084272602) rotate(0 48.5 12.5)"><text x="48.5" y="18" font-family="Virgil, Segoe UI Emoji" font-size="20px" fill="#c92a2a" text-anchor="middle" style="white-space: pre;" direction="ltr">Disclaimer</text></g><g stroke-linecap="round"><g transform="translate(884.7389007396405 165.25546820541533) rotate(0 -0.3398948907852173 13.246077056722491)" fill-rule="evenodd"><path d="M0 0 C0 0, 0 0, 0 0 M0 0 C0 0, 0 0, 0 0 M-10.95 21.16 C-8.83 15.98, -2.13 11.03, 2.84 4.8 M-12.86 19.21 C-9.21 15.92, -4.83 12.45, 2.05 3.74 M-11.21 28 C-7.46 21.78, -1.15 15.13, 3.76 6.49 M-12.27 27.91 C-6.45 21.32, -1.41 13.94, 3.27 7.73 M-8.06 27.35 C-4.22 23.48, 1.98 19.18, 5.58 11.44 M-7.98 27.5 C-3.22 22.21, 3.35 16.06, 5.98 10.39 M-2.77 27.28 C0.57 22.65, 6.45 18.16, 8.9 14.94 M-2.92 27.31 C2.14 22.83, 4.63 18.49, 8.14 14.46 M1.88 27.2 C3.87 24.44, 6.65 22.43, 9.47 19.59 M3.03 27.47 C4.65 25.38, 6.36 24.26, 10.86 18.16 M6.95 27.51 C9.97 25.57, 11.74 23.22, 12.72 21 M7.55 27.42 C8.74 26.64, 9.81 24.94, 12.78 21.78 M13.45 27.44 C13.49 26.86, 14.43 26.52, 15.32 24.94 M13.34 27.44 C13.91 26.69, 14.74 25.75, 15.34 25.02 M-15.54 25.5 C-15.54 25.5, -15.54 25.5, -15.54 25.5 M-15.54 25.5 C-15.54 25.5, -15.54 25.5, -15.54 25.5 M-8.84 25.57 C-10.27 24.5, -11.67 23.53, -13.2 22.7 M-9.15 25.8 C-9.96 24.67, -11.21 23.67, -12.69 22.27 M-3.42 26.08 C-5.51 23.2, -7.01 22.55, -10.64 18.79 M-3.95 25.77 C-5.68 24.38, -6.73 22.66, -11.53 18.47 M1.56 26.2 C-2.31 21.26, -6.42 17.58, -9.4 16.63 M3.24 24.83 C-1.35 21.34, -5.58 17.12, -8.45 15.39 M7.9 26.04 C4.86 21.34, -2.51 15.7, -7.42 9.69 M9.93 25.47 C2.85 21.46, -2.25 16.73, -7.79 11.06 M13.22 23.87 C9.23 20.45, 1.88 14.26, -4.74 8.75 M15.19 26.02 C9.14 19.48, 2.61 13.37, -4.99 8.34 M18.58 24.16 C14.23 16.84, 9.2 13.72, -1.88 3.81 M17.18 21.54 C11.99 17.94, 8.62 14.26, -2.74 3.85 M11.79 11.57 C8.45 8.74, 4.74 5.61, -2.35 1.86 M11.82 11.24 C7.43 7.39, 3.09 3.83, -1.64 1.28" stroke="#fab005" stroke-width="0.5" fill="none"></path><path d="M-1.99 -0.95 C-6.99 11.43, -13.3 20.74, -13.69 24.02 M0.31 -0.54 C-4.12 6.85, -8.64 15.2, -16.03 24.89 M-16.81 27.44 C-9.26 27.12, -3.83 24.18, 15.08 26.57 M-14.91 26.55 C-7.05 25.16, 3.42 26.61, 14.42 26.22 M16.13 25.7 C9.97 14.96, 2.25 6.35, -0.81 0.56 M15.98 24.88 C11.09 17.97, 6 10.43, 0.15 -0.91 M0 0 C0 0, 0 0, 0 0 M0 0 C0 0, 0 0, 0 0" stroke="#000000" stroke-width="1" fill="none"></path></g></g><mask></mask><g stroke-linecap="round"><g transform="translate(884.8690012391885 181.83326876046874) rotate(0 -0.3027999677918274 -5.028368018013126)" fill-rule="evenodd"><path d="M-0.69 -0.02 L-2 -11.63 L3.5 -11.58 L1.54 0.07" stroke="none" stroke-width="0" fill="#ffff" fill-rule="evenodd"></path><path d="M-0.49 -0.41 C-0.2 -3.33, -1.35 -4.75, -3.27 -10.11 M-0.28 0.23 C-0.86 -2.49, -1.08 -5.77, -2.82 -10.49 M-2 -10.13 C-0.73 -10.36, -0.13 -10.07, 2.67 -10.08 M-2.22 -10.19 C-0.61 -9.85, 1.68 -10.29, 2.58 -9.86 M2.47 -9.91 C1.14 -8.11, 0.91 -4.79, 0.29 0 M2.05 -9.83 C1.66 -6.71, 0.93 -3.25, -0.47 0.44 M0 0 C0 0, 0 0, 0 0 M0 0 C0 0, 0 0, 0 0" stroke="#000000" stroke-width="1" fill="none"></path></g></g><mask></mask><g stroke-linecap="round" transform="translate(882.1752580717118 184.22642394808747) rotate(0 2.5636426679286615 2.5636426679286686)"><path d="M1.57 0.85 C2.18 0.87, 4.1 0.82, 4.73 1.16 C5.37 1.51, 5.32 2.5, 5.36 2.91 C5.39 3.32, 5.21 3.19, 4.93 3.62 C4.65 4.06, 4.09 5.14, 3.69 5.52 C3.3 5.9, 3.03 6.26, 2.55 5.91 C2.08 5.55, 1.28 4.06, 0.83 3.41 C0.39 2.77, -0.11 2.45, -0.14 2.02 C-0.17 1.59, 0.26 1.22, 0.67 0.82 C1.08 0.43, 1.88 -0.25, 2.3 -0.34 C2.72 -0.43, 2.96 0.11, 3.19 0.28 M0.93 0.83 C1.25 0.85, 2.01 1.53, 2.69 1.5 C3.38 1.47, 4.55 0.15, 5.03 0.65 C5.51 1.16, 5.8 3.89, 5.6 4.5 C5.39 5.11, 4.6 4.43, 3.79 4.33 C2.99 4.24, 1.54 3.85, 0.76 3.92 C-0.01 4, -0.67 4.9, -0.84 4.81 C-1.01 4.72, -0.58 4.23, -0.26 3.36 C0.06 2.49, 0.63 0.19, 1.06 -0.41 C1.49 -1, 2.2 -0.42, 2.33 -0.2 C2.46 0.02, 1.72 1.01, 1.84 0.93" stroke="none" stroke-width="0" fill="#ffff"></path><path d="M4.1 -0.71 C4.68 -0.67, 4.56 0.19, 4.6 0.83 C4.65 1.47, 4.48 2.45, 4.35 3.12 C4.22 3.79, 4.17 4.44, 3.82 4.85 C3.47 5.25, 2.64 5.69, 2.23 5.55 C1.83 5.41, 1.87 4.54, 1.39 4 C0.91 3.46, -0.43 2.66, -0.67 2.32 C-0.91 1.97, -0.29 2.11, -0.05 1.91 C0.2 1.71, 0.24 1.29, 0.79 1.13 C1.34 0.97, 2.91 1.22, 3.26 0.97 C3.62 0.72, 2.91 -0.36, 2.9 -0.37 M3.16 1.38 C3.28 1.2, 2.63 -0.52, 3.17 -0.17 C3.7 0.18, 6.33 2.69, 6.37 3.49 C6.41 4.29, 3.68 4.43, 3.39 4.62 C3.09 4.82, 4.98 4.5, 4.6 4.66 C4.22 4.82, 1.8 5.66, 1.11 5.57 C0.42 5.48, 0.77 4.9, 0.45 4.12 C0.13 3.34, -0.84 1.57, -0.81 0.9 C-0.77 0.22, 0.06 0.21, 0.67 0.07 C1.29 -0.08, 2.5 -0.23, 2.88 0 C3.26 0.24, 2.88 1.62, 2.96 1.47" stroke="#000000" stroke-width="1" fill="none"></path></g><g transform="translate(48.866408945878334 430.7895969173489) rotate(0 139 10.5)"><text x="139" y="14" font-family="Virgil, Segoe UI Emoji" font-size="16px" fill="#000000" text-anchor="middle" style="white-space: pre;" direction="ltr">illustrated-machine-learning.github.io</text></g><g transform="translate(58.890461803357894 580.0030292200299) rotate(15.838605673310283 5.5 12.5)"><text x="5.5" y="18" font-family="Virgil, Segoe UI Emoji" font-size="20px" fill="#5c940d" text-anchor="middle" style="white-space: pre;" direction="ltr">V</text></g><g transform="translate(59.60302574627997 603.2582778084968) rotate(15.838605673310283 5.5 12.499999999999972)"><text x="5.5" y="18" font-family="Virgil, Segoe UI Emoji" font-size="20px" fill="#5c940d" text-anchor="middle" style="white-space: pre;" direction="ltr">V</text></g><g transform="translate(59.76921429288234 627.3002081547136) rotate(15.838605673310283 5.5 12.5)"><text x="5.5" y="18" font-family="Virgil, Segoe UI Emoji" font-size="20px" fill="#5c940d" text-anchor="middle" style="white-space: pre;" direction="ltr">V</text></g><g transform="translate(58.36474541524365 653.0095228526854) rotate(15.838605673310283 5.5 12.5)"><text x="5.5" y="18" font-family="Virgil, Segoe UI Emoji" font-size="20px" fill="#5c940d" text-anchor="middle" style="white-space: pre;" direction="ltr">V</text></g></svg>